<svg xmlns="http://www.w3.org/2000/svg" viewBox="0 0 1024 1024" width="200" height="200"><path d="M512 40.96C251.904 40.96 40.96 251.904 40.96 512s210.944 471.04 471.04 471.04 471.04-210.944 471.04-471.04S772.096 40.96 512 40.96z m0 612.352a141.312 141.312 0 1 1 141.312-141.312 141.312 141.312 0 0 1-141.312 141.312z" fill="#C15100" /><path d="M962.99008 472.33024c-21.504-45.44512-25.64096-77.5168-26.3168-84.35712a13.80352 13.80352 0 0 1 0-2.60096c9.66656-120.832-53.92384-76.86144-66.84672-137.8304a112.20992 112.20992 0 0 0-61.44-78.47936 14.97088 14.97088 0 0 1-6.26688-5.61152c-19.5584-31.51872-45.056-39.6288-56.91392-41.71776A15.33952 15.33952 0 0 1 735.232 115.3024c-23.1424-33.50528-86.75328-33.64864-104.448-32.99328a14.99136 14.99136 0 0 1-8.76544-2.43712c-92.03712-60.02688-63.95904 17.03936-150.34368-13.57824-58.38848-20.70528-92.69248-0.4096-109.07648 15.42144a47.104 47.104 0 0 1-32.0512 12.92288c-23.69536 0.43008-35.57376 11.03872-41.472 20.5824a49.54112 49.54112 0 0 1-24.3712 20.25472C242.62656 143.95392 235.52 156.34432 235.52 156.34432c-34.05824 62.58688-24.33024 19.12832-74.38336 60.14976a124.25216 124.25216 0 0 0-44.6464 75.22304 74.26048 74.26048 0 0 1-17.67424 36.352c-37.90848 42.76224-34.59072 83.39456-28.672 104.73472a43.74528 43.74528 0 0 1-3.70688 31.96928C30.72 532.1728 80.4864 534.7328 70.144 596.7872c-11.14112 66.74432 20.02944 58.85952 28.83584 76.47232s-15.0528 61.17376 25.4976 79.48288c35.24608 15.91296 59.53536 51.2 65.31072 60.23168a15.17568 15.17568 0 0 1 1.88416 4.34176c19.18976 72.51968 67.584 21.97504 102.68672 77.7216 27.70944 44.01152 86.016 48.5376 110.14144 48.41472a29.42976 29.42976 0 0 1 18.432 6.4512c35.36896 28.11904 77.824 16.896 100.92544 7.168a46.55104 46.55104 0 0 1 32.768-1.6384c53.5552 17.89952 110.592-11.20256 136.27392-27.25888a79.17568 79.17568 0 0 1 28.18048-10.52672c39.50592-7.08608 75.9808-47.5136 93.81888-70.41024a67.95264 67.95264 0 0 1 27.36128-20.64384c49.60256-20.84864 61.91104-85.11488 64.45056-105.3696 2.78528-22.24128 64.65536-60.47744 52.14208-120.95488s28.4672-76.4928 4.13696-127.93856z m-373.82144 162.01728c-6.26688 1.39264-36.37248 24.12544-80.52736 34.9184-47.104 11.50976-98.4064-57.83552-114.36032-62.99648-23.40864-7.5776-60.66176-48.35328-32.8704-106.06592a98.44736 98.44736 0 0 0 9.0112-32.19456c1.78176-16.85504 7.92576-41.32864 27.91424-52.06016 31.98976-17.14176 64.2048-62.44352 110.592-62.34112 44.60544 0.12288 92.69248 51.3024 128.73728 65.35168 33.75104 13.18912 15.9744 74.752 20.15232 87.61344s55.93088 100.08576-68.64896 127.77472z" fill="#F8E938" /><path d="M380.928 277.17632a374.62016 374.62016 0 0 1 239.16544-36.61824c37.08928 6.59456 56.77056-42.53696 25.088-62.93504a322.8672 322.8672 0 0 0-497.664 258.4576c-1.51552 37.66272 49.99168 49.80736 65.92512 15.6672A374.784 374.784 0 0 1 380.928 277.17632zM575.73376 698.7776a262.59456 262.59456 0 0 1-169.3696-7.92576c-24.576-9.64608-44.89216 21.38112-25.94816 39.79264a226.28352 226.28352 0 0 0 377.67168-108.78976c6.144-25.66144-27.46368-41.12384-43.13088-19.8656a262.71744 262.71744 0 0 1-139.22304 96.78848z" fill="#FEF7C9" opacity=".8" /><path d="M265.13408 258.41664s-76.96384 64.38912-89.7024 69.09952c-10.97728 4.096-84.2752-18.3296-13.59872-62.03392 67.8912-42.00448 237.40416-149.07392 424.1408-148.74624 26.624 0 44.35968 28.28288 32.39936 52.1216-13.39392 26.74688-49.70496 65.92512-134.02112 121.97888a1470.21824 1470.21824 0 0 0-189.952 149.504C224.0512 506.12224 145.408 588.32896 121.56928 646.49216a4.096 4.096 0 0 0 4.56704 5.67296c29.65504-4.89472 145.16224-27.2384 213.15584-87.69536a45.75232 45.75232 0 0 1 22.71232-11.24352c12.73856-2.048 26.03008 1.4336 10.07616 33.75104-26.09152 52.87936-212.992 155.81184-278.20032 100.82304s98.75456-230.31808 131.82976-256.63488c42.74176-34.01728 336.384-248.1152 340.45952-264.35584s-178.72896-7.80288-301.03552 91.60704zM657.53088 393.91232c-13.68064 6.8608-19.06688 10.67008-34.26304 11.28448-17.94048 0.7168-24.8832-11.65312 5.91872-35.86048 53.57568-42.0864 215.8592-150.44608 282.50112-68.1984S417.792 844.53376 417.792 844.53376s-24.82176 26.97216 35.28704 21.56544c58.83904-5.28384 314.368-84.25472 439.05024-277.4016 6.92224-10.73152 15.95392-27.46368 28.4672-28.32384 17.08032-1.14688 40.67328-1.92512 25.04704 54.92736C920.84224 705.6384 484.4544 995.55328 370.688 886.33344c0 0-58.7776-60.23168 128.49152-175.28832S885.12512 339.80416 873.79968 316.416c-9.54368-19.61984-165.76512 52.224-216.2688 77.49632z" fill="#FFFFFF" opacity=".7" /><path d="M390.59456 834.62144a16.384 16.384 0 0 1-13.824-6.36928c-2.048-2.78528-4.97664-8.8064-1.08544-17.59232 13.04576-29.5936 142.97088-134.18496 187.92448-138.752l43.1104-4.38272-33.75104 27.17696c-0.43008 0.32768-43.008 34.54976-85.25824 68.36224-88.35072 70.67648-88.96512 70.73792-93.92128 71.35232a25.27232 25.27232 0 0 1-3.19488 0.2048zM936.67328 598.2208a342.016 342.016 0 0 1-48.76288 65.536 441.48736 441.48736 0 0 1-61.1328 52.5312c-21.58592 15.64672-43.9296 29.85984-66.19136 43.95008-11.12064 7.04512-22.34368 14.17216-34.01728 20.62336a211.7632 211.7632 0 0 1-36.5568 16.384 2.47808 2.47808 0 0 1-3.13344-1.59744 2.49856 2.49856 0 0 1 1.4336-3.072c24.1664-9.66656 45.34272-25.1904 66.56-40.6528s42.47552-31.04768 62.50496-47.69792a420.43392 420.43392 0 0 0 55.296-54.0672 317.25568 317.25568 0 0 0 41.39008-63.87712 12.86144 12.86144 0 1 1 23.08096 11.32544 5.95968 5.95968 0 0 1-0.36864 0.7168zM884.736 354.83648a250.94144 250.94144 0 0 1-16.384 35.92192 363.60192 363.60192 0 0 1-20.82816 33.71008 203.5712 203.5712 0 0 1-26.07104 30.90432 119.66464 119.66464 0 0 1-33.792 22.97856 5.28384 5.28384 0 0 1-5.14048-9.17504h0.1024a140.06272 140.06272 0 0 0 27.21792-24.84224c4.096-4.62848 7.82336-9.60512 11.44832-14.66368s7.08608-10.24 10.40384-15.64672 6.61504-10.77248 9.76896-16.384l4.83328-8.192c1.57696-2.7648 3.1744-5.55008 4.8128-8.2944 6.49216-11.03872 12.96384-22.09792 20.15232-32.768a7.53664 7.53664 0 0 1 13.37344 6.656zM828.14976 306.40128a235.04896 235.04896 0 0 1-35.30752 16.22016c-11.776 4.52608-23.4496 8.4992-34.93888 12.55424s-22.7328 8.192-33.85344 12.88192-22.07744 9.76896-33.83296 15.36a5.14048 5.14048 0 0 1-6.67648-7.18848 99.9424 99.9424 0 0 1 28.0576-30.1056 155.4432 155.4432 0 0 1 35.92192-19.10784 185.61024 185.61024 0 0 1 38.58432-10.05568 163.61472 163.61472 0 0 1 39.56736-1.536 5.95968 5.95968 0 0 1 5.36576 6.49216 6.02112 6.02112 0 0 1-2.88768 4.48512zM314.83904 613.92896q-4.25984 5.57056-9.0112 10.8544c-3.31776 3.29728-6.71744 6.5536-10.24 9.728s-7.3728 5.87776-11.1616 8.72448-7.86432 5.2224-11.89888 7.68a203.20256 203.20256 0 0 1-52.16256 21.17632 270.21312 270.21312 0 0 1-55.07072 8.192 256.28672 256.28672 0 0 1-55.02976-3.072 4.62848 4.62848 0 0 1-0.18432-9.09312c17.77664-3.74784 35.328-6.53312 52.59264-9.91232s34.304-6.90176 50.97472-11.38688a466.2272 466.2272 0 0 0 48.98816-16.03584c3.95264-1.65888 7.90528-3.33824 11.93984-4.93568s7.84384-3.62496 11.85792-5.34528 7.80288-3.91168 11.83744-5.77536 7.82336-4.096 11.96032-6.144l0.24576-0.1024a3.56352 3.56352 0 0 1 4.36224 5.40672zM514.29376 237.6704C483.328 270.336 450.68288 300.6464 417.09568 330.05568s-68.32128 57.52832-104.2432 84.1728l-26.624 19.72224q-13.25056 9.74848-25.8048 19.82464c-4.1984 3.35872-8.3968 6.7584-12.47232 10.24s-8.192 7.00416-12.288 10.5472c-8.00768 7.22944-15.9744 14.49984-23.63392 22.1184-30.98624 30.26944-58.65472 63.85664-84.5824 99.6352a6.61504 6.61504 0 0 1-11.4688-6.49216 419.36896 419.36896 0 0 1 73.56416-114.52416 457.3184 457.3184 0 0 1 49.41824-47.73888c17.63328-14.76608 36.10624-27.77088 54.14912-40.61184 36.08576-25.57952 72.25344-51.2 108.8512-76.41088s73.6256-50.05312 112.3328-72.86784zM451.6864 160.6656C431.0016 169.984 409.98912 177.80736 389.12 185.73312s-41.55392 16.384-61.58336 25.47712a436.10112 436.10112 0 0 0-57.67168 31.45728c-9.29792 6.02112-18.71872 12.288-28.5696 18.432a182.96832 182.96832 0 0 1-31.3344 15.54432 5.95968 5.95968 0 0 1-5.09952-10.73152c18.6368-11.20256 35.2256-25.62048 53.57568-39.44448a298.1888 298.1888 0 0 1 29.04064-19.23072c10.0352-5.8368 20.48-11.10016 30.86336-15.89248a521.5232 521.5232 0 0 1 64.34816-23.87968c10.8544-3.31776 21.89312-6.02112 32.768-8.92928s22.016-5.48864 33.15712-7.74144a5.24288 5.24288 0 0 1 3.1744 9.91232z" fill="#FFFFFF" opacity=".8" /></svg>