<svg xmlns="http://www.w3.org/2000/svg" viewBox="0 0 1024 1024" width="200" height="200"><path d="M959.22 841.24l-7.69-24.63c-0.73-64.51-24.29-116.57-24.52-117.02-0.73-1.74-74.22-178.67-124.37-298.11-38.76-92.23-69.9-152.98-92.56-180.52-13.74-16.77-80.16-46.45-85.21-48.75-19.86-13.41-40.67-39.6-40.9-39.89a2.62 2.62 0 0 0-1.12-0.79c-0.11-0.05-0.22-0.05-0.34-0.11-0.34-0.12-0.73-0.12-1.12-0.06-0.05 0-0.11-0.06-0.17-0.06-13.18 2.8-67.77 4.04-69.22 4.04-1.52 0-56.04-1.24-69.23-4.04-0.05 0-0.11 0.06-0.17 0.06-0.39-0.06-0.79-0.06-1.12 0.06-0.11 0.05-0.22 0.05-0.34 0.11-0.45 0.17-0.84 0.39-1.12 0.79-0.11 0.11-5.39 6.73-13.07 15.04-7.74 8.24-17.9 18.17-27.82 24.85-5.05 2.25-71.47 31.98-85.21 48.75-22.66 27.54-53.8 88.3-92.56 180.52-50.21 119.44-123.7 296.37-124.38 298.06-0.22 0.51-23.78 52.56-24.51 117.08l-7.69 24.63c-0.39 1.29 0.22 2.75 1.46 3.37l86.95 41.96c1.07 0.5 2.3 0.28 3.14-0.45 1.57-1.46 38.49-35.4 49.37-47.68 8.24-9.31 34.11-40.33 46.17-54.86L236.78 889.5c-0.11 0.84 0.11 1.63 0.67 2.24 0.51 0.62 1.29 0.95 2.13 0.95h544.83c0.84 0 1.57-0.34 2.13-0.95 0.5-0.62 0.78-1.4 0.67-2.24l-15.09-105.91c12.06 14.53 37.92 45.55 46.17 54.86 10.83 12.29 47.8 46.22 49.37 47.68 0.84 0.73 2.07 0.95 3.08 0.45l87.01-41.96c1.24-0.63 1.86-2.09 1.47-3.38zM582.4 139.28c6.23 7.46 21.88 25.3 37.75 36.52l-31.53 101.76c-12.56-5.39-58.34-25.24-71.8-31.13 27.04-28.78 57.67-90.65 65.58-107.15z m-70.46 1.69h0.11c2.08 0 45.94-1.01 64.9-3.31-8.53 17.56-39.1 78.65-64.96 105.69-25.86-27.04-56.44-88.13-64.96-105.69 18.91 2.3 62.84 3.31 64.91 3.31z m-70.34-1.69c7.91 16.49 38.54 78.37 65.58 107.15-13.46 5.89-59.24 25.75-71.8 31.13L403.79 175.8c15.93-11.22 31.52-29.06 37.81-36.52z m-287.68 741.4l-83.08-40.11 6.11-19.58 92.51 45.21c-6.95 6.51-12.9 12.07-15.54 14.48z m337.04 6.39H242.78l15.76-110.57 53.97-376.2c0.22-1.51-0.84-2.97-2.36-3.2-1.57-0.22-2.97 0.84-3.2 2.41l-53.57 373.45c-4.66 5.55-41.74 50.26-51.89 61.71-5.22 5.95-16.94 17.33-27.66 27.43l-95.76-46.79c1.07-62.6 23.78-112.93 24.07-113.54 0.73-1.8 74.22-178.73 124.37-298.11 37.98-90.49 69.73-152.42 91.72-179.18 11.61-14.14 67.21-39.89 80.56-45.94l32.14 103.61c0.22 0.73 0.79 1.35 1.46 1.68 0.73 0.33 1.51 0.39 2.25 0.05 3.93-1.57 34.5-14.81 56.32-24.29v627.48z m36.47 0h-30.85V257.15c7.35-3.14 13.07-5.66 15.43-6.68 2.36 1.01 8.08 3.53 15.43 6.68v629.92z m295.07-52.39c-10.15-11.44-47.23-56.16-51.89-61.71l-53.57-373.45c-0.22-1.57-1.68-2.64-3.2-2.41-1.51 0.22-2.58 1.68-2.36 3.2l53.97 376.2 15.76 110.57H533.04V259.61c21.82 9.48 52.34 22.72 56.27 24.29 0.73 0.34 1.57 0.28 2.3-0.05 0.67-0.34 1.23-0.95 1.46-1.68l32.14-103.61c13.35 6.06 68.95 31.81 80.56 45.94 21.99 26.76 53.69 88.75 91.72 179.18 50.15 119.38 123.64 296.31 124.43 298.22 0.22 0.5 22.94 50.83 23.95 113.43l-95.7 46.79c-10.72-10.11-22.45-21.49-27.67-27.44z m47.52 46c-2.58-2.41-8.58-7.97-15.54-14.47L947.04 821l6.06 19.58-83.08 40.1z" fill="#1D1D1F" /><path d="M507.17 246.43c-13.46 5.89-59.24 25.75-71.8 31.13L403.79 175.8c15.93-11.22 31.53-29.06 37.81-36.52 7.91 16.5 38.54 78.37 65.57 107.15zM576.96 137.66c-8.53 17.56-39.1 78.65-64.96 105.69-25.86-27.04-56.44-88.13-64.96-105.69 18.9 2.3 62.83 3.31 64.9 3.31h0.11c2.08 0 45.95-1.01 64.91-3.31zM620.16 175.8l-31.53 101.76c-12.56-5.39-58.34-25.24-71.8-31.13 27.04-28.78 57.67-90.66 65.58-107.15 6.22 7.46 21.87 25.3 37.75 36.52zM953.1 840.57l-83.08 40.11c-2.58-2.41-8.58-7.97-15.54-14.47L947.04 821l6.06 19.57zM169.46 866.2c-6.96 6.51-12.9 12.06-15.54 14.47l-83.08-40.11 6.11-19.58 92.51 45.22z" fill="#F5F5F7" /><path d="M527.43 257.15v629.93h-30.85V257.15c7.35-3.14 13.07-5.66 15.43-6.68 2.35 1.01 8.07 3.53 15.42 6.68zM921.91 701.89c-0.79-1.91-74.28-178.84-124.43-298.22-38.03-90.43-69.73-152.42-91.72-179.18-11.61-14.14-67.21-39.89-80.56-45.94l-32.14 103.61c-0.22 0.73-0.79 1.35-1.46 1.68-0.73 0.33-1.57 0.39-2.3 0.05-3.93-1.57-34.45-14.81-56.27-24.29v627.46h248.18L765.45 776.5l-53.97-376.2c-0.22-1.51 0.84-2.97 2.36-3.2 1.52-0.22 2.97 0.84 3.2 2.41l53.57 373.45c4.66 5.55 41.74 50.26 51.89 61.71 5.22 5.95 16.94 17.33 27.66 27.43l95.7-46.79c-1.01-62.59-23.72-112.91-23.95-113.42zM713.79 828.45c0.17 0.73 0.05 1.51-0.39 2.19-0.39 0.62-1.01 1.07-1.8 1.24l-22.1 4.6c-0.22 0.06-0.39 0.06-0.62 0.06-1.24 0-2.36-0.84-2.69-2.13l-37.36-146.02c-0.34-1.29 0.22-2.58 1.4-3.2l22.5-11.95c0.73-0.39 1.63-0.39 2.41-0.05 0.84 0.34 1.4 1.07 1.63 1.91l37.02 153.35zM434.64 283.9c-0.73 0.34-1.51 0.28-2.25-0.05-0.67-0.34-1.23-0.95-1.46-1.68l-32.14-103.61c-13.35 6.06-68.95 31.81-80.56 45.94-21.99 26.76-53.74 88.69-91.72 179.18-50.15 119.38-123.64 296.31-124.37 298.11-0.28 0.62-23 50.94-24.07 113.54l95.76 46.79c10.72-10.1 22.44-21.49 27.66-27.43 10.15-11.44 47.23-56.16 51.89-61.71l53.57-373.45c0.22-1.57 1.63-2.64 3.2-2.41 1.51 0.22 2.58 1.68 2.36 3.2l-53.97 376.2-15.76 110.57h248.18V259.61c-21.82 9.49-52.39 22.72-56.32 24.29z m-59.46 404.47L337.81 834.4a2.818 2.818 0 0 1-2.75 2.13c-0.17 0-0.34 0-0.56-0.06l-22.16-4.6c-0.73-0.17-1.34-0.62-1.79-1.24-0.39-0.67-0.5-1.46-0.34-2.19l37.03-153.37c0.22-0.84 0.78-1.57 1.57-1.91 0.79-0.34 1.74-0.34 2.47 0.05l22.5 11.95c1.11 0.63 1.73 1.92 1.4 3.21z" fill="#603AE8" /><path d="M713.79 828.45l-37.03-153.37c-0.22-0.84-0.79-1.57-1.63-1.91-0.78-0.34-1.68-0.34-2.41 0.05l-22.5 11.95c-1.18 0.62-1.74 1.91-1.4 3.2l37.36 146.02c0.34 1.29 1.46 2.13 2.69 2.13 0.22 0 0.39 0 0.62-0.06l22.1-4.6a2.8 2.8 0 0 0 1.8-1.24c0.45-0.65 0.57-1.44 0.4-2.17z m-22.84 1.96L654.77 689.1l17.33-9.2 35.51 147.03-16.66 3.48z" fill="#1D1D1F" /><path d="M707.61 826.94l-16.66 3.47-36.18-141.31 17.33-9.2z" fill="#F5F5F7" /><path d="M373.77 685.18l-22.5-11.95c-0.73-0.39-1.68-0.39-2.47-0.05-0.79 0.34-1.34 1.07-1.57 1.91L310.2 828.46c-0.17 0.73-0.06 1.51 0.34 2.19 0.45 0.62 1.07 1.07 1.79 1.24l22.16 4.6c0.22 0.06 0.39 0.06 0.56 0.06 1.29 0 2.41-0.84 2.75-2.13l37.36-146.02a2.82 2.82 0 0 0-1.39-3.22z m-40.72 145.23l-16.72-3.48 35.51-147.03 17.33 9.2-36.12 141.31z" fill="#1D1D1F" /><path d="M369.17 689.1l-36.12 141.31-16.72-3.47 35.51-147.04z" fill="#F5F5F7" /><path d="M512.01 294.35c-6.45 0-11.67 5.22-11.67 11.61 0 6.45 5.22 11.67 11.67 11.67 6.4 0 11.61-5.22 11.61-11.67 0-6.39-5.21-11.61-11.61-11.61z m0 17.67a6.03 6.03 0 0 1-6.06-6.06c0-3.31 2.69-6 6.06-6 3.31 0 6 2.7 6 6 0 3.37-2.69 6.06-6 6.06z" fill="#1C1B23" /><path d="M518.01 305.96c0 3.37-2.69 6.06-6 6.06a6.03 6.03 0 0 1-6.06-6.06c0-3.31 2.69-6 6.06-6 3.31 0 6 2.69 6 6z" fill="#F5F5F7" /><path d="M512.01 398.37c-6.45 0-11.67 5.22-11.67 11.61 0 6.45 5.22 11.67 11.67 11.67 6.4 0 11.61-5.22 11.61-11.67 0-6.39-5.21-11.61-11.61-11.61z m0 17.68a6.03 6.03 0 0 1-6.06-6.06c0-3.31 2.69-6 6.06-6 3.31 0 6 2.7 6 6 0 3.36-2.69 6.06-6 6.06z" fill="#1C1B23" /><path d="M518.01 409.99c0 3.37-2.69 6.06-6 6.06a6.03 6.03 0 0 1-6.06-6.06c0-3.31 2.69-6 6.06-6 3.31-0.01 6 2.69 6 6z" fill="#F5F5F7" /><path d="M512.01 502.4c-6.45 0-11.67 5.22-11.67 11.61 0 6.45 5.22 11.67 11.67 11.67 6.4 0 11.61-5.22 11.61-11.67 0-6.4-5.21-11.61-11.61-11.61z m0 17.67a6.03 6.03 0 0 1-6.06-6.06c0-3.31 2.69-6 6.06-6 3.31 0 6 2.7 6 6 0 3.37-2.69 6.06-6 6.06z" fill="#1C1B23" /><path d="M518.01 514.01c0 3.37-2.69 6.06-6 6.06a6.03 6.03 0 0 1-6.06-6.06c0-3.31 2.69-6 6.06-6 3.31 0 6 2.69 6 6z" fill="#F5F5F7" /><path d="M512.01 606.42c-6.45 0-11.67 5.22-11.67 11.61 0 6.45 5.22 11.67 11.67 11.67 6.4 0 11.61-5.22 11.61-11.67 0-6.39-5.21-11.61-11.61-11.61z m0 17.67a6.03 6.03 0 0 1-6.06-6.06c0-3.31 2.69-6 6.06-6 3.31 0 6 2.7 6 6 0 3.37-2.69 6.06-6 6.06z" fill="#1C1B23" /><path d="M518.01 618.04c0 3.37-2.69 6.06-6 6.06a6.03 6.03 0 0 1-6.06-6.06c0-3.31 2.69-6 6.06-6 3.31-0.01 6 2.69 6 6z" fill="#F5F5F7" /><path d="M512.01 710.45c-6.45 0-11.67 5.22-11.67 11.61 0 6.45 5.22 11.67 11.67 11.67 6.4 0 11.61-5.22 11.61-11.67 0-6.4-5.21-11.61-11.61-11.61z m0 17.67a6.03 6.03 0 0 1-6.06-6.06c0-3.31 2.69-6 6.06-6 3.31 0 6 2.7 6 6 0 3.37-2.69 6.06-6 6.06z" fill="#1C1B23" /><path d="M518.01 722.06c0 3.37-2.69 6.06-6 6.06a6.03 6.03 0 0 1-6.06-6.06c0-3.31 2.69-6 6.06-6 3.31 0 6 2.69 6 6z" fill="#F5F5F7" /><path d="M512.01 814.47c-6.45 0-11.67 5.22-11.67 11.61 0 6.45 5.22 11.67 11.67 11.67 6.4 0 11.61-5.22 11.61-11.67 0-6.39-5.21-11.61-11.61-11.61z m0 17.67a6.03 6.03 0 0 1-6.06-6.06c0-3.31 2.69-6 6.06-6 3.31 0 6 2.7 6 6 0 3.37-2.69 6.06-6 6.06z" fill="#1C1B23" /><path d="M518.01 826.08c0 3.37-2.69 6.06-6 6.06a6.03 6.03 0 0 1-6.06-6.06c0-3.31 2.69-6 6.06-6 3.31 0 6 2.7 6 6z" fill="#F5F5F7" /></svg>