<svg xmlns="http://www.w3.org/2000/svg" viewBox="0 0 1024 1024" width="200" height="200"><path d="M692.3264 321.9456c43.8784-44.4928 56.2176-93.5936 59.0336-108.2368 0.512-2.6112 0.768-5.2224 0.6656-7.8848-1.8432-48.7424-41.9328-87.7056-91.136-87.7056-21.4016 0-41.0112 7.424-56.576 19.7632-19.6096-24.7296-49.92-40.6528-83.968-40.6528-34.048 0-64.3072 15.9232-83.968 40.6528a90.71104 90.71104 0 0 0-56.576-19.7632c-49.4592 0-89.7024 39.3728-91.1872 88.4736-0.0512 2.0992 0.1024 4.1472 0.4096 6.1952 1.9968 13.312 12.3392 63.1296 60.2624 109.0048 5.4784 5.2736 3.8912 14.4384-3.0208 17.664-115.5072 54.3744-243.2 163.1744-243.2 378.7264 0 210.4832 139.6736 207.872 185.4976 207.872h482.4576c44.4416 0 158.1568-7.8336 158.1568-232.704 0-153.7536-112.4352-284.8768-234.752-354.0992-6.1952-3.6352-7.2192-12.1856-2.0992-17.3056z" fill="#F55651" /><path d="M320 404.48l-43.9296-25.088c-91.5968 62.6176-173.0048 166.656-173.0048 338.7392 0 85.0944 22.8352 135.3216 53.0432 165.0176 19.4048-2.9696 41.7792-6.5536 66.816-11.008-69.632-29.3888-69.632-157.8496-61.7472-217.4976C188.6208 493.9776 320 404.48 320 404.48z" fill="#F67969" /><path d="M694.528 339.2c-4.9152-2.7648-6.5536-8.5504-4.6592-13.4656l-340.0704-3.3792c4.8128 5.3248 3.1232 13.9264-3.5328 17.0496-28.16 13.2608-56.9856 29.7472-84.5312 50.2272 56.4224 29.4912 214.528 92.0064 456.2944 29.2864 79.7184 75.8272 167.3216 152.9344 152.9344 332.032-5.2224 33.9968-20.8896 117.6576-108.4928 117.6576H251.3408c-56.2176 0-120.4736-19.8144-141.9264-79.8208 27.7504 139.2128 139.1616 137.2672 179.1488 137.2672h482.4576c44.4416 0 158.1568-7.8336 158.1568-232.704 0.1024-153.8048-112.3328-284.928-234.6496-354.1504zM707.9424 201.5232c-0.6656 24.1664-17.3056 69.632-40.4992 97.7408 2.7136 11.52 15.616 15.36 31.744 15.36 38.2976-42.4448 48.4352-82.0224 51.0976-95.8976 0.512-2.6112 1.5872-14.2336 1.4848-16.896-1.8432-48.7424-41.728-83.712-90.88-83.712-13.056 0-25.4976 2.816-36.7104 7.7824-2.1504 3.6864-3.4816 6.0416-3.4816 6.0416s83.968 7.4752 87.2448 69.5808z" fill="#E3413F" /><path d="M438.3232 142.7456c-15.0528-12.3392-33.9968-19.7632-54.6816-19.7632-47.8208 0-86.7328 39.3728-88.1152 88.4736-0.0512 2.0992 0.1024 4.1472 0.3584 6.1952 1.7408 11.9808 10.0864 53.4016 45.3632 94.976 12.6464-3.328 25.5488-7.0144 38.2976-11.0592-29.952-19.0464-43.1104-53.76-47.7696-74.7008-2.6624-11.9808-1.792-24.6784 3.6352-35.6352 18.7904-38.0928 72.3968-26.368 106.7008-8.6016 85.9136-88.8832 126.3616-24.832 159.1808 5.2224 40.448-45.7728 85.5552-26.7776 85.5552-26.7776 13.824 4.2496 36.7104 20.7872 54.7328 35.0208-8.1408-41.6256-43.6736-73.0112-86.3232-73.0112-20.6848 0-39.6288 7.424-54.6816 19.7632-18.9952-24.7296-48.2304-40.6528-81.152-40.6528-32.8704-0.1024-62.1056 15.8208-81.1008 40.5504z" fill="#F67969" /><path d="M285.184 936.192c-24.2176 0-71.9872-0.6144-113.5616-27.5968-52.2752-33.8944-78.7968-97.9968-78.7968-190.5152 0-223.7952 135.4752-334.4896 249.088-387.9936 0.1024-0.0512 0.3584-0.1536 0.4096-0.5632-50.1248-48.2304-61.2352-100.4544-63.4368-115.3024a47.5136 47.5136 0 0 1-0.512-7.9872c1.6384-55.1936 46.1824-98.4064 101.376-98.4064 19.7632 0 38.5536 5.5808 54.9376 16.2304a116.72064 116.72064 0 0 1 85.6064-37.12c32.7168 0 63.3856 13.4144 85.6064 37.12 16.384-10.6496 35.1744-16.2304 54.9376-16.2304 54.784 0 99.2768 42.8544 101.376 97.536 0.1024 3.2768-0.1536 6.656-0.8704 10.24-2.8672 14.7968-15.7696 66.816-61.7984 113.5104a1.2288 1.2288 0 0 0-0.3072 0.768c110.9504 63.0272 240.1792 195.6864 240.1792 363.4176 0 161.1776-56.6784 242.944-168.3968 242.944H286.9248c-0.5632-0.0512-1.1264-0.0512-1.7408-0.0512zM379.8016 128.3584c-44.0832 0-79.616 34.5088-80.9472 78.5408-0.0512 1.3824 0.0512 2.816 0.3072 4.4032 1.9968 13.2096 11.9296 59.7504 57.2416 103.0656 4.9664 4.7616 7.2704 11.7248 6.1952 18.5344a21.1456 21.1456 0 0 1-11.9296 15.7696c-108.288 50.944-237.312 156.416-237.312 369.4592 0 85.0944 23.3472 143.4112 69.4272 173.312 37.4784 24.32 80.7936 24.2688 104.1408 24.2688h484.1472c36.608 0 147.9168 0 147.9168-222.464 0-158.9248-123.648-285.2864-229.5296-345.1904a20.84352 20.84352 0 0 1-10.4448-15.36 21.248 21.248 0 0 1 5.9904-17.9712c41.984-42.5472 53.7088-89.6 56.2688-102.9632 0.4096-2.048 0.5632-3.84 0.512-5.5808-1.6384-43.6224-37.1712-77.824-80.896-77.824-18.3808 0-35.7376 6.0416-50.2272 17.5104-4.4032 3.4816-10.8544 2.7648-14.3872-1.6384-18.5344-23.3984-46.2336-36.8128-75.9296-36.8128-29.696 0-57.3952 13.4144-75.9296 36.8128-3.5328 4.4032-9.9328 5.1712-14.3872 1.6384a80.14848 80.14848 0 0 0-50.2272-17.5104z" fill="#4B2254" /><path d="M515.2768 399.0016c-120.0128 0-196.8128-34.0992-201.5744-36.2496a38.41024 38.41024 0 0 1 31.744-69.9392c1.9968 0.8704 152.2176 65.9456 357.376-1.4848 20.1728-6.656 41.8304 4.352 48.4864 24.4736a38.4512 38.4512 0 0 1-24.4736 48.4864c-79.104 25.9584-150.8864 34.7136-211.5584 34.7136z" fill="#FACF5D" /><path d="M721.408 317.952c1.0752 7.936 2.7648 18.8416-19.0464 25.6-20.0192 6.1952-74.3936 26.1632-183.04 26.1632s-156.672-20.1216-199.3216-32.8192c-14.2336-5.376-21.5552-8.1408-24.5248-22.2208-1.6896 5.1712-2.1504 14.7968-1.8944 26.368a38.17472 38.17472 0 0 0 20.1216 21.7088c4.7616 2.1504 81.5616 36.2496 201.5744 36.2496 60.7232 0 132.4544-8.704 211.5584-34.7136a38.38464 38.38464 0 0 0 24.4736-48.4864c-5.3248-16.2304-20.48-26.4704-36.6592-26.4192l-23.808 12.3392c-0.0512 0.0512 25.1904-2.2016 30.5664 16.2304z" fill="#F8B031" /><path d="M515.2768 409.2416c-120.6784 0-197.4272-33.3824-205.824-37.1712-24.4224-11.1104-35.2256-40.0384-24.064-64.4608 11.1104-24.32 39.936-35.1232 64.256-24.1664 1.4336 0.6144 149.3504 64.0512 349.952-1.8944 12.3392-4.0448 25.4976-3.072 37.12 2.816a48.27648 48.27648 0 0 1 24.2688 28.2112c8.3456 25.4976-5.5296 53.0432-31.0272 61.3888-71.0656 23.3984-143.3088 35.2768-214.6816 35.2768zM329.728 299.6736c-10.7008 0-20.992 6.144-25.7024 16.4352a28.20096 28.20096 0 0 0 13.9264 37.3248c3.1744 1.4336 78.9504 35.328 197.3248 35.328 69.1712 0 139.3152-11.52 208.3328-34.2016a28.22656 28.22656 0 0 0 17.9712-35.5328 27.86304 27.86304 0 0 0-14.0288-16.3328c-6.7072-3.3792-14.336-3.9936-21.504-1.6384-208.9984 68.7104-363.2128 1.792-364.7488 1.1264-3.7888-1.7408-7.7312-2.5088-11.5712-2.5088z" fill="#4B2254" /><path d="M529.7152 487.9872c-98.816 0-178.8928 80.0768-178.8928 178.8928 0 98.816 80.0768 178.8928 178.8928 178.8928 98.816 0 178.8928-80.0768 178.8928-178.8928 0-98.816-80.0768-178.8928-178.8928-178.8928z m67.6864 186.9824l-59.5456 59.5456c-4.5056 4.5056-11.776 4.5056-16.2816 0l-59.5456-59.5456c-4.5056-4.5056-4.5056-11.776 0-16.2816l59.5456-59.5456c4.5056-4.5056 11.776-4.5056 16.2816 0l59.5456 59.5456c4.5056 4.5056 4.5056 11.776 0 16.2816z" fill="#E3413F" /><path d="M516.3008 485.6832c-90.4704 0-163.84 73.3696-163.84 163.84s73.3696 163.84 163.84 163.84 163.84-73.3696 163.84-163.84-73.3184-163.84-163.84-163.84z m62.0032 171.3152l-54.528 54.528c-4.096 4.096-10.8032 4.096-14.8992 0l-54.528-54.528c-4.096-4.096-4.096-10.8032 0-14.8992l54.528-54.528c4.096-4.096 10.8032-4.096 14.8992 0l54.528 54.528c4.096 4.096 4.096 10.752 0 14.8992z" fill="#FACF5D" /><path d="M680.1408 649.5232c0-77.4144-53.6576-142.1824-125.7984-159.3856 2.304 1.28 111.8208 62.7712 85.2992 190.8224-10.5472 38.7072-95.1296 169.6768-261.2224 56.9856 29.1328 45.3632 79.9744 75.4176 137.9328 75.4176 90.4704 0 163.7888-73.3696 163.7888-163.84z" fill="#F8B031" /><path d="M516.3008 823.6032c-96 0-174.08-78.08-174.08-174.08s78.08-174.08 174.08-174.08 174.08 78.08 174.08 174.08-78.08 174.08-174.08 174.08z m0-327.68c-84.6848 0-153.6 68.9152-153.6 153.6s68.9152 153.6 153.6 153.6 153.6-68.9152 153.6-153.6-68.864-153.6-153.6-153.6z m0 228.9152c-5.5296 0-10.752-2.1504-14.6944-6.0928l-54.528-54.528a20.82816 20.82816 0 0 1 0-29.3888l54.528-54.528a20.82816 20.82816 0 0 1 29.3888 0l54.528 54.528a20.82816 20.82816 0 0 1 0 29.3888l-54.528 54.528c-3.8912 3.9424-9.1136 6.0928-14.6944 6.0928z m0.256-130.048l-54.9888 54.528 54.528 54.9888 54.9376-54.528c0.1024-0.1024 0.1024-0.3072 0-0.4608l-54.4768-54.528z m61.7472 62.208z" fill="#4B2254" /></svg>