<svg xmlns="http://www.w3.org/2000/svg" viewBox="0 0 1024 1024" width="200" height="200"><path d="M574.506667 291.968l272.917333 64.96-131.754667 553.493333-272.917333-64.96z" fill="#C70F0F" /><path d="M853.333333 297.173333l-257.706666-61.226666a29.653333 29.653333 0 0 0-13.653334 57.813333l257.28 61.226667a29.653333 29.653333 0 0 0 35.84-21.333334A30.08 30.08 0 0 0 853.333333 297.173333zM438.613333 57.173333L175.146667 81.493333a29.653333 29.653333 0 1 0 5.546666 59.093334l263.253334-24.32a29.653333 29.653333 0 0 0-5.333334-59.093334z" fill="#FFAF37" /><path d="M421.277313 840.390296m19.093142 4.545107l276.850551 65.904045q19.093141 4.545107 14.548035 23.638248l-4.643913 19.508209q-4.545107 19.093141-23.638248 14.548035l-276.850552-65.904045q-19.093141-4.545107-14.548035-23.638248l4.643914-19.508209q4.545107-19.093141 23.638248-14.548035Z" fill="#FFAF37" /><path d="M856.746667 281.386667L599.466667 220.16a45.866667 45.866667 0 0 0-49.706667 68.693333 37.973333 37.973333 0 0 0 6.826667 7.466667l-128 537.173333a51.413333 51.413333 0 0 0-9.6 3.413334 46.08 46.08 0 0 0-14.933334 64 45.44 45.44 0 0 0 28.373334 21.333333L690.133333 981.333333a43.733333 43.733333 0 0 0 10.453334 1.28 46.08 46.08 0 0 0 44.8-35.413333 46.72 46.72 0 0 0-11.946667-42.666667l128-535.68a45.226667 45.226667 0 0 0 29.866667-32.853333 45.866667 45.866667 0 0 0-34.56-54.613333zM576 261.76a13.653333 13.653333 0 0 1 16.426667-10.026667l257.28 61.226667a13.44 13.44 0 0 1 10.026666 16.213333 13.226667 13.226667 0 0 1-16.213333 10.026667L746.666667 316.373333 585.6 277.333333a13.866667 13.866667 0 0 1-8.32-5.973333 14.506667 14.506667 0 0 1-1.28-9.6z m10.88 49.706667l44.8 10.666666 196.48 46.72L704 890.88h-2.773333l-239.146667-57.6z m128 628.906666a13.44 13.44 0 0 1-16.213333 10.026667l-258.56-61.226667a13.866667 13.866667 0 0 1-8.32-5.973333 13.44 13.44 0 0 1-1.493334-10.24 12.8 12.8 0 0 1 5.973334-8.32 13.226667 13.226667 0 0 1 10.24-1.706667L704 924.16a13.44 13.44 0 0 1 9.813333 16.213333z" fill="#7A0F0F" /><path d="M203.440841 709.880401m19.543388-1.806105l283.379132-26.188521q19.543388-1.806105 21.349493 17.737284l1.845368 19.968244q1.806105 19.543388-17.737283 21.349494l-283.379132 26.188521q-19.543388 1.806105-21.349493-17.737284l-1.845368-19.968244q-1.806105-19.543388 17.737283-21.349494Z" fill="#FFAF37" /><path d="M172.778667 141.205333l279.338666-25.813333 52.352 566.549333-279.338666 25.813334z" fill="#C70F0F" /><path d="M629.546667 504.533333c-30.933333 22.613333 36.266667 16.64-25.173334 40.32a58.88 58.88 0 0 0 32.213334-7.04c11.52-2.346667 16.853333 44.586667 23.893333 9.813334-4.693333-15.786667-17.92-18.346667 0-32.64s14.506667-40.746667-4.266667-21.333334c-8.533333-2.346667 21.333333-21.333333 0-30.506666s10.666667 41.173333-58.24 33.493333a21.333333 21.333333 0 0 0 31.573334 7.893333z m27.093333-5.333333c-7.68 15.573333-15.146667 29.653333-31.786667 16.426667 10.453333-3.626667 22.186667-20.693333 31.786667-16.426667zM723.413333 507.733333c-4.906667 3.84-30.08 0-24.96 6.4 11.093333 8.32 30.08-9.173333 17.92 11.733334 0 16.426667-23.893333 24.746667-30.08 16.213333 7.68-12.373333 8.32-44.8-8.533333-38.4 0 46.506667-9.386667 46.506667 41.173333 51.626667 16.426667 4.053333 0-11.093333 8.746667-17.493334 10.453333-14.08 18.986667-25.813333-4.266667-30.08zM565.76 737.92c7.466667 6.4 25.173333-10.88 18.773333-18.133333-5.333333 5.546667-20.693333 10.453333-18.773333 18.133333zM605.653333 741.76c-6.186667-7.04-11.733333-27.306667-11.52-6.826667s64 48.213333 58.88 21.333334c-7.04-12.16-32 5.546667-47.36-14.506667zM634.453333 679.04c11.52-2.986667 18.56-13.44 4.906667-19.626667 21.333333 5.76 21.333333-17.493333 0-11.733333 3.413333-7.466667-14.08-18.773333-15.36-13.866667 7.893333 17.493333 1.28 15.786667-16 15.36-24.106667 0 11.306667 9.6 0 23.04 3.2 15.573333-27.733333 4.053333-37.76 3.413334-7.466667 17.706667 28.8 12.16 41.386667 12.586666a278.826667 278.826667 0 0 1 64 11.946667c17.493333-23.68-37.12-17.493333-41.173334-21.12z m-17.92-9.6c-6.4-17.28 7.253333-10.026667 21.333334-9.6 2.133333 11.946667-25.386667 32.64-21.333334 9.6zM653.866667 721.706667a36.48 36.48 0 0 0 10.026666 26.88c12.373333-4.693333 0.213333-24.96-10.026666-26.88z" fill="#FFAF37" /><path d="M635.946667 728.96a35.626667 35.626667 0 0 1-18.346667 0c-2.773333 15.36 17.28 11.306667 18.346667 0zM608 695.253333c1.28 9.813333 18.773333 3.626667 23.893333 8.32 3.2 18.133333-35.626667 14.72-27.306666 7.04 33.706667 3.2 11.093333-4.266667 0-7.893333 5.12-11.52-19.84-18.133333-10.88-5.12-10.666667 67.413333 120.32-11.733333 14.293333-2.346667z" fill="#FFAF37" /><path d="M528.426667 676.906667a46.72 46.72 0 0 0-8.533334-4.48L469.333333 123.093333a46.933333 46.933333 0 0 0 17.92-40.533333 46.293333 46.293333 0 0 0-49.92-41.6L173.653333 65.493333a45.44 45.44 0 0 0-16.213333 85.333334l50.986667 549.973333a39.466667 39.466667 0 0 0-7.893334 6.613333 45.44 45.44 0 0 0-10.453333 33.493334 45.866667 45.866667 0 0 0 45.44 42.666666h4.48l263.253333-24.32a46.08 46.08 0 0 0 41.6-49.92 46.933333 46.933333 0 0 0-16.426666-32.426666z m-288.64 13.226666l-49.28-533.333333 247.04-23.68 49.28 533.333333zM167.466667 102.4a12.8 12.8 0 0 1 9.173333-4.693333l263.253333-24.533334h1.28a13.44 13.44 0 0 1 13.44 12.373334 13.226667 13.226667 0 0 1-12.16 14.506666L178.986667 124.586667a13.653333 13.653333 0 0 1-14.506667-12.373334 12.8 12.8 0 0 1 2.986667-9.813333z m341.333333 618.666667a14.08 14.08 0 0 1-9.173333 4.906666l-262.613334 24.106667a14.08 14.08 0 0 1-10.026666-2.986667 12.8 12.8 0 0 1-4.693334-9.173333 12.586667 12.586667 0 0 1 2.986667-9.813333 14.08 14.08 0 0 1 9.386667-4.906667l263.466666-24.32h1.28a14.293333 14.293333 0 0 1 8.533334 2.986667 12.8 12.8 0 0 1 4.693333 9.173333 12.586667 12.586667 0 0 1-3.2 9.813333z" fill="#7A0F0F" /><path d="M359.466667 336.426667c-9.813333 10.24-31.146667 10.453333-42.666667 18.986666 9.386667 9.6 26.88-4.693333 37.333333-2.773333 1.706667 19.2-25.813333 26.24-36.266666 24.106667 2.133333-15.36-12.16-29.653333-25.813334-22.613334 24.106667 58.453333 20.053333 24.32 74.453334 29.013334 19.626667 0 5.546667-9.6 6.4-18.773334 11.093333-13.013333 3.413333-31.36-13.44-27.946666zM321.493333 302.72c5.973333 21.333333-10.453333 19.2-25.386666 27.733333 7.68 18.56 30.08 5.333333 43.946666 0 39.253333-13.44 1.066667-16.64-2.986666-20.266666-9.173333-29.226667 70.4-5.973333 35.84-37.333334-68.693333 16.213333-5.12-26.24-60.16-20.053333 23.253333 30.933333-6.4 40.96-34.133334 44.8-5.973333 16.64 29.226667 16.213333 42.88 5.12zM323.626667 512c0-10.666667 3.413333-19.626667 10.88-22.613333 13.653333-30.506667-58.453333 14.933333-43.946667 21.333333 39.04-13.013333 7.893333 5.76-2.56 28.16 29.226667-17.28 26.88-16 25.173333 21.333333 18.133333 14.506667 9.813333-17.066667 10.24-42.666666 3.2 4.693333 9.386667 8.746667 13.866667 7.04 9.173333-7.893333-6.4-13.866667-13.653333-12.586667z" fill="#FFAF37" /><path d="M405.333333 503.253333c-10.24 5.546667-34.986667 9.173333-21.333333-7.253333 18.56-5.333333-9.813333-9.813333-9.386667-17.066667 7.893333-4.053333 19.84-6.826667 5.76-12.8 6.826667-5.546667 17.066667-17.493333 3.84-22.4-9.813333-8.106667-3.84 17.706667-15.36 23.253334 0 8.746667-35.626667 18.133333-3.413333 17.066666-21.333333 35.2 39.893333 14.72-25.813333 42.666667 51.84 2.986667 18.986667 6.613333 40.533333 42.666667 14.293333-11.733333-10.453333-47.146667 11.946667-50.133334 13.226667-0.853333 38.613333-8.533333 13.226666-16z" fill="#FFAF37" /><path d="M346.026667 455.253333c4.053333 5.76 7.893333 21.333333 17.706666 17.066667 5.546667-8.106667-10.24-21.76-17.706666-17.066667zM304 460.373333c-4.48 3.413333 6.186667 12.586667 11.093333 16 20.266667 5.973333 2.56-23.893333-11.093333-16z" fill="#FFAF37" /><path d="M258.56 658.56a8.32 8.32 0 0 1-8.106667-7.253333l-8.746666-83.84a8.106667 8.106667 0 0 1 16.213333-1.706667l8.746667 83.84a8.32 8.32 0 0 1-7.253334 8.96z" fill="#FFFFFF" /></svg>