<svg xmlns="http://www.w3.org/2000/svg" viewBox="0 0 1024 1024" width="200" height="200"><path d="M413.1 321.1h380.7c15.4 0 27.9 12.5 27.9 27.9v532c0 15.4-12.5 27.9-27.9 27.9h-532c-15.4 0-27.9-12.5-27.9-27.9V349c0-15.4 12.5-27.9 27.9-27.9h46" fill="#FCEE21" /><path d="M821.6 418.5C695.5 751.7 466.9 868.4 335 908.8h458.8c15.4 0 27.9-12.5 27.9-27.9V418.5z" fill="#F8B62D" /><path d="M792.4 919.4H233.9c-22 0-39.8-17.9-39.8-39.8V321.1c0-22 17.9-39.8 39.8-39.8h48.3c5.8 0 10.6 4.7 10.6 10.6s-4.7 10.6-10.6 10.6h-48.3c-10.3 0-18.7 8.4-18.7 18.7v558.5c0 10.3 8.4 18.7 18.7 18.7h558.5c10.3 0 18.7-8.4 18.7-18.7V321.1c0-10.3-8.4-18.7-18.7-18.7H392.7c-5.8 0-10.6-4.7-10.6-10.6s4.7-10.6 10.6-10.6h399.6c22 0 39.8 17.9 39.8 39.8v558.5c0.1 22-17.7 39.9-39.7 39.9z" fill="#3E3A39" /><path d="M318.4 291.8h33.5" fill="#FCEE21" /><path d="M351.9 302.4h-33.5c-5.8 0-10.6-4.7-10.6-10.6s4.7-10.6 10.6-10.6h33.5c5.8 0 10.6 4.7 10.6 10.6s-4.7 10.6-10.6 10.6z" fill="#3E3A39" /><path d="M228.5 789.3H181c-2.1 0-3.8-1.7-3.8-3.8V658c0-2.1 1.7-3.8 3.8-3.8h47.5c2.1 0 3.8 1.7 3.8 3.8v127.6c-0.1 2-1.8 3.7-3.8 3.7z" fill="#F8B62D" /><path d="M205.6 799.9h-1.9c-20.5 0-37.2-16.7-37.2-37.2v-82c0-20.5 16.7-37.2 37.2-37.2h1.9c20.5 0 37.2 16.7 37.2 37.2v82c0 20.5-16.7 37.2-37.2 37.2z m-1.9-135.1c-8.8 0-16 7.2-16 16v82c0 8.8 7.2 16 16 16h1.9c8.8 0 16-7.2 16-16v-82c0-8.8-7.2-16-16-16h-1.9z" fill="#3E3A39" /><path d="M736.7 783.1h-1.3c-9.7 0-17.6-7.9-17.6-17.6V450.7c0-9.7 7.9-17.6 17.6-17.6h1.3c9.7 0 17.6 7.9 17.6 17.6v314.8c0.1 9.7-7.9 17.6-17.6 17.6z" fill="#FFFFFF" /><path d="M228.5 557.2H181c-2.1 0-3.8-1.7-3.8-3.8V425.9c0-2.1 1.7-3.8 3.8-3.8h47.5c2.1 0 3.8 1.7 3.8 3.8v127.6c-0.1 2.1-1.8 3.7-3.8 3.7z" fill="#F8B62D" /><path d="M205.6 567.8h-1.9c-20.5 0-37.2-16.7-37.2-37.2v-82c0-20.5 16.7-37.2 37.2-37.2h1.9c20.5 0 37.2 16.7 37.2 37.2v82c0 20.6-16.7 37.2-37.2 37.2z m-1.9-135.1c-8.8 0-16 7.2-16 16v82c0 8.8 7.2 16 16 16h1.9c8.8 0 16-7.2 16-16v-82c0-8.8-7.2-16-16-16h-1.9z" fill="#3E3A39" /><path d="M365.163516 712.363743a137.8 137.8 0 1 0 194.875228-194.88203 137.8 137.8 0 1 0-194.875228 194.88203Z" fill="#FFFFFF" /><path d="M452 763.3c-42.5 0-82.4-16.5-112.5-46.6-30-30-46.6-70-46.6-112.5s16.5-82.4 46.6-112.5c30-30 70-46.6 112.5-46.6s82.4 16.5 112.5 46.6c30 30 46.6 70 46.6 112.5s-16.5 82.4-46.6 112.5c-30.1 30.1-70 46.6-112.5 46.6z m0-296.8c-35.3 0-70.6 13.4-97.5 40.3-53.8 53.8-53.8 141.2 0 195 53.8 53.8 141.2 53.7 195 0 53.8-53.8 53.8-141.2 0-195-26.9-26.9-62.2-40.3-97.5-40.3z" fill="#3E3A39" /><path d="M347 709.3l45.7-45.7" fill="#FCF7C5" /><path d="M347 719.9c-2.7 0-5.4-1-7.5-3.1-4.1-4.1-4.1-10.8 0-15l45.7-45.7c4.1-4.1 10.8-4.1 15 0 4.1 4.1 4.1 10.8 0 15l-45.7 45.7c-2 2-4.7 3.1-7.5 3.1z" fill="#3E3A39" /><path d="M511.3 545l45.7-45.7" fill="#FCF7C5" /><path d="M511.3 555.6c-2.7 0-5.4-1-7.5-3.1-4.1-4.1-4.1-10.8 0-15l45.7-45.7c4.1-4.1 10.8-4.1 15 0 4.1 4.1 4.1 10.8 0 15l-45.7 45.7c-2.1 2.1-4.8 3.1-7.5 3.1z" fill="#3E3A39" /><path d="M557 709.3l-45.7-45.7" fill="#FCF7C5" /><path d="M557 719.9c-2.7 0-5.4-1-7.5-3.1L503.8 671c-4.1-4.1-4.1-10.8 0-15 4.1-4.1 10.8-4.1 15 0l45.7 45.7c4.1 4.1 4.1 10.8 0 15-2.1 2.1-4.8 3.2-7.5 3.2z" fill="#3E3A39" /><path d="M392.7 545L347 499.3" fill="#FCF7C5" /><path d="M392.7 555.6c-2.7 0-5.4-1-7.5-3.1l-45.7-45.7c-4.1-4.1-4.1-10.8 0-15 4.1-4.1 10.8-4.1 15 0l45.7 45.7c4.1 4.1 4.1 10.8 0 15-2 2.1-4.7 3.1-7.5 3.1z" fill="#3E3A39" /><path d="M364.3 257.9c-15.8 0-28.7-12.9-28.7-28.7 0-15.8 12.9-28.7 28.7-28.7 15.8 0 28.7 12.9 28.7 28.7 0 15.8-12.8 28.7-28.7 28.7z m0-43.3c-8 0-14.6 6.5-14.6 14.6 0 8 6.5 14.6 14.6 14.6s14.6-6.5 14.6-14.6-6.5-14.6-14.6-14.6z" fill="#47B7F8" /><path d="M258.2 179.1h-12.6v-12.6c0-3.4-2.7-6.1-6.1-6.1-3.4 0-6.1 2.7-6.1 6.1v12.6h-12.6c-3.4 0-6.1 2.7-6.1 6.1 0 3.4 2.7 6.1 6.1 6.1h12.6v12.6c0 3.4 2.7 6.1 6.1 6.1 3.4 0 6.1-2.7 6.1-6.1v-12.6h12.6c3.4 0 6.1-2.7 6.1-6.1 0-3.4-2.8-6.1-6.1-6.1zM892.4 301.1h-12.6v-12.6c0-3.4-2.7-6.1-6.1-6.1-3.4 0-6.1 2.7-6.1 6.1v12.6H855c-3.4 0-6.1 2.7-6.1 6.1 0 3.4 2.7 6.1 6.1 6.1h12.6v12.6c0 3.4 2.7 6.1 6.1 6.1 3.4 0 6.1-2.7 6.1-6.1v-12.6h12.6c3.4 0 6.1-2.7 6.1-6.1-0.1-3.4-2.8-6.1-6.1-6.1z" fill="#F7E42F" /><path d="M114.8 466.4h-14.6v-14.6c0-3.9-3.2-7.1-7.1-7.1s-7.1 3.2-7.1 7.1v14.6H71.6c-3.9 0-7.1 3.2-7.1 7.1 0 3.9 3.2 7.1 7.1 7.1h14.6v14.6c0 3.9 3.2 7.1 7.1 7.1s7.1-3.2 7.1-7.1v-14.6H115c3.9 0 7.1-3.2 7.1-7.1-0.2-3.9-3.4-7.1-7.3-7.1z" fill="#F8B62D" /><path d="M353.8 115.2m-10.6 0a10.6 10.6 0 1 0 21.2 0 10.6 10.6 0 1 0-21.2 0Z" fill="#F8B62D" /><path d="M826.9 171m-14.1 0a14.1 14.1 0 1 0 28.2 0 14.1 14.1 0 1 0-28.2 0Z" fill="#F8B62D" /><path d="M876.7 433m-14.1 0a14.1 14.1 0 1 0 28.2 0 14.1 14.1 0 1 0-28.2 0Z" fill="#F7E42F" /><path d="M128.5 307.1c-15.8 0-28.7-12.9-28.7-28.7 0-15.8 12.9-28.7 28.7-28.7 15.8 0 28.7 12.9 28.7 28.7 0 15.9-12.9 28.7-28.7 28.7z m0-43.2c-8 0-14.6 6.5-14.6 14.6 0 8 6.5 14.6 14.6 14.6 8 0 14.6-6.5 14.6-14.6s-6.6-14.6-14.6-14.6z" fill="#F8B62D" /><path d="M536.9 167.4c-1.5-1.5-4-1.5-5.5 0-0.7 0.7-1.1 1.7-1.1 2.8 0 1 0.4 2 1.1 2.8l12.5 12.5c0.7 0.7 1.7 1.1 2.8 1.1 1 0 2-0.4 2.8-1.1 1.5-1.5 1.5-4 0-5.5l-12.6-12.6zM570 200.5c-0.7-0.7-1.7-1.1-2.8-1.1-1 0-2 0.4-2.8 1.1-1.5 1.5-1.5 4 0 5.5l12.5 12.5c0.7 0.7 1.7 1.1 2.8 1.1 1 0 2-0.4 2.8-1.1 0.7-0.7 1.1-1.7 1.1-2.8 0-1-0.4-2-1.1-2.8L570 200.5zM567.3 186.6c1 0 2-0.4 2.8-1.1l12.5-12.5c0.7-0.7 1.1-1.7 1.1-2.8 0-1-0.4-2-1.1-2.8-1.5-1.5-4-1.5-5.5 0L564.5 180c-1.5 1.5-1.5 4 0 5.5 0.7 0.7 1.7 1.1 2.8 1.1zM544 200.5L531.5 213c-0.7 0.7-1.1 1.7-1.1 2.8 0 1 0.4 2 1.1 2.8 0.7 0.7 1.7 1.1 2.8 1.1 1 0 2-0.4 2.8-1.1l12.5-12.5c1.5-1.5 1.5-4 0-5.5-1.6-1.6-4.2-1.6-5.6-0.1zM546.4 193c0-2.2-1.8-3.9-3.9-3.9h-17.7c-2.2 0-3.9 1.8-3.9 3.9s1.8 3.9 3.9 3.9h17.7c2.1 0 3.9-1.7 3.9-3.9zM589.3 189.1h-17.7c-2.2 0-3.9 1.8-3.9 3.9s1.8 3.9 3.9 3.9h17.7c2.2 0 3.9-1.8 3.9-3.9s-1.8-3.9-3.9-3.9zM557 156.8c-2.2 0-3.9 1.8-3.9 3.9v17.7c0 2.2 1.8 3.9 3.9 3.9 2.2 0 3.9-1.8 3.9-3.9v-17.7c0-2.1-1.8-3.9-3.9-3.9zM557 203.6c-2.2 0-3.9 1.8-3.9 3.9v17.7c0 2.2 1.8 3.9 3.9 3.9 2.2 0 3.9-1.8 3.9-3.9v-17.7c0-2.1-1.8-3.9-3.9-3.9z" fill="#FAEE00" /><path d="M903.3 543.3c-1.5-1.5-4-1.5-5.5 0-0.7 0.7-1.1 1.7-1.1 2.8s0.4 2 1.1 2.8l12.5 12.5c0.7 0.7 1.7 1.1 2.8 1.1s2-0.4 2.8-1.1c1.5-1.5 1.5-4 0-5.5l-12.6-12.6zM936.4 576.4c-0.7-0.7-1.7-1.1-2.8-1.1-1 0-2 0.4-2.8 1.1-1.5 1.5-1.5 4 0 5.5l12.5 12.5c0.7 0.7 1.7 1.1 2.8 1.1 1 0 2-0.4 2.8-1.1 0.7-0.7 1.1-1.7 1.1-2.8 0-1-0.4-2-1.1-2.8l-12.5-12.4zM933.6 562.5c1 0 2-0.4 2.8-1.1l12.5-12.5c0.7-0.7 1.1-1.7 1.1-2.8 0-1-0.4-2-1.1-2.8-1.5-1.5-4-1.5-5.5 0l-12.5 12.5c-1.5 1.5-1.5 4 0 5.5 0.7 0.8 1.7 1.2 2.7 1.2zM910.3 576.4L897.7 589c-0.7 0.7-1.1 1.7-1.1 2.8s0.4 2 1.1 2.8c0.7 0.7 1.7 1.1 2.8 1.1 1 0 2-0.4 2.8-1.1l12.5-12.5c1.5-1.5 1.5-4 0-5.5-1.5-1.7-4-1.7-5.5-0.2zM912.7 568.9c0-2.2-1.8-3.9-3.9-3.9h-17.7c-2.2 0-3.9 1.8-3.9 3.9s1.8 3.9 3.9 3.9h17.7c2.1 0 3.9-1.7 3.9-3.9zM955.6 565h-17.7c-2.2 0-3.9 1.8-3.9 3.9s1.8 3.9 3.9 3.9h17.7c2.2 0 3.9-1.8 3.9-3.9s-1.8-3.9-3.9-3.9zM923.3 532.7c-2.2 0-3.9 1.8-3.9 3.9v17.7c0 2.2 1.8 3.9 3.9 3.9s3.9-1.8 3.9-3.9v-17.7c0-2.1-1.7-3.9-3.9-3.9zM923.3 579.5c-2.2 0-3.9 1.8-3.9 3.9v17.7c0 2.2 1.8 3.9 3.9 3.9s3.9-1.8 3.9-3.9v-17.7c0-2.1-1.7-3.9-3.9-3.9z" fill="#F8B62D" /><path d="M724.6 799.9h-1.9c-20.5 0-37.2-16.7-37.2-37.2v-314c0-20.5 16.7-37.2 37.2-37.2h1.9c20.5 0 37.2 16.7 37.2 37.2v314c0 20.5-16.7 37.2-37.2 37.2z m-1.9-367.2c-8.8 0-16 7.2-16 16v314c0 8.8 7.2 16 16 16h1.9c8.8 0 16-7.2 16-16v-314c0-8.8-7.2-16-16-16h-1.9z" fill="#3E3A39" /><path d="M935.8 919.4h-26.1c-5.8 0-10.6-4.7-10.6-10.6s4.7-10.6 10.6-10.6h26.1c5.8 0 10.6 4.7 10.6 10.6s-4.8 10.6-10.6 10.6zM128.1 919.4H94.6c-5.8 0-10.6-4.7-10.6-10.6s4.7-10.6 10.6-10.6H128c5.8 0 10.6 4.7 10.6 10.6s-4.7 10.6-10.5 10.6z" fill="#3E3A39" /><path d="M867.8 919.4H162.7c-5.8 0-10.6-4.7-10.6-10.6s4.7-10.6 10.6-10.6h705.1c5.8 0 10.6 4.7 10.6 10.6s-4.8 10.6-10.6 10.6z" fill="#3E3A39" /><path d="M271.2 423.8c-5.8 0-10.6-4.7-10.6-10.6v-40.8c0-15.2 12.4-27.6 27.6-27.6h76.4c5.8 0 10.6 4.7 10.6 10.6s-4.7 10.6-10.6 10.6h-76.4c-3.5 0-6.4 2.9-6.4 6.4v40.8c0 5.9-4.8 10.6-10.6 10.6z" fill="#FFFFFF" /><path d="M437.9 366h-38.1c-5.8 0-10.6-4.7-10.6-10.6s4.7-10.6 10.6-10.6h38.1c5.8 0 10.6 4.7 10.6 10.6s-4.7 10.6-10.6 10.6z" fill="#FFFFFF" /></svg>