<svg xmlns="http://www.w3.org/2000/svg" viewBox="0 0 1024 1024" width="200" height="200"><path d="M663.887727 541.481713c-6.306715-22.232885-29.435371-35.136835-51.668257-28.83012-35.06017 9.950326-63.083289 26.320346-85.388804 46.067668a41.826876 41.826876 0 0 0-36.714523-21.772895c-16.313531 0-30.411843 9.35718-37.311704 22.975327-27.934349-27.672074-53.092614-42.787207-55.449057-44.171215-19.920826-11.705553-45.559257-5.043758-57.260775 14.881103-11.705553 19.924861-5.043758 45.559257 14.881103 57.260776l-0.141225-0.084736c0.310695 0.18561 12.65378 6.57706 28.971345 18.322964a287.110878 287.110878 0 0 1 26.538237 21.595354c112.471767 89.573106 39.841653 242.903348 39.841653 363.953539 0 8.070013 4.035006 16.140025 10.414351 20.033807a41.479865 41.479865 0 0 0 29.520107 12.246244c11.552223 0 22.014995-4.684642 29.588702-12.254314 51.527031-120.900896-17.068077-258.091112 43.900869-370.219904a129.031433 129.031433 0 0 1 28.8624-28.28136c11.762044-8.332288 25.807901-15.304779 42.589492-20.066086 22.22885-6.298645 35.1328-29.427301 28.826086-51.656152z" fill="#8DD9B5" /><path d="M498.315276 579.503578c-245.925568 1.908558-319.576539-236.064012-220.125737-377.043099C355.411491 92.994792 362.815727 37.666784 362.815727 37.666784s54.928542 77.738433 129.830365 143.589737c88.72979 78.016848 0.681916 218.70138 0.681916 218.701379-66.33954 112.734043-64.019411 194.253276 56.373074 171.540226" fill="#E36B6B" /><path d="M434.24341 116.902204S169.478398 224.93143 340.094607 530.635616c0-0.004035 179.085687-310.029714 94.148803-413.733412z" fill="#A14B4B" /><path d="M445.170207 563.456358c242.665282-39.769023 275.385149-278.205618 153.766023-395.261153C504.496906 77.302652 481.84438 11.705553 481.84438 11.705553s-35.02789 97.417159-97.804519 172.617573c-74.373237 89.088905 35.964012 207.794758 35.964012 207.794757 84.254968 95.835436 95.625616 173.646499-26.820688 172.427927" fill="#E36B6B" /><path d="M441.272391 572.087237l14.324273 2.231358c106.068212 13.585866 105.624361-65.722184 42.048801-173.771584 0 0-75.494969-128.135662 13.226751-206.15251 28.55574-25.10581 10.002781 7.279151 28.55574-25.105809-0.387361-3.687996 3.26432-34.007034 3.26432-34.007034-135.148503-76.616701-231.609365 56.183429-240.312874 191.614382-8.747894 136.13708 77.718257 270.159816 190.28283 253.196649l-37.065568-5.774094c-4.599907-0.593146-9.320865-1.291202-14.324273-2.231358z" fill="#FF7878" /><path d="M470.477767 243.657894s-22.12394 96.303497 20.255732 170.793749 42.714577 151.913954 6.28654 167.99749c0 0 143.157991-60.307205 102.634422-218.382614-40.527604-158.067339-129.176694-120.408625-129.176694-120.408625z" fill="#A14B4B" /><path d="M492.658197 580.088654c245.921533 1.908558 319.572504-236.068047 220.125737-377.043099-77.221952-109.469723-84.630223-164.793695-84.630223-164.793695S573.225169 115.990293 498.323346 181.841597c-88.725755 78.016848-0.685951 218.70138-0.685951 218.701379 66.343575 112.738078 64.023446 194.253276-56.373074 171.544261" fill="#E36B6B" /><path d="M533.819297 392.521384c-19.30347-39.434117-56.514299-85.816515-51.704572-130.435616 6.048475-56.118868 106.758198-92.429891 136.100765-190.448265 0 0 62.675754 154.104963 77.460017 200.12421 33.054772 102.896697-19.686796 204.724118-103.909484 236.519968 0.004035-0.004035-25.17037-48.823577-57.946726-115.760297z" fill="#FF7878" opacity=".67" /><path d="M548.575315 340.978212c-11.532048-23.560402-33.768968-51.268791-30.896044-77.924042 3.615366-33.526868 50.554595-47.217644 81.309414-89.673982 0 0 37.448894 67.961612 46.281523 95.452111 19.751356 61.473322-11.762044 122.313148-62.078573 141.305922 0 0-15.042504-29.165026-34.61632-69.160009z" fill="#FF9999" /><path d="M504.952861 579.217093s129.443004 25.303525 108.005016-331.810678c0 0 138.449138 207.637392 39.175876 299.772727 0 0-78.424384 47.032034-147.180892 32.037951z" fill="#8DD9B5" /><path d="M426.734263 506.486103l10.761362 1.848033c79.683306 11.261703 79.3484-54.492761 31.590065-144.073937 0 0-56.712014-106.233647 9.934186-170.914799 21.450094-20.816598 17.988058-7.795632 31.929005-34.644565-0.29052-3.058535-8.025628-14.364623-8.025628-14.364623-101.524795-63.523105-173.985439 46.580113-180.522149 158.862236-6.573025 112.871233 58.382507 223.987238 142.9401 209.921206l-27.845579-4.789553a169.353252 169.353252 0 0 1-10.761362-1.843998z" fill="#FFFFFF" opacity=".25" /><path d="M402.161074 436.200328l6.1897 1.242781c45.821532 7.553532 45.635922-36.553123 18.165599-96.642437 0 0-32.614956-71.262247 5.717604-114.658741 12.335014-13.957087 4.317457 4.047111 12.335014-13.957087-0.165435-2.053818 1.412252-18.912075 1.412252-18.912074-58.394612-42.609667-100.068158 31.243054-103.828783 106.560483-3.776766 75.716894 33.583358 150.247497 82.213254 140.813652l-16.010905-3.203796c-1.993293-0.326836-4.035006-0.722266-6.193735-1.242781z" fill="#FFFFFF" opacity=".44" /><path d="M463.13002 579.245338s-105.220861 27.062788-105.22086-266.225685c0 0-103.622998 176.713104-17.419123 247.23291 0 0.004035 66.82374 34.64053 122.639983 18.992775z" fill="#8DD9B5" /><path d="M534.622263 583.76051c67.190926-4.030971 117.51149-36.581368 117.51149-36.581368 99.273261-92.135335-39.175877-299.772727-39.175876-299.772727s132.344174 317.571141-78.335614 336.354095zM357.90916 313.023688s-103.651243 214.968999 54.21838 269.017909c0 0-204.155182-0.774721-54.21838-269.017909z" fill="#79BA9C" /><path d="M663.887727 541.481713c-4.244827-14.953734-16.107745-25.65457-30.177813-29.160991a41.681616 41.681616 0 0 1 7.315467 14.364623c6.306715 22.22885-6.597235 45.357506-28.830121 51.664222-100.661304 28.56381-103.058097 136.689875-103.106517 141.047682v247.935001c0 23.104446-18.734535 41.834946-41.838981 41.834946-3.46607 0-6.815126-0.468061-10.039096-1.262957a41.717931 41.717931 0 0 0 32.905477 16.059325c23.108481 0 41.838981-18.734535 41.838981-41.834946 6.996701-83.250251 11.031707-163.950378 0-247.935001 0.04842-4.357807 2.441179-112.483872 103.106517-141.047682 22.22885-6.306715 35.1328-29.435371 28.826086-51.664222z" fill="#79BA9C" /></svg>