<svg xmlns="http://www.w3.org/2000/svg" viewBox="0 0 1024 1024" width="200" height="200"><path d="M320 716.8h204.8c155.52 0 281.6 126.08 281.6 281.6H38.4c0-155.52 126.08-281.6 281.6-281.6z" fill="#8BB7F0" /><path d="M524.8 706.56h-204.8C158.8224 706.56 28.16 837.2224 28.16 998.4c0 5.632 4.608 10.24 10.24 10.24h768a10.24 10.24 0 0 0 10.24-10.368l-0.1024-7.3984C812.4672 832.8192 683.136 706.56 524.8 706.56z m0 20.48l7.3472 0.1024c141.4144 3.7632 256.256 115.84 263.6288 256.8192l0.1536 4.1984H48.8448l0.1792-4.4032C56.6272 840.704 175.0528 727.04 320 727.04h204.8z" fill="#4E7AB6" /><path d="M294.4 486.4m128 0l0 0q128 0 128 128l0 76.8q0 128-128 128l0 0q-128 0-128-128l0-76.8q0-128 128-128Z" fill="#FBD998" /><path d="M422.4 476.16a138.24 138.24 0 0 0-138.24 138.24v76.8a138.24 138.24 0 0 0 276.48 0v-76.8a138.24 138.24 0 0 0-138.24-138.24z m0 20.48a117.76 117.76 0 0 1 117.76 117.76v76.8a117.76 117.76 0 0 1-235.52 0v-76.8a117.76 117.76 0 0 1 117.76-117.76z" fill="#967A44" /><path d="M604.738558 470.407418a31.2832 52.1472 33 1 0 52.472598 34.076104 31.2832 52.1472 33 1 0-52.472598-34.076104Z" fill="#FBD998" /><path d="M240.042735 470.412959a52.1472 31.2832 57 1 1-52.472598 34.076104 52.1472 31.2832 57 1 1 52.472598-34.076104Z" fill="#FBD998" /><path d="M663.936 436.7104c-19.3024-12.544-48.3072 1.6384-66.176 29.1584-17.8688 27.4944-19.0208 59.776 0.2816 72.2944 19.3024 12.544 48.3328-1.6128 66.2016-29.1328s18.9952-59.776-0.3072-72.32z m-9.088 14.0032c9.6768 6.272 8.8832 28.416-4.608 49.2288-13.5168 20.7872-33.4336 30.5152-43.1104 24.2432-9.6768-6.2976-8.8832-28.4416 4.608-49.2288 13.5168-20.8128 33.4336-30.5408 43.1104-24.2432zM180.864 436.7104c19.3024-12.544 48.3072 1.6384 66.176 29.1584 17.8688 27.4944 19.0208 59.776-0.2816 72.2944-19.3024 12.544-48.3328-1.6128-66.2016-29.1328s-18.9952-59.776 0.3072-72.32z m9.088 14.0032c-9.6768 6.272-8.8832 28.416 4.608 49.2288 13.5168 20.7872 33.4336 30.5152 43.1104 24.2432 9.6768-6.2976 8.8832-28.4416-4.608-49.2288-13.5168-20.8128-33.4336-30.5408-43.1104-24.2432z" fill="#967A44" /><path d="M364.672 297.1136c49.0752 0 136.3456-33.3824 162.2528-79.0272 22.4 15.1808 85.9392 36.9408 85.9392 126.464l-0.64 206.5408c0 77.696-70.272 132.2752-126.3872 160.896-17.0496 8.704-26.624 29.952-67.9168 29.952s-60.8768-28.9792-71.0144-35.84c-69.376-32.9984-115.2512-79.872-124.6976-155.008l0.64-185.4208c0-36.2752 66.432-68.5568 141.824-68.5568z" fill="#FBD998" /><path d="M519.6544 213.9648c-21.1968 37.376-96.6144 72.32-149.4272 74.6752l-5.5552 0.128c-79.3088 0-150.1696 34.304-150.1696 76.9024l-0.64 185.3952c9.3696 74.9312 52.48 125.952 129.4592 162.56l10.24 9.5488c2.8672 2.6112 5.7088 5.12 7.6032 6.656 16.384 13.056 34.3808 20.48 56.7552 20.48 22.0928 0 36.6848-5.0688 51.2-15.616l3.968-2.9952c1.536-1.2288 7.296-5.9392 8.704-7.04 3.072-2.4064 5.4528-4.0448 7.8336-5.248 77.7472-39.6288 130.944-97.92 130.944-168.32l0.64-206.5152c0-49.8944-18.1248-83.7632-50.0736-108.4416l-4.5312-3.2768a598.6304 598.6304 0 0 0-35.0208-21.6832 8.3456 8.3456 0 0 0-11.9296 2.7904z m8.6784 17.0496l1.2032-1.7408 13.9008 8.448c6.8608 4.2752 13.696 8.704 17.5104 11.6224 28.0064 21.632 43.5712 50.7392 43.5712 95.2064l-0.64 206.5152c0 62.6176-49.1008 116.4032-121.8304 153.472-2.304 1.2032-4.5312 2.56-6.912 4.224l-3.6608 2.7648c-1.5616 1.2288-7.3728 5.9904-8.7296 7.0656-13.1328 10.3936-24.7552 15.0272-44.8 15.0272-18.2528 0-32.7424-5.9648-46.3616-16.8448l-6.4512-5.632c-5.3248-4.8128-11.7248-10.7264-13.5424-11.9552-73.2928-34.944-112.5888-81.4336-121.088-149.12l0.6912-184.3712c0-29.184 58.5216-58.3936 127.0272-60.16l6.4512-0.0768c54.528 0 132.864-33.664 163.6608-74.4448z" fill="#967A44" /><path d="M417.152 52.4544c102.9888 11.264 103.04 64.7168 122.1632 65.8176 232.5504 13.4656 108.288 359.1424 73.5488 359.1424l-0.4352-0.0256 0.4352-132.864c0-86.9376-59.9552-109.952-83.9424-125.1328l-1.9968-1.3056c-25.9072 45.6448-113.152 79.0272-162.2528 79.0272-75.392 0-141.824 32.2816-141.824 68.5568l-0.4096 111.7184h-0.256C151.7312 334.1312 142.7968 222.976 195.456 144.0512c34.6112-51.8912 132.096-101.376 221.7216-91.5712z" fill="#A7714E" /><path d="M188.4928 139.392c-54.6304 81.92-45.4656 196.0192 26.2144 341.7088a8.2944 8.2944 0 0 0 6.3232 4.5312l2.1248 0.0768a8.3456 8.3456 0 0 0 7.6288-8.2944l0.4096-111.7184 0.1536-2.7648c3.0464-28.16 60.5184-55.68 126.8736-57.3696l12.3904-0.2304c54.1184-2.2784 128.0512-34.9952 157.696-74.3168l1.1264-1.6128 11.904 6.912c7.6032 4.48 13.7216 8.4992 19.6096 13.056 28.0064 21.6064 43.5712 50.688 43.5712 95.1808l-0.4352 132.8128c0 3.84 2.56 7.0912 6.1184 8.064l2.304 0.3072c27.2128 0 66.0992-98.3296 72.1408-182.272 8.064-112.0512-36.9152-187.264-144.8448-193.536-0.6144 0-1.408-0.4096-2.816-1.7408l-6.528-8.0128c-5.9136-7.0912-14.6432-17.0496-20.6848-22.1952-20.7104-17.5872-49.6128-29.184-91.6992-33.8176-86.8352-9.5232-190.1824 36.1472-229.5808 95.232z m227.7632-78.6432c38.912 4.2752 64.6656 14.6176 82.688 29.952 8.5504 7.2448 25.6768 28.7744 26.624 29.6704a20.7104 20.7104 0 0 0 13.2864 6.2464c97.024 5.6064 136.6272 71.8336 129.152 175.6672l-0.512 6.2976c-5.4784 58.7008-28.5184 125.568-44.288 150.4512l-2.4064 3.456 0.4096-117.9136c0-49.8944-18.1248-83.7632-50.0736-108.4416a181.504 181.504 0 0 0-15.4624-10.6496l-22.272-13.1328-1.92-1.28a8.3456 8.3456 0 0 0-11.8272 2.8928c-21.1968 37.376-96.6144 72.32-149.4272 74.6752l-5.5552 0.128c-76.544 0-145.5616 32.0512-149.9392 72.832l-0.2048 3.6352-0.3072 75.2896-2.304-5.2736C159.232 312.9856 156.3904 217.6 202.368 148.6592c35.8656-53.7856 133.12-96.768 213.888-87.9104z" fill="#7A4F35" /><path d="M768 25.6a115.2512 115.2512 0 0 1 108.6976 76.9536 115.2256 115.2256 0 0 1 30.592 224.2048 127.9744 127.9744 0 0 1-208.2304 78.9504 102.4512 102.4512 0 0 1-171.6736-49.92 102.4 102.4 0 0 1-25.4464-190.0032 115.2 115.2 0 0 1 189.312-110.8224A114.5088 114.5088 0 0 1 768 25.6z" fill="#C2E8FF" /><path d="M761.344 15.5392a124.5952 124.5952 0 0 0-66.7904 23.5776l-3.328 2.56-3.328-2.56A125.44 125.44 0 0 0 488.96 140.8l0.1536 6.912c0.128 2.304 0.3328 4.5824 0.5632 6.8608l0.8192 6.016-2.9952 1.92A112.5632 112.5632 0 0 0 437.76 256l0.128 5.4272a112.6656 112.6656 0 0 0 76.928 101.4528l4.1984 1.28 1.28 4.224A112.6912 112.6912 0 0 0 627.2 445.44l6.4-0.1792a111.9488 111.9488 0 0 0 63.2832-23.9872l2.6624-2.2784 3.8912 2.7904a137.6512 137.6512 0 0 0 77.3632 23.6544l6.016-0.128a138.24 138.24 0 0 0 128.2816-105.344l1.2288-5.632 4.8128-1.9712A125.4912 125.4912 0 0 0 995.84 217.6l-0.128-5.6832a125.5168 125.5168 0 0 0-107.2384-118.4768l-4.5568-0.5632-1.7664-4.1472A125.4912 125.4912 0 0 0 768 15.36l-6.656 0.1792zM768 35.84a105.0112 105.0112 0 0 1 99.0464 70.1184 10.24 10.24 0 0 0 9.088 6.8096 104.9856 104.9856 0 0 1 27.8784 204.288 10.24 10.24 0 0 0-6.8608 8.192 117.7344 117.7344 0 0 1-191.5648 72.576 10.24 10.24 0 0 0-13.7472 0.5888 92.1856 92.1856 0 0 1-154.4704-44.928 10.24 10.24 0 0 0-7.68-7.68 92.16 92.16 0 0 1-22.912-171.008 10.24 10.24 0 0 0 5.1456-11.264 104.96 104.96 0 0 1 172.4672-100.9408 10.24 10.24 0 0 0 13.696 0A104.2432 104.2432 0 0 1 768 35.84z" fill="#7496C4" /><path d="M588.8 243.2m-38.4 0a38.4 38.4 0 1 0 76.8 0 38.4 38.4 0 1 0-76.8 0Z" fill="#7496C4" /><path d="M716.8 243.2m-38.4 0a38.4 38.4 0 1 0 76.8 0 38.4 38.4 0 1 0-76.8 0Z" fill="#7496C4" /><path d="M844.8 243.2m-38.4 0a38.4 38.4 0 1 0 76.8 0 38.4 38.4 0 1 0-76.8 0Z" fill="#7496C4" /><path d="M716.8 243.2m-38.4 0a38.4 38.4 0 1 0 76.8 0 38.4 38.4 0 1 0-76.8 0Z" fill="#7496C4" /><path d="M588.8 243.2m-38.4 0a38.4 38.4 0 1 0 76.8 0 38.4 38.4 0 1 0-76.8 0Z" fill="#7496C4" /><path d="M844.8 243.2m-38.4 0a38.4 38.4 0 1 0 76.8 0 38.4 38.4 0 1 0-76.8 0Z" fill="#7496C4" /></svg>