<svg xmlns="http://www.w3.org/2000/svg" viewBox="0 0 1024 1024" width="200" height="200"><path d="M730.552909 289.435362m-289.431208 0a289.431209 289.431209 0 1 0 578.862417 0 289.431209 289.431209 0 1 0-578.862417 0Z" fill="#9FC8F5" /><path d="M935.214201 84.77407C882.841409 32.401278 810.480492 0 730.552909 0v289.431209l204.661292-204.657139z" fill="#99DEC5" /><path d="M935.214201 84.77407l-204.661292 204.657139 204.652986 204.661291c52.376945-52.381098 84.778223-124.742015 84.778223-204.661291 0.004153-79.92343-32.397125-152.276041-84.769917-204.657139z" fill="#FFE66B" /><path d="M720.191311 1023.406129v-58.029103c0-20.847785-15.378356-77.493957-61.006765-94.911409-67.888195-34.274257-139.850429-33.655468-188.311146-96.207129-19.738948-6.707006-31.138783 8.596597-51.990721 8.596597l-113.595509 0.004153c-20.847785 0-28.99171-17.18904-48.726506-10.469575-62.73439 80.322113-114.172769 58.809857-183.431436 94.226173C10.648168 899.299515 3.986844 944.537547 3.986844 965.381179v58.02495" fill="#FFFFFF" /><path d="M133.944957 514.84892l-14.755414-8.521843c-8.114855-4.692828-16.321075-25.511542-18.235582-46.276268l-4.402122-47.704882c-1.918661-20.760573 5.7103-35.615658 16.956475-33.003455l20.436643 4.73851" fill="#FFEAD6" /><path d="M133.944957 514.84892l-14.755414-8.521843c-8.114855-4.692828-16.321075-25.511542-18.235582-46.276268l-4.402122-47.704882c-1.918661-20.760573 5.7103-35.615658 16.956475-33.003455l20.436643 4.73851" fill="#FFEAD6" /><path d="M456.782457 775.81169c0 41.691417-34.120598 75.816167-75.82032 75.816167h-37.766884c-41.69557 0-75.812014-34.116445-75.812014-75.816167v-138.355369c0-41.699723 34.116445-75.82032 75.812014-75.82032h37.766884c41.691417 0 75.824473 34.108139 75.824473 75.82032l-0.004153 138.355369z" fill="#FFEAD6" /><path d="M456.782457 793.166848c0 41.69557-34.120598 72.070211-75.82032 72.070211h-37.766884c-41.69557 0-75.812014-30.366335-75.812014-72.070211v-155.718833c0-41.699723 34.116445-75.82032 75.812014-75.82032h37.766884c41.691417 0 75.824473 34.108139 75.824473 75.82032l-0.004153 155.718833z" fill="#FFEAD6" /><path d="M456.782457 637.448015c0-0.730918-0.091365-1.449378-0.103824-2.167837H321.766056l-54.382817 32.978538v107.544668c0 15.357591 4.659604 29.685252 12.600036 41.662346 10.739516-12.043541 35.399705-28.044839 90.604805-28.044839 44.087666 0 64.87731 14.772026 74.470613 26.612073a75.101861 75.101861 0 0 0 11.727917-40.233733v-138.351216z" fill="#D59758" opacity=".15" /><path d="M590.935045 514.84892s6.628101-3.833168 14.755415-8.521843c8.114855-4.692828 16.312769-25.511542 18.235582-46.276268l4.406275-47.704882c1.918661-20.760573-5.706147-35.615658-16.956476-33.003455l-20.436643 4.73851" fill="#FFEAD6" /><path d="M590.935045 514.84892s6.628101-3.833168 14.755415-8.521843c8.114855-4.692828 16.312769-25.511542 18.235582-46.276268l4.406275-47.704882c1.918661-20.760573-5.706147-35.615658-16.956476-33.003455l-20.436643 4.73851" fill="#FFEAD6" /><path d="M590.216586 586.591048c0 23.67594-15.810262 54.249923-35.125611 67.942184l-122.030141 86.510001c-19.315348 13.696413-51.255649 17.317781-70.986292 17.317781-19.72649 0-51.670944-3.621368-70.986292-17.317781l-122.030141-86.510001c-19.319501-13.696413-35.121457-44.266243-35.121458-67.942184V240.800221c0-23.67594 19.373489-43.041124 43.04943-43.041124h370.176922c23.671788 0 43.045277 19.365183 43.045277 43.041124l0.008306 345.790827z" fill="#FFEAD6" /><path d="M555.090975 609.652353l-122.030141 86.510001c-19.315348 13.696413-51.255649 17.317781-70.986292 17.317782-19.722337 0-51.670944-3.621368-70.986292-17.317782L169.058109 609.652353c-35.121457-23.052999-35.121457-100.79198-35.121458-124.46792v101.414921c0 23.67594 15.801956 54.24577 35.121458 67.938031l122.030141 86.510001c19.315348 13.696413 51.259802 17.321934 70.986292 17.321934 19.722337 0 51.670944-3.625521 70.986292-17.321934l122.030141-86.510001c19.315348-13.696413 35.121457-44.26209 35.121458-67.938031v-84.578881c0 23.663482 0 84.570576-35.121458 107.63188zM133.944957 401.008387s77.655922-24.315494 94.487809-127.188099c0 0 155.241244 61.721071 299.265383 26.184319 0 0 63.236896-5.822429 63.236896 84.063917 0 0 38.12819-37.301754 19.062019-95.285175-19.062018-57.983421-413.359246-93.520173-413.359246-93.520172S133.944957 348.635595 133.944957 401.008387z" fill="#D59758" opacity=".15" /><path d="M113.508314 379.330013h20.436643c59.200234-23.011469 69.678114-145.623023 69.678115-145.623023 105.430819 54.931006 270.402414 48.016352 333.577016 48.016352 63.182908 0 53.726652 102.336875 53.726651 102.336876 70.762033-32.999302 45.43322-253.940139-151.673864-286.798242-197.111237-32.841491-238.62823 61.147965-238.62823 61.147965C128.554434 122.977013 107.590367 202.123842 107.590367 202.123842s-32.841491 77.701604 5.917947 177.206171z" fill="#E4BC96" /><path d="M99.944795 449.136869s6.844054 36.039258 34.000162 36.039258v29.676946c0-0.004153-34.000162-10.727057-34.000162-65.716204zM625.246678 449.136869s-6.844054 36.039258-34.004315 36.039258v29.676946c0-0.004153 34.004315-10.727057 34.004315-65.716204z" fill="#D59758" opacity=".15" /><path d="M220.018899 807.843356l72.007917 143.995068 71.077656-75.74972 69.204679 75.74972 76.746427-142.284054-7.167983-4.273381-88.283309 46.496374H319.149701L227.348847 801.601479z" fill="#D59758" opacity=".2" /><path d="M478.132748 250.439206c-136.615285 27.824733-279.626105-38.344143-279.626105-38.344142-2.118002 97.261976-96.763623 129.364242-96.763623 129.364242a280.668494 280.668494 0 0 0 11.765294 37.870707h20.440796c59.196081-23.011469 69.678114-145.623023 69.678114-145.623023 105.430819 54.931006 270.398261 48.016352 333.577016 48.016352 63.182908 0 53.722499 102.336875 53.722499 102.336876 38.792661-54.474182 23.817141-161.445744-112.793991-133.621012z" fill="#A87846" opacity=".2" /><path d="M362.709943 896.21803m-33.667927 0a33.667927 33.667927 0 1 0 67.335853 0 33.667927 33.667927 0 1 0-67.335853 0Z" fill="#FF9999" /><path d="M299.22387 925.749623L223.677644 805.280989l41.525299-41.529452 98.013659 98.009506z" fill="#FFFFFF" /><path d="M428.405383 927.983907l73.482212-122.702918-41.525299-41.529452-98.009507 98.009506z" fill="#FFFFFF" /><path d="M227.348847 801.601479l74.030401 91.323265 60.973541-31.163701-63.128919 63.98858L223.677644 805.280989zM362.352789 861.761043l61.538342 35.839917 77.996464-92.319971-73.482212 122.702918z" fill="#D59758" opacity=".15" /><path d="M330.292053 1022.729199l8.044254-106.930033H388.34192l15.523709 106.930033" fill="#FF9999" /><path d="M337.709213 924.134127s23.306328 23.052999 51.845367 0l-1.21266-8.339114H338.336307l-0.627094 8.339114z" fill="#E38888" /><path d="M720.191311 1023.406129v-58.029103c0-20.847785-15.378356-77.493957-61.006765-94.911409-51.700015-26.105413-113.055627-36.246906-157.292798-65.184628l-133.326153 218.12514-1.698554 0.593871-138.679299-221.094496c-50.682543 44.507114-96.501987 33.77175-155.058514 63.722791C10.648168 899.299515 3.986844 944.537547 3.986844 965.381179v58.02495" fill="#7D7F91" /><path d="M205.151355 819.816297v96.975423h42.841783v41.147381l118.878056 66.056746-138.675146-221.094496zM529.596045 819.816297v96.975423h-42.83763v41.147381l-118.188667 65.467028 133.317847-218.12514z" fill="#7D7F91" /><path d="M205.151355 819.816297l18.526289 76.401733h40.536898v52.368638l104.355206 74.819461-120.57661-65.467028v-41.147381H205.151355zM528.383385 819.816297l-18.530441 76.401733h-40.536898v52.368638l-100.746298 74.819461 116.967701-65.467028v-41.147381h42.845936z" fill="#3F3F3F" opacity=".2" /><path d="M366.871194 1023.995847l1.698554-0.593871h-2.068166l0.369612 0.593871z m292.313352-153.53023c-47.841929-24.153529-103.910841-34.672939-147.084859-59.034116 20.316208 22.052139 40.989569 44.502961 69.773632 59.034116 45.620103 17.417452 61.006765 74.067777 61.006765 94.911409v58.029103h77.311227v-58.029103c0-20.843632-15.378356-77.489804-61.006765-94.911409z" opacity=".1" fill="#000000" /></svg>