<svg xmlns="http://www.w3.org/2000/svg" viewBox="0 0 1024 1024" width="200" height="200"><path d="M667.42 222.46c0-8.69 7.04-15.73 15.73-15.73h96.03c9.6 0 17.39-7.78 17.39-17.39 0-9.6-7.78-17.39-17.39-17.39H293.22c-9.6 0-17.39 7.78-17.39 17.39 0 9.6 7.78 17.39 17.39 17.39h53.81c8.69 0 15.73 7.04 15.73 15.73 0 8.69-7.04 15.73-15.73 15.73H207.12c-9.6 0-17.39 7.78-17.39 17.39 0 9.6 7.78 17.39 17.39 17.39h500.03c9.6 0 17.39-7.78 17.39-17.39 0-9.6-7.78-17.39-17.39-17.39h-24.01c-8.68 0-15.72-7.05-15.72-15.73zM813.42 448.46c0-8.69 7.04-15.73 15.73-15.73h96.03c9.6 0 17.39-7.78 17.39-17.39 0-9.6-7.78-17.39-17.39-17.39H439.22c-9.6 0-17.39 7.78-17.39 17.39 0 9.6 7.78 17.39 17.39 17.39h53.81c8.69 0 15.73 7.04 15.73 15.73 0 8.69-7.04 15.73-15.73 15.73H353.12c-9.6 0-17.39 7.78-17.39 17.39 0 9.6 7.78 17.39 17.39 17.39h500.03c9.6 0 17.39-7.78 17.39-17.39 0-9.6-7.78-17.39-17.39-17.39h-24.01c-8.68 0-15.72-7.05-15.72-15.73zM673.42 768.46c0-8.69 7.04-15.73 15.73-15.73h96.03c9.6 0 17.39-7.78 17.39-17.39 0-9.6-7.78-17.39-17.39-17.39H299.22c-9.6 0-17.39 7.78-17.39 17.39 0 9.6 7.78 17.39 17.39 17.39h53.81c8.69 0 15.73 7.04 15.73 15.73 0 8.69-7.04 15.73-15.73 15.73H213.12c-9.6 0-17.39 7.78-17.39 17.39 0 9.6 7.78 17.39 17.39 17.39h500.03c9.6 0 17.39-7.78 17.39-17.39 0-9.6-7.78-17.39-17.39-17.39h-24.01c-8.68 0-15.72-7.05-15.72-15.73z" fill="#ECF9FF" /><path d="M217.66 253.11m-17.81 0a17.81 17.81 0 1 0 35.62 0 17.81 17.81 0 1 0-35.62 0Z" fill="#FFDB56" /><path d="M212.57 279.4c-14.5 0-26.29-11.8-26.29-26.29s11.8-26.29 26.29-26.29 26.29 11.8 26.29 26.29-11.8 26.29-26.29 26.29z m0-47.5c-11.69 0-21.21 9.51-21.21 21.21s9.51 21.21 21.21 21.21 21.21-9.51 21.21-21.21-9.52-21.21-21.21-21.21z" fill="#F76319" /><path d="M504.66 136.11m-17.81 0a17.81 17.81 0 1 0 35.62 0 17.81 17.81 0 1 0-35.62 0Z" fill="#FFDB56" /><path d="M499.57 162.4c-14.5 0-26.29-11.8-26.29-26.29s11.8-26.29 26.29-26.29c14.5 0 26.29 11.8 26.29 26.29s-11.8 26.29-26.29 26.29z m0-47.5c-11.69 0-21.21 9.51-21.21 21.21s9.51 21.21 21.21 21.21c11.69 0 21.2-9.51 21.2-21.21s-9.51-21.21-21.2-21.21z" fill="#F76319" /><path d="M877.66 668.11m-17.81 0a17.81 17.81 0 1 0 35.62 0 17.81 17.81 0 1 0-35.62 0Z" fill="#FFDB56" /><path d="M872.57 694.4c-14.5 0-26.29-11.8-26.29-26.29s11.8-26.29 26.29-26.29 26.29 11.8 26.29 26.29-11.8 26.29-26.29 26.29z m0-47.5c-11.69 0-21.21 9.51-21.21 21.21s9.51 21.21 21.21 21.21 21.21-9.51 21.21-21.21-9.52-21.21-21.21-21.21z" fill="#F76319" /><path d="M345.66 873.11m-17.81 0a17.81 17.81 0 1 0 35.62 0 17.81 17.81 0 1 0-35.62 0Z" fill="#FFDB56" /><path d="M340.57 899.4c-14.5 0-26.29-11.8-26.29-26.29s11.8-26.29 26.29-26.29 26.29 11.8 26.29 26.29-11.8 26.29-26.29 26.29z m0-47.5c-11.69 0-21.21 9.51-21.21 21.21s9.51 21.21 21.21 21.21 21.21-9.51 21.21-21.21-9.52-21.21-21.21-21.21zM905.82 369.11h-17.5v-17.5c0-2.35-1.9-4.25-4.25-4.25s-4.25 1.9-4.25 4.25v17.5h-17.5c-2.35 0-4.25 1.9-4.25 4.25s1.9 4.25 4.25 4.25h17.5v17.5c0 2.35 1.9 4.25 4.25 4.25s4.25-1.9 4.25-4.25v-17.5h17.5c2.35 0 4.25-1.9 4.25-4.25s-1.91-4.25-4.25-4.25zM760.82 823.11h-17.5v-17.5c0-2.35-1.9-4.25-4.25-4.25s-4.25 1.9-4.25 4.25v17.5h-17.5c-2.35 0-4.25 1.9-4.25 4.25s1.9 4.25 4.25 4.25h17.5v17.5c0 2.35 1.9 4.25 4.25 4.25s4.25-1.9 4.25-4.25v-17.5h17.5c2.35 0 4.25-1.9 4.25-4.25s-1.91-4.25-4.25-4.25zM525.44 480.97l-12.37 12.37-12.37-12.37a4.249 4.249 0 1 0-6.01 6.01l12.37 12.37-12.37 12.37a4.249 4.249 0 1 0 6.01 6.01l12.37-12.37 12.37 12.37a4.249 4.249 0 1 0 6.01-6.01l-12.37-12.37 12.37-12.37a4.249 4.249 0 1 0-6.01-6.01zM303.44 834.97l-12.37 12.37-12.37-12.37a4.249 4.249 0 1 0-6.01 6.01l12.37 12.37-12.37 12.37a4.249 4.249 0 1 0 6.01 6.01l12.37-12.37 12.37 12.37a4.249 4.249 0 1 0 6.01-6.01l-12.37-12.37 12.37-12.37a4.249 4.249 0 1 0-6.01-6.01zM160.44 609.97l-12.37 12.37-12.37-12.37a4.249 4.249 0 1 0-6.01 6.01l12.37 12.37-12.37 12.37a4.249 4.249 0 1 0 6.01 6.01l12.37-12.37 12.37 12.37a4.249 4.249 0 1 0 6.01-6.01l-12.37-12.37 12.37-12.37a4.249 4.249 0 1 0-6.01-6.01z" fill="#F76319" /><path d="M736.44 183.97l-12.37 12.37-12.37-12.37a4.249 4.249 0 1 0-6.01 6.01l12.37 12.37-12.37 12.37a4.249 4.249 0 1 0 6.01 6.01l12.37-12.37 12.37 12.37a4.249 4.249 0 1 0 6.01-6.01l-12.37-12.37 12.37-12.37a4.249 4.249 0 1 0-6.01-6.01z" fill="#F76319" /><path d="M468.32 339.86m-32 0a32 32 0 1 0 64 0 32 32 0 1 0-64 0Z" fill="#66FF33" opacity=".51" /><path d="M436.32 743.86m-32 0a32 32 0 1 0 64 0 32 32 0 1 0-64 0Z" fill="#66FF33" opacity=".51" /><path d="M796.32 800.86m-32 0a32 32 0 1 0 64 0 32 32 0 1 0-64 0Z" fill="#6666FF" opacity=".51" /><path d="M167.32 372.86m-32 0a32 32 0 1 0 64 0 32 32 0 1 0-64 0Z" fill="#6666FF" opacity=".51" /><path d="M352.42 546.94v69.83c0 8.96 10.01 14.28 17.43 9.27l49.44-33.37c6.4-4.32 6.6-13.68 0.38-18.26l-49.44-36.46c-7.38-5.45-17.81-0.18-17.81 8.99z" fill="#F76319" /><path d="M686.32 558.86c-28.12 0-51-22.88-51-51s22.88-51 51-51 51 22.88 51 51-22.88 51-51 51z m0-76c-13.79 0-25 11.21-25 25 0 13.78 11.21 25 25 25s25-11.21 25-25-11.22-25-25-25z" fill="#FFDB56" /><path d="M739.32 615.86h-111c-7.18 0-13-5.82-13-13s5.82-13 13-13h111c7.18 0 13 5.82 13 13s-5.82 13-13 13zM739.32 692.86h-111c-7.18 0-13-5.82-13-13s5.82-13 13-13h111c7.18 0 13 5.82 13 13s-5.82 13-13 13z" fill="#F76319" /><path d="M409.31 578.86c-0.6 0-1.21-0.18-1.74-0.56l-35-25a3.007 3.007 0 0 1-0.7-4.19 3.007 3.007 0 0 1 4.19-0.7l35 25c1.35 0.96 1.66 2.84 0.7 4.19-0.59 0.82-1.51 1.26-2.45 1.26z" fill="#FFFFFF" /><path d="M500.29 385.52c-15.39 0-29.85-5.99-40.73-16.87l-115.3-115.31c-4.69-4.69-4.69-12.28 0-16.97 4.69-4.69 12.28-4.69 16.97 0l115.31 115.31c6.35 6.35 14.79 9.84 23.76 9.84s17.42-3.5 23.76-9.84l115.31-115.31c4.69-4.69 12.28-4.69 16.97 0 4.69 4.69 4.69 12.28 0 16.97L541.02 368.65c-10.87 10.88-25.34 16.87-40.73 16.87z" fill="#F76319" /><path d="M734.91 786.36H266.72c-61.63 0-111.77-50.14-111.77-111.77v-201.1c0-61.63 50.14-111.77 111.77-111.77h468.19c61.63 0 111.77 50.14 111.77 111.77v201.09c0.01 61.64-50.14 111.78-111.77 111.78zM266.72 385.71c-48.4 0-87.78 39.38-87.78 87.78v201.09c0 48.4 39.38 87.78 87.78 87.78h468.19c48.4 0 87.78-39.38 87.78-87.78V473.49c0-48.4-39.38-87.78-87.78-87.78H266.72z" fill="#F76319" /><path d="M452.75 707.86H323.88c-33.95 0-61.56-27.62-61.56-61.56V517.42c0-33.95 27.62-61.56 61.56-61.56h128.87c33.95 0 61.56 27.62 61.56 61.56v128.87c0 33.95-27.61 61.57-61.56 61.57z m-128.87-224c-18.51 0-33.57 15.06-33.57 33.57V646.3c0 18.51 15.06 33.57 33.57 33.57h128.87c18.51 0 33.57-15.06 33.57-33.57V517.42c0-18.51-15.06-33.57-33.57-33.57H323.88z" fill="#FFDB56" /></svg>