<svg xmlns="http://www.w3.org/2000/svg" viewBox="0 0 1024 1024" width="200" height="200"><path d="M118.4 243.2c-12.8-9.6-12.8-27.2 0-43.2s30.4-19.2 43.2-9.6c9.6 3.2 12.8 16 9.6 24-6.4 12.8-12.8 20.8-24 27.2-11.2 4.8-24 4.8-28.8 1.6z m147.2-136c-6.4-6.4-3.2-19.2 9.6-27.2 9.6-12.8 24-19.2 43.2-19.2 16 0 30.4 3.2 33.6 12.8 6.4 9.6 3.2 20.8-9.6 30.4-9.6 12.8-24 19.2-43.2 19.2-16 0-27.2-6.4-33.6-16zM118.4 812.8c-9.6-9.6-12.8-20.8-9.6-30.4 3.2-9.6 12.8-16 20.8-16s20.8 6.4 30.4 16c9.6 9.6 12.8 20.8 9.6 30.4-3.2 9.6-12.8 16-20.8 16-9.6 0-22.4-6.4-30.4-16zM724.8 116.8c-24-9.6-36.8-27.2-27.2-43.2 9.6-16 33.6-19.2 59.2-9.6 16 6.4 27.2 16 30.4 27.2 3.2 12.8-3.2 20.8-16 24-12.8 11.2-32 8-46.4 1.6z m131.2 708.8c-9.6-6.4-12.8-19.2-9.6-27.2 3.2-9.6 12.8-20.8 20.8-27.2 9.6-6.4 20.8-6.4 30.4 0 9.6 6.4 9.6 16 6.4 27.2-3.2 12.8-12.8 20.8-20.8 27.2-8 3.2-20.8 3.2-27.2 0z m83.2-403.2c-3.2-16 0-33.6 6.4-43.2 6.4-9.6 19.2-12.8 30.4-9.6 9.6 6.4 19.2 19.2 20.8 36.8 3.2 16 0 33.6-6.4 43.2s-19.2 12.8-30.4 9.6c-8-9.6-14.4-22.4-20.8-36.8z m-83.2-192c-9.6-9.6-12.8-20.8-9.6-30.4 3.2-9.6 12.8-16 20.8-16s20.8 6.4 30.4 16c9.6 9.6 12.8 20.8 9.6 30.4-3.2 9.6-12.8 16-20.8 16s-20.8-6.4-30.4-16zM478.4 30.4C478.4 11.2 499.2 0 524.8 0c24 0 46.4 12.8 46.4 30.4s-20.8 30.4-46.4 30.4c-25.6 0-46.4-11.2-46.4-30.4z m0 952c0-19.2 20.8-30.4 46.4-30.4 24 0 46.4 12.8 46.4 30.4 0 19.2-20.8 30.4-46.4 30.4-25.6 0-46.4-12.8-46.4-30.4zM38.4 459.2c-9.6-3.2-19.2-16-20.8-30.4-3.2-16 0-33.6 9.6-46.4s19.2-19.2 30.4-16c9.6 3.2 19.2 16 20.8 30.4s0 33.6-9.6 46.4-22.4 19.2-30.4 16z m657.6 507.2c-6.4-9.6-3.2-20.8 9.6-30.4 12.8-9.6 27.2-16 43.2-16s30.4 3.2 33.6 12.8c6.4 9.6 3.2 20.8-9.6 30.4-9.6 9.6-27.2 16-43.2 16-14.4 0-27.2-3.2-33.6-12.8z m-403.2 9.6c-24-9.6-36.8-27.2-27.2-43.2 9.6-16 33.6-19.2 59.2-9.6 24 9.6 36.8 27.2 27.2 43.2-9.6 16-33.6 19.2-59.2 9.6z m668.8-302.4c-16-3.2-24-27.2-20.8-52.8 6.4-24 20.8-43.2 40-36.8 9.6 3.2 19.2 16 20.8 30.4 3.2 16 0 33.6-9.6 46.4-9.6 9.6-20.8 16-30.4 12.8zM16 636.8c-3.2-16 0-33.6 6.4-43.2 6.4-9.6 19.2-12.8 30.4-9.6 9.6 6.4 19.2 19.2 20.8 36.8 3.2 16 0 33.6-6.4 43.2-6.4 9.6-19.2 12.8-30.4 9.6-8-8-14.4-20.8-20.8-36.8z m822.4-43.2l-6.4 6.4v3.2h-3.2v3.2l-3.2 3.2v3.2h-3.2v3.2l-3.2 3.2v3.2H816v-9.6h-3.2v3.2h-3.2v3.2h-3.2v6.4h-3.2v3.2h12.8v6.4l-3.2 3.2v1.6h-3.2v3.2l-3.2 3.2v3.2l-3.2 3.2v3.2l-3.2 3.2v-16h6.4v3.2l-3.2 3.2v3.2l-1.6 3.2v3.2h-3.2v6.4l-3.2 3.2v3.2l-3.2 3.2v6.4l3.2-6.4v3.2l-3.2 3.2v6.4l-3.2 3.2v9.6l-3.2 3.2v6.4l-3.2 3.2v6.4l-3.2 3.2v9.6h6.4v12.8h-3.2c0 9.6-3.2 16-6.4 20.8-16 24-46.4 36.8-70.4 20.8L688 769.6v-3.2h-6.4v-3.2l-3.2-3.2v-3.2l-3.2-3.2v-3.2l-3.2-1.6v-3.2l-3.2-3.2v-3.2l-3.2-3.2v-3.2l-3.2-3.2v-3.2l-3.2-3.2V720l-3.2-3.2V736h-3.2v-3.2h-3.2v-3.2l-3.2-3.2v-3.2h16v-6.4h-3.2v-3.2H656v-3.2h-3.2v-3.2h-3.2V704h-3.2v-3.2l-3.2-3.2v-3.2H640v9.6h-3.2l-3.2-3.2v-3.2h-3.2v-3.2l-3.2-3.2V688H624v-3.2h-3.2v-3.2h-3.2v-3.2h-3.2v-3.2h16v-6.4l-9.6 3.2h-3.2l-3.2-3.2v-3.2h-3.2l-3.2-3.2h-3.2v-3.2h-3.2V656h-3.2v-3.2h-3.2v-3.2h6.4v-6.4h-3.2V640h-3.2v-3.2H592v-3.2h-3.2v-3.2h-3.2c-40-33.6-96-33.6-136 0l-3.2 3.2h-3.2v3.2l-1.6 3.2h6.4v3.2l-3.2 3.2h-3.2v3.2h-3.2v3.2h-3.2l-9.6 9.6v3.2h-3.2l3.2 9.6v3.2h-3.2v3.2h-3.2l-3.2 1.6v3.2h-3.2v3.2h-3.2v3.2h6.4v3.2-9.6l-3.2 3.2h-3.2v3.2h-3.2v3.2l-3.2 3.2v3.2H400v3.2h-3.2v3.2h-3.2v3.2h-3.2v3.2h-3.2v3.2H384v1.6h-3.2v3.2h-3.2v3.2h-3.2v3.2h9.6v6.4h-3.2v3.2h-3.2v3.2-6.4h-3.2v3.2h-3.2v3.2H368v3.2h-3.2v3.2h-3.2v3.2h-3.2v3.2h-3.2v3.2H352v8h12.8-3.2v3.2h-3.2v3.2c-6.4 6.4-9.6 12.8-19.2 19.2-24 12.8-56 3.2-70.4-24-3.2-6.4-6.4-12.8-6.4-20.8V720l-3.2-3.2v-19.2H256v-19.2l-3.2-3.2V672l-3.2 3.2v-6.4l-3.2-3.2v-19.2l-3.2-3.2V640l-3.2-3.2v-3.2 9.6-3.2l-3.2-3.2v-3.2l-3.2-3.2v-3.2l-3.2-3.2v-3.2h3.2v-3.2h-3.2v-6.4h-3.2v-6.4l-3.2-3.2v9.6l-3.2-3.2v-3.2h-3.2v-6.4h-3.2v-3.2l-3.2-3.2v-6.4l-3.2-3.2V576l-3.2-3.2v-6.4h-3.2v-3.2l-3.2 16V576h-3.2v-6.4l-3.2-6.4V560h-3.2v-6.4l-3.2-3.2v-3.2l-9.6-16c-6.4-16-6.4-30.4-3.2-46.4l3.2-3.2c3.2-6.4 6.4-12.8 9.6-16v-3.2l3.2-3.2v-3.2h3.2v-3.2h3.2v-3.2l6.4-6.4v-3.2h3.2v-3.2h-3.2v-3.2 20.8h3.2v-3.2h3.2V448l3.2-3.2v-3.2h3.2v-3.2h3.2v-3.2l3.2-3.2v-3.2h3.2v-3.2l3.2-3.2v-3.2h3.2V416l3.2-3.2v3.2h3.2v-3.2l3.2-3.2v19.2h3.2l3.2-3.2v-3.2h3.2v-3.2l3.2-3.2v-3.2h-19.2v-3.2 6.4-3.2h3.2v-3.2l3.2-3.2v-3.2l3.2-3.2v-3.2l3.2-3.2v-3.2h3.2v6.4h-6.4v-3.2l3.2-3.2v-3.2h3.2V384h3.2v-6.4l3.2-3.2v-3.2l3.2-3.2v-6.4h3.2v3.2l3.2-3.2v-6.4h3.2v-9.6h3.2v-19.2h3.2v-12.8h-12.8v-24h3.2c0-9.6 3.2-16 6.4-20.8 16-24 46.4-36.8 70.4-20.8 9.6 6.4 12.8 12.8 19.2 19.2v3.2l3.2 3.2v3.2l3.2 3.2v-3.2l3.2 3.2v3.2h3.2v3.2h3.2v3.2h3.2v3.2h3.2v3.2h3.2v3.2h3.2v3.2h3.2v1.6h3.2v3.2h3.2l3.2 3.2v3.2h-16v6.4h3.2v3.2h3.2v3.2h3.2v3.2h3.2v3.2h3.2v3.2h3.2v3.2l3.2 3.2v3.2h3.2v-6.4h3.2l3.2 3.2v3.2h3.2v3.2h3.2v3.2l3.2 3.2v3.2h3.2l9.6 9.6v3.2h3.2v3.2h3.2v3.2h3.2v3.2h3.2v3.2h3.2v-12.8h6.4v3.2h3.2v3.2h3.2v3.2h3.2v3.2h3.2v3.2h3.2v3.2h3.2l6.4 6.4h-36.8v3.2l3.2 3.2h3.2v3.2l3.2 3.2c40 33.6 96 33.6 136 0h3.2v-3.2h3.2V400h3.2v-3.2h3.2v-3.2H608v-6.4h3.2V384H608v-3.2h3.2v-3.2h3.2v-3.2h3.2l6.4-6.4h3.2v-3.2l3.2-3.2h3.2v6.4l3.2-3.2h3.2v-3.2l6.4-6.4V352h3.2v-3.2h3.2v-3.2h3.2v-6.4h3.2V336h3.2l3.2-3.2v-3.2h3.2v-3.2l3.2-3.2V320h3.2v-3.2h3.2v-3.2l3.2-3.2v-3.2h3.2V304l3.2-3.2v-3.2h3.2v-3.2l3.2-3.2V288h-30.4v-3.2h3.2v-3.2l3.2-3.2v27.2h1.6V304l3.2-3.2v-3.2l3.2-3.2v-3.2l3.2-3.2v-3.2l3.2-3.2v-3.2l3.2-3.2V272l3.2-3.2v-3.2l3.2-3.2v-3.2h3.2V256l3.2-3.2v20.8l3.2-3.2h3.2v-3.2l19.2-19.2c24-12.8 56-3.2 70.4 24 3.2 6.4 6.4 12.8 6.4 20.8h-16V320h3.2v12.8h3.2v12.8h3.2v6.4h3.2v9.6h3.2v6.4l3.2 3.2v6.4h3.2v6.4l3.2 3.2v3.2l3.2 3.2v6.4l3.2 3.2v3.2l3.2 3.2V400l3.2 3.2v3.2l3.2 3.2v3.2l3.2 3.2h3.2v3.2h3.2v3.2l3.2 3.2v3.2l3.2 3.2v3.2h3.2v3.2h3.2v3.2h3.2v3.2h3.2v-16h3.2v3.2h3.2v3.2l3.2 3.2v3.2l3.2 3.2v3.2l3.2 3.2v3.2h3.2v3.2l3.2 3.2v3.2l6.4 6.4v3.2h3.2v-12.8H848v3.2l3.2 3.2v3.2h3.2v3.2h3.2v3.2l3.2 3.2h3.2v3.2h3.2v3.2l3.2 3.2 9.6 16 3.2 3.2c6.4 12.8 6.4 27.2 0 43.2l-3.2 3.2-9.6 16-3.2 3.2v1.6H864v3.2h-3.2v3.2l-3.2 3.2v3.2h-3.2v3.2h-3.2v3.2l-3.2-16v3.2l-3.2 3.2v3.2h-3.2l-3.2 4.8z m-392-73.6v-9.6l-3.2-3.2v-3.2l-3.2-3.2v-3.2h-3.2V496l-3.2-3.2v-3.2l-1.6-3.2v-3.2h-3.2V480l-3.2-3.2v-3.2l-3.2-3.2v19.2h-3.2v-3.2l-3.2-3.2V480h-3.2v-3.2l-3.2-3.2v-3.2h-3.2v-3.2h-3.2V464H400v-3.2h-3.2v-3.2h-3.2v-3.2H416V448h-3.2v9.6-3.2h-3.2v-3.2h-3.2V448h-3.2v-3.2l-3.2-3.2v-3.2h-3.2v-3.2h-3.2V432h-3.2v-3.2l-3.2-3.2v-3.2H384v-3.2h-3.2V416h-6.4v12.8l-3.2-3.2v-3.2h12.8V416h-3.2v-3.2h-3.2v-3.2h-3.2v-3.2h-3.2v-3.2H368V400h-3.2v-3.2h-3.2v-3.2h-3.2v-3.2h-3.2v-3.2H352V384h-3.2v-3.2h-3.2v-3.2h-3.2V400H336c-9.6-6.4-16-12.8-27.2-12.8-19.2 0-33.6 12.8-40 24v4.8h20.8v9.6l-3.2 3.2v3.2l-3.2 3.2v12.8h-3.2v12.8h-3.2v6.4l-3.2 3.2v9.6H272v6.4l-3.2 3.2v6.4l3.2-6.4v6.4l-3.2 3.2v9.6l-3.2 3.2v6.4l-3.2 3.2v12.8h3.2v6.4h3.2v9.6h3.2v6.4h3.2v3.2h3.2v6.4h3.2v9.6h3.2v6.4l3.2 3.2v6.4h3.2v6.4l3.2 3.2v6.4l3.2 3.2v3.2l3.2 3.2v6.4l3.2 3.2v-12.8l3.2 3.2v3.2l3.2 3.2v3.2l3.2 3.2v3.2l3.2 3.2c6.4 12.8 16 20.8 27.2 24 12.8 3.2 24 0 36.8-9.6l6.4-6.4h3.2V640h3.2v-3.2h3.2v-3.2h3.2v-3.2h3.2v-3.2h3.2V624h3.2v-3.2h3.2v-3.2h3.2v-6.4h3.2V608h3.2v-3.2h-36.8v-3.2l3.2-3.2v-3.2h3.2V592h3.2v-3.2l3.2-3.2v-3.2h3.2v-3.2h3.2V576h3.2l3.2-3.2v-3.2h3.2v-3.2l6.4-6.4v-3.2l3.2-3.2v27.2h3.2l3.2-3.2V576h1.6v-3.2h-16v-6.4h3.2v-3.2h3.2V560h3.2v-3.2h3.2v-3.2h3.2v-3.2h3.2l3.2-3.2V544h3.2v6.4l3.2-3.2V544l3.2-3.2v-3.2h3.2v-3.2l3.2-3.2V528l3.2-3.2v-3.2h3.2v-3.2l3.2-3.2V512l3.2-3.2v-3.2h3.2v-3.2l3.2-3.2V496c-1.6 3.2-27.2 24-27.2 24z m329.6 3.2l-3.2-9.6h-3.2v-6.4H768v-9.6l-3.2-1.6v-6.4l-3.2-3.2V480l-3.2-3.2v-6.4h-3.2v-9.6l-3.2-1.6v-6.4h-3.2v-6.4h-3.2v-6.4h-3.2v-6.4l-3.2-3.2v-6.4h16v-12.8H752v-3.2h-3.2v-3.2l-3.2-3.2V400c-6.4-12.8-16-20.8-27.2-24-12.8-3.2-24 0-36.8 9.6h-3.2v3.2h-3.2v3.2H672v3.2h-3.2v3.2h-3.2v1.6h-3.2v3.2h-3.2v3.2H656v3.2h-3.2v3.2h-3.2v3.2h-3.2l-9.6 9.6v3.2h-6.4v3.2l-3.2 3.2v3.2H624v3.2h-3.2v3.2l-3.2 3.2v3.2h-3.2v3.2h-3.2v3.2l-3.2 3.2v6.4h-3.2v3.2l-3.2 3.2v3.2h-3.2v3.2h-3.2v-19.2l36.8 3.2v3.2l-6.4 6.4v3.2l-3.2 3.2-3.2 3.2v3.2l-3.2 3.2v3.2l-3.2 3.2h-3.2v3.2H608v3.2h-3.2v3.2l-3.2 3.2v3.2h-3.2v3.2h-3.2v3.2l-3.2 1.6v3.2h9.6v6.4l-3.2 3.2v3.2h-3.2v3.2H592v-19.2h-3.2v3.2h3.2v3.2h3.2v3.2l3.2 3.2v3.2h3.2v6.4l3.2 3.2v3.2h3.2v3.2h3.2v3.2l3.2 3.2v1.6h3.2v-9.6h3.2v3.2l3.2 3.2v3.2h3.2l3.2 3.2v3.2l3.2 3.2v3.2l3.2 3.2v3.2l3.2 3.2v3.2l3.2 3.2v-6.4l3.2 3.2v3.2h3.2v3.2h3.2v3.2h3.2v6.4h3.2v3.2l3.2 3.2v3.2h3.2v3.2h3.2v3.2h3.2v3.2h3.2v3.2h3.2v3.2h3.2v3.2l3.2 3.2v3.2h3.2v3.2h6.4v3.2h-30.4v6.4h3.2v3.2h3.2v3.2h1.6v3.2l9.6 9.6h3.2v3.2h3.2v3.2h3.2v-30.4h3.2c6.4 6.4 16 9.6 24 9.6 19.2 0 33.6-9.6 40-24h3.2v-3.2l3.2-3.2v-3.2l3.2-3.2v-3.2h-12.8V608h3.2v-6.4l3.2-3.2V592h3.2v-6.4h3.2v-3.2h3.2V576l3.2-3.2v-6.4h3.2v-9.6h3.2v-6.4h3.2V544h3.2v-6.4l3.2-6.4v-6.4l3.2-3.2c-1.6 1.6-17.6 1.6-17.6 1.6z m-267.2-240c-33.6 0-60.8-24-60.8-49.6 0-24 24-49.6 60.8-49.6 33.6 0 60.8 24 60.8 49.6s-27.2 49.6-60.8 49.6z m0 480c33.6 0 60.8 19.2 60.8 46.4s-24 49.6-60.8 49.6-60.8-24-60.8-49.6 27.2-46.4 60.8-46.4z" fill="#888888" /></svg>