<svg xmlns="http://www.w3.org/2000/svg" viewBox="0 0 1024 1024" width="200" height="200"><path d="M62.5 301h560.3c67.9 0 132.1 30.7 174.7 83.5l171.8 212.6c8.2 10.1 12.6 22.8 12.6 35.8 0 31.4-25.5 56.9-56.9 56.9H62.5c-11.3 0-20.5-9.2-20.5-20.5V321.6c0-11.4 9.2-20.6 20.5-20.6z" fill="#3DC38A" /><path d="M797.6 384.5C755 331.7 690.7 301 622.9 301H62.5c-11.3 0-20.5 9.2-20.5 20.5V356h536.6c22.8 0 44.4 10.4 58.6 28.2l113.2 140.1c12.4 15.4 31.1 24.3 50.9 24.3h128.9L797.6 384.5z" fill="#2F9B77" /><path d="M231.7 390.2v101.9h180.8V390.2H231.7zM203.3 492.1V390.2H42v101.9h161.3z" fill="#F2B843" /><path d="M393 401.2V605h172V401.2c0-6.1-4.9-11-11-11H404c-6.1 0-11 4.9-11 11z" fill="#FFFFFF" /><path d="M269.4 615.5l-36 74.3h479.5l-36-74.3c-3.1-6.4-9.5-10.4-16.6-10.4H286.1c-7.1-0.1-13.6 4-16.7 10.4z" fill="#2F9B77" /><path d="M446.7 438.7v57.9c0 4.8 3.9 8.7 8.7 8.7h47.3c4.8 0 8.7-3.9 8.7-8.7v-70.9c0-4.8-3.9-8.7-8.7-8.7h-47.3c-4.8 0-8.7 3.9-8.7 8.7v13zM797.6 384.5c-8.4-10.4-17.6-19.9-27.5-28.5H707c-7.1 0-11 8.2-6.6 13.8L782.2 471c10.8 13.3 26.9 21 44.1 21h58.3l-87-107.5z" fill="#F2B843" /><path d="M505.9 664.1a58.8 58.8 0 1 0 117.6 0 58.8 58.8 0 1 0-117.6 0Z" fill="#EA800C" /><path d="M322.8 663.9a58.9 58.9 0 1 0 117.8 0 58.9 58.9 0 1 0-117.8 0Z" fill="#EA800C" /><path d="M976.9 590.8L939.1 544c-0.3-0.6-0.7-1.2-1.1-1.7l-44.8-55.4c-0.2-0.4-0.5-0.8-0.8-1.2l-86.8-107.3-0.2-0.2c-1.2-1.5-2.5-3-3.7-4.5-0.5-0.5-0.9-1.1-1.4-1.6-0.9-1-1.7-2-2.6-3-0.5-0.5-0.9-1-1.4-1.5-1.1-1.2-2.1-2.3-3.2-3.5l-0.8-0.8c-5-5.2-10.2-10.2-15.6-14.9-0.2-0.2-0.5-0.4-0.8-0.6-6.4-5.5-13.2-10.7-20.2-15.5-0.1-0.1-0.2-0.1-0.3-0.2-0.4-0.3-0.8-0.6-1.3-0.9l-0.1-0.1c-0.1-0.1-0.2-0.1-0.2-0.2-0.4-0.4-0.9-0.7-1.4-0.9-0.2-0.1-0.4-0.2-0.6-0.4-8.9-5.9-18.2-11.2-27.8-15.7-2.8-1.3-5.7-2.6-8.5-3.8-0.6-0.3-1.2-0.5-1.8-0.8-0.8-0.4-1.6-0.7-2.3-1-0.8-0.4-1.4-0.6-1.9-0.8-0.1 0-0.2-0.1-0.3-0.1-0.1-0.1-0.3-0.1-0.4-0.2-0.3-0.1-0.6-0.2-1-0.4l-1.5-0.6c-0.6-0.2-1.2-0.5-1.8-0.7-0.4-0.1-0.7-0.3-1.1-0.4-0.1 0-0.1-0.1-0.2-0.1-0.9-0.3-1.7-0.6-2.7-1-0.4-0.2-0.8-0.3-1.3-0.5-0.4-0.1-0.7-0.3-1.1-0.4-0.3-0.1-0.5-0.2-0.8-0.3-0.5-0.2-0.9-0.3-1.4-0.5-0.4-0.1-0.7-0.2-1.1-0.3l-0.6-0.2c-0.1 0-0.1 0-0.2-0.1-5.4-1.7-10.4-3.1-15.2-4.3-0.2-0.1-0.4-0.1-0.6-0.1l-0.2-0.1c-0.3-0.1-0.7-0.2-1.1-0.3l-1.2-0.3c-0.1 0-0.3-0.1-0.4-0.1-1.4-0.4-2.7-0.7-3.8-0.9-0.2 0-0.3-0.1-0.5-0.1l-0.3-0.1c-0.4-0.1-0.9-0.2-1.5-0.3-0.2 0-0.5-0.1-0.7-0.1-0.2 0-0.4-0.1-0.7-0.1-3.3-0.6-6.5-1.2-9.5-1.7h-0.2l-2-0.3c-0.3 0-0.6-0.1-0.9-0.1-0.3 0-0.6-0.1-0.8-0.1h-0.2l-0.9-0.1c-0.3-0.1-0.7-0.1-1-0.2-0.6-0.1-1.2-0.1-1.6-0.2h-0.2c-0.6-0.1-1.2-0.2-1.5-0.2h-0.2c-0.1 0-0.3 0-0.4-0.1l-2.7-0.3c-0.4 0-0.7-0.1-1.1-0.1-0.3 0-1-0.1-1.6-0.1-0.3 0-0.6-0.1-0.9-0.1h-0.1c-0.3 0-0.7-0.1-1.1-0.1-1.1-0.1-2.2-0.2-3.3-0.2-1.4-0.1-2.8-0.2-4.1-0.2-0.4 0-0.8-0.1-1.2-0.1-0.9-0.1-1.7-0.1-2.2-0.1h-1.8c-1-0.1-1.9-0.1-2.7-0.1H62.5c-16.8 0.5-30.5 14.2-30.5 31v347.8c0 16.8 13.7 30.5 30.5 30.5h260.4c12.1 19.8 33.9 33 58.8 33s46.7-13.2 58.8-33h65.4c12.1 19.8 33.9 33.1 58.8 33.1s46.7-13.3 58.8-33.1h301.3c36.9 0 66.9-30 66.9-66.9 0-15.4-5.3-30.3-14.8-42.1zM766.1 366c0.2 0.1 0.3 0.2 0.4 0.4l0.5 0.5c0.6 0.5 1.1 1 1.7 1.7 0.4 0.4 0.7 0.7 1.1 1l0.3 0.3c0.4 0.4 0.8 0.8 1.2 1.1 0.2 0.2 0.4 0.4 0.6 0.5l0.3 0.3c1 0.9 2 1.9 2.9 2.9l0.3 0.3 1.1 1.1c0.2 0.2 0.4 0.5 0.6 0.7 0.2 0.2 0.4 0.4 0.5 0.6 0.4 0.4 0.7 0.8 1.2 1.2 0.1 0.1 0.3 0.3 0.4 0.5 0.3 0.4 0.6 0.7 1 1 0.2 0.2 0.5 0.6 1 1l1.9 2.2 0.1 0.1c0.2 0.3 0.6 0.7 1.2 1.3 0.2 0.2 0.4 0.5 0.6 0.7 0.2 0.3 0.5 0.6 0.7 0.8 0 0 0 0.1 0.1 0.1 1.1 1.2 2.1 2.5 3.3 3.9l0.6 0.7 73.7 91.2h-37c-14.2 0-27.4-6.3-36.3-17.3L710.2 366h55.9zM52 321.5c0-5.8 4.7-10.5 10.5-10.5h560.4c1.6 0 3.1 0 4.7 0.1h1.6c1 0 2 0.1 2.9 0.1 0.2 0 0.5 0.1 0.7 0.1 1.4 0.1 2.6 0.1 3.8 0.2 23 1.5 45.8 6.7 67.1 15.4 1.2 0.5 2.3 1 3.5 1.5 0.1 0 0.1 0.1 0.2 0.1 0.2 0.1 0.4 0.2 0.5 0.2l1.5 0.6c0.5 0.3 1 0.5 1.5 0.7 0.1 0 0.2 0.1 0.3 0.1 0.1 0.1 0.2 0.1 0.4 0.2 4.5 2 9.1 4.3 14.1 7.1 0.3 0.2 0.6 0.4 1 0.5 0.2 0.1 0.3 0.2 0.4 0.2 0.3 0.2 0.5 0.3 0.8 0.4 0.2 0.1 0.4 0.2 0.6 0.4 0.2 0.1 0.4 0.3 0.7 0.4 0.4 0.2 0.7 0.4 1.1 0.6 0.3 0.2 0.5 0.3 0.8 0.5 0.7 0.4 1.4 0.8 2 1.2 0.8 0.5 1.5 0.9 2.3 1.4 0.5 0.3 0.9 0.6 1.3 0.8 0.2 0.1 0.3 0.2 0.4 0.3 0.3 0.2 0.6 0.4 0.8 0.5 0.2 0.1 0.4 0.2 0.6 0.4 0.5 0.3 0.9 0.6 1.4 0.9 0.1 0.1 0.2 0.1 0.3 0.2H707c-7.1 0-13.5 4-16.6 10.4-3.1 6.4-2.3 14 2.1 19.6l0.1 0.1 81.8 101.2c12.7 15.7 31.6 24.7 51.9 24.7h53.1l29.5 36.6H801.3c-16.9 0-32.6-7.5-43.1-20.6L645 378c-16.2-20.3-40.4-32-66.4-32H52v-24.5z m0 78.7h141.3v81.9H52v-81.9z m197.5 279.6l29-59.9c1.4-2.9 4.3-4.8 7.6-4.8h47c-12.5 12.5-20.3 29.8-20.3 48.8 0 5.5 0.7 10.8 1.9 15.9h-65.2z m132.2 33c-18.9 0-35.3-10.8-43.4-26.5-0.2-0.6-0.5-1.3-0.9-1.8-2.9-6.3-4.6-13.2-4.6-20.6 0-26 20.3-47.3 45.9-48.8h6c25.6 1.5 45.9 22.8 45.9 48.8 0 7.3-1.6 14.3-4.6 20.6-0.4 0.6-0.7 1.2-0.9 1.8-8.1 15.7-24.5 26.5-43.4 26.5zM554 400.2c0.6 0 1 0.4 1 1V595H403V401.2c0-0.6 0.4-1 1-1h150z m-171 81.9H241.7v-81.9h141.4c0 0.3-0.1 0.7-0.1 1v80.9z m65.7 197.7c1.2-5.1 1.9-10.4 1.9-15.9 0-19-7.8-36.3-20.3-48.8h86.2c-12.7 12.5-20.6 29.8-20.6 49 0 5.4 0.6 10.7 1.8 15.7h-49z m116 33.1c-26.9 0-48.8-21.9-48.8-48.8s21.9-48.8 48.8-48.8 48.8 21.9 48.8 48.8-21.9 48.8-48.8 48.8z m67-33.1c1.2-5 1.8-10.3 1.8-15.7 0-19.2-7.9-36.5-20.6-49h47.4c3.3 0 6.2 1.8 7.6 4.8l29 59.9h-65.2z m293.1 0H719.2l-33.3-68.7c-4.8-9.9-14.6-16-25.6-16H575V401.2c0-11.6-9.4-21-21-21H231.7c-5.5 0-10 4.5-10 10v101.9c0 5.5 4.5 10 10 10H383V595h-1.3c-1.2 0-2.5 0-3.7 0.1h-91.9c-11 0-20.8 6.1-25.6 16l-33.3 68.7H62.5c-5.8 0-10.5-4.7-10.5-10.5V502.1h151.3c5.5 0 10-4.5 10-10V390.2c0-5.5-4.5-10-10-10H52V366h526.6c19.9 0 38.4 8.9 50.8 24.5l113.2 140.1c14.3 17.8 35.7 28 58.7 28h123.8l36.2 44.8c6.7 8.2 10.4 18.7 10.4 29.5 0 25.9-21 46.9-46.9 46.9z" fill="#4D3500" /><path d="M455.4 515.3h47.3c10.3 0 18.7-8.4 18.7-18.7v-70.9c0-10.3-8.4-18.7-18.7-18.7h-47.3c-10.3 0-18.7 8.4-18.7 18.7v70.9c0 10.3 8.4 18.7 18.7 18.7z m1.3-88.3h44.7v68.3h-44.7V427z" fill="#4D3500" /></svg>