<svg xmlns="http://www.w3.org/2000/svg" viewBox="0 0 1033 1024" width="200" height="200"><path d="M714.964415 364.640188a109.61409 109.61409 0 0 0 6.360423-0.220431c64.061119-4.091992 110.115068-61.480078 103.037244-125.212555-7.073816-63.808626-59.812822-110.363554-117.954379-106.668337a101.718669 101.718669 0 0 0-31.910325 7.334325c-40.242599-31.54962-92.981605-50.578787-150.886701-50.767155-56.686716-0.136266-108.491898 17.810787-148.5822 47.929613a101.66256 101.66256 0 0 0-25.028884-4.881534C291.866051 128.342669 239.034865 174.78137 231.820775 238.577973c-7.037746 62.437949 36.859992 118.852133 98.957276 125.076289M983.673237 990.093777l-12.520454-99.121597c-2.484853-19.413918-27.898489-69.219194-83.976016-79.615499-84.068196-23.04501-186.508274-14.885072-245.395288-71.752141-23.245401-5.554849-19.726528 7.222106-44.166262 7.763163a3332.248297 3332.248297 0 0 1-133.067898 0.004007c-24.435726-0.545065-20.924869-13.326027-44.182294-7.76717-76.589589 72.533667-150.000971 44.551014-235.263499 69.195147-77.771898 22.47189-91.739178 62.650364-94.075741 82.184517l-12.524462 99.113581" fill="#E2EAED" /><path d="M281.557918 518.961597s-6.969613-4.164133-15.426129-9.278121c-8.480564-5.122004-15.634536-25.321456-15.895045-44.839578-0.216423-14.94519-0.412806-29.89038-0.585143-44.835569-0.192376-19.518121 9.085746-32.575624 20.624282-29.124885 11.558575 3.462763 21.053119 6.208125 21.053119 6.208125" fill="#FFEAD6" /><path d="M281.557918 518.961597s-6.969613-4.164133-15.426129-9.278121c-8.480564-5.122004-15.634536-25.321456-15.895045-44.839578-0.216423-14.94519-0.412806-29.89038-0.585143-44.835569-0.192376-19.518121 9.085746-32.575624 20.624282-29.124885 11.558575 3.462763 21.053119 6.208125 21.053119 6.208125" fill="#FFEAD6" /><path d="M641.777472 739.600532c1.490912 38.940055-38.166544 72.333276-88.15618 72.641879-15.029354 0.100196-30.062716 0.100196-45.096079 0-49.98162-0.308603-89.6511-33.701824-88.15618-72.641879l4.296392-129.284509c1.490912-38.96811 40.022168-69.451648 85.659303-69.175107 13.835022 0.088172 27.670043 0.088172 41.505065 0 45.621104-0.27654 84.164384 30.206998 85.655295 69.175107l4.292384 129.284509z" fill="#FFEAD6" /><path d="M642.318528 755.824219c1.478888 38.928031-38.459115 68.83845-88.609064 69.147053-15.089472 0.100196-30.174935 0.100196-45.264407 0-50.145941-0.312611-90.091961-30.215014-88.613073-69.151061l4.837448-145.492164c1.490912-38.96811 40.022168-69.455656 85.659304-69.179115 13.835022 0.088172 27.670043 0.088172 41.505064 0 45.621104-0.27654 84.164384 30.206998 85.655296 69.179115l4.829432 145.496172z" fill="#FFEAD6" /><path d="M637.485088 610.316023c-0.024047-0.677323-0.140274-1.338614-0.180352-2.019945a3203.617065 3203.617065 0 0 1-151.499898 1.442818 2985.294654 2985.294654 0 0 1-62.089269 29.377378l-3.33852 100.48025c-0.480939 14.356039 4.536861 27.926544 13.606575 39.396948 13.045479-10.997479 42.138301-14.376078 107.109198-14.440204 51.885339-0.236462 76.413245 2.284462 88.084039 13.08155 8.420446-11.173824 13.073534-24.231327 12.608626-38.02627l-4.300399-129.292525z" fill="#D59758" opacity=".15" /><path d="M781.382137 518.901479s6.957589-4.164133 15.422121-9.282129c8.496595-5.126012 15.630528-25.325464 15.891037-44.843585 0.216423-14.94519 0.408798-29.89038 0.57312-44.839577 0.196384-19.518121-9.089753-32.571616-20.62829-29.120877-11.562583 3.466771-21.057127 6.212133-21.057127 6.216141" fill="#FFEAD6" /><path d="M781.382137 518.901479s6.957589-4.164133 15.422121-9.282129c8.496595-5.126012 15.630528-25.325464 15.891037-44.843585 0.216423-14.94519 0.408798-29.89038 0.57312-44.839577 0.196384-19.518121-9.089753-32.571616-20.62829-29.120877-11.562583 3.466771-21.057127 6.212133-21.057127 6.216141" fill="#FFEAD6" /><path d="M785.967092 585.828196c1.815546 22.051068-13.714787 52.001566-34.896157 66.261417a3054.245323 3054.245323 0 0 1-137.035647 87.294497c-22.247452 13.418207-59.796791 17.277746-82.962036 17.217628-23.157229 0.060117-60.706568-3.799421-82.946003-17.217628a3063.01445 3063.01445 0 0 1-137.043664-87.294497c-21.185378-14.267867-36.711703-44.210348-34.896156-66.265425l20.443929-254.873801c1.831577-22.059084 22.880689-38.491178 46.79139-36.944156a2892.88216 2892.88216 0 0 0 375.313033 0c23.910701-1.547022 44.96382 14.88908 46.795397 36.944156l20.435914 254.877809z" fill="#FFEAD6" /><path d="M748.229386 610.227851a3015.345346 3015.345346 0 0 1-135.240141 87.214341c-21.962896 13.402176-59.043319 17.261714-81.92 17.205604-22.86065 0.05611-59.949088-3.803429-81.907977-17.205604a3013.028822 3013.028822 0 0 1-135.244149-87.218349c-38.054325-24.283429-31.854215-96.90126-30.150888-118.91225L276.183421 585.824188c-1.815546 22.055076 13.706771 52.001566 34.896156 66.265425a3056.990685 3056.990685 0 0 0 137.039656 87.294497c22.25146 13.418207 59.792783 17.277746 82.950012 17.217628 23.153221 0.060117 60.714583-3.799421 82.962035-17.217628a3055.547867 3055.547867 0 0 0 137.035648-87.294497c21.18137-14.263859 36.707695-44.206341 34.892148-66.261417l-6.320344-78.829965c1.707335 22.002975 6.608908 78.9502-31.409346 103.22962z" fill="#D59758" opacity=".15" /><path d="M250.084446 454.587867c-0.016031-0.032063 4.228258 34.315022 33.689801 36.719718l-2.220337 27.654012c-0.028055 0.064125-36.330959-13.137659-31.469464-64.37373zM813.18425 454.483663c0.020039-0.032063-4.220243 34.315022-33.6898 36.73575l2.228352 27.650004c0.032063 0.068133 36.342982-13.145675 31.461448-64.385754z" fill="#D59758" opacity=".15" /><path d="M809.008094 985.400611l-16.496219-192.912783a3554.310012 3554.310012 0 0 1-84.256564-15.574419l6.837354 117.417331a3880.635366 3880.635366 0 0 1-353.855123 0.64526l6.312329-117.445386a3528.162943 3528.162943 0 0 1-84.176407 15.88703l-15.630529 192.968892" fill="#8EC2A2" /><path d="M420.373041 739.596524a226.382153 226.382153 0 0 1-6.929534 6.356415c17.005213 0.597166 34.014434 1.066082 51.023655 1.406748-24.343546-0.569112-20.872767-13.318012-44.094121-7.763163z m466.803726 71.756149c-84.068196-23.04501-186.508274-14.885072-245.395288-71.748133 59.167562 56.109589 46.683178 55.071562 129.757433 81.867898 55.656705 12.296016 79.342967 62.942935 81.166528 82.424987 3.053965 33.160767 6.099914 66.32955 9.149871 99.490317a3620.471233 3620.471233 0 0 0 121.821934-13.293965l-12.520454-99.121597c-2.488861-19.413918-27.902497-69.219194-83.980024-79.619507z m-259.029918-72.890364c5.807342 0.060117 10.512532 0.400783 13.630623 1.134215-6.043804-1.430795-10.248016-1.627178-13.630623-1.134215z" fill="#666666" opacity=".1" /><path d="M293.557354 272.700618L285.056751 375.2449c0.064125-2.224344 4.42865 41.897832 244.52559 45.865581 214.462873-2.597072 244.621777-47.368517 244.565667-45.621103l-8.396399-102.552298" fill="#E2EAED" /><path d="M706.407703 132.534857a101.718669 101.718669 0 0 0-31.914333 7.334325c-40.238591-31.545613-92.977597-50.574779-150.878685-50.763147a258.621119 258.621119 0 0 0-48.178098 4.396587c38.515225 8.845276 73.162896 26.171115 101.041346 49.749167a101.802834 101.802834 0 0 1 32.138772-6.184079c58.213699-1.607139 109.201284 46.811429 113.982622 110.83247 7.835303 115.72202-58.474207 62.077245-55.079577 133.055875-34.11463 5.518779-79.098489 9.859256-137.933402 9.859256-237.684227-3.927671-241.968595-47.961675-242.03272-45.761378l-2.504892 30.190967c0.064125-2.224344 4.42865 41.893824 244.525589 45.865581 69.086935-0.016031 119.240892-5.851429 155.263248-12.69279l0.028055-0.004008c50.382403-9.72299 73.227022-21.405808 82.885887-27.754207a63.67236 63.67236 0 0 0 2.54497-1.779476 36.912094 36.912094 0 0 0 1.779476-1.406748l0.048094-0.044086c0.232454-0.192376 0.436853-0.372728 0.621213-0.545064 0.008016-0.004008 0.020039-0.008016 0.024047-0.016032 0.196384-0.172337 0.36872-0.328642 0.513002-0.472923l0.028055-0.024047 0.348681-0.336658 0.048094-0.048094a38.114442 38.114442 0 0 0 0.244477-0.256501c0.072141-0.072141 0.100196-0.116227 0.136266-0.156305l0.032063-0.032063 0.040078-0.040078-2.224344-27.145017c36.018348-22.131225 57.223765-63.992986 52.430403-109.141167-7.081832-63.816642-59.820838-110.371569-117.958387-106.68036z" fill="#666666" opacity=".1" /><path d="M267.566591 335.334951l5.691115-63.215468c6.765213 0.220431 13.534434 0.416814 20.299648 0.585143L287.557636 345.053933a2971.868431 2971.868431 0 0 1-19.991045-9.718982z" fill="#666666" opacity=".1" /><path d="M529.578333 416.325135C289.862137 412.361393 285.509636 368.255249 285.445511 370.475585l-2.272439 27.409534c0.064125-2.244384 4.488767 41.941918 246.393237 45.94173 216.070012-2.617112 246.481409-47.456689 246.433315-45.697252l-2.244383-27.413542c0.052102-1.739397-30.058708 43.016016-244.176908 45.60908z" fill="#3F3F3F" opacity=".05" /></svg>