<svg xmlns="http://www.w3.org/2000/svg" viewBox="0 0 1024 1024" width="200" height="200"><path d="M381.4 238.5l7.8-8.7c-4.2 0.4-8 3.6-7.8 8.7zM411.4 207c-4.6 0-9.3 3.3-8.7 8.6 2.8-2.9 5.7-5.8 8.7-8.6zM432 217.8c-0.6-0.1-1.2-0.3-1.9-0.4-7.2 6.6-14 13.4-20.7 20.4 0.9 2.7 1.7 5.5 2.6 8.2-1-2.6-2-5.2-3-7.7-0.9 1-1.9 2-2.8 3-6.5 7-13 14.2-19.3 21.7 0.6 2.3 1.3 4.7 2 7-0.5-0.2-0.9-0.4-1.4-0.6-0.2-0.7-0.3-1.5-0.5-2.2-0.2-1.1-0.6-2.1-1.2-2.9-4.6 5.4-9 10.9-13.4 16.5 10 43.2 26.1 84.4 47.9 122.9 9-4.8 17.1-11.2 24.7-18.5-1-4.4-2.1-8.8-3.3-13.1 2.3 1.5 5.3 1.6 7.9 0.7 1 1.8 2.3 3 3.7 3.6 1.7-1.9 3.3-3.7 4.9-5.7 0.4-1.1 0.8-2.1 1.2-3.2 1-2.7 2.9-4.4 5.1-5.2l-1.5-7.8c1.1-0.4 2.2-1 3.2-1.7 0.1-0.1 0.1-0.2 0.2-0.3 2.9-4.7 6.1-9.6 9.5-14.3-8.7-37.3-23.7-72.4-39.6-107.1 3.2-4.6 2.5-11.7-4.3-13.3zM626.8 611.4c13.2-19 26.9-38.1 40.1-57.6 0.5-2.9 0.9-5.9 1.2-8.9 0.4 1.8 0.9 3.5 1.3 5.3 6.5-9.6 12.9-19.3 19.1-29.1-11.2-45.6-25.3-90.3-42.1-134.2-0.4-1-0.9-1.9-1.5-2.7-20.5-77.3-38-155.5-68.1-229.6-15.5-0.6-31.3 1.1-46.9 5 4.6 17.3 9.2 34.6 13.8 51.8-6.7-16.6-13-33.5-19.1-50.5-10 2.8-20 6.6-29.8 11.3-0.2 0.1-0.5 0.2-0.7 0.4l42.3 114.3c5.4-2 11-3.4 16.9-4.1 0.2 0 0.3 0 0.5-0.1-1.3-5.3-2.6-10.6-4-16 2.7 5.2 5.4 10.4 8.3 15.6 8.2-0.4 16 0.8 23.2 3.4-0.8-3.1-1.6-6.1-2.4-9.2 1.3 3.2 2.6 6.5 3.9 9.7 18.4 7.2 32.7 23.2 39.2 43.1 4.9 14.9 5.3 29.9 2.7 44.3 0.5 2.1 1.1 4.2 1.6 6.3-0.5-1.1-1.3-2.1-2.3-2.7-2.3 10.9-6.3 21.4-11.4 31.5-0.3 0.8-0.5 1.6-0.8 2.4l0.9 4.8c-0.6-0.6-1.3-1.1-2.1-1.4-2.9 7.8-6.6 15.5-10.7 22.9 0.1 0.4 0.1 0.8 0.2 1.3-0.2-0.2-0.4-0.4-0.5-0.6-2.3 4.2-4.8 8.3-7.4 12.3-3.4 5.3-7 10.6-10.5 15.9 8.9 47.2 21.2 93.6 37 139 1.2 3.9 4.7 5.9 8.1 6.1z m1-225.4h-0.8c0-0.6 0-1.2 0.1-1.8V383c0.2 1 0.5 2 0.7 3zM527.1 137.3c3.7-0.8 7.4-1.5 11.2-2-3.8-2-8.7-1.1-11.2 2z" fill="#901D22" /><path d="M576.4 301.5c-2.7-1-5.3-1.8-8-2.2 2.2 2.3 5.2 2.9 8 2.2zM543.2 134.7c4.8-0.5 9.6-0.9 14.4-1-3.4-5.2-11.3-3.6-14.4 1zM704.6 188.9c-0.7-2.2-1.3-4.5-2-6.7-1.9-6.5-8.7-7.3-13.1-4.6 2 1.3 3.9 2.7 5.8 4.1 3.2 2.4 6.3 4.8 9.3 7.2zM653.4 181.5c2.2 8.2 4.3 16.3 6.5 24.5-2.4 1.9-4 4.9-3.4 8.7 13.5 80 27.3 160.2 52.8 237.4 3.5 10.7 18.2 6.2 16.6-4.6-1-6.4-2-12.8-2.9-19.2 2.1 1.2 4.5 1.5 6.7 1.1 1.5 1.1 3.4 1.8 5.2 2 3-7.8 5.7-15.8 8-23.8 4.7-16 7.5-32.1 8.5-48.1-1.1-5.9-2.4-11.7-3.8-17.5-4.9-30.7-12.3-61-22.1-90.7-0.9-2.7-2.6-4.5-4.6-5.3-0.7-2.8-1.5-5.5-2.2-8.3-7.6-11.3-16.4-22-26.5-31.9-11.9-11.7-24.8-21.5-38.5-29.2-0.7 1.4-0.8 3.1-0.3 4.9z m44.8 51.8c-1.6 1.8-2.4 4.4-1.5 7.7 8 27.9 15.2 56.1 21.2 84.5 0.5 2.3 1 4.5 1.4 6.8-10.7-37.8-19.6-76-28.4-114.3 1.3-1.9 2-4.2 1.6-6.7 2 7.3 3.9 14.7 5.7 22zM541.7 774.3c-2.5 3.5-5 6.9-7.5 10.4 4.3-0.9 8.3-4.8 7.5-10.4zM551.3 760.9c0 0.1 0.1 0.3 0.1 0.4 3.4 10.4 19.4 6.2 16.6-4.6-1.3-4.7-2.5-9.4-3.7-14-4.3 6.1-8.7 12.2-13 18.2zM478.2 766.2c1.5 6.7 3 13.3 4.5 20 1.8 7.8 15.3 8.6 16.6 0 0.2-1.4 0.4-2.8 0.5-4.2 0.8-0.9 1.5-1.9 1.9-3.1 1.6 4.1 5.4 5.7 8.9 5.5 2.4-3.7 4.8-7.5 7.3-11.2-2.1-6.1-4.2-12.3-6.3-18.4 0.6-1.1 0.9-2.4 0.8-3.8-0.2-4.4-0.5-8.8-0.8-13.2 1.6 0.3 3.2 0.3 4.7-0.4 2 9.6 4 19.2 6.1 28.8 3.1-4.7 6.1-9.3 9.2-13.9 1.5-2.3 3.1-4.5 4.6-6.8-1.2-5.6-2.4-11.1-3.7-16.7 2.8 0 5.6-1.2 7-3.5l3.3 10.2c4.7-7 9.4-14 14.1-20.9-12.7-51.1-23.9-102.5-33.5-154.2-0.7-3.8-3.2-5.7-6.1-6.1-3.3 4.5-6.7 9-10 13.5 1.1 6.1 2.3 12.2 3.5 18.3-0.4-0.4-0.9-0.8-1.3-1.1-1.7-4.3-3.5-8.6-5.4-12.9l-3.3 4.5c-4.8 6.6-9.7 13.3-14.5 19.9 1.1 5.1 2.3 10.1 3.4 15.2-1-4.1-2.1-8.2-3.1-12.3-0.2-0.8-0.5-1.5-0.8-2.2-11.1 15.2-22.2 30.4-33.3 45.7 4 22.6 8.3 45.1 13 67.6 3.8 17 5.7 38.2 12.7 55.7zM333.8 772.5c0.1 1.6 0.1 3.2 0.2 4.9 2.7-4.4 5.5-8.8 8.4-13.1-4.4-0.3-8.8 2.4-8.6 8.2zM423.5 888.3c-9.2-56.7-16.3-113.7-21.2-170.9-0.1-1.6-0.6-2.9-1.3-4-21.4 28.2-43.6 56.5-60 87.6-1.4 2.6-2.7 5.3-4 8 1.7 12.4 4 24.7 7 36.8-1 1.3-1.7 3-1.8 5-0.8 17.7 2.3 34.4 9 50.1 12 5.2 25.4 7.6 38.3 6.8 0-0.1 0.1-0.1 0.1-0.2 0.1-0.2 0.1-0.4 0.2-0.6 0.3 0.2 0.6 0.5 1 0.6 1.9-0.1 3.7-0.4 5.6-0.6 2.1-0.6 4.2-1.4 6.2-2.2 0.3-0.6 0.5-1.2 0.7-1.9 0.3-1.1 0.5-2.1 0.7-3.2 1.8-0.3 3.5-1.2 4.7-2.7 1.3 1.5 3.1 2.2 5.1 2.2 3.2-1.8 6.3-3.9 9.3-6 0.4-1.5 0.7-3.1 0.4-4.8z m-62.7-101.4c2.6 10.7 4.3 21.6 6.5 32.1 1.1 5.3 2.2 10.5 3.2 15.8 0.2 2.2 0.3 4.4 0.5 6.5h-0.3c-2.8-13.9-6.3-27.7-10.3-41.3 0.1-4.3 0.2-8.7 0.4-13.1zM357.1 742.6c-4.1-0.6-8.6 1.2-9.4 6-0.6 3.4-1.1 6.7-1.5 10.1 13.4-19.4 27.5-37.2 38.3-51.5-1.4-2.1-3.4-3.2-5.5-3.5-7.4 9-14.7 18.1-21.8 27.3-0.1 3.8-0.2 7.7-0.1 11.6z" fill="#901D22" /><path d="M704.6 188.9c-3-2.4-6.1-4.8-9.3-7.1-1.9-1.4-3.8-2.8-5.8-4.1-9.6-6.6-19.8-12.7-30.4-18.1-2.8-1.5-5.6-3-8.5-4.5-11.1-5.4-22.4-9.6-33.7-12.5-11.4-3.4-23-6-34.6-7.5-8.3-1.1-16.5-1.6-24.6-1.4-4.9 0.1-9.7 0.4-14.4 1-1.6 0.2-3.3 0.4-4.9 0.6-3.8 0.5-7.5 1.2-11.2 2-22.1 4.8-43.1 14.1-62.7 27-18.9 12.4-36.5 26.9-53 42.7-2.9 2.8-5.8 5.7-8.7 8.6-4.6 4.7-9.1 9.4-13.5 14.2l-7.8 8.7c-7.9 9.1-15.6 18.5-22.9 27.9-12.3 16-25.1 34.5-33.4 54.4-13.2 23.4-21.9 49-16.5 75 7.9 37.8 46.4 58.3 83 53.9 32.3-3.9 56.9-26 72.8-53 1.5-0.6 3-1.8 4-3.7 5.4-10 11-20.2 17.2-29.9 2.8-3.9 5.6-7.8 8.3-11.7 4.8-6.2 10.1-11.9 16.2-17 19.7-16.3 50.2-24.8 71.6-6.6 23.2 19.8 23 48.5 14.4 75.1-4.3 8.6-9.3 16.6-14.4 23.7-29.6 41.4-63.9 79.9-95.9 119.4-32.7 40.3-65.4 80.7-98.1 121-43.3 53.4-133.2 140.9-83.8 216.1 6.5 10 15.1 18.3 25 24.8 0.4 0.3 0.7 0.6 1.1 1 19.5 17.3 45.1 20.9 68.8 14.7 24.6-4 44.7-18.4 61-39.3 2.3-2.9 4.5-5.8 6.8-8.7 7.7-9 14.8-18.6 21.6-28.3 15.6-20.7 31-41.7 46.2-62.8 2.5-3.5 5-6.9 7.5-10.4 3.2-4.4 6.4-8.9 9.6-13.3 4.3-6.1 8.7-12.1 13-18.2 26.3-36.9 52.5-73.9 79-110.4 53.9-74.2 114.9-153.7 133.2-245.7 15.1-77.4-11.9-148.9-72.2-197.6zM491.3 812.2c-12.7 17.5-25.3 35.1-38.2 52.5-8.6 9.9-18.8 20.1-30.1 28.3-3 2.2-6.1 4.2-9.3 6-3.6 2.1-7.4 4-11.2 5.6-2.1 0.8-4.1 1.6-6.2 2.2-1.9 0.3-3.7 0.5-5.6 0.6-0.4 0-0.8 0.1-1.2 0.1-12.9 0.8-26.3-1.6-38.3-6.8-4.2-1.8-8.2-3.9-12-6.3-22-21.3-15.1-57.6-2.3-85.6 1.3-2.8 2.6-5.4 4-8 16.4-31 38.6-59.4 60-87.6 5.2-6.9 10.4-13.7 15.4-20.6 12.1-16.6 24.3-33.3 36.4-49.9 11.1-15.2 22.2-30.4 33.3-45.7 0.2-0.2 0.3-0.5 0.5-0.7 4.8-6.6 9.7-13.3 14.5-19.9l3.3-4.5c1.1-1.5 2.1-2.9 3.2-4.4 3.3-4.5 6.6-9 10-13.5 21.6-29 43.7-57.8 64-87.7 3.6-5.3 7.1-10.6 10.5-15.9 2.6-4 5.1-8.1 7.4-12.3 0.1-0.2 0.3-0.5 0.4-0.7 4.1-7.4 7.7-15 10.7-22.9l1.2-3.3c0.3-0.8 0.5-1.6 0.8-2.4 5.1-10.1 9.1-20.7 11.4-31.5 0.3-1.2 0.5-2.3 0.7-3.5 2.6-14.5 2.2-29.4-2.7-44.3-6.5-19.9-20.8-36-39.2-43.1l-1.5-0.6c-7.2-2.6-15-3.8-23.2-3.4-1.4 0.1-2.9 0.2-4.3 0.4-0.2 0-0.3 0-0.5 0.1-5.8 0.7-11.4 2.1-16.9 4.1-24.8 8.9-45.1 29.5-60.6 51.1-3.4 4.8-6.6 9.6-9.5 14.3-0.1 0.1-0.1 0.2-0.2 0.3-1.6 2.9-1.4 5.7-0.1 7.9l-1.2 1.5c-0.2 0-0.3 0.1-0.5 0.2-2.2 0.8-4.1 2.5-5.1 5.2-0.4 1.1-0.8 2.1-1.2 3.2-1.6 1.9-3.2 3.8-4.9 5.7-2.7 3-5.5 6-8.4 8.8-7.5 7.3-15.7 13.7-24.7 18.5-9.4 5.1-19.7 8.4-31.2 9.2-18.9 1.3-38.5-5-48.9-21.7-10.9-17.5-7.7-39.4-1.2-57.8 0.5-1.5 1.1-3 1.6-4.4 9-16.7 20-32.7 31.8-48 4.4-5.6 8.8-11.1 13.4-16.5 0.4-0.4 0.7-0.9 1.1-1.3 6.3-7.4 12.8-14.7 19.3-21.7 0.9-1 1.9-2 2.8-3l0.4-0.4c6.6-7 13.5-13.9 20.7-20.4 19.3-17.7 40.5-33.3 64.1-44.7 0.2-0.1 0.5-0.2 0.7-0.4 9.8-4.7 19.7-8.5 29.8-11.3 1.7-0.5 3.5-1 5.2-1.4 15.6-3.9 31.4-5.5 46.9-5 26.8 1 52.9 8.4 76.8 21.9 13.7 7.8 26.6 17.5 38.5 29.2 10.1 9.9 18.9 20.6 26.5 31.9 24.3 36.2 35.3 78.4 32.7 121.7-1 16-3.8 32.1-8.5 48.1-2.4 8-5.1 16-8 23.8-11.8 31.2-28.1 61-46.3 89.8-6.2 9.8-12.6 19.5-19.1 29.1-0.8 1.2-1.6 2.4-2.5 3.6-13.3 19.5-26.9 38.6-40.1 57.6-5.1 7.4-10.2 14.7-15.1 22-18.2 27-36.4 54.1-54.7 81.1-4.7 7-9.4 14-14.1 20.9-2.2 3.3-4.5 6.6-6.7 10-1.5 2.3-3.1 4.5-4.6 6.8-3.1 4.6-6.2 9.2-9.2 13.9-1.5 2.3-3 4.6-4.5 7-2.4 3.7-4.8 7.5-7.3 11.2-2.7 4.2-5.4 8.4-8.1 12.5-3.3 5-7.1 10.1-10.8 15.2zM370.9 432.4c-15.9-2.5-31-11-39.5-24.8 16.5 18.5 43.8 25.6 69.6 20.8 3.5-0.7 6.9-1.5 10.3-2.5-12 6.2-25.6 8.9-40.4 6.5z m178.4-131.9c6.3-1.7 12.7-2.3 19.1-1.2 2.7 0.4 5.4 1.2 8 2.2 5.3 2.1 10.5 5.4 15.6 10.3 4.7 4.5 8.2 9.3 10.9 14.4-12.6-16.8-31.9-26.7-53.6-25.7zM334.5 763c7.1-11 14.8-21.7 22.9-32.1 7.1-9.2 14.4-18.3 21.8-27.3 13.3-16.1 26.9-32 39.9-48.1 10.9-13.5 21.8-26.9 32.7-40.4-20.8 28.5-41.5 57-62.3 85.4-1.5 2.1-3.1 4.3-4.9 6.5-10.8 14.3-25 32.1-38.3 51.5-1.3 1.8-2.5 3.7-3.8 5.5-2.9 4.3-5.7 8.7-8.4 13.1-12.2 19.9-22.3 40.9-26.3 61.1-0.4-26.1 12.6-53.6 26.7-75.2z" fill="#384D9E" /></svg>