<svg xmlns="http://www.w3.org/2000/svg" viewBox="0 0 1024 1024" width="200" height="200"><path d="M913.1 782.5H118.4c-22.6 0-41.2-18.5-41.2-41.2V290.1c0-6.6 5.4-12 12-12h853c6.6 0 12 5.4 12 12v451.2c0 22.7-18.5 41.2-41.1 41.2z" fill="#FFC050" /><path d="M541.6 278.1c-27.4 46.8-53.3 94.3-78.3 142.4-29.4 56.6-57.4 113.9-84.6 171.6-27.3 57.8-53.8 116-80.1 174.2-2.4 5.4-4.9 10.8-7.3 16.2h92.9l15.3-31.8c29.5-61 59.9-121.6 91.4-181.6 15.6-29.8 31.7-59.2 47.6-88.9 15.9-29.7 31.7-59.4 48.2-88.8 21.3-37.7 42.9-75.3 63.5-113.4H541.6z" fill="#FFCD7D" opacity=".26" /><path d="M77.2 324.2h877v311.2h-877zM77.2 636.3v105.8c0 22.2 18.2 40.4 40.4 40.4h796.2c22.2 0 40.4-18.2 40.4-40.4V636.3h-877z" fill="#F79534" /><path d="M77.2 638.9v103.2c0 22.2 18.2 40.4 40.4 40.4h796.2c22.2 0 40.4-18.2 40.4-40.4V638.9h-877z" fill="#FFC050" /><path d="M325.4 278.1c-26.6 44.8-244.1 475.7-248.2 485 7.1 11.6 19.9 19.4 34.5 19.4h172.6c5.7-12.7 227-464.5 250.3-504.4H325.4zM645.2 278.1c-24.6 45.6-264.6 501.5-266 504.4h285.3c15.6-28.4 244.1-462.8 266.3-504.4H645.2z" fill="#FFCD7D" opacity=".26" /><path d="M319.7 485.1m-91.4 0a91.4 91.4 0 1 0 182.8 0 91.4 91.4 0 1 0-182.8 0Z" fill="#FFC050" /><path d="M319.7 485.1m-43.1 0a43.1 43.1 0 1 0 86.2 0 43.1 43.1 0 1 0-86.2 0Z" fill="#FFC050" /><path d="M310 405.3V374c0-7.3 6-13.3 13.3-13.3 7.3 0 13.3 6 13.3 13.3v31.3c0 7.3-6 13.3-13.3 13.3-7.3 0-13.3-6-13.3-13.3zM310 599.2v-31.3c0-7.3 6-13.3 13.3-13.3 7.3 0 13.3 6 13.3 13.3v31.3c0 7.3-6 13.3-13.3 13.3-7.3 0-13.3-6-13.3-13.3zM207 476.3h31.3c7.3 0 13.3 6 13.3 13.3 0 7.3-6 13.3-13.3 13.3H207c-7.3 0-13.3-6-13.3-13.3 0-7.3 6-13.3 13.3-13.3zM397.7 476.3H429c7.3 0 13.3 6 13.3 13.3 0 7.3-6 13.3-13.3 13.3h-31.3c-7.3 0-13.3-6-13.3-13.3-0.1-7.3 5.9-13.3 13.3-13.3z" fill="#FFC050" /><path d="M688.6 485.1m-91.4 0a91.4 91.4 0 1 0 182.8 0 91.4 91.4 0 1 0-182.8 0Z" fill="#FFC050" /><path d="M688.6 485.1m-43.1 0a43.1 43.1 0 1 0 86.2 0 43.1 43.1 0 1 0-86.2 0Z" fill="#FFC050" /><path d="M678.9 405.3V374c0-7.3 6-13.3 13.3-13.3 7.3 0 13.3 6 13.3 13.3v31.3c0 7.3-6 13.3-13.3 13.3-7.3 0-13.3-6-13.3-13.3zM678.9 599.2v-31.3c0-7.3 6-13.3 13.3-13.3 7.3 0 13.3 6 13.3 13.3v31.3c0 7.3-6 13.3-13.3 13.3-7.3 0-13.3-6-13.3-13.3zM576 476.3h31.3c7.3 0 13.3 6 13.3 13.3 0 7.3-6 13.3-13.3 13.3H576c-7.3 0-13.3-6-13.3-13.3 0-7.3 6-13.3 13.3-13.3zM766.6 476.3h31.3c7.3 0 13.3 6 13.3 13.3 0 7.3-6 13.3-13.3 13.3h-31.3c-7.3 0-13.3-6-13.3-13.3 0-7.3 6-13.3 13.3-13.3z" fill="#FFC050" /><path d="M319.7 594c-60.1 0-108.9-48.9-108.9-108.9 0-60.1 48.9-108.9 108.9-108.9S428.6 425 428.6 485.1c0 60.1-48.9 108.9-108.9 108.9z m0-182.9c-40.8 0-73.9 33.2-73.9 73.9 0 40.8 33.2 73.9 73.9 73.9s73.9-33.2 73.9-73.9-33.2-73.9-73.9-73.9z" fill="#5E2E17" /><path d="M319.7 545.7c-33.4 0-60.6-27.2-60.6-60.6 0-33.4 27.2-60.6 60.6-60.6s60.6 27.2 60.6 60.6c0 33.4-27.2 60.6-60.6 60.6z m0-86.2c-14.1 0-25.6 11.5-25.6 25.6s11.5 25.6 25.6 25.6c14.1 0 25.6-11.5 25.6-25.6s-11.5-25.6-25.6-25.6zM310 405.3V374c0-7.3 6-13.3 13.3-13.3 7.3 0 13.3 6 13.3 13.3v31.3c0 7.3-6 13.3-13.3 13.3-7.3 0-13.3-6-13.3-13.3zM310 599.2v-31.3c0-7.3 6-13.3 13.3-13.3 7.3 0 13.3 6 13.3 13.3v31.3c0 7.3-6 13.3-13.3 13.3-7.3 0-13.3-6-13.3-13.3zM207 476.3h31.3c7.3 0 13.3 6 13.3 13.3 0 7.3-6 13.3-13.3 13.3H207c-7.3 0-13.3-6-13.3-13.3 0-7.3 6-13.3 13.3-13.3zM397.7 476.3H429c7.3 0 13.3 6 13.3 13.3 0 7.3-6 13.3-13.3 13.3h-31.3c-7.3 0-13.3-6-13.3-13.3-0.1-7.3 5.9-13.3 13.3-13.3zM688.6 594c-60.1 0-108.9-48.9-108.9-108.9 0-60.1 48.9-108.9 108.9-108.9s109 48.8 109 108.9c0 60.1-48.9 108.9-109 108.9z m0-182.9c-40.8 0-73.9 33.2-73.9 73.9 0 40.8 33.2 73.9 73.9 73.9s73.9-33.2 73.9-73.9c0.1-40.7-33.1-73.9-73.9-73.9z" fill="#5E2E17" /><path d="M688.6 545.7c-33.4 0-60.6-27.2-60.6-60.6 0-33.4 27.2-60.6 60.6-60.6s60.6 27.2 60.6 60.6c0 33.4-27.2 60.6-60.6 60.6z m0-86.2c-14.1 0-25.6 11.5-25.6 25.6s11.5 25.6 25.6 25.6c14.1 0 25.6-11.5 25.6-25.6s-11.5-25.6-25.6-25.6zM678.9 405.3V374c0-7.3 6-13.3 13.3-13.3 7.3 0 13.3 6 13.3 13.3v31.3c0 7.3-6 13.3-13.3 13.3-7.3 0-13.3-6-13.3-13.3zM678.9 599.2v-31.3c0-7.3 6-13.3 13.3-13.3 7.3 0 13.3 6 13.3 13.3v31.3c0 7.3-6 13.3-13.3 13.3-7.3 0-13.3-6-13.3-13.3zM576 476.3h31.3c7.3 0 13.3 6 13.3 13.3 0 7.3-6 13.3-13.3 13.3H576c-7.3 0-13.3-6-13.3-13.3 0-7.3 6-13.3 13.3-13.3zM766.6 476.3h31.3c7.3 0 13.3 6 13.3 13.3 0 7.3-6 13.3-13.3 13.3h-31.3c-7.3 0-13.3-6-13.3-13.3 0-7.3 6-13.3 13.3-13.3z" fill="#5E2E17" /><path d="M913.8 800H117.6c-31.9 0-57.9-26-57.9-57.9V289.9c0-16.1 13.1-29.3 29.3-29.3h853.5c16.1 0 29.3 13.1 29.3 29.3v128.7c0 9.7-7.8 17.5-17.5 17.5s-17.5-7.8-17.5-17.5v-123h-842v446.5c0 12.6 10.3 22.9 22.9 22.9h796.2c12.6 0 22.9-10.3 22.9-22.9V554.6c0-9.7 7.8-17.5 17.5-17.5s17.5 7.8 17.5 17.5v187.5c-0.1 31.9-26.1 57.9-58 57.9z" fill="#5E2E17" /><path d="M954.2 523.9c-9.7 0-17.5-7.8-17.5-17.5v-30.1c0-9.7 7.8-17.5 17.5-17.5s17.5 7.8 17.5 17.5v30.1c0 9.6-7.8 17.5-17.5 17.5z" fill="#5E2E17" /><path d="M954.2 347.9h-877c-9.7 0-17.5-7.8-17.5-17.5v-28.5c0-23.9 12.3-41.3 29.3-41.3h853.5c17 0 29.3 17.4 29.3 41.3v28.5c-0.1 9.6-7.9 17.5-17.6 17.5z m-859.5-35h842v-11c0-2.6-0.3-4.7-0.7-6.3H95.4c-0.4 1.6-0.7 3.7-0.7 6.3v11z" fill="#5E2E17" /><path d="M913.8 800H117.6c-31.9 0-57.9-26-57.9-57.9V638.9c0-9.7 7.8-17.5 17.5-17.5h877c9.7 0 17.5 7.8 17.5 17.5v103.2c0 31.9-26 57.9-57.9 57.9zM94.7 656.4v85.7c0 12.6 10.3 22.9 22.9 22.9h796.2c12.6 0 22.9-10.3 22.9-22.9v-85.7h-842z" fill="#5E2E17" /><path d="M404 707.4m-28 0a28 28 0 1 0 56 0 28 28 0 1 0-56 0Z" fill="#5E2E17" /><path d="M578.2 707.4m-28 0a28 28 0 1 0 56 0 28 28 0 1 0-56 0Z" fill="#5E2E17" /><path d="M404 707.4m-21 0a21 21 0 1 0 42 0 21 21 0 1 0-42 0Z" fill="#F79534" /><path d="M418.2 692c-3.2 4.1-6.4 8.1-9.6 12.2-5.4 6.9-10.7 13.8-15.9 20.8 3.2 2.1 7.1 3.3 11.2 3.3 11.6 0 21-9.4 21-21 0.1-6-2.5-11.5-6.7-15.3z" fill="#FFCD7D" opacity=".26" /><path d="M578.2 707.4m-21 0a21 21 0 1 0 42 0 21 21 0 1 0-42 0Z" fill="#F79534" /><path d="M590.1 690.2c-3 4.3-6.1 8.6-9.2 12.9-5.1 7-10.4 13.9-15.7 20.8 3.6 2.8 8 4.5 12.9 4.5 11.6 0 21-9.4 21-21 0-7.2-3.5-13.4-9-17.2z" fill="#FFCD7D" opacity=".26" /><path d="M885.3 404.4c-4 34.2-14.5 67.6-30.4 98-6.5 12.5 12.4 23.7 19 11.1 17.8-34.1 29-70.9 33.4-109.1 0.7-5.9-5.6-11-11-11-6.5 0-10.3 5.1-11 11z" fill="#FFFFFF" /><path d="M856 561.6v-3.8c0-2.8-1.2-5.8-3.2-7.8-1-1.1-2.2-1.8-3.5-2.3-1.3-0.7-2.7-1-4.2-0.9-2.8 0.1-5.8 1.1-7.8 3.2-2 2.2-3.2 4.8-3.2 7.8v3.8c0 2.8 1.2 5.8 3.2 7.8 1 1.1 2.2 1.8 3.5 2.3 1.3 0.7 2.7 1 4.2 0.9 2.8-0.1 5.8-1.1 7.8-3.2 1.9-2.1 3.2-4.8 3.2-7.8z" fill="#FFFFFF" /></svg>