<svg xmlns="http://www.w3.org/2000/svg" viewBox="0 0 1024 1024" width="200" height="200"><path d="M145.38 286.32c45.72-42.58 104.57-62.23 163.03-60.2 58.46 2.04 116.54 25.76 160.72 69.94l21.91 21.91 21.91 21.91 23.86-23.86 23.86-23.86c45-45 103.97-67.49 162.94-67.49s117.95 22.5 162.94 67.49c45 45 67.49 103.97 67.49 162.94s-22.5 117.95-67.49 162.94l-23.86 23.86-23.86 23.86-138.5 138.5-138.5 138.5c-13.44 13.44-31.16 20.16-48.88 20.16s-35.44-6.72-48.88-20.16l-138.5-138.5-138.5-138.5-23.86-23.86-23.86-23.86c-45.98-45.98-68.47-106.56-67.46-166.82 0.99-60.26 25.49-120.2 73.49-164.9z" fill="#FF5C97" /><path d="M512.94 339.88l23.86-23.86 23.86-23.86c45-45 103.97-67.49 162.94-67.49s117.95 22.5 162.94 67.49c45 45 67.49 103.97 67.49 162.94s-22.5 117.95-67.49 162.94l-23.86 23.86-23.86 23.86-138.5 138.5-138.5 138.5c-13.44 13.44-31.16 20.16-48.88 20.16V339.88z" fill="#FF2E71" /><path d="M130.22 196.75C177.78 152.45 239 132 299.83 134.12s121.24 26.8 167.2 72.76l22.79 22.79 22.79 22.79 24.83-24.83 24.83-24.83c46.81-46.81 108.17-70.22 169.52-70.22s122.71 23.41 169.52 70.22c46.81 46.81 70.22 108.17 70.22 169.52s-23.41 122.71-70.22 169.52l-24.83 24.83-24.83 24.83-144.08 144.11-144.1 144.09c-13.99 13.99-32.42 20.98-50.86 20.98-18.44 0-36.87-6.99-50.86-20.98L317.67 735.61l-144.09-144.1-24.83-24.83-24.83-24.83C76.09 494.02 52.69 431 53.74 368.31s26.54-125.06 76.48-171.56z" fill="#5B52AF" /><path d="M512.62 252.47l24.83-24.83 24.83-24.83c46.81-46.81 108.17-70.22 169.52-70.22S854.51 156 901.32 202.81c46.81 46.81 70.22 108.17 70.22 169.52s-23.41 122.71-70.22 169.52l-24.83 24.83-24.83 24.83-144.09 144.1-144.1 144.09c-13.99 13.99-32.42 20.98-50.86 20.98V252.47z" fill="#493C8E" /><path d="M965.9 427.28a239.762 239.762 0 0 1-11.8 38.15 238.25 238.25 0 0 1-18.3 36.16H89.43c-7.18-11.61-13.28-23.7-18.3-36.13s-8.95-25.2-11.8-38.18H965.9z" fill="#FFD39F" /><path d="M512.62 427.28H965.9a239.762 239.762 0 0 1-11.8 38.15 238.25 238.25 0 0 1-18.3 36.16H512.62v-74.31z" fill="#F2A65A" /><path d="M241.07 427.28h74.31v74.31h-74.31z" fill="#13AEAD" /><path d="M92.46 427.28h74.31v74.31H92.46z" fill="#FFD39F" /><path d="M166.77 427.28h74.31v74.31h-74.31z" fill="#FA4817" /><path d="M220.99 341.52c-5.52 0-10-4.48-10-10v-74.43c0-5.52 4.48-10 10-10s10 4.48 10 10v74.43c0 5.53-4.48 10-10 10zM220.99 229.38c-5.52 0-10-4.48-10-10v-11.91c0-5.52 4.48-10 10-10s10 4.48 10 10v11.91c0 5.52-4.48 10-10 10z" fill="#FFFFFF" /><path d="M718.57 138.53c4.02 0 7.47-2.42 8.98-5.88-5.83 0.1-11.66 0.42-17.48 0.94a9.762 9.762 0 0 0 8.5 4.94zM886.34 204.05c0 5.41 4.39 9.8 9.8 9.8 4.35 0 8.04-2.84 9.32-6.77-1.36-1.43-2.74-2.85-4.15-4.25-2.75-2.75-5.56-5.42-8.42-8.01a9.77 9.77 0 0 0-6.55 9.23z" fill="#23307A" /><path d="M807.35 204.05m-9.8 0a9.8 9.8 0 1 0 19.6 0 9.8 9.8 0 1 0-19.6 0Z" fill="#23307A" /><path d="M718.57 204.05m-9.8 0a9.8 9.8 0 1 0 19.6 0 9.8 9.8 0 1 0-19.6 0Z" fill="#23307A" /><path d="M629.78 204.05m-9.8 0a9.8 9.8 0 1 0 19.6 0 9.8 9.8 0 1 0-19.6 0Z" fill="#23307A" /><path d="M896.14 279.36m-9.8 0a9.8 9.8 0 1 0 19.6 0 9.8 9.8 0 1 0-19.6 0Z" fill="#23307A" /><path d="M807.35 279.36m-9.8 0a9.8 9.8 0 1 0 19.6 0 9.8 9.8 0 1 0-19.6 0Z" fill="#23307A" /><path d="M718.57 279.36m-9.8 0a9.8 9.8 0 1 0 19.6 0 9.8 9.8 0 1 0-19.6 0Z" fill="#23307A" /><path d="M629.78 279.36m-9.8 0a9.8 9.8 0 1 0 19.6 0 9.8 9.8 0 1 0-19.6 0Z" fill="#23307A" /><path d="M540.99 269.56c-5.41 0-9.8 4.39-9.8 9.8s4.39 9.8 9.8 9.8 9.8-4.39 9.8-9.8-4.38-9.8-9.8-9.8zM896.14 344.87c-5.41 0-9.8 4.39-9.8 9.8 0 5.41 4.39 9.8 9.8 9.8 5.41 0 9.8-4.39 9.8-9.8 0-5.41-4.39-9.8-9.8-9.8zM807.35 344.87c-5.41 0-9.8 4.39-9.8 9.8 0 5.41 4.39 9.8 9.8 9.8s9.8-4.39 9.8-9.8c0-5.41-4.39-9.8-9.8-9.8zM718.57 344.87c-5.41 0-9.8 4.39-9.8 9.8 0 5.41 4.39 9.8 9.8 9.8s9.8-4.39 9.8-9.8c0-5.41-4.39-9.8-9.8-9.8zM629.78 344.87c-5.41 0-9.8 4.39-9.8 9.8 0 5.41 4.39 9.8 9.8 9.8s9.8-4.39 9.8-9.8c0-5.41-4.39-9.8-9.8-9.8zM540.99 344.87c-5.41 0-9.8 4.39-9.8 9.8 0 5.41 4.39 9.8 9.8 9.8s9.8-4.39 9.8-9.8c0-5.41-4.38-9.8-9.8-9.8z" fill="#23307A" /><path d="M896.14 429.98m-9.8 0a9.8 9.8 0 1 0 19.6 0 9.8 9.8 0 1 0-19.6 0Z" fill="#23307A" /><path d="M807.35 429.98m-9.8 0a9.8 9.8 0 1 0 19.6 0 9.8 9.8 0 1 0-19.6 0Z" fill="#23307A" /><path d="M718.57 429.98m-9.8 0a9.8 9.8 0 1 0 19.6 0 9.8 9.8 0 1 0-19.6 0Z" fill="#23307A" /><path d="M629.78 429.98m-9.8 0a9.8 9.8 0 1 0 19.6 0 9.8 9.8 0 1 0-19.6 0Z" fill="#23307A" /><path d="M540.99 420.18c-5.41 0-9.8 4.39-9.8 9.8s4.39 9.8 9.8 9.8 9.8-4.39 9.8-9.8-4.38-9.8-9.8-9.8z" fill="#23307A" /><path d="M896.14 505.29m-9.8 0a9.8 9.8 0 1 0 19.6 0 9.8 9.8 0 1 0-19.6 0Z" fill="#23307A" /><path d="M807.35 505.29m-9.8 0a9.8 9.8 0 1 0 19.6 0 9.8 9.8 0 1 0-19.6 0Z" fill="#23307A" /><path d="M718.57 505.29m-9.8 0a9.8 9.8 0 1 0 19.6 0 9.8 9.8 0 1 0-19.6 0Z" fill="#23307A" /><path d="M629.78 505.29m-9.8 0a9.8 9.8 0 1 0 19.6 0 9.8 9.8 0 1 0-19.6 0Z" fill="#23307A" /><path d="M540.99 495.49c-5.41 0-9.8 4.39-9.8 9.8s4.39 9.8 9.8 9.8 9.8-4.39 9.8-9.8-4.38-9.8-9.8-9.8zM807.35 570.8c-5.41 0-9.8 4.39-9.8 9.8s4.39 9.8 9.8 9.8 9.8-4.39 9.8-9.8-4.39-9.8-9.8-9.8zM718.57 570.8c-5.41 0-9.8 4.39-9.8 9.8s4.39 9.8 9.8 9.8 9.8-4.39 9.8-9.8-4.39-9.8-9.8-9.8zM629.78 570.8c-5.41 0-9.8 4.39-9.8 9.8s4.39 9.8 9.8 9.8 9.8-4.39 9.8-9.8-4.39-9.8-9.8-9.8zM540.99 570.8c-5.41 0-9.8 4.39-9.8 9.8s4.39 9.8 9.8 9.8 9.8-4.39 9.8-9.8-4.38-9.8-9.8-9.8zM718.57 646.12c-5.41 0-9.8 4.39-9.8 9.8 0 5.41 4.39 9.8 9.8 9.8s9.8-4.39 9.8-9.8c0-5.42-4.39-9.8-9.8-9.8zM629.78 646.12c-5.41 0-9.8 4.39-9.8 9.8 0 5.41 4.39 9.8 9.8 9.8s9.8-4.39 9.8-9.8c0-5.42-4.39-9.8-9.8-9.8zM540.99 646.12c-5.41 0-9.8 4.39-9.8 9.8 0 5.41 4.39 9.8 9.8 9.8s9.8-4.39 9.8-9.8c0-5.42-4.38-9.8-9.8-9.8zM708.77 731.23c0 0.96 0.15 1.89 0.4 2.77l12.17-12.17c-0.88-0.26-1.81-0.4-2.77-0.4a9.79 9.79 0 0 0-9.8 9.8zM629.78 721.43c-5.41 0-9.8 4.39-9.8 9.8s4.39 9.8 9.8 9.8 9.8-4.39 9.8-9.8-4.39-9.8-9.8-9.8zM540.99 721.43c-5.41 0-9.8 4.39-9.8 9.8s4.39 9.8 9.8 9.8 9.8-4.39 9.8-9.8-4.38-9.8-9.8-9.8zM629.78 796.74c-5.41 0-9.8 4.39-9.8 9.8 0 4.51 3.06 8.31 7.21 9.44l12.03-12.03c-1.13-4.15-4.93-7.21-9.44-7.21zM540.99 796.74c-5.41 0-9.8 4.39-9.8 9.8s4.39 9.8 9.8 9.8 9.8-4.39 9.8-9.8-4.38-9.8-9.8-9.8zM540.99 872.05c-5.41 0-9.8 4.39-9.8 9.8s4.39 9.8 9.8 9.8 9.8-4.39 9.8-9.8-4.38-9.8-9.8-9.8z" fill="#23307A" /><path d="M549.77 215.32v675.1c-11.36 6.84-24.26 10.26-37.16 10.26s-25.79-3.42-37.15-10.26v-675.1l18.58 18.58 18.58 18.58 18.58-18.58 18.57-18.58z" fill="#5AE2E2" /><path d="M512.62 252.48l18.58-18.58 18.58-18.58v675.1c-11.36 6.84-24.26 10.26-37.16 10.26v-648.2z" fill="#00A599" /><path d="M786.82 426.93h75v75h-75z" fill="#E53E65" /><path d="M861.82 426.93h75v75h-75z" fill="#F2A65A" /><path d="M711.82 426.93h75v75h-75z" fill="#5B52AF" /><path d="M551.13 506.93v-62.22c0-4.07 2.37-7.76 6.07-9.45l131.65-41.69c24.7-11.29 52.8 6.76 52.8 33.92v95.19c0 27.16-28.1 45.21-52.8 33.92l-133-42.31a8.103 8.103 0 0 1-4.72-7.36z" fill="#00A599" /><path d="M474.1 506.93v-62.22c0-4.07-2.37-7.76-6.07-9.45l-131.65-41.69c-24.7-11.29-52.8 6.76-52.8 33.92v95.19c0 27.16 28.1 45.21 52.8 33.92l133-42.31a8.103 8.103 0 0 0 4.72-7.36z" fill="#5AE2E2" /><path d="M575.11 354.02a47.21 47.21 0 0 0-40.74 13.24l-21.75 21.75-13.65-13.65c-25.74-25.74-67.47-25.74-93.2 0-25.74 25.74-25.74 67.47 0 93.21l13.65 13.65 93.21 93.21 93.21-93.21 13.65-13.65c36.22-36.24 21.43-104.19-44.38-114.55z" fill="#FF2E71" /><path d="M512.62 389.01l-13.65-13.65c-25.74-25.74-67.47-25.74-93.2 0-25.74 25.74-25.74 67.47 0 93.21l13.65 13.65 93.21 93.21V389.01z" fill="#FFD39F" /></svg>