<svg xmlns="http://www.w3.org/2000/svg" viewBox="0 0 1024 1024" width="200" height="200"><path d="M0 0m136.54016 0l750.91968 0q136.54016 0 136.54016 136.54016l0 750.91968q0 136.54016-136.54016 136.54016l-750.91968 0q-136.54016 0-136.54016-136.54016l0-750.91968q0-136.54016 136.54016-136.54016Z" fill="#FFF5F5" /><path d="M514.1504 737.81248c48.04608-18.16576 236.31872-108.68736 244.65408-413.81888a36.94592 36.94592 0 0 0-17.44896-32.1536 450.43712 450.43712 0 0 0-476.54912 0 36.94592 36.94592 0 0 0-17.44896 32.1536c8.33536 305.152 196.608 395.65312 244.65408 413.81888 7.168 2.70336 14.97088 2.70336 22.13888 0z" fill="#F74949" /><path d="M249.05728 398.72512l-23.1424 13.23008A41.65632 41.65632 0 0 0 204.8 449.24928c10.89536 330.79296 237.21984 424.93952 288.1536 441.9584 6.69696 2.2528 13.5168 2.2528 20.21376 0 50.91328-17.01888 277.25824-111.16544 288.1536-441.9584a41.65632 41.65632 0 0 0-21.0944-37.2736l-23.1424-13.25056a511.34464 511.34464 0 0 0-508.04736 0z" fill="#FF9D9D" /><path d="M782.78656 407.51104l-23.1424-13.23008Q640.4096 326.0416 503.0912 326.0416q-137.33888 0-256.57344 68.23936l-23.1424 13.23008q-24.576 14.06976-23.67488 41.90208 7.02464 213.38112 130.49856 342.016 71.68 74.73152 161.15712 104.6528 11.73504 3.8912 23.4496 0 89.45664-29.92128 161.1776-104.6528 123.45344-128.63488 130.4576-342.016 0.94208-27.83232-23.6544-41.90208zM503.0912 336.2816q134.59456 0 251.47392 66.88768l23.1424 13.23008q19.23072 11.01824 18.51392 32.68608-6.90176 209.44896-127.65184 335.2576-69.9392 72.9088-156.99968 102.01088-8.47872 2.84672-16.97792 0-87.04-29.12256-156.99968-101.9904-120.75008-125.82912-127.65184-335.27808-0.7168-21.66784 18.51392-32.68608l23.1424-13.23008q116.87936-66.88768 251.4944-66.88768z" fill="#FFFFFF" /><path d="M436.89984 728.2688l-61.25568-61.25568a34.77504 34.77504 0 0 1 0-49.13152l146.75968-147.00544a34.54976 34.54976 0 0 1 48.98816 0l61.11232 61.27616a34.77504 34.77504 0 0 1 0 48.9472l-146.78016 147.18976a34.54976 34.54976 0 0 1-48.82432 0zM559.104 494.32576a17.26464 17.26464 0 0 0-24.39168 0l-135.53664 135.90528a17.408 17.408 0 0 0 0 24.4736l49.84832 50.176a17.26464 17.26464 0 0 0 24.41216 0l135.70048-136.0896a17.408 17.408 0 0 0 0-24.4736L559.104 494.30528z" fill="#FFFFFF" /><path d="M375.64416 667.01312l61.25568 61.27616c13.5168 13.45536 35.328 13.45536 48.82432 0l146.78016-147.18976a34.77504 34.77504 0 0 0 0-48.9472L571.392 470.87616a34.54976 34.54976 0 0 0-48.98816 0l-146.75968 147.00544a34.77504 34.77504 0 0 0 0 49.13152z m67.1744 55.35744L381.5424 661.0944q-7.70048-7.70048-7.70048-18.6368t7.70048-18.65728l146.78016-147.02592q7.70048-7.72096 18.57536-7.72096 10.89536 0 18.57536 7.72096l61.11232 61.27616q7.61856 7.68 7.61856 18.57536 0 10.8544-7.63904 18.57536l-146.75968 147.18976q-7.65952 7.63904-18.49344 7.63904-10.81344 0-18.49344-7.65952z m172.2368-183.95136l-50.03264-50.03264q-7.51616-7.4752-18.1248-7.4752-10.58816 0-18.08384 7.4752l-135.55712 135.92576q-7.4752 7.53664-7.4752 18.14528 0 10.58816 7.45472 18.10432l49.8688 50.176q7.53664 7.51616 18.1248 7.51616t18.10432-7.49568l135.70048-136.0896q7.4752-7.53664 7.4752-18.14528 0-10.58816-7.45472-18.10432z m-80.34304-44.11392a17.26464 17.26464 0 0 1 24.39168 0l50.03264 49.9712a17.408 17.408 0 0 1 0 24.49408l-135.70048 136.06912a17.26464 17.26464 0 0 1-24.41216 0l-49.84832-50.15552a17.408 17.408 0 0 1 0-24.4736l135.53664-135.90528z" fill="#FFFFFF" /><path d="M506.55232 505.07776l55.07072 55.21408q9.17504 9.216 0 18.432-9.17504 9.19552-18.37056 0l-55.07072-55.25504q-9.17504-9.19552 0-18.39104 9.17504-9.216 18.37056 0z" fill="#FFFFFF" /><path d="M561.62304 560.29184l-55.0912-55.21408q-4.58752-4.608-9.17504-4.608t-9.17504 4.608q-9.17504 9.19552 0 18.39104l55.0912 55.23456q4.56704 4.608 9.17504 4.608 4.58752 0 9.17504-4.608 9.17504-9.216 0-18.41152z m-64.26624-51.46624q1.1264 0 3.2768 2.1504l55.07072 55.21408q2.1504 2.17088 2.1504 3.31776 0 1.14688-2.1504 3.29728-2.1504 2.1504-3.2768 2.1504-1.10592 0-3.25632-2.1504l-55.07072-55.23456q-2.1504-2.1504-2.1504-3.29728 0-1.14688 2.1504-3.29728 2.1504-2.1504 3.2768-2.1504z" fill="#FFFFFF" /><path d="M463.85152 548.00384l30.59712 30.67904q9.17504 9.216 0 18.432-9.17504 9.19552-18.37056 0l-30.59712-30.69952q-9.17504-9.216 0-18.41152 9.19552-9.216 18.37056 0z" fill="#FFFFFF" /><path d="M494.44864 578.68288l-30.59712-30.67904q-4.58752-4.58752-9.17504-4.58752t-9.19552 4.58752q-9.17504 9.216 0 18.432l30.59712 30.65856q4.608 4.608 9.19552 4.608t9.17504-4.608q9.17504-9.216 0-18.41152zM454.656 551.75168q1.10592 0 3.25632 2.1504l30.59712 30.69952q2.1504 2.1504 2.1504 3.2768 0 1.16736-2.1504 3.31776-2.1504 2.1504-3.2768 2.1504-1.10592 0-3.25632-2.1504l-30.59712-30.67904q-2.1504-2.1504-2.1504-3.29728 0-1.14688 2.1504-3.31776 2.1504-2.1504 3.2768-2.1504z" fill="#FFFFFF" /><path d="M420.9664 590.86848l30.59712 30.69952q9.19552 9.216 0 18.41152-9.17504 9.19552-18.35008 0l-30.59712-30.69952q-9.17504-9.216 0-18.41152 9.17504-9.216 18.35008 0z" fill="#FFFFFF" /><path d="M451.584 621.568l-30.6176-30.69952q-4.58752-4.58752-9.17504-4.58752t-9.17504 4.58752q-9.17504 9.216 0 18.432l30.59712 30.67904q4.58752 4.58752 9.17504 4.58752t9.17504-4.58752q9.19552-9.216 0-18.432z m-39.79264-26.9312q1.1264 0 3.2768 2.12992l30.57664 30.69952q2.17088 2.1504 2.17088 3.29728 0 1.14688-2.17088 3.31776-2.12992 2.12992-3.25632 2.12992-1.1264 0-3.2768-2.12992l-30.57664-30.69952q-2.1504-2.1504-2.1504-3.29728 0-1.14688 2.1504-3.31776 2.12992-2.12992 3.2768-2.12992z" fill="#FFFFFF" /><path d="M642.53952 712.31488l-7.08608-38.1952a53.00224 53.00224 0 0 0-14.72512-27.77088L593.92 619.97056l-18.67776 18.7392 27.3408 27.4432c2.06848 3.97312 3.97312 7.61856 6.22592 11.61216l3.64544 19.968a8.66304 8.66304 0 0 1-10.21952 10.07616l-19.74272-4.17792-10.89536-5.89824-27.68896-27.60704-18.69824 18.75968 26.66496 26.7264c7.29088 7.168 16.46592 12.12416 26.48064 14.2336l37.376 7.9872c7.22944 1.59744 14.78656-0.55296 20.0704-5.7344 5.40672-5.05856 7.94624-12.47232 6.7584-19.78368z m-228.29056-251.6992a48.64 48.64 0 0 0-44.99456 30.0032c-7.5776 18.18624-3.4816 39.15776 10.36288 53.1456l34.816 35.51232 19.18976-19.3536-34.6112-34.7136a22.26176 22.26176 0 0 1 1.2288-30.18752 22.1184 22.1184 0 0 1 30.1056-1.06496l34.6112 34.7136 18.69824-18.92352-34.6112-34.7136a48.39424 48.39424 0 0 0-34.816-14.39744z" fill="#FFFFFF" /><path d="M369.2544 490.61888a48.64 48.64 0 0 1 44.99456-29.98272 48.39424 48.39424 0 0 1 34.77504 14.39744l34.6112 34.7136-18.67776 18.92352-5.89824-5.91872-28.71296-28.79488a22.1184 22.1184 0 0 0-30.1056 1.06496 22.26176 22.26176 0 0 0-1.2288 30.18752l34.6112 34.7136-13.312 13.4144-5.89824 5.9392-34.79552-35.51232a48.86528 48.86528 0 0 1-10.36288-53.1456z m45.19936 76.75904l7.3728-7.45472-28.73344-28.81536a8.23296 8.23296 0 0 1-0.45056-0.49152q-7.76192-9.1136-7.2704-21.0944 0.49152-11.96032 8.97024-20.41856 8.47872-8.45824 20.43904-8.88832 11.9808-0.4096 21.03296 7.43424a8.45824 8.45824 0 0 1 0.45056 0.4096l28.672 28.75392 6.94272-7.02464-28.75392-28.85632q-11.91936-12.0832-28.81536-11.93984h-0.08192q-12.20608-0.04096-22.38464 6.7584-10.15808 6.7584-14.86848 18.08384-4.7104 11.30496-2.37568 23.3472 2.3552 12.02176 10.9568 20.70528l28.89728 29.4912z m157.12256 130.3552l-27.68896-27.60704-18.69824 18.75968 26.66496 26.7264c7.29088 7.168 16.46592 12.12416 26.48064 14.2336l37.376 7.9872c7.22944 1.59744 14.78656-0.55296 20.0704-5.7344 5.40672-5.05856 7.94624-12.47232 6.7584-19.78368l-7.08608-38.1952a53.00224 53.00224 0 0 0-14.72512-27.77088L593.92 619.97056l-18.67776 18.7392 27.3408 27.4432c2.06848 3.97312 3.97312 7.61856 6.22592 11.61216l3.64544 19.968a8.66304 8.66304 0 0 1-10.21952 10.07616l-19.74272-4.17792-10.89536-5.89824z m15.44192-59.02336l21.46304 21.54496c0.59392 0.59392 1.10592 1.29024 1.49504 2.048q3.80928 7.33184 6.08256 11.3664c0.47104 0.8192 0.77824 1.69984 0.94208 2.60096l3.64544 19.968q1.61792 8.86784-4.8128 15.19616-6.41024 6.3488-15.2576 4.56704l-19.82464-4.1984a8.33536 8.33536 0 0 1-2.2528-0.8192l-10.89536-5.89824a8.3968 8.3968 0 0 1-1.92512-1.4336l-21.77024-21.7088-6.92224 6.94272 20.76672 20.82816q9.37984 9.216 22.30272 11.96032l37.39648 7.9872q7.22944 1.59744 12.4928-3.54304 5.48864-5.12 4.36224-12.3904l-7.0656-38.07232q-2.58048-13.6192-12.3904-23.36768l-20.8896-20.54144-6.9632 6.9632z" fill="#FFFFFF" /></svg>