<svg xmlns="http://www.w3.org/2000/svg" viewBox="0 0 1024 1024" width="200" height="200"><path d="M502.4 64.5h11v60.2h-11zM651.92 139.622l21.028-52.224 10.203 4.109-21.028 52.224zM332.981 91.494l10.204-4.108 21.028 52.224-10.203 4.108z" fill="#495460" /><path d="M850.6 773.4v186.1H742.4V856.3H730v103.2H301.5V856.3h-12.4v103.2H179.8V773.4c0-133.8 108.9-242.7 242.7-242.7h185.3c133.9 0 242.8 108.9 242.8 242.7z" fill="#E7E7E6" /><path d="M507.9 517.9c-44.1 0-85.6-17.2-116.8-48.4-31.2-31.2-48.4-72.7-48.4-116.8 0-91.1 74.1-165.2 165.2-165.2 44.1 0 85.6 17.2 116.8 48.4 31.2 31.2 48.4 72.7 48.4 116.8 0 91.1-74.1 165.2-165.2 165.2z m0-319.4c-85 0-154.2 69.2-154.2 154.2 0 41.2 16 79.9 45.2 109 29.1 29.1 67.8 45.2 109 45.2 85 0 154.2-69.2 154.2-154.2 0-41.2-16-79.9-45.2-109-29.1-29.1-67.8-45.2-109-45.2z" fill="#495460" /><path d="M607.2 253.4c-26.5-26.5-61.8-41.1-99.3-41.1-77.4 0-140.4 63-140.4 140.5 0 37.5 14.6 72.7 41.1 99.3 26.5 26.5 61.8 41.1 99.3 41.1 77.4 0 140.4-63 140.4-140.4 0-37.6-14.6-72.9-41.1-99.4z m-99.3 160.4c-16.3 0-31.7-6.3-43.2-17.9-11.5-11.5-17.9-26.9-17.9-43.2 0-33.7 27.4-61.1 61.1-61.1 16.3 0 31.7 6.4 43.2 17.9 11.5 11.6 17.9 26.9 17.9 43.2 0 33.7-27.4 61.1-61.1 61.1z" fill="#FDDA43" /><path d="M530.2 585.4l30.3-73H458.1l30.9 73zM574.6 837l-65.3 91.8-68.1-92.8L489 585.4h41.2s30.4 165.2 44.4 251.6z" fill="#F09069" /><path d="M533.8 590.9h-48.4l-35.6-84h118.9l-34.9 84z m-41.1-11h33.8l25.8-62h-85.9l26.3 62z" fill="#495460" /><path d="M509.4 938.2l-74-100.8 49.1-257.5h50.3l0.8 4.5c0.3 1.7 30.6 166.3 44.4 251.7l0.4 2.2-71 99.9zM447 834.7l62.2 84.7 59.6-83.8c-12.7-77.8-38.3-217.9-43.2-244.7h-32.1L447 834.7zM300.5 856.3h11v103.2h-11z" fill="#495460" /><path d="M874.3 959.5h-11v-186c0-140.9-114.6-255.6-255.5-255.6H422.5C281.6 517.9 167 632.5 167 773.4v186h-11v-186c0-147 119.6-266.5 266.5-266.5h185.3c147 0 266.5 119.6 266.5 266.5v186.1z" fill="#495460" /><path d="M718.8 856.3h11v103.2h-11z" fill="#495460" /><path d="M869.2 349.2s-1.8-3.4-5.6-9l9.2-6c4 6.1 6 9.7 6 9.8l-9.6 5.2z m-717-1l-9.4-5.7c1-1.6 3.1-4.9 6.3-9.5l9 6.3c-3.1 4.4-5 7.5-5.9 8.9z m705.3-16.8c-1.9-2.7-4.1-5.6-6.5-8.6l8.7-6.7c2.5 3.2 4.7 6.2 6.7 9l-8.9 6.3z m-693-0.8l-8.7-6.7c2.1-2.7 4.4-5.6 6.9-8.8l8.5 6.9c-2.5 3.2-4.7 6-6.7 8.6z m679.7-16.3c-2.2-2.6-4.5-5.4-7.1-8.2l8.2-7.3c2.6 2.9 5 5.7 7.3 8.5l-8.4 7z m-666-0.4l-8.3-7.2c2.3-2.7 4.8-5.4 7.5-8.3l8.1 7.5c-2.7 2.7-5.1 5.4-7.3 8z m651.7-15.8c-2.4-2.6-4.9-5.1-7.5-7.8l7.8-7.8c2.7 2.7 5.3 5.4 7.8 8l-8.1 7.6z m-637-0.1l-7.8-7.7c2.5-2.6 5.2-5.2 7.9-7.9l7.6 7.9c-2.7 2.6-5.3 5.2-7.7 7.7z m15.6-15.1l-7.4-8.1c2.7-2.4 5.5-4.9 8.3-7.4l7.2 8.3c-2.8 2.4-5.5 4.8-8.1 7.2z m606.1-0.1c-2.6-2.4-5.2-4.9-8-7.3l7.3-8.2c2.8 2.5 5.6 5 8.2 7.5l-7.5 8z m-589.7-14.1l-7-8.5c2.8-2.3 5.7-4.6 8.7-7l6.7 8.7c-2.9 2.3-5.7 4.6-8.4 6.8z m573.5-0.3c-2.7-2.3-5.5-4.6-8.4-6.9l6.8-8.6c3 2.4 5.8 4.7 8.6 7l-7 8.5zM242 255.5l-6.5-8.8c2.9-2.2 6-4.3 9.1-6.5l6.3 9c-3.1 2-6 4.1-8.9 6.3z m539.5-0.6c-2.8-2.1-5.8-4.3-8.8-6.4l6.3-9c3.1 2.2 6.1 4.4 9 6.6l-6.5 8.8z m-521.7-11.8l-6-9.2c3.1-2 6.2-4 9.4-6l5.8 9.3c-3.2 2-6.2 3.9-9.2 5.9z m504-0.7c-3-2-6-3.9-9.1-5.9l5.8-9.3c3.2 2 6.3 4 9.3 6l-6 9.2z m-485.6-10.7l-5.5-9.5c3.2-1.8 6.4-3.7 9.7-5.5l5.3 9.6c-3.3 1.8-6.4 3.6-9.5 5.4z m467.2-0.9c-3.1-1.8-6.2-3.6-9.4-5.4l5.3-9.6c3.3 1.8 6.5 3.7 9.7 5.5l-5.6 9.5z m-448.2-9.6l-5-9.8c3.3-1.7 6.6-3.3 10-5l4.8 9.9-9.8 4.9z m429.3-0.9c-3.2-1.6-6.4-3.3-9.7-4.9l4.8-9.9c3.4 1.6 6.7 3.3 9.9 5l-5 9.8z m-409.8-8.5l-4.5-10c3.3-1.5 6.7-3 10.2-4.5l4.3 10.1c-3.4 1.5-6.7 2.9-10 4.4z m390.3-0.9c-3.3-1.5-6.6-2.9-9.9-4.3l4.3-10.1c3.5 1.4 6.8 2.9 10.2 4.5l-4.6 9.9z m-370.3-7.5l-4-10.2c3.4-1.3 6.9-2.7 10.4-3.9l3.8 10.3c-3.5 1.2-6.9 2.5-10.2 3.8z m350.4-1c-3.3-1.3-6.7-2.6-10.1-3.8l3.7-10.3c3.5 1.3 7 2.6 10.4 3.9l-4 10.2z m-330-6.5l-3.5-10.4c3.5-1.2 7-2.3 10.6-3.4l3.2 10.5c-3.5 1.1-7 2.2-10.3 3.3z m309.6-0.8c-3.4-1.1-6.8-2.2-10.3-3.3l3.2-10.5c3.6 1.1 7.1 2.2 10.6 3.4l-3.5 10.4z m-288.9-5.6l-3-10.6c3.5-1 7.1-2 10.7-2.9l2.7 10.6c-3.5 1-7 2-10.4 2.9z m268.2-0.8c-3.4-1-6.9-1.9-10.5-2.8l2.7-10.6c3.6 0.9 7.2 1.9 10.7 2.9l-2.9 10.5z m-247.2-4.6l-2.5-10.7 10.8-2.4 2.2 10.8c-3.5 0.7-7 1.5-10.5 2.3z m226.2-0.7c-3.5-0.8-7-1.6-10.6-2.3l2.2-10.8c3.7 0.7 7.3 1.5 10.9 2.3l-2.5 10.8z m-205-3.7l-2-10.8c3.6-0.7 7.2-1.3 10.9-1.9l1.7 10.8c-3.5 0.6-7.1 1.3-10.6 1.9z m183.7-0.6c-3.5-0.6-7.1-1.2-10.7-1.8l1.7-10.9c3.7 0.6 7.3 1.2 11 1.8l-2 10.9z m-162.3-2.8l-1.5-10.9c3.6-0.5 7.3-1 11-1.4l1.3 10.9c-3.6 0.4-7.2 0.9-10.8 1.4z m140.9-0.5c-3.6-0.5-7.1-0.9-10.8-1.3l1.2-10.9c3.7 0.4 7.4 0.8 11 1.3l-1.4 10.9zM463 173.7l-1-10.9c3.7-0.3 7.3-0.7 11-0.9l0.8 11c-3.6 0.2-7.2 0.5-10.8 0.8z m97.7-0.3c-3.6-0.3-7.2-0.6-10.8-0.8l0.7-11c3.7 0.2 7.4 0.5 11.1 0.9l-1 10.9z m-76-1.2l-0.6-11c3.7-0.2 7.4-0.3 11.1-0.5l0.4 11c-3.7 0.1-7.3 0.3-10.9 0.5z m54.3-0.2c-3.6-0.2-7.2-0.3-10.9-0.4l0.3-11c3.7 0.1 7.4 0.2 11.1 0.4l-0.5 11z m-32.6-0.6l-0.1-11c2.4 0 4.9-0.1 7.4-0.1h3.7l-0.1 11h-3.7c-2.4 0.1-4.8 0.1-7.2 0.1zM510.4 545h-3.7l0.1-11h10.9l0.1 11h-7.4z m-14.8-0.2c-3.7-0.1-7.4-0.2-11.1-0.4l0.5-11c3.6 0.2 7.2 0.3 10.9 0.4l-0.3 11z m33.2-0.1l-0.4-11c3.7-0.1 7.3-0.3 10.9-0.5l0.6 11c-3.7 0.2-7.3 0.4-11.1 0.5z m-55.4-0.9c-3.7-0.2-7.4-0.5-11.1-0.8l1-10.9c3.6 0.3 7.2 0.6 10.8 0.8l-0.7 10.9z m77.6-0.3l-0.8-10.9c3.6-0.3 7.3-0.6 10.8-0.9l1 10.9c-3.6 0.4-7.3 0.7-11 0.9z m-99.7-1.7c-3.7-0.4-7.4-0.8-11-1.3l1.4-10.9c3.6 0.5 7.1 0.9 10.8 1.3l-1.2 10.9z m121.8-0.3l-1.3-10.9c3.6-0.4 7.2-0.9 10.8-1.4l1.5 10.9c-3.7 0.5-7.3 0.9-11 1.4zM429.3 539c-3.7-0.6-7.3-1.2-11-1.8l1.9-10.8c3.5 0.6 7.1 1.2 10.7 1.8l-1.6 10.8z m165.7-0.6l-1.7-10.8c3.6-0.6 7.2-1.2 10.7-1.8l2 10.8c-3.6 0.6-7.3 1.2-11 1.8zM407.5 535c-3.7-0.7-7.3-1.5-10.9-2.3L399 522c3.5 0.8 7 1.6 10.6 2.3l-2.1 10.7z m209.4-0.6l-2.2-10.7c3.6-0.7 7.1-1.5 10.6-2.3l2.5 10.7c-3.7 0.7-7.3 1.5-10.9 2.3z m-231.1-4.3c-3.6-0.9-7.2-1.9-10.7-2.9l2.9-10.6c3.5 1 6.9 1.9 10.5 2.8l-2.7 10.7z m252.7-0.7l-2.7-10.6c3.5-0.9 7-1.9 10.5-2.8l3 10.6c-3.6 0.9-7.2 1.8-10.8 2.8z m-274.1-5.2c-3.6-1.1-7.1-2.2-10.6-3.4l3.5-10.4c3.4 1.1 6.8 2.2 10.3 3.3l-3.2 10.5z m295.5-0.9l-3.2-10.5c3.5-1.1 6.9-2.2 10.3-3.3l3.5 10.4c-3.5 1.2-7.1 2.3-10.6 3.4z m-316.6-6.2c-3.5-1.3-7-2.6-10.4-3.9l4-10.2c3.3 1.3 6.7 2.6 10.1 3.8l-3.7 10.3z m337.6-0.9l-3.8-10.3c3.4-1.2 6.8-2.5 10.1-3.8l4 10.2c-3.3 1.3-6.8 2.6-10.3 3.9zM322.6 509c-3.4-1.5-6.8-2.9-10.2-4.5l4.5-10c3.3 1.5 6.6 2.9 9.9 4.3l-4.2 10.2z m379-0.9l-4.3-10.1c3.4-1.4 6.7-2.9 9.9-4.3l4.5 10c-3.2 1.5-6.6 2.9-10.1 4.4z m-399.2-8.3c-3.4-1.6-6.7-3.3-9.9-5l5.1-9.7c3.2 1.6 6.4 3.3 9.7 4.9l-4.9 9.8z m419.5-0.9l-4.8-9.9c3.3-1.6 6.5-3.2 9.7-4.8l5 9.8c-3.2 1.6-6.5 3.3-9.9 4.9z m-439.3-9.3c-3.3-1.8-6.5-3.7-9.7-5.5l5.6-9.4c3.1 1.8 6.2 3.6 9.4 5.4l-5.3 9.5z m459-0.9l-5.3-9.6c3.2-1.8 6.3-3.5 9.4-5.3l5.5 9.5c-3 1.8-6.3 3.6-9.6 5.4z m-478.1-10.5c-3.2-2-6.3-4-9.3-6l6.1-9.1c3 2 6 3.9 9.1 5.9l-5.9 9.2z m497.4-0.7l-5.8-9.3c3.1-1.9 6.2-3.9 9.1-5.8l6 9.2c-3 1.9-6.2 3.9-9.3 5.9z m-516-11.6c-3.1-2.2-6.1-4.4-9-6.5l6.6-8.8c2.8 2.1 5.8 4.3 8.7 6.4l-6.3 8.9z m534.6-0.6l-6.3-9c3-2.1 5.9-4.2 8.8-6.3l6.5 8.8c-2.9 2.2-6 4.4-9 6.5z m-552.4-12.8c-3-2.3-5.8-4.7-8.6-7l7.1-8.4c2.7 2.3 5.5 4.6 8.4 6.9l-6.9 8.5z m570.3-0.4l-6.7-8.7c2.9-2.3 5.7-4.5 8.5-6.8l7 8.5c-2.9 2.4-5.8 4.7-8.8 7z m-587.3-13.9c-2.8-2.5-5.6-5-8.2-7.5l7.5-8c2.6 2.4 5.2 4.9 8 7.3l-7.3 8.2z m604.5-0.2l-7.2-8.3c2.8-2.4 5.5-4.8 8.1-7.2l7.4 8.1c-2.6 2.5-5.4 4.9-8.3 7.4z m16.5-15l-7.6-7.9c2.7-2.6 5.2-5.1 7.7-7.6l7.8 7.7c-2.5 2.5-5.2 5.1-7.9 7.8z m-637.2-0.1c-2.7-2.7-5.3-5.4-7.8-8l8-7.5c2.4 2.5 4.9 5.1 7.5 7.8l-7.7 7.7z m652.8-15.8l-8.1-7.5c2.6-2.8 5-5.5 7.2-8.1l8.3 7.2c-2.3 2.7-4.8 5.5-7.4 8.4z m-668.1-0.5c-2.6-2.9-5-5.7-7.3-8.5l8.4-7c2.2 2.6 4.5 5.4 7.1 8.2l-8.2 7.3z m682.7-16.4l-8.5-6.9c2.5-3 4.7-5.9 6.7-8.5l8.7 6.7c-2 2.7-4.3 5.6-6.9 8.7z m-697-0.7c-2.5-3.2-4.7-6.2-6.7-9l8.9-6.4c1.9 2.6 4.1 5.5 6.5 8.6l-8.7 6.8z m710.6-17.1l-9-6.3c3-4.3 5-7.5 5.9-8.9l9.3 5.7c-0.9 1.6-3 4.9-6.2 9.5z m-723.7-1.1c-4-6.1-5.9-9.7-6-9.8l9.7-5.2s1.8 3.4 5.5 9l-9.2 6z" fill="#495460" /><path d="M540.3 352.7c0 17.9-14.5 32.4-32.4 32.4s-32.4-14.5-32.4-32.4 14.5-32.4 32.4-32.4c3.6 0 7.1 0.6 10.3 1.7-6.1 2.8-10.3 9-10.3 16.2 0 9.9 8 17.9 17.9 17.9 5.8 0 11-2.8 14.2-7.1 0.2 1.3 0.3 2.5 0.3 3.7z" fill="#F09069" /></svg>