<svg xmlns="http://www.w3.org/2000/svg" viewBox="0 0 1024 1024" width="200" height="200"><path d="M598.81 604.44c-28.46 28.46-59.1 54.72-87.56 76.61-30.65-21.89-59.1-48.16-87.56-76.61s-54.72-59.1-76.61-87.56c21.89-30.65 48.16-59.1 76.61-87.56 28.46-28.46 59.1-54.72 87.56-76.61 30.65 21.89 59.1 48.16 87.56 76.61 28.46 28.46 54.72 59.1 76.61 87.56-21.88 30.65-48.15 59.11-76.61 87.56M266.09 762.05c-21.89-21.89-17.51-67.86 8.76-126.96 13.13-28.46 28.46-56.91 48.16-87.56 21.89 28.46 45.97 56.91 74.42 83.18 26.27 26.27 54.72 50.35 83.18 74.42-98.5 67.86-183.87 87.56-214.52 56.92m516.59-142.28c-15.32-32.83-35.02-67.86-59.1-102.88 17.51-24.08 30.65-45.97 43.78-70.05 4.38-8.76 2.19-19.7-6.57-24.08-8.76-4.38-19.7-2.19-24.08 6.57-8.76 17.51-21.89 37.21-32.83 54.72-21.89-28.46-45.97-56.91-74.42-83.18-26.27-26.27-54.72-52.53-83.18-74.42 30.65-19.7 59.1-37.21 87.56-48.16 59.1-26.27 105.07-28.46 126.96-8.76 8.76 8.76 13.13 21.89 13.13 37.21 0 10.94 8.76 17.51 19.7 17.51s17.51-8.76 17.51-19.7c0-26.27-8.76-45.97-24.08-61.29-32.83-32.83-91.94-32.83-166.36 0-32.83 15.32-67.86 35.02-102.88 59.1-74.42-52.53-146.66-83.17-201.38-85.36-10.94 0-17.51 8.76-17.51 17.51 0 10.94 8.76 17.51 17.51 19.7 43.78 0 105.07 26.27 170.74 70.05-28.46 21.89-56.91 45.97-83.18 74.42-26.27 26.27-52.53 54.72-74.42 83.18-37.21-54.72-63.48-109.45-70.05-153.23-2.19-10.94-10.94-17.51-21.89-15.32-10.94 2.19-17.51 10.94-15.32 21.89 6.57 50.35 37.21 113.83 83.18 177.3-24.08 35.02-45.97 70.05-59.1 102.88-32.83 74.42-32.83 135.71 0 166.36 15.32 15.32 39.4 24.08 67.86 24.08s61.29-8.76 100.69-24.08c70.05-30.65 146.66-85.37 216.71-157.6 26.27-26.27 52.53-54.72 74.42-83.18 67.86 98.5 87.56 183.87 56.91 214.52-21.89 21.89-67.86 17.51-126.96-8.76-8.76-4.38-19.7 0-24.08 8.76-4.38 8.76 0 19.7 8.76 24.08 37.21 17.51 72.24 24.08 100.69 24.08s50.35-8.76 67.86-24.08c26.26-24.08 26.26-83.18-6.58-159.79M513.44 442.46c41.59 0 74.42 32.83 74.42 74.42s-32.83 74.42-74.42 74.42-74.42-32.83-74.42-74.42 32.83-74.42 74.42-74.42z m0 111.64c19.7 0 37.21-17.51 37.21-37.21s-17.51-37.21-37.21-37.21-37.21 17.51-37.21 37.21 15.32 37.21 37.21 37.21zM239.83 289.24c-13.13 0-24.08-10.94-24.08-24.08s10.94-24.08 24.08-24.08 24.08 10.94 24.08 24.08c-0.01 13.13-10.95 24.08-24.08 24.08z m512.21 89.74c0-13.13 10.94-24.08 24.08-24.08 13.13 0 24.08 10.94 24.08 24.08s-10.94 24.08-24.08 24.08c-15.32 0-24.08-8.76-24.08-24.08zM563.79 718.27c13.13 0 24.08 10.94 24.08 24.08s-10.94 24.08-24.08 24.08-24.08-10.94-24.08-24.08 10.95-24.08 24.08-24.08z" fill="#303133" /><path d="M314.25 809.33c-29.14 0-54.1-8.9-70.29-25.06-16.81-15.71-25.69-39.67-25.69-69.28 0-29.11 8.61-64.01 24.9-100.95 14.14-35.32 38.23-72.55 58.05-101.48-46.69-64.93-75.91-127.64-82.36-176.79-2.46-12.63 4.96-23.26 18.09-25.89 6.2-1.24 12.22-0.06 16.95 3.32 4.6 3.28 7.81 8.52 9.06 14.75l0.03 0.17c6.01 40.08 29.68 92.42 66.78 147.78 19.01-24.28 43.11-51.05 71.7-79.64 21.93-23.75 47.34-46.64 79.7-71.78-65.54-43.09-123.91-66.77-164.73-66.77h-0.43l-0.42-0.1c-9.3-2.33-20.16-9.77-20.16-23.1 0-10.33 7.86-21.01 21.01-21.01h0.14c55.17 2.21 126.57 32.23 201.27 84.61 32.87-22.44 66.96-41.95 101.37-58.01 75.92-33.49 136.38-33.24 170.32 0.7 16.89 16.89 25.1 37.75 25.1 63.77 0 13.66-8.64 23.2-21.01 23.2-13.66 0-23.2-8.64-23.2-21.01 0-14.76-4.16-26.75-12.04-34.67-21.18-18.96-67.19-15.45-123.13 9.41l-0.17 0.07c-27.41 10.54-54.81 27.27-82.76 45.16 24.26 19 50.99 43.08 79.55 71.63 23.73 21.91 46.6 47.29 71.7 79.6 1.48-2.34 2.99-4.72 4.51-7.12 9.18-14.46 18.67-29.41 25.49-43.07 5.05-10.1 17.69-13.67 28.77-8.13 5.06 2.53 8.63 7.03 10.04 12.68 1.32 5.28 0.64 11-1.91 16.1l-0.06 0.11c-14.67 26.9-27.49 47.51-42.57 68.43 22.43 32.86 41.94 66.94 57.99 101.34l0.04 0.1c15.97 37.26 24.87 72.14 25.73 100.87 0.85 28.36-6.07 50.1-20.01 62.88-19.24 16.84-42.19 25-70.22 25-22.95 0-59.31-4.24-102.18-24.41-10.79-5.39-15.51-18.57-10.4-28.81 2.5-5.01 6.99-9.02 12.3-11.01 5.53-2.07 11.35-1.84 16.4 0.66 59.14 26.27 102.81 29.62 122.99 9.45 14.18-14.18 16.87-42.05 7.57-78.47-9.66-37.8-31.13-81.85-62.18-127.63-19.03 24.3-43.15 51.09-71.77 79.72-68.47 70.61-145.83 126.86-217.78 158.34l-0.13 0.05c-42.65 16.56-75.05 24.29-101.95 24.29z m-72.48-492.94c-1.11 0-2.27 0.12-3.44 0.35-9.28 1.86-14.33 9-12.58 17.77l0.04 0.23c6.33 48.54 35.65 110.94 82.54 175.7l1.45 2-1.4 2.03c-19.88 28.92-44.52 66.67-58.74 102.2l-0.05 0.11c-15.92 36.07-24.33 70.03-24.33 98.18 0 27.65 8.13 49.85 23.51 64.2l0.09 0.08c14.87 14.87 38.09 23.05 65.38 23.05 25.99 0 57.57-7.57 99.35-23.81 71.12-31.13 147.66-86.81 215.53-156.8 29.95-29.95 54.89-57.82 74.16-82.88l2.93-3.81 2.73 3.96c32.98 47.87 55.77 94.15 65.9 133.82 10.08 39.47 6.83 68.92-9.4 85.15-11.51 11.51-29.09 16.46-52.26 14.7-21.97-1.67-48.41-9.32-78.59-22.73l-0.14-0.07c-3.3-1.65-7.17-1.79-10.89-0.4-3.68 1.38-6.77 4.15-8.5 7.59-3.42 6.85-0.13 15.72 7.19 19.38 41.63 19.59 76.89 23.71 99.13 23.71 26.26 0 47.7-7.59 65.55-23.21 26.22-24.04 23.39-83.73-7.46-155.73-16.22-34.75-36-69.18-58.79-102.33l-1.4-2.04 1.46-2c15.52-21.34 28.53-42.16 43.51-69.61 1.75-3.54 2.25-7.62 1.35-11.21-0.64-2.57-2.27-6.06-6.38-8.12-6.64-3.32-15.7-2.36-19.38 5-6.99 13.97-16.57 29.08-25.84 43.69-2.44 3.85-4.85 7.64-7.15 11.33l-2.67 4.27-3.07-3.99c-26.09-33.91-49.61-60.21-74.02-82.74l-0.1-0.1c-29.91-29.91-57.78-54.85-82.84-74.12l-3.94-3.03 4.18-2.69c29.68-19.08 58.75-37.14 88.11-48.45 59.43-26.4 107.04-29.36 130.64-8.12l0.13 0.13c9.26 9.26 14.16 22.99 14.16 39.69 0 9.68 8.14 14.01 16.2 14.01 9.68 0 14.01-8.14 14.01-16.2 0-24.07-7.54-43.3-23.05-58.82-31.75-31.75-89.45-31.49-162.47 0.73-34.7 16.19-69.14 35.98-102.31 58.78l-2.01 1.38-1.99-1.41c-74.3-52.44-145.12-82.53-199.43-84.73-9.06 0.04-13.94 7.24-13.94 14.01 0 9.11 7.39 14.31 14.46 16.2 43.01 0.17 104.14 25.24 172.23 70.63l4.06 2.71-3.87 2.98c-33.91 26.09-60.21 49.61-82.74 74.02l-0.1 0.1c-29.91 29.91-54.85 57.78-74.13 82.84l-2.95 3.83-2.72-4c-39.2-57.65-64.27-112.54-70.6-154.59-0.91-4.44-3.12-8.11-6.25-10.34-2.32-1.61-5.07-2.46-8.06-2.46z m66.52 463.27c-19.46 0-34.6-5.07-44.67-15.14-11.51-11.51-16.46-29.1-14.7-52.26 1.67-21.97 9.32-48.41 22.73-78.59 14.02-30.37 29.84-59.15 48.41-88.03l2.69-4.18 3.03 3.94c26.09 33.91 49.61 60.21 74.02 82.74l0.1 0.1c26.16 26.16 55.03 50.59 82.96 74.22l3.49 2.96-3.76 2.6c-47.87 32.98-94.15 55.77-133.82 65.9-15 3.83-28.56 5.74-40.48 5.74z m14.99-226.05c-17.24 27.2-32.07 54.39-45.25 82.95-26.28 59.13-29.65 102.83-9.46 123.02 14.18 14.18 42.05 16.87 78.47 7.57 37.85-9.67 81.96-31.18 127.8-62.3-26.93-22.79-54.58-46.35-79.84-71.6-23.73-21.93-46.61-47.32-71.72-79.64z m240.51 216.32c-14.95 0-27.58-12.63-27.58-27.58s12.63-27.58 27.58-27.58 27.58 12.63 27.58 27.58-12.63 27.58-27.58 27.58z m0-48.16c-11.15 0-20.58 9.42-20.58 20.58 0 11.15 9.42 20.58 20.58 20.58s20.58-9.42 20.58-20.58c0-11.16-9.43-20.58-20.58-20.58z m-52.46-36.36l-2.11-1.51c-34.16-24.4-64.97-53.96-88-76.99-26.36-26.36-52.95-56.75-76.91-87.9l-1.58-2.06 1.51-2.11c24.4-34.16 53.96-64.97 76.99-88 26.36-26.36 56.76-52.96 87.9-76.91l2.06-1.58 2.11 1.51c34.16 24.4 64.97 53.96 88 76.99 26.36 26.36 52.96 56.76 76.91 87.9l1.58 2.06-1.51 2.11c-24.4 34.16-53.96 64.97-76.99 88-26.36 26.36-56.75 52.96-87.9 76.91l-2.06 1.58z m-159.88-168.6c23.36 30.19 49.16 59.59 74.72 85.16 22.36 22.36 52.1 50.92 85.01 74.72 30.19-23.36 59.59-49.16 85.16-74.72 22.36-22.36 50.92-52.1 74.72-85.01-23.36-30.19-49.16-59.59-74.72-85.16-22.36-22.36-52.11-50.92-85.01-74.72-30.19 23.36-59.59 49.15-85.16 74.72-22.36 22.36-50.92 52.11-74.72 85.01z m161.99 78c-43.7 0-77.92-34.23-77.92-77.92 0-43.7 34.23-77.92 77.92-77.92 43.7 0 77.92 34.23 77.92 77.92 0.01 43.69-34.22 77.92-77.92 77.92z m0-148.85c-39.77 0-70.92 31.15-70.92 70.92s31.15 70.92 70.92 70.92 70.92-31.15 70.92-70.92-31.15-70.92-70.92-70.92z m0 111.64c-22.83 0-40.71-17.88-40.71-40.71 0-21.69 19.02-40.71 40.71-40.71s40.71 19.02 40.71 40.71-19.02 40.71-40.71 40.71z m0-74.43c-17.64 0-33.71 16.07-33.71 33.71 0 18.9 14.81 33.71 33.71 33.71 17.64 0 33.71-16.07 33.71-33.71s-16.06-33.71-33.71-33.71z m262.68-76.61c-17.27 0-27.58-10.31-27.58-27.58 0-14.95 12.63-27.58 27.58-27.58s27.58 12.63 27.58 27.58c0 14.95-12.63 27.58-27.58 27.58z m0-48.16c-11.16 0-20.58 9.42-20.58 20.58 0 13.46 7.12 20.58 20.58 20.58 11.15 0 20.58-9.42 20.58-20.58 0-11.15-9.43-20.58-20.58-20.58z m-536.29-65.66c-14.95 0-27.58-12.63-27.58-27.58 0-14.95 12.63-27.58 27.58-27.58 14.95 0 27.58 12.63 27.58 27.58-0.01 14.95-12.64 27.58-27.58 27.58z m0-48.16c-11.15 0-20.58 9.42-20.58 20.58 0 11.15 9.42 20.58 20.58 20.58 11.15 0 20.58-9.42 20.58-20.58-0.01-11.16-9.43-20.58-20.58-20.58z" fill="#303133" /><path d="M924 45c14.58 0 28.36 5.75 38.81 16.19S979 85.42 979 100v824c0 14.58-5.75 28.36-16.19 38.81S938.58 979 924 979H100c-14.58 0-28.36-5.75-38.81-16.19S45 938.58 45 924V100c0-14.58 5.75-28.36 16.19-38.81S85.42 45 100 45h824m0-45H100C45 0 0 45 0 100v824c0 55 45 100 100 100h824c55 0 100-45 100-100V100c0-55-45-100-100-100z" fill="#303133" /></svg>