<svg xmlns="http://www.w3.org/2000/svg" viewBox="0 0 1801 1024" width="200" height="200"><path d="M546.778641 1002.757985a255.915706 255.915706 0 0 1-167.913072-61.92778 226.806278 226.806278 0 1 1-200.506641-401.912413A169.936121 169.936121 0 0 1 339.528503 422.592471a167.013939 167.013939 0 0 1 37.988366 4.383273A247.261552 247.261552 0 0 1 800.334123 450.690374a199.270333 199.270333 0 0 1 209.835144 278.506421 229.953243 229.953243 0 0 0 162.1811 62.152563 330.768522 330.768522 0 0 0 106.210076-18.881791l54.509933-18.432225-28.997037 49.564702c-3.933707 6.855888-99.691362 165.777631-383.929755 165.777631a892.501811 892.501811 0 0 1-160.720009-15.397651 198.3712 198.3712 0 0 1-50.688618-8.316979 258.500713 258.500713 0 0 1-161.956316 57.09494z" fill="#CE111B" /><path d="M581.620041 340.883767A225.794754 225.794754 0 0 1 787.971045 474.854571a172.296345 172.296345 0 0 1 40.685765-4.608056A177.578751 177.578751 0 0 1 984.431588 733.01811s63.164087 79.798046 187.918779 79.798046a352.122928 352.122928 0 0 0 113.290748-19.893315s-89.913292 154.988036-365.497531 154.988036a887.107014 887.107014 0 0 1-157.34826-15.172868 177.016793 177.016793 0 0 1-58.44364-11.239161 237.146307 237.146307 0 0 1-324.025024-8.541763 205.227088 205.227088 0 1 1-184.322248-356.955768 147.682581 147.682581 0 0 1 191.065744-103.962243 226.693887 226.693887 0 0 1 194.662277-111.155307m0-43.045988a270.863791 270.863791 0 0 0-213.544068 105.423334 174.544177 174.544177 0 0 0-28.54747-2.247832 191.065745 191.065745 0 0 0-178.140709 121.045769A248.273077 248.273077 0 1 0 377.292086 966.792668a280.979036 280.979036 0 0 0 336.050927 1.910658 212.420151 212.420151 0 0 0 43.720338 6.181538 936.784107 936.784107 0 0 0 162.85545 15.397652c296.601471 0 398.428274-169.261771 402.586763-176.342444l57.76929-99.466578-108.682691 37.089232a313.684996 313.684996 0 0 1-99.466579 17.870267 213.544068 213.544068 0 0 1-136.555812-46.754912A220.512348 220.512348 0 0 0 828.432027 427.312918c-5.507189 0-11.239161 0-16.746351 0.67435a269.739875 269.739875 0 0 0-230.065635-130.149489z" fill="#FFE045" /><path d="M562.73825 367.857754a225.794754 225.794754 0 0 1 206.351004 133.970805 177.578751 177.578751 0 0 1 196.460542 258.500713s99.466579 126.552958 298.62452 60.354297a199.944682 199.944682 0 0 0 21.466799-27.648337c-200.843815 67.434969-301.209527-60.017122-301.209527-60.017122a177.466359 177.466359 0 0 0-155.774778-262.546812 186.57008 186.57008 0 0 0-40.685765 4.608057 225.907145 225.907145 0 0 0-400.788497-22.478323 224.783229 224.783229 0 0 1 175.555702-84.18132z m-242.091538 103.400286a147.345407 147.345407 0 0 1 47.429262 7.979804 209.048403 209.048403 0 0 1 18.881791-27.086379 151.503896 151.503896 0 0 0-47.429262-7.867413 147.682581 147.682581 0 0 0-130.374272 77.774998 147.120623 147.120623 0 0 1 111.492481-50.80101z m-143.748875 112.391614a134.869937 134.869937 0 0 1 8.092197-23.489847 205.227088 205.227088 0 0 0-111.492482 90.587641 206.351004 206.351004 0 0 1 103.400285-67.659752z" fill="#FF2528" /><path d="M841.806629 449.791241c1.685874 5.057623 3.034574 8.991329 4.383273 13.374602s2.360224 8.541763 3.48414 12.700253c2.247832 8.654154 4.15849 17.195917 5.731972 25.73768a356.955768 356.955768 0 0 1 5.956756 52.711667 241.866754 241.866754 0 0 1-4.046098 54.397541 154.313687 154.313687 0 0 1-20.342883 52.936451 126.328175 126.328175 0 0 1-40.910547 40.348589 156.673911 156.673911 0 0 1-51.138185 19.556141 301.659093 301.659093 0 0 1-102.501152 0h-1.011525a181.737241 181.737241 0 0 1-25.288113-8.991329 208.486445 208.486445 0 0 1-23.489848-11.801119 112.391615 112.391615 0 0 1-38.887498-36.302492 65.524311 65.524311 0 0 1-8.991329-25.400505 69.345626 69.345626 0 0 1 2.023049-26.412029 124.417517 124.417517 0 0 1 24.38898-44.282296 120.596202 120.596202 0 0 0-19.106574 45.630995 56.195807 56.195807 0 0 0 11.239161 44.956646A101.152453 101.152453 0 0 0 600.277049 685.813632a193.875535 193.875535 0 0 0 44.956646 14.048952h-1.348699a276.37098 276.37098 0 0 0 92.835473-8.429371 124.979475 124.979475 0 0 0 38.662716-18.7694 86.204368 86.204368 0 0 0 25.625288-30.795302 146.109099 146.109099 0 0 0 9.890462-83.169795 302.558226 302.558226 0 0 0-9.216113-44.169905c-2.135441-7.193063-4.383273-14.498518-6.96828-21.691581l-3.933706-10.564812c-1.348699-3.259357-2.922182-7.193063-4.270882-9.665679l54.734717-22.478323z" fill="#FFE045" /><path d="M1466.479222 413.376358c-130.14949 0-240.518055-75.302382-259.849412-88.901767-2.697399 0-5.507189-1.123916-8.092197-1.798266a104.299418 104.299418 0 0 1-57.544506-182.41159 107.671167 107.671167 0 0 1 178.702667-98.567446 126.552958 126.552958 0 0 1 36.1901-11.239161 117.336846 117.336846 0 0 1 19.780924-1.573483A123.630776 123.630776 0 0 1 1437.145011 258.725497c23.040281 51.138185 65.187136 76.988256 125.31665 76.988256a254.005049 254.005049 0 0 0 83.394578-15.060477l79.685655-31.694435-66.311053 54.509933a293.342114 293.342114 0 0 1-192.751619 69.795193z" fill="#CE111B" /><path d="M1246.978399 27.198771A94.746131 94.746131 0 0 1 1317.33555 58.780814a112.391615 112.391615 0 0 1 40.798156-15.285259 119.584678 119.584678 0 0 1 17.870267-1.3487 110.031391 110.031391 0 0 1 44.057513 210.734278c29.22182 78.67413 89.913292 96.76918 142.512567 96.76918a268.278784 268.278784 0 0 0 88.4522-15.959609 284.350785 284.350785 0 0 1-184.659422 66.311052c-137.11777 0-254.342224-88.339809-254.342224-88.339809a50.351443 50.351443 0 0 1-11.239161-2.135441 90.812425 90.812425 0 0 1-44.956646-163.754582 94.071781 94.071781 0 0 1 61.028647-113.515531 83.731753 83.731753 0 0 1 29.783777-5.282406m0-26.973987a122.844035 122.844035 0 0 0-38.662715 6.406322A121.382944 121.382944 0 0 0 1126.269805 135.094721a117.561629 117.561629 0 0 0 69.57041 200.394248 40.798156 40.798156 0 0 0 5.057622 1.123917c25.850071 18.207442 136.106245 89.913292 265.131819 89.913291a309.301723 309.301723 0 0 0 201.967731-72.267808l133.521238-109.694216-160.495225 64.063221a238.832181 238.832181 0 0 1-78.67413 14.048951c-50.688618 0-86.31676-19.331358-107.783559-58.780814a137.005378 137.005378 0 0 0-78.67413-248.947426 161.50675 161.50675 0 0 0-22.478323 1.685874 132.622105 132.622105 0 0 0-32.03161 9.328504A121.944902 121.944902 0 0 0 1246.978399 0.224783z" fill="#FFE045" /><path d="M1421.297793 255.690923a113.065964 113.065964 0 0 1-11.239161 5.731972c52.037318 139.140819 205.451871 89.913292 228.154977 81.933487l12.47547-9.665678s-172.071562 68.22171-229.616069-78.674131z m-213.544067-214.892767a94.296565 94.296565 0 0 1 100.028537 26.861596 109.806607 109.806607 0 0 1 135.656678 171.172429 110.031391 110.031391 0 0 0-85.192843-195.336626A106.772034 106.772034 0 0 0 1317.33555 58.668423a94.184173 94.184173 0 0 0-138.129294-2.247833 93.846998 93.846998 0 0 1 28.097903-15.622434z m-61.028647 113.515531l-1.573483 1.573482a9.77807 9.77807 0 0 1 1.123917-1.573482z" fill="#FF2528" /><path d="M1446.81069 276.37098c-7.305455 2.80979-13.486994 4.832839-20.230491 6.855889s-13.374602 3.48414-20.455274 4.608056a180.950499 180.950499 0 0 1-42.146855 3.034573 94.858523 94.858523 0 0 1-42.371639-11.913511 73.728899 73.728899 0 0 1-29.783778-32.818351 111.155307 111.155307 0 0 1-9.440895-40.910548 153.526945 153.526945 0 0 1 0-20.342882 106.210076 106.210076 0 0 1 1.910657-10.564812c0.899133-3.259357 2.023049-6.631105 3.146965-9.890462a71.256284 71.256284 0 0 1 9.778071-18.207441 39.786632 39.786632 0 0 1 16.521567-12.925036 34.841401 34.841401 0 0 1 20.230491-1.798266 69.795193 69.795193 0 0 1 18.657008 6.631105 62.939304 62.939304 0 0 0-18.881791-4.270881 33.717484 33.717484 0 0 0-17.982659 3.821315 43.383163 43.383163 0 0 0-19.106574 29.558994c-0.67435 3.146965-1.348699 6.181539-1.798266 8.99133a63.726045 63.726045 0 0 0-0.67435 8.878937 177.466359 177.466359 0 0 0 1.798266 18.657008 98.567446 98.567446 0 0 0 11.239162 33.717485 53.723192 53.723192 0 0 0 23.939414 22.478322 72.492591 72.492591 0 0 0 33.717484 5.619581 155.325211 155.325211 0 0 0 35.403358-5.844364c5.844364-1.798266 11.239161-3.596532 17.308309-5.731972s11.239161-4.608056 16.184393-7.080672l13.711777 29.22182z" fill="#FFE045" /></svg>