<svg xmlns="http://www.w3.org/2000/svg" viewBox="0 0 1024 1024" width="200" height="200"><path d="M512 832a149.333333 149.333333 0 1 0 0-298.666667 149.333333 149.333333 0 0 0 0 298.666667z m0-56a112 112 0 1 1 0-224 112 112 0 0 1 0 224z" fill="#FFC09C" /><path d="M618.666667 576c74.666667 96 51.776 163.157333 32 202.666667-28.16 56.256-90.24 74.666667-138.666667 74.666666-82.474667 0-149.333333-62.08-149.333333-138.666666C394.666667 768 480 832 597.333333 768c106.666667-74.666667 21.333333-192 21.333334-192z" fill="#FFA06A" /><path d="M573.504 570.389333A112 112 0 1 1 512 552c22.72 0 43.861333 6.762667 61.504 18.389333z m11.008-18.304A148.650667 148.650667 0 0 0 512 533.333333a149.290667 149.290667 0 0 0-149.333333 149.333334 149.333333 149.333333 0 1 0 221.845333-130.581334zM682.666667 682.666667a170.666667 170.666667 0 1 1-341.333334 0 170.666667 170.666667 0 0 1 341.333334 0z m-170.666667 72a90.666667 90.666667 0 1 0 0-181.333334 90.666667 90.666667 0 0 0 0 181.333334z" fill="#000000" /><path d="M570.410667 346.986667c14.037333 33.386667 17.664 61.525333 52.352 84.288 1.344 0.874667 2.688 1.856 3.904 2.901333 41.002667 35.2 52.394667 63.488 55.573333 76.48a12.992 12.992 0 0 1-4.266667 13.504C665.344 534.4 625.92 554.666667 512 554.666667c-113.941333 0-153.344-20.266667-165.973333-30.506667a12.970667 12.970667 0 0 1-4.266667-13.504c3.2-13.013333 14.72-41.429333 56.149333-77.077333 1.28-1.088 2.666667-2.090667 4.074667-3.008C436.010667 408.448 476.586667 385.514667 490.666667 352c11.882667-28.266667-18.688-53.973333-18.688-82.453333 0-40.064 29.930667-56.213333 72.021333-56.213334 0 0 45.12 11.136 45.12 51.2 0 28.48-30.570667 54.186667-18.709333 82.453334z" fill="#8BF8FF" /><path d="M659.989333 510.677333C646.826667 518.378667 608.704 533.333333 512 533.333333c-96.661333 0-134.826667-14.933333-147.968-22.634666 3.968-11.093333 15.317333-33.024 47.786667-60.949334a17.344 17.344 0 0 1 1.792-1.28c34.304-22.314667 45.482667-51.690667 55.509333-78.08 1.962667-5.184 3.904-10.24 5.952-15.146666 9.792-23.317333 1.066667-44.586667-5.141333-58.24l-3.456-7.402667a183.893333 183.893333 0 0 1-5.312-11.904c-2.218667-5.674667-3.114667-9.813333-3.114667-13.162667 0-27.306667 23.552-51.2 54.869333-51.2 31.296 0 54.869333 23.893333 54.869334 51.2 0 3.370667-0.917333 7.488-3.136 13.162667-1.578667 4.053333-3.285333 7.658667-5.290667 11.904-1.066667 2.24-2.218667 4.650667-3.456 7.402667-6.229333 13.653333-14.933333 34.922667-5.141333 58.24 2.218667 5.290667 4.245333 10.901333 6.357333 16.704 9.258667 25.536 19.882667 54.826667 53.952 77.162666 0.832 0.554667 1.386667 0.981333 1.706667 1.258667 32.064 27.52 43.285333 49.28 47.210666 60.309333z m-81.92-143.893333c-2.346667-6.4-4.778667-12.970667-7.658666-19.797333-6.848-16.341333 0.448-31.808 7.850666-47.466667 5.397333-11.434667 10.858667-22.954667 10.858667-34.986667 0-40.064-34.133333-72.533333-76.202667-72.533333-42.090667 0-76.202667 32.469333-76.202666 72.533333 0 12.032 5.44 23.552 10.837333 34.986667 7.402667 15.658667 14.72 31.146667 7.850667 47.466667-2.496 5.909333-4.693333 11.648-6.826667 17.216-10.026667 25.984-18.56 48.149333-46.592 66.368-1.408 0.917333-2.794667 1.92-4.053333 2.986666-41.472 35.669333-52.970667 64.085333-56.170667 77.098667a12.970667 12.970667 0 0 0 4.266667 13.504c12.629333 10.24 52.032 30.506667 165.973333 30.506667 113.92 0 153.344-20.266667 165.973333-30.506667a12.992 12.992 0 0 0 4.266667-13.504c-3.178667-13.013333-14.570667-41.28-55.573333-76.48a38.208 38.208 0 0 0-3.904-2.901333c-27.605333-18.112-35.541333-39.637333-44.693334-64.490667z" fill="#000000" /><path d="M320 480c-11.157333-40.106667 38.698667-52.416 109.034667-43.776 5.482667 0.682667 11.114667 0.490667 16.384-1.130667 29.162667-9.024-1.216-12.693333 66.581333-12.693333 73.130667 0 120.106667-9.578667 175.786667-16.405333 43.861333-5.376 84.309333 16.405333 79.978666 56.896C755.626667 576 618.645333 576 512 576c-106.666667 0-168.256-10.666667-192-96z" fill="#FFADD4" /><path d="M565.333333 533.333333c32-10.666667 149.333333-32 106.666667-106.666666 0-31.445333 113.301333-11.392 83.434667 51.84a101.546667 101.546667 0 0 0-2.986667 6.933333C707.392 603.52 426.666667 565.333333 426.666667 565.333333s106.666667-21.333333 138.666666-32z" fill="#E75D9F" /><path d="M277.76 463.658667l-0.277333-1.045334c-1.728-6.250667-1.152-10.794667 0.234666-14.229333 1.493333-3.626667 4.416-7.445333 9.450667-10.944 10.389333-7.253333 27.605333-11.584 46.592-9.301333 10.922667 1.322667 21.717333 2.752 32.64 4.181333 42.24 5.610667 86.122667 11.413333 145.6 11.413333 57.92 0 100.501333-5.930667 141.930667-11.690666 12.138667-1.685333 24.170667-3.349333 36.437333-4.864 18.112-2.218667 33.856 1.429333 43.818667 7.914666 9.066667 5.930667 13.589333 14.08 12.373333 25.536-2.624 24.32-10.752 41.024-22.016 53.098667-11.52 12.309333-27.733333 21.333333-48.853333 27.712-43.264 13.013333-100.608 13.226667-163.690667 13.226667-9.728 0-19.264 0.064-28.586667 0.128-50.602667 0.298667-95.146667 0.576-131.2-8.874667-20.565333-5.418667-36.650667-13.696-48.64-25.813333-11.818667-12.010667-21.12-29.269333-25.6-55.381334l-0.213333-1.066666z m58.56-56.704c-46.186667-5.546667-90.986667 19.712-79.381333 61.397333 18.816 109.205333 117.248 108.522667 227.306666 107.776 9.173333-0.064 18.453333-0.128 27.754667-0.128 124.010667 0 243.648 0 255.765333-113.109333 4.330667-40.490667-36.117333-62.272-80-56.896-12.8 1.578667-25.152 3.306667-37.461333 5.013333-41.173333 5.717333-81.984 11.392-138.304 11.392-57.941333 0-100.224-5.589333-142.336-11.157333-11.029333-1.472-22.058667-2.922667-33.344-4.266667z" fill="#000000" /><path d="M362.922667 456.853333a10.666667 10.666667 0 0 1 13.226666-7.253333l-2.986666 10.24 2.986666-10.24 0.042667 0.021333 0.234667 0.064 0.981333 0.277334 3.84 1.002666c3.392 0.810667 8.213333 1.92 14.016 2.986667 11.690667 2.133333 26.944 4.096 41.856 3.541333a10.666667 10.666667 0 0 1 0.789333 21.333334c-17.066667 0.618667-34.005333-1.6-46.506666-3.904a263.424 263.424 0 0 1-20.778667-4.693334l-0.32-0.106666-0.106667-0.021334s-0.042667 0 2.965334-10.24l-2.986667 10.24a10.666667 10.666667 0 0 1-7.253333-13.248zM516.544 236.565333l-4.48-9.685333h-0.042667l-0.085333 0.042667-0.234667 0.128a51.477333 51.477333 0 0 0-3.413333 1.792c-2.133333 1.173333-5.056 2.922667-8.085333 5.184-5.461333 4.053333-13.909333 11.52-15.936 22.058666a10.666667 10.666667 0 1 0 20.949333 4.010667c0.405333-2.069333 2.837333-5.333333 7.68-8.917333a54.72 54.72 0 0 1 7.594667-4.693334l0.426666-0.213333 0.106667-0.042667a10.666667 10.666667 0 1 0-8.96-19.349333l4.48 9.685333z" fill="#FFFFFF" /></svg>