<svg xmlns="http://www.w3.org/2000/svg" viewBox="0 0 1024 1024" width="200" height="200"><path d="M729.6 288v537.6H371.2V288h358.4z m-12.8 12.8H384v512h332.8V300.8z" fill="#000000" /><path d="M403.2 345.6h358.4v102.4H403.2z" fill="#FE506C" /><path d="M761.6 345.6v102.4H403.2V345.6h358.4z m-12.8 12.8H416v76.8h332.8V358.4zM556.8 480a19.2 19.2 0 0 1 19.2 19.2v230.4a19.2 19.2 0 0 1-38.4 0V499.2a19.2 19.2 0 0 1 19.2-19.2z m0 12.8a6.4 6.4 0 0 0-6.4 6.4v72.1152a12.8 12.8 0 0 0 0 22.1696V729.6a6.4 6.4 0 1 0 12.8 0l0.0064-136.1152a12.8 12.8 0 0 0 0-22.1696L563.2 499.2a6.4 6.4 0 0 0-6.4-6.4zM633.6 480a19.2 19.2 0 0 1 19.2 19.2v230.4a19.2 19.2 0 0 1-38.4 0V499.2a19.2 19.2 0 0 1 19.2-19.2z m0 12.8a6.4 6.4 0 0 0-6.4 6.4v155.3152a12.8 12.8 0 0 0 0 22.1696V729.6a6.4 6.4 0 1 0 12.8 0l0.0064-52.9152a12.8 12.8 0 0 0 0-22.1696L640 499.2a6.4 6.4 0 0 0-6.4-6.4z" fill="#000000" /><path d="M556.8 544a38.4 38.4 0 1 1 0 76.8 38.4 38.4 0 0 1 0-76.8z m0 25.6a12.8 12.8 0 1 0 0 25.6 12.8 12.8 0 0 0 0-25.6zM633.6 627.2a38.4 38.4 0 1 1 0 76.8 38.4 38.4 0 0 1 0-76.8z m0 25.6a12.8 12.8 0 1 0 0 25.6 12.8 12.8 0 0 0 0-25.6z" fill="#4B1820" /><path d="M556.8 544a38.4 38.4 0 1 1 0 76.8 38.4 38.4 0 0 1 0-76.8z m0 12.8a25.6 25.6 0 1 0 0 51.2 25.6 25.6 0 0 0 0-51.2zM633.6 627.2a38.4 38.4 0 1 1 0 76.8 38.4 38.4 0 0 1 0-76.8z m0 12.8a25.6 25.6 0 1 0 0 51.2 25.6 25.6 0 0 0 0-51.2z" fill="#000000" /><path d="M736 204.8a51.2 51.2 0 0 1 51.2 51.2v588.8a51.2 51.2 0 0 1-51.2 51.2H364.8a51.2 51.2 0 0 1-51.2-51.2v-144c4.4352 0 8.7296-0.6016 12.8-1.728V844.8a38.4 38.4 0 0 0 38.4 38.4h371.2a38.4 38.4 0 0 0 38.4-38.4V256a38.4 38.4 0 0 0-38.4-38.4H364.8a38.4 38.4 0 0 0-38.4 38.4v350.528a48.0512 48.0512 0 0 0-12.8-1.728V256a51.2 51.2 0 0 1 51.2-51.2h371.2z" fill="#000000" /><path d="M579.2 832a22.4 22.4 0 1 1 0 44.8h-57.6a22.4 22.4 0 1 1 0-44.8h57.6z m0 12.8h-57.6a9.6 9.6 0 0 0 0 19.2h57.6a9.6 9.6 0 0 0 0-19.2z" fill="#000000" /><path d="M492.8 243.2m9.6 0l57.6 0q9.6 0 9.6 9.6l0 0q0 9.6-9.6 9.6l-57.6 0q-9.6 0-9.6-9.6l0 0q0-9.6 9.6-9.6Z" fill="#000000" /><path d="M582.4 243.2m9.6 0l0 0q9.6 0 9.6 9.6l0 0q0 9.6-9.6 9.6l0 0q-9.6 0-9.6-9.6l0 0q0-9.6 9.6-9.6Z" fill="#000000" /><path d="M678.4 275.2a32 32 0 0 1-11.6352-61.824 32 32 0 0 1 44.1024-37.7088 48 48 0 0 1 95.4368 3.6288A48 48 0 0 1 806.4 275.0976L806.4 275.2h-128z" fill="#FFDD33" /><path d="M758.4 134.4a48 48 0 0 1 47.904 44.896A48 48 0 0 1 806.4 275.0976L806.4 275.2h-128a32 32 0 0 1-11.6352-61.824 32 32 0 0 1 44.1024-37.7088A48 48 0 0 1 758.4 134.4z m0 12.8a35.2 35.2 0 0 0-34.8544 30.2464l-2.3808 16.992-15.6096-7.1232a19.2 19.2 0 0 0-26.4576 22.624l3.1104 11.1552-10.784 4.2112A19.2128 19.2128 0 0 0 678.4 262.4h125.9008l1.2608-0.0768a35.2 35.2 0 0 0 32.8064-33.664L838.4 227.2a35.2 35.2 0 0 0-32.9152-35.1296l-11.2384-0.7168-0.7168-11.2384a35.2 35.2 0 0 0-32.224-32.7936l-1.4464-0.0896L758.4 147.2z" fill="#000000" /><path d="M288 320v28.5312a63.6032 63.6032 0 0 1 10.4064 4.3136l20.1728-20.1792 27.1552 27.1552-20.1792 20.1728c1.728 3.3088 3.1808 6.784 4.3136 10.4064H358.4v38.4h-28.5312a63.6032 63.6032 0 0 1-4.3136 10.4064l20.1792 20.1728-27.1552 27.1552-20.1728-20.1792c-3.3088 1.728-6.784 3.1744-10.4 4.3136L288 499.2h-38.4v-28.5312a63.6032 63.6032 0 0 1-10.4064-4.3136l-20.1728 20.1792-27.1552-27.1552 20.1792-20.1728A63.6032 63.6032 0 0 1 207.7312 428.8L179.2 428.8v-38.4h28.5312a63.6032 63.6032 0 0 1 4.3136-10.4064l-20.1792-20.1728 27.1552-27.1552 20.1728 20.1792A63.6032 63.6032 0 0 1 249.6 348.5312V320h38.4z m-19.2 57.6a32 32 0 1 0 0 64 32 32 0 0 0 0-64zM339.2 518.4v41.856a95.36 95.36 0 0 1 18.8032 7.4048l30.272-30.2592 40.7232 40.7296-30.2592 30.272c2.592 4.96 4.7616 10.176 6.464 15.6032L444.8 624v57.6h-39.5968a95.3984 95.3984 0 0 1-6.464 15.6032l30.2592 30.272-40.7296 40.7232-30.272-30.2592a95.36 95.36 0 0 1-18.7904 7.4112L339.2 787.2h-57.6v-43.8656a95.4496 95.4496 0 0 1-12.4032-5.3952l-30.272 30.2592-40.7232-40.7296 30.2592-30.272a95.3984 95.3984 0 0 1-6.464-15.5968H176v-57.6h45.9904c1.7088-5.4208 3.8784-10.6368 6.4704-15.6032l-30.2592-30.272 40.7296-40.7232 30.272 30.2592A95.4496 95.4496 0 0 1 281.6 562.2656V518.4h57.6z m-25.6 86.4a48 48 0 1 0 0 96 48 48 0 0 0 0-96z" fill="#00C7FE" /><path d="M288 320v28.5312a63.6032 63.6032 0 0 1 10.4064 4.3136l20.1728-20.1792 27.1552 27.1552-20.1792 20.1728c1.728 3.3088 3.1808 6.784 4.3136 10.4064H358.4v38.4h-28.5312a63.6032 63.6032 0 0 1-4.3136 10.4064l20.1792 20.1728-27.1552 27.1552-20.1728-20.1792c-3.3088 1.728-6.784 3.1744-10.4 4.3136L288 499.2h-38.4v-28.5312a63.6032 63.6032 0 0 1-10.4064-4.3136l-20.1728 20.1792-27.1552-27.1552 20.1792-20.1728A63.6032 63.6032 0 0 1 207.7312 428.8L179.2 428.8v-38.4h28.5312a63.6032 63.6032 0 0 1 4.3136-10.4064l-20.1792-20.1728 27.1552-27.1552 20.1728 20.1792A63.6032 63.6032 0 0 1 249.6 348.5312V320h38.4z m-12.8 12.8h-12.8064L262.4 348.5312v9.3952l-8.96 2.816c-2.88 0.896-5.6512 2.0544-8.32 3.4432l-8.3264 4.352-17.7728-17.7664-9.0496 9.0496 17.7728 17.7728-4.352 8.3328c-1.3952 2.6624-2.5472 5.44-3.456 8.3072L217.1264 403.2h-9.3888L192 403.2V416h15.7312l9.3952 0.0064 2.816 8.96c0.896 2.8736 2.0544 5.6512 3.4432 8.3072l4.352 8.3328-17.7664 17.7728 9.0496 9.0496 17.7728-17.7728 8.3328 4.352c2.6624 1.3952 5.44 2.5472 8.3072 3.456l8.9664 2.816v9.3888L262.4 486.4H275.2v-15.7312l0.0064-9.3952 8.96-2.816c2.8736-0.896 5.6512-2.0544 8.3072-3.4432l8.3328-4.352 17.7728 17.7664 9.0496-9.0496-17.7728-17.7728 4.352-8.3328c1.3952-2.656 2.5472-5.44 3.4496-8.3072l2.816-8.96h9.3952L345.6 416v-12.8064L329.8688 403.2h-9.3952l-2.816-8.96a50.8032 50.8032 0 0 0-3.4432-8.32L309.8624 377.6l17.7664-17.7728-9.0496-9.0496-17.7728 17.7728-8.3328-4.352a50.8032 50.8032 0 0 0-8.3072-3.4496l-8.96-2.816v-9.3952L275.2 332.8zM339.2 518.4v41.856a95.36 95.36 0 0 1 18.8032 7.4048l30.272-30.2592 40.7232 40.7296-30.2592 30.272c2.592 4.96 4.7616 10.176 6.464 15.6032L444.8 624v57.6h-39.5968a95.3984 95.3984 0 0 1-6.464 15.6032l30.2592 30.272-40.7296 40.7232-30.272-30.2592a95.36 95.36 0 0 1-18.7904 7.4112L339.2 787.2h-57.6v-43.8656a95.4496 95.4496 0 0 1-12.4032-5.3952l-30.272 30.2592-40.7232-40.7296 30.2592-30.272a95.3984 95.3984 0 0 1-6.464-15.5968H176v-57.6h45.9904c1.7088-5.4208 3.8784-10.6368 6.4704-15.6032l-30.2592-30.272 40.7296-40.7232 30.272 30.2592A95.4496 95.4496 0 0 1 281.6 562.2656V518.4h57.6z m-12.8 12.8h-32.0064v40.1152l-8.5312 3.0144c-3.6864 1.3056-7.2704 2.8672-10.7328 4.672l-8.3328 4.3584-6.6496-6.6432-21.2224-21.2224-22.6304 22.6304 21.2224 21.2224 6.6432 6.6496-4.352 8.3328a82.5984 82.5984 0 0 0-5.6 13.5104l-2.816 8.9664h-9.4016l-33.1904-0.0128v32.0064h42.592l2.816 8.96c1.4656 4.672 3.3408 9.1904 5.6 13.5104l4.352 8.3328-6.6432 6.6496-21.2224 21.216 22.6304 22.6304 21.2224-21.216 6.6496-6.6432 8.3328 4.352c3.456 1.8112 7.0464 3.3728 10.7328 4.672l8.5376 3.0208-0.0064 40.1152H326.4v-38.7968l9.3952-2.592a82.56 82.56 0 0 0 16.2752-6.4192l8.3328-4.352 6.6496 6.6432 21.216 21.216 22.6304-22.6304-21.216-21.216-6.6432-6.6496 4.352-8.3328c2.2592-4.32 4.1344-8.8384 5.6-13.504l2.816-8.96 36.192-0.0064v-32.0064l-26.7904 0.0128h-9.4016l-2.816-8.96a82.5984 82.5984 0 0 0-5.6-13.5168l-4.352-8.3328 6.6432-6.6496 21.216-21.2224-22.6304-22.6304-21.216 21.2224-6.6496 6.6432-8.3328-4.352a82.56 82.56 0 0 0-16.2752-6.4192l-9.3888-2.592L326.4 531.2z" fill="#000000" /><path d="M268.8 377.6a32 32 0 1 1 0 64 32 32 0 0 1 0-64z m0 12.8a19.2 19.2 0 1 0 0 38.4 19.2 19.2 0 0 0 0-38.4zM313.6 604.8a48 48 0 1 1 0 96 48 48 0 0 1 0-96z m0 12.8a35.2 35.2 0 1 0 0 70.4 35.2 35.2 0 0 0 0-70.4z" fill="#000000" /></svg>