<svg xmlns="http://www.w3.org/2000/svg" viewBox="0 0 1024 1024" width="200" height="200"><path d="M638.05 224.95c0-8.69 7.04-15.73 15.73-15.73h96.03c9.6 0 17.39-7.78 17.39-17.39 0-9.6-7.78-17.39-17.39-17.39H263.85c-9.6 0-17.39 7.78-17.39 17.39 0 9.6 7.78 17.39 17.39 17.39h53.81c8.69 0 15.73 7.04 15.73 15.73 0 8.69-7.04 15.73-15.73 15.73H177.75c-9.6 0-17.39 7.78-17.39 17.39 0 9.6 7.78 17.39 17.39 17.39h500.03c9.6 0 17.39-7.78 17.39-17.39 0-9.6-7.78-17.39-17.39-17.39h-24.01c-8.68 0-15.72-7.05-15.72-15.73zM816.05 473.95c0-8.69 7.04-15.73 15.73-15.73h96.03c9.6 0 17.39-7.78 17.39-17.39 0-9.6-7.78-17.39-17.39-17.39H441.85c-9.6 0-17.39 7.78-17.39 17.39 0 9.6 7.78 17.39 17.39 17.39h53.81c8.69 0 15.73 7.04 15.73 15.73 0 8.69-7.04 15.73-15.73 15.73H355.75c-9.6 0-17.39 7.78-17.39 17.39 0 9.6 7.78 17.39 17.39 17.39h500.03c9.6 0 17.39-7.78 17.39-17.39 0-9.6-7.78-17.39-17.39-17.39h-24.01c-8.68 0-15.72-7.05-15.72-15.73zM720.05 817.95c0-8.69 7.04-15.73 15.73-15.73h96.03c9.6 0 17.39-7.78 17.39-17.39 0-9.6-7.78-17.39-17.39-17.39H345.85c-9.6 0-17.39 7.78-17.39 17.39 0 9.6 7.78 17.39 17.39 17.39h53.81c8.69 0 15.73 7.04 15.73 15.73 0 8.69-7.04 15.73-15.73 15.73H259.75c-9.6 0-17.39 7.78-17.39 17.39 0 9.6 7.78 17.39 17.39 17.39h500.03c9.6 0 17.39-7.78 17.39-17.39 0-9.6-7.78-17.39-17.39-17.39h-24.01c-8.68 0-15.72-7.05-15.72-15.73z" fill="#ECF9FF" /><path d="M581.22 603.1m-17.81 0a17.81 17.81 0 1 0 35.62 0 17.81 17.81 0 1 0-35.62 0Z" fill="#FFDB56" /><path d="M577.62 632.99c-7.02 0-13.63-2.74-18.59-7.7-4.97-4.97-7.7-11.57-7.7-18.59s2.74-13.63 7.7-18.59c4.97-4.97 11.57-7.7 18.59-7.7s13.63 2.74 18.59 7.7c4.97 4.97 7.7 11.57 7.7 18.59s-2.74 13.63-7.7 18.59a26.136 26.136 0 0 1-18.59 7.7z m0-47.5c-5.67 0-10.99 2.21-14.99 6.21a21.05 21.05 0 0 0-6.21 14.99c0 5.67 2.21 10.99 6.21 14.99 4.01 4.01 9.33 6.21 15 6.21 5.66 0 10.99-2.21 14.99-6.21 4.01-4.01 6.21-9.33 6.21-15 0-5.66-2.21-10.99-6.21-14.99-4.01-3.99-9.34-6.2-15-6.2z" fill="#F76319" /><path d="M293.22 730.1m-17.81 0a17.81 17.81 0 1 0 35.62 0 17.81 17.81 0 1 0-35.62 0Z" fill="#FFDB56" /><path d="M289.62 759.99c-7.02 0-13.63-2.74-18.59-7.7-4.97-4.97-7.7-11.57-7.7-18.59s2.74-13.63 7.7-18.59c4.97-4.97 11.57-7.7 18.59-7.7s13.63 2.74 18.59 7.7c4.97 4.97 7.7 11.57 7.7 18.59s-2.74 13.63-7.7 18.59a26.136 26.136 0 0 1-18.59 7.7z m0-47.5c-5.66 0-10.99 2.21-14.99 6.21a21.05 21.05 0 0 0-6.21 14.99c0 5.67 2.21 10.99 6.21 14.99a21.05 21.05 0 0 0 14.99 6.21c5.66 0 10.99-2.21 14.99-6.21 4.01-4 6.21-9.33 6.21-14.99s-2.21-10.99-6.21-14.99-9.33-6.21-14.99-6.21z" fill="#F76319" /><path d="M377.22 131.1m-17.81 0a17.81 17.81 0 1 0 35.62 0 17.81 17.81 0 1 0-35.62 0Z" fill="#FFDB56" /><path d="M373.62 160.98c-6.73 0-13.47-2.56-18.59-7.69-10.25-10.25-10.25-26.93 0-37.19 10.25-10.25 26.93-10.25 37.19 0 10.25 10.25 10.25 26.93 0 37.19a26.268 26.268 0 0 1-18.6 7.69z m0-47.48c-5.43 0-10.86 2.07-14.99 6.2-8.27 8.27-8.27 21.72 0 29.99s21.72 8.27 29.99 0 8.27-21.72 0-29.99c-4.14-4.13-9.57-6.2-15-6.2z" fill="#F76319" /><path d="M709.22 865.1m-17.81 0a17.81 17.81 0 1 0 35.62 0 17.81 17.81 0 1 0-35.62 0Z" fill="#FFDB56" /><path d="M705.62 894.99c-7.02 0-13.63-2.74-18.59-7.7-4.97-4.97-7.7-11.57-7.7-18.59s2.74-13.63 7.7-18.59c4.97-4.97 11.57-7.7 18.59-7.7s13.63 2.74 18.59 7.7c4.97 4.97 7.7 11.57 7.7 18.59s-2.74 13.63-7.7 18.59a26.136 26.136 0 0 1-18.59 7.7z m0-47.5c-5.67 0-10.99 2.21-14.99 6.21a21.05 21.05 0 0 0-6.21 14.99c0 5.67 2.21 10.99 6.21 14.99 4.01 4.01 9.33 6.21 15 6.21 5.66 0 10.99-2.21 14.99-6.21 4.01-4.01 6.21-9.33 6.21-15 0-5.66-2.21-10.99-6.21-14.99-4.01-3.99-9.34-6.2-15-6.2zM886.87 346.7h-17.5v-17.5c0-2.35-1.9-4.25-4.25-4.25s-4.25 1.9-4.25 4.25v17.5h-17.5c-2.35 0-4.25 1.9-4.25 4.25s1.9 4.25 4.25 4.25h17.5v17.5c0 2.35 1.9 4.25 4.25 4.25s4.25-1.9 4.25-4.25v-17.5h17.5c2.35 0 4.25-1.9 4.25-4.25s-1.9-4.25-4.25-4.25zM694.49 492.56l-12.37 12.37-12.37-12.37a4.249 4.249 0 1 0-6.01 6.01l12.37 12.37-12.37 12.37a4.249 4.249 0 1 0 6.01 6.01l12.37-12.37 12.37 12.37a4.249 4.249 0 1 0 6.01-6.01l-12.37-12.37 12.37-12.37a4.249 4.249 0 1 0-6.01-6.01z" fill="#F76319" /><path d="M242.49 790.56l-12.37 12.37-12.37-12.37a4.249 4.249 0 1 0-6.01 6.01l12.37 12.37-12.37 12.37a4.249 4.249 0 1 0 6.01 6.01l12.37-12.37 12.37 12.37a4.249 4.249 0 1 0 6.01-6.01l-12.37-12.37 12.37-12.37a4.249 4.249 0 1 0-6.01-6.01z" fill="#F76319" /><path d="M885.37 638.45m-32 0a32 32 0 1 0 64 0 32 32 0 1 0-64 0Z" fill="#66FF33" opacity=".51" /><path d="M193.37 680.45m-32 0a32 32 0 1 0 64 0 32 32 0 1 0-64 0Z" fill="#66FF33" opacity=".51" /><path d="M210.37 350.45m-32 0a32 32 0 1 0 64 0 32 32 0 1 0-64 0Z" fill="#6666FF" opacity=".51" /><path d="M759.37 298.45m-32 0a32 32 0 1 0 64 0 32 32 0 1 0-64 0Z" fill="#6666FF" opacity=".51" /><path d="M602.31 784.53h-353.6c-27.94 0-50.68-22.73-50.68-50.68s22.73-50.68 50.68-50.68c6.68 0 12.09 5.41 12.09 12.09s-5.41 12.09-12.09 12.09c-14.61 0-26.5 11.89-26.5 26.5s11.89 26.5 26.5 26.5h353.6c6.68 0 12.09 5.41 12.09 12.09s-5.42 12.09-12.09 12.09zM768.53 784.53h-76.95c-6.68 0-12.09-5.41-12.09-12.09s5.41-12.09 12.09-12.09h76.95c14.61 0 26.5-11.89 26.5-26.5s-11.89-26.5-26.5-26.5c-6.68 0-12.09-5.41-12.09-12.09s5.41-12.09 12.09-12.09c27.95 0 50.68 22.73 50.68 50.68s-22.74 50.68-50.68 50.68z" fill="#F76319" /><path d="M249.26 699.47c-12.41-32.02-18.7-65.82-18.7-100.45 0-74.27 28.92-144.1 81.44-196.62 52.52-52.52 122.35-81.44 196.62-81.44 74.27 0 144.1 28.92 196.62 81.44 52.52 52.52 81.44 122.35 81.44 196.62 0 33.06-5.75 65.42-17.08 96.17l-21.85-8.05c10.38-28.17 15.65-57.81 15.65-88.11 0-140.48-114.29-254.78-254.78-254.78-140.48 0-254.78 114.29-254.78 254.78 0 31.75 5.76 62.71 17.13 92.04l-21.71 8.4z" fill="#F76319" /><path d="M256.84 695.76m-14.88 0a14.88 14.88 0 1 0 29.76 0 14.88 14.88 0 1 0-29.76 0Z" fill="#F76319" /><path d="M759.18 695.76m-14.88 0a14.88 14.88 0 1 0 29.76 0 14.88 14.88 0 1 0-29.76 0Z" fill="#F76319" /><path d="M304.75 576.48c-0.94 0-1.89-0.11-2.84-0.34-6.49-1.56-10.48-8.09-8.92-14.58 18.12-75.21 72.02-137.03 144.17-165.35 6.21-2.44 13.23 0.62 15.67 6.84 2.44 6.21-0.62 13.23-6.84 15.67-64.81 25.44-113.22 80.96-129.5 148.51-1.34 5.53-6.29 9.25-11.74 9.25z" fill="#FFDB56" /><path d="M502.8 327.79c-25.04 0-45.41-20.37-45.41-45.41 0-25.04 20.37-45.41 45.41-45.41 25.04 0 45.41 20.37 45.41 45.41 0 25.04-20.37 45.41-45.41 45.41z m0-66.65c-11.71 0-21.24 9.53-21.24 21.24 0 11.71 9.53 21.24 21.24 21.24 11.71 0 21.24-9.53 21.24-21.24-0.01-11.71-9.53-21.24-21.24-21.24z" fill="#F76319" /><path d="M274.98 380.02c-4.43 0-8.7-2.45-10.81-6.68-1.39-2.77-33.52-68.23 2.85-100.06 18.82-16.47 3.69-63.73-3.09-78.98-2.71-6.1 0.04-13.25 6.14-15.96 6.1-2.71 13.24 0.04 15.96 6.14 0.33 0.74 8.06 18.28 12 39.43 7.19 38.65-4.23 58.07-15.08 67.57-22 19.25 2.6 70.55 2.86 71.06 2.97 5.97 0.54 13.23-5.43 16.21a12.21 12.21 0 0 1-5.4 1.27z" fill="#FFDB56" /><path d="M334.5 366.08c-4.43 0-8.7-2.45-10.82-6.69-1.39-2.77-33.52-68.23 2.85-100.06 18.74-16.4 3.67-63.71-3.09-78.99-2.7-6.1 0.05-13.24 6.15-15.95 6.1-2.7 13.23 0.04 15.94 6.14 0.33 0.74 8.06 18.28 12 39.43 7.19 38.65-4.23 58.08-15.08 67.57-18.55 16.23-3.78 57.77 2.85 71.05 2.99 5.97 0.57 13.23-5.41 16.22-1.73 0.87-3.57 1.28-5.39 1.28zM752.94 380.03c-1.82 0-3.66-0.41-5.4-1.28-5.97-2.99-8.39-10.25-5.41-16.22 0.25-0.5 24.85-51.8 2.85-71.05-10.85-9.49-22.27-28.92-15.08-67.57 3.93-21.15 11.67-38.69 12-39.43 2.71-6.1 9.86-8.85 15.96-6.14 6.1 2.71 8.85 9.85 6.14 15.95-6.76 15.28-21.83 62.6-3.09 78.99 36.37 31.82 4.24 97.28 2.85 100.06-2.11 4.24-6.38 6.69-10.82 6.69z" fill="#F76319" /><path d="M693.43 366.08c-1.82 0-3.66-0.41-5.4-1.28-5.97-2.99-8.39-10.25-5.41-16.22 0.25-0.5 24.85-51.8 2.85-71.05-10.85-9.49-22.27-28.92-15.08-67.57 3.93-21.15 11.67-38.69 12-39.43 2.71-6.1 9.85-8.85 15.96-6.14 6.1 2.71 8.85 9.86 6.14 15.96-6.76 15.29-21.82 62.59-3.09 78.98 36.37 31.82 4.24 97.28 2.85 100.06a12.09 12.09 0 0 1-10.82 6.69z" fill="#FFDB56" /></svg>