<svg xmlns="http://www.w3.org/2000/svg" viewBox="0 0 1024 1024" width="200" height="200"><path d="M938.696 144.738V808.64c0 22.212-17.99 40.202-40.202 40.202H40.202C17.99 848.84 0 830.85 0 808.64V144.738c0-22.212 17.99-40.202 40.202-40.202h858.294c22.21 0 40.2 17.99 40.2 40.202z" fill="#E8E4D8" /><path d="M938.696 144.738V808.64c0 22.212-17.99 40.202-40.202 40.202H40.202C17.99 848.84 0 830.85 0 808.64v-87.68c77.448 44.322 167.176 69.648 262.794 69.648 292.684 0 529.972-237.268 529.972-529.952 0-54.332-8.18-106.774-23.376-156.122h129.106c22.21 0.002 40.2 17.992 40.2 40.204z" fill="#D8D4C9" /><path d="M938.696 341.1v467.54c0 22.212-17.99 40.202-40.202 40.202h-138.412v-173.206c96.302-83.62 162.132-201.43 178.614-334.536z" fill="#B5B1A4" /><path d="M162.032 362.066m-45.338 0a45.338 45.338 0 1 0 90.676 0 45.338 45.338 0 1 0-90.676 0Z" fill="#FE255F" /><path d="M162.032 344.392m-27.664 0a27.664 27.664 0 1 0 55.328 0 27.664 27.664 0 1 0-55.328 0Z" fill="#FC709B" /><path d="M315.69 362.066m-45.338 0a45.338 45.338 0 1 0 90.676 0 45.338 45.338 0 1 0-90.676 0Z" fill="#706C64" /><path d="M315.69 344.392m-27.664 0a27.664 27.664 0 1 0 55.328 0 27.664 27.664 0 1 0-55.328 0Z" fill="#8F8B81" /><path d="M469.348 362.066m-45.338 0a45.338 45.338 0 1 0 90.676 0 45.338 45.338 0 1 0-90.676 0Z" fill="#706C64" /><path d="M469.348 344.392m-27.664 0a27.664 27.664 0 1 0 55.328 0 27.664 27.664 0 1 0-55.328 0Z" fill="#8F8B81" /><path d="M623.006 362.066m-45.338 0a45.338 45.338 0 1 0 90.676 0 45.338 45.338 0 1 0-90.676 0Z" fill="#706C64" /><path d="M623.006 344.392m-27.664 0a27.664 27.664 0 1 0 55.328 0 27.664 27.664 0 1 0-55.328 0Z" fill="#8F8B81" /><path d="M776.664 362.066m-45.338 0a45.338 45.338 0 1 0 90.676 0 45.338 45.338 0 1 0-90.676 0Z" fill="#706C64" /><path d="M776.664 344.392m-27.664 0a27.664 27.664 0 1 0 55.328 0 27.664 27.664 0 1 0-55.328 0Z" fill="#8F8B81" /><path d="M162.032 479.706m-45.338 0a45.338 45.338 0 1 0 90.676 0 45.338 45.338 0 1 0-90.676 0Z" fill="#FE255F" /><path d="M162.032 462.03m-27.664 0a27.664 27.664 0 1 0 55.328 0 27.664 27.664 0 1 0-55.328 0Z" fill="#FC709B" /><path d="M315.69 479.706m-45.338 0a45.338 45.338 0 1 0 90.676 0 45.338 45.338 0 1 0-90.676 0Z" fill="#706C64" /><path d="M315.69 462.03m-27.664 0a27.664 27.664 0 1 0 55.328 0 27.664 27.664 0 1 0-55.328 0Z" fill="#8F8B81" /><path d="M469.348 479.706m-45.338 0a45.338 45.338 0 1 0 90.676 0 45.338 45.338 0 1 0-90.676 0Z" fill="#706C64" /><path d="M469.348 462.03m-27.664 0a27.664 27.664 0 1 0 55.328 0 27.664 27.664 0 1 0-55.328 0Z" fill="#8F8B81" /><path d="M623.006 479.706m-45.338 0a45.338 45.338 0 1 0 90.676 0 45.338 45.338 0 1 0-90.676 0Z" fill="#706C64" /><path d="M623.006 462.03m-27.664 0a27.664 27.664 0 1 0 55.328 0 27.664 27.664 0 1 0-55.328 0Z" fill="#8F8B81" /><path d="M776.664 479.706m-45.338 0a45.338 45.338 0 1 0 90.676 0 45.338 45.338 0 1 0-90.676 0Z" fill="#706C64" /><path d="M776.664 462.03m-27.664 0a27.664 27.664 0 1 0 55.328 0 27.664 27.664 0 1 0-55.328 0Z" fill="#8F8B81" /><path d="M162.032 597.344m-45.338 0a45.338 45.338 0 1 0 90.676 0 45.338 45.338 0 1 0-90.676 0Z" fill="#FE255F" /><path d="M162.032 579.67m-27.664 0a27.664 27.664 0 1 0 55.328 0 27.664 27.664 0 1 0-55.328 0Z" fill="#FC709B" /><path d="M315.69 597.344m-45.338 0a45.338 45.338 0 1 0 90.676 0 45.338 45.338 0 1 0-90.676 0Z" fill="#706C64" /><path d="M315.69 579.67m-27.664 0a27.664 27.664 0 1 0 55.328 0 27.664 27.664 0 1 0-55.328 0Z" fill="#8F8B81" /><path d="M938.696 144.738v115.92H0v-115.92c0-22.212 17.99-40.202 40.202-40.202h858.294c22.21 0 40.2 17.99 40.2 40.202z" fill="#FE255F" /><path d="M673.142 153.426c0-27-21.888-48.89-48.89-48.89H129.538c-27 0-48.89 21.888-48.89 48.89 0 27 21.888 48.89 48.89 48.89h494.714c27.002 0 48.89-21.89 48.89-48.89z" fill="#FC709B" /><path d="M439.706 104.536H222.784c-27 0-48.89 21.888-48.89 48.89 0 27 21.888 48.89 48.89 48.89h216.922c27 0 48.89-21.888 48.89-48.89 0-27-21.89-48.89-48.89-48.89z" fill="#F7A6C1" /><path d="M330.92 104.536h-40.146c-27 0-48.89 21.888-48.89 48.89 0 27 21.888 48.89 48.89 48.89h40.146c27 0 48.89-21.888 48.89-48.89 0-27-21.89-48.89-48.89-48.89z" fill="#FFC2D9" /><path d="M111.998 611.526V363.06c0-30.928-25.072-55.998-55.998-55.998-30.928 0-56 25.07-56 55.998v248.466c0 30.928 25.072 55.998 55.998 55.998 30.928 0.002 56-25.07 56-55.998z" fill="#F1EEE0" /><path d="M111.998 476.642v-69.676c0-30.928-25.072-55.998-55.998-55.998-30.928 0-56 25.07-56 55.998v69.676c0 30.928 25.072 55.998 55.998 55.998 30.928 0.002 56-25.07 56-55.998z" fill="#F9F8F2" /><path d="M807.914 703.378m-216.086 0a216.086 216.086 0 1 0 432.172 0 216.086 216.086 0 1 0-432.172 0Z" fill="#48ACFF" /><path d="M1023.99 703.374c0 119.338-96.726 216.084-216.084 216.084-96.064 0-177.478-62.668-205.578-149.38 35.168 53.146 95.486 88.206 164.006 88.206 108.512 0 196.482-87.97 196.482-196.504 0-68.498-35.06-128.818-88.228-163.984 86.712 28.078 149.402 109.516 149.402 205.578z" fill="#229BFF" /><path d="M809.04 703.378m-159.674 0a159.674 159.674 0 1 0 319.348 0 159.674 159.674 0 1 0-319.348 0Z" fill="#D8D4C9" /><path d="M777.832 674.768m-117.67 0a117.67 117.67 0 1 0 235.34 0 117.67 117.67 0 1 0-235.34 0Z" fill="#F1EEE0" /><path d="M822.002 697.274H796.08v-113.318a7.71 7.71 0 0 1 7.71-7.71h10.502a7.71 7.71 0 0 1 7.71 7.71z" fill="#FF993A" /><path d="M634.24 766.742c13.1-4.726 20.948-18.292 18.22-31.948a160.208 160.208 0 0 1-3.096-31.42c0-76.358 53.61-140.2 125.252-155.944 13.104-2.88 22.546-14.314 22.546-27.732 0-18.082-16.692-31.444-34.38-27.684-97.672 20.756-170.956 107.504-170.956 211.36 0 14.684 1.468 29.024 4.264 42.884 3.398 16.846 21.158 26.612 37.324 20.782l0.826-0.298z" fill="#7CBAF7" /><path d="M667.28 629.888a160.35 160.35 0 0 1 68.966-68.646c12.758-6.548 18.67-21.524 13.69-34.972l-0.198-0.534c-5.858-15.794-24.182-22.894-39.214-15.29a217.064 217.064 0 0 0-93.836 92.224c-8.714 16.51 0.344 36.83 18.436 41.434l0.586 0.15c12.59 3.202 25.582-2.838 31.57-14.366z" fill="#A9CFFC" /><path d="M930.966 803.698a160.786 160.786 0 0 1-19.656 20.356c-11.266 9.776-13.09 26.582-4.09 38.476l0.346 0.456c9.886 13.06 28.708 14.948 41.128 4.268a217.418 217.418 0 0 0 26.73-27.442c10.698-13.12 7.488-32.69-6.832-41.718l-0.606-0.382c-12.096-7.632-28.03-5.136-37.02 5.986z" fill="#48ACFF" /><path d="M914.208 718.342h-106.294v-29.93h106.294a7.71 7.71 0 0 1 7.71 7.71v14.51a7.708 7.708 0 0 1-7.71 7.71z" fill="#FF993A" /><path d="M809.04 703.378m-23.824 0a23.824 23.824 0 1 0 47.648 0 23.824 23.824 0 1 0-47.648 0Z" fill="#229BFF" /><path d="M809.04 694.09m-14.536 0a14.536 14.536 0 1 0 29.072 0 14.536 14.536 0 1 0-29.072 0Z" fill="#48ACFF" /><path d="M938.696 144.738v115.92h-145.93c0-54.332-8.18-106.774-23.376-156.122h129.106c22.21 0 40.2 17.99 40.2 40.202z" fill="#E01152" /><path d="M118.266 738.584c0 14.394 11.668 26.064 26.064 26.064h221.376c14.394 0 26.064-11.668 26.064-26.064 0-14.394-11.668-26.064-26.064-26.064H144.33c-14.394 0.002-26.064 11.67-26.064 26.064z" fill="#8F8B81" /><path d="M294.084 712.522H170.688c-14.394 0-26.064 11.668-26.064 26.064 0 14.394 11.668 26.064 26.064 26.064h123.396c14.394 0 26.064-11.668 26.064-26.064-0.002-14.396-11.67-26.064-26.064-26.064z" fill="#B5B1A4" /><path d="M256.738 712.522h-42.212c-14.394 0-26.064 11.668-26.064 26.064 0 14.394 11.668 26.064 26.064 26.064h42.212c14.394 0 26.064-11.668 26.064-26.064s-11.67-26.064-26.064-26.064z" fill="#D8D4C9" /></svg>