<svg xmlns="http://www.w3.org/2000/svg" viewBox="0 0 1024 1024" width="200" height="200"><path d="M790.186667 512c-5.12 0-8.533333-3.413333-8.533334-8.533333s3.413333-8.533333 8.533334-8.533334 8.533333 3.413333 8.533333 8.533334c0 3.413333-3.413333 8.533333-8.533333 8.533333z m25.6-10.24c0-5.12 3.413333-8.533333 6.826666-10.24 5.12 0 8.533333 3.413333 10.24 6.826667 0 5.12-3.413333 8.533333-6.826666 10.24h-1.706667c-3.413333 0-6.826667-3.413333-8.533333-6.826667z m-59.733334 6.826667c-5.12 0-8.533333-5.12-6.826666-10.24 0-5.12 5.12-8.533333 10.24-6.826667 5.12 0 8.533333 5.12 6.826666 10.24-1.706667 3.413333-5.12 6.826667-10.24 6.826667z m-34.133333-5.12c-5.12-1.706667-6.826667-5.12-6.826667-10.24 1.706667-5.12 5.12-6.826667 10.24-6.826667 5.12 1.706667 6.826667 5.12 6.826667 10.24-1.706667 3.413333-5.12 6.826667-8.533333 6.826667h-1.706667z m128-6.826667c-1.706667-5.12 1.706667-8.533333 5.12-10.24 5.12-1.706667 10.24 1.706667 10.24 5.12 1.706667 5.12-1.706667 8.533333-5.12 10.24h-1.706667c-3.413333 0-6.826667-1.706667-8.533333-5.12z m-162.133333-5.12c-5.12-1.706667-6.826667-5.12-5.12-10.24 1.706667-3.413333 6.826667-6.826667 11.946666-5.12 3.413333 1.706667 5.12 6.826667 3.413334 11.946667-1.706667 3.413333-5.12 5.12-8.533334 5.12 0 0-1.706667 0-1.706666-1.706667z m194.56-6.826667c-1.706667-3.413333 0-8.533333 3.413333-11.946666 3.413333-1.706667 8.533333 0 11.946667 3.413333 1.706667 3.413333 0 8.533333-3.413334 11.946667-1.706667 0-3.413333 1.706667-3.413333 1.706666-3.413333 0-6.826667-1.706667-8.533333-5.12z m-226.986667-8.533333c-3.413333-1.706667-5.12-8.533333-3.413333-11.946667 1.706667-3.413333 8.533333-5.12 11.946666-3.413333 3.413333 1.706667 5.12 6.826667 3.413334 11.946667-1.706667 3.413333-5.12 5.12-6.826667 5.12-1.706667 0-3.413333 0-5.12-1.706667z m256-8.533333c-3.413333-3.413333-1.706667-8.533333 1.706667-11.946667 3.413333-3.413333 8.533333-1.706667 11.946666 1.706667 3.413333 3.413333 1.706667 8.533333-1.706666 11.946666-1.706667 1.706667-3.413333 1.706667-5.12 1.706667-1.706667 0-5.12-1.706667-6.826667-3.413333z m-285.013333-11.946667c-3.413333-3.413333-3.413333-8.533333 0-11.946667 3.413333-3.413333 8.533333-3.413333 11.946666 0 3.413333 3.413333 3.413333 8.533333 0 11.946667-1.706667 1.706667-3.413333 3.413333-6.826666 3.413333 0-1.706667-3.413333-1.706667-5.12-3.413333z m310.613333-11.946667c-3.413333-3.413333-3.413333-8.533333-1.706667-11.946666 3.413333-3.413333 8.533333-3.413333 11.946667-1.706667 3.413333 3.413333 3.413333 8.533333 1.706667 11.946667-1.706667 1.706667-3.413333 3.413333-6.826667 3.413333-1.706667 1.706667-3.413333 0-5.12-1.706667z m-334.506667-15.36c-3.413333-3.413333-1.706667-8.533333 1.706667-11.946666 3.413333-3.413333 8.533333-1.706667 11.946667 1.706666 3.413333 3.413333 1.706667 8.533333-1.706667 11.946667-1.706667 1.706667-3.413333 1.706667-5.12 1.706667-1.706667 0-5.12 0-6.826667-3.413334z m-17.066666-30.72c-1.706667-3.413333 0-8.533333 3.413333-11.946666 3.413333-1.706667 8.533333 0 11.946667 3.413333 1.706667 3.413333 0 10.24-3.413334 11.946667-1.706667 0-1.706667 1.706667-3.413333 1.706666-5.12 0-8.533333-1.706667-8.533333-5.12z m-13.653334-32.426666c-1.706667-5.12 1.706667-8.533333 5.12-10.24 5.12-1.706667 8.533333 1.706667 10.24 5.12 1.706667 5.12-1.706667 8.533333-5.12 10.24H580.266667c-3.413333 1.706667-6.826667-1.706667-8.533334-5.12zM802.133333 599.04c-5.12 0-8.533333-5.12-8.533333-8.533333 0-5.12 5.12-8.533333 8.533333-8.533334 5.12 0 8.533333 5.12 8.533334 8.533334 0 5.12-3.413333 8.533333-8.533334 8.533333z m3.413334-34.133333c-5.12-1.706667-6.826667-5.12-6.826667-10.24 1.706667-5.12 5.12-6.826667 10.24-6.826667 5.12 1.706667 6.826667 5.12 6.826667 10.24 0 3.413333-3.413333 6.826667-8.533334 6.826667h-1.706666z m10.24-32.426667c-1.706667-3.413333-1.706667-8.533333 3.413333-11.946667 3.413333-1.706667 8.533333-1.706667 11.946667 3.413334 1.706667 3.413333 1.706667 8.533333-3.413334 11.946666-1.706667 0-3.413333 1.706667-3.413333 1.706667-3.413333 0-6.826667-1.706667-8.533333-5.12z m30.72-15.36c-3.413333-3.413333-1.706667-8.533333 1.706666-11.946667 3.413333-3.413333 8.533333-1.706667 11.946667 1.706667 3.413333 3.413333 1.706667 8.533333-1.706667 11.946667-1.706667 1.706667-3.413333 1.706667-5.12 1.706666-1.706667 0-5.12 0-6.826666-3.413333z" fill="#1A1A1A" /><path d="M49.493333 570.026667c-5.12 15.36-5.12 34.133333 0 58.026666 8.533333 34.133333 66.56 78.506667 267.946667 78.506667h626.346667c18.773333 0 34.133333-15.36 34.133333-34.133333V614.4H317.44c-136.533333 0-226.986667-15.36-267.946667-44.373333z" fill="#EB1A76" /><path d="M942.08 720.213333H315.733333c-226.986667 0-273.066667-56.32-279.893333-88.746666-5.12-25.6-5.12-47.786667 0-64.853334 1.706667-3.413333 5.12-6.826667 8.533333-8.533333s8.533333 0 11.946667 1.706667c39.253333 27.306667 126.293333 42.666667 259.413333 42.666666h660.48c6.826667 0 13.653333 6.826667 13.653334 13.653334v58.026666c0 23.893333-22.186667 46.08-47.786667 46.08zM58.026667 590.506667c0 10.24 0 20.48 3.413333 32.426666s27.306667 68.266667 254.293333 68.266667h626.346667c11.946667 0 20.48-8.533333 20.48-20.48v-44.373333H315.733333c-122.88 1.706667-208.213333-10.24-257.706666-35.84z" fill="#1A1A1A" /><path d="M974.506667 619.52H972.8c-6.826667-1.706667-11.946667-8.533333-11.946667-15.36 5.12-35.84 6.826667-73.386667 3.413334-109.226667-3.413333-30.72-13.653333-63.146667-34.133334-95.573333-49.493333 46.08-100.693333 69.973333-153.6 69.973333-56.32 0-107.52-37.546667-157.013333-112.64-88.746667 54.613333-175.786667 97.28-261.12 126.293334-75.093333 25.6-180.906667 40.96-226.986667 46.08l-10.24 1.706666c-30.72 5.12-49.493333 17.066667-56.32 39.253334-1.706667 6.826667-10.24 11.946667-17.066666 8.533333-6.826667-1.706667-11.946667-10.24-8.533334-17.066667 10.24-32.426667 37.546667-51.2 78.506667-58.026666l11.946667-1.706667c44.373333-6.826667 148.48-20.48 221.866666-44.373333 83.626667-30.72 174.08-75.093333 264.533334-131.413334 3.413333-1.706667 6.826667-3.413333 10.24-1.706666 3.413333 0 6.826667 3.413333 8.533333 6.826666 44.373333 75.093333 92.16 112.64 139.946667 112.64 49.493333 0 98.986667-25.6 146.773333-73.386666 3.413333-3.413333 6.826667-5.12 10.24-3.413334 3.413333 0 8.533333 1.706667 10.24 5.12 29.013333 42.666667 44.373333 83.626667 47.786667 122.88 3.413333 37.546667 1.706667 76.8-3.413334 116.053334 0 3.413333-6.826667 8.533333-11.946666 8.533333z" fill="#1A1A1A" /><path d="M327.68 718.506667c-6.826667 0-13.653333-6.826667-13.653333-13.653334v-80.213333l-81.92-116.053333c-5.12-6.826667-3.413333-15.36 3.413333-18.773334 6.826667-5.12 15.36-3.413333 18.773333 3.413334l85.333334 119.466666c1.706667 1.706667 1.706667 5.12 1.706666 8.533334v85.333333c0 5.12-6.826667 11.946667-13.653333 11.946667z" fill="#1A1A1A" /><path d="M327.68 506.88h-5.12c-6.826667-1.706667-10.24-10.24-8.533333-17.066667 10.24-29.013333 15.36-35.84 22.186666-39.253333 8.533333-5.12 18.773333 0 30.72 5.12l10.24 5.12c1.706667-3.413333 5.12-8.533333 6.826667-11.946667 6.826667-15.36 11.946667-25.6 22.186667-29.013333 6.826667-1.706667 15.36 1.706667 29.013333 6.826667 3.413333 0 8.533333 1.706667 11.946667 3.413333 1.706667-3.413333 1.706667-8.533333 3.413333-11.946667 5.12-17.066667 8.533333-29.013333 18.773333-32.426666 8.533333-1.706667 17.066667 1.706667 34.133334 8.533333 3.413333 1.706667 10.24 3.413333 13.653333 5.12 1.706667-3.413333 1.706667-8.533333 1.706667-10.24 3.413333-15.36 6.826667-29.013333 15.36-34.133333 11.946667-5.12 25.6-3.413333 63.146666 22.186666 6.826667 3.413333 8.533333 11.946667 3.413334 18.773334-3.413333 6.826667-11.946667 8.533333-18.773334 3.413333-18.773333-11.946667-27.306667-17.066667-32.426666-18.773333-1.706667 3.413333-1.706667 10.24-3.413334 13.653333-3.413333 15.36-5.12 29.013333-17.066666 32.426667-8.533333 3.413333-18.773333 0-37.546667-8.533334-3.413333-1.706667-8.533333-3.413333-11.946667-5.12 0 5.12-1.706667 8.533333-1.706666 11.946667-3.413333 15.36-6.826667 25.6-15.36 30.72-8.533333 3.413333-18.773333 0-35.84-5.12-3.413333-1.706667-8.533333-3.413333-11.946667-3.413333-1.706667 3.413333-3.413333 8.533333-5.12 11.946666-6.826667 15.36-11.946667 27.306667-23.893333 29.013334-8.533333 1.706667-18.773333-3.413333-29.013334-8.533334-1.706667 0-3.413333-1.706667-5.12-3.413333-1.706667 3.413333-5.12 10.24-8.533333 20.48-3.413333 6.826667-8.533333 10.24-15.36 10.24z m146.773333-93.866667z" fill="#1A1A1A" /></svg>