<svg xmlns="http://www.w3.org/2000/svg" viewBox="0 0 1024 1024" width="200" height="200"><path d="M367.68 493.3c-10.97-8.02-40.6-17.32-51.46-3.06-12.22 16.08-6.63 55.24 2.96 71.29 8.42 14.05 53.76 25.63 57.83 6.3-9.55-22.83-12.34-49.52-9.33-74.53zM709.25 500.93c-8.87-11.63-35.58-7.58-45.18-1.33-0.54 29.25-3.46 57.74-13.51 84.04 8 11.68 48.18 1.15 55.71-11.41 9.6-16.07 15.18-55.23 2.98-71.3zM728.42 806.78c-180.04 0.89-139.45-202.23-128.51-219.68H435.15c10.96 17.45 57.71 208.81-123.81 219.68-81.53 4.9-109.63 71.11-109.63 111.81h636.34c0.01-40.71-27.97-112.2-109.63-111.81z" fill="#E49158" /><path d="M664.21 422.67c-15.98-78.37-75.81-55.77-146.53-51.82-70.72-3.94-137.98-26.55-153.95 51.82-19.23 94.37 20.93 274.45 148.88 274.4v0.05c5.82 0 2.59-0.02 2.91-0.02 0.33 0 2.91 0.02 2.91 0.02v-0.05c151.19 0.05 165-180.03 145.78-274.4z" fill="#F8A065" /><path d="M517.2 566.2c0.12-0.01 0.06-0.01 0-0.02-0.07 0.01-0.14 0.01 0 0.02z" fill="#E2894D" opacity=".6" /><path d="M535.11 526.82c-4.79-17.16-1.73-29.74-3.42-47.69-2.62-27.77-21.89-30.58-28.32-1.39-4.42 20.01 1.36 29.6-4.08 49.08-2.41 8.65-19.32 19.37-17.35 29.09 2.07 10.3 15.7 3.19 20.72 2.68 7.5-0.76 8.17 6.68 14.54 7.55 6.36-0.87 7.03-8.3 14.53-7.55 5.03 0.51 18.64 7.62 20.72-2.68 1.98-9.72-14.93-20.43-17.34-29.09z" fill="#EB833D" opacity=".6" /><path d="M517.2 566.18c0.06-0.01 0.12-0.02 0-0.04-0.15 0.02-0.07 0.03 0 0.04z" fill="#E2894D" opacity=".6" /><path d="M456.82 484.9c0 10.28-8.34 18.63-18.63 18.63s-18.63-8.35-18.63-18.63c0-10.3 8.34-18.63 18.63-18.63s18.63 8.34 18.63 18.63zM611.22 484.9c0 10.28-8.35 18.63-18.63 18.63-10.3 0-18.64-8.35-18.64-18.63 0-10.3 8.34-18.63 18.64-18.63 10.28 0 18.63 8.34 18.63 18.63z" fill="#351F21" /><path d="M463.53 528.82c0 2.21-1.78 4-3.99 4-2.2 0-3.99-1.79-3.99-4 0-2.2 1.78-4 3.99-4s3.99 1.8 3.99 4zM487.5 498.21c0 2.94-2.39 5.33-5.32 5.33a5.32 5.32 0 0 1-5.32-5.33c0-2.95 2.37-5.32 5.32-5.32 2.93 0 5.32 2.37 5.32 5.32zM488.82 523.5c0 1.48-1.18 2.66-2.65 2.66s-2.66-1.18-2.66-2.66c0-1.47 1.19-2.66 2.66-2.66 1.46-0.01 2.65 1.18 2.65 2.66zM414.29 537.47a4.65 4.65 0 0 1-4.65 4.66c-2.57 0-4.66-2.08-4.66-4.66s2.08-4.65 4.66-4.65c2.57 0 4.65 2.07 4.65 4.65zM468.86 562.09c0 2.94-2.39 5.33-5.33 5.33a5.324 5.324 0 1 1 0-10.65c2.95 0.01 5.33 2.38 5.33 5.32zM443.57 552.78c0 2.21-1.79 4-3.99 4s-4-1.79-4-4c0-2.2 1.79-3.99 4-3.99 2.2 0 3.99 1.78 3.99 3.99zM435.58 522.83c0 1.85-1.48 3.33-3.32 3.33-1.84 0-3.33-1.48-3.33-3.33 0-1.83 1.49-3.32 3.33-3.32a3.305 3.305 0 0 1 3.32 3.32zM398.32 510.18c0 2.21-1.79 4-3.99 4s-3.99-1.79-3.99-4c0-2.2 1.78-3.99 3.99-3.99 2.2 0.01 3.99 1.79 3.99 3.99zM443.57 568.08a3.32 3.32 0 0 1-3.32 3.33c-1.84 0-3.33-1.49-3.33-3.33 0-1.83 1.49-3.32 3.33-3.32s3.32 1.49 3.32 3.32zM404.98 566.08c0 2.2-1.78 3.99-3.99 3.99-2.2 0-4-1.79-4-3.99a3.99 3.99 0 0 1 4-3.99c2.2 0 3.99 1.79 3.99 3.99zM424.94 590.04c0 1.48-1.19 2.67-2.66 2.67a2.67 2.67 0 0 1-2.67-2.67c0-1.47 1.2-2.66 2.67-2.66s2.66 1.19 2.66 2.66z" fill="#EB833D" /><path d="M621.57 526.27a3.998 3.998 0 0 1-3.53 4.41c-2.19 0.26-4.15-1.34-4.41-3.52a4.005 4.005 0 0 1 3.53-4.41 3.989 3.989 0 0 1 4.41 3.52zM642.02 493.21a5.331 5.331 0 0 1-4.7 5.88 5.326 5.326 0 0 1-5.88-4.71 5.303 5.303 0 0 1 4.71-5.87c2.91-0.32 5.55 1.78 5.87 4.7zM646.13 518.2c0.16 1.47-0.89 2.78-2.36 2.94-1.46 0.16-2.77-0.89-2.94-2.35-0.16-1.46 0.89-2.78 2.36-2.94 1.45-0.16 2.77 0.89 2.94 2.35zM573.57 540.28a4.67 4.67 0 0 1-4.11 5.15 4.658 4.658 0 0 1-5.15-4.12c-0.29-2.56 1.56-4.86 4.12-5.15a4.655 4.655 0 0 1 5.14 4.12zM630.53 558.76a5.327 5.327 0 0 1-4.72 5.88 5.337 5.337 0 0 1-5.88-4.7 5.34 5.34 0 0 1 4.72-5.88c2.92-0.33 5.55 1.78 5.88 4.7zM604.36 552.28a3.99 3.99 0 0 1-3.53 4.41 4.006 4.006 0 0 1-4.42-3.53 4.006 4.006 0 0 1 3.54-4.41c2.2-0.25 4.17 1.34 4.41 3.53zM593.13 523.39c0.2 1.83-1.12 3.47-2.94 3.66a3.312 3.312 0 0 1-3.67-2.94c-0.19-1.82 1.12-3.48 2.95-3.67a3.33 3.33 0 0 1 3.66 2.95zM554.71 514.92c0.24 2.19-1.35 4.16-3.54 4.41a4.004 4.004 0 0 1-4.41-3.53c-0.24-2.19 1.35-4.16 3.54-4.41a4.004 4.004 0 0 1 4.41 3.53zM606.05 567.49c0.2 1.83-1.12 3.48-2.94 3.67-1.83 0.2-3.48-1.11-3.68-2.94a3.326 3.326 0 0 1 2.94-3.67 3.34 3.34 0 0 1 3.68 2.94zM567.47 569.75a4.018 4.018 0 0 1-3.54 4.41 3.998 3.998 0 0 1-4.41-3.53 3.982 3.982 0 0 1 3.53-4.4c2.19-0.26 4.17 1.33 4.42 3.52zM589.94 591.37a2.661 2.661 0 0 1-5.29 0.58c-0.16-1.46 0.89-2.77 2.35-2.94 1.46-0.16 2.78 0.89 2.94 2.36z" fill="#EB833D" /><path d="M368.26 422.67c15.98-78.37 78.28-55.77 149.02-51.82 70.72-3.94 130.14-26.55 146.12 51.82 4.73 23.25 6.95 51.7 5.46 81.38 3.41-6.84 146.89-299.51-152.31-299.51-277.12 0.01-155.1 272.98-155.1 272.98l1.71 14.81c-0.87-25.41 1-49.5 5.1-69.66z" fill="#DB711B" /><path d="M431.52 198.67c-54.7 35.69-89.35 131.32-32.48 179.86 2.59 2.22 6.38-1.53 3.77-3.76-54.11-46.2-20.61-137.58 31.41-171.51 2.86-1.86 0.19-6.47-2.7-4.59z" fill="#BC5C14" /><path d="M459.39 191.99c-40.14 50.41-40.42 118.21-18.43 176.5 1.2 3.18 6.35 1.81 5.12-1.41-21.23-56.29-21.86-122.41 17.06-171.32 2.12-2.66-1.61-6.46-3.75-3.77z" fill="#BC5C14" /><path d="M474.94 192.53c-23.82 54.56-29 119.85-7.37 175.96 1.22 3.17 6.37 1.79 5.13-1.41-21.09-54.73-16.44-118.56 6.83-171.87 1.37-3.11-3.23-5.82-4.59-2.68zM662.32 231.57c-1.66-3-6.25-0.33-4.6 2.68 23.23 42.27 6.76 109.49-24.43 144.08-2.29 2.54 1.46 6.32 3.76 3.76 32.88-36.45 49.76-105.97 25.27-150.52z" fill="#BC5C14" /><path d="M410.26 438.26l67.45-11.01v-33.74s-56.51 8.75-66.58 22.94c-3.17 4.46-0.87 21.81-0.87 21.81zM624.37 438.26l-65.25-11.01v-33.74s55.42 8.75 65.5 22.94c3.16 4.46-0.25 21.81-0.25 21.81z" fill="#DB711B" /><path d="M567.43 590.86c-26.06 38.97-85.24 33.35-108.37-5.54-2.19-3.67-7.93-0.34-5.74 3.36 25.79 43.35 91.09 48.57 119.86 5.54 2.39-3.58-3.38-6.89-5.75-3.36z" fill="#BF6A2F" /><path d="M510.64 682.53c-11.39-9.32 0.87-32.59 19.18-22.46 14.66 8.12 6.63 26.78-8.32 26.06-4.84-0.23-8.41-1.59-10.86-3.6z" fill="#EB833D" opacity=".6" /><path d="M711.47 354.48h-31.92s23.72 333.92-159.87 338.61c-183.59 4.68-165.19-338.61-165.19-338.61h-36.81s-13.31 355.21 199.55 355.21 194.24-355.21 194.24-355.21z" fill="#434419" /><path d="M721.14 311.96c-2.13-78.7-36.51-195.11-190.45-195.11-174.91 0-209.66 119.63-210.59 195.11h401.04z" fill="#778C3F" /><path d="M756.86 328.99c0 18.62-15.46 31.31-34.07 31.31H316.85c-18.62 0-31.05-12.69-31.05-31.31v-4.15c0-18.62 12.44-34.33 31.05-34.33h405.94c18.61 0 34.07 15.71 34.07 34.33v4.15z" fill="#778C3F" /><path d="M502.16 192.56c23.09 9.56 51.6 17.27 36.42 43.21-8.23 14.08-22.63 12.24-36.49 15.08-12.57 2.57-24.34 9.64-37.55 8-54.44-6.75-35.89-120.59 2.15-112.06 15.69 3.52 6.92 22.94 13.16 31.66 4.26 5.93 12.83 10.18 22.31 14.11zM567.04 168.3c4.31 4.25 9.96 8.12 17.12 11.43 20.51 9.47 39.91 39.2 62.78 36.14 52.51-7.03-0.27-26.15-1.69-40.28-3.32-33.32 88.76-5.27 45.38-55.17-14.73-16.95-41.07-32.69-63.6-35.19-46.58-5.17-93.3 50.25-59.99 83.07z" fill="#88A041" /><path d="M438.6 86.54c1.37 48.87 65.9 99.22 92.66 41.46 10.93-23.59 7.71-55.49-12.13-73.5-21.85-19.84-62.94-19.78-76.27 9.89-3.18 7.09-4.47 14.61-4.26 22.15zM346.94 139.64c10.62-0.68 21.1 1.06 29.75 6 19.55 11.19 24.49 37.05 24.91 57.76 0.59 30.03-22.91 15.77-43.32 25.81-7.92 3.91-2.64 20.41-17.57 22.54-11.8 1.69-24.99-10.34-32.82-17.4-25.07-22.6-33.3-52.15-5.51-76.89 11.02-9.79 27.97-16.74 44.56-17.82zM344.5 372.82c-16.92-27.29-16.77-69.05 21.68-66.74 22.1 1.31 51.28 2.52 55.6 28.92 1.04 6.41 0.45 13.35-1.38 20.13-3.19 11.89-10.15 23.31-18.61 30.62-22.72 19.66-44.71 7.35-57.29-12.93zM531.42 377.59c-19.75-20.89-35.88-83.7 14.1-64.9 16.67 6.26 23.66 22.67 42.66 22.3 20.39-0.38 18.4-13.64 25.45-27.73 10.17-4.22 18.82 11.37 27.78 13.63 14.76 3.72 23-4.63 32.81-13.27 8.29-7.31 19.72-20.74 30.13-10.92 5.59 5.28 1.48 12.36 4.98 17.2 4.23 5.83 14.69 7.66 20.77 11.26 34.21 20.31 12.11 55.26-16.71 67.58-26.16 11.19-67.61 10.22-95.03 4.63-18.04-3.68-46.94-9.93-62.19-20.24-2.6 0.03-3.76 1.36-3.46 3.99l-21.29-3.53z" fill="#88A041" /><path d="M719.63 289.34c-1.46-13.93-4.02-28.49-8.06-43.01H329.79c-4.35 14.63-6.99 29.22-8.39 43.01h398.23z" fill="#627230" /><path d="M576.57 692.93c0 15.43-12.51 27.94-27.93 27.94h-66.27c-15.42 0-27.93-12.51-27.93-27.94v-2.28c0-15.43 12.51-27.94 27.93-27.94h66.27c15.42 0 27.93 12.51 27.93 27.94v2.28z" fill="#6B6B45" /><path d="M728.42 807.57c-60.36 0.3-95.89-22.43-116.08-53.36-27.45 20.68-61.38 33.04-97.76 33.04-34.52 0-66.8-11.16-93.46-29.96-20.4 26.83-54.48 46.96-109.77 50.27-81.53 4.9-109.63 71.73-109.63 111.03h636.34c0-39.29-27.98-111.41-109.64-111.02z" fill="#627230" /><path d="M296.4 918.59l-13.31-119.73 111.76-23.94s106.42 109.09 247.44 0l125.06 26.6-23.95 117.07h-447z" fill="#778C3F" /><path d="M317.69 790.89l18.61 127.7h66.53L370.9 777.57zM727.44 790.89l-18.63 127.7h-66.52l31.94-141.02z" fill="#6B6B45" /></svg>