<svg xmlns="http://www.w3.org/2000/svg" viewBox="0 0 1024 1024" width="200" height="200"><path d="M471.535313 210.190588L440.278371 242.011989l68.722938 103.648867zM575.607524 210.190588l31.3275 31.821401-68.793496 103.648867zM542.374974 421.792324l-127.356163-191.916213-75.496452 34.573141-28.787432 347.565907 43.745608 3.668986L383.267967 268.118239l40.993867 195.937986-25.25956 192.904018 115.290843 15.09929z" fill="#EAEAEA" /><path d="M529.533522 394.274926l110.14015-164.398815 72.603597 34.573141 27.72907 347.565907-42.122786 3.668986L670.154482 268.118239 630.783436 464.056225l24.271756 192.904018-84.59836 22.084476L541.881072 459.54055zM630.148419 937.284917l-218.37525-1.340591s-14.887618-63.925033-20.249983-119.242059c-4.868463-49.884104 1.905051-119.242059 1.905051-119.242059h257.534624s8.184662 69.146283 1.763936 119.947633c-6.702956 52.847516-22.578378 119.877076-22.578378 119.877076z" fill="#EAEAEA" /><path d="M736.69014 623.939365c-0.070557-2.75174-13.405912-277.784607-23.213395-366.193069-3.880659-35.349273-71.051333-47.061807-92.994694-49.954661L567.422862 153.8152c-0.987804-0.987804-2.116723-1.763936-3.386756-2.328395-0.352787-0.141115-0.705574-0.352787-1.058362-0.423345-1.199476-0.423345-2.398953-0.705574-3.668986-0.776131h-0.493902c-0.917247 0-1.834493 0.141115-2.75174 0.352787-0.28223 0.070557-0.564459 0.28223-0.917247 0.352787s-0.635017 0.211672-0.987804 0.423345c-1.270034 0.564459-2.46951 1.340591-3.457314 2.257837-0.987804 0.987804-1.763936 2.116723-2.328395 3.386757-0.141115 0.28223-0.28223 0.635017-0.423345 0.987804-0.141115 0.352787-0.28223 0.564459-0.352787 0.846689L536.518707 198.266382c-0.846689-3.810101-3.457314-6.914628-7.055743-8.325777-27.164611-10.371942-52.000827-0.28223-52.988631 0.141115-3.598429 1.552263-6.138497 4.727348-6.84407 8.537449l-10.936402-39.582719c-0.070557-0.28223-0.28223-0.564459-0.352787-0.846689-0.141115-0.28223-0.28223-0.635017-0.423345-0.987804-0.564459-1.270034-1.340591-2.398953-2.328395-3.386757-0.987804-0.917247-2.18728-1.693378-3.457314-2.257838l-1.058362-0.423344c-0.352787-0.141115-0.564459-0.28223-0.846689-0.352787-0.987804-0.28223-1.975608-0.352787-2.963412-0.352788h-0.211672c-1.340591 0.070557-2.610625 0.28223-3.810102 0.776132-0.352787 0.141115-0.705574 0.28223-0.987804 0.423345-1.270034 0.564459-2.398953 1.340591-3.386757 2.328395l-53.129745 54.046992c-21.943361 2.892855-89.043478 14.605388-92.994695 49.954662-9.736926 88.408461-23.07228 363.370771-23.213395 366.193068-0.28223 6.491284 4.727348 12.065321 11.289189 12.34755h55.528699c5.997382 0 11.077517-4.515676 11.712533-10.583614l16.22821-151.275133c0.705574-6.491284-3.951216-12.276993-10.4425-12.982567-6.420726-0.776132-12.206436 3.810101-12.982568 10.230827v0.28223l-15.09929 140.691518h-31.962516c2.681182-54.682009 13.970371-275.385654 22.50782-352.293254 1.270034-11.641976 36.195962-23.848412 69.287398-28.716875l119.030386 179.427548c0.211672 0.28223 0.423345 0.493902 0.635017 0.776132l11.641976 35.843175-24.201198 217.740233-115.008613-17.357129L402.882933 448.039689c-0.141115-1.128919-0.141115-2.257838-0.070558-3.386757l-13.758699-83.892786c-0.776132-6.491284-6.632399-11.148074-13.123682-10.371942-6.491284 0.776132-11.148074 6.632399-10.371943 13.123682 0.070557 0.352787 0.070557 0.776132 0.211673 1.128919l13.476469 82.199407L352.787156 656.607455c-0.776132 6.350169 3.598429 12.206436 9.948598 13.123683l138.574795 20.955557c0.564459 0.070557 1.199476 0.141115 1.763936 0.141115 5.997382 0 11.077517-4.515676 11.712534-10.513058l25.824019-232.486736c0.211672-1.693378 0-3.316199-0.493902-4.93902l-19.403293-59.973817-48.049611-173.782953c3.316199 3.457314 8.396334 4.515676 12.841453 2.75174 0.141115-0.070557 17.498243-6.844071 35.631502 0.141115 4.304003 1.622821 9.172466 0.635017 12.347551-2.681182L508.719079 297.681803c-1.763936 6.279611 1.905051 12.770895 8.184662 14.53483 6.279611 1.763936 12.770895-1.905051 14.534831-8.184662L564.882795 184.86047l34.925928 35.560945-77.824846 115.220286c-3.668986 5.432922-2.257838 12.700338 3.175084 16.369324 5.432922 3.668986 12.700338 2.257838 16.369324-3.175085l79.165438-117.195893c33.091435 4.797905 68.087921 17.004341 69.357955 28.716874 8.537449 76.9076 19.756081 297.611245 22.50782 352.293255h-31.962516l-15.09929-140.762076c-0.564459-6.491284-6.209054-11.359746-12.700338-10.795287s-11.359746 6.209054-10.795287 12.700338c0 0.211672 0.070557 0.352787 0.070558 0.564459l16.228209 151.275133c0.635017 5.997382 5.715152 10.513057 11.712533 10.583615h54.964239c6.561841 0 11.783091-5.291807 11.783091-11.853649-0.070557-0.070557-0.070557-0.211672-0.070557-0.423344zM483.318404 336.276717L406.481362 220.491973l33.797009-34.290912 1.199476-1.199476L483.318404 336.276717z" fill="#4F4F4F" /><path d="M551.900227 632.617929c-0.705574-6.420726-6.491284-11.006959-12.91201-10.301385h-0.282229c-6.491284 0.776132-11.077517 6.702956-10.230828 13.194239l5.50348 44.945084c0.705574 5.926824 5.785709 10.371942 11.712533 10.371943 0.846689 0 1.693378-0.070557 2.540068-0.28223L644.40102 669.590023c5.926824-1.340591 9.948598-6.985186 9.172466-12.982568l-26.10625-209.8378 13.47647-82.199408c1.340591-6.350169-2.681182-12.62978-9.101909-14.040928-6.350169-1.340591-12.62978 2.681182-14.040929 9.101908-0.070557 0.352787-0.141115 0.705574-0.211672 1.128919l-13.758699 83.892786c0.141115 1.128919 0.070557 2.257838-0.070558 3.386757l24.977331 200.806449-73.026941 15.875422-3.810102-32.103631z" fill="#4F4F4F" /><path d="M641.225935 675.728519c-6.491284 0.423345-11.430304 6.067939-11.006959 12.559223 0.070557 0.635017 3.951216 61.314408 0.141115 111.833529-3.104527 40.711638-13.264797 95.181975-17.498243 116.772548H393.851581c-4.445118-20.179425-14.675946-70.698546-17.498243-115.784744-4.374561-69.569627 0-111.904086 0.070558-112.327431 0.493902-6.491284-4.304003-12.206436-10.795287-12.700338-6.279611-0.493902-11.853648 3.951216-12.62978 10.230828-0.211672 1.763936-4.586233 44.521739-0.141115 116.278647 3.739544 59.762144 19.473851 126.08613 20.179425 128.908427 1.270034 5.291807 5.997382 9.031351 11.500861 9.031351h238.131331c5.574037 0 10.4425-3.951216 11.571419-9.384139 0.635017-3.104527 15.734307-76.060911 19.75608-129.190656 3.951216-52.212499 0.070557-112.60966-0.070557-115.149728-0.564459-6.561841-6.138497-11.218632-12.700338-11.077517z" fill="#4F4F4F" /></svg>