<svg xmlns="http://www.w3.org/2000/svg" viewBox="0 0 1024 1024" width="200" height="200"><path d="M944.7936 390.5536c-24.2176-87.04-75.9808-165.9392-146.4832-222.976-77.312-62.5152-174.6944-96.9216-274.2784-96.9216-94.4128 0-184.4224 29.7984-260.352 86.1696C191.232 210.6368 138.24 283.6992 109.8752 368.6912 62.976 398.6432 33.3312 451.6864 33.3312 507.392s29.6448 108.7488 76.4928 138.6496c28.3648 84.992 81.3056 158.1056 153.8048 211.9168 75.9296 56.3712 165.9392 86.1696 260.352 86.1696 99.584 0 196.9664-34.4064 274.2784-96.9216 70.5024-57.0368 122.2656-135.936 146.4832-222.976 31.2832-30.8224 48.9984-72.8576 48.9984-116.8384s-17.7152-86.016-48.9472-116.8384z m-47.6672 194.0992l-7.168 6.2976-2.3552 9.2672c-19.8144 77.7728-65.28 148.5312-127.9488 199.2192-66.4064 53.7088-150.0672 83.2512-235.6224 83.2512-163.9424 0-311.552-109.4144-359.0656-266.1376l-3.7376-12.288-11.3664-5.9904c-33.4848-17.6128-55.0912-53.2992-55.0912-90.88s21.6064-73.2672 55.0912-90.88l11.3664-5.9904 3.7376-12.288c47.5136-156.672 195.1744-266.1376 359.0656-266.1376 85.5552 0 169.216 29.5424 235.6224 83.2512 62.6688 50.688 108.1344 121.3952 127.9488 199.2192l2.3552 9.2672 7.168 6.2976c22.3744 19.6096 35.2256 47.7696 35.2256 77.2608s-12.8512 57.7024-35.2256 77.2608z" fill="#4C4C4C" /><path d="M818.1248 606.72c10.496-32.1024 15.872-65.5872 15.872-99.6864 0-38.2976-6.7072-75.7248-19.9168-111.3088 5.12-3.6864 9.7792-9.0112 11.8784-16.9984 3.1744-11.8272-1.4848-21.4528-6.1952-28.1088 4.7616-6.656 9.3696-16.2816 6.1952-28.1088-3.1744-11.8272-11.8784-17.92-19.4048-21.3504 0.768-8.192-0.1536-18.7392-8.7552-27.3408-8.6016-8.6016-19.2-9.5232-27.3408-8.7552-3.4304-7.4752-9.5232-16.2304-21.3504-19.3536-11.8272-3.1744-21.4528 1.4336-28.1088 6.1952-5.7344-4.096-13.6192-8.0384-23.1424-7.1168-54.1184-38.1952-117.6064-58.3168-184.4224-58.3168-16.4864 0-32.9728 1.3312-49.152 3.7888-6.4512-9.8304-15.36-18.9952-27.4432-25.5488-5.0176-2.7136-10.752-3.6352-16.3328-2.7648-23.3472 3.84-39.4752 25.856-48.9472 43.776-18.688-0.8704-41.5744 4.4032-60.672 24.8832-4.096 4.4032-6.5024 10.0352-6.8096 16.0256-0.3072 5.6832 0.0512 11.3664 0.8704 16.896a322.62144 322.62144 0 0 0-52.8896 57.9072c-10.7008-1.024-22.1696-0.1024-33.792 4.1984l-8.192 3.072-4.608 7.424c-12.4928 20.1216-6.5536 46.7456 0.7168 65.6384-12.9536 13.4656-24.064 34.2016-21.1968 62.0544l0.9216 9.216 6.6048 6.5024c0.4608 0.4608 1.024 0.8704 1.536 1.28-0.7168 8.6528-1.1776 17.3568-1.1776 26.0608 0 176.7424 143.7696 320.512 320.512 320.512a319.6928 319.6928 0 0 0 200.3456-70.4c3.7376 1.6384 6.4512 2.6624 7.4752 3.0208l17.2032 6.0928 11.3664-14.2336c2.0992-2.6112 18.176-23.1424 27.9552-47.9232 25.9584-10.4448 43.008-32.6656 53.9136-46.848l10.7008-13.8752-6.6048-14.1312c-3.84-8.2432-10.2912-15.8208-17.6128-22.3744z m-141.7216-268.032c2.9696-2.304 5.7856-5.2736 7.9872-9.1136 2.2528-3.8912 3.4304-7.8336 3.9424-11.5712 3.7888-0.512 7.68-1.6896 11.5712-3.9424 3.84-2.2528 6.8096-5.0176 9.1136-7.9872 3.5328 1.4336 7.5264 2.3552 12.032 2.3552s8.4992-0.9216 11.9808-2.3552c2.304 2.9696 5.2736 5.7856 9.1136 7.9872 3.8912 2.2528 7.8336 3.4304 11.5712 3.9424 0.512 3.7888 1.6896 7.68 3.9424 11.5712 2.2528 3.84 5.0176 6.8096 7.9872 9.1648-1.4336 3.5328-2.3552 7.5264-2.3552 11.9808s0.9216 8.4992 2.3552 12.032c-2.9696 2.304-5.7856 5.2736-7.9872 9.1136-2.2528 3.8912-3.4304 7.8336-3.9424 11.5712-3.7888 0.512-7.68 1.6896-11.5712 3.9424-3.84 2.2528-6.8096 5.0176-9.1648 7.9872-3.5328-1.4336-7.5264-2.3552-11.9808-2.3552s-8.4992 0.9216-12.032 2.3552a30.62784 30.62784 0 0 0-9.1648-7.9872c-3.8912-2.2528-7.7824-3.4304-11.5712-3.9424-0.512-3.7888-1.6896-7.68-3.9424-11.5712-2.2528-3.84-5.0176-6.8096-7.9872-9.1648 1.4336-3.5328 2.3552-7.5264 2.3552-12.032s-0.8704-8.448-2.2528-11.9808z m-149.6064 72.6016c24.2688 23.3472 37.632 38.7584 44.2368 47.0528-3.4304 10.8544-11.6736 27.8016-30.1568 34.304A1494.528 1494.528 0 0 1 480.256 442.368c1.3824-6.144 4.352-14.0288 10.752-20.0192 7.8336-7.3216 19.8144-11.008 35.7888-11.0592zM377.088 258.5088c6.4512 2.9184 13.4656 2.8672 19.968 0.1024 6.6048-2.7648 11.3152-8.3456 13.7728-15.104 2.8672-7.936 7.5776-16.896 11.9296-23.2448 4.5568 7.9872 5.376 16.64 5.376 16.64 0.4608 7.6288 4.352 14.6432 10.496 19.1488s14.08 6.0416 21.504 4.1472c5.6832-1.4336 16.9984-2.7136 26.2656-0.9728-5.7856 12.3392-14.3872 18.5856-14.6432 18.7904a25.6256 25.6256 0 0 0-10.1376 29.2864c2.7648 8.3968 5.0688 19.6096 5.888 28.7744-11.264-0.1536-22.3744-1.8944-30.1568-8.0896-4.608-3.6864-10.24-5.5296-15.9232-5.5296-3.8912 0-7.8336 0.8704-11.4176 2.7136-8.0384 4.0448-18.2272 6.7072-27.3408 8.3968-0.9216-7.1168-0.9216-14.2848 1.2288-18.7392 3.7376-7.68 3.4304-16.6912-0.8704-24.064a25.43104 25.43104 0 0 0-15.2576-11.776c-3.328-2.7648-9.0112-10.1888-11.4176-19.3024 9.216-4.6592 18.176-2.0992 20.736-1.1776zM249.4976 432.5376l24.32-10.9056-13.312-24.32c-4.1472-7.5776-7.7312-16.9472-9.6256-24.3712 9.0112 1.792 16.0256 6.912 16.0256 6.912l24.7296 19.2512 13.9264-28.0576c2.2016-4.4544 8.7552-14.2848 16.4864-20.3264 5.4784 12.4928 4.5568 23.0912 4.5056 23.3984l-2.56 19.3024 17.92 7.6288c8.1408 3.4304 18.0736 9.1136 25.4976 14.4896-7.5776 8.3456-16.1792 15.5648-25.9584 17.3568l-16.0256 2.9184-4.096 15.7696c-2.2528 8.704-6.9632 18.176-11.6736 26.1632-6.0416-4.0448-11.3664-8.7552-13.2608-13.312l-14.848-35.1232-23.7056 23.808c-4.5568 0.4608-13.2096-0.3072-21.1456-4.2496 2.6112-9.984 10.4448-15.0528 12.8-16.3328z m64.7168 255.488c-43.4688-47.872-70.0416-111.36-70.0416-180.9408 0-1.1264 0.1024-2.2016 0.1024-3.328 6.144 0.768 12.1344 0.8704 17.8176 0.3072 17.9712 19.712 43.8784 29.44 47.5648 30.72l17.2032 6.0928 11.3664-14.2336c2.0992-2.6112 18.176-23.1424 27.9552-47.9232 25.9584-10.4448 43.008-32.6656 53.9136-46.848l10.7008-13.8752-6.6048-14.1312c-4.0448-8.6528-10.752-16.384-18.3296-23.0912 4.352-1.1264 8.8064-2.4576 13.2608-4.0448 11.6224 5.888 23.8592 8.6016 35.4304 9.7792-27.2384 26.9312-26.7776 63.1296-26.624 67.2256l0.4096 10.6496 7.8848 7.2192c0.6656 0.6144 8.8064 8.0896 22.3232 19.6608-9.0624-2.7648-18.4832-4.3008-28.16-4.3008-66.9184 0-121.344 69.888-121.344 155.7504-0.0512 15.7696 1.792 30.976 5.1712 45.312z m116.1216 59.3408c-38.0416 0-70.144-47.872-70.144-104.5504s32.1024-104.5504 70.144-104.5504 70.144 47.872 70.144 104.5504-32.1536 104.5504-70.144 104.5504z m322.816-89.088l-16.0256 2.9184-4.096 15.7696c-2.2528 8.704-6.9632 18.1248-11.6736 26.112-5.9904-3.9424-11.3664-8.704-13.312-13.2608l-14.848-35.1232-23.7056 23.808c-4.5568 0.4608-13.2608-0.3072-21.1456-4.2496 2.6112-9.984 10.4448-15.0016 12.8-16.3328l24.32-10.9056-13.312-24.32c-4.1472-7.5776-7.7312-16.9472-9.6256-24.3712 9.0112 1.792 16.0256 6.912 16.0256 6.912l24.7296 19.2512 13.9264-28.1088c2.2016-4.4544 8.7552-14.2848 16.4864-20.3264 5.5296 12.4928 4.5568 23.0912 4.5056 23.3984l-2.56 19.3024 17.92 7.6288c8.1408 3.4304 18.0736 9.1136 25.5488 14.4896-7.5776 8.3968-16.1792 15.616-25.9584 17.408z m25.9072-106.0864c-3.7376-7.7312-8.7552-15.7184-15.5136-23.5008l-8.0384-9.2672-12.288 0.4608c-26.2656 1.024-45.5168 17.4592-57.4976 32-15.6672-5.632-35.5328-8.192-55.6544-0.6656l-8.192 3.072-4.608 7.424c-12.4928 20.1216-6.5536 46.7456 0.7168 65.6384-12.9536 13.4656-24.064 34.2016-21.1968 62.0544l0.9216 9.216 6.6048 6.5024c16.8448 16.4864 40.1408 24.32 60.5696 24.6784-44.3904 30.208-97.024 46.592-151.3984 46.592-6.656 0-13.2608-0.3072-19.8144-0.8192 34.7648-27.4432 57.9584-76.6976 57.9584-132.7616 0-37.12-10.1888-71.2192-27.136-97.9968l3.0208 2.304 10.5472-1.3824c59.392-7.7824 82.176-61.952 85.9648-89.4976l1.2288-8.8064-4.5056-7.68c-1.3824-2.3552-15.1552-24.576-65.6384-72.2432l-6.6048-6.2464-9.0624-0.6656c-7.8848-0.5632-15.3088-0.512-22.4256-0.0512 3.9424-17.7664 1.0752-38.4-2.1504-52.7872 10.496-11.3152 23.2448-30.208 26.9824-57.2416 0.512-3.84 0.1536-7.7312-0.9728-11.3152 37.2224 3.6864 72.7552 15.0016 105.1136 33.3312-0.512 0.4608-1.0752 0.8704-1.6384 1.3824-8.6016 8.6016-9.5232 19.2-8.7552 27.3408-7.4752 3.4304-16.2304 9.5232-19.4048 21.3504-3.1744 11.8272 1.4848 21.4528 6.1952 28.1088-4.7616 6.656-9.3696 16.2816-6.1952 28.1088 3.1744 11.8272 11.8784 17.92 19.4048 21.3504-0.768 8.192 0.1536 18.7392 8.7552 27.3408 8.6016 8.6016 19.2 9.5232 27.3408 8.7552 3.4304 7.4752 9.5232 16.2304 21.3504 19.4048 2.7136 0.7168 5.2736 1.024 7.7312 1.024 8.2944 0 15.2064-3.584 20.3264-7.2704 6.656 4.7616 16.2816 9.3696 28.1088 6.1952 11.776-3.1744 17.8688-11.8784 21.3504-19.4048 0.9216 0.1024 1.9456 0.1536 2.9184 0.2048 6.1952 22.8864 9.3696 46.5408 9.3696 70.656-0.0512 15.2064-1.28 30.2592-3.7888 45.1072z" fill="#4C4C4C" /><path d="M430.336 620.4928c-31.5392 0-57.1392 25.6-57.1392 57.1392s25.6 57.1392 57.1392 57.1392 57.1392-25.6 57.1392-57.1392-25.6-57.1392-57.1392-57.1392z" fill="#4C4C4C" /></svg>