<svg xmlns="http://www.w3.org/2000/svg" viewBox="0 0 1024 1024" width="200" height="200"><path d="M884.08 121.448c-56.16 0-101.848 45.688-101.848 101.85 0 56.16 45.688 101.85 101.848 101.85s101.852-45.69 101.852-101.85c0-56.162-45.692-101.85-101.852-101.85z" fill="#FFD351" /><path d="M756.786 186.004H278.754v53.374h473.712c-0.68-5.24-1.02-10.626-1.02-16.062 0.002-12.954 1.846-25.472 5.34-37.312z" fill="#DFDFDE" /><path d="M265.8 655.786a8.404 8.404 0 0 1-0.388-8.344l42.99-86.124h454.692l93.986-208.156a130.784 130.784 0 0 1-48.958-21.204l-79.478 175.986H303.354L181.082 186.004H33.966c-14.702 0-26.686 11.936-26.686 26.686 0 7.326 3.008 14.02 7.812 18.872 4.852 4.806 11.548 7.814 18.876 7.814h110.288l114.606 301.704-41.194 82.536c-10.14 20.33-8.492 44.202 4.61 63.078 11.84 17.08 31.926 26.542 52.742 26.542h537.274v-53.374H273.126c-3.056 0-5.726-1.456-7.326-4.076z" fill="#DFDFDE" /><path d="M766.52 178.726H271.476v67.93h489.268l-1.062-8.212a118.472 118.472 0 0 1-0.958-15.128c0-12.06 1.696-23.92 5.036-35.252l2.76-9.338z m-22.066 53.374h-458.42V193.284h461.372a139.79 139.79 0 0 0-2.952 38.816z" fill="#4B555F" /><path d="M271.976 651.936a1.144 1.144 0 0 1-0.052-1.244l40.978-82.098h454.892l99.662-220.726-8.908-1.836a122.85 122.85 0 0 1-46.238-20.026l-7.202-5.072-81.168 179.73H308.374L186.102 178.726H33.964C15.236 178.726 0 193.964 0 212.692c0 9.012 3.522 17.534 9.97 24.042 6.46 6.398 14.982 9.922 23.996 9.922h105.268l111.69 294.028-39.77 79.682c-11.29 22.632-9.32 49.636 5.138 70.472 12.882 18.582 34.834 29.674 58.726 29.674h544.552v-67.93H273.126c-0.626 0.002-0.892-0.226-1.15-0.646z m533.04 54.022H275.018c-19.12 0-36.6-8.752-46.764-23.414-11.604-16.72-13.128-37.534-4.074-55.678l42.616-85.388L149.274 232.1H33.964a19.406 19.406 0 0 1-13.702-5.658c-3.68-3.716-5.708-8.6-5.708-13.75 0-10.702 8.706-19.408 19.408-19.408H176.06l122.272 321.938H733.34l77.9-172.496a136.97 136.97 0 0 0 35.586 15.456l-88.432 195.856H303.9l-44.998 90.15c-2.48 4.964-2.21 10.738 0.69 15.392 2.892 4.734 7.954 7.56 13.536 7.56h531.89v38.818z" fill="#4B555F" /><path d="M273.606 808.79c-16.802 0-30.472 13.692-30.472 30.52 0 16.8 13.67 30.47 30.472 30.47 16.826 0 30.514-13.67 30.514-30.47 0.002-16.828-13.688-30.52-30.514-30.52z" fill="#FFD351" /><path d="M273.604 745.276c-51.918 0-94.034 42.118-94.034 94.034 0 51.918 42.116 94.034 94.034 94.034 51.966 0 94.034-42.114 94.034-94.034 0-51.916-42.068-94.034-94.034-94.034z m0 148.766c-30.228 0-54.732-24.502-54.732-54.73s24.502-54.78 54.732-54.78c30.278 0 54.78 24.552 54.78 54.78s-24.504 54.73-54.78 54.73z" fill="#F58E70" /><path d="M756.6 808.79c-16.802 0-30.472 13.692-30.472 30.52 0 16.8 13.67 30.47 30.472 30.47 16.83 0 30.52-13.67 30.52-30.47 0-16.828-13.69-30.52-30.52-30.52z" fill="#FFD351" /><path d="M756.6 745.276c-51.918 0-94.034 42.118-94.034 94.034 0 51.918 42.116 94.034 94.034 94.034 51.966 0 94.034-42.114 94.034-94.034 0-51.916-42.068-94.034-94.034-94.034z m0 148.766c-30.228 0-54.732-24.502-54.732-54.73s24.504-54.78 54.732-54.78c30.278 0 54.782 24.552 54.782 54.78s-24.506 54.73-54.782 54.73z" fill="#F58E70" /><path d="M273.604 737.998c-55.864 0-101.312 45.448-101.312 101.312s45.448 101.312 101.312 101.312 101.312-45.448 101.312-101.312-45.448-101.312-101.312-101.312z m0 188.068c-47.836 0-86.756-38.918-86.756-86.756s38.918-86.756 86.756-86.756c47.836 0 86.756 38.918 86.756 86.756s-38.92 86.756-86.756 86.756z" fill="#4B555F" /><path d="M273.604 777.252c-34.192 0-62.012 27.84-62.012 62.058 0 34.192 27.82 62.01 62.012 62.01 34.218 0 62.058-27.816 62.058-62.01 0.002-34.22-27.84-62.058-62.058-62.058z m0 109.51c-26.168 0-47.456-21.288-47.456-47.452 0-26.192 21.288-47.502 47.456-47.502 26.194 0 47.502 21.31 47.502 47.502 0 26.166-21.308 47.452-47.502 47.452zM756.598 737.998c-55.866 0-101.312 45.448-101.312 101.312s45.446 101.312 101.312 101.312 101.312-45.448 101.312-101.312-45.446-101.312-101.312-101.312z m0 188.068c-47.838 0-86.756-38.918-86.756-86.756s38.916-86.756 86.756-86.756 86.756 38.918 86.756 86.756-38.916 86.756-86.756 86.756z" fill="#4B555F" /><path d="M756.598 777.252c-34.192 0-62.006 27.84-62.006 62.058 0 34.192 27.814 62.01 62.006 62.01 34.22 0 62.058-27.816 62.058-62.01 0-34.22-27.838-62.058-62.058-62.058z m0 109.51c-26.166 0-47.45-21.288-47.45-47.452 0-26.192 21.284-47.502 47.45-47.502 26.194 0 47.502 21.31 47.502 47.502 0 26.166-21.308 47.452-47.502 47.452zM235.692 322.504h573.384v14.556H235.692zM273.604 410.982h495.512v14.556H273.604z" fill="#4B555F" /><path d="M514.082 239.36h14.556v268.582h-14.556zM614.946 506.24l65.402-268.58 14.14 3.444-65.404 268.578zM337.582 241.064l14.146-3.442 65.374 268.576-14.144 3.444zM884.08 83.378c-77.15 0-139.916 62.768-139.916 139.918 0 77.152 62.764 139.918 139.916 139.918 77.15 0 139.92-62.768 139.92-139.918s-62.77-139.918-139.92-139.918z m0 265.28c-69.124 0-125.358-56.238-125.358-125.362s56.236-125.362 125.358-125.362c69.124 0 125.364 56.236 125.364 125.362s-56.24 125.362-125.364 125.362z" fill="#4B555F" /><path d="M804.618 172.066l-12.226-7.904a109.294 109.294 0 0 0-7.506 13.654l13.22 6.084a94.98 94.98 0 0 1 6.512-11.834z m-11.254 24.472l-13.958-4.12a109.414 109.414 0 0 0-3.326 15.222l14.404 2.082a94.666 94.666 0 0 1 2.88-13.184z m28.95-44.802l-9.524-11.008a110.208 110.208 0 0 0-11.026 10.99l10.984 9.554a96.544 96.544 0 0 1 9.566-9.536z m-32.802 71.446l-14.556 0.114c0 5.154 0.364 10.34 1.086 15.412l14.414-2.046a95.236 95.236 0 0 1-0.944-13.48z m185.408-26.238l13.978-4.066a108.812 108.812 0 0 0-5.416-14.614l-13.248 6.024a95.266 95.266 0 0 1 4.686 12.656z m-182.666 85.264a110.028 110.028 0 0 0 9.334 12.46l11.002-9.528a95.558 95.558 0 0 1-8.094-10.808l-12.242 7.876z m186.4-58.572l14.556-0.332a109.244 109.244 0 0 0-1.052-15.186l-14.414 2.02a96.18 96.18 0 0 1 0.91 13.498z m-14.87-51.194l12.254-7.858a110.76 110.76 0 0 0-9.306-12.476l-11.022 9.506a96.466 96.466 0 0 1 8.074 10.828z m-8.026-31.374a110.352 110.352 0 0 0-12.434-9.386l-7.922 12.214a95.46 95.46 0 0 1 10.784 8.136l9.572-10.964z m-26.09-16.91a108.438 108.438 0 0 0-14.59-5.502l-4.142 13.954a93.914 93.914 0 0 1 12.628 4.76l6.104-13.212z m-136.362 125.694l-13.968 4.094a109.338 109.338 0 0 0 5.444 14.602l13.24-6.054a94.396 94.396 0 0 1-4.716-12.642z m19.29 55.832a110.14 110.14 0 0 0 12.452 9.358l7.894-12.23a95.432 95.432 0 0 1-10.794-8.112l-9.552 10.984z m133.088-10.692l9.496 11.032a109.78 109.78 0 0 0 11.05-10.966l-10.956-9.582a96.358 96.358 0 0 1-9.59 9.516z m29.056-44.736l13.95 4.15a108.268 108.268 0 0 0 3.364-15.214l-14.404-2.11a94.384 94.384 0 0 1-2.91 13.174z m-11.31 24.448l12.206 7.932a109.432 109.432 0 0 0 7.538-13.64l-13.21-6.112a95.716 95.716 0 0 1-6.534 11.82z m-66.296 42.266l2 14.418a109.232 109.232 0 0 0 15.248-3.244l-4.046-13.984a94 94 0 0 1-13.202 2.81z m25.862-7.482l6.008 13.256a109.126 109.126 0 0 0 13.684-7.428l-7.838-12.266a94.318 94.318 0 0 1-11.854 6.438z m-23.138-194.18a109.822 109.822 0 0 0-15.538-1.138l-0.028 14.556c4.516 0.01 9.046 0.342 13.462 0.986l2.104-14.404z m-61.144 207.234a109.192 109.192 0 0 0 14.604 5.466l4.112-13.964a94.544 94.544 0 0 1-12.652-4.734l-6.064 13.232z m0.232-198.596a109.398 109.398 0 0 0-13.676 7.458l7.866 12.248a95.08 95.08 0 0 1 11.846-6.464l-6.036-13.242z m29.844-8.708a108.434 108.434 0 0 0-15.238 3.276l4.074 13.974a94 94 0 0 1 13.192-2.836l-2.028-14.414z m-0.242 216.082c5.104 0.732 10.33 1.102 15.532 1.102v-14.556a95.2 95.2 0 0 1-13.466-0.956l-2.066 14.41zM876.802 165.074h14.556v116.444h-14.556z" fill="#4B555F" /><path d="M825.86 216.016h116.446v14.556H825.86z" fill="#4B555F" /></svg>