<svg xmlns="http://www.w3.org/2000/svg" viewBox="0 0 1024 1024" width="200" height="200"><path d="M512 512m-440 0a440 440 0 1 0 880 0 440 440 0 1 0-880 0Z" fill="#9DD4A9" /><path d="M640.6 411.9H383.2v-61.2c0-3.8 3-6.8 6.8-6.8h243.6c3.8 0 6.8 3 6.8 6.8l0.2 61.2z" fill="#443F80" /><path d="M155 540v229.2c-4.8-6.7-9.5-13.5-13.9-20.5-14.6-22.7-27.1-46.9-37.3-72.2V540H155z" fill="#2A286B" /><path d="M920.1 540v137a434.22 434.22 0 0 1-37.1 71.7c-4.5 7.1-9.2 14-14.2 20.8V540h51.3z" fill="#171759" /><path d="M893.7 408.9c-4.6 0-9.1-2.7-11.3-7.1L778 177c-2.8-6.3-0.2-13.6 6-16.6 6.3-2.8 13.6-0.2 16.6 6L905 391.1c2.8 6.3 0.2 13.6-6 16.6-1.6 0.9-3.5 1.2-5.3 1.2z" fill="#534A9A" /><path d="M875.5 148c0 9.2-5.9 17.7-15 20.7L512 284.1 139.2 407.6c-11.4 3.8-23.7-2.5-27.5-14.1-0.8-2.3-1.1-4.6-1.1-6.9 0-9.3 5.9-17.9 15-20.9l386.3-128 334.8-110.9c11.4-3.8 23.7 2.5 27.5 14.1 0.9 2.3 1.3 4.8 1.3 7.1z" fill="#443F80" /><path d="M486.3 540h51.2v255.6h-51.2zM913.3 394.8l-0.2 145.2H110.7V388.2h795.9c3.7 0 6.7 3 6.7 6.6z" fill="#534A9A" /><path d="M110.7 513.6h802.5V540H110.7z" fill="#F9F7FC" /><path d="M913.3 394.8l-0.2 145.2H537.5v255.6H512V388.2h394.6c3.7 0 6.7 3 6.7 6.6z" fill="#443F80" /><path d="M152.2 500.5h16.9v13.1h-16.9zM185.7 500.5h16.9v13.1h-16.9zM220 500.5h16.9v13.1H220zM285.4 500.5h16.9v13.1h-16.9zM312.1 500.5H329v13.1h-16.9zM372.8 500.5h16.9v13.1h-16.9zM399.1 500.5H416v13.1h-16.9z" fill="#2A286B" /><path d="M849.8 500.5h16.9v13.1h-16.9zM816.3 500.5h16.9v13.1h-16.9zM782 500.5h16.9v13.1H782zM716.5 500.5h16.9v13.1h-16.9zM689.7 500.5h16.9v13.1h-16.9zM629.2 500.5h16.9v13.1h-16.9zM602.8 500.5h16.9v13.1h-16.9z" fill="#171759" /><path d="M464.4 500.5h16.9v13.1h-16.9zM490.5 500.5h16.9v13.1h-16.9z" fill="#2A286B" /><path d="M516.5 500.5h16.9v13.1h-16.9zM542.5 500.5h16.9v13.1h-16.9z" fill="#171759" /><path d="M936.3 502.2v89c0 3.6-3 6.6-6.6 6.6H94.3c-3.7 0-6.6-3-6.6-6.6v-89c0-3.7 3-6.6 6.6-6.6h44.6v44.2h746.2v-44.2h44.6c3.6 0 6.6 2.9 6.6 6.6z" fill="#443F80" /><path d="M936.3 502.2v89c0 3.6-3 6.6-6.6 6.6H512v-58h373.1v-44.2h44.6c3.6 0 6.6 2.9 6.6 6.6z" fill="#2A286B" /><path d="M537.5 782.3h-51.2v-38.8c0-14.1 11.4-25.5 25.5-25.5h0.2c7 0 13.3 2.9 17.9 7.5 4.6 4.6 7.5 11 7.5 18.1l0.1 25.5v13.2zM467.6 782.3h-51.2v-38.8c0-14.1 11.4-25.5 25.5-25.5s25.5 11.4 25.5 25.5l0.2 38.8zM607.5 782.3h-51.2v-38.8c0-14.1 11.4-25.5 25.5-25.5 7 0 13.4 2.9 18 7.5s7.5 11 7.5 18.1l0.1 25.5 0.1 13.2z" fill="#2A286B" /><path d="M633.2 775.8v30.7c0 3.8-3 6.8-6.8 6.8H397.5c-3.8 0-6.8-3-6.8-6.8v-30.7c0-3.8 3-6.8 6.8-6.8h228.9c3.8 0 6.8 3 6.8 6.8z" fill="#2A286B" /><path d="M640.5 350.7l0.2 61.2H512v-68h121.7c3.8 0 6.8 3 6.8 6.8zM875.5 148c0 9.2-5.9 17.7-15 20.7L512 284.1v-46.5l334.8-110.9c11.4-3.8 23.7 2.5 27.5 14.1 0.8 2.4 1.2 4.9 1.2 7.2z" fill="#2A286B" /><path d="M577.8 473.2H445.9c-2.8 0-5.1-2.3-5.1-5.1V317.2c0-2.8 2.3-5.1 5.1-5.1h131.9c2.8 0 5.1 2.3 5.1 5.1V468c0.2 2.9-2.1 5.2-5.1 5.2z" fill="#F9F7FC" /><path d="M577.8 473.2H512V312.1h65.8c2.8 0 5.1 2.3 5.1 5.1V468c0.2 2.9-2.1 5.2-5.1 5.2z" fill="#DCDAEB" /><path d="M571.3 358.8c0 1.4-0.5 2.6-1.4 3.5s-2.1 1.4-3.4 1.4H457.1c-2.7 0-4.8-2.2-4.8-4.8 0-1.3 0.5-2.5 1.4-3.4s2.1-1.4 3.4-1.4h109.4c2.7-0.1 4.8 2.1 4.8 4.7zM571.3 381c0 1.3-0.5 2.5-1.4 3.4s-2.1 1.4-3.4 1.4H457.1c-2.7 0-4.8-2.2-4.8-4.8 0-1.3 0.5-2.5 1.4-3.4s2.1-1.4 3.4-1.4h109.4c2.7 0 4.8 2.2 4.8 4.8zM571.3 403.1c0 1.3-0.5 2.5-1.4 3.4s-2.1 1.4-3.4 1.4H457.1c-2.7 0-4.8-2.2-4.8-4.8 0-1.3 0.5-2.5 1.4-3.4s2.1-1.4 3.4-1.4h109.4c2.7 0 4.8 2.1 4.8 4.8zM571.3 425.3c0 1.3-0.5 2.5-1.4 3.4s-2.1 1.4-3.4 1.4H457.1c-2.7 0-4.8-2.2-4.8-4.8 0-1.3 0.5-2.5 1.4-3.4s2.1-1.4 3.4-1.4h109.4c2.7 0 4.8 2.1 4.8 4.8zM571.3 447.3c0 1.3-0.5 2.5-1.4 3.4s-2.1 1.4-3.4 1.4H457.1c-2.7 0-4.8-2.2-4.8-4.8 0-1.3 0.5-2.5 1.4-3.4s2.1-1.4 3.4-1.4h109.4c2.7 0 4.8 2.2 4.8 4.8zM534.9 330.7c0 1.3-0.5 2.5-1.4 3.4s-2.1 1.4-3.4 1.4h-36.5c-2.6 0-4.8-2.2-4.8-4.8 0-1.3 0.5-2.5 1.4-3.4s2.1-1.4 3.4-1.4h36.5c2.6-0.1 4.8 2.1 4.8 4.8z" fill="#FFD071" /><path d="M530.1 335.5H512v-9.6h18.1c2.6 0 4.8 2.2 4.8 4.8 0 1.3-0.5 2.5-1.4 3.4-0.9 0.8-2.1 1.4-3.4 1.4zM571.3 447.3c0 1.3-0.5 2.5-1.4 3.4s-2.1 1.4-3.4 1.4H512v-9.6h54.5c2.7 0 4.8 2.2 4.8 4.8zM571.3 425.3c0 1.3-0.5 2.5-1.4 3.4s-2.1 1.4-3.4 1.4H512v-9.6h54.5c2.7 0 4.8 2.1 4.8 4.8zM571.3 403.1c0 1.3-0.5 2.5-1.4 3.4s-2.1 1.4-3.4 1.4H512v-9.6h54.5c2.7 0 4.8 2.1 4.8 4.8zM571.3 381c0 1.3-0.5 2.5-1.4 3.4s-2.1 1.4-3.4 1.4H512v-9.6h54.5c2.7 0 4.8 2.2 4.8 4.8zM566.5 363.6H512V354h54.5c2.6 0 4.8 2.2 4.8 4.8 0 1.4-0.5 2.6-1.4 3.5-0.8 0.8-2 1.3-3.4 1.3z" fill="#F9B630" /><path d="M110.7 469.2h802.5v26.4H110.7z" fill="#2A286B" /><path d="M633.2 775.8v30.7c0 3.8-3 6.8-6.8 6.8H512V718c7 0 13.3 2.9 17.9 7.5 4.6 4.6 7.5 11 7.5 18.1l0.1 25.5h18.8v-25.5c0-14.1 11.4-25.5 25.5-25.5 7 0 13.4 2.9 18 7.5s7.5 11 7.5 18.1l0.1 25.5h19c3.8-0.2 6.8 2.8 6.8 6.6zM512 469.2h401.3v26.4H512z" fill="#171759" /><path d="M512 513.6h373.1V540H512z" fill="#DCDAEB" /><path d="M929.7 490.6h-11.5l0.1-95.8c0-6.3-5.1-11.5-11.5-11.6l-90.4-194.6 45.7-15.1c11-3.6 18.4-13.9 18.4-25.4 0-3-0.5-6.1-1.6-8.8-2.3-6.9-7.1-12.4-13.5-15.7-6.4-3.2-13.6-3.7-20.3-1.5L510.3 233 124 361c-11 3.6-18.4 13.9-18.4 25.6 0 0.8 0 1.6 0.1 2.3v101.7H94.3c-6.4 0-11.6 5.2-11.6 11.6v89c0 6.4 5.2 11.6 11.6 11.6h4.5v73.7c0 2.8 2.2 5 5 5s5-2.2 5-5v-73.7H150v166.4c0 2.8 2.2 5 5 5s5-2.2 5-5V602.8h321.3V764h-8.8l-0.1-20.5c0-8.1-3.2-15.8-8.9-21.6-5.8-5.8-13.4-8.9-21.6-8.9-16.8 0-30.5 13.7-30.5 30.5V764h-13.9c-6.5 0-11.8 5.3-11.8 11.8v30.7c0 6.5 5.3 11.8 11.8 11.8h228.9c6.5 0 11.8-5.3 11.8-11.8v-30.7c0-6.5-5.3-11.8-11.8-11.8h-14l-0.1-20.4c0-8.2-3.2-15.9-9-21.6-5.8-5.8-13.4-9-21.5-9-16.8 0-30.5 13.7-30.5 30.5V764h-8.8V602.8h321.3v166.7c0 2.8 2.2 5 5 5s5-2.2 5-5V602.8h41.3V677c0 2.8 2.2 5 5 5s5-2.2 5-5v-74.2h4.6c6.4 0 11.6-5.2 11.6-11.6v-89c0-6.4-5.2-11.6-11.6-11.6z m-33.9-107.4h-16.5l-86.7-186.7 14.3-4.7 88.9 191.4z m-317.9 85h-132l-0.1-0.1V317.2l0.1-0.1h131.9l0.1 0.1v151z m-349.1-85l207.4-68.7c-0.2 0.9-0.4 1.8-0.4 2.7v21.7H390c-6.5 0-11.8 5.3-11.8 11.8v32.5H228.8z m159.4-32.5c0-1 0.8-1.8 1.8-1.8h45.8v34.3h-47.6v-32.5z m199.7-1.8h45.7c1 0 1.8 0.8 1.8 1.8l0.1 32.5h-47.6v-34.3z m57.6 34.3l-0.1-32.5c0-6.5-5.3-11.8-11.8-11.8h-45.7v-21.7c0-5.6-4.5-10.1-10.1-10.1H458.5l55.1-18.3L783 199.6l85.2 183.6H645.5z m-518.3-12.8l386.3-128 334.8-110.9c4.2-1.4 8.7-1.1 12.6 0.9 4.1 2 7.1 5.6 8.5 10 0 0.1 0.1 0.2 0.1 0.3 0.6 1.6 1 3.5 1 5.3 0 7.3-4.6 13.7-11.6 16l-51 16.9-297.5 98.5L197 383.2h-81c1.1-5.9 5.3-10.8 11.2-12.8z m-11.5 22.8h320.1v74.9c0 5.6 4.5 10.1 10.1 10.1h131.9c2.9 0 5.6-1.2 7.5-3.2 1.8-1.9 2.7-4.5 2.6-7.1v-74.7h318.5c0.9 0 1.7 0.7 1.7 1.6l-0.1 95.8h-23.1c-2.8 0-5 2.2-5 5v39.2h-736v-39.2c0-2.8-2.2-5-5-5h-23.2v-97.4z m375.6 350.3c0-11.3 9.2-20.5 20.5-20.5h0.2c5.4 0 10.5 2.1 14.4 6 3.9 3.9 6 9.1 6 14.6l0.1 20.4h-41.2v-20.5z m-69.9 0c0-11.3 9.2-20.5 20.5-20.5 5.5 0 10.6 2.1 14.5 6 3.9 3.9 6 9 6 14.5l0.1 20.5h-41.1v-20.5z m206.8 32.3v30.7c0 1-0.8 1.8-1.8 1.8H397.5c-1 0-1.8-0.8-1.8-1.8v-30.7c0-1 0.8-1.8 1.8-1.8h228.8c1.1 0 1.9 0.8 1.9 1.8z m-66.9-32.3c0-11.3 9.2-20.5 20.5-20.5 5.4 0 10.6 2.1 14.5 6 3.9 3.9 6 9.1 6 14.6l0.1 20.4h-41.1v-20.5z m-28.8-22.4c-5.7-5.2-12.9-8.1-20.5-8.1h-0.2c-7.9 0-15.1 3-20.5 7.9V602.8h41.2v118.3z m398.8-129.9c0 0.8-0.8 1.6-1.6 1.6H94.3c-0.9 0-1.6-0.7-1.6-1.6v-89c0-0.9 0.7-1.6 1.6-1.6h39.6v39.2c0 2.8 2.2 5 5 5h14.8c0.4 0.1 0.9 0.2 1.3 0.2h713.8c0.5 0 0.9-0.1 1.3-0.2h15c2.8 0 5-2.2 5-5v-39.2h39.6c0.9 0 1.6 0.7 1.6 1.6v89z" fill="#FFFFFF" /><path d="M927.6 658.2c-10.2-4.1-21.9 0.8-26 11-12.6 31.3-29.1 61.1-49 88.5-6.5 9-4.5 21.5 4.5 27.9 3.5 2.6 7.6 3.8 11.7 3.8 6.2 0 12.3-2.9 16.2-8.3 21.7-30.1 39.8-62.7 53.6-97 4.2-10.1-0.8-21.7-11-25.9zM796.9 820.6C719.1 892.5 617.9 932 512 932c-103 0-202-37.6-278.9-106-8.3-7.3-20.9-6.6-28.2 1.7-7.3 8.3-6.6 20.9 1.7 28.2C290.7 930.8 399.2 972 512 972c116 0 226.8-43.3 312-122 8.1-7.5 8.6-20.1 1.1-28.3-7.5-8.1-20.1-8.6-28.2-1.1zM122.3 669c-4.1-10.2-15.8-15.2-26-11.1s-15.2 15.8-11.1 26c13.8 34.3 31.8 66.9 53.5 96.9 3.9 5.4 10 8.3 16.2 8.3 4.1 0 8.1-1.2 11.7-3.8 9-6.5 11-19 4.5-27.9-19.7-27.3-36.2-57.1-48.8-88.4zM125.2 301.2c3.2 2 6.8 2.9 10.4 2.9 6.8 0 13.4-3.4 17.1-9.6 36.8-60.6 88.7-111.4 150.2-146.8C366.2 111.3 438.5 92 512 92c62.6 0 122.8 13.4 178.9 39.9 10 4.7 21.9 0.4 26.6-9.6 4.7-10 0.4-21.9-9.6-26.6C646.5 66.7 580.5 52 512 52c-80.5 0-159.7 21.1-229.1 61-67.3 38.7-124.2 94.3-164.4 160.7-5.8 9.5-2.8 21.8 6.7 27.5z" fill="#443F80" /></svg>