<svg xmlns="http://www.w3.org/2000/svg" viewBox="0 0 1024 1024" width="200" height="200"><path d="M512 512m-512 0a512 512 0 1 0 1024 0 512 512 0 1 0-1024 0Z" fill="#8CCCDF" /><path d="M613.936 212.752l-93.592 77.552-115.288 246.224 7.12 227.736 38.432 113.864-8.544 15.536 128.168 126.936c222.944-25.248 402.424-193.624 444.376-411.064L613.936 212.752z" fill="#71B8C4" /><path d="M404.216 425.456c-5.512 23.448-23.64 43.688-30.44 66.968-5.816 19.968-12.176 40.576-13.816 61.816-2.424 31.624-3.728 71.904 3.792 102.08 6.648 26.688 11.536 54.328 23.032 78.8 3.96 8.416 0.64 7.112 9.2 9.824 7.848 2.488 20.208 0 28.792 0h43.28c35.104 0 69.368-2.456 104.56-2.456h47.88c4.048 0 12.472 1.6 16.016 0.016 8.24-3.68 8.368-15.184 10.928-23.304 12.624-39.816 20.584-75.424 18.528-118.632-1.736-36.24-14.648-67.584-32.968-98.92-7.68-13.12-15.2-26.424-22.632-39.896-3.672-6.624-6.52-13.888-10.456-20.304-8.784-14.328-15.312-8.552-30.328-6.056-34.312 5.72-75.904 4.472-111.032 1.168-15.008-1.408-30.656-7.712-44.512-13.544" fill="#E11F26" /><path d="M513.576 669.528h-24.272c0-25.064-2.672-52.296-7.704-78.8-3.336-17.584-3.296-35.128-3.264-52.12l0.008-5.368c0-4.8-0.472-10.696-0.952-16.936-1.368-17.504-2.904-37.312 3.224-50.312l21.936 10.344c-3.376 7.168-1.984 25.032-0.968 38.088 0.528 6.944 1.032 13.48 1.032 18.824l-0.016 5.44c-0.04 16.56-0.08 32.2 2.84 47.512 5.328 27.96 8.136 56.776 8.136 83.328z" fill="#FFFDF5" /><path d="M427.088 833.16c-7.928 22.568 1.616 76.2 38.136 62.32 19.416-7.416 26.288-81.888 0.816-77.04M557.608 833.16c-7.928 22.568 1.624 76.2 38.144 62.32 19.408-7.416 26.296-81.888 0.816-77.04" fill="#89181A" /><path d="M379.744 723.024c0.112 39.464 11.16 80.352 36.624 109.76 10.536 12.168 31.928 14.752 48.032 11.528 21.008-4.184 17.272-22.592 20.664-38.584 2.08-9.744 6.232-19.44 9.336-29.136 1.92-5.984 2.056-18.488 5.84-23.664 15.248-20.824 37.68 21.304 42.064 34.4 2.896 8.712 7.088 18.84 8.328 27.544 1.168 8.176 0.792 20.296 6.456 27.008 7.168 8.48 39.752 8.464 48.36 1.04 6.592-5.672 7.872-15.488 12.256-22.816 4.832-8.112 10.44-14.84 14.152-23.768 5.6-13.44 8.568-31.432 8.216-46.064-0.216-8.944 0.032-13.624-8.928-16.968-11.432-4.264-25.464-4.672-37.792-4.64-50.528 0.08-101.064 0-151.584 0" fill="#C62127" /><path d="M405.464 423c-28.456 9.064-46.328 47.232-61.712 70.016-15.152 22.44-29.72 51.784-37.832 77.224-2.6 8.176-9.632 25.664-6.16 34.6 4.152 10.704 25.224 8.392 35.384 7.112 7.56-0.96 31.16-5.024 35.96-10.72 6.2-7.352 6.68-28.608 8.92-37.872 6.16-25.632 16.728-50.752 28.168-74.24 5.264-10.84 21.968-58.416-0.28-61.192" fill="#89181A" /><path d="M590.352 237.504c6.296-2.64 23.168 27.28 26.064 34.264 7.344 17.832 13.36 33.504 13.984 52.864 0.536 17.504-2.504 33.448-7.16 50.808-4.136 15.344-15.256 26.936-25.464 39.2-23.912 28.736-74.704 47.528-111.664 46.176-29.808-1.104-58.08-26.384-76.248-48.376-11.504-13.968-12.704-30.168-12.752-48.224-0.08-19.112-0.264-37.08 3.984-55.76 3.8-16.584 6.936-30.96 21.136-41.768 9.456-7.2 20.296-12.792 30.992-17.824 11.12-5.2 37.896-17.624 48.472-11.904l88.656 0.544z" fill="#F9D096" /><path d="M611.672 241.016c9.04 16.264 25.504 27.304 35.272 43.4 7.608 12.496 14.312 24.384 19.888 38.12 14.16 34.856-3.872 69.792-29.032 94.752-6.136 6.096-14.328 10.888-21.104 16.256-4.4 3.48-12.712 7.36-15.984 11.648-7.68 10.096-2.24 29.024-7.832 41.112-5.464 11.832-18.712 17.344-24.616 28.752-6.24 12.024 0.336 20.72-1.216 32.536-0.168 1.344 0.752 4.648 0.848 5.928-5.792-2.248-9.248-7.56-14.72-10.312-7.872-3.952-18.824-5.168-27.384-7.408-14.832-3.872-31.52-7.936-40.592-21.648-3.512-5.304-5.384-17.24-10.096-21.04-3.032-2.472-10.328-1.64-15.632-3.264-11.424-3.504-17.712-9.192-25.904-17.488-11.32-11.456-22.6-24.656-26.76-41.28-2.568-10.264-5.464-29.08-9.736-37.52-4.48-8.896-0.032-35.472 0-45.352 4.8 9.752 19.784 47.024 28.096 54.424 10.68 9.48 16.744-8.168 20.992-16.664 6.744-13.536 25.12-45.072 42.184-26.464 18.632 20.32-14.44 27.472-24.008 42.888-16.096 25.936 23.32 28.56 40.312 26.736 18.224-1.96 58.184-11.232 54.68-36.4-3.752-27.064-47.584-10.376-47.616-32.12-0.048-30.984 47.736-7.72 58.104 1.2 16.728 14.408 39.32 20.816 45.952-7.256 4.224-17.776 2.968-39.104-4.112-56.288-5.448-13.256-9.952-34.2-20.848-43.272" fill="#FFFDF5" /><path d="M553.096 305.104m-10.752 0a10.752 10.752 0 1 0 21.504 0 10.752 10.752 0 1 0-21.504 0Z" fill="#233640" /><path d="M444.376 320.456a10.744 10.744 0 0 1-5.936 14 10.752 10.752 0 1 1-8.096-19.936 10.768 10.768 0 0 1 14.032 5.936z" fill="#233640" /><path d="M523.272 328.808a29.536 29.536 0 1 1-54.744 22.192 29.536 29.536 0 0 1 54.744-22.192z" fill="#E11F26" /><path d="M468.976 411.84c2.864 0.048 5.8 2.4 8.504 3.384 3.416 1.24 7.144 1.944 10.664 2.88 6.296 1.656 12.096 3.192 18.48 2 9.688-1.824 18.488-5.328 27.68-9.048 7.072-2.872 12.96-4.48 17.48-10.728 3.072-4.24 8.128-9.848 1.544-11.88-5.28-1.624-10.592-2.704-15.92-4.144-4.984-1.312-10.52-1.024-15.472 0.488-2.296 0.688-4.704 2.592-7.064 2.896-2.784 0.344-6.128-1.448-8.872-1.68-7.64-0.656-16.352 1.896-22.752 6.32-3.232 2.256-6.216 6.152-8.744 9.12-1.856 2.2-6.368 6.44-6.864 9.216" fill="#BB2026" /><path d="M586.472 220.128c-10.288-17.992-23.4-38.248-39.8-51.456-13.984-11.216-31.912-28.168-48.656-34.504-26.232-9.904-60.792-12.312-84.728 3.384-5.832 3.832-17 12.912-19.912 19.08-3.416 7.208-2.52 17.008-5.496 24.536-7.088 17.872-17.016 32.936-29.312 47.128 10.512-1.144 18.768-4.408 28.936-7.936 6.232-2.16 13.288-3.504 19.192-6.72 5.24-2.856 10.024-8.904 15.92-9.456-0.304 13.184-12.944 21.936-15.184 34.16 15.024 4.528 35.384-5.544 50.384-8.16 24.656-4.24 48.536-0.424 72.544-1.784 16.784-0.952 33.96-0.92 50.008-3.184l6.104-5.088z" fill="#D22027" /><path d="M377.968 232.328a29.64 29.64 0 0 1-34.368 23.888 29.48 29.48 0 0 1-23.784-34.328 29.672 29.672 0 0 1 34.384-23.888 29.488 29.488 0 0 1 23.768 34.328zM620.648 253.032c-21.504 9.592-52 4.552-75.632 3.864-33.352-0.96-64.136-1.904-95.68 8.344-11.232 3.64-20.128 4.4-28.504 12.336-6.48 6.112-13.84 11.136-24.8 9.344-9.264-1.488-20.096-11.856-18.528-22.784 1.496-10.248 16.56-19.456 24.648-24.512 11.232-7.048 24.064-10.08 35.136-16.168 12.528-6.928 24.168-14.48 38.08-18.44 23.488-6.72 53.328-8.288 78.096-7.568 19.696 0.576 40.904-1.424 56.312 12.792 8.176 7.528 20.64 29.168 11.992 39.792" fill="#FFFAFC" /><path d="M348.928 636.816s194.648 28.24 320.968 0l-17.424 65.872s-153.632 33.624-285.112 5.384l-18.432-71.256z" fill="#1F1C1D" /><path d="M531.088 733.8h-42.312a30.368 30.368 0 0 1-30.336-30.328v-42.4c0-16.728 13.6-30.328 30.336-30.328h42.312c16.736 0 30.344 13.6 30.344 30.328v42.4a30.376 30.376 0 0 1-30.344 30.328z m-42.312-90.928a18.216 18.216 0 0 0-18.2 18.192v42.4a18.208 18.208 0 0 0 18.2 18.184h42.312a18.208 18.208 0 0 0 18.2-18.184v-42.4a18.216 18.216 0 0 0-18.2-18.192h-42.312z" fill="#EDC55D" /><path d="M301.216 638.2c-6.536 13.52 5.2 29.936 15.272 37.688 11.808 9.048 22.216 13.376 37.144 12.752 6.824-0.288 11.44-6.536 4.784-11.176-2.504-1.76-8.048-3.04-9.28-5.976-2.92-6.936 8.496 1.296 9.568 1.424 0.384-8.072-2.96-13.544-5.328-20.888-1.264-3.888-1.048-7.328-1.432-11.512-0.304-3.48-1.264-7.792-3.432-10.576-3.784-4.872-11.568-3.28-17.032-3.296" fill="#F9D096" /><path d="M302.592 594.736c-10.552 0.016-14.616 1.752-17.648 11.84-1.616 5.4-1.752 11.424-2.256 17.16-0.416 4.736-2.568 11.144-0.016 15.36 5.456 9 26.36 8.544 35.72 8.544 15.256-0.016 30.04-0.304 43.408-7.424 7.328-3.896 8.72-7.256 7.936-15.752-0.648-7.224-0.464-14.36-3.992-20.656-5.952-10.6-16.648-9.656-28.168-9.656-8.328 0-16.4 0.576-24.744 0.576" fill="#FFFDF5" /><path d="M618.536 423c28.456 9.064 46.328 47.232 61.712 70.016 15.152 22.44 29.72 51.784 37.832 77.224 2.608 8.176 9.632 25.664 6.16 34.6-4.144 10.704-25.224 8.392-35.384 7.112-7.56-0.96-31.16-5.024-35.96-10.72-6.2-7.352-6.672-28.608-8.912-37.872-6.168-25.632-16.736-50.752-28.168-74.24-5.264-10.84-21.968-58.416 0.288-61.192" fill="#89181A" /><path d="M722.784 638.2c6.536 13.52-5.2 29.936-15.272 37.688-11.808 9.048-22.216 13.376-37.144 12.752-6.816-0.288-11.44-6.536-4.784-11.176 2.504-1.76 8.056-3.04 9.28-5.976 2.92-6.936-8.496 1.296-9.568 1.424-0.376-8.072 2.96-13.544 5.328-20.888 1.264-3.888 1.048-7.328 1.432-11.512 0.304-3.48 1.264-7.792 3.432-10.576 3.784-4.872 11.568-3.28 17.032-3.296" fill="#F9D096" /><path d="M721.416 594.736c10.544 0.016 14.616 1.752 17.64 11.84 1.624 5.4 1.752 11.424 2.256 17.16 0.416 4.736 2.568 11.144 0.016 15.36-5.456 9-26.36 8.544-35.72 8.544-15.256-0.016-30.024-0.304-43.408-7.424-7.32-3.896-8.712-7.256-7.936-15.752 0.648-7.224 0.464-14.36 3.992-20.656 5.952-10.6 16.648-9.656 28.168-9.656 8.328 0 16.4 0.576 24.744 0.576" fill="#FFFDF5" /></svg>