<svg xmlns="http://www.w3.org/2000/svg" viewBox="0 0 1024 1024" width="200" height="200"><path d="M423.594667 611.669333L413.013333 559.786667c2.389333 18.090667 5.802667 35.498667 9.898667 52.224 0.341333 0 0.682667-0.341333 0.682667-0.341334zM450.56 549.888c3.072 25.258667 7.850667 48.128 13.653333 67.925333l-13.653333-67.925333z" fill="#000000" /><path d="M555.008 512.682667c-24.576 0-44.714667-20.138667-44.714667-44.714667 0-24.576 20.138667-44.714667 44.714667-44.714667s44.714667 20.138667 44.714667 44.714667c0.341333 24.576-19.797333 44.714667-44.714667 44.714667z m0-56.32c-6.485333 0-11.605333 5.12-11.605333 11.605333s5.12 11.605333 11.605333 11.605333 11.605333-5.12 11.605333-11.605333-5.12-11.605333-11.605333-11.605333zM555.008 739.328c9.898667 0 21.162667-9.216 31.744-26.282667-2.730667-61.098667-22.869333-94.208-31.744-94.208-8.533333 0-29.013333 32.768-31.744 94.208 10.581333 17.066667 21.845333 26.282667 31.744 26.282667zM528.384 765.269333c6.485333 24.234667 17.749333 45.056 26.624 58.709334 8.874667-13.653333 20.138667-34.474667 26.624-58.709334-8.192 4.778667-17.066667 7.168-26.624 7.168s-18.090667-2.389333-26.624-7.168z" fill="#FBDF83" /><path d="M586.752 713.045333c-10.581333 17.066667-21.845333 26.282667-31.744 26.282667-9.898667 0-21.162667-9.216-31.744-26.282667-0.341333 4.437333-0.341333 9.216-0.341333 14.336 0 13.312 2.048 26.282667 5.461333 38.229334 8.192 4.778667 17.066667 7.168 26.624 7.168s18.432-2.730667 26.624-7.168c3.072-11.946667 5.461333-24.917333 5.461333-38.229334 0-5.12 0-9.898667-0.341333-14.336z" fill="#FBDF83" /><path d="M581.632 765.269333c-6.485333 24.234667-17.749333 45.056-26.624 58.709334-8.874667-13.653333-20.138667-34.474667-26.624-58.709334-15.018667-8.533333-27.989333-23.552-38.570667-43.690666v5.802666c0 74.410667 50.517333 133.461333 52.565334 135.850667 3.072 3.754667 7.850667 5.802667 12.629333 5.802667s9.216-2.048 12.629333-5.802667c2.048-2.389333 52.565333-61.44 52.565334-135.850667v-5.802666c-10.581333 20.138667-23.552 35.498667-38.570667 43.690666z" fill="#FBDF83" /><path d="M657.749333 535.552v-1.024c0-126.976-86.357333-228.010667-90.112-232.106667l-12.629333-14.336-12.629333 14.336c-3.754667 4.096-87.381333 102.058667-89.770667 226.304 0 2.048-0.341333 3.754667-0.341333 5.802667v4.096c-23.552 24.917333-83.968 103.424-46.762667 225.962667 2.048 6.826667 8.192 11.605333 15.36 11.946666h0.341333c6.826667 0 13.312-4.437333 15.701334-10.922666 4.096-11.605333 10.581333-25.258667 17.749333-38.229334 5.461333-2.730667 9.898667-6.826667 13.312-12.288 3.413333-5.802667 5.802667-11.946667 8.874667-18.090666l1.365333-1.365334c3.413333 9.216 7.168 18.090667 11.605333 26.282667 10.581333 20.138667 23.552 35.498667 38.570667 43.690667-3.072-11.946667-5.461333-24.917333-5.461333-38.229334 0-4.778667 0-9.557333 0.341333-14.336 10.581333 17.066667 21.845333 26.282667 31.744 26.282667 18.432 0 41.642667-31.744 55.978667-87.722667 5.802667 21.162667 8.874667 45.397333 9.216 69.973334 4.437333-8.533333 8.533333-18.090667 12.288-28.330667 17.408 15.701333 34.816 48.469333 43.690666 72.362667 2.389333 6.485333 8.533333 10.922667 15.701334 10.922666h0.341333c7.168-0.341333 13.312-4.778667 15.36-11.946666 38.912-128-29.013333-208.213333-49.834667-229.034667z" fill="#FBDF83" /><path d="M587.093333 727.381333c0 13.312-2.048 26.282667-5.461333 38.229334 15.018667-8.533333 27.989333-23.552 38.570667-43.690667-0.341333-24.576-3.413333-48.810667-9.216-69.973333-6.485333 25.941333-15.018667 46.421333-24.234667 61.44 0.341333 4.096 0.341333 8.874667 0.341333 13.994666z" fill="#FBDF83" /><path d="M378.88 671.402667c-6.144-69.632 19.114667-119.808 39.594667-148.48l7.509333 36.864c-4.096-28.672-6.144-58.709333-6.144-88.405334 0-2.389333 0.341333-4.437333 0.341333-6.826666-1.024 0.682667-2.048 1.024-3.072 2.048-4.778667 4.096-115.712 101.034667-64.170666 271.36 2.389333 7.850667 9.557333 13.312 17.749333 13.653333h0.341333c8.192 0 15.36-5.12 18.090667-12.629333 11.264-31.061333 34.816-74.752 57.344-89.429334-4.096-11.946667-7.850667-24.576-10.922667-37.546666-23.210667 10.922667-42.666667 35.498667-56.661333 59.392zM676.522667 671.402667c6.144-69.632-19.114667-119.808-39.594667-148.48l-7.509333 36.864c4.096-28.672 6.144-58.709333 6.144-88.405334 0-2.389333-0.341333-4.437333-0.341334-6.826666 1.024 0.682667 2.048 1.024 3.072 2.048 4.778667 4.096 115.712 101.034667 64.170667 271.36-2.389333 7.850667-9.557333 13.312-17.749333 13.653333h-0.341334c-8.192 0-15.36-5.12-18.090666-12.629333-11.264-31.061333-34.816-74.752-57.344-89.429334 4.096-11.946667 7.850667-24.576 10.922666-37.546666 23.210667 10.922667 42.666667 35.498667 56.661334 59.392z" fill="#000000" /><path d="M461.141333 637.269333c3.413333-4.437333 4.778667-10.24 3.754667-15.701333l-0.682667-4.096c-5.802667-19.797333-10.581333-42.325333-13.653333-67.925333l-14.677333-72.362667c-1.365333-6.826667-6.144-12.288-12.629334-14.336-5.461333-1.706667-10.922667-1.024-15.701333 1.706667 0 2.389333-0.341333 4.437333-0.341333 6.826666 0 29.696 2.048 59.392 6.144 88.405334l10.581333 51.882666c-0.341333 0-0.341333 0.341333-0.682667 0.341334 3.072 13.312 6.826667 25.941333 10.922667 37.546666 4.437333-2.730667 8.874667-4.778667 12.970667-4.778666 5.461333-0.341333 10.581333-3.072 13.994666-7.509334zM525.994667 446.464c-28.672 0-51.882667-23.210667-51.882667-51.882667 0-28.672 23.210667-51.882667 51.882667-51.882666 28.672 0 51.882667 23.210667 51.882666 51.882666 0 28.672-23.210667 51.882667-51.882666 51.882667z m0-65.536c-7.509333 0-13.312 6.144-13.312 13.312 0 7.509333 6.144 13.312 13.312 13.312s13.312-6.144 13.312-13.312c0-7.168-5.802667-13.312-13.312-13.312z" fill="#000000" /><path d="M562.517333 677.888c-12.288 19.797333-25.258667 30.378667-36.522666 30.378667-11.605333 0-24.576-10.581333-36.522667-30.378667-0.341333 5.461333-0.341333 10.922667-0.341333 16.384 0 15.36 2.389333 30.378667 6.144 44.032 9.557333 5.461333 19.797333 8.192 30.72 8.192s21.162667-3.072 30.72-8.192c3.754667-13.994667 6.144-28.672 6.144-44.032 0-5.461333 0-10.922667-0.341334-16.384zM447.146667 644.778667c-4.096 0.341333-8.533333 2.048-12.970667 4.778666 4.778667 13.994667 10.24 26.624 16.384 38.229334 0.341333-15.36 1.365333-30.378667 3.413333-45.056-2.048 1.365333-4.437333 2.048-6.826666 2.048zM644.778667 471.722667c0-146.773333-100.010667-263.850667-104.106667-268.629334l-14.677333-16.725333-14.677334 16.725333c-4.096 4.778667-101.034667 118.101333-104.106666 261.802667 4.778667-2.730667 10.581333-3.413333 15.701333-1.706667 6.485333 2.389333 11.264 7.850667 12.629333 14.336l14.677334 72.362667c-3.072-23.893333-4.778667-49.834667-4.778667-78.165333 0-100.010667 53.589333-187.392 80.213333-224.597334 26.624 37.205333 80.213333 124.586667 80.213334 224.597334 0 53.248-6.144 98.645333-15.701334 135.509333 6.485333 24.576 10.24 52.565333 10.581334 80.896 29.013333-53.930667 44.032-136.533333 44.032-216.405333z" fill="#000000" /><path d="M556.714667 738.645333c-7.509333 27.989333-20.48 52.224-30.72 67.925334-10.24-15.701333-23.210667-39.936-30.72-67.925334-17.408-9.557333-32.085333-27.306667-44.714667-50.517333v6.485333c0 86.016 58.368 154.282667 61.098667 157.354667 3.754667 4.096 8.874667 6.485333 14.677333 6.485333s10.922667-2.389333 14.677333-6.485333c2.389333-2.730667 61.098667-71.338667 61.098667-157.354667v-6.485333c-13.312 23.210667-27.989333 40.96-45.397333 50.517333z" fill="#000000" /><path d="M495.274667 738.645333c-3.754667-13.994667-6.144-28.672-6.144-44.032 0-5.802667 0-11.264 0.341333-16.384-9.216-15.018667-18.090667-35.498667-25.258667-60.416l0.682667 4.096c1.024 5.461333-0.341333 11.264-3.754667 15.701334-2.048 2.389333-4.437333 4.437333-7.168 5.802666-2.048 14.677333-3.072 29.696-3.413333 45.056 12.288 22.869333 27.306667 40.618667 44.714667 50.176zM562.858667 694.613333c0 15.36-2.389333 30.378667-6.144 44.032 17.408-9.557333 32.085333-27.306667 44.714666-50.517333-0.341333-28.330667-4.096-56.32-10.581333-80.896-7.850667 30.037333-17.408 53.930667-27.989333 70.997333v16.384z" fill="#000000" /></svg>