<svg xmlns="http://www.w3.org/2000/svg" viewBox="0 0 1024 1024" width="200" height="200"><path d="M581.463881 904.976557s20.271124 4.406766 40.012418 4.406766c17.830846 0 35.218468-4.30997 36.104915-4.30997a4.25393 4.25393 0 0 0 0-8.492577c-0.886448 0-18.27407 4.315065-36.104915 4.315065-18.849751 0-38.208955-4.218269-38.208956-4.218269a4.243741 4.243741 0 0 0-1.803462 8.298985z" fill="#187EA4" /><path d="M537.238289 152.998846h168.476019a6.011542 6.011542 0 0 1 6.016637 6.016637V195.120398c-30.083184 74.487085-30.72 291.799244-55.290905 360.162706-12.466308 34.693731-88.802706 135.38197-89.7401 120.342926 0 0-5.395104-406.018547-35.483383-480.505632v-36.104915a6.021731 6.021731 0 0 1 6.021732-6.016637z" fill="#E8F2F6" /><path d="M543.53003 199.359045h156.167642a4.248836 4.248836 0 1 0 0-8.492577H543.53003a4.248836 4.248836 0 0 0 0 8.492577z" fill="#187EA4" /><path d="M584.663244 1020.072119l0.061134 0.005095 0.163025 0.010189 0.219065 0.010189h72.739661a3.907502 3.907502 0 0 0 0.417752-0.025473s4.610547-0.244537 8.961273-5.196418c3.448995-3.922786 7.096677-11.335323 6.633075-25.605094v-87.804179c1.248159-4.090905 8.146149-27.184398 9.017313-41.194348a3.606925 3.606925 0 0 0 0.010189-0.239443s1.472318-289.170468 12.67009-488.213652c4.763383-84.681234 11.157015-152.942806 20.113194-175.114189a4.248836 4.248836 0 0 0 0.310766-1.589493v-36.104915a10.255284 10.255284 0 0 0-10.265473-10.260378h-168.476019a10.260378 10.260378 0 0 0-10.265473 10.260378v36.104915c0 0.545114 0.106985 1.085134 0.310766 1.589493 8.956179 22.171383 15.349811 90.432955 20.113194 175.114189 11.197771 199.043184 12.67009 488.213652 12.67009 488.213652l0.010189 0.239443c0.871164 14.020139 7.779343 37.144199 9.022408 41.204537-0.005095-0.010189-0.005095 87.839841-0.005095 87.839841-0.453413 14.239204 3.18408 21.641552 6.62798 25.559243 4.162229 4.732816 8.5639 5.165851 8.940896 5.196418z m72.724378-8.467104h-71.883781c-1.864597-0.48398-8.51805-3.963542-7.92199-22.084776v-88.695722a4.121473 4.121473 0 0 0-0.193592-1.268537s-7.855761-24.927522-8.823722-39.625234c-0.045851-6.999881-1.62006-291.804338-12.690467-488.590646-4.783761-85.027662-11.467781-153.727363-20.413771-177.034826 0.005095 0.005095 0.005095-35.294886 0.005094-35.294886a1.767801 1.767801 0 0 1 1.772896-1.772895h168.476019a1.767801 1.767801 0 0 1 1.772896 1.772895v35.29998c-8.935801 23.287085-15.624915 91.991881-20.408677 177.029732-11.075502 196.842348-12.649711 481.758886-12.685373 488.524417-0.947582 14.687522-8.828816 39.691463-8.828816 39.691463a4.126567 4.126567 0 0 0-0.198686 1.268537v88.553075l0.005094 0.142647c0.575682 17.596498-7.168 21.702687-7.983124 22.084776z" fill="#187EA4" /><path d="M295.518249 624.823403C289.501612 549.261373 226.604577 341.990527 223.313512 350.69198c0 0 6.602507 562.609035-29.502408 645.053771v4.967164a12.033274 12.033274 0 0 0 11.865155 12.033274l221.234945 3.102567s8.986746-15.935682 6.999881-22.823482c-9.022408-31.300776-78.221373-154.939861-78.221374-154.939861-3.291065-8.706547-57.685333-182.05803-60.171462-213.26201z" fill="#E8F2F6" /><path d="M249.152955 507.185672s2.012338 179.261134-2.124418 288.620258a4.25393 4.25393 0 0 0 8.487483 0.315861c4.141851-109.51196 2.129512-289.027821 2.129512-289.027821a4.25393 4.25393 0 0 0-8.492577 0.091702zM245.622448 825.802507c-1.283821 22.023642-7.753871 54.715224-11.284378 65.067304a4.238647 4.238647 0 1 0 8.034069 2.740856c3.657871-10.708697 10.39793-44.526169 11.727602-67.31399a4.243741 4.243741 0 1 0-8.477293-0.49417z" fill="#187EA4" /><path d="M240.298667 184.32s-6.928557 2.898786-13.250866 8.645413c-4.42205 4.024677-8.497672 9.409592-10.015841 16.052856a4.15204 4.15204 0 0 0-0.106985 1.003622S225.758886 847.790488 189.704915 983.697194a4.30997 4.30997 0 0 0-0.137552 1.085134v15.762468a16.261731 16.261731 0 0 0 16.277015 16.282109h218.448239a16.277015 16.277015 0 0 0 16.277015-16.282109v-15.762468a4.096 4.096 0 0 0-0.142647-1.085134c-36.048876-135.906706-27.214965-773.675303-27.214965-773.675303a4.15204 4.15204 0 0 0-0.106985-1.003622c-1.518169-6.643264-5.593791-12.028179-10.015841-16.052856a51.943801 51.943801 0 0 0-13.25596-8.645413 4.243741 4.243741 0 1 0-3.291065 7.825194s5.66002 2.399522 10.830965 7.101771c3.133134 2.847841 6.138905 6.551562 7.33612 11.182488-0.264915 20.86209-8.013692 639.826786 27.372895 774.923462v15.191881c0 4.304876-3.489751 7.789532-7.789532 7.789532H205.844378a7.794627 7.794627 0 0 1-7.789532-7.789532v-15.212259C233.441433 850.210388 225.692657 231.291542 225.422647 210.444736c1.202308-4.641114 4.20808-8.34993 7.336119-11.197771a43.186308 43.186308 0 0 1 10.83606-7.101771 4.248836 4.248836 0 0 0-3.296159-7.825194z" fill="#187EA4" /><path d="M205.844378 986.743721h216.619304a4.248836 4.248836 0 0 0 0-8.492577H205.844378a4.243741 4.243741 0 0 0 0 8.492577zM314.15403 2.149891c-56.753035 0-73.03005 3.530507-94.788776 13.760318a4.243741 4.243741 0 0 0-2.440279 3.841274v134.913273a4.238647 4.238647 0 0 0 5.558129 4.034866s35.080915-11.350607 91.670926-11.350607c56.640955 0 93.515144 11.370985 93.515144 11.370985a4.25393 4.25393 0 0 0 5.50209-4.055244V19.751483a4.243741 4.243741 0 0 0-2.440279-3.841274C388.977353 5.685493 373.953592 2.149891 314.15403 2.149891z m0 8.492577c55.275622 0 70.829214 2.873313 90.524657 11.819303v126.639761c-12.476498-3.168796-45.387144-10.245095-90.524657-10.245094-44.826746 0-76.524896 6.979502-88.736478 10.189055V22.466866c19.771861-8.94599 36.313791-11.824398 88.736478-11.824398z" fill="#187EA4" /><path d="M219.390726 159.642109s12.573294 12.547821 15.36 29.288438a4.25393 4.25393 0 0 0 5.863801 3.204458s20.602269-8.686169 73.539503-8.686169c53.049313 0 75.439761 8.73202 75.439761 8.73202a4.259025 4.259025 0 0 0 5.746627-3.250309c2.791801-16.740617 15.365095-29.288438 15.365094-29.288438a4.248836 4.248836 0 0 0-6.006447-6.001353s-12.170826 12.191204-16.694766 29.125413c-9.292418-2.638965-32.717055-7.804816-73.850269-7.804816-40.63395 0-63.034587 5.043582-72.082468 7.728398-4.539224-16.893453-16.679483-29.048995-16.679482-29.048995a4.248836 4.248836 0 0 0-6.001354 6.001353z" fill="#187EA4" /><path d="M753.276816 684.113512c9.873194 0 17.886886 74.80804 17.886885 86.785274 0 11.972139-8.013692 21.692498-17.886885 21.692498-9.8681 0-17.881791-9.720358-17.881791-21.692498 0-11.977234 8.013692-86.785274 17.881791-86.785274z" fill="#E8F2F6" /><path d="M753.276816 679.869771c-1.513075 0-3.082189 0.534925-4.559602 1.839125-1.696478 1.492697-3.515224 4.529035-5.079244 8.828815-7.234229 19.894129-12.486687 70.605055-12.486686 80.361075 0 14.519403 10.158488 25.941333 22.125532 25.941333 11.972139 0 22.130627-11.42193 22.130627-25.941333 0-9.75602-5.252458-60.466945-12.486687-80.361075-1.569114-4.299781-3.382766-7.336119-5.079244-8.828815-1.482507-1.304199-3.046527-1.839124-4.564696-1.839125z m0 9.796776c0.168119 0.285294 0.331144 0.575682 0.463602 0.850786 1.283821 2.710289 2.491224 6.566846 3.637492 11.116259 5.654925 22.41592 9.536955 61.006965 9.536956 69.265194 0 9.42997-5.858706 17.448756-13.63805 17.448756-7.774249 0-13.63805-8.018786-13.63805-17.448756 0-8.258229 3.88203-46.849274 9.54205-69.265194 1.146269-4.549413 2.353672-8.40597 3.637492-11.116259 0.132458-0.275104 0.290388-0.565493 0.458508-0.850786z" fill="#187EA4" /><path d="M783.003383 538.756458c11.182488-2.679721 40.547343 79.892378 43.797652 93.459104 3.245214 13.566726-3.194269 26.751363-14.376756 29.42599-11.182488 2.679721-22.8999-6.159284-26.145115-19.72601-3.245214-13.566726-14.453174-100.484458-3.275781-103.159084z" fill="#FFFFFF" /><path d="M782.015045 534.624796c-1.569114 0.376995-3.051622 1.329672-4.259025 3.041433-1.472318 2.093851-2.64406 5.914746-3.235025 11.060219-2.791801 24.438448 4.992637 83.152876 7.631602 94.177433 3.836179 16.042667 18.034627 26.033035 31.26002 22.869333 13.220299-3.168796 21.356259-18.503323 17.514985-34.54599-2.638965-11.024557-22.283463-66.901333-35.845095-87.42209-2.852935-4.320159-5.629453-7.198567-7.891422-8.395781-1.854408-0.983244-3.601831-1.161552-5.17604-0.784557z m2.170268 9.063164c0.173214 0.147741 0.346428 0.305672 0.489075 0.458508 2.491224 2.598209 5.318687 7.239323 8.344836 13.021612 12.512159 23.903522 27.408557 66.661891 29.650149 76.03582 2.654249 11.090786-2.093851 22.120438-11.233433 24.311085-9.144677 2.190647-18.370866-5.496995-21.025114-16.587781-2.246687-9.37393-8.329552-54.241433-7.998408-81.22205 0.081512-6.52609 0.504358-11.941572 1.543642-15.390567a7.947463 7.947463 0 0 1 0.229253-0.626627z" fill="#187EA4" /></svg>