<svg xmlns="http://www.w3.org/2000/svg" viewBox="0 0 1024 1024" width="200" height="200"><path d="M671.994025 777.161218a7.999701 7.999701 0 0 1-7.999701-7.999701V712.011651a7.999701 7.999701 0 0 1 15.999402 0v57.149866a7.999701 7.999701 0 0 1-7.999701 7.999701zM512 530.274438a84.732836 84.732836 0 0 1-70.653362-37.806589 8.0317 8.0317 0 0 1-1.343949-4.447833v-28.174948a7.999701 7.999701 0 0 1 10.927592-7.455722 166.873768 166.873768 0 0 0 122.155438 0 7.999701 7.999701 0 0 1 10.927592 7.455722V488.020016a7.935704 7.935704 0 0 1-1.34395 4.431834A84.764835 84.764835 0 0 1 512 530.274438z m-55.997909-44.750329c12.943517 18.047326 33.694742 28.750926 55.997909 28.750926s43.054392-10.7036 55.997909-28.750926v-14.335465a182.88917 182.88917 0 0 1-111.995818 0v14.335465zM589.053123 1023.984001c-29.118913 0-58.429818-7.551718-84.89283-23.03914l-87.868719-51.518076a152.010323 152.010323 0 0 0-76.877129-20.87922h-44.558336a7.999701 7.999701 0 0 1 0-15.999403h44.558336c29.838886 0 59.229788 7.967702 84.972827 23.055139l87.868718 51.518076a151.962325 151.962325 0 0 0 184.329117-23.647117L863.730865 796.328502c6.047774-6.047774 9.37565-14.079474 9.37565-22.623155s-3.327876-16.575381-9.37565-22.623155c-12.095548-12.095548-33.150762-12.095548-45.24631 0l-67.885465 67.869465a7.999701 7.999701 0 0 1-11.311578-11.311577l67.885465-67.869466c18.127323-18.127323 49.742142-18.127323 67.869466 0a47.67822 47.67822 0 0 1 14.063474 33.934733c0 12.815521-4.991814 24.879071-14.063474 33.934733L707.912684 974.801837a167.913729 167.913729 0 0 1-118.859561 49.182164z" fill="#263238" /><path d="M142.877784 712.555631v231.991336a15.999403 15.999403 0 0 0 15.999403 15.999403h87.996714a15.999403 15.999403 0 0 0 15.999402-15.999403v-231.991336a15.999403 15.999403 0 0 0-15.999402-15.999403h-87.996714a15.999403 15.999403 0 0 0-15.999403 15.999403z" fill="#40C4FF" /><path d="M246.873901 968.546071h-87.996714c-13.231506 0-23.999104-10.767598-23.999104-23.999104v-231.991336c0-13.231506 10.767598-23.999104 23.999104-23.999104h87.996714c13.231506 0 23.999104 10.767598 23.999104 23.999104v231.991336c0 13.231506-10.767598 23.999104-23.999104 23.999104z m-87.996714-263.990142c-4.399836 0-7.999701 3.599866-7.999701 7.999702v231.991336c0 4.399836 3.599866 7.999701 7.999701 7.999701h87.996714c4.399836 0 7.999701-3.599866 7.999701-7.999701v-231.991336c0-4.399836-3.599866-7.999701-7.999701-7.999702h-87.996714zM662.858366 888.549058h-103.996116a7.999701 7.999701 0 0 1 0-15.999402h103.996116c17.647341 0 31.998805-14.351464 31.998805-31.998805s-14.351464-31.998805-31.998805-31.998805h-111.995817a7.887705 7.887705 0 0 1-2.847894-0.527981l-126.715268-48.286196a231.383359 231.383359 0 0 0-82.588916-15.183433h-43.838363a7.999701 7.999701 0 0 1 0-15.999403h43.838363c30.27087 0 59.965761 5.471796 88.284703 16.239394l125.33932 47.758216h110.523872c26.463012 0 47.998208 21.535196 47.998208 47.998208s-21.535196 47.998208-47.998208 47.998207zM799.989245 722.779249a7.999701 7.999701 0 0 1-7.999701-7.999702v-51.646071a111.835824 111.835824 0 0 0-67.885465-102.940156l-145.38657-62.317673A84.732836 84.732836 0 0 1 512 530.242439h-0.015999a84.700837 84.700837 0 0 1-66.70151-32.366792l-145.38657 62.317673a111.835824 111.835824 0 0 0-67.885465 102.940156c0 4.415835-3.583866 8.719674-7.999701 8.719674s-7.999701-2.879892-7.999702-7.295727c0-52.702032 30.446863-98.876308 77.581103-119.067554l151.258352-64.829579a7.999701 7.999701 0 0 1 9.807633 2.927891 68.765432 68.765432 0 0 0 57.32586 30.686854H512a68.797431 68.797431 0 0 0 57.341859-30.686854 7.999701 7.999701 0 0 1 9.807633-2.927891l151.258352 64.829579a127.867225 127.867225 0 0 1 77.581103 117.659607v51.646071a7.999701 7.999701 0 0 1-7.999702 7.983702zM903.985362 480.020314h-159.994025a7.999701 7.999701 0 0 1 0-15.999402h159.994025a7.999701 7.999701 0 0 1 0 15.999402zM951.983569 480.020314h-15.999402a7.999701 7.999701 0 0 1 0-15.999402h15.999402a7.999701 7.999701 0 0 1 0 15.999402zM280.008663 480.020314h-159.994025a7.999701 7.999701 0 0 1 0-15.999402h159.994025a7.999701 7.999701 0 0 1 0 15.999402zM88.015833 480.020314h-15.999402a7.999701 7.999701 0 0 1 0-15.999402h15.999402a7.999701 7.999701 0 0 1 0 15.999402z" fill="#263238" /><path d="M511.760009 480.020314a182.953168 182.953168 0 0 1-177.513371-136.02692c-25.759038-0.79997-46.478264-22.015178-46.478264-47.966209s20.719226-47.166239 46.478264-47.966209C355.845831 167.63198 427.875142 112.034056 511.760009 112.034056s155.930177 55.597924 177.52937 136.02692c25.759038 0.79997 46.462265 22.015178 46.462265 47.966209s-20.703227 47.166239-46.462265 47.966209A182.969167 182.969167 0 0 1 511.760009 480.020314z m-172.425561-152.330311c3.839857 0 8.015701 2.39991 8.863669 6.063773A167.049762 167.049762 0 0 0 511.760009 464.020912c78.685062 0 145.94655-53.566 163.593891-130.267136a7.823708 7.823708 0 0 1 8.767672-6.14377c2.063923 0.287989 2.831894 0.399985 3.647864 0.399985 17.647341 0 31.998805-14.351464 31.998805-31.998805s-14.351464-31.998805-31.998805-31.998805c-0.81597 0-1.583941 0.127995-2.351912 0.239991-4.111846 0.655976-9.10366-1.935928-10.047625-5.967777A167.129759 167.129759 0 0 0 511.760009 128.033459a167.081761 167.081761 0 0 0-163.577891 130.267135 7.855707 7.855707 0 0 1-8.767673 6.143771c-2.063923-0.287989-2.847894-0.399985-3.663863-0.399985-17.647341 0-31.998805 14.351464-31.998805 31.998805s14.351464 31.998805 31.998805 31.998805c0.81597 0 1.59994-0.127995 2.383911-0.239991a6.207768 6.207768 0 0 1 1.199955-0.111996z" fill="#263238" /><path d="M351.781983 280.027783h-7.999701V176.031666h47.998207v63.99761a39.998506 39.998506 0 0 1-39.998506 39.998507z" fill="#FFD740" /><path d="M351.765984 288.027484h-7.999702a7.999701 7.999701 0 0 1-7.999701-7.999701V176.031666a7.999701 7.999701 0 0 1 7.999701-7.999701h47.998208a7.999701 7.999701 0 0 1 7.999701 7.999701v63.99761c0 26.463012-21.519196 47.998208-47.998207 47.998208z m0-15.999403h0.159994-0.159994z m0-87.996713V272.028081c17.647341 0 31.998805-14.351464 31.998805-31.998805v-55.997908h-31.998805z" fill="#263238" /><path d="M631.771527 175.231696V240.029276a39.998506 39.998506 0 0 0 39.998507 39.998507h7.999701V153.072524a79.677025 79.677025 0 0 1-47.998208 22.159172z" fill="#FFD740" /><path d="M679.753735 288.027484h-7.999701c-26.463012 0-47.998208-21.535196-47.998207-47.998208v-64.813579c0-4.111846 3.103884-7.551718 7.199731-7.951703a71.965313 71.965313 0 0 0 43.182387-19.903257 8.015701 8.015701 0 0 1 13.615492 5.711787V280.027783a7.999701 7.999701 0 0 1-7.999702 7.999701z m-39.998506-105.868047V240.029276c0 17.647341 14.351464 31.998805 31.998805 31.998805v-102.412175c-9.599642 6.143771-20.511234 10.44761-31.998805 12.543531zM511.760009 383.975901a87.756723 87.756723 0 0 1-62.221676-25.727039 7.999701 7.999701 0 0 1 11.311577-11.311578 72.093308 72.093308 0 0 0 101.820198 0 7.999701 7.999701 0 0 1 11.311577 11.311578 87.660726 87.660726 0 0 1-62.221676 25.727039z" fill="#263238" /><path d="M623.771826 176.031666h-279.989544a119.995519 119.995519 0 0 1 119.995519-119.995519h83.27689c34.734703 0 69.037422-7.535719 100.572244-22.095174L703.768839 8.03794V96.034654a79.997013 79.997013 0 0 1-79.997013 79.997012z" fill="#FFD740" /><path d="M623.755827 184.031368h-279.989545a7.999701 7.999701 0 0 1-7.999701-7.999702c0-70.573365 57.421856-127.99522 127.99522-127.99522h83.29289a233.431283 233.431283 0 0 0 97.21237-21.359202L700.392965 0.774211a7.967702 7.967702 0 0 1 11.343576 7.263729V96.034654a88.076711 88.076711 0 0 1-87.980714 87.996714z m-271.701854-15.999403h271.701854c39.694518 0 71.997311-32.302794 71.997311-71.997311V20.533473l-44.766328 20.671228A249.414686 249.414686 0 0 1 547.054691 64.035849h-83.29289c-59.053795 0-107.579983 45.966283-111.707828 103.996116z" fill="#263238" /><path d="M206.875394 240.029276h-63.99761a7.999701 7.999701 0 0 1 0-15.999402h63.99761a7.999701 7.999701 0 0 1 0 15.999402z" fill="#263238" /><path d="M278.872706 128.033459h-63.99761a7.999701 7.999701 0 0 1 0-15.999403h63.99761a7.999701 7.999701 0 0 1 0 15.999403z" fill="#263238" /><path d="M246.873901 160.032264a7.999701 7.999701 0 0 1-7.999701-7.999701v-63.997611a7.999701 7.999701 0 0 1 15.999402 0v63.997611a7.999701 7.999701 0 0 1-7.999701 7.999701z" fill="#263238" /><path d="M174.876589 272.028081a7.999701 7.999701 0 0 1-7.999701-7.999701v-63.99761a7.999701 7.999701 0 0 1 15.999403 0v63.99761a7.999701 7.999701 0 0 1-7.999702 7.999701z" fill="#263238" /></svg>