<svg xmlns="http://www.w3.org/2000/svg" viewBox="0 0 1024 1024" width="200" height="200"><path d="M90.09152 501.78048h26.19392v215.8592H90.09152z" fill="#E28D66" /><path d="M116.26496 717.6192V511.81568h11.50976V717.6192z" fill="#99536B" /><path d="M117.8624 637.00992h530.8416v20.64384H117.8624z" fill="#E28D66" /><path d="M361.6768 318.75072h26.19392v398.80704H361.6768z" fill="#E28D66" /><path d="M372.69504 306.36032H942.08v12.3904H372.69504z" fill="#99536B" /><path d="M894.2592 318.75072h26.19392v398.80704h-26.19392z" fill="#E28D66" /><path d="M353.50528 306.36032h572.70272v12.3904H353.50528z" fill="#E28D66" /><path d="M361.6768 318.75072h26.19392v3.70688H361.6768zM894.2592 318.75072h26.19392v3.70688h-26.19392z" fill="#99536B" /><path d="M461.0048 318.75072h26.19392v215.8592H461.0048z" fill="#E28D66" /><path d="M461.0048 318.75072h26.19392v8.31488H461.0048zM487.19872 534.60992v-215.8592h2.92864v215.8592z" fill="#99536B" /><path d="M509.89056 318.75072h26.19392v215.8592h-26.19392z" fill="#E28D66" /><path d="M509.89056 318.75072h26.19392v8.31488h-26.19392zM536.08448 534.6304v-215.8592h2.92864v215.8592z" fill="#99536B" /><path d="M558.77632 318.75072h26.19392v215.8592h-26.19392z" fill="#E28D66" /><path d="M558.77632 318.75072h26.19392v8.31488h-26.19392zM584.97024 534.6304v-215.8592h2.92864v215.8592z" fill="#99536B" /><path d="M607.66208 318.75072h26.19392v215.8592h-26.19392z" fill="#E28D66" /><path d="M607.66208 318.75072h26.19392v8.31488h-26.19392zM633.856 534.6304v-215.8592h2.92864v215.8592z" fill="#99536B" /><path d="M656.54784 318.75072h26.19392v215.8592h-26.19392z" fill="#E28D66" /><path d="M656.54784 318.75072h26.19392v8.31488h-26.19392zM682.74176 534.60992v-215.8592h2.92864v215.8592z" fill="#99536B" /><path d="M705.4336 318.75072h26.19392v215.8592h-26.19392z" fill="#E28D66" /><path d="M705.4336 318.75072h26.19392v8.31488h-26.19392zM731.62752 534.60992v-215.8592h2.92864v215.8592z" fill="#99536B" /><path d="M754.31936 318.75072h26.19392v215.8592h-26.19392z" fill="#E28D66" /><path d="M754.31936 318.75072h26.19392v8.31488h-26.19392zM780.53376 534.60992v-215.8592h2.92864v215.8592z" fill="#99536B" /><path d="M803.2256 318.75072h26.19392v215.8592H803.2256z" fill="#E28D66" /><path d="M803.2256 318.75072h26.19392v8.31488H803.2256zM829.41952 534.60992v-215.8592h2.92864v215.8592z" fill="#99536B" /><path d="M920.45312 717.55776V318.75072h11.50976v398.80704z" fill="#A9626A" /><path d="M389.46816 438.1696h530.8416v154.05056h-530.8416z" fill="#E28D66" /><path d="M909.37344 555.43808l11.07968 16.91648-0.14336 7.35232-10.93632-1.41312v-22.85568zM861.53216 507.22816A69.40672 69.40672 0 0 0 815.104 477.67552l-13.6192-2.27328c-7.63904-1.26976-15.9744 3.584-23.28576 13.55776l-22.528 30.72 128.4096 21.46304zM755.56864 519.70048a69.632 69.632 0 0 0 49.80736 34.52928l28.32384 4.73088a28.672 28.672 0 0 0 16.73216-2.19136l33.54624-15.60576z" fill="#99536B" /><path d="M660.19328 547.00032h239.32928a9.87136 9.87136 0 0 1 9.78944 9.85088v38.66624H660.19328v-48.5376 0.02048z" fill="#F3EDF1" /><path d="M894.2592 575.0784h26.19392v142.5408h-26.19392z" fill="#99536B" /><path d="M660.19328 549.49888h239.32928a9.87136 9.87136 0 0 1 9.87136 9.87136V598.016H660.19328v-48.5376 0.02048z" fill="#C6A1A8" /><path d="M660.19328 579.70688h256.79872v77.9264H660.19328z" fill="#A9626A" /><path d="M387.87072 717.55776V318.75072h11.50976v398.80704z" fill="#99536B" /><path d="M744.96 518.49216h-163.69664L620.544 542.88384a27.27936 27.27936 0 0 0 14.4384 4.096h165.60128a68.54656 68.54656 0 0 1-55.62368-28.48768z" fill="#D1B2B7" /><path d="M783.40096 461.9264h-116.06016a67.91168 67.91168 0 0 0-47.104 19.00544l-38.912 37.56032h163.69664l17.408-37.56032c5.57056-12.1856 13.12768-19.00544 20.97152-19.00544z" fill="#F3EDF1" /><path d="M848.95744 485.64224a67.82976 67.82976 0 0 0-51.52768-23.71584h-14.0288c-7.84384 0-15.38048 6.81984-21.03296 19.00544l-17.408 37.56032h132.15744z" fill="#DCC9CB" /><path d="M581.26336 518.49216h168.12032v3.29728h-168.12032z" fill="#D2C2CC" /><path d="M744.96 518.49216a68.54656 68.54656 0 0 0 55.64416 28.50816h29.16352a27.40224 27.40224 0 0 0 16.384-5.4272l30.98624-23.08096z" fill="#C6A6A7" /><path d="M503.68512 518.49216H339.968l39.28064 24.39168a27.29984 27.29984 0 0 0 14.45888 4.096h165.5808a68.54656 68.54656 0 0 1-55.6032-28.48768z" fill="#D1B2B7" /><path d="M542.14656 461.9264H425.984a67.91168 67.91168 0 0 0-47.104 19.00544l-38.912 37.56032h163.67616l17.408-37.56032c5.69344-12.1856 13.23008-19.00544 21.0944-19.00544z" fill="#F3EDF1" /><path d="M607.68256 485.64224a67.80928 67.80928 0 0 0-51.52768-23.71584h-14.00832c-7.86432 0-15.40096 6.81984-21.05344 19.00544l-17.408 37.56032h132.15744z" fill="#DCC9CB" /><path d="M340.00896 518.49216h168.12032v3.29728h-168.12032z" fill="#D2C2CC" /><path d="M503.68512 518.49216a68.54656 68.54656 0 0 0 55.64416 28.50816h29.16352a27.40224 27.40224 0 0 0 16.384-5.4272l30.98624-23.08096z" fill="#C6A6A7" /><path d="M116.28544 501.78048h506.24512v155.8528H116.28544z" fill="#E28D66" /><path d="M101.10976 489.39008h569.38496v12.3904H101.10976z" fill="#A9626A" /><path d="M81.92 489.39008h572.70272v12.3904H81.92z" fill="#E28D66" /><path d="M90.09152 501.78048h558.63296v3.70688H90.09152z" fill="#99536B" /><path d="M116.28544 504.87296h506.24512v6.9632H116.28544z" fill="#99536B" /><path d="M622.53056 501.78048h26.19392v215.8592h-26.19392z" fill="#E28D66" /><path d="M648.66304 717.55776v-215.8592h11.50976v215.8592z" fill="#A9626A" /><path d="M361.6768 657.63328h26.19392v35.14368l-26.19392-35.14368zM116.28544 640.8192v-128.96256h11.50976v128.96256z" fill="#99536B" /><path d="M116.28544 661.7088v-128.96256h2.74432v128.96256z" fill="#99536B" /></svg>