<svg xmlns="http://www.w3.org/2000/svg" viewBox="0 0 1024 1024" width="200" height="200"><path d="M452.54 582.81c-0.07 0.91-0.17 1.31-0.34 1.51-0.18 0.16-0.48 0.22-0.73 0.22h-0.79c-0.26 0-0.45-0.05-0.59-0.23-0.14-0.2-0.16-0.75-0.16-1.8v-20.07H429.25v8.45c0 4.91-0.84 10.86-8.79 14.95 1.25 0.85 3.62 3.16 4.45 4.33 9.1-4.77 10.91-12.94 10.91-19.17v-3.35h7.57v15.08c0 3.53 0.44 4.6 1.41 5.5 0.94 0.86 2.51 1.26 3.85 1.26h3.03c1.13 0 2.47-0.21 3.34-0.76 0.88-0.55 1.49-1.33 1.85-2.55 0.35-1.19 0.59-4.19 0.63-6.65-1.57-0.43-3.64-1.36-4.81-2.24-0.02 2.56-0.07 4.6-0.15 5.52zM456.06 553.33H438.7l5.12-1.33c-0.68-1.85-2.03-4.66-3.28-6.82l-6.38 1.45c1.07 2.05 2.29 4.79 2.9 6.7h-11.39v5.32h30.38v-5.32z" fill="#4D4D4D" /><path d="M412.76 570.65v19.07h6.07v-20.57c1.42 2.03 2.81 4.15 3.68 5.67l3.9-4.76c-1.06-1.27-5.66-6.59-7.58-8.46v-1.45h4.96v-5.21h-4.96v-9.27h-6.07v9.27h-6.94v5.21h6.64c-1.7 5.07-4.73 10.72-8.09 13.79 0.99 1.52 2.4 4 2.98 5.58 1.98-2.18 3.83-5.36 5.41-8.87zM468.39 558.42l-5.68-1.26c-0.67 4.59-2.09 9.67-4.27 13.09l5.72 1.96c2.21-3.46 3.43-9.1 4.23-13.79zM491.75 561.41c1.97 3.53 3.79 7.66 4.45 10.38l4.95-2.32v19.82h6.63v-42.95h-6.63v21.7c-1.08-3.05-3.28-7.12-5.36-10.34l-4.04 1.75v-11.93h-6.47v39.13h6.47v-25.24z" fill="#4D4D4D" /><path d="M459.78 585.32c1.47 0.97 3.78 3.06 4.78 4.41 10.45-7.45 11.8-18.13 11.85-27.79 1.5 3.57 2.77 7.61 3.13 10.29l5.61-2.22c-0.55-3.15-2.46-8.09-4.44-11.98l-4.29 1.57v-13.12h-6.56v14.92c-0.01 8.18-1.02 17.48-10.08 23.92zM530.88 574.88l-6.63-1.55c-2.02 4.31-5.67 8.67-9.62 11.39 1.6 0.82 4.33 2.62 5.6 3.61 3.95-3.21 8.11-8.36 10.65-13.45z" fill="#4D4D4D" /><path d="M522.77 562.04c-1.8 2-2.99 3.12-4.6 3.49 0.87 1.62 2.04 4.54 2.41 5.72 0.52-0.49 3.48-0.76 6.49-0.76h11.32v12.38c0 0.66-0.25 0.85-1.17 0.86-0.94 0.05-3.97 0.01-6.81-0.07 0.96 1.57 2.1 4.12 2.44 5.76 4.02 0 7.16-0.15 9.36-1.09 2.25-0.92 2.9-2.49 2.9-5.34V570.5h15.13l0.04-5.46h-15.17v-5.97h-6.73v5.97h-9.92c2.15-2.4 4.33-5.09 6.42-7.96h27.97v-5.39h-24.29c0.89-1.4 1.75-2.81 2.56-4.24l-7.33-2.18c-1.04 2.18-2.27 4.37-3.52 6.42h-14.93v5.39h11.37c-1.66 2.34-3.12 4.13-3.94 4.96z" fill="#4D4D4D" /><path d="M553.65 573.32l-5.6 2.28c3.83 3.66 8.4 8.75 10.36 11.97l6.06-2.65c-2.19-3.29-6.98-8.13-10.82-11.6zM572.15 577.25l5.42-0.92c-0.33-4.32-1.31-10.58-2.47-15.57l-5.1 0.82c1.02 4.95 2 11.4 2.15 15.67zM597.16 587.5h13.09v2.03h6.77V567.8h-10.96v-8.12h12.86v-5.35h-12.86v-8.68h-6.81v22.15h-8.53v21.92h6.43v-2.22z m13.09-14.46v9.22h-13.09v-9.22h13.09z" fill="#4D4D4D" /><path d="M589.76 581.38l-0.64-5.2c-1.5 0.29-3.01 0.57-4.53 0.85 1.35-4.5 2.77-10.62 3.83-15.78l-6.13-0.85c-0.53 5.43-1.78 12.89-3.12 17.63-4.31 0.78-8.34 1.47-11.46 1.94l1.41 5.56c5.89-1.17 13.53-2.67 20.64-4.15zM590.34 553.92h-11.15l4.46-1.24c-0.63-1.86-2.11-4.67-3.6-6.78l-5.69 1.38c1.26 2.03 2.57 4.74 3.18 6.63h-9.38v5.17h22.19v-5.16z" fill="#4D4D4D" /><path d="M965.48 514.42c0.04-0.09 0.08-0.19 0.12-0.28 0.04-0.09 0.07-0.19 0.1-0.28l0.09-0.29c0.03-0.1 0.05-0.19 0.07-0.29l0.06-0.29c0.02-0.1 0.03-0.2 0.04-0.3l0.03-0.29c0.01-0.1 0.01-0.2 0.01-0.3v-0.28c0-0.1-0.01-0.2-0.02-0.29-0.01-0.09-0.01-0.19-0.03-0.28-0.01-0.1-0.03-0.19-0.05-0.29-0.02-0.09-0.03-0.19-0.05-0.28s-0.05-0.18-0.07-0.28c-0.03-0.09-0.05-0.19-0.08-0.28-0.03-0.09-0.06-0.17-0.1-0.26-0.04-0.09-0.07-0.19-0.11-0.28a5.92 5.92 0 0 1-0.12-0.25c-0.05-0.09-0.09-0.18-0.14-0.27-0.04-0.08-0.09-0.15-0.14-0.23-0.05-0.09-0.11-0.17-0.17-0.26l-0.16-0.22c-0.06-0.08-0.12-0.16-0.19-0.24-0.06-0.07-0.12-0.14-0.19-0.21-0.07-0.07-0.14-0.15-0.21-0.22-0.07-0.07-0.14-0.13-0.22-0.2a2.11 2.11 0 0 0-0.23-0.19l-0.24-0.18c-0.08-0.06-0.16-0.12-0.25-0.17-0.09-0.05-0.18-0.11-0.26-0.16-0.06-0.04-0.12-0.08-0.19-0.11-0.03-0.01-0.06-0.03-0.09-0.04-0.03-0.01-0.05-0.03-0.08-0.04C852.64 453.21 656.87 442 512 442c-98.9 0-186.5 5.03-260.37 14.96-80.73 10.85-144.74 27.55-190.25 49.64-0.03 0.01-0.05 0.03-0.07 0.04-0.03 0.01-0.06 0.03-0.09 0.04-0.07 0.04-0.13 0.08-0.19 0.11-0.09 0.05-0.17 0.1-0.26 0.15-0.09 0.06-0.17 0.11-0.25 0.17-0.08 0.06-0.16 0.11-0.24 0.18-0.08 0.06-0.16 0.13-0.23 0.2-0.07 0.06-0.14 0.13-0.21 0.19-0.07 0.07-0.14 0.15-0.21 0.22-0.06 0.07-0.13 0.14-0.19 0.21-0.07 0.08-0.13 0.16-0.19 0.24-0.06 0.07-0.11 0.15-0.16 0.22-0.06 0.08-0.11 0.17-0.17 0.26-0.05 0.08-0.1 0.15-0.14 0.23-0.05 0.09-0.09 0.18-0.14 0.27-0.04 0.08-0.08 0.16-0.12 0.25-0.04 0.09-0.08 0.18-0.11 0.28-0.03 0.09-0.07 0.17-0.1 0.26s-0.06 0.18-0.08 0.28c-0.03 0.09-0.05 0.18-0.07 0.28-0.02 0.09-0.04 0.19-0.05 0.28-0.02 0.1-0.03 0.19-0.05 0.29l-0.03 0.28c-0.01 0.1-0.02 0.2-0.02 0.29v0.29c0 0.1 0 0.19 0.01 0.29l0.03 0.29c0.01 0.1 0.02 0.19 0.04 0.29l0.06 0.3c0.02 0.09 0.04 0.18 0.06 0.28 0.03 0.1 0.06 0.2 0.09 0.31l0.09 0.27c0.04 0.1 0.08 0.2 0.13 0.3 0.03 0.06 0.05 0.13 0.08 0.19l0.03 0.06c0.02 0.03 0.03 0.07 0.05 0.1L188.09 762H128c-3.31 0-6 2.69-6 6s2.69 6 6 6h768c3.31 0 6-2.69 6-6s-2.69-6-6-6h-60.09l129.4-247.22c0.02-0.03 0.03-0.07 0.05-0.1 0.01-0.02 0.03-0.04 0.04-0.06 0.03-0.07 0.05-0.13 0.08-0.2z m-804.31 68.87c-3.81-9.35-4.77-17.81-2.56-22.64 0.83-1.82 2.05-2.95 3.82-3.55 5.59-1.85 11.36-3.7 17.16-5.5 0.02-0.01 0.04-0.02 0.06-0.02 0.02-0.01 0.04-0.01 0.06-0.02 11.56-3.85 20.76-4.18 33.87 26.77L250.71 666h-55.82l-33.72-82.71zM255.79 678l8.47 20h-56.32l-8.15-20h56z m13.55 32l22.02 52h-57.34l-21.2-52h56.52z m11.76-135.73c-3.94-13.04-3.38-23.34 1.7-31.48 8.66-13.9 30.99-23.13 72.41-29.95C407.16 505.65 459.91 502 512 502c52.09 0 104.84 3.65 156.8 10.84 41.42 6.82 63.75 16.05 72.41 29.95 5.08 8.15 5.63 18.45 1.7 31.48L715.21 666H646v-42c0-3.31-2.69-6-6-6H384c-3.31 0-6 2.69-6 6v42h-69.21l-27.69-91.73zM395.62 762c-3.65 0-6.33-1.02-7.01-2.66-0.65-1.57 0.22-4.68 3.62-8.08l24.31-24.31C426.01 717.48 433.48 710 447 710h130c13.51 0 20.99 7.48 30.46 16.95l24.32 24.32c3.4 3.4 4.27 6.51 3.62 8.08-0.68 1.64-3.37 2.66-7.01 2.66H395.62z m-23.55-27.59s0.01 0 0 0c6.93-6.93 9.07-15.32 5.88-23.03-0.19-0.47-0.41-0.93-0.64-1.38h39.63c-2.64 2.27-5.13 4.7-7.58 7.14l-0.01 0.01-25.62 25.62c-6 6-8.46 13.04-6.85 19.22h-32.4l27.59-27.58z m268.19 8.37l-25.62-25.62-0.01-0.01c-2.45-2.44-4.94-4.87-7.58-7.15h39.64c-0.23 0.45-0.44 0.92-0.64 1.38-3.19 7.71-1.05 16.1 5.87 23.02l27.6 27.6h-32.4c1.6-6.18-0.86-13.22-6.86-19.22z m20.15-16.86c-5.23-5.23-3.75-8.78-3.27-9.95 1.53-3.7 5.61-5.95 6.99-5.95 0.16 0 0.32-0.01 0.48-0.02h37.32l-13.32 44.12-28.2-28.2zM390 666v-36h244v36H390z m321.58 12l-6.04 20H318.46l-6.04-20h399.16zM359.4 710c0.16 0.01 0.32 0.02 0.48 0.02 1.38 0 5.45 2.25 6.99 5.95 0.48 1.17 1.95 4.72-3.27 9.94v0.01l-28.19 28.19L322.08 710h37.32z m451.02-131.66c13.11-30.95 22.31-30.61 33.87-26.77 0.02 0.01 0.04 0.01 0.06 0.02 0.02 0.01 0.04 0.02 0.06 0.02 5.79 1.8 11.56 3.65 17.15 5.5h0.01c1.77 0.6 2.98 1.72 3.82 3.55 2.21 4.83 1.25 13.29-2.56 22.64L829.11 666h-55.82l37.13-87.66zM768.21 678h56.01l-8.15 20h-56.32l8.46-20z m-13.56 32h56.51l-21.2 52h-57.34l22.03-52z m48.28 52l22.69-55.65c0.01-0.02 0.01-0.03 0.02-0.05l13.03-31.95c0.01-0.02 0.01-0.04 0.02-0.05l35.26-86.48c5.19-12.72 6.03-24.15 2.36-32.16-2.13-4.65-5.7-7.98-10.33-9.7-0.15-0.07-0.31-0.13-0.47-0.18-0.03-0.01-0.06-0.03-0.09-0.04h-0.01c-0.01 0-0.02-0.01-0.03-0.01-5.67-1.88-11.53-3.75-17.41-5.58-7.04-2.33-17.5-4.58-27.58 2.34-7.61 5.22-14.09 14.83-21.01 31.17l-40.64 95.96c-0.01 0.03-0.02 0.05-0.03 0.08l-13.52 31.93-0.03 0.06L719.6 762h-20.84l16.97-56.2c0-0.01 0.01-0.03 0.01-0.04l9.65-31.96c0-0.01 0.01-0.03 0.01-0.04l28.99-96.03c4.92-16.3 3.91-30.19-3-41.29-10.79-17.32-34.92-27.92-80.69-35.45-0.02 0-0.03 0-0.05-0.01-0.03 0-0.06-0.01-0.09-0.02C618.03 493.69 564.68 490 512 490s-106.03 3.69-158.56 10.97c-0.03 0-0.06 0.01-0.09 0.02-0.02 0-0.03 0-0.05 0.01-45.76 7.53-69.89 18.13-80.69 35.45-6.92 11.1-7.93 24.99-3 41.29l28.99 96.01c0.01 0.02 0.01 0.04 0.02 0.06l9.64 31.94c0.01 0.02 0.01 0.04 0.02 0.06L325.25 762H304.4l-25.54-60.31c-0.01-0.02-0.02-0.04-0.02-0.05l-13.53-31.95c-0.01-0.02-0.02-0.04-0.02-0.06l-40.65-95.98c-11.05-26.08-23.54-41.77-48.55-33.52-0.01 0-0.03 0.01-0.04 0.01-5.88 1.82-11.74 3.7-17.41 5.58-0.21 0.07-0.41 0.15-0.6 0.24-4.63 1.73-8.2 5.06-10.32 9.7-3.67 8.01-2.83 19.43 2.35 32.15v0.01l35.26 86.49c0 0.01 0.01 0.02 0.01 0.03l13.03 31.96c0.01 0.01 0.01 0.02 0.02 0.04L221.07 762h-19.44L72.22 514.76C158.69 475 310.47 454 512 454c201.53 0 353.31 21 439.78 60.76L822.37 762h-19.44z" fill="#4D4D4D" /></svg>