<svg xmlns="http://www.w3.org/2000/svg" viewBox="0 0 1024 1024" width="200" height="200"><path d="M673.716907 606.549333l136.512853 21.01248V222.317227H641.6384V59.405653H139.6736c-27.40224 0-49.841493 21.681493-49.841493 48.162134v42.27072h-16.725334c-8.157867 0.006827-14.779733 6.41024-14.779733 14.301866 0 2.648747 0.96256 5.003947 2.27328 7.133867a14.650027 14.650027 0 0 0 12.526933 7.14752h16.725334v188.095147H73.1136c-8.157867 0-14.779733 6.396587-14.779733 14.281386 0 2.669227 0.96256 5.003947 2.27328 7.14752a14.636373 14.636373 0 0 0 12.526933 7.154347h16.725333v188.081493H73.1136c-8.157867 0-14.779733 6.403413-14.779733 14.29504 0 2.655573 0.96256 4.99712 2.27328 7.133867a14.629547 14.629547 0 0 0 12.526933 7.14752h16.725333v188.06784H73.1136c-8.157867 0.027307-14.779733 6.423893-14.779733 14.308693 0 2.655573 0.96256 4.99712 2.27328 7.161174 2.573653 4.1984 7.113387 7.14752 12.526933 7.14752h16.725333v88.00256c0 26.48064 22.432427 48.134827 49.834667 48.134826h92.38528l334.281387-373.0432 107.35616 15.01184z m-508.095147 239.67744c-5.290667 0-10.09664-1.41312-14.5408-3.549866a33.327787 33.327787 0 0 1-14.779733-14.226774h14.52032c5.40672 0 9.95328-2.94912 12.526933-7.161173 1.41312-2.136747 2.19136-4.614827 2.266453-7.14752 0-7.891627-6.621867-14.308693-14.793386-14.308693h-14.80704c5.577387-10.881707 17.03936-17.77664 29.600426-17.810774 18.343253 0 33.225387 14.383787 33.225387 32.105814 0.006827 17.73568-14.875307 32.098987-33.21856 32.098986z m0-216.664746a33.91488 33.91488 0 0 1-14.5408-3.556694 33.109333 33.109333 0 0 1-14.779733-14.25408h14.52032c5.40672 0 9.95328-2.935467 12.526933-7.14752a13.585067 13.585067 0 0 0 2.266453-7.133866c0-7.891627-6.621867-14.29504-14.793386-14.29504h-14.80704c5.577387-10.89536 17.03936-17.79712 29.600426-17.810774 18.343253 0 33.225387 14.363307 33.225387 32.09216s-14.875307 32.105813-33.21856 32.105814z m0-216.664747c-5.290667 0-10.09664-1.419947-14.5408-3.549867a33.273173 33.273173 0 0 1-14.779733-14.2336h14.52032c5.40672 0 9.95328-2.942293 12.526933-7.14752 1.41312-2.136747 2.198187-4.614827 2.266453-7.154346 0-7.8848-6.608213-14.27456-14.779733-14.27456h-14.841173c5.577387-10.881707 17.03936-17.783467 29.600426-17.803947 18.343253 0 33.211733 14.363307 33.204907 32.085333 0 17.708373-14.848 32.064853-33.1776 32.078507z m0-216.671573a33.621333 33.621333 0 0 1-14.5408-3.556694 33.1776 33.1776 0 0 1-14.779733-14.25408h14.52032c5.40672 0 9.95328-2.942293 12.526933-7.14752 1.41312-2.136747 2.198187-4.594347 2.266453-7.133866 0-7.898453-6.621867-14.301867-14.793386-14.301867h-14.80704c5.577387-10.888533 17.03936-17.783467 29.600426-17.810773 18.343253 0 33.225387 14.370133 33.225387 32.098986 0.006827 17.73568-14.875307 32.105813-33.21856 32.105814z" fill="#1AA0C4" /><path d="M673.716907 606.549333L566.340267 591.551147l-334.288214 373.0432h528.356694c27.40224 0 49.814187-21.681493 49.814186-48.134827V627.561813L673.716907 606.549333z" fill="#44B2CC" /><path d="M641.65888 222.317227h168.57088L641.65888 59.405653v162.911574z" fill="#7AC3E1" /><path d="M804.90496 398.86848V225.368747H636.33408l168.57088 173.499733z" fill="#138699" /><path d="M265.78944 511.95904h93.67552v159.15008H265.78944V511.95904z" fill="#F1EEE7" /><path d="M509.760853 660.882773V643.8912l-14.731946 16.984747h14.731946z" fill="#CCCCCC" /><path d="M416.085333 344.80128v334.66368h78.943574l14.731946-15.960747V344.80128H416.085333z" fill="#F1EEE7" /><path d="M566.347093 660.882773h93.682347v-68.8128l-93.682347-13.530453v82.343253z" fill="#CCCCCC" /><path d="M566.347093 364.987733v213.54496l93.682347 13.530454V364.987733H566.347093z" fill="#F1EEE7" /><path d="M848.52736 817.02912z" fill="#F8FCFF" /><path d="M673.716907 594.056533l33.46432 5.34528a135.256747 135.256747 0 0 1 113.609386 18.06336l92.412587 14.731947 5.317973-6.813013c7.325013-9.304747 12.526933-16.042667 15.592107-20.33664 1.55648-2.013867 2.409813-4.478293 2.423467-7.010987a9.91232 9.91232 0 0 0-2.123094-6.7584c-7.33184-10.38336-24.14592-27.723093-50.449066-51.95776a11.89888 11.89888 0 0 0-7.632214-3.037867 9.80992 9.80992 0 0 0-7.325013 2.74432l-42.973867 32.344747-0.45056 0.361813a186.24512 186.24512 0 0 0-27.511466-11.30496l-0.12288-0.709973-8.451414-55.569067a9.0112 9.0112 0 0 0-3.495253-6.560426 11.63264 11.63264 0 0 0-7.488853-2.60096h-67.863894c-5.905067 0-9.58464 2.853547-11.004586 8.574293-2.635093 10.089813-5.556907 28.8768-8.813227 56.27904l-0.068267 0.559787a176.237227 176.237227 0 0 0-27.818666 11.61216l-0.477867-0.34816-41.724587-32.372054a13.284693 13.284693 0 0 0-7.96672-3.037866c-4.46464 0-14.117547 7.277227-28.869973 21.85216-14.772907 14.588587-24.828587 25.51808-30.1056 32.856746a15.926613 15.926613 0 0 0-2.259627 4.62848l14.82752-17.107626 107.349334 15.571626z" fill="#999999" /><path d="M970.48576 684.229973l-55.66464-8.506026a177.370453 177.370453 0 0 1 7.9872 52.824746l-0.047787 0.600747a177.78688 177.78688 0 0 0-7.939413-52.189867l-0.28672-0.04096a181.630293 181.630293 0 0 0-12.526933-29.989546l0.16384-0.238934c2.648747-3.652267 6.526293-8.731307 11.031893-14.493013l-92.412587-14.731947c62.01344 42.10688 78.15168 126.532267 36.037974 188.55936-42.10688 61.999787-126.52544 78.144853-188.545707 36.037974a135.748267 135.748267 0 0 1-59.480747-112.278187 135.72096 135.72096 0 0 1 98.379094-130.41664l-33.46432-5.34528-107.37664-15.517013-14.820694 17.107626c-0.238933 0.83968-0.498347 1.652053-0.498346 2.389334 0 2.450773 1.010347 4.881067 3.044693 7.33184 13.57824 16.42496 24.398507 30.37184 32.556373 41.970346l0.16384 0.211627a149.46304 149.46304 0 0 0-11.91936 28.11904l-0.14336 0.027307-56.715946 8.533333a9.140907 9.140907 0 0 0-5.8368 3.97312 11.728213 11.728213 0 0 0-2.43712 7.02464v67.843413c0 2.64192 0.805547 5.065387 2.43712 7.18848 1.536 2.10944 3.85024 3.4816 6.423893 3.85024l55.610027 8.226134 0.354986 0.04096c2.833067 9.960107 7.02464 20.043093 12.506454 30.255786l-0.16384 0.22528a623.117653 623.117653 0 0 1-16.356694 21.31968c-7.318187 9.263787-12.526933 16.069973-15.58528 20.343467a11.830613 11.830613 0 0 0-0.28672 14.056107c7.939413 10.99776 24.753493 28.132693 50.44224 51.336533a10.4448 10.4448 0 0 0 7.632214 3.372373c2.819413 0.095573 5.55008-0.894293 7.65952-2.730666l42.646186-32.372054 0.443734-0.34816a184.44288 184.44288 0 0 0 27.5456 11.30496l0.095573 0.69632 8.444587 55.575894c0.191147 2.60096 1.467733 4.983467 3.50208 6.601386 2.143573 1.72032 4.635307 2.56 7.49568 2.56h67.857066c5.905067 0 9.557333-2.82624 10.984107-8.546986 2.628267-10.082987 5.55008-28.91776 8.8064-56.292694l0.068267-0.559786a175.069867 175.069867 0 0 0 27.798186-11.625814l0.464214 0.361814c0.3072-0.157013 0.587093-0.402773 0.894293-0.546134l40.83712 32.003414c2.341547 1.652053 5.106347 2.60096 7.959893 2.730666 4.478293 0 14.083413-7.243093 28.740267-21.722453 14.68416-14.452053 24.753493-25.47712 30.255787-33.027413 1.850027-2.041173 2.74432-4.389547 2.74432-7.02464 0-2.655573-1.00352-5.20192-3.044694-7.63904a758.039893 758.039893 0 0 1-32.33792-41.704107c3.93216-7.400107 7.796053-16.356693 11.564374-27.05408l0.14336-0.027307c0.14336-0.436907 0.16384-0.88064 0.3072-1.303893l56.108373-8.465067a9.352533 9.352533 0 0 0 6.116693-3.959466c1.563307-2.013867 2.41664-4.478293 2.450774-7.02464v-67.863894a11.598507 11.598507 0 0 0-2.450774-7.174826 9.202347 9.202347 0 0 0-6.362453-3.843414z" fill="#848484" /><path d="M797.395627 604.706133a136.055467 136.055467 0 0 0-83.182934-7.14752c-2.10944 0.49152-4.03456 1.385813-6.089386 1.9456l112.175786 17.865387a139.147947 139.147947 0 0 0-22.903466-12.663467z" fill="#77B3D5" /><path d="M820.299093 617.396907l-112.175786-17.865387c-57.186987 15.960747-99.321173 68.01408-99.321174 130.280107 0.068267 74.9568 60.893867 135.68 135.857494 135.611733 74.963627-0.08192 135.68-60.90752 135.59808-135.877973a135.51616 135.51616 0 0 0-16.34304-64.436907 136.075947 136.075947 0 0 0-43.615574-47.711573z m-20.41856 167.724373a75.380053 75.380053 0 0 1-55.33696 22.930773c-21.613227 0-40.045227-7.625387-55.33696-22.930773-15.271253-15.291733-22.923947-33.716907-22.923946-55.330133s7.652693-40.0384 22.923946-55.330134a75.380053 75.380053 0 0 1 55.33696-22.930773c21.58592 0 40.045227 7.652693 55.33696 22.930773 15.291733 15.264427 22.923947 33.716907 22.923947 55.330134s-7.632213 40.05888-22.923947 55.330133z" fill="#B3B4B5" /></svg>