<svg xmlns="http://www.w3.org/2000/svg" viewBox="0 0 1024 1024" width="200" height="200"><path d="M200.2 823h-27.3c-3.8 0-7.3 2.7-7.8 6.5-0.6 4.5 3 8.5 7.4 8.5h27.7c4.1 0 7.5-3.4 7.5-7.5s-3.4-7.5-7.5-7.5zM780.2 823H674.5c-4.1 0-7.5 3.4-7.5 7.5s3.4 7.5 7.5 7.5h105.7c4.1 0 7.5-3.4 7.5-7.5s-3.4-7.5-7.5-7.5zM797.7 830.5c0 4.1 3.4 7.5 7.5 7.5h47c4.1 0 7.5-3.4 7.5-7.5s-3.4-7.5-7.5-7.5h-47c-4.2 0-7.5 3.4-7.5 7.5zM649.5 823H225.2c-4.1 0-7.5 3.4-7.5 7.5s3.4 7.5 7.5 7.5h424.3c4.1 0 7.5-3.4 7.5-7.5s-3.4-7.5-7.5-7.5zM599.8 885H330.7c-4.4 0-8 3.6-8 8s3.6 8 8 8H600c4.8 0 8.7-4.3 7.9-9.3-0.6-3.9-4.2-6.7-8.1-6.7zM304.7 885h-54.4c-4 0-7.5 2.8-8.1 6.7-0.8 5 3.1 9.3 7.9 9.3h54.7c4.4 0 8-3.6 8-8-0.1-4.4-3.7-8-8.1-8z" fill="#76B767" /><path d="M216.7 214.7h-8.5v-8.5c0-1.8-1.5-3.3-3.3-3.3s-3.3 1.5-3.3 3.3v8.5h-8.5c-1.8 0-3.3 1.5-3.3 3.3s1.5 3.3 3.3 3.3h8.5v8.5c0 1.8 1.5 3.3 3.3 3.3s3.3-1.5 3.3-3.3v-8.5h8.5c1.8 0 3.3-1.5 3.3-3.3s-1.5-3.3-3.3-3.3z" fill="#F4AD9F" /><path d="M897.7 321.7h-8.5v-8.5c0-1.8-1.5-3.3-3.3-3.3s-3.3 1.5-3.3 3.3v8.5h-8.5c-1.8 0-3.3 1.5-3.3 3.3s1.5 3.3 3.3 3.3h8.5v8.5c0 1.8 1.5 3.3 3.3 3.3s3.3-1.5 3.3-3.3v-8.5h8.5c1.8 0 3.3-1.5 3.3-3.3s-1.5-3.3-3.3-3.3z" fill="#76B767" /><path d="M839.2 737.2c-0.7 0-1.3-0.6-1.3-1.3v-9.6c0-0.7 0.6-1.3 1.3-1.3 0.7 0 1.3 0.6 1.3 1.3v9.6c0 0.7-0.6 1.3-1.3 1.3zM835.6 738.3c-0.6 0.4-1.4 0.1-1.8-0.5l-4.8-8.3c-0.4-0.6-0.1-1.4 0.5-1.8 0.6-0.4 1.4-0.1 1.8 0.5l4.8 8.3c0.3 0.7 0.1 1.5-0.5 1.8zM833 741.1c-0.4 0.6-1.2 0.8-1.8 0.5l-8.3-4.8c-0.6-0.4-0.8-1.2-0.5-1.8 0.4-0.6 1.2-0.8 1.8-0.5l8.3 4.8c0.7 0.4 0.9 1.2 0.5 1.8zM832.2 744.8c0 0.7-0.6 1.3-1.3 1.3h-9.6c-0.7 0-1.3-0.6-1.3-1.3 0-0.7 0.6-1.3 1.3-1.3h9.6c0.7 0 1.3 0.6 1.3 1.3zM833.3 748.4c0.4 0.6 0.1 1.4-0.5 1.8l-8.3 4.8c-0.6 0.4-1.4 0.1-1.8-0.5-0.4-0.6-0.1-1.4 0.5-1.8l8.3-4.8c0.7-0.3 1.5-0.1 1.8 0.5zM836.1 751c0.6 0.4 0.8 1.2 0.5 1.8l-4.8 8.3c-0.4 0.6-1.2 0.8-1.8 0.5-0.6-0.4-0.8-1.2-0.5-1.8l4.8-8.3c0.4-0.7 1.2-0.9 1.8-0.5zM839.8 751.8c0.7 0 1.3 0.6 1.3 1.3v9.6c0 0.7-0.6 1.3-1.3 1.3-0.7 0-1.3-0.6-1.3-1.3v-9.6c0-0.7 0.6-1.3 1.3-1.3zM843.4 750.7c0.6-0.4 1.4-0.1 1.8 0.5l4.8 8.3c0.4 0.6 0.1 1.4-0.5 1.8-0.6 0.4-1.4 0.1-1.8-0.5l-4.8-8.3c-0.3-0.7-0.1-1.5 0.5-1.8zM846 747.9c0.4-0.6 1.2-0.8 1.8-0.5l8.3 4.8c0.6 0.4 0.8 1.2 0.5 1.8-0.4 0.6-1.2 0.8-1.8 0.5l-8.3-4.8c-0.7-0.4-0.9-1.2-0.5-1.8zM846.8 744.2c0-0.7 0.6-1.3 1.3-1.3h9.6c0.7 0 1.3 0.6 1.3 1.3 0 0.7-0.6 1.3-1.3 1.3h-9.6c-0.7 0-1.3-0.6-1.3-1.3zM845.7 740.6c-0.4-0.6-0.1-1.4 0.5-1.8l8.3-4.8c0.6-0.4 1.4-0.1 1.8 0.5 0.4 0.6 0.1 1.4-0.5 1.8l-8.3 4.8c-0.7 0.3-1.5 0.1-1.8-0.5zM842.9 738c-0.6-0.4-0.8-1.2-0.5-1.8l4.8-8.3c0.4-0.6 1.2-0.8 1.8-0.5 0.6 0.4 0.8 1.2 0.5 1.8l-4.8 8.3c-0.4 0.7-1.2 0.9-1.8 0.5z" fill="#F4D676" /><path d="M779.2 159.2c-0.7 0-1.3-0.6-1.3-1.3v-9.6c0-0.7 0.6-1.3 1.3-1.3 0.7 0 1.3 0.6 1.3 1.3v9.6c0 0.7-0.6 1.3-1.3 1.3zM775.6 160.3c-0.6 0.4-1.4 0.1-1.8-0.5l-4.8-8.3c-0.4-0.6-0.1-1.4 0.5-1.8 0.6-0.4 1.4-0.1 1.8 0.5l4.8 8.3c0.3 0.7 0.1 1.5-0.5 1.8zM773 163.1c-0.4 0.6-1.2 0.8-1.8 0.5l-8.3-4.8c-0.6-0.4-0.8-1.2-0.5-1.8 0.4-0.6 1.2-0.8 1.8-0.5l8.3 4.8c0.7 0.4 0.9 1.2 0.5 1.8zM772.2 166.8c0 0.7-0.6 1.3-1.3 1.3h-9.6c-0.7 0-1.3-0.6-1.3-1.3 0-0.7 0.6-1.3 1.3-1.3h9.6c0.7 0 1.3 0.6 1.3 1.3zM773.3 170.4c0.4 0.6 0.1 1.4-0.5 1.8l-8.3 4.8c-0.6 0.4-1.4 0.1-1.8-0.5-0.4-0.6-0.1-1.4 0.5-1.8l8.3-4.8c0.7-0.3 1.5-0.1 1.8 0.5zM776.1 173c0.6 0.4 0.8 1.2 0.5 1.8l-4.8 8.3c-0.4 0.6-1.2 0.8-1.8 0.5-0.6-0.4-0.8-1.2-0.5-1.8l4.8-8.3c0.4-0.7 1.2-0.9 1.8-0.5zM779.8 173.8c0.7 0 1.3 0.6 1.3 1.3v9.6c0 0.7-0.6 1.3-1.3 1.3-0.7 0-1.3-0.6-1.3-1.3v-9.6c0-0.7 0.6-1.3 1.3-1.3zM783.4 172.7c0.6-0.4 1.4-0.1 1.8 0.5l4.8 8.3c0.4 0.6 0.1 1.4-0.5 1.8-0.6 0.4-1.4 0.1-1.8-0.5l-4.8-8.3c-0.3-0.7-0.1-1.5 0.5-1.8zM786 169.9c0.4-0.6 1.2-0.8 1.8-0.5l8.3 4.8c0.6 0.4 0.8 1.2 0.5 1.8-0.4 0.6-1.2 0.8-1.8 0.5l-8.3-4.8c-0.7-0.4-0.9-1.2-0.5-1.8zM786.8 166.2c0-0.7 0.6-1.3 1.3-1.3h9.6c0.7 0 1.3 0.6 1.3 1.3 0 0.7-0.6 1.3-1.3 1.3h-9.6c-0.7 0-1.3-0.6-1.3-1.3zM785.7 162.6c-0.4-0.6-0.1-1.4 0.5-1.8l8.3-4.8c0.6-0.4 1.4-0.1 1.8 0.5 0.4 0.6 0.1 1.4-0.5 1.8l-8.3 4.8c-0.7 0.3-1.5 0.1-1.8-0.5zM782.9 160c-0.6-0.4-0.8-1.2-0.5-1.8l4.8-8.3c0.4-0.6 1.2-0.8 1.8-0.5 0.6 0.4 0.8 1.2 0.5 1.8l-4.8 8.3c-0.4 0.7-1.2 0.9-1.8 0.5z" fill="#F4AD9F" /><path d="M219.2 758.7l2.9 5.8c0.2 0.4 0.5 0.6 1 0.7l6.4 0.9c1.1 0.2 1.5 1.4 0.7 2.2l-4.7 4.5c-0.3 0.3-0.4 0.7-0.4 1.1l1.1 6.4c0.2 1-0.9 1.8-1.9 1.4l-5.7-3c-0.4-0.2-0.8-0.2-1.2 0l-5.7 3c-0.9 0.5-2-0.3-1.9-1.4l1.1-6.4c0.1-0.4-0.1-0.8-0.4-1.1l-4.7-4.5c-0.8-0.7-0.3-2 0.7-2.2l6.4-0.9c0.4-0.1 0.8-0.3 1-0.7l2.9-5.8c0.5-0.9 1.9-0.9 2.4 0z" fill="#F4AD9F" /><path d="M716.2 92.7l2.9 5.8c0.2 0.4 0.5 0.6 1 0.7l6.4 0.9c1.1 0.2 1.5 1.4 0.7 2.2l-4.7 4.5c-0.3 0.3-0.4 0.7-0.4 1.1l1.1 6.4c0.2 1-0.9 1.8-1.9 1.4l-5.7-3c-0.4-0.2-0.8-0.2-1.2 0l-5.7 3c-0.9 0.5-2-0.3-1.9-1.4l1.1-6.4c0.1-0.4-0.1-0.8-0.4-1.1l-4.7-4.5c-0.8-0.7-0.3-2 0.7-2.2l6.4-0.9c0.4-0.1 0.8-0.3 1-0.7l2.9-5.8c0.5-0.9 1.9-0.9 2.4 0z" fill="#F4D676" /><path d="M522.8 137.5l11-36.1c1.8-3.6-0.6-8.2-5.1-8.4l-59.4-1.8c-4.1-0.1-7.1 3.9-5.6 7.6l7.9 37.1c-144.9 19.7-263.9 223.4-268.9 386.7-5.4 173.7 122.4 268.6 279.2 273.4s283.7-82.2 289-255.8c5.1-164.1-103-377.7-248.1-402.7z" fill="#76B767" /><path d="M768.9 565.6c-4.5 146.2-134.2 245.8-289.8 241-155.6-4.8-278.9-112.3-274.4-258.5s155.6-327.9 295.8-327.7c133.2 0.5 272.9 199 268.4 345.2z" fill="#F4AD9F" /><path d="M706.2 553c-3.5 113-103.8 190.6-224.6 186.9-120.8-3.7-216.1-87-212.6-200.4S389.2 285 498.2 285.1c103.2 0.3 211.5 154.5 208 267.9z" fill="#F4D676" /><path d="M525.6 536.1c-0.8 25.4-17.5 43.1-37.3 42.5-19.8-0.6-35.4-19.4-34.6-44.7 0.8-25.4 20.3-57.6 38.3-57.6 16.9 0.1 34.4 34.5 33.6 59.8z" fill="#76B767" /><path d="M489.9 441.9h-11.8c-4.3 0-7.7-3.5-7.7-7.7v-76.4c0-4.3 3.5-7.7 7.7-7.7h11.8c4.3 0 7.7 3.5 7.7 7.7v76.4c0 4.2-3.5 7.7-7.7 7.7zM446.8 453.5l-10.2 5.9c-3.7 2.1-8.4 0.9-10.6-2.8l-38.2-66.2c-2.1-3.7-0.9-8.4 2.8-10.6l10.2-5.9c3.7-2.1 8.4-0.9 10.6 2.8l38.2 66.2c2.2 3.7 0.9 8.4-2.8 10.6zM415.3 485l-5.9 10.2c-2.1 3.7-6.9 5-10.6 2.8l-66.2-38.2c-3.7-2.1-5-6.9-2.8-10.6l5.9-10.2c2.1-3.7 6.9-5 10.6-2.8l66.2 38.2c3.7 2.2 5 7 2.8 10.6zM403.9 528.1v11.8c0 4.3-3.5 7.7-7.7 7.7h-76.4c-4.3 0-7.7-3.5-7.7-7.7v-11.8c0-4.3 3.5-7.7 7.7-7.7h76.4c4.2 0 7.7 3.5 7.7 7.7zM415.5 571.2l5.9 10.2c2.1 3.7 0.9 8.4-2.8 10.6l-66.2 38.2c-3.7 2.1-8.4 0.9-10.6-2.8l-5.9-10.2c-2.1-3.7-0.9-8.4 2.8-10.6l66.2-38.2c3.7-2.2 8.4-0.9 10.6 2.8zM447 602.7l10.2 5.9c3.7 2.1 5 6.9 2.8 10.6l-38.2 66.2c-2.1 3.7-6.9 5-10.6 2.8l-10.2-5.9c-3.7-2.1-5-6.9-2.8-10.6l38.2-66.2c2.2-3.7 7-5 10.6-2.8zM490.1 614.1h11.8c4.3 0 7.7 3.5 7.7 7.7v76.4c0 4.3-3.5 7.7-7.7 7.7h-11.8c-4.3 0-7.7-3.5-7.7-7.7v-76.4c0-4.2 3.5-7.7 7.7-7.7zM533.2 602.5l10.2-5.9c3.7-2.1 8.4-0.9 10.6 2.8l38.2 66.2c2.1 3.7 0.9 8.4-2.8 10.6l-10.2 5.9c-3.7 2.1-8.4 0.9-10.6-2.8l-38.2-66.2c-2.2-3.7-0.9-8.4 2.8-10.6zM564.7 571l5.9-10.2c2.1-3.7 6.9-5 10.6-2.8l66.2 38.2c3.7 2.1 5 6.9 2.8 10.6l-5.9 10.2c-2.1 3.7-6.9 5-10.6 2.8l-66.2-38.2c-3.7-2.2-5-7-2.8-10.6zM576.1 527.9v-11.8c0-4.3 3.5-7.7 7.7-7.7h76.4c4.3 0 7.7 3.5 7.7 7.7v11.8c0 4.3-3.5 7.7-7.7 7.7h-76.4c-4.2 0-7.7-3.5-7.7-7.7zM564.5 484.8l-5.9-10.2c-2.1-3.7-0.9-8.4 2.8-10.6l66.2-38.2c3.7-2.1 8.4-0.9 10.6 2.8l5.9 10.2c2.1 3.7 0.9 8.4-2.8 10.6l-66.2 38.2c-3.7 2.2-8.4 0.9-10.6-2.8zM533 453.3l-10.2-5.9c-3.7-2.1-5-6.9-2.8-10.6l38.2-66.2c2.1-3.7 6.9-5 10.6-2.8l10.2 5.9c3.7 2.1 5 6.9 2.8 10.6l-38.2 66.2c-2.2 3.7-7 5-10.6 2.8z" fill="#E0E6E7" /></svg>