<svg xmlns="http://www.w3.org/2000/svg" viewBox="0 0 1024 1024" width="200" height="200"><path d="M158.9248 346.112m144.1792 0l484.0448 0q144.1792 0 144.1792 144.1792l0 271.4112q0 144.1792-144.1792 144.1792l-484.0448 0q-144.1792 0-144.1792-144.1792l0-271.4112q0-144.1792 144.1792-144.1792Z" fill="#FFC31A" /><path d="M836.5568 603.0848v58.624c0 22.784-16.7424 42.8032-38.912 44.1856a41.984 41.984 0 0 1-44.0832-42.5472V574.464c-26.6752-25.6-80.9472-87.9104-178.688-20.1216a14.1312 14.1312 0 0 0-6.1952 11.7248v71.2704c0 22.8352-16.7424 42.8544-38.912 44.1856a41.984 41.984 0 0 1-44.0832-42.496v-23.7056a30.2592 30.2592 0 0 0-22.9888-29.8496 127.0784 127.0784 0 0 1-26.0096-8.96 235.1104 235.1104 0 0 1-25.6-13.9264c-15.36-9.6256-31.1296-20.48-47.7696-30.72-77.6704-38.2464-156.6208-5.5296-204.2368 23.7056v184.0128h0.3584c114.432-71.68 179.2-44.3392 215.552-20.9408 41.3184 26.5728 76.032 72.96 183.4496 16.4352s142.6944-33.9456 182.3744 5.12 72.704 59.3408 126.1568 27.6992c24.064-14.2336 46.7456-36.864 64.4608-57.4464v-182.2208h-0.4096c-36.4032 47.616-67.9424 68.352-94.208 74.752-0.2048-0.1024-0.256 0-0.256 0.1024zM771.5328 170.0864c-56.32-43.1104-148.48 8.6016-207.1552 56.576l0.512 1.024c-31.232-61.44-72.704-111.0016-124.6208-101.3248C365.7216 140.288 335.0528 257.7408 322.56 346.112h464.3328c21.2992-67.9424 23.6032-146.176-15.36-176.0256z" fill="#FFE8D2" /><path d="M616.7552 332.4928l-47.9744-109.312-4.4032 3.4816 0.512 1.024c-31.232-61.44-72.704-111.0016-124.6208-101.3248l-1.3312 0.3072c27.392 17.7152 92.16 73.1136 117.76 211.2 65.024 9.3184 60.0576-5.376 60.0576-5.376zM788.736 339.6608c19.5072-66.56 20.48-140.6464-17.2032-169.5744-18.8928-14.4896-41.8816-18.2272-66.304-15.0528 19.4048 14.2336 63.4368 61.0816 28.7744 179.456a316.0064 316.0064 0 0 0 54.7328 5.1712z" fill="#E8AD80" /><path d="M790.8352 346.112h-19.0976c36.352 28.5696 82.9952 79.104 82.9952 150.6304v256.7168c0 21.248-8.3968 106.3424-91.0336 152.3712h27.136c77.568 0 140.4928-64.512 140.4928-144.128v-271.36c0-79.6672-62.9248-144.2304-140.4928-144.2304z" fill="#F48806" /><path d="M930.9184 528.128c-28.416 37.1712-53.8624 57.9584-76.1856 68.3008v157.0304a151.808 151.808 0 0 1-1.8432 21.7088 130.6624 130.6624 0 0 0 13.9264-7.168c24.064-14.2336 46.7456-36.864 64.4608-57.4464v-182.3232s-0.2048-0.256-0.3584-0.1024z" fill="#E8AD80" /><path d="M359.9872 282.6752a12.6976 12.6976 0 0 1-1.9456 0 20.48 20.48 0 0 1-18.432-22.3232 133.12 133.12 0 0 1 28.0064-68.8128 20.48 20.48 0 0 1 31.0784 26.6752 92.4672 92.4672 0 0 0-18.3296 46.08 20.48 20.48 0 0 1-20.3776 18.3808zM611.584 260.8128a20.0704 20.0704 0 0 1-13.3632-5.12 20.48 20.48 0 0 1-2.1504-28.8768 100.7616 100.7616 0 0 1 65.8432-34.6112 20.48 20.48 0 0 1 2.3552 40.96 59.0336 59.0336 0 0 0-37.1712 20.48 20.48 20.48 0 0 1-15.5136 7.168z" fill="#293E40" /><path d="M286.1568 446.6688H257.536a20.48 20.48 0 0 1 0-40.96h28.6208a20.48 20.48 0 0 1 0 40.96zM541.696 446.6688H354.4064a20.48 20.48 0 0 1 0-40.96h187.2896a20.48 20.48 0 0 1 0 40.96z" fill="#FFFFFF" /><path d="M872.704 386.3552a20.48 20.48 0 1 0-33.792 23.1424 125.3888 125.3888 0 0 1 21.8112 71.168v36.7104c-23.0912 24.576-44.4928 41.7792-63.5904 51.2a56.32 56.32 0 0 0-31.1296 50.432v34.8672a22.8352 22.8352 0 0 1-7.0656 16.5376 20.48 20.48 0 0 1-15.36 5.5296 22.8352 22.8352 0 0 1-19.6096-23.552V599.04a90.112 90.112 0 0 0-27.648-65.0752l-0.4096-0.4096c-50.8416-48.2816-150.8864-21.2992-162.56-17.9712-16.384 5.12-35.84 18.7392-35.2768 54.7328v59.2384a22.4256 22.4256 0 0 1-7.0656 16.4864 20.48 20.48 0 0 1-15.36 5.5808 22.8864 22.8864 0 0 1-19.6096-23.552v-31.1808a43.776 43.776 0 0 0-34.5088-42.752 20.48 20.48 0 1 0-8.5504 39.7824 2.7136 2.7136 0 0 1 2.048 2.7136v31.1808a63.5392 63.5392 0 0 0 57.856 64.4096 61.0304 61.0304 0 0 0 46.08-16.4864 64 64 0 0 0 20.0192-46.4384v-59.8016c0-11.8272 1.792-13.568 6.0928-14.9504 24.2688-6.9632 93.6448-19.0464 122.4704 8.2944l0.4096 0.3584a49.3056 49.3056 0 0 1 15.0528 35.84v53.4528A63.5392 63.5392 0 0 0 740.864 716.8h4.1472a60.7744 60.7744 0 0 0 41.8816-16.64 63.744 63.744 0 0 0 20.0704-46.4384v-34.8672a15.0528 15.0528 0 0 1 8.0896-13.568 213.2992 213.2992 0 0 0 45.6704-31.0784v128c-24.0128 26.368-46.08 44.9536-65.9968 55.1936a20.48 20.48 0 0 0 9.3696 38.656 20.1728 20.1728 0 0 0 9.4208-2.304 228.8128 228.8128 0 0 0 46.8992-33.3824c-4.1984 64.3072-56.32 115.3024-119.7056 115.3024h-491.52c-66.1504 0-120.0128-55.5008-120.0128-123.6992v-2.8672c44.8512-26.624 121.9072-59.6992 180.0192-18.3808a338.3808 338.3808 0 0 0 73.8304 41.8816 20.8384 20.8384 0 0 0 7.2192 1.28 20.48 20.48 0 0 0 7.2192-39.6288 298.1376 298.1376 0 0 1-64.512-36.9152c-67.6352-48.0256-148.48-23.3984-203.776 5.12v-61.44a20.48 20.48 0 0 0-40.96 0v111.104c0 90.7776 72.2432 164.6592 160.9728 164.6592h491.52c88.7808 0 160.9728-73.8816 160.9728-164.6592v-271.36a166.144 166.144 0 0 0-28.9792-94.4128zM108.8 562.6368a20.48 20.48 0 0 0 20.48-20.48v-61.44c0-68.2496 53.8624-123.6992 120.0128-123.6992h491.52a115.6096 115.6096 0 0 1 52.2752 12.288 20.48 20.48 0 0 0 18.176-36.5056 156.4672 156.4672 0 0 0-48.128-14.9504c15.104-63.6416 15.36-139.4176-29.2352-173.4656-77.824-59.6992-197.6832 28.5184-232.5504 56.9856a20.48 20.48 0 0 0-5.12 25.1904q5.7856 11.264 11.4688 23.9104c0.3584 0.768 0.6656 1.5872 1.024 2.3552q2.304 5.12 4.608 10.5984c0.3072 0.8192 0.6656 1.6384 1.024 2.4576 3.6864 8.8064 7.3216 17.9712 10.9568 27.5968l0.768 2.1504c1.4848 4.0448 3.0208 8.2432 4.5056 12.4416l1.1776 3.328c0.5632 1.5872 1.1264 3.1744 1.6384 4.8128H296.3968c12.1856-70.8608 39.4752-168.3456 97.28-179.2 19.6096-3.6864 38.7072 4.4544 58.5216 24.7808A20.48 20.48 0 1 0 481.792 133.12c-29.6448-30.72-61.952-42.8032-95.3856-36.5568-80.4352 15.0528-115.9168 123.8528-131.584 219.4432h-5.5296c-88.7296 0-160.9728 73.8304-160.9728 164.6592v61.44a20.48 20.48 0 0 0 20.48 20.5312z m600.1664-385.9456c24.9344 19.1488 29.5936 75.2128 12.3904 139.3152H576.512c0-0.4096 0-0.8192-0.4096-1.1776l-2.304-6.8096-2.9184-8.5504-2.56-6.6048c-1.0752-3.0208-2.0992-5.9392-3.1744-8.8576-0.7168-1.8432-1.3824-3.7376-2.048-5.5296-1.6384-4.4032-3.328-8.704-5.12-12.9536-0.6656-1.6384-1.3312-3.2768-1.9456-5.12-1.1776-2.816-2.304-5.6832-3.4816-8.448-0.7168-1.792-1.4848-3.5328-2.2016-5.12-1.1264-2.7136-2.304-5.12-3.4304-7.936-0.7168-1.5872-1.3824-3.1744-2.0992-4.7104q-2.5088-5.8368-5.12-11.3664c58.112-43.9296 129.3824-76.7488 169.2672-46.1312z" fill="#293E40" /><path d="M471.7056 782.1312c21.5552-6.4 40.96-18.176 63.744-31.8464l3.7376-2.2016c62.464-37.632 96.5632-25.088 128.512 5.12l6.656 6.4512c15.0016 14.592 33.6896 32.7168 58.112 41.984a20.48 20.48 0 0 0 26.4192-11.8784 20.48 20.48 0 0 0-11.8784-26.4192c-16.4864-6.2464-30.72-19.8656-44.0832-33.0752l-7.0656-6.8096c-52.4288-49.7664-107.52-53.0432-177.8176-10.5984l-3.7376 2.2528c-21.0432 12.6976-37.6832 22.7328-54.2208 27.648a20.48 20.48 0 0 0 11.6224 39.2704zM347.0336 518.0928c-1.4336-1.0752-3.6864-2.7136-8.3968-5.9904-40.0896-27.6992-89.088-34.2016-145.5616-19.2512a20.48 20.48 0 0 0 10.24 39.5776c44.3904-11.7248 81.92-7.2192 111.7696 13.3632 4.1472 2.8672 6.0928 4.352 7.3728 5.12a89.856 89.856 0 0 0 11.4176 7.168 20.48 20.48 0 0 0 20.48-35.5328 66.2528 66.2528 0 0 1-7.3216-4.4544z" fill="#293E40" /></svg>