<svg xmlns="http://www.w3.org/2000/svg" viewBox="0 0 1024 1024" width="200" height="200"><path d="M734.51 630.14a268.88 268.88 0 0 0 60.74-170.43V342.9c0-148.9-121.19-270.13-270.15-270.13H477C328 72.77 206.81 194 206.81 342.9v116.81a268.82 268.82 0 0 0 60.74 170.43z" fill="#EF7A90" /><path d="M133.06 404.12m117.54 0l503.8 0q117.54 0 117.54 117.54l0 4.18q0 117.54-117.54 117.54l-503.8 0q-117.54 0-117.54-117.54l0-4.18q0-117.54 117.54-117.54Z" fill="#F47A8F" /><path d="M699.56 917.77c0-98.28-104.5-178-202.68-178.37-98.19 0.39-207.69 80.09-207.69 178.37z" fill="#E83F63" /><path d="M685.58 440.22c-20.91 30.46-18.66 68.33 5 84.59s59.84 4.75 80.74-25.71 18.66-68.33-5-84.58-59.83-4.75-80.74 25.7z" fill="#FFD1CA" /><path d="M721.93 509.4a6 6 0 0 1-6-5.35c-3.34-30.29 12.46-44.71 19.4-49.5 9.59-6.62 20.54-8.82 27.89-5.62a6 6 0 1 1-4.8 11c-2.88-1.25-9.91 0.11-16.27 4.5-5.15 3.57-16.88 14.44-14.25 38.31a6 6 0 0 1-5.3 6.62c-0.23 0.02-0.45 0.04-0.67 0.04z" fill="#FFBAB3" /><path d="M316.34 440.22c20.91 30.46 18.66 68.33-5 84.59s-59.83 4.75-80.74-25.71-18.66-68.33 5-84.58 59.84-4.75 80.74 25.7z" fill="#FFD1CA" /><path d="M280 509.4h-0.66a6 6 0 0 1-5.31-6.62c2.63-23.87-9.11-34.74-14.29-38.31-6.35-4.39-13.4-5.75-16.27-4.5a6 6 0 1 1-4.79-11c7.34-3.2 18.29-1 27.88 5.62 6.95 4.79 22.74 19.21 19.4 49.5a6 6 0 0 1-5.96 5.31z" fill="#FFBAB3" /><path d="M540.46 749.4s-17.9 15-45.43 15c-30 0-47.93-15-47.93-15v-87.86h93.36z" fill="#FFD1CA" /><path d="M727.19 489.64c0 110.8-89.83 200.63-200.64 200.63h-51.18c-110.81 0-200.64-89.83-200.64-200.63V388.17c0-110.8 89.83-200.63 200.64-200.63h51.18c110.81 0 200.64 89.83 200.64 200.63z" fill="#FFE6E1" /><path d="M404.78 538.11a43.95 43.95 0 1 1-43.95-43.95 44 44 0 0 1 43.95 43.95zM685 538.11a44 44 0 1 1-43.95-43.95A44 44 0 0 1 685 538.11z" fill="#F47A8F" opacity=".4" /><path d="M502.76 549h-1.12c-14.76-0.63-24.05-12.84-25.06-14.23l-1.91-2.63v-116.4a10 10 0 0 1 20 0v109.31c1.92 1.79 4.85 3.85 7.89 4 4.11 0.14 8.16-3.56 10.86-6.68a10 10 0 0 1 15.12 13.09c-9.6 11.04-19.13 13.54-25.78 13.54z" fill="#F47A8F" /><path d="M590.73 438.73c0 16.94 12.09 30.67 27 30.67s27-13.73 27-30.67-12.08-30.66-27-30.66-27 13.73-27 30.66zM356.89 438.73c0 16.94 12.08 30.67 27 30.67s27-13.73 27-30.67-12.08-30.66-27-30.66-27 13.73-27 30.66zM411.4 379.43a5.9 5.9 0 0 1-3.06-0.85c-1.13-0.66-27.16-15.57-61.48-0.62a6 6 0 0 1-4.79-11c40.2-17.52 71.13 0.55 72.43 1.32a6 6 0 0 1-3.1 11.15zM657 379.43a5.9 5.9 0 0 1-3.06-0.85c-1.13-0.66-27.16-15.57-61.48-0.62a6 6 0 0 1-4.79-11c40.2-17.52 71.13 0.55 72.43 1.32a6 6 0 0 1-3.1 11.15z" fill="#31296B" /><path d="M506.17 618.83c-30.53 0-50.87-11.89-52.1-12.63a10 10 0 0 1 10.25-17.2c1.55 0.92 37 21.14 83.7 0.78a10 10 0 1 1 8 18.33 124 124 0 0 1-49.85 10.72z" fill="#E83F63" /><path d="M637.21 426.37a6 6 0 0 1-0.26-12c0.19 0 13.56-1 14.87-7.9a6 6 0 1 1 11.79 2.23c-2.5 13.19-17.61 17.31-26.15 17.66zM364.72 426.37h-0.26c-8.54-0.35-23.65-4.47-26.14-17.66a6 6 0 0 1 11.79-2.23c1.32 7 14.72 7.9 14.85 7.9a6 6 0 0 1-0.24 12z" fill="#31296B" /><path d="M418 100.7c-47.11 3.66-100.87 39-126.39 70.47-40.61 50.09-45.18 115.14-37.1 176.77A151.19 151.19 0 0 0 418 100.7z" fill="#EF7A90" /><path d="M714.11 174.8c-76.14-69.31-197.38-100-297.64-73.41 8.15 143.66 127.2 257.66 272.9 257.66a272.8 272.8 0 0 0 92.19-16C773.41 281 761.24 217.7 714.11 174.8z" fill="#EF7A90" /><path d="M257.3 333.36c-5.45 0-9.3-0.25-11.05-0.4a8 8 0 0 1 0.64-16h0.68c5.62 0.46 35.35 2.17 68.52-9.67 46-16.41 77.33-48.87 90.56-93.87A8 8 0 0 1 422 218c-14.74 50.11-49.5 86.22-100.53 104.42a195.14 195.14 0 0 1-64.17 10.94zM741.59 621.15a8 8 0 0 1-2.65-15.55 8.21 8.21 0 0 1 1.7-0.4c5.41-0.85 33.31-5.89 52.12-21.79 23-19.43 31.47-45.95 28.34-88.67a8 8 0 0 1 16-1.16c2.35 32.15 0.62 72.81-34 102.05-21.51 18.18-51.34 24-60 25.37h-0.07a7.32 7.32 0 0 1-1.44 0.15zM263.48 613.67a8.1 8.1 0 0 1-2.6-0.43c-30.5-10.49-67.2-28.07-80.48-71.37-8.26-26.91-1.9-56.63 0.25-65.1v-0.07a8 8 0 0 1 15.81 2.3 9 9 0 0 1-0.3 1.75c-1.34 5.3-7.68 32.95-0.46 56.48 8.82 28.78 29.87 47 70.38 60.93a8 8 0 0 1-2.6 15.56zM279.85 272.21a8 8 0 0 1-0.29-16c2.42-0.09 59.61-2.79 82.88-54.63a8 8 0 0 1 14.6 6.56c-11.31 25.18-31.29 44.21-57.78 55a122.24 122.24 0 0 1-39.11 9zM721.81 318.57c-127.34 0-208.15-99.84-217.27-111.66l-0.1-0.13a8 8 0 0 1 12.41-10.1l0.36 0.45c8.95 11.61 91.18 113.18 219.3 105a8 8 0 1 1 1 16c-5.28 0.27-10.51 0.44-15.7 0.44z" fill="#C64A7C" /><path d="M385.22 530.69a68.32 68.32 0 1 1 68.32-68.31 68.38 68.38 0 0 1-68.32 68.31z m0-130.64a62.32 62.32 0 1 0 62.32 62.33 62.39 62.39 0 0 0-62.32-62.33z" fill="#222021" /><path d="M551 473.74a3 3 0 0 1-3-3c0-24.15-21.1-43.81-47-43.81s-47 19.66-47 43.81a3 3 0 0 1-6 0c0-27.46 23.78-49.81 53-49.81s53 22.35 53 49.81a3 3 0 0 1-3 3z" fill="#222021" /><path d="M616.36 531.7a68.83 68.83 0 1 1 68.82-68.82 68.89 68.89 0 0 1-68.82 68.82z m0-131.65a62.83 62.83 0 1 0 62.82 62.83 62.9 62.9 0 0 0-62.82-62.83zM321.13 450.34a3 3 0 0 1-2-0.78L272.37 407a3 3 0 1 1 4-4.44l46.74 42.57a3 3 0 0 1-2 5.22z" fill="#222021" /><path d="M680.79 450.34a3 3 0 0 1-2-5.22l46.75-42.57a3 3 0 0 1 4 4.44l-46.75 42.57a3 3 0 0 1-2 0.78z" fill="#222021" /><path d="M590.55 764.1c0 29-43.06 52.49-96.18 52.49-52.82 0-95.69-23.24-96.17-52A237.27 237.27 0 0 1 447.1 746v-31.86c14 4.32 30.09 6.15 47.27 6.15 16.7 0 32.4-1.7 46.09-5.79v30.07a225.3 225.3 0 0 1 50.06 18.12q0.03 0.71 0.03 1.41z" fill="#F47A8F" /><path d="M425.46 786.66a4 4 0 0 1-1-7.88c31.79-7.91 30.37-44.17 30.36-44.54a4 4 0 1 1 8-0.39c0 0.43 1.68 43.21-36.42 52.69a4 4 0 0 1-0.94 0.12zM562 786.66a4 4 0 0 1-1-0.12c-38.1-9.48-36.44-52.26-36.42-52.69a4 4 0 1 1 8 0.39c-0.07 1.57-1.27 36.67 30.36 44.54a4 4 0 0 1-1 7.88zM462.78 801.12A3.94 3.94 0 0 1 460 800a4 4 0 0 1-0.09-5.65c12-12.41 13-45.84 12.31-57.67a4 4 0 1 1 8-0.45c0.11 1.88 2.38 46.25-14.55 63.69a4 4 0 0 1-2.89 1.2zM526.83 801.12a4 4 0 0 1-2.87-1.21c-16.96-17.44-14.66-61.81-14.55-63.69a4 4 0 0 1 8 0.45c0 0.42-2.19 42.74 12.3 57.67a4 4 0 0 1-2.87 6.78zM494.38 808.36a4 4 0 0 1-4-4v-66.54a4 4 0 0 1 8 0v66.54a4 4 0 0 1-4 4z" fill="#C64A7C" /></svg>