<svg xmlns="http://www.w3.org/2000/svg" viewBox="0 0 1024 1024" width="200" height="200"><path d="M515.916897 332.982996c68.230327 19.113369 130.908471 125.63273 130.908472 125.63273l4.364654 233.670571-219.634373 15.075771S371.602981 292.564198 515.916897 332.982996z" fill="#A316F9" /><path d="M354.24949 526.701992c21.204198 4.376335 47.388228 0.416608 89.080213-13.00441l15.29381 47.516715c-42.852259 13.790905-79.727939 21.546829-114.469962 14.371041-35.766023-7.386038-64.691103-29.50911-94.379315-64.375726l38.008699-32.363072c26.390388 30.992548 46.294144 43.689369 66.466555 47.855452z m13.588442 73.34254c25.65451 4.352973 57.414084 4.578798 100.371467-4.629414l10.461932 48.809369c-48.346038 10.364593-86.526053 10.570951-119.185034 5.030448-32.456517-5.50546-58.23562-16.524167-80.880426-26.596745l20.285323-45.608882c22.169795 9.858433 43.085871 18.607209 68.942844 22.995224z m56.234342 78.851894c19.853141-3.282251 39.963255-11.232852 66.727422-31.537643l30.171011 39.768578c-32.067163 24.32292-59.571103 36.190418-88.749262 41.018403-23.734996 3.924684-48.163042 2.970768-74.023909 1.962342a2469.206631 2469.206631 0 0 0-12.895392-0.482798l1.697582-49.887878c4.827985 0.163529 9.41457 0.334844 13.790905 0.502266 26.265795 0.988958 44.950875 1.689795 63.281643-1.34327zM712.462601 528.831757c-21.247027 4.356867-47.466099 0.408821-89.158084-12.922647l-15.204258 47.54397c42.852259 13.705247 79.696791 21.394981 114.392091 14.273703 35.730981-7.327635 64.656061-29.298859 94.359848-63.959118l-37.903574-32.483771c-26.37092 30.77451-46.274677 43.401247-66.486023 47.547863z m-13.592335 72.867528c-25.681764 4.329612-57.456913 4.555437-100.429871-4.598266l-10.399635 48.824943c48.330464 10.290616 86.491011 10.496973 119.126632 4.995407 32.440943-5.466525 58.204471-16.411255 80.853171-26.417643l-20.172411-45.659498c-22.169795 9.796137-43.101445 18.494297-68.977886 22.855057z m-56.288852 78.345734c-19.880395-3.266677-40.00219-11.174449-66.766357-31.346859l-30.042525 39.862023c32.067163 24.171072 59.559422 35.949019 88.710327 40.741961 23.719422 3.89743 48.131894 2.9513 73.992761 1.946769a2469.747833 2469.747833 0 0 1 12.899285-0.478905l-1.689795-49.887879c-4.827985 0.163529-9.41457 0.334844-13.787011 0.498373-26.265795 0.981171-44.966449 1.682008-63.316685-1.335483z" fill="#000000" /><path d="M354.24949 526.701992c21.204198 4.376335 47.388228 0.416608 89.080213-13.00441l15.29381 47.516715c-42.852259 13.790905-79.727939 21.546829-114.469962 14.371041-35.766023-7.386038-64.691103-29.50911-94.379315-64.375726l38.008699-32.363072c26.390388 30.992548 46.294144 43.689369 66.466555 47.855452z m13.588442 73.34254c25.65451 4.352973 57.414084 4.578798 100.371467-4.629414l10.461932 48.809369c-48.346038 10.364593-86.526053 10.570951-119.185034 5.030448-32.456517-5.50546-58.23562-16.524167-80.880426-26.596745l20.285323-45.608882c22.169795 9.858433 43.085871 18.607209 68.942844 22.995224z" fill="#000000" /><path d="M521.231574 681.497308l24.587681-4.271209c24.591574-4.275103 24.591574-4.271209 24.591574-4.267316l0.031148 0.190784 0.089552 0.510053 0.327057 1.935087c0.280335 1.682008 0.685262 4.131042 1.187528 7.241977 0.996745 6.217977 2.375057 15.087452 3.905217 25.771316 3.056426 21.324897 6.743605 50.066981 9.208213 79.412563 2.445141 29.088608 3.792304 59.863118 1.822175 84.847939-0.977278 12.365871-2.857856 24.731741-6.533354 35.20146-3.321186 9.465186-10.259468 23.520852-25.526023 29.501323-66.887057 26.203498-124.414053-5.918175-146.552699-28.052928l35.298798-35.298798c12.435954 12.435954 47.976152 32.491559 89.34108 18.237323 0.105125-0.272548 0.218038-0.576243 0.338738-0.918874 1.604137-4.563224 3.036958-12.02324 3.870174-22.594191 1.646966-20.888821 0.580137-48.44727-1.798813-76.741596-2.355589-28.041247-5.906494-55.74765-8.881156-76.515772a1522.263605 1522.263605 0 0 0-3.77673-24.934206 1158.521673 1158.521673 0 0 0-1.133019-6.903239l-0.299802-1.78324-0.077871-0.439969-0.019468-0.128487z m10.839605 212.929703a1.171954 1.171954 0 0 1 0.167422-0.260867 1.039574 1.039574 0 0 1-0.167422 0.260867zM463.358053 77.870722l-58.2473 81.546221 45.807452 6.872091-18.24511 31.701171c-21.274281 36.969125-45.951513 78.112122-72.06546 103.957415-13.012198 12.875924-29.139224 24.809612-48.085171 28.22035-21.032882 3.792304-40.461627-3.718327-56.401764-19.654571-33.784213-33.788106-29.914038-90.29889-4.539863-134.124532 26.682403-46.08 79.537156-85.326844 156.983482-93.055513L463.358053 77.870722zM370.726935 204.73381l-53.582844-8.040152 32.814723-45.943726c-26.133414 13.187407-44.238357 31.755681-55.179194 50.654905-19.572806 33.803681-14.499529 62.670357-3.360122 73.813657 6.525567 6.521673 10.084259 6.214084 12.252958 5.82473 4.255635-0.767027 11.532654-4.395802 21.82327-14.577399 14.631909-14.483954 29.777764-36.466859 45.231209-61.732015z" fill="#000000" /><path d="M271.336639 408.354068c-31.771255-35.466221-35.485688-79.564411-29.863422-130.69822l49.619224 5.458738c-5.158935 46.889856 0.167422 72.668958 17.427468 91.938068 19.012137 21.227559 56.697673 39.655665 131.064213 58.332958l-12.15562 48.412228c-74.763681-18.774631-126.080487-39.939894-156.091863-73.443772zM595.83562 77.870722l58.251194 81.546221-45.811346 6.868198 18.24511 31.708958c21.278175 36.969125 45.9593 78.108228 72.077141 103.953521 13.012198 12.879817 29.143118 24.809612 48.089064 28.22035 21.032882 3.792304 40.461627-3.718327 56.401765-19.654571 33.792-33.788106 29.917932-90.29889 4.543756-134.124532-26.686297-46.083894-79.548837-85.326844-157.00295-93.055513L595.83562 77.870722z m92.635011 126.863088l53.590631-8.040152-32.822509-45.94762c26.141202 13.187407 44.253932 31.759574 55.194768 50.654905 19.5767 33.807574 14.499529 62.674251 3.360122 73.813658-6.525567 6.525567-10.088152 6.217977-12.256852 5.828623-4.255635-0.767027-11.540441-4.399696-21.827164-14.577399-14.635802-14.483954-29.785551-36.466859-45.238996-61.732015z" fill="#000000" /><path d="M787.872608 408.357962c31.771255-35.470114 35.493475-79.568304 29.863422-130.702114l-49.61533 5.458738c5.158935 46.889856-0.167422 72.668958-17.427468 91.934174-19.019924 21.231452-56.70546 39.659559-131.083681 58.336852l12.15562 48.412228c74.767574-18.774631 126.096061-39.936 156.107437-73.439878z" fill="#000000" /><path d="M533.788228 288.296882c17.038114 0 33.106738-4.465886 47.255848-12.369764 12.206236-6.825369 22.983544-16.208791 31.716745-27.492259a113.103331 113.103331 0 0 0 18.428107-35.435072 118.441369 118.441369 0 0 1 5.376973 35.431179c0 23.388471-6.72803 45.083255-18.213962 62.958479-8.055726 12.537186-18.451468 23.197688-30.509749 31.245627 31.821871 32.577217 53.290829 94.26251 53.290829 164.992487 0 104.693293-47.03781 189.564593-105.063179 189.564593-58.021475 0-105.059285-84.8713-105.059285-189.564593 0-69.43343 20.690251-130.149232 51.550418-163.170312-13.261384-8.230935-24.657764-19.561125-33.336456-33.067802-11.485932-17.875224-18.213962-39.570008-18.213962-62.958479 0-12.389232 1.888365-24.307346 5.37308-35.431179a113.192882 113.192882 0 0 0 18.432 35.431179c8.729308 11.291255 19.51051 20.674677 31.716745 27.496152a96.474038 96.474038 0 0 0 47.255848 12.369764z m57.425764 219.330677c0-45.519331-10.329551-84.256122-24.513703-109.848335-15.134175-27.305369-28.037354-29.801125-30.630449-29.801125-2.589202 0-15.49238 2.491863-30.626555 29.801125-14.184152 25.592213-24.517597 64.329004-24.517597 109.848335 0 45.515437 10.333445 84.256122 24.517597 109.844441 15.134175 27.309262 28.037354 29.805019 30.626555 29.805019 2.593095 0 15.496274-2.495757 30.630449-29.805019 14.184152-25.588319 24.513703-64.329004 24.513703-109.844441zM414.416304 874.437597c-7.016152-3.819559-16.010221-11.446996-23.746677-23.513065-7.732563-12.069962-10.901901-23.427407-11.446996-31.397475 7.020046 3.819559 16.018008 11.443103 23.750571 23.513065 7.732563 12.066068 10.905795 23.427407 11.443102 31.397475z m-0.630753 8.13749c-0.011681-0.011681 0.035042-0.167422 0.179103-0.424395-0.093445 0.307589-0.163529 0.436076-0.179103 0.424395z m7.829901-5.326357c0.292015-0.023361 0.45165 0 0.459438 0.015574 0.007787 0.015574-0.140167 0.027255-0.459438-0.015574z m-41.758174-65.859163c0.011681 0.011681-0.038935 0.167422-0.179103 0.424395 0.093445-0.307589 0.167422-0.43997 0.179103-0.424395z m-7.826008 5.326357c-0.295909 0.023361-0.455544 0-0.463331-0.015574-0.007787-0.015574 0.140167-0.027255 0.463331 0.015574z m72.209521 104.253323c26.604532-17.053688 26.947163-64.001947 0.759239-104.864608-26.187924-40.862662-68.989567-60.16292-95.594098-43.109232-26.608426 17.049795-26.951057 64.001947-0.763134 104.864608 26.187924 40.858768 68.989567 60.16292 95.597993 43.109232z" fill="#000000" /></svg>