<svg xmlns="http://www.w3.org/2000/svg" viewBox="0 0 1024 1024" width="200" height="200"><path d="M958.474 548.436l-0.066 39.136-187.914 109.194 0.066-39.126 187.914-109.204z" fill="#FFB63C" /><path d="M770.56 657.64l-0.066 39.136L347.48 452.54l0.066-39.134L770.56 657.64z" fill="#FFA20D" /><path d="M958.474 548.436l-187.914 109.196-423.014-244.216 187.912-109.194 423.016 244.214z" fill="#FFDE9B" /><path d="M462.68 413.25l72.872-42.358 307.786 177.712-72.872 42.346-307.786-177.7z" fill="#FFCA6C" /><path d="M762.154 652.752l-44.34-25.766 53.994-186.406 49.292 28.644-58.946 183.528z" fill="#4F575F" fill-opacity=".125" /><path d="M457.32 164.66l27.116 15.76c-4.422-2.57-10.334-1.714-16.244 1.694l-27.118-15.752c5.912-3.416 11.822-4.272 16.244-1.702z m-82.648 264.506l-27.118-15.76L420.426 193.34l27.118 15.77-72.872 220.056z" fill="#FFDE9B" /><path d="M447.544 209.11l-27.118-15.76c4.106-12.42 12.38-22.212 20.648-26.996l27.118 15.76c-8.286 4.784-16.542 14.578-20.648 26.996z" fill="#FFDE9B" /><path d="M468.192 182.114c8.284-4.776 16.57-4.544 20.74 3.1l73.886 135.336-188.136 108.62 72.86-220.07c4.108-12.408 12.374-22.2 20.65-26.986z" fill="#FFCA6C" /><path d="M557.084 230.4c-3.77-2.196-8.992-1.89-14.746 1.434-11.45 6.61-20.694 22.62-20.656 35.774 0.018 6.536 2.326 11.134 6.032 13.294l-70.992-41.258c-3.722-2.16-6.032-6.76-6.05-13.294-0.038-13.154 9.216-29.156 20.666-35.774 5.772-3.332 10.984-3.63 14.754-1.444l70.992 41.268z" fill="#DBE6FA" /><path d="M527.716987 281.16711a16.924 29.212 30.2 1 0 29.388437-50.494391 16.924 29.212 30.2 1 0-29.388437 50.494391Z" fill="#EBF2FF" /><path d="M560.37 220.272c-5.074-2.952-12.1-2.532-19.846 1.946-15.388 8.88-27.836 30.43-27.788 48.128 0.028 8.788 3.128 14.968 8.136 17.872l228.39 132.284c-5-2.906-8.1-9.086-8.128-17.874-0.046-17.698 12.4-39.248 27.788-48.128 7.746-4.48 14.774-4.898 19.848-1.956l-228.4-132.272z" fill="#3D4449" /><path d="M608.46 248.124c-5.072-2.95-12.1-2.532-19.846 1.946-15.388 8.88-27.834 30.432-27.788 48.128 0.028 8.788 3.128 14.97 8.136 17.874l132.218 76.576c-5.008-2.904-8.108-9.086-8.136-17.874-0.048-17.696 12.4-39.246 27.786-48.128 7.756-4.476 14.774-4.896 19.848-1.954l-132.218-76.568z" fill="#FF6161" /><path d="M768.92 354.49c15.4-8.89 27.928-1.76 27.976 15.938 0.056 17.686-12.392 39.238-27.798 48.128-15.388 8.89-27.918 1.768-27.964-15.938-0.046-17.688 12.4-39.238 27.788-48.128z" fill="#4F575F" /><path d="M855.924 403.604c-3.77-2.186-8.992-1.88-14.746 1.444-11.45 6.62-20.694 22.62-20.656 35.774 0.02 6.536 2.328 11.144 6.032 13.304l-70.99-41.268c-3.724-2.15-6.034-6.76-6.052-13.294-0.038-13.152 9.216-29.156 20.666-35.774 5.772-3.324 10.986-3.63 14.756-1.442l70.99 41.256z" fill="#DBE6FA" /><path d="M826.557258 454.552104a16.924 29.212 30.2 1 0 29.388438-50.494391 16.924 29.212 30.2 1 0-29.388438 50.494391Z" fill="#EBF2FF" /><path d="M853.346 393.216l27.108 15.75c-4.412-2.568-10.334-1.712-16.244 1.704l-27.108-15.76c5.91-3.406 11.82-4.264 16.244-1.704v0.01z m-82.646 264.5l-27.118-15.752 72.862-220.066 27.118 15.76-72.862 220.056z" fill="#FFDE9B" /><path d="M843.562 437.658l-27.118-15.76c4.116-12.42 12.38-22.212 20.658-26.988l27.108 15.76c-8.276 4.776-16.534 14.57-20.648 26.988z" fill="#FFDE9B" /><path d="M864.21 410.67c8.284-4.784 16.57-4.542 20.74 3.092l73.886 135.334-188.136 108.62 72.86-220.068c4.116-12.408 12.384-22.2 20.65-26.978z" fill="#FFB63C" /><path d="M879.188 416.544l5.53 3.212c-3.696-2.15-8.816-1.852-14.466 1.416l-5.53-3.212c5.65-3.26 10.77-3.566 14.466-1.416z" fill="#3D4449" /><path d="M855.924 469.3l-5.53-3.212c-3.648-2.122-5.91-6.638-5.93-13.052-0.036-12.884 9.03-28.598 20.258-35.076l5.53 3.212c-11.228 6.48-20.294 22.192-20.258 35.076 0.02 6.424 2.28 10.928 5.93 13.052z" fill="#3D4449" /><path d="M870.252 421.172c11.216-6.48 20.36-1.276 20.386 11.608 0.046 12.912-9.03 28.626-20.256 35.094-11.228 6.47-20.35 1.286-20.388-11.626-0.036-12.884 9.03-28.598 20.258-35.076z" fill="#4F575F" /><path d="M676.166 712.5l-0.074 39.134-187.904 109.196 0.064-39.126 187.914-109.204z" fill="#FFB63C" /><path d="M488.252 821.704l-0.064 39.126L65.164 616.606l0.064-39.136 423.024 244.234z" fill="#FFA20D" /><path d="M676.166 712.5l-187.914 109.194L65.228 577.48l187.914-109.196L676.166 712.5z" fill="#FFDE9B" /><path d="M180.364 577.304l72.872-42.348 307.796 177.71-72.872 42.348-307.796-177.71z" fill="#FFCA6C" /><path d="M479.838 816.816l-44.34-25.766 53.992-186.416 49.292 28.654-58.944 183.528z" fill="#4F575F" fill-opacity=".125" /><path d="M175.01 328.722l27.11 15.76c-4.414-2.568-10.334-1.712-16.246 1.696l-27.108-15.752c5.902-3.416 11.824-4.272 16.244-1.704zM92.364 593.23l-27.116-15.76 72.86-220.066 27.12 15.76-72.864 220.066z" fill="#FFDE9B" /><path d="M165.228 373.164l-27.12-15.75c4.116-12.42 12.382-22.212 20.66-26.998l27.106 15.76c-8.276 4.786-16.532 14.58-20.646 26.998v-0.01z" fill="#FFDE9B" /><path d="M185.874 346.178c8.286-4.776 16.57-4.544 20.74 3.1l73.888 135.334-188.138 108.62 72.862-220.068c4.116-12.408 12.382-22.202 20.648-26.986z" fill="#FFCA6C" /><path d="M274.776 394.454c-3.77-2.188-8.992-1.89-14.754 1.442-11.44 6.61-20.694 22.622-20.648 35.776 0.01 6.534 2.318 11.134 6.032 13.294l-70.99-41.26c-3.724-2.16-6.034-6.766-6.052-13.292-0.038-13.154 9.216-29.156 20.666-35.784 5.762-3.324 10.986-3.63 14.756-1.434l70.99 41.26z" fill="#DBE6FA" /><path d="M245.280987 445.15511a16.924 29.212 30.2 1 0 29.388437-50.494391 16.924 29.212 30.2 1 0-29.388437 50.494391Z" fill="#EBF2FF" /><path d="M278.062 384.336c-5.074-2.952-12.1-2.532-19.846 1.944-15.398 8.88-27.834 30.432-27.788 48.128 0.02 8.788 3.128 14.97 8.126 17.874l228.4 132.284c-5.008-2.906-8.108-9.088-8.136-17.876-0.048-17.704 12.4-39.246 27.788-48.128 7.754-4.476 14.772-4.896 19.846-1.954L278.06 384.336z" fill="#3D4449" /><path d="M326.144 412.188c-5.064-2.952-12.1-2.532-19.846 1.946-15.388 8.88-27.836 30.43-27.78 48.128 0.02 8.788 3.12 14.968 8.128 17.872l132.216 76.578c-5-2.904-8.1-9.086-8.126-17.874-0.056-17.696 12.39-39.248 27.788-48.128 7.744-4.478 14.772-4.896 19.836-1.954l-132.216-76.568z" fill="#FF6161" /><path d="M486.604 518.554c15.398-8.89 27.928-1.76 27.984 15.936 0.056 17.698-12.4 39.24-27.796 48.128-15.4 8.89-27.928 1.77-27.974-15.936-0.048-17.688 12.4-39.24 27.786-48.128z" fill="#4F575F" /><path d="M573.616 567.668c-3.77-2.188-8.992-1.88-14.754 1.444-11.44 6.618-20.694 22.62-20.648 35.774 0.01 6.536 2.32 11.144 6.032 13.302l-70.99-41.266c-3.724-2.16-6.032-6.76-6.052-13.294-0.036-13.154 9.216-29.156 20.666-35.774 5.764-3.324 10.986-3.632 14.756-1.444l70.99 41.26z" fill="#DBE6FA" /><path d="M544.115258 618.532104a16.924 29.212 30.2 1 0 29.388438-50.494391 16.924 29.212 30.2 1 0-29.388438 50.494391Z" fill="#EBF2FF" /><path d="M571.028 557.27l27.12 15.76c-4.424-2.568-10.334-1.712-16.246 1.704l-27.118-15.76c5.912-3.416 11.824-4.274 16.244-1.704zM488.382 821.78l-27.116-15.752 72.872-220.068 27.108 15.76-72.864 220.06z" fill="#FFDE9B" /><path d="M561.246 601.72l-27.108-15.76c4.104-12.418 12.37-22.21 20.646-26.986l27.118 15.76c-8.286 4.776-16.542 14.568-20.656 26.988z" fill="#FFDE9B" /><path d="M581.902 574.734c8.286-4.784 16.57-4.552 20.732 3.09l73.886 135.336-188.138 108.62 72.864-220.068c4.114-12.41 12.38-22.202 20.656-26.978z" fill="#FFB63C" /><path d="M596.88 580.608l5.52 3.212c-3.696-2.15-8.816-1.852-14.466 1.414l-5.52-3.212c5.64-3.258 10.77-3.564 14.466-1.414zM573.608 633.362l-5.52-3.212c-3.65-2.12-5.912-6.636-5.93-13.05-0.038-12.884 9.03-28.598 20.256-35.078l5.52 3.212c-11.226 6.48-20.294 22.194-20.256 35.078 0.02 6.422 2.28 10.928 5.93 13.05z" fill="#3D4449" /><path d="M587.934 585.234c11.228-6.488 20.36-1.274 20.396 11.61 0.038 12.91-9.04 28.616-20.266 35.094-11.216 6.488-20.35 1.284-20.386-11.626-0.038-12.884 9.03-28.6 20.256-35.078z" fill="#4F575F" /></svg>