<svg xmlns="http://www.w3.org/2000/svg" viewBox="0 0 1024 1024" width="200" height="200"><path d="M512 512m-508 0a508 508 0 1 0 1016 0 508 508 0 1 0-1016 0Z" fill="#6DB8E0" /><path d="M188.4 513.6v25.6c16.8 9.2 35.6 16.4 50.4 28.8 6 5.2 11.6 11.6 18.8 14.8 6 2.8 12.4 3.2 19.2 4.4 26.8 4.4 50.8 18.4 74 32 25.2 14.8 50.4 29.6 76 44.4 12.8 7.6 25.6 14.8 36.8 24.4 8.4 6.8 16.4 15.2 27.2 18 21.6 5.6 41.2-13.2 62-22.4 27.2-12 59.6-6.8 87.2-18 11.2-4.4 21.2-11.6 31.6-17.2 12.4-6.4 26-10.4 40-12 15.6-2 33.2-1.2 44.4-12 4-4 6.8-9.2 10.8-13.2 12.8-12.8 33.2-10.8 50.4-15.6 9.6-2.4 18.4-7.2 26-13.6v-20.8H772v20.8l-223.6-82.4-0.8-0.8c-3.2-3.2-10-7.6-34.8-7.6-32.8 0-85.6 7.2-158 21.6-40.8 8-71.2 15.2-94.4 21.2v-20h-72z m228 122.8c5.2 2.8 10.4 6 15.6 9.2-5.2-3.2-10.4-6-15.6-9.2z m-16.4-9.2c4 2.4 8 4.4 12 6.8-4-2.4-8-4.8-12-6.8z m-18-9.6c4.8 2.4 9.6 5.2 14.4 7.6-4.8-2.8-9.6-5.2-14.4-7.6z m-14.4-7.6c3.6 1.6 6.8 3.6 10.4 5.2-3.6-1.6-7.2-3.6-10.4-5.2z m-17.2-8.8c4 2 8.4 4 12.4 6-4.4-2-8.4-4-12.4-6z m-14-6.4c3.2 1.2 6 2.8 9.2 4.4-3.2-1.6-6.4-2.8-9.2-4.4z m-13.2-5.6c2.4 1.2 4.8 2 7.2 3.2-2.4-1.2-4.8-2.4-7.2-3.2z m-16.4-6.8c2.4 0.8 4.8 2 7.6 3.2-2.8-1.2-5.2-2.4-7.6-3.2z m-11.6-4.8c1.6 0.4 2.8 1.2 4.4 1.6-1.6-0.4-2.8-0.8-4.4-1.6z m-8-2.8h0z m-18.8-6.8c0.4 0 0.8 0.4 1.2 0.4-0.4 0-0.8 0-1.2-0.4z m-8.4-2.8z" fill="#C56C2F" /><path d="M257.6 582.4c6 2.8 12.4 3.2 19.2 4.4 26.8 4.4 50.8 18.4 74 32 25.2 14.8 50.4 29.6 76 44.4 12.8 7.6 25.6 14.8 36.8 24.4 8.4 6.8 16.4 15.2 27.2 18 21.6 5.6 41.2-13.2 62-22.4 27.2-12 59.6-6.8 87.2-18 11.2-4.4 21.2-11.6 31.6-17.2 12.4-6.4 26-10.4 40-12 15.6-2 33.2-1.2 44.4-12 4-4 6.8-9.2 10.8-13.2 12.8-12.8 33.2-10.8 50.4-15.6 9.6-2.4 18.4-7.2 26-13.6v35.6c-0.8 4-3.6 7.6-7.6 8.8l-9.2 2.8-298.8 108.4c-5.2 1.6-10.8 2.4-16 2.4-6 0-11.6-0.8-17.2-2.8-2-0.8-4.4-1.6-6.4-2.4h-0.4l-292.8-156-0.4-0.4c-2.4-1.6-4.8-4.4-5.2-8.4v-31.2c16.8 9.2 35.6 16.4 50.4 28.8 5.2 6 10.8 12 18 15.2z" fill="#EC8C23" /><path d="M822.8 517.2c-105.6 1.6-211.6-8.4-315.2-30.4-26.8-5.6-54-12-81.2-15.6-24-2.8-48.4-3.6-72.8-2.4-51.2 2-102 10.4-151.2 24.8-6 1.6-12.4 4-16.8 8-4.4 4.4-6.8 11.6-3.6 17.2 2 3.2 5.6 5.2 8.8 6.8 69.6 37.6 140.8 72 213.6 102.8 23.6 10 48 20 68.4 36 10.8 8.4 20.8 18.4 33.6 22 13.2 3.6 30-3.6 31.2-16.8 22 8.8 44.4-8.8 65.6-19.2 27.6-13.6 58.8-15.6 89.2-18.8 10.8-1.2 21.6-2.4 31.6-6 23.6-8.8 41.2-30.8 65.6-37.2 11.6-2.8 24-2 34.8-6.8 15.6-6.8 24.8-24 26.4-41.2 0.4-5.6 0.4-11.2-2.8-16-5.6-6.8-16-7.2-25.2-7.2z" fill="#66271D" /><path d="M200.8 490.4c-8 1.2-14.4 8.4-14.8 16.4 0 2 0.4 4 1.6 5.6 4.4 6 15.2 2 20.4 7.2 1.6 1.6 2.4 4 4 5.6 1.6 2 4 3.2 6.4 4.4 24.4 12 48.8 23.6 73.2 35.6 16.8 8.4 33.6 16.4 50.4 24.8 30.4 14.8 38.4 24.8 70.4 35.6 13.2 4.4 36.4 17.6 47.6 26 8.4 6 23.6 16.4 32 22 8.4 6 24.4 2.4 33.2-2.8 4-9.6-6.4-18.8-16.4-22-9.6-3.2-21.6-5.2-26-14.4 9.2-4.8 20.4 0.4 28.4 7.2 8 6.4 15.2 14.8 25.2 17.6 16.8 4.4 32.4-8.4 47.6-16.4 42.8-21.6 98-4.4 140-28 6.8-3.6 13.6-10.4 11.2-17.6-10.8 4-22 8-32.8 12.4 12.4-14.4 31.6-23.2 50.4-22.4 1.2 7.2-1.2 14.4-6.4 19.6 13.2-10.8 28.8-19.2 44.8-24.4 11.2-3.6 35.2-10.4 44.4-17.6 9.2-7.2 12.4-31.6 6.4-41.6-4.4-7.6-23.2 4.8-32 2.8-148.8-35.6-307.2-4.8-456.8-36.8-34.4-7.2-68.4-18-103.2-18.4" fill="#B55C5A" /><path d="M310.4 591.2c-6-3.2-12.8-4.8-18.8-7.6-2.8-1.2-5.6-3.2-8-5.2-4.4 29.2-2.8 58.8 4.8 87.2 7.6-7.6 10-18.8 16-27.6 10.8-16.4 31.2-22 51.2-24.8-10-4.8-22-6.8-31.2-12.8-5.2-2.4-9.2-6.4-14-9.2z" fill="#F6BE17" /><path d="M473.6 566.8C436 525.6 380 502 324.4 504c-4.8 0-10 0.4-14 3.2-4.4 2.8-7.2 8-9.6 12.8-8.4 18.4-14.4 38.4-17.2 58.4 2.4 2 5.2 3.6 8 5.2 6 2.8 13.2 4 18.8 7.6 4.8 2.8 8.8 6.8 13.2 9.6 9.2 6 21.2 8 31.2 12.8l12-1.2c41.6-3.2 83.2-3.6 124.4-2 3.2-16-6.8-31.6-17.6-43.6z" fill="#E0A527" /><path d="M734 614.8c1.2-4.8 0-10 0.8-15.2 1.6-9.6 11.6-18.4 8.4-27.6-6.8-1.2-13.6 0.8-20 2.8l-85.2 26.4c-23.2 7.2-47.2 14.8-65.6 30.4 27.6-2 56 4 83.2-2.4 4.8-1.2 9.6-2.4 14.4-2.8 9.6-0.4 19.2 4.4 24.8 12 5.6 7.6 7.2 18.4 3.6 27.2 10.4-14 20.4-28.4 30.8-42.4 2-2.4 4-5.2 4.8-8.4z" fill="#EFB621" /><path d="M314.8 432c-16-1.2-33.2-2-47.2 6-8.8 4.8-15.6 12.8-25.2 16-6 2-12 1.6-18 2.8-24 4.8-39.2 35.2-28.4 57.2l31.2 4.8c-0.8 6.4 6.4 10.8 12.8 12 6.4 1.6 13.6 2.4 16.8 8 1.6 2.4 1.6 5.6 3.6 8 2.4 3.2 6.8 3.6 10.8 3.6 22.8 1.2 46 2.8 68.8 4-9.2 1.2-10 17.6-0.8 19.6 2.4 0.4 4.8 0 7.2 1.2 2.4 1.2 3.6 4 4.8 6 6.4 12 20 18.4 33.6 20.4 13.6 2 27.2 0 40.8 0.4 2.8 0 6 0 8.8 1.6 2.8 1.6 4.4 4.8 6.4 7.6 9.2 13.2 26 18 41.6 22 20.8 5.6 42 12.8 57.2 28 26.4-13.2 52.4-26.4 78.8-39.6 7.6-3.6 15.2-7.6 23.6-8.4 14.4-1.6 30.8 5.6 42.8-2.4 3.6-2.4 6.8-6 11.2-6.8 5.2-1.2 12.4 2.4 16-2 1.6-2 2-4.4 3.2-6.4 4.8-7.6 17.2-0.8 26-3.2 12.8-3.2 11.6-23.2 21.6-32 6-5.2 14.8-5.2 22.8-6.4 22.8-2.8 44-14.4 58.8-31.6 2.4-2.8 4.8-6.4 5.2-10 1.2-10-10.8-16.4-20.8-18.8-17.6-4.4-35.6-6.8-53.6-9.2l-146.4-19.2c-10.4-1.2-20.4-2.8-30.8-4-28.4-3.6-57.2-7.6-86-10.8-66.4-7.6-132-13.6-197.2-18.4z" fill="#EF412D" /><path d="M196.8 434.4c-13.2 5.2-25.2 14.4-33.6 26 17.2-0.8 34.4 0 51.2 2-9.6 6.8-15.2 19.6-13.2 31.2 4.8 0 9.6 0.4 14.4 0.4 0.8 2.8 2 6 2.8 8.8 8.8-0.8 18-1.2 26.8-2-0.8 6.8 8 10 14.8 9.6 6.8-0.4 14-2.4 19.2 1.6 5.6 4.8 5.2 14.8 11.6 18.4 6.4 3.6 14-2 18.8-7.6 4.8-5.6 10.4-12.4 17.6-11.2 7.2 0.8 11.2 9.6 11.2 16.8 0 7.6-2 14.8-0.4 22s9.6 14 16 10.8c0.4 3.6 0.8 7.2 0.8 10.4 11.6 0.4 23.2 4 34.8 5.6 11.6 1.2 24.8-0.4 32.4-9.2 7.6 8.8 15.2 17.2 22.8 26 8.8 10 16 17.6 26.8 24.8 10.8 7.2 25.6 10 37.6 4.8 4.4-2 8.4-5.2 13.2-7.2 12.8-6 28-2.8 42-2.4 33.2 0.8 65.2-14 92-33.6 12-8.8 23.6-18.8 37.6-24.4 11.2-4.4 24.4-6 36-2.4 4.8 1.6 9.6 4 14.8 4 3.2 0 6.4-1.2 9.2-2.8 14.8-7.2 25.6-22 28-38.4 2.4-16.4-4-33.6-16-44.8-17.2-15.6-42.8-17.6-66-19.6-101.6-9.2-200-37.2-300.8-52.8-31.2-4.8-63.2-8.4-94.8-5.6-36.4 3.2-72.8 27.6-107.6 40.8z" fill="#78913B" /><path d="M731.6 529.6c6.8-9.6 21.2-8.4 32.4-6 0.8-10 14.4-14 23.6-10 2.4 1.2 5.2 2.8 8 1.6 2-0.8 3.2-3.2 4.8-4.8 6-7.2 17.6-6.4 26.8-3.6 9.2 3.2 18 8 27.6 6.8 2-0.4 4-0.8 5.2-2.8 2-2.8 0-6.4-2-9.2-6-8.4-12.4-17.2-18.4-25.6-2.8-4-6-8.4-10-11.2-5.2-3.6-11.2-5.2-17.2-6.8-60.8-14.4-123.6-21.2-186-26-101.2-7.6-202.8-10-304-6.8-17.6 0.4-35.2 1.2-52.4-2.4-18.8-3.6-36.4-12.4-55.2-14-18.8-1.6-41.2 6.8-46.4 25.2 10 6.4 22 10.4 34 11.2 0 4-2.4 7.6-5.6 9.6 13.6-1.2 27.2-1.2 40.8-0.8 3.2 0 7.2 0.8 8.4 3.6 2.4 5.2-6 8.4-11.2 9.6-6 1.6-11.6 6-12.8 12-0.8 6 5.2 12.8 11.2 10.4 2.8-1.2 4.8-4.4 8-5.6 6-2.8 12 2.4 17.2 6.4 4.8 4 12.8 7.2 17.2 2.4-4 9.2 8.8 17.6 18.8 16 10-1.6 18.4-8.4 28.4-10 21.2-3.2 38 20.4 38 42 4 0.4 7.6 0.4 11.6 0.8 3.6 4.8-6.8 12-2.8 16.4 0.8 0.8 2.4 1.2 3.6 1.6 15.2 2.8 31.6-3.2 40.8-15.2 4 15.2 26.4 21.6 38 10.8 1.6 4 2.4 8.4 1.6 12.4 7.6 1.2 13.2 8.8 14.8 16.4 1.6 7.6 0.4 15.6-1.2 23.2 9.2 1.2 18.8 2 28 3.2 7.2-6.4 14.4-12.4 21.6-18.8 2-1.6 4-3.2 6-4.4 8.4-4 18.4 1.6 26.4 6.8 1.2-3.2 2-6.4 3.2-9.6 6.4 2.8 13.2 5.6 20.4 4.4 6.8-0.8 13.6-7.2 12.4-14 10-1.2 16.8-10 24.8-16 19.6-14.4 46.4-9.6 70-4 1.2-4.4 2.8-8.8 4-12.8 7.6-4.8 18-4 25.2 1.6 3.2-8.4 12.8-14.4 22.4-14z" fill="#8BB540" /><path d="M260 360.8v20c23.2-6.4 53.6-13.2 94.4-21.2 72-14.4 125.2-21.6 158-21.6 24.8 0 31.6 4.4 34.8 7.6l0.8 0.8 223.6 82.4V408h71.2v56.8c-0.8 4-3.6 7.6-7.6 8.8l-9.2 2.8c-57.6-18.4-181.6-34-332 90.8-2-0.8-4.4-1.6-6.4-2.4h-0.4c12.8-14.4 2.4-36.8-54.8-71.6-66.8-40.4-124.8-65.2-172-80.4v4.8h-72V360.8H260z" fill="#CD7929" /><path d="M486.8 564.4l-292.8-138.4-0.4-0.4c-3.2-1.6-5.6-5.6-4.8-10.4 0.4-3.2 1.6-8.8 18.8-17.2 52.8 11.6 130.4 37.2 224.4 94.4 57.2 35.2 67.6 57.6 54.8 72z" fill="#BD6828" /><path d="M825.6 476.4l-298.8 91.2c-5.2 1.6-10.8 2.4-16 2.4-6 0-11.6-0.8-17.2-2.8 150.4-125.2 274.4-109.6 332-90.8z" fill="#EC8C23" /><path d="M510.8 515.6c5.6 0 10.8-0.8 16-2.4l308-94c4.8-1.6 7.6-5.6 8-10.4 0-4.8-2.8-9.2-7.2-10.8l-288-106.4-0.8-0.8c-2.8-2.8-9.6-6.8-34.8-6.8-32.8 0-85.6 7.2-158 21.6-161.6 32-164.4 48.8-165.6 56-0.8 4.8 2 8.8 4.8 10.4l0.4 0.4 293.2 138.8c7.6 2.8 16 4.4 24 4.4z" fill="#CD7929" /><path d="M638.8 332.8l194.4 71.6c4 1.6 4 7.2-0.4 8.8l-308 94c-7.6 2.4-15.6 2.8-23.6 1.2 202-47.6 183.6-123.2 137.6-175.6z" fill="#F0D9AD" /><path d="M355.6 312c188.8-37.2 187.6-14.4 187.6-14.4l95.6 35.2c46.4 52.4 64.4 128-137.2 175.6-4-0.8-8-2-11.6-3.6L196.8 366S166.8 349.2 355.6 312z" fill="#F4E7BD" /><path d="M318.4 356.4a29.2 14.4 0 1 0 58.4 0 29.2 14.4 0 1 0-58.4 0Z" fill="#F0D9AD" /><path d="M493.6 356.4a22.4 8 0 1 0 44.8 0 22.4 8 0 1 0-44.8 0Z" fill="#F0D9AD" /><path d="M440.8 420a11.6 4.4 0 1 0 23.2 0 11.6 4.4 0 1 0-23.2 0Z" fill="#F0D9AD" /></svg>