<svg xmlns="http://www.w3.org/2000/svg" viewBox="0 0 1024 1024" width="200" height="200"><path d="M146.304 768.128v-512c0-2.56 0.426667-4.693333 0.853333-7.253333 0.426667-2.56 0.853333-4.693333 2.133334-6.826667 0.853333-2.133333 1.706667-4.266667 2.986666-6.4 1.706667-2.133333 2.986667-3.84 4.693334-5.546667 1.706667-1.706667 3.413333-2.986667 5.546666-4.693333 2.133333-1.28 4.266667-2.133333 6.4-2.986667 2.133333-1.28 4.266667-1.706667 6.826667-2.133333 2.56-0.426667 4.693333-0.853333 7.253333-0.853333h658.346667c2.133333 0 4.693333 0.426667 6.826667 0.853333 2.56 0.426667 4.693333 0.853333 6.826666 2.133333 2.56 0.853333 4.693333 1.706667 6.4 2.986667 2.133333 1.706667 3.84 2.986667 5.546667 4.693333 1.706667 1.706667 3.413333 3.413333 4.693333 5.546667s2.56 4.266667 3.413334 6.4c0.853333 2.133333 1.706667 4.266667 2.133333 6.826667 0.426667 2.56 0.426667 4.693333 0.426667 7.253333v512c0 2.133333 0 4.693333-0.426667 6.826667-0.426667 2.56-1.28 4.693333-2.133333 7.253333-0.853333 2.133333-2.133333 4.266667-3.413334 5.973333-1.28 2.133333-2.986667 3.84-4.693333 5.546667-1.706667 1.706667-3.413333 3.413333-5.546667 4.693333a22.613333 22.613333 0 0 1-6.4 3.413334c-2.133333 0.853333-4.266667 1.706667-6.826666 2.133333-2.133333 0.426667-4.693333 0.426667-6.826667 0.426667H182.997333c-2.56 0-4.693333 0-7.253333-0.426667a32 32 0 0 1-6.826667-2.133333c-2.133333-0.853333-4.266667-2.133333-6.4-3.413334-2.133333-1.28-3.84-2.986667-5.546666-4.693333-1.706667-1.706667-2.986667-3.413333-4.693334-5.546667-1.28-1.706667-2.133333-3.84-2.986666-5.973333a23.424 23.424 0 0 1-2.133334-7.253333 37.333333 37.333333 0 0 1-0.853333-6.826667z m72.96-475.733333v439.04h585.386667V292.394667zM713.344 393.002667c0-1.706667-0.426667-3.413333-0.853333-5.12 0-1.706667-0.853333-3.413333-1.28-5.12a46.506667 46.506667 0 0 0-2.56-4.693334c-1.28-1.706667-2.133333-2.986667-3.413334-4.266666a16.725333 16.725333 0 0 0-4.266666-3.413334c-1.706667-1.28-2.986667-1.706667-4.693334-2.56a24.064 24.064 0 0 0-5.12-1.706666c-1.706667-0.426667-3.413333-0.426667-5.546666-0.426667a24.064 24.064 0 0 0-10.24 2.133333c-1.706667 0.853333-3.413333 1.28-4.693334 2.56-1.706667 0.853333-2.986667 2.133333-4.266666 3.413334s-2.56 2.56-3.413334 4.266666c-1.28 1.28-1.706667 2.986667-2.56 4.693334-0.853333 1.706667-1.28 3.413333-1.706666 5.12-0.426667 1.706667-0.426667 3.413333-0.426667 5.12v36.693333a24.064 24.064 0 0 0 2.133333 10.666667c0.853333 1.706667 1.28 2.986667 2.56 4.693333 0.853333 1.28 2.133333 2.56 3.413334 3.84s2.56 2.56 4.266666 3.413333c1.28 1.28 2.986667 2.133333 4.693334 2.56 1.706667 0.853333 3.413333 1.28 5.12 1.706667 1.706667 0.426667 3.413333 0.426667 5.12 0.426667 2.133333 0 3.84 0 5.546666-0.426667 1.706667-0.426667 3.413333-0.853333 5.12-1.706667a12.8 12.8 0 0 0 4.693334-2.56c1.706667-0.853333 2.986667-2.133333 4.266666-3.413333s2.133333-2.56 3.413334-3.84c0.853333-1.706667 1.706667-2.986667 2.56-4.693333 0.426667-1.706667 1.28-3.413333 1.28-5.12 0.426667-2.133333 0.853333-3.84 0.853333-5.546667v-36.693333zM713.344 502.741333c0-1.706667-0.426667-3.413333-0.853333-5.12 0-1.706667-0.853333-3.413333-1.28-5.12a46.506667 46.506667 0 0 0-2.56-4.693333c-1.28-1.706667-2.133333-2.986667-3.413334-4.266667a16.725333 16.725333 0 0 0-4.266666-3.413333c-1.706667-1.28-2.986667-1.706667-4.693334-2.56a24.064 24.064 0 0 0-5.12-1.706667c-1.706667-0.426667-3.413333-0.426667-5.546666-0.426666a24.064 24.064 0 0 0-10.24 2.133333c-1.706667 0.853333-3.413333 1.28-4.693334 2.56-1.706667 0.853333-2.986667 2.133333-4.266666 3.413333s-2.56 2.56-3.413334 4.266667c-1.28 1.28-1.706667 2.986667-2.56 4.693333-0.853333 1.706667-1.28 3.413333-1.706666 5.12-0.426667 1.706667-0.426667 3.413333-0.426667 5.12v36.693334a24.064 24.064 0 0 0 2.133333 10.666666c0.853333 1.706667 1.28 2.986667 2.56 4.693334 0.853333 1.28 2.133333 2.56 3.413334 3.84s2.56 2.56 4.266666 3.413333c1.28 1.28 2.986667 2.133333 4.693334 2.56 1.706667 0.853333 3.413333 1.28 5.12 1.706667 1.706667 0.426667 3.413333 0.426667 5.12 0.426666 2.133333 0 3.84 0 5.546666-0.426666 1.706667-0.426667 3.413333-0.853333 5.12-1.706667a12.8 12.8 0 0 0 4.693334-2.56c1.706667-0.853333 2.986667-2.133333 4.266666-3.413333s2.133333-2.56 3.413334-3.84c0.853333-1.706667 1.706667-2.986667 2.56-4.693334 0.426667-1.706667 1.28-3.413333 1.28-5.12 0.426667-2.133333 0.853333-3.84 0.853333-5.546666v-36.693334zM713.344 612.437333c0-1.706667-0.426667-3.413333-0.853333-5.12 0-1.706667-0.853333-3.413333-1.28-5.12a46.506667 46.506667 0 0 0-2.56-4.693333c-1.28-1.706667-2.133333-2.986667-3.413334-4.266667a16.725333 16.725333 0 0 0-4.266666-3.413333c-1.706667-1.28-2.986667-1.706667-4.693334-2.56a24.064 24.064 0 0 0-5.12-1.706667c-1.706667-0.426667-3.413333-0.426667-5.546666-0.426666-1.706667 0-3.413333 0-5.12 0.426666-1.706667 0.426667-3.413333 0.853333-5.12 1.706667-1.706667 0.853333-3.413333 1.28-4.693334 2.56-1.706667 0.853333-2.986667 2.133333-4.266666 3.413333s-2.56 2.56-3.413334 4.266667c-1.28 1.28-1.706667 2.986667-2.56 4.693333-0.853333 1.706667-1.28 3.413333-1.706666 5.12-0.426667 1.706667-0.426667 3.413333-0.426667 5.12v36.693334a24.064 24.064 0 0 0 2.133333 10.666666c0.853333 1.706667 1.28 2.986667 2.56 4.693334 0.853333 1.28 2.133333 2.56 3.413334 3.84s2.56 2.56 4.266666 3.413333c1.28 1.28 2.986667 2.133333 4.693334 2.56 1.706667 0.853333 3.413333 1.28 5.12 1.706667 1.706667 0.426667 3.413333 0.426667 5.12 0.426666 2.133333 0 3.84 0 5.546666-0.426666 1.706667-0.426667 3.413333-0.853333 5.12-1.706667a12.8 12.8 0 0 0 4.693334-2.56c1.706667-0.853333 2.986667-2.133333 4.266666-3.413333s2.133333-2.56 3.413334-3.84c0.853333-1.706667 1.706667-2.986667 2.56-4.693334 0.426667-1.706667 1.28-3.413333 1.28-5.12 0.426667-2.133333 0.853333-3.84 0.853333-5.546666v-36.693334zM468.650667 373.802667c12.373333 5.12 23.04 11.946667 32 21.333333 9.386667 9.386667 16.64 20.053333 21.76 32 5.12 12.373333 7.68 25.6 7.68 39.253333 0 13.653333-2.56 26.453333-7.68 38.826667-5.12 12.373333-12.373333 23.04-21.76 32-8.96 9.386667-19.626667 16.64-32 21.76s-25.173333 7.68-38.826667 7.68c-13.653333 0-26.88-2.56-39.253333-7.68-11.946667-5.12-22.613333-12.373333-32-21.76-9.386667-8.96-16.213333-19.626667-21.333334-32-5.546667-12.373333-8.106667-25.173333-8.106666-38.826667 0-13.653333 2.56-26.88 8.106666-39.253333 5.12-11.946667 11.946667-22.613333 21.333334-32 9.386667-9.386667 20.053333-16.213333 32-21.333333 12.373333-5.546667 25.6-8.106667 39.253333-8.106667 13.653333 0 26.453333 2.56 38.826667 8.106667z m-84.48 92.586666c0 12.373333 4.266667 23.04 13.226666 32 8.96 8.96 19.626667 13.653333 32.426667 13.653334 12.373333 0 23.04-4.693333 32-13.653334 8.96-8.96 13.653333-19.626667 13.653333-32 0-12.8-4.693333-23.466667-13.653333-32.426666a43.52 43.52 0 0 0-32-13.226667c-12.8 0-23.466667 4.266667-32.426667 13.226667-8.96 8.96-13.226667 19.626667-13.226666 32.426666zM511.872 658.090667c0 2.133333 0.426667 3.84 0.853333 5.546666 0 1.706667 0.853333 3.413333 1.28 5.12 0.853333 1.706667 1.706667 3.413333 2.56 4.693334 0.853333 1.706667 2.133333 2.986667 3.413334 4.266666s2.56 2.56 4.266666 3.413334c1.28 0.853333 2.986667 1.706667 4.693334 2.56 1.706667 0.426667 3.413333 1.28 5.12 1.28 1.706667 0.426667 3.413333 0.853333 5.546666 0.853333 1.706667 0 3.413333-0.426667 5.12-0.853333 1.706667 0 3.413333-0.853333 5.12-1.28 1.706667-0.853333 3.413333-1.706667 4.693334-2.56 1.706667-0.853333 2.986667-2.133333 4.266666-3.413334s2.56-2.56 3.413334-4.266666c0.853333-1.28 1.706667-2.986667 2.56-4.693334 0.853333-1.706667 1.28-3.413333 1.706666-5.12 0-1.706667 0.426667-3.413333 0.426667-5.546666 0-18.346667-3.84-36.266667-10.666667-53.333334-7.253333-16.213333-17.066667-30.72-29.44-43.52a135.424 135.424 0 0 0-97.28-40.106666 135.253333 135.253333 0 0 0-96.853333 40.106666 135.424 135.424 0 0 0-40.106667 96.853334 22.528 22.528 0 0 0 2.133334 10.666666c0.853333 1.706667 1.28 3.413333 2.56 4.693334 0.853333 1.706667 2.133333 2.986667 3.413333 4.266666s2.56 2.56 4.266667 3.413334c1.28 0.853333 2.986667 1.706667 4.693333 2.56 1.706667 0.426667 3.413333 1.28 5.12 1.28 1.706667 0.426667 3.413333 0.853333 5.12 0.853333 3.84 0 7.253333-0.853333 10.666667-2.133333 3.413333-1.28 6.4-3.413333 8.96-5.973334 2.56-2.56 4.266667-5.546667 5.973333-8.96 1.28-3.413333 2.133333-6.826667 2.133333-10.666666 0-11.093333 2.133333-21.76 6.4-32 3.84-9.813333 9.813333-18.346667 17.493334-26.026667 7.68-7.68 16.213333-13.653333 26.026666-17.493333 10.24-4.266667 20.906667-6.4 32-6.4 11.52 0 22.186667 2.133333 32.426667 6.4 9.813333 3.84 18.346667 9.813333 26.026667 17.493333a82.218667 82.218667 0 0 1 23.893333 58.026667z" fill="#000000" /></svg>