<svg xmlns="http://www.w3.org/2000/svg" viewBox="0 0 1024 1024" width="200" height="200"><path d="M562.498024 646.625562v94.075607H134.185291v-94.075607h327.957637z" fill="#F95428" /><path d="M615.238357 740.701169v44.474507c0 49.810997-40.3933 90.204297-90.204297 90.204297H171.648231c-49.810997 0-90.204297-40.3933-90.204297-90.204297v-44.474507h533.794423zM615.238357 602.152079v44.474507H81.444958v-44.474507c0-49.810997 40.3933-90.204297 90.204297-90.204297H524.931672c49.91441 0 90.306686 40.3933 90.306685 90.204297z" fill="#9AD14B" /><path d="M347.138081 283.19337h428.207272v94.075608H347.138081z" fill="#B27214" /><path d="M828.08671 238.719887v44.474507h-533.689986v-44.474507c0-49.810997 40.3933-90.204297 90.204297-90.204297h353.385828c49.706561 0 90.099861 40.3933 90.099861 90.204297zM828.08671 377.270002v44.474507c0 49.810997-40.3933 90.204297-90.204297 90.204297h-353.281392c-49.810997 0-90.204297-40.3933-90.204297-90.204297v-44.474507h533.689986z" fill="#E56AB4" /><path d="M890.350201 646.625562v94.075607H562.498024v-94.075607h52.740333z" fill="#F7B239" /><path d="M943.091558 740.701169v44.474507c0 49.810997-40.3933 90.204297-90.204297 90.204297H525.035084c19.987265 0 38.509351-6.488361 53.473435-17.580111 22.28896-16.429264 36.730862-42.904891 36.730862-72.624186v-44.474507h327.852177zM943.091558 602.152079v44.474507H615.238357v-44.474507c0-29.823732-14.440879-56.193898-36.730862-72.623162-14.964084-10.987313-33.48617-17.580111-53.473435-17.580111h327.853201c49.810997-0.001024 90.204297 40.392276 90.204297 90.203273z" fill="#2BA5F7" /><path d="M279.223767 875.379973H171.648231c-49.810997 0-90.204297-40.3933-90.204297-90.204297v-44.474507h107.575536v44.474507c0.104436 49.915433 40.3933 90.204297 90.204297 90.204297zM279.223767 511.947782c-49.810997 0-90.204297 40.3933-90.204297 90.204297v44.474507H81.444958v-44.474507c0-49.810997 40.3933-90.204297 90.204297-90.204297h107.574512z" fill="#90BC42" /><path d="M139.312909 647.986306h83.715936v95.645223H139.312909z" fill="#E54728" /><path d="M492.176556 511.947782H384.601021c-49.810997 0-90.204297-40.3933-90.204297-90.204297v-44.474507h107.575535v44.474507c0 49.810997 40.3933 90.204297 90.204297 90.204297zM492.176556 148.51559c-49.810997 0-90.204297 40.3933-90.204297 90.204297v44.474507H294.396724v-44.474507c0-49.810997 40.3933-90.204297 90.204297-90.204297h107.575535z" fill="#BC3987" /><path d="M352.161262 284.554114h83.715936v95.645224h-83.715936z" fill="#995C0D" /><path d="M739.55749 875.379973H631.981954c-19.987265 0-38.509351-6.488361-53.473435-17.580111 22.28896-16.429264 36.730862-42.904891 36.730862-72.624186v-41.544147h-53.892204v-2.93036h88.111476v44.474507c-0.10546 49.915433 40.28784 90.204297 90.098837 90.204297zM739.55749 511.947782c-49.810997 0-90.204297 40.3933-90.204298 90.204297v44.474507h-34.113811v-44.474507c0-29.823732-14.440879-56.193898-36.730862-72.623162 14.964084-11.092774 33.48617-17.580111 53.473435-17.580111h107.575536v-0.001024z" fill="#2197D8" /><path d="M566.056026 647.986306h78.902651v95.645223h-78.902651z" fill="#E09B2D" /><path d="M737.882413 474.903611c-9.940903 0-17.894444-8.057978-17.894444-17.894444 0-9.940903 8.057978-17.894444 17.894444-17.894444 9.523157 0 17.266802-7.743645 17.266802-17.266802 0-9.940903 8.057978-17.894444 17.894444-17.894444 9.940903 0 17.894444 8.057978 17.894444 17.894444 0.104436 29.19609-23.755163 53.05569-53.05569 53.05569zM773.148095 256.614331c-9.940903 0-17.894444-8.057978-17.894443-17.894444 0-9.523157-7.743645-17.266802-17.266803-17.266802-9.940903 0-17.894444-8.057978-17.894443-17.894444 0-9.940903 8.057978-17.894444 17.894443-17.894443 29.300526 0 53.160126 23.858576 53.160127 53.160126-0.104436 9.836466-8.162414 17.790008-17.998881 17.790007zM725.953125 355.294351c-9.940903 0-17.894444-8.057978-17.894444-17.894444v-14.336442c0-9.940903 8.057978-17.894444 17.894444-17.894444 9.940903 0 17.894444 8.057978 17.894444 17.894444v14.336442c0 9.940903-8.057978 17.894444-17.894444 17.894444z" fill="#FFFFFF" /><path d="M859.898827 838.335802c-9.940903 0-17.894444-8.057978-17.894443-17.894443 0-9.940903 8.057978-17.894444 17.894443-17.894444 9.523157 0 17.266802-7.743645 17.266802-17.266802 0-9.940903 8.057978-17.894444 17.894444-17.894444 9.940903 0 17.894444 8.057978 17.894444 17.894444-0.001024 29.19609-23.755163 53.05569-53.05569 53.055689zM895.059049 620.045499c-9.940903 0-17.894444-8.057978-17.894443-17.894444 0-9.523157-7.743645-17.266802-17.266803-17.266802-9.940903 0-17.894444-8.057978-17.894443-17.894444 0-9.940903 8.057978-17.894444 17.894443-17.894444 29.300526 0 53.160126 23.858576 53.160127 53.159102a17.953829 17.953829 0 0 1-17.998881 17.791032zM847.865103 718.830979c-9.940903 0-17.894444-8.057978-17.894444-17.894444V686.600093c0-9.940903 8.057978-17.894444 17.894444-17.894444 9.940903 0 17.894444 8.057978 17.894444 17.894444v14.336442c-0.001024 9.836466-7.953541 17.894444-17.894444 17.894444z" fill="#FFFFFF" /><path d="M517.919081 838.335802c-9.940903 0-17.894444-8.057978-17.894444-17.894443 0-9.940903 8.057978-17.894444 17.894444-17.894444 9.523157 0 17.266802-7.743645 17.266802-17.266802 0-9.940903 8.057978-17.894444 17.894444-17.894444 9.940903 0 17.894444 8.057978 17.894444 17.894444 0.103412 29.19609-23.755163 53.05569-53.05569 53.055689zM553.184763 620.045499c-9.940903 0-17.894444-8.057978-17.894444-17.894444 0-9.523157-7.743645-17.266802-17.266802-17.266802-9.940903 0-17.894444-8.057978-17.894443-17.894444 0-9.940903 8.057978-17.894444 17.894443-17.894444 29.300526 0 53.160126 23.858576 53.160126 53.159102-0.10546 9.838514-8.162414 17.791031-17.99888 17.791032zM505.884333 718.830979c-9.940903 0-17.894444-8.057978-17.894444-17.894444V686.600093c0-9.940903 8.057978-17.894444 17.894444-17.894444s17.894444 8.057978 17.894444 17.894444v14.336442c0.104436 9.836466-7.952517 17.894444-17.894444 17.894444z" fill="#FFFFFF" /><path d="M943.091558 664.624442c9.940903 0 17.894444-8.057978 17.894444-17.894444v-44.474507c0-59.647463-48.555714-108.098741-108.098741-108.098741h-34.637017c17.266802-19.149727 27.73091-44.474507 27.73091-72.309853v-44.474507c0-9.940903-8.057978-17.894444-17.894444-17.894444h-34.846913v-58.182283h34.846913c9.940903 0 17.894444-8.057978 17.894444-17.894444V238.926712c0-59.647463-48.555714-108.098741-108.098741-108.098741h-353.281392c-59.647463 0-108.098741 48.555714-108.098741 108.098741v44.474507c0 9.940903 8.057978 17.894444 17.894444 17.894444h34.846913v58.182283h-34.846913c-9.940903 0-17.894444 8.057978-17.894444 17.894444v44.474507c0 27.73091 10.569568 53.160126 27.73091 72.309853H171.648231c-59.647463 0-108.098741 48.555714-108.098741 108.098741v44.369047c0 9.940903 8.057978 17.894444 17.894444 17.894444h34.846913v58.182283H81.444958c-9.940903 0-17.894444 8.057978-17.894444 17.894444v44.474507C63.550514 844.718704 112.105204 893.168957 171.648231 893.168957h681.23903c59.647463 0 108.098741-48.555714 108.098741-108.098741v-44.474507c0-9.940903-8.057978-17.894444-17.894444-17.894444h-34.846913v-58.182283h34.846913v0.10546z m-17.894444-62.472363v26.580063H633.132801v-26.580063c0-27.73091-10.569568-53.054666-27.73091-72.309853h247.48537c39.870095 0.104436 72.309853 32.439759 72.309853 72.309853zM312.291167 238.719887c0-39.870095 32.439759-72.309853 72.309854-72.309853h353.281392c39.870095 0 72.309853 32.439759 72.309853 72.309853v26.580063H312.291167v-26.580063z m52.741357 62.472363h392.313949v58.182284H365.032524v-58.182284z m-52.741357 120.551235v-26.580063h497.901099v26.580063c0 39.870095-32.439759 72.309853-72.309853 72.309853h-353.281392c-39.869071 0-72.309853-32.439759-72.309854-72.309853z m-212.847329 180.408594c0-39.870095 32.439759-72.309853 72.309854-72.309853H525.036108c39.870095 0 72.309853 32.439759 72.309853 72.309853v26.580063h-498.007583v-26.580063h0.10546z m52.740333 62.472363h392.419409v58.182284H152.184171v-58.182284z m347.317261 192.861088H171.648231c-39.870095 0-72.309853-32.439759-72.309853-72.309854v-26.580063H597.240501v26.580063c0 39.870095-32.439759 72.309853-72.309853 72.309854h-25.429216z m425.695682-72.309854c0 39.870095-32.439759 72.309853-72.309853 72.309854H605.401891c17.266802-19.149727 27.73091-44.474507 27.73091-72.309854v-26.580063H925.197114v26.580063z m-52.845793-62.367926H580.392468v-58.182284h292.063289l-0.104436 58.182284z" fill="#333333" /></svg>