<svg xmlns="http://www.w3.org/2000/svg" viewBox="0 0 1024 1024" width="200" height="200"><path d="M0 0h1024v1024H0z" fill="#21303A" /><path d="M289.49 637.44s26.67-97.67 44.72-133.68c0 0 43.28-24.78 41.42-25.42s11.65 49.55 13.94 59.55c4.36 19.11 9.11 37.93 14.89 63.89 2.08 9.34 34.55 108.73 35.42 108.44 7.06-2.36 67.54-215.4 67.54-215.4 1.88 14.59 30.12 103.55 30.12 103.55 14.6-12.71 31.78-208.69 31.78-208.69 29.65 25.89 138.44 217.87 138.44 217.87 38.53-64 53.83-157.92 53.83-157.92 37.2 45.81 29.5 284.1 29.5 284.1l60.92-184.08c1.75-4.86 26.65 118.75 28 118.62 7.06-0.71 18.26-99.79 18.36-108.73 0.39-34.68 6.2-42.26 6.2-42.26 34.51 15.69 53.1 18.25 53.1 18.25-19.77-5.65-83.31-187.8-83.31-187.8-19.24-41.32-52.89-82.26-81.9-100.73l82.08-12c-4.68-3.9-122.14-26.41-128-30.13-48.17-30.41-128.43-47.08-128.43-47.08-35.46-9.73-99.79 0.94-99.79 0.94-156.26-34.52-294.33 48.95-294.33 48.95 40.79-9.41 101-3.77 101-3.77-14.44 0-84.73 59-84.73 59-29.45 14.43-169.4 165.68-169.4 165.68 0-11.3 119.24-59.62 119.24-59.62-8.79 6.27-32.87 74.37-32.87 74.37-47.07 172-13.42 249.93-13.42 249.93 11-32.44 40.48-86.18 40.48-86.18s52.25 180.73 67.7 199c7.38-4.62 37.5-168.65 37.5-168.65z" fill="#AA6676" /><path d="M251.89 806.77l-0.29-0.34c-14.86-17.57-62.5-180.92-67.45-198-4.25 7.81-29.9 55.53-39.85 85l-0.43 1.26-0.53-1.22c-0.08-0.2-8.48-20.05-11-60.65-2.31-37.44 0-100.72 24.37-189.63 0.94-2.64 21.46-60.47 31.27-72.83-29 11.81-91.24 38.53-110.7 52l-6.07 6.52-0.89 1v-1.29c0-1.57 2.13-3.79 5.83-6.46 26.57-28.48 138.07-147 163.91-159.68 2.58-2.19 61.68-51.67 81.35-58.31-13.53-1-62.74-3.94-97.33 4l-3.13 0.72 2.75-1.66c0.35-0.21 35.19-21.09 88.69-37.47 49.35-15.12 125.13-29.39 205.93-11.57 2.89-0.46 65.39-10.38 99.91-0.91 0.77 0.16 80.86 17 128.56 47.15 2.74 1.73 32.12 8 60.53 14.12 39.27 8.42 65.19 14.08 67.55 16l0.88 0.74-81.86 12c29.09 19 62.22 60 80.94 100.2 0.65 1.87 63.69 182 83 187.53l-0.21 1c-0.18 0-18.9-2.73-52.84-18.11-1 1.82-5.54 11.44-5.88 41.61-0.06 5.39-10.68 108.42-18.82 109.24-0.79 0.1-1 0.13-11.06-46-6.15-28.29-14.45-66.45-16.78-72.15l-61.78 186.68 0.12-3.55c0.07-2.36 7.18-235.56-28.68-282.85-1.91 10.94-17.85 97.41-53.7 156.95l-0.46 0.75-0.43-0.76c-1.08-1.9-107.27-189-137.57-217-1.51 16.95-17.67 195.65-31.86 208l-0.59 0.51-0.24-0.75c-0.27-0.85-25.92-81.74-29.76-101.38-8.55 30.07-60.33 211.26-67.25 213.56l-0.22 0.08-0.21-0.12c-1.75-1-34.15-102-35.65-108.77-3.42-15.35-6.41-27.93-9.31-40.11-2-8.21-3.8-16-5.58-23.78-0.66-2.9-2.28-9.23-4.16-16.57-6.87-26.85-9.53-38-9.88-41.8-3.88 3.11-17.43 11.32-40.43 24.5-17.73 35.49-44.09 131.53-44.61 133.42-1.29 7-30.25 164.29-37.73 169z m-67.45-201l0.35 1.19c0.51 1.8 51.65 178.28 67.26 198.41 6.38-7.63 28.72-123.27 36.94-168 0.26-1 26.89-98.13 44.75-133.77l0.07-0.14 0.13-0.07c15.46-8.86 38.53-22.42 41.06-24.84a0.79 0.79 0 0 1 0.18-0.5l0.22-0.21 0.38 0.09a0.59 0.59 0 0 1 0.41 0.5c0 0.1-0.08 0.24-0.25 0.43-0.13 3 6.16 27.55 10 42.39 1.87 7.34 3.5 13.68 4.16 16.59 1.78 7.81 3.63 15.56 5.58 23.78 2.9 12.17 5.89 24.76 9.31 40.12 1.87 8.4 31.91 100.6 35.08 107.81 6.21-6.65 43.12-131.1 66.89-214.8l0.68-2.41 0.32 2.48c1.76 13.64 27 93.63 29.84 102.64 14.16-16.92 30.87-205.82 31-207.76l0.08-1 0.76 0.66c28.44 24.82 130.57 204 138.12 217.24 37.71-63.16 53.16-156 53.31-157l0.19-1.13 0.72 0.89c34.43 42.4 30.45 251.28 29.71 281l59.83-180.87a0.65 0.65 0 0 1 0.66-0.49c1.51 0.1 5 14.53 17.85 73.53 4.72 21.72 9.19 42.29 10.25 45.13 6.25-3.55 17.48-97.78 17.59-108.13 0.39-34.45 6.07-42.25 6.31-42.56l0.25-0.32 0.37 0.16c26.45 12 43.66 16.34 50.11 17.68-22.09-18.22-78.52-179.45-81-186.59-18.88-40.53-52.47-81.86-81.69-100.47l-1.17-0.74 81.79-12c-7.15-2.62-38.1-9.25-65.71-15.17-29.81-6.39-58-12.42-60.86-14.25-47.54-30-127.45-46.86-128.25-47-35-9.59-99 0.84-99.6 0.94h-0.19c-80.61-17.81-156.23-3.57-205.49 11.51-44.64 13.67-76.26 30.48-85.61 35.73 40.3-8.33 97.37-3.12 98-3.07l-0.05 1c-14.08 0-83.69 58.28-84.39 58.87-24.9 12.19-129.57 123-160.67 156.26 27.65-17.62 105.87-49.39 109.89-51.02l4-1.63-3.53 2.53c-8.56 6.11-32.45 73.44-32.69 74.12-24.27 88.69-26.63 151.83-24.33 189.17 2.13 34.67 8.55 54.12 10.4 59.1 11.19-32.24 39.77-84.4 40.06-84.93z" fill="#56343C" /><path d="M375.12 478.42c-0.62-3.94-15-96.74-11.28-108l1 0.33c-3.68 11.05 11.16 106.58 11.31 107.54z" fill="#56343C" /><path d="M334.21 503.76s22.28-42.87 25.46-62.6" fill="#7E4A55" /><path d="M334.67 504l-0.91-0.48c0.22-0.42 22.28-43 25.37-62.44l1 0.16c-3.11 19.65-25.25 62.33-25.46 62.76z" fill="#56343C" /><path d="M523.58 393.15s-6.75 74.37-16.16 101.67" fill="#7E4A55" /><path d="M507.91 494.98l-1-0.33c9.28-26.93 16.06-100.81 16.12-101.55l1 0.09c-0.01 0.75-6.8 74.75-16.12 101.79z" fill="#56343C" /><path d="M197.94 539.89s-6.59 17-13.65 67.2" fill="#7E4A55" /><path d="M184.8 607.17l-1-0.15c7-49.71 13.62-67.15 13.68-67.32l1 0.37c-0.13 0.17-6.71 17.54-13.68 67.1z" fill="#56343C" /><path d="M751.67 346.08s19.77 76.72 9.88 103.55" fill="#7E4A55" /><path d="M762.07 449.81l-1-0.36c9.72-26.37-9.7-102.48-9.9-103.24l1-0.26c0.84 3.14 19.73 77.19 9.9 103.86z" fill="#56343C" /><path d="M816.82 499.89s29.21 28.84 35.19 49.81" fill="#7E4A55" /><path d="M851.52 549.79c-5.87-20.6-34.77-49.3-35.06-49.59l0.72-0.73c0.29 0.29 29.38 29.18 35.32 50z" fill="#56343C" /><path d="M530.67 174.89a48.77 48.77 0 0 0-12.32-16.18" fill="#7E4A55" /><path d="M530.17 175.11a48.82 48.82 0 0 0-12.18-16l0.67-0.79a49.81 49.81 0 0 1 12.45 16.37z" fill="#56343C" /><path d="M602.22 272.65s101.95 183.24 101.95 227.24" fill="#7E4A55" /><path d="M704.67 499.89h-1c0-43.35-100.88-225.16-101.9-227l0.9-0.5c1 1.85 102 183.89 102 227.5z" fill="#56343C" /><path d="M309.73 370.56s-80.06 125.33-84.72 225.52" fill="#7E4A55" /><path d="M225.52 596.11l-1-0.05c4.66-99.18 84-224.53 84.81-225.78l0.86 0.55c-0.83 1.25-80.02 126.37-84.67 225.28z" fill="#56343C" /><path d="M537.54 234.06s-59.3-28.25-153.87-35.31" fill="#7E4A55" /><path d="M537.32 234.52c-0.59-0.28-60.31-28.28-153.73-35.25l0.08-1c93.62 7 153.5 35.07 154.09 35.35z" fill="#56343C" /><path d="M845.38 424.45s49.42 72.25 40.95 125.2" fill="#7E4A55" /><path d="M886.83 549.73l-1-0.16c8.34-52.15-40.38-124.11-40.87-124.83l0.85-0.58c0.48 0.73 49.43 73.03 41.02 125.57z" fill="#56343C" /><path d="M418.93 297.6s35.3 182.39 28.24 242.29" fill="#7E4A55" /><path d="M447.67 539.95l-1-0.12c7-59.14-27.88-240.31-28.23-242.13l1-0.2c0.35 1.83 35.23 183.16 28.23 242.45z" fill="#56343C" /><path d="M191.12 337.14s87.75-52.53 172.61-58.74" fill="#7E4A55" /><path d="M191.38 337.58l-0.52-0.88c0.87-0.53 88.81-52.66 172.81-58.81l0.08 1c-83.75 6.15-171.49 58.16-172.37 58.69z" fill="#56343C" /><path d="M663.22 228.41s137 55.07 194.86 129.91" fill="#7E4A55" /><path d="M857.67 358.63c-57.14-73.87-193.27-129.2-194.64-129.74l0.38-1c1.37 0.55 137.76 56 195.08 130.07z" fill="#56343C" /></svg>