<svg xmlns="http://www.w3.org/2000/svg" viewBox="0 0 1024 1024" width="200" height="200"><path d="M930.005333 1002.005333H91.989333c-5.973333 0-11.989333-5.994667-11.989333-12.010666V504c0-5.994667 5.994667-12.010667 12.010667-12.010667 3.989333 0 0-43.989333 1.984-40l492.010666-49.984 24 9.984 323.989334 54.016c2.005333-4.010667-9.984 25.984-3.989334 25.984s11.989333 6.016 11.989334 12.010667v485.994667c0 6.016-5.994667 12.010667-11.989334 12.010666z" fill="#C48D66" /><path d="M941.994667 716.010667v153.984h-181.994667c-5.994667 0-12.010667-3.989333-12.010667-11.989334v-130.005333c0-8 6.016-12.010667 12.010667-12.010667h181.994667z" fill="#C48D66" /><path d="M941.994667 716.010667v153.984h-181.994667c-5.994667 0-12.010667-3.989333-12.010667-11.989334v-130.005333c0-8 6.016-12.010667 12.010667-12.010667h181.994667z" fill="#B57957" /><path d="M941.994667 740.010667v105.984h-169.984v-105.984h169.984z" fill="#C4DEFF" /><path d="M1012.010667 404.010667H11.989333a15.274667 15.274667 0 0 1-9.984-4.010667C0 396.010667 0 392 0 388.010667l69.994667-224c0-6.016 5.994667-10.026667 10.005333-10.026667h864c4.010667 0 10.005333 4.010667 10.005333 10.026667L1024 388.010667c0 3.989333 0 8-2.005333 11.989333a15.274667 15.274667 0 0 1-9.984 4.010667z" fill="#FFE48A" /><path d="M93.994667 516.010667H90.026667L8 485.973333C3.989333 484.010667 0 480 0 476.010667v-84.010667c0-5.994667 5.994667-12.010667 12.010667-12.010667h165.973333c8.021333 0 12.010667 6.016 12.010667 12.010667v84.010667c0 3.989333-2.005333 9.984-8 9.984l-83.989334 30.016h-4.010666z" fill="#F74933" /><path d="M264 516.010667h-4.010667l-85.973333-30.016c-4.010667 0-8.021333-5.994667-8.021333-9.984v-84.010667c0-5.994667 6.016-12.010667 12.010666-12.010667h165.994667c8 0 12.010667 6.016 12.010667 12.010667v84.010667c0 3.989333-2.005333 8-8 9.984l-80 30.016h-4.010667z" fill="#FFC338" /><path d="M426.005333 516.010667h-4.010666l-81.984-30.016c-4.010667-1.984-8.021333-5.994667-8.021334-9.984v-84.010667c0-5.994667 6.016-12.010667 12.010667-12.010667H512c5.994667 0 12.010667 6.016 12.010667 12.010667v84.010667c0 3.989333-4.010667 9.984-8 9.984l-86.016 30.016h-3.989334z" fill="#F74933" /><path d="M596.010667 516.010667h-4.010667l-84.010667-30.016c-5.973333 0-8-5.994667-8-9.984v-84.010667c0-5.994667 4.010667-12.010667 12.010667-12.010667h165.994667c6.016 0 12.010667 6.016 12.010666 12.010667v84.010667c0 3.989333-4.010667 8-8 9.984l-82.005333 30.016h-4.010667z" fill="#FFC338" /><path d="M757.994667 516.010667h-3.989334l-80-30.016c-6.016-1.984-8-5.994667-8-9.984v-84.010667c0-5.994667 3.989333-12.010667 11.989334-12.010667h166.016c5.973333 0 11.989333 6.016 11.989333 12.010667v84.010667c0 3.989333-4.010667 9.984-8 9.984l-85.994667 30.016h-4.010666z" fill="#F74933" /><path d="M930.005333 516.010667h-4.010666l-85.994667-30.016c-4.010667 0-8-5.994667-8-9.984v-84.010667c0-5.994667 5.994667-12.010667 12.010667-12.010667h165.973333c6.016 0 12.010667 6.016 12.010667 12.010667v84.010667c0 3.989333-1.984 8-8 9.984l-80 30.016h-3.989334z" fill="#FFC338" /><path d="M621.994667 1002.005333H402.005333c-8 0-12.010667-6.016-12.010666-12.010666V704c0-8 4.010667-12.010667 12.010666-12.010667h219.989334c5.994667 0 12.010667 4.010667 12.010666 12.010667v285.994667c0 6.016-6.016 12.010667-12.010666 12.010666z" fill="#B57957" /><path d="M524.010667 1002.005333h-24V691.989333h24V1002.026667z" fill="#C4987D" /><path d="M781.994667 668.010667H240c-16 0-29.994667-12.010667-29.994667-30.016V570.026667c0-18.005333 13.994667-30.016 29.994667-30.016h541.994667c16 0 30.016 12.010667 30.016 30.016v67.989333c0 18.005333-14.016 30.016-30.016 30.016z" fill="#B57957" /><path d="M781.994667 648H240c-4.010667 0-10.005333-4.010667-10.005333-10.005333V570.026667c0-6.016 5.994667-10.005333 10.005333-10.005334h541.994667c4.010667 0 10.026667 4.010667 10.026666 10.005334v67.989333c0 6.016-6.016 10.005333-10.026666 10.005333z" fill="#C4DEFF" /><path d="M989.994667 1002.005333H32c-5.994667 0-12.010667-6.016-12.010667-12.010666 0-8 6.016-11.989333 12.010667-11.989334h957.994667c6.016 0 12.010667 3.989333 12.010666 11.989334 0 6.016-6.016 12.010667-12.010666 12.010666z" fill="#9E7253" /><path d="M80 716.010667v153.984h181.994667c5.994667 0 12.010667-3.989333 12.010666-11.989334v-130.005333c0-8-5.994667-12.010667-12.010666-12.010667H80z" fill="#C48D66" /><path d="M80 716.010667v153.984h181.994667c5.994667 0 12.010667-3.989333 12.010666-11.989334v-130.005333c0-8-5.994667-12.010667-12.010666-12.010667H80z" fill="#B57957" /><path d="M80 740.010667v105.984h170.005333v-105.984H80z" fill="#C4DEFF" /><path d="M306.005333 338.005333c-5.994667 0-10.005333-2.005333-12.010666-8-3.989333-4.010667-1.984-12.010667 2.005333-16L556.010667 76.010667c1.984-2.005333 8-4.010667 11.989333-4.010667A15.616 15.616 0 0 1 576 80l92.010667 196.010667a12.757333 12.757333 0 0 1 0 11.989333c-4.010667 4.010667-6.016 5.994667-10.026667 8l-352 42.005333z" fill="#F0C382" /><path d="M709.994667 272c-3.989333 0-8-4.010667-11.989334-8L605.994667 64c-2.005333-5.994667 0-13.994667 5.994666-16 4.010667-2.005333 6.016-4.010667 10.026667-5.994667a116.693333 116.693333 0 0 1 51.989333-12.010666 123.093333 123.093333 0 0 1 112 72c13.994667 30.016 16 64 3.989334 94.016-9.984 32-33.984 55.978667-64 69.973333-3.989333 2.005333-5.994667 4.010667-9.984 4.010667-2.005333 2.005333-4.010667 2.005333-6.016 2.005333z" fill="#FF8087" /><path d="M685.994667 320c-16 0-32-10.005333-40-26.005333l-96-210.005334c-5.994667-9.984-5.994667-21.973333-1.984-33.984 3.989333-10.005333 11.989333-18.005333 21.973333-24 6.016-2.005333 12.010667-4.010667 18.026667-4.010666 17.984 0 32 10.005333 40 26.005333l97.984 210.005333A43.946667 43.946667 0 0 1 704 315.989333c-5.994667 2.005333-11.989333 4.010667-18.005333 4.010667z" fill="#F7D291" /><path d="M786.005333 101.994667a123.093333 123.093333 0 0 0-112-72c-18.005333 0-34.005333 4.010667-50.005333 12.010666 2.005333 1.984 2.005333 3.989333 4.010667 5.994667L640 72c10.005333-4.010667 21.994667-5.994667 34.005333-5.994667a123.093333 123.093333 0 0 1 112 72c5.994667 11.989333 8 21.994667 9.984 33.984 4.010667-23.978667 0-48-9.984-69.973333z" fill="#FFABB1" /></svg>