<svg xmlns="http://www.w3.org/2000/svg" viewBox="0 0 1024 1024" width="200" height="200"><path d="M856.533333 323.2c-18.133333 0-33.066667-14.933333-33.066666-33.066667 0-8.533333 3.2-17.066667 9.6-23.466666 6.4-6.4 14.933333-9.6 23.466666-9.6 8.533333 0 17.066667 3.2 23.466667 9.6 6.4 6.4 9.6 14.933333 9.6 23.466666 1.066667 18.133333-13.866667 33.066667-33.066667 33.066667z m-22.4-33.066667c0 12.8 10.666667 22.4 22.4 22.4 12.8 0 22.4-10.666667 22.4-22.4 0-6.4-2.133333-11.733333-6.4-16-4.266667-4.266667-10.666667-6.4-16-6.4-6.4 0-11.733333 2.133333-16 6.4-4.266667 4.266667-6.4 10.666667-6.4 16zM224 330.666667c-3.2 0-5.333333-2.133333-5.333333-5.333334s2.133333-5.333333 5.333333-5.333333h42.666667c3.2 0 5.333333 2.133333 5.333333 5.333333s-2.133333 5.333333-5.333333 5.333334h-42.666667z" fill="#185A96" /><path d="M245.333333 352c-3.2 0-5.333333-2.133333-5.333333-5.333333l-1.066667-42.666667c0-3.2 2.133333-5.333333 5.333334-5.333333s5.333333 2.133333 5.333333 5.333333l1.066667 42.666667c0 3.2-2.133333 5.333333-5.333334 5.333333z" fill="#185A96" /><path d="M162.133333 163.2c-14.933333 0-27.733333-12.8-28.8-27.733333 0-16 12.8-28.8 27.733334-28.8a29.141333 29.141333 0 0 1 28.8 28.8c1.066667 14.933333-11.733333 27.733333-27.733334 27.733333z m-17.066666-27.733333c0 9.6 8.533333 17.066667 18.133333 17.066666 9.6 0 17.066667-8.533333 17.066667-18.133333 0-4.266667-2.133333-9.6-5.333334-12.8s-8.533333-4.266667-12.8-4.266667c-4.266667 0-9.6 2.133333-12.8 5.333334-3.2 3.2-4.266667 7.466667-4.266666 12.8z" fill="#81B73B" /><path d="M695.466667 357.333333c-3.2 0-5.333333-2.133333-5.333334-5.333333s2.133333-5.333333 5.333334-5.333333h42.666666c3.2 0 5.333333 2.133333 5.333334 5.333333s-2.133333 5.333333-5.333334 5.333333h-42.666666z" fill="#F4C94E" /><path d="M716.8 378.666667c-3.2 0-5.333333-2.133333-5.333333-5.333334l-1.066667-42.666666c0-3.2 2.133333-5.333333 5.333333-5.333334s5.333333 2.133333 5.333334 5.333334l1.066666 42.666666c0 2.133333-2.133333 5.333333-5.333333 5.333334z" fill="#F4C94E" /><path d="M819.2 165.333333a29.141333 29.141333 0 0 1-28.8-28.8c0-16 12.8-28.8 27.733333-28.8 14.933333 0 28.8 12.8 28.8 27.733334 0 7.466667-3.2 14.933333-8.533333 20.266666-4.266667 6.4-11.733333 9.6-19.2 9.6z m0-45.866666c-5.333333 0-9.6 2.133333-12.8 5.333333-3.2 3.2-5.333333 7.466667-5.333333 12.8s2.133333 9.6 5.333333 12.8 7.466667 5.333333 12.8 5.333333c4.266667 0 9.6-2.133333 12.8-5.333333 3.2-3.2 5.333333-7.466667 5.333333-12.8-1.066667-10.666667-8.533333-18.133333-18.133333-18.133333z" fill="#D190C5" /><path d="M700.8 174.933333H342.4c-11.733333 0-21.333333-9.6-21.333333-21.333333v-7.466667c0-11.733333 9.6-21.333333 21.333333-21.333333h359.466667c11.733333 0 21.333333 9.6 21.333333 21.333333v7.466667c-1.066667 11.733333-10.666667 21.333333-22.4 21.333333z" fill="#FF7F00" /><path d="M279.466667 453.333333c0-4.266667 2.133333-7.466667 4.266666-10.666666 18.133333-16 87.466667-67.2 166.4 4.266666 0 0 144 134.4 300.8-10.666666 9.6-8.533333 23.466667-2.133333 23.466667 10.666666v421.333334s8.533333 43.733333-59.733333 43.733333H293.333333c-7.466667 0-13.866667-6.4-13.866666-13.866667V453.333333z" fill="#119EED" /><path d="M660.266667 185.6H300.8c-18.133333 0-32-13.866667-32-32v-7.466667c0-18.133333 13.866667-32 32-32h48c6.4 0 10.666667 4.266667 10.666667 10.666667s-4.266667 10.666667-10.666667 10.666667h-48c-6.4 0-10.666667 4.266667-10.666667 10.666666v7.466667c0 6.4 4.266667 10.666667 10.666667 10.666667h359.466667c6.4 0 10.666667-4.266667 10.666666-10.666667v-7.466667c0-6.4-4.266667-10.666667-10.666666-10.666666H506.666667c-6.4 0-10.666667-4.266667-10.666667-10.666667s4.266667-10.666667 10.666667-10.666667h153.6c18.133333 0 32 13.866667 32 32v7.466667c0 17.066667-14.933333 32-32 32z" fill="#000000" /><path d="M233.6 441.6c-1.066667 0-3.2 0-4.266667-1.066667-5.333333-2.133333-8.533333-8.533333-5.333333-13.866666l117.333333-263.466667h276.266667l71.466667 160c2.133333 5.333333 0 11.733333-5.333334 13.866667-5.333333 2.133333-11.733333 0-13.866666-5.333334l-66.133334-147.2H355.2L243.2 435.2c-2.133333 4.266667-5.333333 6.4-9.6 6.4zM690.133333 922.666667H267.733333c-22.4 0-44.8-17.066667-44.8-56.533334V551.466667c0-6.4 4.266667-10.666667 10.666667-10.666667s10.666667 4.266667 10.666667 10.666667v315.733333c0 21.333333 9.6 35.2 23.466666 35.2h422.4c16 0 23.466667-20.266667 23.466667-60.8V430.933333c0-6.4 4.266667-10.666667 10.666667-10.666666s10.666667 4.266667 10.666666 10.666666v409.6c1.066667 20.266667 1.066667 82.133333-44.8 82.133334z" fill="#000000" /><path d="M347.733333 626.133333h-2.133333c-5.333333-1.066667-9.6-6.4-8.533333-12.8 5.333333-25.6 28.8-39.466667 50.133333-46.933333l-43.733333-14.933333c-5.333333-2.133333-8.533333-8.533333-6.4-13.866667 2.133333-5.333333 8.533333-8.533333 13.866666-6.4l73.6 25.6c5.333333 2.133333 8.533333 7.466667 8.533334 12.8-1.066667 5.333333-4.266667 9.6-10.666667 10.666667-28.8 4.266667-59.733333 16-64 37.333333-1.066667 4.266667-6.4 8.533333-10.666667 8.533333z" fill="#000000" /><path d="M593.066667 571.733333m-20.266667 0a20.266667 20.266667 0 1 0 40.533333 0 20.266667 20.266667 0 1 0-40.533333 0Z" fill="#000000" /><path d="M500.266667 770.133333h-6.4c-36.266667-3.2-58.666667-32-59.733334-34.133333-3.2-4.266667-2.133333-11.733333 2.133334-14.933333 4.266667-3.2 11.733333-2.133333 14.933333 2.133333 0 0 18.133333 23.466667 44.8 25.6 19.2 1.066667 39.466667-7.466667 58.666667-26.666667 4.266667-4.266667 10.666667-4.266667 14.933333 0 4.266667 4.266667 4.266667 10.666667 0 14.933334-22.4 22.4-45.866667 33.066667-69.333333 33.066666z" fill="#000000" /><path d="M305.066667 470.4c-3.2 0-5.333333-1.066667-7.466667-3.2-4.266667-4.266667-4.266667-10.666667 0-14.933333 23.466667-23.466667 51.2-23.466667 52.266667-23.466667 6.4 0 10.666667 5.333333 10.666666 10.666667s-5.333333 10.666667-10.666666 10.666666c-1.066667 0-19.2 0-36.266667 17.066667-3.2 2.133333-6.4 3.2-8.533333 3.2z" fill="#FFFFFF" /><path d="M385.066667 439.466667m-10.666667 0a10.666667 10.666667 0 1 0 21.333333 0 10.666667 10.666667 0 1 0-21.333333 0Z" fill="#FFFFFF" /><path d="M233.6 524.8c-6.4 0-10.666667-4.266667-10.666667-10.666667v-50.133333c0-6.4 4.266667-10.666667 10.666667-10.666667s10.666667 4.266667 10.666667 10.666667v50.133333c0 6.4-5.333333 10.666667-10.666667 10.666667zM709.333333 396.8c-4.266667 0-7.466667-2.133333-9.6-5.333333L684.8 362.666667c-3.2-5.333333-1.066667-11.733333 4.266667-14.933334 5.333333-3.2 11.733333-1.066667 14.933333 4.266667l14.933333 28.8c3.2 5.333333 1.066667 11.733333-4.266666 14.933333-2.133333 1.066667-3.2 1.066667-5.333334 1.066667z" fill="#000000" /></svg>