<svg xmlns="http://www.w3.org/2000/svg" viewBox="0 0 1024 1024" width="200" height="200"><path d="M120.36171852 773.29445925c0-234.35188148 190.0544-424.40628148 424.40628148-424.40628147s424.40628148 190.0544 424.40628148 424.40628147" fill="#F9F0D4" /><path d="M869.65665185 464.30435555H672.32047408c-0.72817778 0-1.33499259-0.60681482-1.3349926-1.33499258v-40.04977779c0-0.72817778 0.60681482-1.33499259 1.3349926-1.33499259h197.33617777c11.77220741 0 21.35988148 9.58767408 21.35988148 21.35988149 0 11.65084445-9.58767408 21.35988148-21.35988148 21.35988147zM983.73783703 549.86524445h-287.63022221c-0.72817778 0-1.33499259-0.60681482-1.3349926-1.3349926v-40.04977777c0-0.72817778 0.60681482-1.33499259 1.3349926-1.3349926h287.63022221c11.77220741 0 21.35988148 9.58767408 21.35988149 21.35988149 0 11.77220741-9.58767408 21.35988148-21.35988149 21.35988148zM321.46014815 773.29445925H73.39425185c-11.77220741 0-21.35988148-9.58767408-21.35988148-21.35988147 0-11.77220741 9.58767408-21.35988148 21.35988148-21.35988148H321.46014815c0.72817778 0 1.33499259 0.60681482 1.3349926 1.33499259v40.04977778c0.12136297 0.72817778-0.48545185 1.33499259-1.3349926 1.33499258zM201.18945185 687.73357037h-66.5069037c-11.77220741 0-21.35988148-9.58767408-21.35988148-21.35988148 0-11.77220741 9.58767408-21.35988148 21.35988148-21.35988148h66.5069037c11.77220741 0 21.35988148 9.58767408 21.35988148 21.35988148 0.12136297 11.65084445-9.58767408 21.35988148-21.35988148 21.35988148zM207.98577778 602.05131852h-87.5026963c-11.77220741 0-21.35988148-9.58767408-21.35988148-21.35988149 0-11.77220741 9.58767408-21.35988148 21.35988148-21.35988148h87.5026963c0.72817778 0 1.33499259 0.60681482 1.33499259 1.3349926v40.04977777c0 0.72817778-0.60681482 1.33499259-1.33499259 1.3349926z" fill="#F9F0D4" /><path d="M887.25428148 507.14548148h-106.31395556c-11.77220741 0-21.35988148-9.58767408-21.35988147-21.35988148 0-11.77220741 9.58767408-21.35988148 21.35988147-21.35988148h106.31395556c11.77220741 0 21.35988148 9.58767408 21.35988149 21.35988148 0 11.65084445-9.58767408 21.35988148-21.35988149 21.35988148z" fill="#FFFFFF" /><path d="M217.81617778 773.29445925c0-174.76266667 141.75194075-316.51460741 316.5146074-316.5146074s316.51460741 141.75194075 316.51460741 316.5146074" fill="#FFFBEE" /><path d="M187.23271111 573.04557037l27.30666667-10.8013037c0.9709037-0.36408889 0.9709037-1.82044445 0-2.18453334l-27.30666667-10.8013037c-3.39816297-1.33499259-6.06814815-4.00497778-7.28177778-7.28177778l-10.8013037-27.30666667c-0.36408889-0.9709037-1.82044445-0.9709037-2.18453333 0l-10.80130371 27.30666667c-1.33499259 3.39816297-4.00497778 6.06814815-7.28177777 7.28177778l-27.30666667 10.8013037c-0.9709037 0.36408889-0.9709037 1.82044445 0 2.18453334l27.30666667 10.8013037c3.39816297 1.33499259 6.06814815 4.00497778 7.28177777 7.28177778l10.80130371 27.30666667c0.36408889 0.9709037 1.82044445 0.9709037 2.18453333 0l10.8013037-27.30666667c1.33499259-3.2768 4.00497778-5.94678518 7.28177778-7.28177778z" fill="#F5C244" /><path d="M178.98002963 567.94832592l15.53445926-6.1895111c0.60681482-0.24272592 0.60681482-1.09226667 0-1.21362964l-15.53445926-6.1895111c-1.94180741-0.72817778-3.39816297-2.3058963-4.12634074-4.12634075l-6.18951111-15.53445925c-0.24272592-0.60681482-1.09226667-0.60681482-1.21362963 0l-6.18951112 15.53445925c-0.72817778 1.94180741-2.3058963 3.39816297-4.12634073 4.12634075l-15.53445927 6.1895111c-0.60681482 0.24272592-0.60681482 1.09226667 0 1.21362964l15.53445927 6.1895111c1.94180741 0.72817778 3.39816297 2.3058963 4.12634073 4.12634075l6.18951112 15.53445925c0.24272592 0.60681482 1.09226667 0.60681482 1.21362963 0l6.18951111-15.53445925c0.72817778-1.82044445 2.18453333-3.39816297 4.12634074-4.12634075z" fill="#F5C244" /><path d="M403.62287408 170.12053333l17.47626667-6.91768888c0.60681482-0.24272592 0.60681482-1.21362963 0-1.45635556l-17.47626667-6.91768889c-2.18453333-0.84954075-3.88361482-2.54862222-4.73315556-4.73315555l-6.91768889-17.47626667c-0.24272592-0.60681482-1.21362963-0.60681482-1.45635555 0l-6.9176889 17.47626667c-0.84954075 2.18453333-2.54862222 3.88361482-4.73315555 4.73315555l-17.47626666 6.91768889c-0.60681482 0.24272592-0.60681482 1.21362963 0 1.45635556l17.47626666 6.91768888c2.18453333 0.84954075 3.88361482 2.54862222 4.73315555 4.73315556l6.9176889 17.47626666c0.24272592 0.60681482 1.21362963 0.60681482 1.45635555 0l6.91768889-17.47626666c0.9709037-2.18453333 2.66998518-3.88361482 4.73315556-4.73315556z" fill="#F5C244" /><path d="M398.40426667 166.84373333l9.95176296-4.00497778c0.36408889-0.12136297 0.36408889-0.60681482 0-0.84954073l-9.95176296-4.00497779c-1.21362963-0.48545185-2.18453333-1.45635555-2.66998519-2.66998518l-4.00497778-9.95176296c-0.12136297-0.36408889-0.60681482-0.36408889-0.84954073 0l-4.00497779 9.95176296c-0.48545185 1.21362963-1.45635555 2.18453333-2.66998518 2.66998518l-9.95176297 4.00497779c-0.36408889 0.12136297-0.36408889 0.60681482 0 0.84954073l9.95176297 4.00497778c1.21362963 0.48545185 2.18453333 1.45635555 2.66998518 2.66998519l4.00497779 9.95176296c0.12136297 0.36408889 0.60681482 0.36408889 0.84954073 0l4.00497778-9.95176296c0.48545185-1.21362963 1.45635555-2.18453333 2.66998519-2.66998519z" fill="#F5C244" /><path d="M871.35573333 575.59419259l13.71401482-5.46133334c0.48545185-0.24272592 0.48545185-0.9709037 0-1.09226666l-13.71401482-5.46133334c-1.69908148-0.72817778-3.03407408-1.94180741-3.64088888-3.64088888l-5.46133334-13.71401482c-0.24272592-0.48545185-0.9709037-0.48545185-1.09226666 0l-5.46133334 13.71401482c-0.72817778 1.69908148-1.94180741 3.03407408-3.64088889 3.64088888l-13.71401481 5.46133334c-0.48545185 0.24272592-0.48545185 0.9709037 0 1.09226666l13.71401481 5.46133334c1.69908148 0.72817778 3.03407408 1.94180741 3.64088889 3.64088889l5.46133334 13.71401482c0.24272592 0.48545185 0.9709037 0.48545185 1.09226666 0l5.46133334-13.71401482c0.60681482-1.57771852 1.94180741-2.91271111 3.64088888-3.64088889z" fill="#F5C244" /><path d="M867.22939259 573.04557037l7.76722963-3.15543704c0.24272592-0.12136297 0.24272592-0.48545185 0-0.60681481l-7.76722963-3.15543704c-0.9709037-0.36408889-1.69908148-1.09226667-2.06317037-2.06317037l-3.15543704-7.76722963c-0.12136297-0.24272592-0.48545185-0.24272592-0.60681481 0l-3.15543704 7.76722963c-0.36408889 0.9709037-1.09226667 1.69908148-2.06317036 2.06317037l-7.76722964 3.15543704c-0.24272592 0.12136297-0.24272592 0.48545185 0 0.60681481l7.76722964 3.15543704c0.9709037 0.36408889 1.69908148 1.09226667 2.06317036 2.06317038l3.15543704 7.76722962c0.12136297 0.24272592 0.48545185 0.24272592 0.60681481 0l3.15543704-7.76722962c0.36408889-0.84954075 1.09226667-1.69908148 2.06317037-2.06317038z" fill="#F5C244" /><path d="M265.51182222 644.89244445H129.34257778c-11.77220741 0-21.35988148-9.58767408-21.35988148-21.35988148 0-11.77220741 9.58767408-21.35988148 21.35988148-21.35988149h136.16924444c11.77220741 0 21.35988148 9.58767408 21.35988148 21.35988149 0 11.65084445-9.58767408 21.35988148-21.35988148 21.35988148z" fill="#FFFFFF" /><path d="M234.56426667 730.5746963h-105.22168889c-11.77220741 0-21.35988148-9.58767408-21.35988148-21.35988148 0-11.77220741 9.58767408-21.35988148 21.35988148-21.35988149h105.22168889c11.77220741 0 21.35988148 9.58767408 21.35988148 21.35988149 0 11.65084445-9.58767408 21.35988148-21.35988148 21.35988148z" fill="#FFFFFF" /><path d="M516.12634075 430.92954075m-71.72551112 0a71.72551111 71.72551111 0 1 0 143.45102222 0 71.72551111 71.72551111 0 1 0-143.45102222 0Z" fill="#F5AC3A" /><path d="M534.33078518 510.42228148c-54.7346963 0-99.15354075-44.54020741-99.15354073-99.15354073 0-54.7346963 44.54020741-99.15354075 99.15354073-99.15354075s99.15354075 44.54020741 99.15354074 99.15354075c0.12136297 54.61333333-44.41884445 99.15354075-99.15354074 99.15354073z m0-170.27223703c-39.20023703 0-71.1186963 31.91845925-71.11869629 71.1186963s31.91845925 71.1186963 71.11869629 71.11869628S605.44948148 450.46897778 605.44948148 411.26874075s-31.91845925-71.1186963-71.1186963-71.1186963z" fill="#2D2924" /><path d="M714.06933333 690.03946667c-7.76722963 0-14.0781037-6.31087408-14.0781037-14.0781037 0-91.26494815-74.27413333-165.66044445-165.66044445-165.66044445S368.7917037 584.69641482 368.7917037 675.96136297c0 7.76722963-6.31087408 14.0781037-14.0781037 14.0781037-7.76722963 0-14.0781037-6.31087408-14.0781037-14.0781037 0-106.79940741 86.89588148-193.69528889 193.69528888-193.69528889S728.02607408 569.16195555 728.02607408 675.96136297c0 7.76722963-6.18951111 14.0781037-13.95674075 14.0781037z" fill="#2D2924" /></svg>