<svg xmlns="http://www.w3.org/2000/svg" viewBox="0 0 1024 1024" width="200" height="200"><path d="M319.362 998.32l12.014-82.562h-124.912l12.014 82.562A30 30 0 0 0 248.166 1024h41.512c14.898 0 27.54-10.936 29.684-25.68zM805.524 998.32l12.014-82.562h-124.912l12.014 82.562A30 30 0 0 0 734.328 1024h41.512a30 30 0 0 0 29.684-25.68z" fill="#229BFF" /><path d="M323.586 969.294l7.79-53.536h-124.912l7.79 53.536zM809.746 969.294l7.79-53.536h-124.912l7.79 53.536z" fill="#037CFF" /><path d="M816.516 933.884H207.484c-22.092 0-40-17.908-40-40V40c0-22.092 17.908-40 40-40h609.032c22.092 0 40 17.908 40 40v853.884c0 22.09-17.908 40-40 40z" fill="#7CBAF7" /><path d="M262.78 659.016V296.782c0-26.316-21.332-47.648-47.648-47.648-26.316 0-47.648 21.332-47.648 47.648v362.234c0 26.316 21.332 47.648 47.648 47.648 26.314 0 47.648-21.334 47.648-47.648zM856.516 296.89V114.656c0-26.316-21.332-47.648-47.648-47.648-26.316 0-47.648 21.332-47.648 47.648v182.234c0 26.316 21.332 47.648 47.648 47.648 26.316 0 47.648-21.334 47.648-47.648z" fill="#A9CFFC" /><path d="M856.516 201.486V161.32c0-26.316-21.332-47.648-47.648-47.648-26.316 0-47.648 21.332-47.648 47.648v40.166c0 26.316 21.332 47.648 47.648 47.648 26.316 0 47.648-21.332 47.648-47.648zM167.484 356.812v189.402c0 26.316 21.332 47.648 47.648 47.648 26.316 0 47.648-21.332 47.648-47.648v-189.402c0-26.316-21.332-47.648-47.648-47.648-26.316 0-47.648 21.332-47.648 47.648z" fill="#CBE1FF" /><path d="M167.484 413.482v19.228c0 26.316 21.332 47.648 47.648 47.648 26.316 0 47.648-21.332 47.648-47.648v-19.228c0-26.316-21.332-47.648-47.648-47.648-26.316 0-47.648 21.332-47.648 47.648z" fill="#E3F0FF" /><path d="M856.52 359.02v534.86c0 22.1-17.92 40-40 40H207.48c-22.08 0-40-17.9-40-40v-142.82c58.28 23.4 121.94 36.28 188.6 36.28 253.14 0 462.9-185.72 500.44-428.32z" fill="#48ACFF" /><path d="M856.52 573.14v320.74c0 22.1-17.92 40-40 40H516.3c174.86-39.64 310.64-182.26 340.22-360.74z" fill="#229BFF" /><path d="M730.9 625.62v308.26h-437.8V625.62c0-22.08 17.9-40 40-40h357.8c22.1 0 40 17.92 40 40z" fill="#8F8B81" /><path d="M615.172 585.62h-199.09c-18.68 0-33.824 15.144-33.824 33.824s15.144 33.824 33.824 33.824h199.09c18.68 0 33.824-15.144 33.824-33.824s-15.144-33.824-33.824-33.824z" fill="#B5B1A4" /><path d="M522.394 585.62h-46.876c-18.68 0-33.824 15.144-33.824 33.824s15.144 33.824 33.824 33.824h46.876c18.68 0 33.824-15.144 33.824-33.824s-15.144-33.824-33.824-33.824z" fill="#D8D4C9" /><path d="M730.9 625.62v308.26h-437.8v-150.42c20.64 2.56 41.66 3.88 62.98 3.88 148.46 0 282-63.88 374.64-165.64 0.12 1.28 0.18 2.6 0.18 3.92z" fill="#706C64" /><path d="M676.104 233.736H347.896c-15.444 0-27.964-12.52-27.964-27.964 0-15.444 12.52-27.964 27.964-27.964h328.208c15.444 0 27.964 12.52 27.964 27.964 0 15.444-12.52 27.964-27.964 27.964zM676.104 142.388H347.896c-15.444 0-27.964-12.52-27.964-27.964 0-15.444 12.52-27.964 27.964-27.964h328.208c15.444 0 27.964 12.52 27.964 27.964 0 15.444-12.52 27.964-27.964 27.964z" fill="#037CFF" /><path d="M280.84 514.98c-15.802 0-28.61-12.81-28.61-28.61v-81.564h57.222v81.564c-0.002 15.802-12.812 28.61-28.612 28.61z" fill="#706C64" /><path d="M280.84 379.552m-56.648 0a56.648 56.648 0 1 0 113.296 0 56.648 56.648 0 1 0-113.296 0Z" fill="#8F8B81" /><path d="M269 366.988m-39.092 0a39.092 39.092 0 1 0 78.184 0 39.092 39.092 0 1 0-78.184 0Z" fill="#B5B1A4" /><path d="M607.986 177.808h-142.676c-15.444 0-27.964 12.52-27.964 27.964 0 15.444 12.52 27.964 27.964 27.964h142.676c15.444 0 27.964-12.52 27.964-27.964 0-15.444-12.52-27.964-27.964-27.964z" fill="#229BFF" /><path d="M550.964 177.808h-46.514c-15.444 0-27.964 12.52-27.964 27.964 0 15.444 12.52 27.964 27.964 27.964h46.514c15.444 0 27.964-12.52 27.964-27.964 0-15.444-12.52-27.964-27.964-27.964z" fill="#48ACFF" /><path d="M607.986 86.46h-142.676c-15.444 0-27.964 12.52-27.964 27.964 0 15.444 12.52 27.964 27.964 27.964h142.676c15.444 0 27.964-12.52 27.964-27.964 0-15.444-12.52-27.964-27.964-27.964z" fill="#229BFF" /><path d="M550.964 86.46h-46.514c-15.444 0-27.964 12.52-27.964 27.964 0 15.444 12.52 27.964 27.964 27.964h46.514c15.444 0 27.964-12.52 27.964-27.964 0-15.444-12.52-27.964-27.964-27.964z" fill="#48ACFF" /><path d="M730.9 815.8v118.08h-214.6c82.62-18.72 156.52-60.44 214.6-118.08z" fill="#595751" /><path d="M649.956 836.514H374.044c-12.984 0-23.508-10.526-23.508-23.508 0-12.984 10.526-23.508 23.508-23.508h275.912c12.984 0 23.508 10.526 23.508 23.508s-10.524 23.508-23.508 23.508zM649.956 759.72H374.044c-12.984 0-23.508-10.526-23.508-23.508 0-12.984 10.526-23.508 23.508-23.508h275.912c12.984 0 23.508 10.526 23.508 23.508 0 12.984-10.524 23.508-23.508 23.508z" fill="#037CFF" /><path d="M592.69 789.496h-119.942c-12.984 0-23.508 10.526-23.508 23.508 0 12.984 10.526 23.508 23.508 23.508h119.942c12.984 0 23.508-10.524 23.508-23.508 0.002-12.982-10.524-23.508-23.508-23.508zM592.69 712.704h-119.942c-12.984 0-23.508 10.524-23.508 23.508s10.526 23.508 23.508 23.508h119.942c12.984 0 23.508-10.526 23.508-23.508 0.002-12.984-10.524-23.508-23.508-23.508z" fill="#229BFF" /><path d="M531.756 712.704h-22.854c-12.984 0-23.508 10.526-23.508 23.508 0 12.984 10.526 23.508 23.508 23.508h22.854c12.984 0 23.508-10.526 23.508-23.508 0.002-12.984-10.524-23.508-23.508-23.508zM531.756 789.496h-22.854c-12.984 0-23.508 10.526-23.508 23.508 0 12.984 10.526 23.508 23.508 23.508h22.854c12.984 0 23.508-10.526 23.508-23.508 0.002-12.982-10.524-23.508-23.508-23.508z" fill="#48ACFF" /><path d="M669.216 327.894H616.78c-14.232 0-25.77-11.538-25.77-25.77s11.538-25.77 25.77-25.77h52.438c14.232 0 25.77 11.538 25.77 25.77-0.002 14.234-11.54 25.77-25.772 25.77z" fill="#706C64" /><path d="M649.118 276.356h-4.998c-14.232 0-25.77 11.538-25.77 25.77s11.538 25.77 25.77 25.77h4.998c14.232 0 25.77-11.538 25.77-25.77s-11.536-25.77-25.77-25.77z" fill="#8F8B81" /></svg>