<svg xmlns="http://www.w3.org/2000/svg" viewBox="0 0 1024 1024" width="200" height="200"><path d="M40.96 297.984h42.8032v42.8032H40.96zM83.7632 297.984h42.8032v42.8032H83.7632zM126.5664 297.984h42.8032v42.8032H126.5664zM169.3696 297.984h42.8032v42.8032H169.3696zM212.1728 297.984h42.8032v42.8032h-42.8032zM254.976 297.984h42.8032v42.8032h-42.8032zM83.7632 383.5904h42.8032v42.8032H83.7632zM40.96 383.5904h42.8032v42.8032H40.96zM126.5664 383.5904h42.8032v42.8032H126.5664zM169.3696 383.5904h42.8032v42.8032H169.3696zM212.1728 383.5904h42.8032v42.8032h-42.8032zM254.976 383.5904h42.8032v42.8032h-42.8032zM297.984 383.5904h42.8032v42.8032h-42.8032z" fill="#EDEAEB" /><path d="M340.7872 426.3936h42.8032v42.8032h-42.8032zM297.984 426.3936h42.8032v42.8032h-42.8032zM254.976 426.3936h42.8032v42.8032h-42.8032zM212.1728 426.3936h42.8032v42.8032h-42.8032zM169.3696 426.3936h42.8032v42.8032H169.3696zM126.5664 426.3936h42.8032v42.8032H126.5664zM83.7632 426.3936h42.8032v42.8032H83.7632z" fill="#D5D0D0" /><path d="M83.7632 469.1968h42.8032V512H83.7632zM126.5664 469.1968h42.8032V512H126.5664zM169.3696 469.1968h42.8032V512H169.3696zM212.1728 469.1968h42.8032V512h-42.8032zM340.7872 469.1968h42.8032V512h-42.8032zM383.5904 469.1968h42.8032V512h-42.8032zM254.976 512h42.8032v42.8032h-42.8032zM40.96 512h42.8032v42.8032H40.96z" fill="#EDEAEB" /><path d="M40.96 469.1968h42.8032V512H40.96zM40.96 426.3936h42.8032v42.8032H40.96zM254.976 469.1968h42.8032V512h-42.8032zM297.984 469.1968h42.8032V512h-42.8032zM340.7872 512h42.8032v42.8032h-42.8032zM383.5904 512h42.8032v42.8032h-42.8032zM383.5904 554.8032h42.8032v42.8032h-42.8032zM426.3936 554.8032h42.8032v42.8032h-42.8032zM469.1968 597.6064H512v42.8032h-42.8032zM512 597.6064h42.8032v42.8032H512zM212.1728 512h42.8032v42.8032h-42.8032zM169.3696 512h42.8032v42.8032H169.3696zM126.5664 512h42.8032v42.8032H126.5664z" fill="#FFFFFF" /><path d="M40.96 554.8032h42.8032v42.8032H40.96zM40.96 597.6064h42.8032v42.8032H40.96zM40.96 640.4096h42.8032v42.8032H40.96zM83.7632 640.4096h42.8032v42.8032H83.7632zM126.5664 640.4096h42.8032v42.8032H126.5664zM83.7632 597.6064h42.8032v42.8032H83.7632zM83.7632 554.8032h42.8032v42.8032H83.7632zM169.3696 554.8032h42.8032v42.8032H169.3696zM212.1728 554.8032h42.8032v42.8032h-42.8032zM254.976 554.8032h42.8032v42.8032h-42.8032zM297.984 554.8032h42.8032v42.8032h-42.8032zM254.976 597.6064h42.8032v42.8032h-42.8032zM212.1728 597.6064h42.8032v42.8032h-42.8032zM212.1728 640.4096h42.8032v42.8032h-42.8032zM297.984 640.4096h42.8032v42.8032h-42.8032zM340.7872 640.4096h42.8032v42.8032h-42.8032zM383.5904 640.4096h42.8032v42.8032h-42.8032zM426.3936 640.4096h42.8032v42.8032h-42.8032zM469.1968 640.4096H512v42.8032h-42.8032zM512 640.4096h42.8032v42.8032H512zM597.6064 640.4096h42.8032v42.8032h-42.8032zM597.6064 597.6064h42.8032v42.8032h-42.8032zM597.6064 554.8032h42.8032v42.8032h-42.8032zM640.4096 554.8032h42.8032v42.8032h-42.8032zM640.4096 512h42.8032v42.8032h-42.8032zM640.4096 597.6064h42.8032v42.8032h-42.8032zM683.2128 597.6064h42.8032v42.8032h-42.8032zM683.2128 640.4096h42.8032v42.8032h-42.8032zM769.024 640.4096h42.8032v42.8032h-42.8032zM811.8272 640.4096h42.8032v42.8032h-42.8032z" fill="#EDEAEB" /><path d="M854.6304 640.4096h42.8032v42.8032h-42.8032zM854.6304 597.6064h42.8032v42.8032h-42.8032zM897.4336 597.6064h42.8032v42.8032h-42.8032z" fill="#EDEAEB" /><path d="M811.8272 597.6064h42.8032v42.8032h-42.8032zM769.024 597.6064h42.8032v42.8032h-42.8032zM769.024 554.8032h42.8032v42.8032h-42.8032zM726.016 554.8032h42.8032v42.8032h-42.8032zM640.4096 640.4096h42.8032v42.8032h-42.8032zM340.7872 597.6064h42.8032v42.8032h-42.8032zM383.5904 597.6064h42.8032v42.8032h-42.8032zM426.3936 597.6064h42.8032v42.8032h-42.8032zM169.3696 597.6064h42.8032v42.8032H169.3696zM297.984 512h42.8032v42.8032h-42.8032zM426.3936 512h42.8032v42.8032h-42.8032zM469.1968 554.8032H512v42.8032h-42.8032zM340.7872 297.984h42.8032v42.8032h-42.8032zM383.5904 297.984h42.8032v42.8032h-42.8032zM383.5904 340.7872h42.8032v42.8032h-42.8032zM426.3936 383.5904h42.8032v42.8032h-42.8032zM340.7872 254.976h42.8032v42.8032h-42.8032z" fill="#EDEAEB" /><path d="M383.5904 254.976h42.8032v42.8032h-42.8032zM40.96 683.2128h42.8032v42.8032H40.96z" fill="#454344" /><path d="M297.984 297.984h42.8032v42.8032h-42.8032zM297.984 340.7872h42.8032v42.8032h-42.8032zM340.7872 383.5904h42.8032v42.8032h-42.8032zM340.7872 554.8032h42.8032v42.8032h-42.8032zM297.984 597.6064h42.8032v42.8032h-42.8032zM683.2128 683.2128h42.8032v42.8032h-42.8032zM640.4096 726.016h42.8032v42.8032h-42.8032zM254.976 640.4096h42.8032v42.8032h-42.8032z" fill="#C7C2C6" /><path d="M383.5904 383.5904h42.8032v42.8032h-42.8032zM83.7632 512h42.8032v42.8032H83.7632zM126.5664 554.8032h42.8032v42.8032H126.5664zM126.5664 597.6064h42.8032v42.8032H126.5664zM169.3696 640.4096h42.8032v42.8032H169.3696z" fill="#9B9A9D" /><path d="M940.2368 597.6064H983.04v42.8032h-42.8032zM940.2368 640.4096H983.04v42.8032h-42.8032zM940.2368 683.2128H983.04v42.8032h-42.8032z" fill="#DDDEE4" /><path d="M940.2368 683.2128H983.04v42.8032h-42.8032zM897.4336 683.2128h42.8032v42.8032h-42.8032zM854.6304 683.2128h42.8032v42.8032h-42.8032z" fill="#DDDEE4" /><path d="M811.8272 683.2128h42.8032v42.8032h-42.8032zM769.024 683.2128h42.8032v42.8032h-42.8032zM726.016 683.2128h42.8032v42.8032h-42.8032zM640.4096 683.2128h42.8032v42.8032h-42.8032zM597.6064 683.2128h42.8032v42.8032h-42.8032zM554.8032 683.2128h42.8032v42.8032h-42.8032zM512 683.2128h42.8032v42.8032H512zM469.1968 683.2128H512v42.8032h-42.8032zM426.3936 683.2128h42.8032v42.8032h-42.8032zM383.5904 683.2128h42.8032v42.8032h-42.8032zM340.7872 683.2128h42.8032v42.8032h-42.8032zM297.984 683.2128h42.8032v42.8032h-42.8032zM254.976 683.2128h42.8032v42.8032h-42.8032zM212.1728 683.2128h42.8032v42.8032h-42.8032zM169.3696 683.2128h42.8032v42.8032H169.3696zM126.5664 683.2128h42.8032v42.8032H126.5664zM83.7632 683.2128h42.8032v42.8032H83.7632zM83.7632 726.016h42.8032v42.8032H83.7632zM40.96 726.016h42.8032v42.8032H40.96zM126.5664 726.016h42.8032v42.8032H126.5664zM169.3696 726.016h42.8032v42.8032H169.3696zM212.1728 726.016h42.8032v42.8032h-42.8032zM254.976 726.016h42.8032v42.8032h-42.8032zM297.984 726.016h42.8032v42.8032h-42.8032zM340.7872 726.016h42.8032v42.8032h-42.8032zM383.5904 726.016h42.8032v42.8032h-42.8032zM426.3936 726.016h42.8032v42.8032h-42.8032zM469.1968 726.016H512v42.8032h-42.8032zM512 726.016h42.8032v42.8032H512zM554.8032 726.016h42.8032v42.8032h-42.8032zM597.6064 726.016h42.8032v42.8032h-42.8032zM683.2128 726.016h42.8032v42.8032h-42.8032zM726.016 726.016h42.8032v42.8032h-42.8032zM769.024 726.016h42.8032v42.8032h-42.8032zM811.8272 726.016h42.8032v42.8032h-42.8032z" fill="#DDDEE4" /><path d="M854.6304 726.016h42.8032v42.8032h-42.8032zM897.4336 726.016h42.8032v42.8032h-42.8032zM897.4336 640.4096h42.8032v42.8032h-42.8032z" fill="#DDDEE4" /><path d="M383.5904 426.3936h42.8032v42.8032h-42.8032z" fill="#C7C2C6" /><path d="M426.3936 426.3936h42.8032v42.8032h-42.8032z" fill="#9B9A9D" /><path d="M426.3936 469.1968h42.8032V512h-42.8032z" fill="#C7C2C6" /><path d="M469.1968 469.1968H512V512h-42.8032z" fill="#9B9A9D" /><path d="M469.1968 512H512v42.8032h-42.8032z" fill="#C7C2C6" /><path d="M512 512h42.8032v42.8032H512z" fill="#9B9A9D" /><path d="M512 554.8032h42.8032v42.8032H512z" fill="#C7C2C6" /><path d="M554.8032 554.8032h42.8032v42.8032h-42.8032zM554.8032 597.6064h42.8032v42.8032h-42.8032zM554.8032 640.4096h42.8032v42.8032h-42.8032z" fill="#9B9A9D" /><path d="M254.976 340.7872h42.8032v42.8032h-42.8032zM340.7872 340.7872h42.8032v42.8032h-42.8032zM426.3936 340.7872h42.8032v42.8032h-42.8032zM469.1968 383.5904H512v42.8032h-42.8032z" fill="#D5D0D0" /><path d="M469.1968 426.3936H512v42.8032h-42.8032z" fill="#EDEAEB" /><path d="M512 426.3936h42.8032v42.8032H512z" fill="#D5D0D0" /><path d="M512 469.1968h42.8032V512H512z" fill="#EDEAEB" /><path d="M554.8032 469.1968h42.8032V512h-42.8032z" fill="#D5D0D0" /><path d="M554.8032 512h42.8032v42.8032h-42.8032z" fill="#EDEAEB" /><path d="M597.6064 512h42.8032v42.8032h-42.8032zM683.2128 512h42.8032v42.8032h-42.8032zM683.2128 554.8032h42.8032v42.8032h-42.8032zM726.016 597.6064h42.8032v42.8032h-42.8032zM726.016 640.4096h42.8032v42.8032h-42.8032zM212.1728 340.7872h42.8032v42.8032h-42.8032zM169.3696 340.7872h42.8032v42.8032H169.3696zM126.5664 340.7872h42.8032v42.8032H126.5664zM83.7632 340.7872h42.8032v42.8032H83.7632zM40.96 340.7872h42.8032v42.8032H40.96z" fill="#D5D0D0" /></svg>