<svg xmlns="http://www.w3.org/2000/svg" viewBox="0 0 1029 1024" width="200" height="200"><path d="M271.70327 295.9c14.8-9.7 30.4-18.2 46.3-25.8 2.4-1.1 4.9-2.3 7.3-3.4 1.4-0.6 2.8-1.2 4.1-1.8 2.1-0.9 9-3.7 0 0 6.4-2.6 12.7-5.2 19.2-7.5 14.3-5.2 29-9.7 43.8-13.3 7.7-1.9 15.5-3.6 23.4-5 4.1-0.7 8.1-1.4 12.2-2 1-0.2 2.1-0.3 3.1-0.5 4.3-0.6-6.6 0.8-2.2 0.3 2.5-0.3 4.9-0.6 7.4-0.9 18.5-2 37.2-2.7 55.8-2 9.5 0.4 19 1.1 28.4 2.2 1.2 0.1 2.4 0.3 3.6 0.4 4.7 0.6-6.3-0.9-1.5-0.2 2.4 0.4 4.9 0.7 7.3 1.1 5.4 0.9 10.7 1.9 16.1 3 21.8 4.6 43.2 11.1 63.8 19.4 1.3 0.5 2.6 1.1 3.9 1.6 4.8 2-5.3-2.3-0.5-0.2 2.2 1 4.4 1.9 6.6 2.9 5.8 2.6 11.5 5.4 17.2 8.3 11.4 5.8 22.6 12.1 33.5 18.9 11.6 7.2 22.9 15 33.9 23.2 1.4 1 2.7 2.1 4.1 3.1 4.7 3.6-4.1-3.2 0.6 0.5 2.7 2.2 5.5 4.3 8.2 6.5 6 4.9 12 10 17.8 15.1 15.9 14.1 31.8 29 45.9 45 0.4 0.4 0.7 0.9 1.1 1.3 1.5 1.7-4.9-6.6-2.5-3.2 0.8 1.1 1.6 2.2 2.3 3.4 1.6 2.5 3 5 4.4 7.6 1.5 2.8 2.8 5.7 4.1 8.6 0.9 2.1 2.5 6.3-1.2-3 0.3 0.8 0.7 1.6 1 2.4 0.7 1.8 1.4 3.7 2.1 5.5 2.9 7.9 5.4 16 7.5 24.1 2.4 9.1 4.4 18.3 6.1 27.5 0.9 5.1 1.7 10.2 2.4 15.3 0.8 5.7-0.9-6.7-0.3-2 0.2 1.3 0.3 2.5 0.5 3.8l0.9 8.4c2.3 22.6 2.7 45.5 1.3 68.2-0.4 5.8-0.9 11.5-1.5 17.2-0.3 2.9-0.7 5.8-1 8.6-0.5 3.6 1-7.1 0.5-3.5-0.1 0.7-0.2 1.4-0.3 2.2-0.2 1.7-0.5 3.4-0.8 5.1-1.9 12.1-4.5 24.1-7.7 35.9-3.2 11.7-7.1 23.2-11.7 34.4-2.4 5.7 2.4-5.5 0.4-0.9-0.6 1.4-1.2 2.7-1.8 4.1-1.3 2.9-2.7 5.9-4.2 8.8-2.8 5.6-5.8 11.1-8.9 16.5-3.2 5.4-6.6 10.7-10.2 15.8-1.6 2.3-3.3 4.5-4.9 6.7-3 4 4.4-5.5 0.5-0.6-1.1 1.4-2.2 2.8-3.4 4.2-8.3 10-17.5 19.3-27.5 27.7-1.2 1-2.5 2.1-3.7 3.1-1.7 1.4-7.1 5.3 0.4-0.3-2.8 2.1-5.7 4.2-8.6 6.3-5.5 3.8-11.1 7.4-16.9 10.8-6.3 3.6-12.7 7-19.3 10-1.6 0.8-3.2 1.5-4.9 2.2-0.8 0.4-1.7 0.7-2.5 1.1 7.6-3.5 4.2-1.7 2.4-1-3.7 1.5-7.4 3-11.2 4.3-15.1 5.5-30.7 9.6-46.5 12.6-4.1 0.8-8.3 1.5-12.5 2.2-2.1 0.3-4.3 0.6-6.4 0.9 9.4-1.4-0.1 0-2.3 0.2-9.5 1.1-19 1.8-28.5 2.3-20.6 1-41.3 0.5-61.8-0.9-5.5-0.4-10.9-0.9-16.4-1.4-1.4-0.1-2.8-0.3-4.2-0.4-2.1-0.2-6.1-1.6 0.9 0.2-2.8-0.7-5.9-1-8.8-1.5-10.7-1.8-21.5-3.6-32.2-5.5-21.8-3.9-43.5-8.3-64.9-13.8-11-2.8-21.9-5.9-32.7-9.4-5.1-1.7-10.3-3.4-15.3-5.3-2.5-0.9-5-1.9-7.5-2.9-1.2-0.5-2.5-1-3.7-1.5-1.6-0.6-7.6-3.4-0.4-0.1-19.6-8.9-38.5-18.5-55.8-31.4-1.4-1-4.6-4.2 0.8 0.6l-3-2.4c-2-1.6-3.9-3.3-5.9-5-4.2-3.7-8.2-7.5-12-11.6-3.6-3.7-6.9-7.7-10.2-11.7-3.1-3.8 3.4 4.7 0.6 0.8-0.8-1.1-1.6-2.1-2.3-3.2-1.8-2.5-3.5-5-5.1-7.6-7.2-11.3-12.6-23.5-19-35.2-4.1-7.4-8.3-14.7-11.9-22.3l-2.4-5.1c-0.9-2-3.6-9-0.3-0.4-1.6-4-3.2-8-4.7-12-3-8.2-5.6-16.5-7.9-24.9-2.4-8.9-4.4-18-6-27.1-0.4-2.3-0.8-4.5-1.1-6.8-0.2-1.1-0.3-2.3-0.5-3.4 1.3 8.1 0.5 3.6 0.3 1.8-0.6-4.7-1-9.4-1.4-14-1.6-20.6-0.7-41 1.6-61.6-1 8.8 0.1-0.5 0.5-2.5 0.4-2.6 0.9-5.1 1.4-7.7 1.1-5.6 2.3-11.2 3.7-16.7 2.7-10.5 6-20.9 9.8-31 1-2.6 2.2-5.1 3.1-7.7-2.7 7.5 0.7-1.5 1.5-3.3 2.6-5.7 5.4-11.2 8.3-16.7 5.9-11 12.6-21.6 19.9-31.7 1.7-2.3 3.4-5.7 5.6-7.5l-1.8 2.4c0.7-0.8 1.3-1.7 2-2.5 1-1.2 2-2.5 3-3.7 4.1-5 8.4-9.9 12.9-14.7 4.6-4.9 9.3-9.8 14.2-14.4 2.6-2.4 5.2-4.8 7.8-7.1 4.5-4.1-4.1 2.8 0.8-0.7 1.5-1.1 3-2.2 4.5-3.2 10.4-7 15.9-21.5 8.6-32.8-6.7-10.4-21.7-16.1-32.8-8.6-25.7 17.3-46.7 41.9-64.8 66.7-15.7 21.5-28 44.9-37.8 69.6-16.6 41.8-23.2 88.2-20.1 133 2.8 40 12.3 78.8 29 115.2 3.4 7.4 7.2 14.5 11.2 21.6 6.9 12.2 12.6 25.1 19.9 37.1 12.2 19.9 28 37.7 46.3 52.2 38 30.1 83.3 48.5 129.9 61 22.1 5.9 44.4 10.6 66.9 14.7 23.8 4.4 47.6 8.7 71.8 10.7 42 3.4 84.2 2.3 125.8-5.1 33.1-5.9 65.6-16.8 95-33.2 25.2-14.1 48.4-32.7 67.2-54.6 17.8-20.8 32.4-44 43.1-69.2 10.6-24.8 18.3-50.4 22.7-77 4.2-25.7 6.3-51.6 5.9-77.6-0.4-24-2.9-48.1-7.1-71.8-3.2-18-7.6-35.9-13.9-53-5.8-15.6-12.5-30.6-23.3-43.4-3.7-4.3-7.9-8.3-11.8-12.3a615.11 615.11 0 0 0-35-33.5c-22.8-20.1-47.1-38.8-72.9-54.9-41.6-26.1-87.9-45.9-136-56.1-40.4-8.5-82-11-123.1-6.5-34.5 3.8-68.2 11.3-100.8 23.2-24.1 8.8-47.7 19.4-70 32.2-6.1 3.5-12.1 7.2-18 11-10.5 6.9-15.9 21.5-8.6 32.8 6.6 10.5 21.5 16 32.7 8.6z" fill="#040000" /><path d="M157.70327 377.9c-17.2 4.7-34.2 10.7-50.7 17.4-30.6 12.3-63.8 27-86.5 51.8C8.80327 459.9-0.19673 476 0.00327 493.9c0.3 19.8 11.2 37.6 25.5 50.6C47.10327 564.4 74.00327 577 100.80327 588.1c18 7.5 36.5 14 55.1 19.9 10.8 3.4 21.8 6.4 32.4 10.5 3.5 1.4-5.3-2.4 0.2 0.1 1.1 0.5 2.3 1 3.4 1.5 2.3 1 4.5 2 6.8 2.9 4.6 2 9.3 3.9 14 5.7 37.9 13.7 78.7 20.3 118.5 25.7 64.5 8.8 129.6 12.9 194.7 13.3 80.7 0.5 161.5-4.4 241.7-14.3 46.4-5.7 92.6-12.9 138.5-21.9 23.2-4.5 46.5-9.1 69.4-14.9 23.1-5.8 40.1-23.5 48.3-45.2 5.1-13.4 6.3-29.6 5.6-43.9-1-17.6-5.2-34.8-14.1-50.1-26.4-45.8-82.7-59.2-131.8-61.1-18.4-0.7-36.9 0.2-55.2 1.9-6.5 0.6-12.2 2.3-17 7-4.2 4.2-7.3 11-7 17 0.5 12 10.6 25.3 24 24 18.3-1.7 36.8-2.7 55.2-1.9 7.8 0.3 15.6 1 23.4 1.9 4 0.5-6.4-0.9-0.4 0 1.5 0.2 3.1 0.5 4.6 0.8 3.3 0.6 6.5 1.2 9.8 2 5.7 1.3 11.4 2.9 17 4.9 2.4 0.9 11 5 2.4 0.8 2.3 1.2 4.7 2.1 7 3.3 4.1 2.1 8.1 4.5 11.9 7.2 0.5 0.4 2 1.9 2.7 2 0.2 0-5.3-4.2-3.1-2.4 0.4 0.3 0.8 0.6 1.1 0.9 1.6 1.4 3.2 2.8 4.7 4.3 1.4 1.3 2.7 2.7 4 4.2 0.7 0.7 1.3 1.5 1.9 2.3 3 3.4-3.7-5.1-1.6-2 2.1 3 4.1 6 5.9 9.2 0.8 1.5 1.5 3 2.3 4.6 1.9 4.1-1.8-4.6-1.2-3 0.3 0.9 0.7 1.8 1.1 2.7 1.2 3.1 2.1 6.3 2.9 9.6 0.4 1.5 0.7 3.1 1 4.6 0.1 0.7 0.2 1.4 0.4 2.2 0.8 4.8-0.7-6.5-0.4-3.2 0.3 3 0.6 6.1 0.7 9.1 0.2 5.5-0.1 11.1-0.7 16.6-0.6 5.5 1.1-7.3 0.4-2.6-0.2 1.2-0.4 2.5-0.6 3.7-0.3 1.8-0.7 3.5-1.1 5.3-0.5 1.9-1.4 3.7-1.8 5.6 1.1-4.9 1.6-3.5 0.7-1.8-0.7 1.3-1.3 2.5-2.1 3.8l-1.5 2.4c-2.1 3.3 0.9-1.2 1.2-1.5-1.4 1.1-2.5 2.8-3.8 4.1-0.8 0.8-1.7 1.5-2.6 2.3-2.2 2 4.2-2.8 1.6-1.3-2 1.1-3.9 2.3-5.9 3.4-2.7 1.4 4.9-1.7 2-0.9-0.9 0.3-1.7 0.6-2.6 0.8-2.6 0.7-5.2 1.3-7.8 1.9-5.8 1.3-11.6 2.7-17.4 3.9-43.9 9.7-88.1 17.8-132.5 24.4l-14.7 2.1c-2.7 0.4-5.5 0.8-8.2 1.1-3.5 0.5 4.4-0.6 0.9-0.1-1.5 0.2-3 0.4-4.6 0.6-10.8 1.4-21.7 2.7-32.5 4-20.5 2.3-41.1 4.3-61.6 6-38.6 3.1-77.3 5-116.1 5.7-65.1 1.2-130.4-1-195.3-7.7-6.8-0.7-13.6-1.5-20.5-2.3l-9.6-1.2c-1-0.1-6.8-0.9-1.8-0.2s-1.6-0.2-2.8-0.4c-11.9-1.7-23.8-3.5-35.6-5.6-19.3-3.4-38.6-7.5-57.5-12.8-7.2-2-14.3-4.2-21.4-6.8-1.9-0.7-5.5-1.3-6.8-2.6 0.4 0.4 4.9 2.1 0.6 0.3-1.1-0.5-2.3-1-3.4-1.5-4.2-1.8-8.3-3.6-12.5-5.4-10.2-4.3-20.9-7.1-31.4-10.4-18.2-5.7-36.3-12-54-19.1-1.1-0.5-2.2-0.9-3.3-1.4-2.9-1.2 4.7 2 1.8 0.8-1.9-0.8-3.8-1.6-5.7-2.5-3.6-1.6-7.1-3.2-10.6-4.9-5.9-2.9-11.8-5.9-17.5-9.1-5.2-2.9-10.3-6.1-15.2-9.5-1-0.7-2-1.4-2.9-2.1-0.5-0.3-0.9-0.7-1.4-1-2.7-1.9 3.2 2.4 2.8 2.2-2-1-3.9-3.2-5.6-4.6-3.2-2.8-6.1-5.9-8.9-9.1-2.9-3.2 3.2 4.4 1.8 2.4-0.5-0.7-1-1.3-1.4-2-1-1.4-1.9-2.9-2.7-4.4-1.7-3.2-2.1-6.4 0.3 1.1-0.5-1.5-1.1-3-1.5-4.5-0.2-0.6-0.3-1.3-0.4-1.9-1-3.9 0.7 3.4 0.5 4 0.4-0.9-0.2-3.1-0.2-4.2 0.1-3.6 1.2-5.7-0.5 2 0.3-1.4 0.5-2.9 0.9-4.3 0.3-1.2 0.9-2.3 1.2-3.5 0.6-2.2-3.2 6.9-1.5 3.6 0.4-0.7 0.7-1.4 1.1-2.2 1.4-2.7 3.5-5 4.9-7.6-0.4 0.8-4.7 5.8-2.1 2.8 0.5-0.5 0.9-1.1 1.4-1.6 1.1-1.2 2.2-2.4 3.4-3.6 2.3-2.4 4.8-4.6 7.4-6.7 0.7-0.6 1.4-1.1 2.1-1.7 3.3-2.7-4.6 3.4-2.5 1.9 1.5-1.1 2.9-2.2 4.5-3.3 12.3-8.7 25.8-15.8 39.5-22.1 3.4-1.6 6.9-3.1 10.3-4.6-7.8 3.4-3.2 1.4-0.2 0.1l5.1-2.1c6.1-2.4 12.3-4.7 18.6-6.9 8.4-2.9 16.9-5.7 25.4-8.2 1.2-0.3 2.4-0.7 3.6-1 12.1-3.3 20.7-17.2 16.8-29.5-4.3-12.7-16.9-20.5-29.9-17z" fill="#040000" /><path d="M381.90327 353.6m-22.6 0a22.6 22.6 0 1 0 45.2 0 22.6 22.6 0 1 0-45.2 0Z" fill="#040000" /><path d="M381.90327 377.8c-13.3 0-24.1-10.8-24.1-24.1s10.8-24.1 24.1-24.1 24.1 10.8 24.1 24.1-10.8 24.1-24.1 24.1z m0-45.3c-11.7 0-21.1 9.5-21.1 21.1s9.5 21.1 21.1 21.1 21.1-9.5 21.1-21.1-9.4-21.1-21.1-21.1z" fill="#040000" /><path d="M595.00327 347.5m-22.6 0a22.6 22.6 0 1 0 45.2 0 22.6 22.6 0 1 0-45.2 0Z" fill="#040000" /><path d="M595.00327 371.7c-13.3 0-24.1-10.8-24.1-24.1s10.8-24.1 24.1-24.1 24.1 10.8 24.1 24.1-10.8 24.1-24.1 24.1z m0-45.3c-11.7 0-21.1 9.5-21.1 21.1s9.5 21.1 21.1 21.1 21.1-9.5 21.1-21.1-9.5-21.1-21.1-21.1zM425.30327 407.1c15.6 26.3 46.6 45.2 77.5 36.9 15.9-4.3 29.5-14.6 41-26.1 10.9-10.9-6-27.9-17-17-4.5 4.5-9.3 8.9-14.7 12.4-2.3 1.5-4.7 3-7.2 4.2-2.9 1.5-2.6 1.4-5.8 2.4-2.2 0.7-4.4 1.2-6.6 1.7-2.3 0.6 1.2 0-1.1 0.2-1.2 0.1-2.4 0.2-3.6 0.2-2 0-4-0.1-6-0.3-1.4-0.1 0.7 0.1 0.8 0.1-0.5-0.1-0.9-0.2-1.4-0.3-1.1-0.2-2.1-0.5-3.2-0.7-1.8-0.5-3.5-1.1-5.2-1.7-2.2-0.7 1.5 0.9-0.4-0.2-0.9-0.5-1.9-0.9-2.8-1.4-1.7-0.9-3.3-1.9-4.8-2.9l-2.1-1.5c-0.3-0.2-0.7-0.5-1-0.7-1.3-1 1.7 1.4 0.5 0.4-4.6-3.9-8.7-8-12.6-12.7-1.5-1.8-0.6 0.1 0.4 0.5-0.3-0.2-0.8-1-1-1.4-0.5-0.8-1.1-1.5-1.6-2.3-0.5-0.7-0.9-1.4-1.4-2.1-7.8-13.1-28.6-1-20.7 12.3z" fill="#040000" /></svg>