<svg xmlns="http://www.w3.org/2000/svg" viewBox="0 0 1024 1024" width="200" height="200"><path d="M0 0h1024v1024H0z" fill="#FCFAFB" /><path d="M577.293642 598.368247m-106.502021 0a106.502021 106.502021 0 1 0 213.004042 0 106.502021 106.502021 0 1 0-213.004042 0Z" fill="#CE9A4E" /><path d="M577.293642 723.68688c-69.24513 0-125.318633-56.073502-125.318633-125.318633s56.073502-125.318633 125.318633-125.318633 125.318633 56.073502 125.318633 125.318633-56.073502 125.318633-125.318633 125.318633z m0-213.004043c-48.170526 0-87.68541 39.514884-87.68541 87.68541s39.514884 87.68541 87.68541 87.68541 87.68541-39.514884 87.68541-87.68541-39.514884-87.68541-87.68541-87.68541z" fill="#333333" /><path d="M577.293642 432.029401m-106.502021 0a106.502021 106.502021 0 1 0 213.004042 0 106.502021 106.502021 0 1 0-213.004042 0Z" fill="#CE9A4E" /><path d="M577.293642 557.348034c-69.24513 0-125.318633-56.073502-125.318633-125.318633s56.073502-125.318633 125.318633-125.318633 125.318633 56.073502 125.318633 125.318633-56.073502 125.318633-125.318633 125.318633z m0-213.004043c-48.170526 0-87.68541 39.514884-87.68541 87.68541s39.514884 87.68541 87.68541 87.68541 87.68541-39.514884 87.68541-87.68541-39.514884-87.68541-87.68541-87.68541z" fill="#333333" /><path d="M386.493201 454.609335m-106.502021 0a106.502021 106.502021 0 1 0 213.004042 0 106.502021 106.502021 0 1 0-213.004042 0Z" fill="#CE9A4E" /><path d="M386.493201 579.927968c-69.24513 0-125.318633-56.073502-125.318633-125.318633s56.073502-125.318633 125.318633-125.318633 125.318633 56.073502 125.318633 125.318633-56.073502 125.318633-125.318633 125.318633z m0-213.004043c-48.170526 0-87.68541 39.514884-87.68541 87.68541s39.514884 87.68541 87.68541 87.68541 87.68541-39.514884 87.68541-87.68541-39.514884-87.68541-87.68541-87.68541z" fill="#333333" /><path d="M550.950386 306.710768c35.751562-55.69717 74.513782-60.213157 105.373025-40.267549s42.901874 57.202499 6.77398 112.89967c-35.751562 55.69717-136.6086 88.814406-136.6086 88.814406s-11.289967-105.749357 24.461595-161.446527z" fill="#229456" /><path d="M510.306505 493.371555l-2.634326-22.956267c-0.376332-4.515987-11.666299-112.899669 27.472253-173.489158 21.074605-32.740904 45.159868-52.31018 71.503124-57.955163 20.32194-4.515987 41.020213 0 60.213157 12.042631 19.192944 12.418964 31.611907 29.730246 35.751562 50.052187 5.644983 26.343256-2.257993 56.449835-23.332598 89.190738-38.76222 60.589489-142.253583 94.835722-146.393238 96.341051l-22.579934 6.773981zM622.077178 274.722528c-2.634326 0-5.268651 0.376332-7.526645 0.752665-15.805954 3.38699-32.364572 17.687615-47.794193 41.772878-20.698273 31.98824-24.085263 88.438074-22.956266 124.565968 30.106578-12.795296 81.664094-38.009555 103.491363-72.255788 15.429621-23.708931 21.827269-44.783535 18.440279-60.58949-2.257993-10.537302-8.655641-19.192944-19.569276-26.343256-7.902977-5.268651-16.182286-7.902977-24.085262-7.902977z" fill="#333333" /><path d="M507.672179 149.027563c65.85814 8.279309 86.556413 41.396545 81.664094 77.900772-4.515987 36.504226-33.117236 63.223815-98.975376 54.568174-65.85814-8.279309-139.242925-85.051084-139.242926-85.051085s91.0724-55.69717 156.554208-47.417861z" fill="#229456" /><path d="M514.069827 302.194781c-8.279309 0-16.93495-0.752664-25.966924-1.881661-71.503124-9.031974-147.145902-87.309078-150.532892-90.696067l-16.182286-16.934951 19.945608-12.042631c3.763322-2.257993 97.470048-59.08416 168.59684-50.052187 38.76222 4.892319 66.987137 18.063947 83.169423 39.514884 12.795296 16.558618 17.687615 36.880559 14.676957 59.460493-2.634326 22.203602-12.795296 41.020213-29.353914 53.439177-16.182286 12.795296-37.633223 19.192944-64.352812 19.192943z m-131.339948-101.609702c24.461595 21.827269 69.621463 57.202499 109.889011 62.094818 28.224917 3.763322 50.052187 0.376332 62.847483-9.784638 8.279309-6.397648 13.54796-16.182286 15.053289-28.601249 1.881661-12.795296-0.752664-23.332598-7.150312-31.611908-9.784638-12.795296-30.106578-21.450937-57.955164-25.214259-40.267549-4.892319-93.330393 18.440279-122.684307 33.117236z" fill="#333333" /><path d="M470.415288 242.734289c57.202499-33.493569 93.706725-20.32194 112.523338 11.666299s12.418964 70.374127-44.783536 103.867696-162.199191 17.687615-162.199191 17.687615 37.256891-99.728041 94.459389-133.22161z" fill="#229456" /><path d="M432.405733 398.535832c-31.98824 0-56.826167-3.763322-59.08416-3.763322l-22.956266-3.38699 8.279309-21.827269c1.505329-4.139655 40.267549-106.502021 102.738699-143.006248 88.061742-51.557516 127.952958 1.128997 138.113929 18.440279 11.666299 19.569276 15.053289 40.643881 9.784638 60.589489-6.77398 25.966924-27.472253 49.299522-61.342154 69.245131-33.493569 19.192944-79.406101 23.708931-115.533995 23.70893z m-28.977582-38.762219c32.740904 2.257993 90.319735 2.634326 125.318633-17.687615 24.461595-14.300625 39.514884-30.106578 43.654539-45.912532 2.634326-10.16097 0.752664-21.074605-5.644983-31.98824-16.182286-27.472253-45.5362-29.353914-86.932746-4.892319-32.740904 19.192944-60.965821 67.739802-76.395443 100.480706z" fill="#333333" /><path d="M386.493201 810.995957m-106.502021 0a106.502021 106.502021 0 1 0 213.004042 0 106.502021 106.502021 0 1 0-213.004042 0Z" fill="#CE9A4E" /><path d="M386.493201 936.31459c-69.24513 0-125.318633-56.073502-125.318633-125.318633s56.073502-125.318633 125.318633-125.318632 125.318633 56.073502 125.318633 125.318632-56.073502 125.318633-125.318633 125.318633z m0-213.004042c-48.170526 0-87.68541 39.514884-87.68541 87.685409s39.514884 87.68541 87.68541 87.68541 87.68541-39.514884 87.68541-87.68541-39.514884-87.68541-87.68541-87.685409z" fill="#333333" /><path d="M279.99118 645.033444m-106.502022 0a106.502021 106.502021 0 1 0 213.004043 0 106.502021 106.502021 0 1 0-213.004043 0Z" fill="#CE9A4E" /><path d="M279.99118 770.352076c-69.24513 0-125.318633-56.073502-125.318633-125.318632s56.073502-125.318633 125.318633-125.318633 125.318633 56.073502 125.318633 125.318633-56.073502 125.318633-125.318633 125.318632z m0-213.004042c-48.170526 0-87.68541 39.514884-87.68541 87.68541s39.514884 87.68541 87.68541 87.685409 87.68541-39.514884 87.685409-87.685409-39.514884-87.68541-87.685409-87.68541z" fill="#333333" /><path d="M418.481441 645.033444m-106.502022 0a106.502021 106.502021 0 1 0 213.004043 0 106.502021 106.502021 0 1 0-213.004043 0Z" fill="#CE9A4E" /><path d="M418.481441 770.352076c-69.24513 0-125.318633-56.073502-125.318633-125.318632s56.073502-125.318633 125.318633-125.318633 125.318633 56.073502 125.318633 125.318633-56.073502 125.318633-125.318633 125.318632z m0-213.004042c-48.170526 0-87.68541 39.514884-87.68541 87.68541s39.514884 87.68541 87.68541 87.685409 87.68541-39.514884 87.685409-87.685409-39.514884-87.68541-87.685409-87.68541z" fill="#333333" /><path d="M744.00882 801.211319m-106.502021 0a106.502021 106.502021 0 1 0 213.004043 0 106.502021 106.502021 0 1 0-213.004043 0Z" fill="#FFFEF8" /><path d="M744.00882 926.529952c-69.24513 0-125.318633-56.073502-125.318633-125.318633s56.073502-125.318633 125.318633-125.318632 125.318633 56.073502 125.318633 125.318632-56.073502 125.318633-125.318633 125.318633z m0-213.004042c-48.170526 0-87.68541 39.514884-87.685409 87.685409s39.514884 87.68541 87.685409 87.68541 87.68541-39.514884 87.68541-87.68541-39.514884-87.68541-87.68541-87.685409z" fill="#333333" /><path d="M744.00882 801.211319m-16.93495 0a16.93495 16.93495 0 1 0 33.869901 0 16.93495 16.93495 0 1 0-33.869901 0Z" fill="#333333" /><path d="M823.414921 301.818449c-3.010658 0-6.021316-0.752664-9.031974-2.257993-103.115031-56.449835-66.234473-192.30577-64.729143-197.950754 2.634326-10.16097 13.171628-15.805954 23.332598-13.171628 10.16097 2.634326 15.805954 13.171628 13.171628 23.332599-1.128997 4.515987-30.106578 112.899669 46.665197 155.048879 9.031974 4.892319 12.418964 16.558618 7.526644 25.590591-3.763322 6.021316-10.16097 9.408306-16.93495 9.408306z" fill="#333333" /><path d="M590.088938 286.76516c-2.634326 0-5.644983-0.752664-8.279309-1.881661-9.408306-4.515987-13.171628-15.805954-8.655641-25.21426 51.933848-105.373025 189.295112-74.890114 194.940095-73.761117 10.16097 2.257993 16.558618 12.418964 13.924293 22.579934-2.257993 10.16097-12.418964 16.558618-22.579934 13.924292-4.515987-1.128997-114.028666-25.214259-152.790886 53.439177-3.010658 7.150312-9.784638 10.913635-16.558618 10.913635z" fill="#333333" /></svg>