<svg xmlns="http://www.w3.org/2000/svg" viewBox="0 0 1024 1024" width="200" height="200"><path d="M284.818286 634.002286a153.965714 153.965714 0 0 1-23.844572-1.828572 157.476571 157.476571 0 0 1-131.657143-179.126857l0.877715-4.681143a154.989714 154.989714 0 0 1-33.060572-120.173714c8.777143-57.563429 49.664-104.740571 109.714286-126.464 14.994286-50.688 66.267429-85.869714 125.366857-85.869714a150.820571 150.820571 0 0 1 22.893714 1.755428 147.675429 147.675429 0 0 1 43.081143 13.385143 134.875429 134.875429 0 0 1 102.4-44.690286 149.869714 149.869714 0 0 1 22.820572 1.755429 143.286857 143.286857 0 0 1 91.867428 52.809143 141.677714 141.677714 0 0 1 63.707429-14.628572 160.914286 160.914286 0 0 1 22.893714 1.755429c50.029714 7.68 91.501714 39.058286 108.544 82.139429h2.998857a84.553143 84.553143 0 0 1 13.604572 1.024c45.129143 6.875429 76.8 45.494857 70.582857 86.089142a56.100571 56.100571 0 0 1-1.682286 7.899429 155.721143 155.721143 0 0 1 31.232 117.76c-10.313143 67.730286-65.170286 120.612571-139.849143 134.802286-20.992 40.740571-66.998857 66.998857-117.686857 66.998857a150.089143 150.089143 0 0 1-22.893714-1.755429 145.481143 145.481143 0 0 1-80.457143-40.082285A142.482286 142.482286 0 0 1 485.668571 607.085714a150.820571 150.820571 0 0 1-22.893714-1.755428 147.529143 147.529143 0 0 1-61.001143-23.844572 157.769143 157.769143 0 0 1-116.955428 52.516572z" fill="#78A74C" /><path d="M500.516571 100.937143a132.681143 132.681143 0 0 1 20.626286 1.609143 127.853714 127.853714 0 0 1 82.505143 47.250285 14.628571 14.628571 0 0 0 11.629714 5.485715A14.628571 14.628571 0 0 0 621.714286 153.6a128.512 128.512 0 0 1 57.051428-13.092571 143.067429 143.067429 0 0 1 20.699429 1.536c46.518857 7.314286 83.236571 36.571429 97.499428 73.947428a14.628571 14.628571 0 0 0 13.531429 8.411429h2.706286a76.361143 76.361143 0 0 1 11.410285 0.877714c37.229714 5.632 63.341714 36.571429 58.514286 69.412571a59.099429 59.099429 0 0 1-1.682286 7.314286 11.117714 11.117714 0 0 0 1.828572 10.386286 141.385143 141.385143 0 0 1 29.257143 107.885714c-9.654857 63.268571-62.464 110.518857-128.877715 122.806857a12.361143 12.361143 0 0 0-8.923428 6.436572c-18.066286 36.571429-59.026286 60.196571-105.252572 60.196571a132.900571 132.900571 0 0 1-20.699428-1.609143 129.755429 129.755429 0 0 1-72.484572-35.913143 15.067429 15.067429 0 0 0-10.678857-4.315428 14.189714 14.189714 0 0 0-8.118857 2.486857 125.659429 125.659429 0 0 1-71.899428 21.942857 133.632 133.632 0 0 1-20.699429-1.609143 131.657143 131.657143 0 0 1-64.146286-28.306285 7.314286 7.314286 0 0 0-1.609143-0.950858 142.921143 142.921143 0 0 1-114.395428 57.709715 136.265143 136.265143 0 0 1-21.942857-1.682286 142.628571 142.628571 0 0 1-119.149715-162.230857c0.585143-3.584 1.389714-7.314286 2.194286-10.605714a142.482286 142.482286 0 0 1-34.450286-114.176c8.265143-54.125714 48.201143-96.548571 101.156572-115.419429a11.410286 11.410286 0 0 0 7.314286-7.314286c12.653714-45.641143 58.514286-76.946286 111.762285-76.946285a142.336 142.336 0 0 1 20.699429 1.536 133.778286 133.778286 0 0 1 38.985143 11.776 15.213714 15.213714 0 0 0 6.802285 1.609142 13.238857 13.238857 0 0 0 10.166858-4.388571 120.832 120.832 0 0 1 92.233142-40.374857m0-29.257143a150.601143 150.601143 0 0 0-106.203428 41.764571 163.181714 163.181714 0 0 0-37.449143-10.313142 169.691429 169.691429 0 0 0-25.088-1.901715c-62.829714 0-117.76 36.571429-137.069714 89.307429-61.220571 24.576-102.985143 74.678857-112.201143 135.460571a169.033143 169.033143 0 0 0 32.036571 126.171429 171.958857 171.958857 0 0 0 144.237715 194.486857 171.373714 171.373714 0 0 0 145.261714-46.372571A163.84 163.84 0 0 0 460.8 619.812571a160.914286 160.914286 0 0 0 24.868571 1.901715 157.622857 157.622857 0 0 0 78.555429-20.845715 165.449143 165.449143 0 0 0 105.325714 38.180572c53.540571 0 102.4-26.697143 127.268572-68.681143 77.312-17.261714 133.778286-73.654857 144.749714-145.554286a169.179429 169.179429 0 0 0-29.988571-123.172571l0.438857-2.486857a84.626286 84.626286 0 0 0-19.894857-68.022857 101.814857 101.814857 0 0 0-62.976-34.742858c-2.998857-0.438857-6.070857-0.804571-9.142858-0.950857a152.722286 152.722286 0 0 0-116.004571-82.139428 162.450286 162.450286 0 0 0-84.772571 9.581714 159.597714 159.597714 0 0 0-93.622858-49.298286 171.154286 171.154286 0 0 0-25.088-1.901714z" fill="#333333" /><path d="M774.290286 385.462857a7.314286 7.314286 0 0 1-1.389715-6.875428 33.206857 33.206857 0 0 0 1.170286-4.827429c3.291429-21.942857-15.872-42.569143-42.788571-46.665143a56.978286 56.978286 0 0 0-9.874286-0.658286 11.044571 11.044571 0 0 1-10.166857-5.705142c-10.678857-24.868571-37.449143-44.909714-71.094857-50.102858a101.083429 101.083429 0 0 0-56.100572 7.314286 11.629714 11.629714 0 0 1-13.165714-2.779428 97.133714 97.133714 0 0 0-59.977143-32.182858c-32.694857-4.973714-63.341714 5.339429-81.188571 24.722286a10.825143 10.825143 0 0 1-12.214857 1.755429 106.422857 106.422857 0 0 0-28.233143-8.411429c-44.397714-6.729143-85.138286 14.628571-95.085715 48.932572a7.753143 7.753143 0 0 1-5.266285 5.046857c-38.107429 11.995429-66.56 39.789714-72.045715 75.702857A91.501714 91.501714 0 0 0 242.834286 466.651429c-0.512 2.340571-1.097143 4.608-1.462857 7.314285-7.899429 51.638857 31.451429 100.498286 87.771428 109.056a104.667429 104.667429 0 0 0 97.792-36.059428c0.365714 0 0.804571 0.365714 1.170286 0.658285a101.814857 101.814857 0 0 0 46.592 19.456 97.645714 97.645714 0 0 0 66.56-13.019428 11.629714 11.629714 0 0 1 13.604571 1.316571 99.913143 99.913143 0 0 0 52.662857 24.576c39.424 5.997714 75.849143-10.313143 90.477715-37.814857a8.484571 8.484571 0 0 1 6.363428-4.169143c47.835429-7.314286 85.650286-38.546286 92.013715-80.457143a90.258286 90.258286 0 0 0-22.089143-72.045714z" fill="#5E7536" /><path d="M416.914286 937.691429a14.628571 14.628571 0 0 1-14.628572-14.628572V552.521143a367.104 367.104 0 0 1-68.754285-42.057143c-47.689143-35.84-55.808-63.561143-56.612572-66.56a14.628571 14.628571 0 0 1 14.189714-18.212571 14.189714 14.189714 0 0 1 6.656 1.609142c0.731429 0 67.364571 34.450286 99.401143 42.715429a393.581714 393.581714 0 0 0 78.262857 6.948571L496.054857 314.514286a14.628571 14.628571 0 0 1 29.257143 0l20.333714 162.230857c19.675429-0.877714 58.514286-2.852571 95.085715-6.729143a255.341714 255.341714 0 0 0 89.380571-27.428571 14.628571 14.628571 0 0 1 7.314286-1.901715 14.628571 14.628571 0 0 1 11.702857 23.332572 228.864 228.864 0 0 1-94.427429 70.875428A438.857143 438.857143 0 0 1 577.828571 555.446857v367.616a14.628571 14.628571 0 0 1-14.628571 14.628572z" fill="#E3661C" /><path d="M510.537143 315.977143l21.942857 175.542857s56.027429-1.682286 109.714286-7.314286a269.165714 269.165714 0 0 0 95.085714-29.257143s-34.669714 46.445714-87.771429 65.828572a365.714286 365.714286 0 0 1-86.308571 21.942857v380.342857H416.914286v-380.342857s-29.696-10.093714-74.605715-43.885714-51.2-58.514286-51.2-58.514286 68.388571 35.108571 102.4 43.885714c25.673143 6.582857 66.706286 7.314286 85.357715 7.314286h9.728l21.942857-175.542857m0-29.257143a29.257143 29.257143 0 0 0-29.257143 25.6l-18.505143 149.796571a314.514286 314.514286 0 0 1-61.952-6.290285c-25.307429-6.509714-78.116571-32.182857-96.329143-41.545143a29.257143 29.257143 0 0 0-41.764571 33.206857c1.536 5.778286 11.410286 36.571429 61.952 74.678857A407.771429 407.771429 0 0 0 387.657143 561.810286v361.252571a29.257143 29.257143 0 0 0 29.257143 29.257143h146.285714a29.257143 29.257143 0 0 0 29.257143-29.257143V567.588571a482.742857 482.742857 0 0 0 67.072-19.017142c60.635429-21.942857 99.547429-73.581714 101.229714-75.776a29.257143 29.257143 0 0 0-37.961143-42.934858 243.858286 243.858286 0 0 1-83.675428 25.6c-29.257143 3.072-59.977143 4.973714-80.969143 5.997715L539.574857 312.32a29.257143 29.257143 0 0 0-29.257143-25.6z" fill="#333333" /><path d="M791.990857 937.691429H232.009143" fill="#5E7536" /><path d="M792.064 952.32H232.009143a14.628571 14.628571 0 1 1 0-29.257143h560.054857a14.628571 14.628571 0 1 1 0 29.257143z" fill="#333333" /><path d="M632.173714 234.057143a35.986286 35.986286 0 1 0-5.046857-26.989714 36.571429 36.571429 0 0 0 5.046857 26.989714M721.846857 260.534857a21.942857 21.942857 0 0 0 13.604572 9.362286 21.942857 21.942857 0 1 0-16.676572-25.526857 21.942857 21.942857 0 0 0 3.072 16.164571" fill="#F8FFE6" /></svg>