<svg xmlns="http://www.w3.org/2000/svg" viewBox="0 0 1024 1024" width="200" height="200"><path d="M591.5392 381.2096c-21.6832 56.2944-35.1744 122.2912-35.1744 154.5728 0 62.464 50.6368 113.1008 113.1008 113.1008s113.1008-50.6368 113.1008-113.1008c0-32.256-13.5168-98.2784-35.1744-154.5728h-155.8528z" fill="#E3E8FF" /><path d="M556.3648 535.7824c0 62.464 50.6368 113.1008 113.1008 113.1008s113.1008-50.6368 113.1008-113.1008c0-2.4576-0.0768-5.12-0.2304-7.936h-225.7408c-0.1536 2.816-0.2304 5.4784-0.2304 7.936zM431.9744 308.736V183.7312h-67.2768v125.0048c0 3.5072-2.1504 6.656-5.376 8.0128-36.7616 15.3088-62.6176 51.5584-62.6176 93.8496V827.648c0 13.1072 10.624 23.7056 23.7056 23.7056h155.8528c13.1072 0 23.7056-10.624 23.7056-23.7056V410.5984c0-42.3168-25.856-78.5664-62.6176-93.8496a8.73216 8.73216 0 0 1-5.376-8.0128z" fill="#75415F" /><path d="M424.2176 139.5712H372.48c-10.368 0-18.7904 8.4224-18.7904 18.7904v9.1392c0 10.368 8.4224 18.7904 18.7904 18.7904h51.7376c10.368 0 18.7904-8.4224 18.7904-18.7904v-9.1392c0-10.368-8.4224-18.7904-18.7904-18.7904z" fill="#E3E8FF" /><path d="M296.704 536.5248h148.1216v182.9632H296.704z" fill="#FFFFFF" /><path d="M513.1776 46.6176c-256.5376 0-465.2544 208.7168-465.2544 465.2544s208.7168 465.2544 465.2544 465.2544S978.432 768.4096 978.432 511.872 769.7152 46.6176 513.1776 46.6176z m0 894.6688c-236.7744 0-429.4144-192.64-429.4144-429.4144S276.4032 82.4576 513.1776 82.4576 942.592 275.0976 942.592 511.872s-192.64 429.4144-429.4144 429.4144z" fill="#474E54" /><path d="M764.1088 374.784a17.9456 17.9456 0 0 0-16.7168-11.4944h-155.8528a17.8944 17.8944 0 0 0-16.7168 11.4688c-20.736 53.8624-36.3776 123.0848-36.3776 160.9984 0 66.176 49.3056 121.0112 113.1008 129.7664v96.3584l-51.9936 31.6928c-11.9808 7.296-17.5104 21.2992-13.696 34.816s15.7696 22.6048 29.824 22.6048h107.6224c14.0544 0 26.0352-9.088 29.824-22.6048s-1.7152-27.52-13.696-34.816l-51.9936-31.6928v-96.3584c63.7952-8.7808 113.1008-63.616 113.1008-129.7664 0-0.9472-0.0256-1.92-0.0256-2.944-0.8192-38.4512-16.1792-105.5232-36.4032-158.0288z m-160.1024 24.3456h130.9184c13.9776 39.1168 23.68 80.7936 27.6736 110.7968h-186.2656c3.9936-30.0032 13.696-71.68 27.6736-110.7968z m159.4624 151.6544c-0.2048 1.3312-0.4352 2.6624-0.7168 3.9936-0.1024 0.5376-0.256 1.0752-0.3584 1.6128a56.96256 56.96256 0 0 1-1.1776 4.6592c-0.2304 0.8448-0.4608 1.7152-0.7168 2.56-0.2048 0.64-0.4096 1.28-0.6144 1.8944-0.256 0.7936-0.5376 1.5872-0.8192 2.3808-0.2304 0.64-0.4864 1.28-0.7168 1.92-0.2816 0.768-0.5888 1.5104-0.896 2.2784-0.256 0.64-0.5376 1.28-0.8192 1.92-0.3328 0.7424-0.64 1.4592-0.9984 2.2016-0.3072 0.64-0.6144 1.2544-0.9216 1.8688-0.3584 0.7168-0.7168 1.4336-1.1008 2.1248l-0.9984 1.8432c-0.384 0.6912-0.768 1.3824-1.1776 2.048-0.3584 0.5888-0.7168 1.2032-1.0752 1.792-0.4096 0.6656-0.8448 1.3312-1.28 1.9968-0.384 0.5888-0.768 1.152-1.152 1.7408-0.4608 0.6656-0.9216 1.3056-1.3824 1.9456l-1.2032 1.664c-0.4864 0.64-0.9984 1.28-1.4848 1.8944l-1.2544 1.5616c-0.5376 0.64-1.0752 1.2544-1.6384 1.8688-0.4352 0.4864-0.8448 0.9728-1.28 1.4592-0.5888 0.64-1.2032 1.2544-1.792 1.8944-0.4096 0.4352-0.8192 0.8704-1.2544 1.3056-0.7424 0.7168-1.4848 1.4336-2.2272 2.1248-0.3328 0.3072-0.64 0.6144-0.9728 0.9216-1.0752 0.9728-2.2016 1.9456-3.328 2.8928-0.3584 0.3072-0.7168 0.5632-1.1008 0.8704-0.7936 0.64-1.5872 1.28-2.3808 1.8688-0.4864 0.3584-0.9728 0.6912-1.4592 1.0496-0.7168 0.512-1.4336 1.0496-2.176 1.536-0.5376 0.3584-1.0752 0.6912-1.6128 1.0496-0.6912 0.4608-1.408 0.9216-2.1248 1.3568-0.5632 0.3584-1.152 0.6912-1.7152 1.024-0.7168 0.4096-1.408 0.8448-2.1504 1.2288-0.5888 0.3328-1.1776 0.64-1.7664 0.9472-0.7168 0.384-1.4592 0.768-2.2016 1.1264-0.6144 0.3072-1.2288 0.5888-1.8432 0.8704-0.7424 0.3584-1.4848 0.6912-2.2272 1.024-0.64 0.2816-1.2544 0.5376-1.8944 0.7936-0.768 0.3072-1.5104 0.6144-2.2784 0.896-0.64 0.2304-1.28 0.4864-1.92 0.7168-0.768 0.2816-1.5616 0.5376-2.3552 0.7936-0.64 0.2048-1.3056 0.4096-1.9712 0.6144l-2.4064 0.6912-1.9712 0.5376c-0.8192 0.2048-1.664 0.384-2.4832 0.5888-0.6656 0.1536-1.3056 0.3072-1.9712 0.4352-0.8704 0.1792-1.7152 0.3072-2.5856 0.4608-0.64 0.1024-1.3056 0.2304-1.9456 0.3328-0.9216 0.128-1.8432 0.2304-2.7648 0.3584l-1.8432 0.2304c-1.024 0.1024-2.0736 0.1792-3.1232 0.2304-0.5376 0.0256-1.0496 0.0768-1.5616 0.1024-1.5616 0.0768-3.1488 0.128-4.736 0.128s-3.1744-0.0512-4.736-0.128c-0.5376-0.0256-1.0496-0.0768-1.5872-0.1024-1.0496-0.0768-2.0736-0.128-3.0976-0.2304-0.6144-0.0512-1.2288-0.1536-1.8688-0.2304-0.9216-0.1024-1.8432-0.2048-2.7648-0.3584-0.6656-0.1024-1.3056-0.2304-1.9712-0.3328-0.8704-0.1536-1.7152-0.2816-2.5856-0.4608-0.6656-0.128-1.3312-0.2816-1.9968-0.4352-0.8192-0.1792-1.664-0.3584-2.4832-0.5632l-1.9968-0.5376c-0.7936-0.2304-1.5872-0.4352-2.3808-0.6912-0.6656-0.2048-1.3312-0.4096-1.9968-0.64-0.768-0.256-1.5616-0.512-2.3296-0.7936-0.6656-0.2304-1.3056-0.4608-1.9456-0.7168-0.768-0.2816-1.5104-0.5888-2.2528-0.896-0.64-0.256-1.28-0.5376-1.92-0.8192-0.7424-0.3328-1.4592-0.6656-2.2016-0.9984-0.6144-0.2816-1.2544-0.5888-1.8688-0.896-0.7168-0.3584-1.4336-0.7168-2.1504-1.1008-0.6144-0.3328-1.2288-0.64-1.8176-0.9728-0.7168-0.384-1.408-0.7936-2.0992-1.2032-0.5888-0.3328-1.1776-0.6912-1.7664-1.0496a93.952 93.952 0 0 1-2.0736-1.3312c-0.5632-0.3584-1.1264-0.7168-1.664-1.1008-0.6912-0.4864-1.3824-0.9728-2.0736-1.4848-0.512-0.3584-1.024-0.7168-1.536-1.1008-0.7424-0.5632-1.4848-1.152-2.2272-1.7408-0.4096-0.3328-0.8448-0.6656-1.2544-0.9984-1.1264-0.9216-2.2272-1.8944-3.3024-2.8672-0.384-0.3584-0.7424-0.7168-1.1264-1.0752-0.6912-0.6656-1.3824-1.3056-2.0736-1.9712-0.4608-0.4608-0.896-0.9216-1.3312-1.3824-0.5888-0.5888-1.1776-1.2032-1.7408-1.8176-0.4608-0.4864-0.896-1.024-1.3312-1.5104-0.5376-0.5888-1.0496-1.2032-1.5616-1.8176l-1.3056-1.6128-1.4592-1.8432c-0.4352-0.5632-0.8448-1.1264-1.2544-1.6896-0.4608-0.64-0.9216-1.2544-1.3568-1.8944-0.4096-0.5888-0.7936-1.1776-1.1776-1.7664-0.4352-0.64-0.8448-1.3056-1.2544-1.9712-0.384-0.5888-0.7424-1.2032-1.1008-1.8176-0.384-0.6656-0.7936-1.3312-1.152-2.0224-0.3584-0.6144-0.6912-1.2544-1.024-1.8688-0.3584-0.6912-0.7168-1.3824-1.0752-2.0992-0.3072-0.64-0.6144-1.2544-0.9216-1.8944-0.3328-0.7168-0.6656-1.4592-0.9984-2.176a82.37056 82.37056 0 0 1-1.7152-4.1728c-0.256-0.64-0.4864-1.28-0.7424-1.9456-0.2816-0.7936-0.5376-1.5872-0.7936-2.3808-0.2048-0.64-0.4352-1.28-0.6144-1.92-0.256-0.8448-0.4864-1.6896-0.7168-2.5344-0.1792-0.6144-0.3584-1.2288-0.512-1.8432-0.2304-0.9472-0.4352-1.8944-0.6656-2.8416-0.128-0.5376-0.256-1.0752-0.3584-1.6128-0.256-1.3312-0.512-2.6624-0.7168-3.9936-0.0256-0.1792-0.0768-0.3584-0.1024-0.5376-0.2304-1.4848-0.4096-2.9696-0.5632-4.48h189.3376c-0.1536 1.5104-0.3328 2.9952-0.5632 4.48-0.1024 0.2048-0.128 0.384-0.1536 0.5632z m-130.4832 264.4224l36.48-22.2208 36.48 22.2208h-72.96zM449.8944 302.72V193.6896c6.784-6.656 11.008-15.9232 11.008-26.1888v-9.1392c0-20.2496-16.4608-36.7104-36.7104-36.7104h-51.712c-20.2496 0-36.7104 16.4608-36.7104 36.7104v9.1392c0 10.24 4.224 19.5072 11.008 26.1888v109.0304c-41.5232 19.8144-67.9936 61.5168-67.9936 107.8784v417.0752c0 22.9632 18.688 41.6256 41.6256 41.6256h155.8528c22.9632 0 41.6256-18.688 41.6256-41.6256V410.5984c0.0256-46.3872-26.4704-88.064-67.9936-107.8784zM372.48 157.4912h51.7376c0.4864 0 0.8704 0.384 0.8704 0.8704v7.4496h-53.4784v-7.4496c0-0.4864 0.384-0.8704 0.8704-0.8704z m-57.856 396.9536h112.2816v147.1232H314.624v-147.1232z m167.4496 273.2032c0 3.2-2.6112 5.7856-5.7856 5.7856h-155.8528c-3.2 0-5.7856-2.6112-5.7856-5.7856v-90.2656h130.2016c9.9072 0 17.92-8.0128 17.92-17.92v-182.9632c0-9.9072-8.0128-17.92-17.92-17.92H314.624v-108.0064c0-33.92 20.2496-64.2816 51.584-77.312a26.5472 26.5472 0 0 0 16.4352-24.5504V204.2112h31.4368v104.4992c0 10.752 6.4512 20.4032 16.4096 24.5504a83.52 83.52 0 0 1 51.584 77.312V827.648z" fill="#474E54" /><path d="M344.7808 493.3376c-8.4736 0-15.36-6.8864-15.36-15.36v-52.4544c0.0512-2.8416 1.4848-64.3584 47.8976-83.8144 7.808-3.2768 16.8192 0.4096 20.096 8.2176s-0.4096 16.8192-8.2176 20.096c-27.2128 11.4176-28.9792 53.4528-29.056 55.68v52.2752c0 8.4736-6.8608 15.36-15.36 15.36z" fill="#F7F8F8" /><path d="M609.8944 530.4064h-0.1792a15.3728 15.3728 0 0 1-15.1808-15.5392c0.3072-26.496 5.5552-56.9344 15.616-90.4704 2.432-8.1152 11.008-12.7488 19.1232-10.2912 8.1152 2.432 12.7488 11.008 10.2912 19.1232-9.2416 30.7968-14.0544 58.3936-14.336 81.9968a15.32928 15.32928 0 0 1-15.3344 15.1808z" fill="#F7F8F8" /></svg>