<svg xmlns="http://www.w3.org/2000/svg" viewBox="0 0 1024 1024" width="200" height="200"><path d="M511.99626 512m-473.676848 0a473.676848 473.676848 0 1 0 947.353697 0 473.676848 473.676848 0 1 0-947.353697 0Z" fill="#F3EA83" /><path d="M407.33307 901.671064a16.992623 16.992623 0 0 1-33.970288 0v-41.958018a16.977665 16.977665 0 1 1 33.970288 0v41.958018zM619.150007 901.671064a16.992623 16.992623 0 0 1-33.970288 0v-41.958018a16.977665 16.977665 0 1 1 33.970288 0v41.958018z" fill="#626463" /><path d="M703.357728 522.956951v15.018128a27.710241 27.710241 0 0 1 16.835561 25.488935v39.115941c0 11.443096-6.940649 21.270695-16.835561 25.496414v15.010649a35.211826 35.211826 0 0 0 35.211827-35.196868v-49.713893a35.211826 35.211826 0 0 0-35.211827-35.219306z" fill="#626463" /><path d="M439.568196 149.799845a24.262354 24.262354 0 0 1 24.262355-24.262354h61.680529a24.262354 24.262354 0 0 1 24.269834 24.262354v143.644507h15.900667v-156.837723a31.262837 31.262837 0 0 0-31.277795-31.262837H454.930365a31.262837 31.262837 0 0 0-31.262836 31.262837v156.845202h15.900667V149.799845z" fill="#626463" /><path d="M573.257958 121.124794c0 8.713207-5.586923 15.773522-12.482698 15.773522h-132.829659c-6.895774 0-12.482697-7.060315-12.482697-15.773522 0-8.720686 5.586923-15.781001 12.482697-15.781002h132.837139c6.888295 0 12.475218 7.060315 12.475218 15.781002z" fill="#626463" /><path d="M707.074865 848.89072a45.450779 45.450779 0 0 1-45.443301 45.450779H330.881225a45.450779 45.450779 0 0 1-45.45078-45.450779V338.259404a45.4433 45.4433 0 0 1 45.45078-45.4433h330.750339a45.4433 45.4433 0 0 1 45.443301 45.4433v510.631316z" fill="#67B8CB" /><path d="M665.894678 809.774778a36.573031 36.573031 0 0 1-36.58051 36.565552H363.191142a36.573031 36.573031 0 0 1-36.580511-36.565552V590.0823c0-20.193698 16.379333-36.573031 36.580511-36.573031h266.130505a36.573031 36.573031 0 0 1 36.580511 36.573031v219.692478z" fill="#40ABB6" /><path d="M665.894678 831.875659a36.573031 36.573031 0 0 1-36.58051 36.573031H363.191142a36.58051 36.58051 0 0 1-36.580511-36.573031l5.52709-219.692478c0-20.193698 16.379333-36.573031 36.573032-36.573032h253.827307a36.573031 36.573031 0 0 1 36.565552 36.573032l6.791066 219.692478z" fill="#58B4C3" /><path d="M607.347912 614.56155H383.900901c-2.789722 0-5.055904 4.943716-5.055903 11.05418 0 6.088026 2.266182 11.046701 5.055903 11.0467h223.447011c2.789722 0 5.055904-4.951196 5.055904-11.0467 0-6.110464-2.266182-11.05418-5.055904-11.05418z" fill="#40ABB6" /><path d="M607.347912 623.087778H383.900901c-2.789722 0-5.055904 1.129351-5.055903 2.527952s2.266182 2.527952 5.055903 2.527951h223.447011c2.789722 0 5.055904-1.129351 5.055904-2.527951s-2.266182-2.527952-5.055904-2.527952z" fill="#28868C" /><path d="M610.885549 632.257213v-0.164542c0-3.545116-1.862308-6.394671-4.173365-6.394671s-4.173364 2.857034-4.173364 6.394671l0.007479 0.164542a5.310195 5.310195 0 0 0-1.204143 3.350658 5.370028 5.370028 0 0 0 10.740056 0 5.399944 5.399944 0 0 0-1.196663-3.350658z" fill="#258B90" /><path d="M665.894678 475.225032a36.573031 36.573031 0 0 1-36.58051 36.565552H363.191142a36.573031 36.573031 0 0 1-36.580511-36.565552V372.925252c0-20.186219 16.379333-36.573031 36.580511-36.573031h266.130505a36.58051 36.58051 0 0 1 36.580511 36.573031V475.225032z" fill="#40ABB6" /><path d="M665.894678 475.225032a36.573031 36.573031 0 0 1-36.58051 36.565552H363.191142a36.573031 36.573031 0 0 1-36.580511-36.565552l5.52709-83.968389c0-20.193698 16.379333-36.573031 36.573032-36.573031h253.827307a36.573031 36.573031 0 0 1 36.565552 36.573031l6.791066 83.968389z" fill="#58B4C3" /><path d="M607.347912 373.142148H383.900901c-2.789722 0-5.055904 4.936237-5.055903 11.039221s2.266182 11.061659 5.055903 11.061659h223.447011c2.789722 0 5.055904-4.958675 5.055904-11.061659s-2.266182-11.039222-5.055904-11.039221z" fill="#40ABB6" /><path d="M607.347912 381.653417H383.900901c-2.789722 0-5.055904 1.121872-5.055903 2.520473s2.266182 2.527952 5.055903 2.527952h223.447011c2.789722 0 5.055904-1.129351 5.055904-2.527952s-2.266182-2.520473-5.055904-2.520473z" fill="#28868C" /><path d="M610.885549 390.830331v-0.179499c0-3.537637-1.862308-6.387192-4.173365-6.387192s-4.173364 2.857034-4.173364 6.387192l0.007479 0.179499a5.295236 5.295236 0 0 0-1.204143 3.343179 5.370028 5.370028 0 0 0 10.740056 0 5.377507 5.377507 0 0 0-1.196663-3.343179z" fill="#258B90" /><path d="M332.661262 350.540164l-1.40608-3.253429c10.70266-4.689425 16.461604-11.787136 16.461604-16.267146 0-4.853967-6.865857-8.930102-9.505997-10.104328l1.421038-3.24595c0.471186 0.201937 11.630074 5.168091 11.637554 13.32784 0 6.200213-6.162818 14.083235-18.608119 19.543013z" fill="#258B90" /><path d="M321.36027 315.388171s-28.435719 45.70507-24.382021 57.043458l29.901632 83.744014c4.03874 11.323429 12.564968 14.786275 23.888397 10.740056l44.433615-15.863272c11.330908-4.046219 15.033086-11.876886 10.986868-23.200315l-29.901632-83.751494c-4.03874-11.323429-54.926859-28.712447-54.926859-28.712447z m15.549148 38.921483a8.466395 8.466395 0 1 1-5.714069-15.930584 8.466395 8.466395 0 0 1 5.714069 15.930584z" fill="#31A3A8" /><path d="M320.275794 317.175687s-27.418555 44.358824-23.469565 55.413004l29.176154 81.739603c3.956469 11.061659 11.592679 14.681567 22.646859 10.732576l43.371576-15.489314c11.061659-3.941511 14.674087-11.57772 10.725098-22.63938l-29.191113-81.739603c-3.941511-11.05418-53.259009-28.016887-53.259009-28.016886z m14.82367 37.971632a8.271937 8.271937 0 1 1-5.564486-15.571585 8.271937 8.271937 0 0 1 5.564486 15.571585z" fill="#4EA5AE" /><path d="M332.661262 350.540164a1.765079 1.765079 0 0 1-2.355932-1.675329c0-1.331288 0.299166-32.825978 23.387295-50.985349 16.042771-12.624801 38.936442-15.466877 68.060242-8.466395a1.765079 1.765079 0 1 1-0.822706 3.440408c-28.024366-6.738712-49.908351-4.113531-65.046146 7.80823-21.741882 17.112289-22.026089 47.896461-22.02609 48.203106a1.824912 1.824912 0 0 1-1.196663 1.675329z" fill="#258B90" /><path d="M316.124867 384.555327c-2.071724-5.818777 0.605811-12.10874 6.013234-14.030881l32.175293-11.49545c5.399944-1.922141 11.458054 1.241538 13.537257 7.052836l21.016404 58.860891c2.086682 5.826256-0.605811 12.10874-5.998276 14.03836l-32.175293 11.487971c-5.399944 1.92962-11.458054-1.22658-13.552215-7.045357l-21.016404-58.86837z" fill="#FFFFFF" /><path d="M323.850826 377.031304a3.298304 3.298304 0 0 0-1.989453 4.21076l21.614736 60.543699a3.290825 3.290825 0 0 0 6.207693-2.213827l-21.622216-60.543699a3.305783 3.305783 0 0 0-4.21076-1.996933zM337.193625 372.267087a3.290825 3.290825 0 0 0-1.989453 4.21076l21.614736 60.528741a3.290825 3.290825 0 1 0 6.200213-2.206348l-21.622215-60.543699a3.290825 3.290825 0 0 0-4.203281-1.989454zM350.543903 367.50287a3.290825 3.290825 0 0 0-1.989453 4.21076l21.614736 60.53622a3.290825 3.290825 0 1 0 6.200214-2.213827l-21.614736-60.53622a3.305783 3.305783 0 0 0-4.210761-1.996933z" fill="#94D6E2" /></svg>