<svg xmlns="http://www.w3.org/2000/svg" viewBox="0 0 1024 1024" width="200" height="200"><path d="M775.68 411.648c23.04-20.48 78.336-60.416 138.752-33.28 6.144 2.56 6.144 5.632 3.584 12.288l-30.208 104.96c-3.072 7.68-14.848 5.632-21.504 1.024L776.704 431.104c-6.656-4.608-7.168-14.336-1.024-19.456z" fill="#B24444" /><path d="M757.248 418.816s77.312-86.528 160.768-38.4l-45.568 121.856-115.2-83.456z" fill="#E05560" /><path d="M963.072 574.976h-9.216c-3.072 0-6.656 0.512-9.728 1.024-42.496-148.992-220.672-260.608-434.688-260.608-222.72 0-407.04 121.344-439.296 279.552-16.384 0-29.696 25.6-29.696 57.344s13.312 57.344 29.696 57.344c1.536 0 2.56-0.512 4.096-1.024 0.512 1.024 0.512 2.56 1.024 3.584l-5.12-3.072L76.8 716.8c23.04 75.264 81.408 140.8 161.28 186.368l88.576 102.4h126.976v-36.352c18.432 1.536 37.376 2.56 56.32 2.56 17.92 0 35.328-1.024 52.736-2.56l0.512 35.84h116.224l72.192-86.016c76.8-36.864 137.216-90.624 171.52-154.112 6.144-11.264 18.432-17.408 31.232-17.408 27.648 0 49.664-22.528 49.664-49.664V615.424c-0.512-22.528-18.944-40.448-40.96-40.448z" fill="#F25F65" /><path d="M672.256 425.472h-300.032c-7.68 0-14.336-6.144-14.336-14.336 0-7.68 6.144-14.336 14.336-14.336h300.032c7.68 0 14.336 6.144 14.336 14.336 0 8.192-6.656 14.336-14.336 14.336zM735.744 400.896c25.6-23.04 87.552-67.072 155.136-37.376 6.656 3.072 6.656 6.656 4.096 13.312l-34.304 117.248c-3.072 8.704-16.384 6.144-24.064 1.024L736.768 422.912c-7.168-5.632-8.192-16.384-1.024-22.016z" fill="#BE514C" /><path d="M715.264 408.576s86.528-96.768 179.712-43.008l-51.2 136.704-128.512-93.696z" fill="#F25F65" /><path d="M837.632 553.472a14.336 12.288 0 1 0 28.672 0 14.336 12.288 0 1 0-28.672 0Z" fill="#BE514C" /><path d="M851.968 556.544a6.656 5.632 0 1 0 13.312 0 6.656 5.632 0 1 0-13.312 0Z" fill="#A54A4A" /><path d="M326.144 221.184a198.656 196.096 90 1 0 392.192 0 198.656 196.096 90 1 0-392.192 0Z" fill="#E09B40" /><path d="M522.24 207.872m-196.096 0a196.096 196.096 0 1 0 392.192 0 196.096 196.096 0 1 0-392.192 0Z" fill="#FFD151" /><path d="M410.112 303.616l112.64-234.496 24.064-55.808c-8.192-1.024-15.872-1.536-24.576-1.536-108.544 0-196.096 88.064-196.096 196.096 0 50.176 18.944 95.744 49.664 130.56l34.304-34.816z" fill="#FFDD99" /><path d="M522.24 207.872m-163.328 0a163.328 163.328 0 1 0 326.656 0 163.328 163.328 0 1 0-326.656 0Z" fill="#D39548" /><path d="M359.936 213.504a162.816 157.696 0 1 0 325.632 0 162.816 157.696 0 1 0-325.632 0Z" fill="#E6B141" /><path d="M479.744 265.728l23.552 7.68 23.552 4.608 28.672-6.144v9.728l-26.624 8.704-24.576-6.144zM484.864 168.96l23.552-7.168 23.04-4.608 29.184 6.144V153.6l-26.624-9.216-24.576 6.144z" fill="#D39548" /><path d="M519.168 235.008c-2.048-0.512-4.096-1.536-6.144-2.56-2.048-1.024-5.632-3.072-11.264-6.144-5.12-3.072-9.728-6.656-12.8-10.752-3.072-4.096-5.632-8.192-7.168-12.288s-2.048-8.704-2.048-13.824c0.512-8.192 2.56-14.848 6.656-19.456 4.096-4.608 8.192-8.192 12.288-10.24 4.096-2.56 8.192-4.096 12.288-4.608l7.168-1.536v-6.656h9.216v7.168c2.56 0 4.608 0 6.144 0.512 1.536 0 3.584 0.512 5.632 1.024 2.048 0.512 6.144 1.536 11.776 3.072 5.632 1.536 10.24 4.608 13.824 8.704 3.584 4.096 5.632 8.192 5.632 11.776 0 3.584-1.536 7.168-4.608 9.728-3.072 2.56-6.656 4.096-10.752 4.096s-7.68-1.024-10.752-4.096c-2.56-2.56-4.096-5.632-4.096-9.216 0-3.072 1.024-5.632 3.072-7.68 2.048-2.048 3.072-3.584 3.072-4.096 0-1.024-1.536-2.048-4.608-3.584-3.072-1.536-5.632-2.048-8.192-2.56l-5.632-0.512v52.224c4.608 1.536 9.728 3.584 14.848 5.632 5.632 2.048 10.752 4.096 15.36 6.144 4.608 2.048 8.704 5.632 12.8 10.752 3.584 5.12 5.632 10.24 5.632 15.36 0 5.632-0.512 10.24-2.56 14.848-1.536 4.608-4.096 8.704-7.168 12.288-3.072 3.584-6.656 6.144-10.24 7.68-3.584 2.048-7.68 3.072-11.776 4.608-4.096 1.024-8.192 2.048-11.776 2.048l-5.12 0.512v8.192h-9.216v-8.192c-3.072-0.512-5.632-1.024-8.192-1.536-2.048-0.512-4.608-1.024-7.68-2.56-3.072-1.024-5.632-2.048-8.192-3.584-2.56-1.024-5.12-2.56-7.168-4.608s-5.12-4.608-7.68-7.68-3.584-6.144-3.584-9.728c0-3.072 0.512-6.144 1.536-8.704 1.024-2.56 3.072-4.608 5.12-6.144 2.048-1.536 5.12-2.048 8.192-2.048 3.584 0 6.656 1.024 8.704 3.072 2.56 2.048 3.584 4.096 3.584 6.144 0 2.56 0 4.096-0.512 5.632-0.512 1.024-1.536 2.048-2.56 3.072l-4.608 2.56c-1.024 0.512-2.048 1.536-2.56 3.072-0.512 1.024 0.512 3.584 4.096 6.656 2.56 2.048 4.608 4.096 7.68 5.632 2.56 1.536 5.12 2.048 6.656 2.048l6.656 1.024v-50.688z m0-74.24l-6.144 1.536c-2.048 0.512-4.096 2.048-6.144 3.584-2.048 1.536-4.096 4.096-5.632 7.168-1.536 3.072-2.56 6.656-2.56 10.752 0 5.12 1.536 9.728 4.608 12.8 3.072 3.072 6.656 6.144 11.264 8.704l5.12 3.072v-47.616z m9.728 125.44c3.072-0.512 7.168-1.024 11.264-2.56s8.192-3.584 10.752-7.68c3.072-4.096 4.608-8.192 4.608-13.312 0-4.608-1.024-8.704-3.072-11.264s-4.608-5.12-8.192-6.656c-3.584-2.048-7.168-3.584-10.24-5.12l-5.12-2.048v48.64z" fill="#D39548" /><path d="M519.168 223.744c-2.048-0.512-4.096-1.536-6.144-2.56-2.048-1.024-5.632-3.072-11.264-6.144-5.12-3.072-9.728-6.656-12.8-10.752-3.072-4.096-5.632-8.192-7.168-12.288s-2.048-8.704-2.048-13.824c0.512-8.192 2.56-14.848 6.656-19.456 4.096-4.608 8.192-8.192 12.288-10.24 4.096-2.56 8.192-4.096 12.288-4.608l7.168-1.536v-6.656h9.216v7.168c2.56 0 4.608 0 6.144 0.512 1.536 0 3.584 0.512 5.632 1.024 2.048 0.512 6.144 1.536 11.776 3.072 5.632 1.536 10.24 4.608 13.824 8.704 3.584 4.096 5.632 8.192 5.632 11.776 0 3.584-1.536 7.168-4.608 9.728-3.072 2.56-6.656 4.096-10.752 4.096s-7.68-1.024-10.752-4.096c-2.56-2.56-4.096-5.632-4.096-9.216 0-3.072 1.024-5.632 3.072-7.68 2.048-2.048 3.072-3.584 3.072-4.096 0-1.024-1.536-2.048-4.608-3.584-3.072-1.536-5.632-2.048-8.192-2.56l-5.632-0.512v52.224c4.608 1.536 9.728 3.584 14.848 5.632 5.632 2.048 10.752 4.096 15.36 6.144 4.608 2.048 8.704 5.632 12.8 10.752 3.584 5.12 5.632 10.24 5.632 15.36 0 5.632-0.512 10.24-2.56 14.848-1.536 4.608-4.096 8.704-7.168 12.288-3.072 3.584-6.656 6.144-10.24 7.68-3.584 2.048-7.68 3.072-11.776 4.608-4.096 1.024-8.192 2.048-11.776 2.048l-5.12 0.512v8.192h-9.216V281.6c-3.072-0.512-5.632-1.024-8.192-1.536-2.048-0.512-4.608-1.024-7.68-2.56-3.072-1.024-5.632-2.048-8.192-3.584-2.56-1.024-5.12-2.56-7.168-4.608s-5.12-4.608-7.68-7.68-3.584-6.144-3.584-9.728c0-3.072 0.512-6.144 1.536-8.704 1.024-2.56 3.072-4.608 5.12-6.144 2.048-1.536 5.12-2.048 8.192-2.048 3.584 0 6.656 1.024 8.704 3.072 2.56 2.048 3.584 4.096 3.584 6.144 0 2.56 0 4.096-0.512 5.632-0.512 1.024-1.536 2.048-2.56 3.072l-4.608 2.56c-1.024 0.512-2.048 1.536-2.56 3.072-0.512 1.024 0.512 3.584 4.096 6.656 2.56 2.048 4.608 4.096 7.68 5.632 2.56 1.536 5.12 2.048 6.656 2.048l6.656 1.024v-50.176z m0-73.728l-6.144 1.536c-2.048 0.512-4.096 2.048-6.144 3.584-2.048 1.536-4.096 4.096-5.632 7.168-1.536 3.072-2.56 6.656-2.56 10.752 0 5.12 1.536 9.728 4.608 12.8 3.072 3.072 6.656 6.144 11.264 8.704l5.12 3.072v-47.616z m9.728 125.44c3.072-0.512 7.168-1.024 11.264-2.56s8.192-3.584 10.752-7.68c3.072-4.096 4.608-8.192 4.608-13.312 0-4.608-1.024-8.704-3.072-11.264s-4.608-5.12-8.192-6.656c-3.584-2.048-7.168-3.584-10.24-5.12l-5.12-2.048v48.64z" fill="#FFD364" /><path d="M497.664 417.792c1.536 0 2.56 0.512 4.096 0.512v-14.848c-1.024 0-2.56 0-4.096-0.512v14.848zM504.832 418.816c1.536 0 2.56 0.512 4.096 0.512v-15.36h-4.096v14.848zM512 419.328h4.096v-15.36h-4.096v15.36zM519.168 419.328c1.536 0.512 2.56 0.512 4.096 0.512v-15.872h-4.096v15.36zM526.336 403.968v15.36h4.096v-15.36h-4.096zM607.744 399.872c1.024-0.512 2.56-1.024 3.584-2.048l-7.168-11.776c-1.024 0.512-2.56 1.024-3.584 1.536l7.168 12.288zM613.888 396.8c1.024-0.512 2.56-1.536 3.584-2.048l-6.656-11.264c-1.024 0.512-2.56 1.024-3.584 1.536l6.656 11.776zM620.032 393.216c1.024-0.512 2.56-1.536 3.584-2.048l-6.656-11.264c-1.024 0.512-2.56 1.024-3.584 2.048l6.656 11.264zM626.176 389.12c1.024-0.512 2.56-1.536 3.584-2.048l-6.144-10.752c-1.024 0.512-2.048 1.536-3.584 2.048l6.144 10.752zM625.664 374.784l6.144 10.752c1.024-1.024 2.048-1.536 3.584-2.56l-6.144-10.24c-1.024 0.512-2.048 1.536-3.584 2.048zM407.552 381.952c1.024 1.024 2.048 1.536 3.584 2.56l6.144-10.752c-1.024-0.512-2.048-1.536-3.584-2.048l-6.144 10.24zM413.184 386.048c1.024 1.024 2.56 1.536 3.584 2.048l6.656-10.752c-1.024-0.512-2.56-1.536-3.584-2.048l-6.656 10.752zM419.328 390.144c2.048 1.536 3.584 2.048 3.584 2.048l6.656-11.264c-1.024-0.512-2.56-1.024-3.584-2.048l-6.656 11.264zM425.472 393.728c1.024 0.512 2.56 1.024 3.584 2.048l6.656-11.264c-1.024-0.512-2.56-1.024-3.584-2.048l-6.656 11.264zM431.616 396.8c1.024 0.512 2.56 1.536 3.584 2.048l7.168-11.776c-1.024-0.512-2.56-1.024-3.584-1.536l-7.168 11.264z" fill="#EFC04B" /></svg>