<svg xmlns="http://www.w3.org/2000/svg" viewBox="0 0 1024 1024" width="200" height="200"><path d="M969.9 506c-0.1-10-0.6-20.1-1.4-30.9-0.8-10.9-2.1-21.8-3.9-33.5-0.6-4.3-1.3-8.7-2.2-12.9-1-5.9-2.3-11.6-3.5-17.1-12.6-56.2-35.4-108.9-67.9-156.6-31.9-47-71.7-87.2-118.3-119.5-24.6-17-50.8-31.7-77.9-43.4C637.3 66.8 575.7 54 512 54c-53.4 0-105.8 9.1-155.6 27.1-48.1 17.4-92.8 42.6-132.7 74.9-39.6 32.1-73.3 70.2-100.3 113.3-27.5 43.9-47.2 91.8-58.5 142.2-1.2 5.4-2.4 11.2-3.5 17-0.8 4.1-1.5 8.1-2.2 13-1.5 10.1-2.8 20.4-3.7 31.6-0.1 0.8-0.2 1.5-0.2 2-1 12.1-1.5 24.5-1.5 36.8 0 6.3 0.2 13.2 0.5 21l0.3 6.1c0.1 2.5 0.2 4.6 0.4 6.8 0.1 1.3 0.2 2.6 0.3 3.7 1.1 13.9 2.9 28.1 5.4 42.1 2.4 13.6 5.4 27.1 8.9 40.1v0.2l0.3 0.9c1.3 4.6 2.7 9.3 4 13.8v0.1c2 6.5 4.2 13.1 7.3 21.7l1.2 3c0.4 0.9 0.7 1.9 1 2.8 0 0.1 0.1 0.3 0.2 0.4l0.6 1.5c0.3 0.7 0.5 1.4 0.8 2.1 0.2 0.4 0.3 0.8 0.5 1.2l0.6 1.5c0.1 0.3 0.2 0.5 0.3 0.8 3.2 8 6 14.4 8.6 20.1 0.3 0.7 0.6 1.3 0.9 2 0.3 0.6 0.5 1.1 0.8 1.7l0.6 1.2c0.8 1.6 1.5 3.2 2.3 4.7 4 8.3 8.4 16.6 13 24.9 2.8 4.9 5.7 9.8 8.7 14.7 0.6 1 1.2 2 1.9 3.1 1.1 1.7 2.2 3.5 3.4 5.4 0.2 0.4 0.5 0.7 0.7 1.1 0.7 1.1 1.4 2.2 2.2 3.3 0.2 0.3 0.3 0.5 0.5 0.7 0.1 0.2 0.2 0.3 0.3 0.5 0.1 0.2 0.3 0.4 0.5 0.7 1.4 2.1 2.8 4.1 4.2 6.1 1.4 2 2.9 4.1 4.3 6.1 2.8 4 5.9 8.2 10 13.5 39.3 50.9 89.6 93.5 146 123.9 3.8 2 7.6 4 11.4 5.9 8 4 16.1 7.8 24.3 11.3 57 24.9 117.8 37.4 181 37.4 4.6 0 9.2-0.1 13.8-0.2 42-1.2 82.9-8 122.3-20.3 22.8-7.1 45-16 66.7-26.7 2-1 4.1-2 6.1-3.1 1-0.5 1.9-1 2.9-1.5 0.1 0 0.1-0.1 0.2-0.1 0.2-0.1 0.3-0.2 0.5-0.2l0.4-0.2c0.3-0.2 0.6-0.3 0.9-0.5 0.2-0.1 0.3-0.2 0.5-0.2 1.2-0.6 2.4-1.3 3.6-1.9 0.2-0.1 0.4-0.2 0.7-0.4 0.5-0.3 0.9-0.5 1.4-0.8 0.4-0.2 0.8-0.5 1.2-0.7 0 0 0.1 0 0.1-0.1l0.1-0.1s0.1 0 0.1-0.1c0.5-0.3 0.9-0.5 1.4-0.8 33.8-18.8 64.8-41.6 92.7-68.2 0.4-0.4 0.8-0.7 1.1-1.1 0.5-0.5 1.1-1 1.6-1.5 0.9-0.9 1.8-1.7 2.6-2.5l1.2-1.2 0.1-0.1 4-4c1.3-1.3 2.5-2.6 3.7-3.8 1.3-1.3 2.6-2.7 3.9-4.1l3.9-4.2 0.2-0.2c2.4-2.6 4.8-5.3 7.2-8.1l0.1-0.1 0.1-0.1c0.7-0.8 1.4-1.6 2.1-2.5 0.5-0.6 1-1.1 1.5-1.7 5.5-6.4 10.2-12.2 14.3-17.6 4.4-5.8 8.6-11.5 12.1-16.5 2.3-3.1 4.5-6.4 6.5-9.5 0.5-0.6 0.8-1.2 1-1.5 11.1-16.7 21.2-34.4 29.9-52.5 1.7-3.6 3.5-7.4 5.6-12.1 1.9-4.2 3.9-8.8 6.2-14.4 0.1-0.1 0.1-0.3 0.2-0.4 0.3-0.8 0.6-1.7 1-2.5l1.2-3c1.3-3.4 2.6-6.9 3.9-10.5 4.5-12.3 8.4-24.5 11.5-36.2 0.1-0.3 0.2-0.6 0.2-1 0-0.2 0.1-0.3 0.1-0.5 1.5-6 3.1-12.1 4.5-18.3 1.6-6.9 2.8-13 3.8-18.6 0.1-0.3 0.1-0.6 0.2-1 2.5-13.9 4.4-28.5 5.6-43.4 0.1-1.2 0.2-2.5 0.3-3.9 0.3-4 0.5-8.1 0.7-12.1v-0.6c0.3-7.9 0.5-14.5 0.5-20.9-0.2-1.6-0.2-3.7-0.3-5.7zM75.3 476.4v-0.3c0-0.2 0.1-0.4 0.1-0.7 0.9-11 2.1-21 3.6-30.7 0.8-4.7 1.4-8.6 2.2-12.4v-0.1c1-5.5 2.2-11.1 3.3-16.3 21.4-95.5 75.4-182.3 151.9-244.3 38.2-30.9 80.9-55.1 126.9-71.7C410.8 82.7 460.9 74 512 74c61 0 119.8 12.2 174.9 36.4 25.9 11.3 51 25.3 74.5 41.5 44.6 30.9 82.7 69.4 113.2 114.3 31 45.7 52.8 96 64.9 149.7 1.1 5.2 2.3 10.8 3.3 16.3v0.1c0.8 4 1.4 8.1 2 12.1v0.1c1.7 11.1 3 21.5 3.7 31.9 0.8 10.5 1.3 20.2 1.4 29.8v0.5c0.1 1.5 0.1 3.4 0.1 5.1 0 6.1-0.2 12.5-0.5 20v0.6c-0.2 3.8-0.4 7.8-0.7 11.6-0.1 1.3-0.2 2.6-0.3 3.7-1.2 14.3-3 28.2-5.3 41.3-0.1 0.3-0.1 0.6-0.2 1-1 5.4-2.2 11.3-3.7 18-0.7 3.3-1.5 6.6-2.4 9.9-15.6-2.9-25.6-9.8-38.6-18.8l-0.7-0.5c-19.9-13.9-44.6-31.3-90.8-31.3-46.5 0-71.2 17.4-91.1 31.5-17.5 12.4-29.1 20.5-56.5 20.5s-39-8.2-56.6-20.6l-0.2-0.1c-18.7-13.1-41.7-29.2-82.7-31.1-7.8-38.3-31.6-71.6-65.4-91.3v-263c0-38-31-69-69-69-18.4 0-35.7 7.2-48.8 20.3-13 13.1-20.2 30.4-20.2 48.7v262.9c-35.2 20.5-59.2 55-66.1 94.7-10.5-2.4-21.7-3.5-33.8-3.5-46.5 0-71.2 17.4-91.1 31.4-13 9.1-22.8 16.1-38.7 19-2.4-9.8-4.6-19.8-6.3-29.9-2.4-13.4-4.1-26.9-5.2-40.3-0.1-1.2-0.2-2.5-0.3-3.7v-0.2c-0.2-1.8-0.3-3.7-0.4-6l-0.3-6c-0.3-7.5-0.5-14-0.5-20.1 0.2-11.5 0.7-23.4 1.7-35.1z m65.5 268.4c-0.9-1.4-1.7-2.7-2.5-4-2.9-4.6-5.6-9.3-8.3-14.1l-0.3-0.6c-0.8-1.4-1.5-2.8-2.3-4.1-0.2-0.4-0.5-0.8-0.7-1.3-0.6-1.2-1.3-2.3-1.9-3.5-0.3-0.5-0.5-1-0.8-1.6-0.6-1.1-1.1-2.1-1.7-3.2-0.3-0.6-0.6-1.1-0.9-1.7-0.5-1-1-2-1.5-3.1-0.3-0.5-0.5-1.1-0.8-1.6-0.5-1-1-2.1-1.5-3.1 8.4-4.2 15.6-9.3 23.1-14.6 19.4-13.7 39.5-27.9 79.5-27.9 19.4 0 35.6 3.3 50.8 10.3 25.5 38.4 68 61.3 114.3 61.3 26.1 0 51.4-7.3 73.3-21.2 19.7-12.5 35.8-29.7 47-50.1 3.2-0.2 6.4-0.3 9.8-0.3 40 0 60.1 14.2 79.5 27.9 18.3 12.9 34.2 24.1 68.1 24.1 33.6 0 49.5-11.1 67.8-24l0.3-0.2c19.4-13.7 39.5-27.9 79.5-27.9s60.1 14.2 79.5 27.9c0.1 0 0.1 0.1 0.2 0.1l2.6 1.7c5 3.4 9.8 6.6 14.8 9.5-0.5 1-0.9 2-1.4 3-0.7 1.4-1.3 2.7-2 4-2 4-4 8-6.1 11.8-1.1 2.1-2.3 4.2-3.4 6.3-0.6 1.2-1.3 2.3-2 3.5-3.1 5.5-6.4 10.9-9.7 16.2-18.5-11.6-41.1-21.1-75.6-21.1h-0.5c-46.4 0-71.2 17.5-91 31.5l-0.2 0.2c-16.8 11.8-29 20.3-56.3 20.3-27.4 0-39-8.2-56.6-20.6l-0.2-0.1c-19.9-13.9-44.6-31.3-90.8-31.3-46.4 0-71.2 17.5-91 31.5l-0.2 0.2c-16.8 11.8-29 20.3-56.3 20.3-27.5 0-39.7-8.6-56.5-20.5-19.9-14-44.7-31.5-91.1-31.5-35.9 0.4-58.4 10.5-76 21.6zM105 674.3c-0.1-0.1-0.1-0.3-0.2-0.4-0.2-0.4-0.4-0.9-0.6-1.4-0.2-0.6-0.5-1.2-0.7-1.8l-0.6-1.5c-0.2-0.6-0.5-1.3-0.7-1.9-0.3-0.9-0.7-1.9-1.1-2.8-0.4-0.9-0.7-1.9-1-2.7-2.9-8.2-5.1-14.6-7-20.8-0.3-1.2-0.7-2.3-1-3.5v-0.1c19.2-3.9 31.8-12.7 44.9-22 19.3-13.7 39.4-27.8 79.5-27.8 11.6 0 22 1.2 31.8 3.6 0 1.3-0.1 2.5-0.1 3.8 0 17.3 3.2 34.2 9.4 50-11.6-2.9-24-4.4-37.3-4.4-46.4 0-71.2 17.5-91.1 31.5-6.9 4.9-13.1 9.2-19.9 12.7-1.3-3.2-2.8-6.7-4.3-10.5z m334.8-183c33.5 17.5 56.5 50.3 61.7 87.7 0.7 5.2 1.1 10.6 1.1 16 0 18.2-4.1 35.7-12.1 52-9.6 19.3-24.2 35.6-42.4 47.1-18.7 11.9-40.4 18.1-62.6 18.1-40.4 0-77.4-20.4-99.1-54.5-11.9-18.7-18.1-40.4-18.1-62.7 0-3.4 0.2-6.9 0.5-10.4 3.5-39.8 26.8-74.8 62.4-93.5 3.3-1.7 5.3-5.1 5.3-8.9V213.5c0-13 5.1-25.3 14.4-34.6s21.6-14.4 34.6-14.4c27 0 49 22 49 49v268.9c-0.1 3.7 2 7.1 5.3 8.9z m484 170.2c-1.3 3.5-2.6 6.9-3.9 10.3v0.1c-0.3 0.8-0.6 1.7-1 2.5-0.4 1-0.8 1.9-1.1 2.9-0.6 1.5-1.2 2.8-1.7 4.2-3.8-2.3-7.7-4.9-11.9-7.7l-2.5-1.7c-19.9-14-44.7-31.5-91-31.5-46.4 0-71.2 17.5-91 31.5l-0.2 0.2c-16.8 11.8-29 20.3-56.3 20.3-27.5 0-39.7-8.6-56.5-20.5-19.9-14-44.7-31.5-91.1-31.5h-0.7c5.1-14.6 7.8-29.8 7.8-45.6 0-2.3-0.1-4.7-0.2-7 32.9 2.3 51.1 15 68.7 27.3l0.2 0.1c18.4 13 34.3 24.2 68 24.2 33.8 0 49.6-11.2 68.1-24.2 19.3-13.7 39.4-27.8 79.5-27.8 39.9 0 60 14.1 79.3 27.6l0.8 0.5c13.7 9.5 25.9 17.9 44.8 21.7-2.5 8-5.1 16-8.1 24.1zM512 950c-69.1 0-135.2-15.6-196.4-46.4-58.4-29.4-110.5-72.3-150.5-124.2-3.8-5-6.8-9-9.5-12.8-1-1.4-2-2.9-3-4.3-0.2-0.3-0.4-0.6-0.6-0.8 15.4-9.6 34.3-17.8 64.8-17.8 40 0 60.1 14.2 79.5 27.9 18.3 12.9 34.2 24.1 68.1 24.1 33.6 0 49.5-11.1 67.8-24l0.3-0.2c19.4-13.7 39.5-27.9 79.5-27.9 39.9 0 60 14.1 79.4 27.6l0.2 0.1c18.4 13 34.3 24.2 68 24.2 33.6 0 49.5-11.1 67.8-24l0.3-0.2c19.4-13.7 39.5-27.9 79.6-27.9h0.4c30.3 0 49.5 8.4 64.5 17.8-0.5 0.6-0.9 1.3-1.4 1.9 0 0.1-0.1 0.1-0.1 0.2-3.4 4.8-7.4 10.4-11.7 15.9-3.9 5.1-8.4 10.6-13.7 16.8-4.6 5.4-9.2 10.6-14 15.7l-0.1 0.1c-0.5 0.5-1 1.1-1.5 1.6-1.7 1.7-3.3 3.5-5 5.2l-2.9 2.9-0.1 0.1-0.6 0.6-2 2c-1 1-2 2-3 2.9l-0.1 0.1c-3.7 3.5-7.6 7.2-11.6 10.8-0.1 0-0.1 0.1-0.2 0.2-3.3 2.9-6.6 5.8-10 8.7 0 0-0.1 0-0.1 0.1-0.6 0.5-1.2 1-1.8 1.6-0.1 0-0.1 0.1-0.2 0.1s-0.1 0.1-0.2 0.1c-1.3 1.1-2.5 2.1-3.8 3.1-0.1 0.1-0.2 0.1-0.3 0.2-3.2 2.6-6.3 5.1-9.4 7.4 0 0-0.1 0-0.1 0.1-1 0.8-2 1.5-3 2.3-1.2 0.9-2.4 1.8-3.7 2.7-0.5 0.4-1.1 0.8-1.7 1.2l-0.1 0.1c-0.1 0-0.1 0.1-0.2 0.1-1 0.7-1.9 1.4-2.9 2.1-0.1 0.1-0.2 0.2-0.3 0.2-0.2 0.2-0.5 0.3-0.7 0.5-0.1 0.1-0.2 0.1-0.2 0.2-0.5 0.4-1.1 0.8-1.6 1.2-0.1 0.1-0.2 0.2-0.4 0.3-0.4 0.3-0.7 0.5-1.1 0.8l-0.2 0.2c-1.4 1-2.9 2-4.3 3-3 2-6 4-8.9 5.9l-0.1 0.1c-0.2 0.1-0.3 0.2-0.5 0.3l-0.4 0.2s-0.1 0-0.1 0.1l-2.4 1.5c-0.7 0.4-1.3 0.8-2 1.3-0.2 0.1-0.4 0.2-0.6 0.4-0.5 0.3-1 0.6-1.4 0.9-0.7 0.4-1.3 0.8-2 1.2-0.6 0.4-1.2 0.7-1.7 1.1-1.7 1-3.5 2.1-5.2 3.1-0.4 0.2-0.8 0.5-1.2 0.7l-0.1 0.1s-0.1 0-0.1 0.1c-0.2 0.1-0.4 0.2-0.5 0.3l-0.1 0.1c-0.1 0-0.1 0.1-0.2 0.1-0.3 0.1-0.5 0.3-0.8 0.4l-7.5 4.2c-0.1 0.1-0.3 0.2-0.4 0.2-0.1 0.1-0.2 0.1-0.3 0.2l-0.1 0.1c-3 1.7-6.1 3.3-9.2 4.9-62.5 31.8-129.7 48-200.1 48zM412.2 202.4c0-14.8-12.1-26.9-26.9-26.9-14.8 0-26.9 12.1-26.9 26.9v313.1c-15.1 5.1-28.6 14.5-38.6 27-11.9 14.8-18.5 33.5-18.5 52.6 0 7.9 1.1 15.8 3.3 23.3 10.3 35.7 43.5 60.7 80.7 60.7 2.9 0 5.7-0.1 8.5-0.4h0.1c42.3-4.3 75.4-40.1 75.4-83.5 0-1.4 0-2.8-0.1-4.1l-0.3-4.2c-3.2-33.1-25.6-60.9-56.7-71.3V202.4zM449 588.7c0.2 2.1 0.3 4.2 0.3 6.4 0 35.3-28.7 64-64 64-3.5 0-7-0.3-10.5-0.9-1.7-0.3-3.4-0.6-5.1-1.1-0.8-0.2-1.7-0.4-2.5-0.7-18.9-5.6-34.6-19.8-41.8-38.6-0.6-1.6-1.2-3.3-1.7-5-1.7-5.8-2.5-11.7-2.5-17.8 0-30 20.3-55.6 49.4-62.4 4.5-1.1 7.7-5.1 7.7-9.7V202.4c0-3.8 3.1-6.9 6.9-6.9s6.9 3.1 6.9 6.9V523c0 4.7 3.2 8.7 7.7 9.7 26.9 6.2 46.6 28.7 49.2 56zM488.4 253.1h57.1c5.5 0 10-4.5 10-10s-4.5-10-10-10h-57.1c-5.5 0-10 4.5-10 10s4.5 10 10 10zM488.4 302.7h57.1c5.5 0 10-4.5 10-10s-4.5-10-10-10h-57.1c-5.5 0-10 4.5-10 10s4.5 10 10 10zM488.4 352.3h57.1c5.5 0 10-4.5 10-10s-4.5-10-10-10h-57.1c-5.5 0-10 4.5-10 10s4.5 10 10 10zM488.4 401.8h57.1c5.5 0 10-4.5 10-10s-4.5-10-10-10h-57.1c-5.5 0-10 4.5-10 10s4.5 10 10 10z" fill="#000000" /></svg>