<svg xmlns="http://www.w3.org/2000/svg" viewBox="0 0 1024 1024" width="200" height="200"><path d="M60.927102 281.685755A57.98692 57.98692 0 0 1 87.062051 236.847982L485.620035 6.207051a58.313607 58.313607 0 0 1 52.2699 0L936.937949 236.847982a57.98692 57.98692 0 0 1 26.134949 45.246132v460.138459a57.98692 57.98692 0 0 1-26.134949 45.246132l-398.802999 230.232573a57.823576 57.823576 0 0 1-52.2699 0L87.062051 787.478705A57.98692 57.98692 0 0 1 60.927102 742.232573z" fill="#D977A4" /><path d="M347.839847 402.804913l1.878449-2.776838 2.695167-0.735046h0.571702a54.638379 54.638379 0 0 0 23.521455-13.475833c29.320147-34.955495 79.139895-57.170203 135.49338-57.170203a180.412825 180.412825 0 0 1 127.734567 49.003031h0.653374l3.103525 3.920242 0.735045 0.980061a23.27644 23.27644 0 0 1 1.87845 2.123465 55.373425 55.373425 0 0 0 24.501515 14.700909l3.185197 0.816717 1.470091 2.286808v0.490031A209.324613 209.324613 0 0 1 694.291275 604.370713q0.653374 3.185197 0.98006 6.370394v3.021854a213.571543 213.571543 0 0 0-39.365768-243.38172l-5.063646-5.063646 0.571702-0.571703a182.372946 182.372946 0 0 0-139.413623-61.743818 182.862977 182.862977 0 0 0-139.740309 61.498803l0.653373 0.571702-5.145318 5.145319a213.571543 213.571543 0 0 0-39.44744 243.463391v-3.430212c0-1.143404 0.571702-4.001914 0.980061-5.962036a209.406285 209.406285 0 0 1 18.131121-201.484128z m126.999521 312.394321l-32.668687-190.458446-30.055192 5.145318 32.668687 190.376775z m-49.00303-2.123464l-29.320147-168.162068a88.450471 88.450471 0 0 0-48.186314 58.640294V605.269102c-0.571702 2.613495-1.061732 5.390333-1.470091 8.167172v17.151061a5.880364 5.880364 0 0 0 0 1.061732 87.307067 87.307067 0 0 0 2.940182 16.824374l0.816717 2.85851a88.695486 88.695486 0 0 0 75.137981 61.743819z m245.015153-354.210241a230.967618 230.967618 0 0 1 65.337375 161.056628 231.53932 231.53932 0 0 1-43.367682 134.840006 106.173233 106.173233 0 0 1-97.107673 76.608071l-0.49003 3.185197h-2.041793a13.884192 13.884192 0 0 1-10.45398 4.73696 9.555591 9.555591 0 0 1-2.36848 0l-37.650662-6.533737a13.80252 13.80252 0 0 1-12.250758-14.047536 9.718934 9.718934 0 0 1 0-2.695166l34.383794-198.298932A13.965864 13.965864 0 0 1 578.889137 506.364651a13.720849 13.720849 0 0 1 2.695167 0l37.323975 6.452066a13.80252 13.80252 0 0 1 11.43404 13.720849 106.826607 106.826607 0 0 1 54.720051 50.963152 191.11182 191.11182 0 0 0-22.133035-162.036689 72.687829 72.687829 0 0 1-29.810177-18.866167l-1.87845-2.205136-0.571702-0.571702c-25.399904-27.850056-68.032541-46.797894-116.708885-47.124581H510.12155c-50.799809 0.49003-95.06588 21.234647-119.975753 51.208167a72.851172 72.851172 0 0 1-28.50343 17.314404A191.765194 191.765194 0 0 0 338.610943 577.500718a106.826607 106.826607 0 0 1 54.720051-50.963152 13.965864 13.965864 0 0 1 11.515712-13.720849l37.405647-6.533737 2.531823 0.081671a13.965864 13.965864 0 0 1 13.639177 11.515713l34.547137 198.788961a17.396076 17.396076 0 0 1 0.816717 2.041793 13.80252 13.80252 0 0 1-11.515712 13.639177l-37.814006 6.615409h-2.041793a13.720849 13.720849 0 0 1-11.025682-5.553677h-1.551762v-2.041793a106.173233 106.173233 0 0 1-76.771415-37.160631l272.620194 272.620194 311.250918-179.677779a57.98692 57.98692 0 0 0 26.134949-45.246132V651.576966zM582.237677 524.740788l-32.668687 190.458446 29.48349 5.063647 32.668688-189.396714v-0.980061zM674.281704 651.086936l0.735045-2.531824a89.348859 89.348859 0 0 0 3.021854-16.906045v-1.061732-5.553677-5.717021a16.334344 16.334344 0 0 0 0-2.776838v-2.613495c0-2.85851-0.898389-5.553677-1.470091-8.167172l-0.571702-2.450151a88.532142 88.532142 0 0 0-48.104642-57.905248l-29.728506 167.672037a88.532142 88.532142 0 0 0 76.118042-61.988834z" fill="#2C394C" /><path d="M731.860265 519.922157h3.593555a230.967618 230.967618 0 0 0-65.337374-161.056628 199.524007 199.524007 0 0 0-158.361461-73.504546A199.524007 199.524007 0 0 0 353.556867 359.355559a231.375977 231.375977 0 0 0-21.643005 295.651619 106.173233 106.173233 0 0 0 97.026001 76.689743v2.041793h1.551762a13.720849 13.720849 0 0 0 11.025682 5.553677h2.041793l37.814006-6.615409A13.80252 13.80252 0 0 0 493.787207 718.711118a17.396076 17.396076 0 0 0 0-2.205136l-35.037167-198.952305A13.965864 13.965864 0 0 0 444.784176 506.364651h-2.613495l-37.405647 6.533738a13.965864 13.965864 0 0 0-11.515712 13.720849A106.826607 106.826607 0 0 0 338.610943 577.500718a191.765194 191.765194 0 0 1 22.133035-161.955017 72.851172 72.851172 0 0 0 28.50343-17.314404c25.644919-30.708566 69.910991-51.289839 120.874142-51.779869h3.7569c49.003031 0 91.308981 19.274525 116.708885 47.124581l0.571702 0.571702 1.878449 2.205136a72.687829 72.687829 0 0 0 29.810177 18.866167 191.11182 191.11182 0 0 1 22.133036 162.036689 106.826607 106.826607 0 0 0-54.720051-50.963152 13.80252 13.80252 0 0 0-11.434041-13.720849L581.584304 506.364651a13.720849 13.720849 0 0 0-2.695167 0 13.965864 13.965864 0 0 0-13.720849 11.515713l-34.383793 197.972244a9.718934 9.718934 0 0 0 0 2.695167 13.80252 13.80252 0 0 0 11.515712 13.639177l37.650662 6.533737a9.555591 9.555591 0 0 0 2.36848 0 13.884192 13.884192 0 0 0 10.45398-4.73696h2.041793l0.49003-3.185197a106.173233 106.173233 0 0 0 97.107673-76.608071 231.53932 231.53932 0 0 0 43.367682-134.840006zM412.115489 529.886106l29.48349-5.145318 32.668687 190.458446-29.48349 5.063647z m283.400861 83.795183v-3.021854c0-0.980061-0.571702-4.246929-0.98006-6.370394a209.324613 209.324613 0 0 0-18.212793-201.5658v-0.49003l-2.123465-2.041793-3.185197-0.816717a55.373425 55.373425 0 0 1-24.501515-14.700909 23.27644 23.27644 0 0 0-1.87845-2.123465l-0.735045-0.980061-3.103526-4.573616h-0.653373a180.412825 180.412825 0 0 0-127.734567-49.003031c-56.353485 0-106.173233 22.378051-135.493381 57.170203a54.638379 54.638379 0 0 1-23.521454 13.475833h-0.571702l-2.695167 0.735046-1.87845 2.776838A209.406285 209.406285 0 0 0 329.708725 604.370713c0 1.960121-0.735045 4.001914-0.98006 5.962035s0 2.286808 0 3.430213a213.571543 213.571543 0 0 1 39.44744-243.463392l5.145318-5.145318-0.653374-0.571702a182.862977 182.862977 0 0 1 139.331951-61.580475 182.372946 182.372946 0 0 1 139.821981 61.662147l-0.571702 0.571702 5.063647 5.063646a213.571543 213.571543 0 0 1 39.365768 243.38172z m-299.000159-68.767587l29.238475 168.162068a88.695486 88.695486 0 0 1-76.03637-61.743819l-0.816717-2.85851a87.307067 87.307067 0 0 1-2.940182-16.824374 5.880364 5.880364 0 0 1 0-1.061732v-5.635349-8.820546-2.695166c0-2.776838 0.898389-5.553677 1.470091-8.167172V603.553996a88.450471 88.450471 0 0 1 49.084703-58.640294z m201.647471 168.162068l29.238476-168.162068a88.532142 88.532142 0 0 1 48.104641 57.905248l0.571702 2.450152c0.571702 2.695167 1.061732 5.390333 1.470091 8.167172v2.613495a16.334344 16.334344 0 0 1 0 2.776838V631.159037a89.348859 89.348859 0 0 1-3.021853 16.906045l-0.735046 2.531823a88.532142 88.532142 0 0 1-75.628011 62.478865z m-19.51954 7.187111l-29.48349-5.063647 32.668687-190.458446 29.48349 5.145318V530.866167z" fill="#FFFFFF" /></svg>