<svg xmlns="http://www.w3.org/2000/svg" viewBox="0 0 1024 1024" width="200" height="200"><path d="M120.33744592 773.34300445c0-234.37615408 189.99371852-424.36987259 424.3698726-424.3698726s424.36987259 189.99371852 424.36987259 424.3698726" fill="#F9F0D4" /><path d="M672.32047408 421.43895703h197.32404147A21.40842667 21.40842667 0 0 1 891.05294222 442.82311111a21.40842667 21.40842667 0 0 1-21.40842667 21.40842667H672.32047408a1.35926518 1.35926518 0 0 1-1.35926519-1.35926519v-40.04977777a1.35926518 1.35926518 0 0 1 1.35926519-1.35926519zM696.13188741 507.14548148h287.63022222a21.40842667 21.40842667 0 0 1 21.40842667 21.40842667 21.40842667 21.40842667 0 0 1-21.40842667 21.40842667h-287.63022222a1.35926518 1.35926518 0 0 1-1.35926519-1.35926519v-40.04977778a1.35926518 1.35926518 0 0 1 1.35926519-1.35926518zM73.44279703 730.51401482H321.46014815a1.35926518 1.35926518 0 0 1 1.35926518 1.35926518v40.04977778a1.35926518 1.35926518 0 0 1-1.35926518 1.35926519H73.44279703A21.40842667 21.40842667 0 0 1 52.03437037 751.93457778a21.40842667 21.40842667 0 0 1 21.40842666-21.40842667z" fill="#F9F0D4" /><path d="M113.33480297 644.86817185l109.29948444 0 0 42.81685333-109.29948444 0 0-42.81685333Z" fill="#F9F0D4" /><path d="M120.37385482 559.23446518h87.56337777a1.35926518 1.35926518 0 0 1 1.35926519 1.35926519v40.04977778a1.35926518 1.35926518 0 0 1-1.35926519 1.35926518h-87.56337777a21.40842667 21.40842667 0 0 1-21.40842667-21.40842666 21.40842667 21.40842667 0 0 1 21.40842667-21.40842667z" fill="#F9F0D4" /><path d="M759.53189925 464.26794667l149.1065363 0 0 42.81685333-149.1065363 0 0-42.81685333Z" fill="#FFFFFF" /><path d="M217.82831408 773.34300445c0-174.82334815 141.71553185-316.53888 316.53888-316.53888s316.5267437 141.71553185 316.5267437 316.53888" fill="#FFFBEE" /><path d="M187.26912 573.09411555l27.25812148-10.8255763a1.21362963 1.21362963 0 0 0 0-2.22094222l-27.25812148-10.82557628a13.1072 13.1072 0 0 1-7.34245925-7.28177778l-10.8255763-27.27025779a1.21362963 1.21362963 0 0 0-2.23307853 0l-10.82557629 27.27025779a13.07079111 13.07079111 0 0 1-7.28177778 7.28177778l-27.25812148 10.82557628a1.21362963 1.21362963 0 0 0 0 2.22094222l27.25812148 10.8255763a13.07079111 13.07079111 0 0 1 7.28177778 7.28177778l10.82557629 27.25812149a1.21362963 1.21362963 0 0 0 2.23307853 0l10.8255763-27.25812149a13.1072 13.1072 0 0 1 7.34245925-7.28177778z" fill="#F5C244" /><path d="M178.98002963 567.96046222l15.55873185-6.2016474a0.69176889 0.69176889 0 0 0 0-1.21362964l-15.55873185-6.17737481a7.47595852 7.47595852 0 0 1-4.18702222-4.18702222l-6.17737482-15.54659556a0.67963259 0.67963259 0 0 0-1.21362962 0l-6.17737482 15.54659556a7.47595852 7.47595852 0 0 1-4.18702223 4.18702222L141.43032889 560.54518518a0.69176889 0.69176889 0 0 0 0 1.21362964l15.55873186 6.16523851a7.5487763 7.5487763 0 0 1 4.18702222 4.18702222l6.15310221 15.59514075a0.67963259 0.67963259 0 0 0 1.21362964 0l6.17737481-15.55873185a7.5487763 7.5487763 0 0 1 4.25984-4.18702223z" fill="#F5C244" /><path d="M403.65928297 170.15694222l17.42772148-6.91768889a0.76458667 0.76458667 0 0 0 0-1.41994666l-17.42772148-6.91768889a8.36190815 8.36190815 0 0 1-4.68461038-4.69674667l-6.91768889-17.41558519a0.76458667 0.76458667 0 0 0-1.41994667 0l-6.92982518 17.41558519a8.36190815 8.36190815 0 0 1-4.68461037 4.69674667l-17.42772148 6.91768889a0.76458667 0.76458667 0 0 0 0 1.41994666l17.42772148 6.91768889a8.36190815 8.36190815 0 0 1 4.68461037 4.69674667l6.92982518 17.42772148a0.76458667 0.76458667 0 0 0 1.41994667 0l6.91768889-17.42772148a8.36190815 8.36190815 0 0 1 4.68461038-4.69674667z" fill="#F5C244" /><path d="M398.36785778 166.88014222l9.93962667-3.9442963a0.43690667 0.43690667 0 0 0 0-0.81313184l-9.93962667-3.9442963a4.76956445 4.76956445 0 0 1-2.66998519-2.66998519l-3.95643259-9.93962667a0.42477037 0.42477037 0 0 0-0.80099555 0l-3.9442963 9.93962667a4.76956445 4.76956445 0 0 1-2.66998518 2.66998519l-9.93962667 3.9442963a0.43690667 0.43690667 0 0 0 0 0.81313184l9.93962667 3.9442963a4.75742815 4.75742815 0 0 1 2.66998518 2.68212148l3.9564326 9.93962667a0.42477037 0.42477037 0 0 0 0.80099555 0l3.95643259-9.93962667a4.75742815 4.75742815 0 0 1 2.65784889-2.68212148z" fill="#F5C244" /><path d="M871.36786963 575.65487408l13.68974222-5.40065186a0.60681482 0.60681482 0 0 0 0-1.11653925l-13.68974222-5.42492445a6.61428148 6.61428148 0 0 1-3.64088888-3.64088889l-5.43706075-13.67760593a0.59467852 0.59467852 0 0 0-1.11653925 0l-5.42492445 13.67760593a6.60214518 6.60214518 0 0 1-3.64088889 3.64088889l-13.67760593 5.42492445a0.59467852 0.59467852 0 0 0 0 1.11653925l13.67760593 5.43706075a6.57787259 6.57787259 0 0 1 3.64088889 3.64088888l5.42492445 13.68974223a0.60681482 0.60681482 0 0 0 1.11653925 0l5.43706075-13.68974223a6.59000889 6.59000889 0 0 1 3.64088888-3.67729777z" fill="#F5C244" /><path d="M867.2172563 573.08197925l7.80363852-3.10689184a0.3398163 0.3398163 0 0 0 0-0.63108741l-7.80363852-3.09475555A3.73797925 3.73797925 0 0 1 865.16622222 564.18607408l-3.10689185-7.80363853a0.3398163 0.3398163 0 0 0-0.6310874 0l-3.14330075 7.80363853a3.77438815 3.77438815 0 0 1-2.09957925 2.11171555l-7.80363852 3.09475555a0.3398163 0.3398163 0 0 0 0 0.63108741l7.80363852 3.10689186a3.76225185 3.76225185 0 0 1 2.09957925 2.09957925l3.09475556 7.80363852a0.3398163 0.3398163 0 0 0 0.6310874 0l3.10689185-7.80363852a3.72584297 3.72584297 0 0 1 2.09957927-2.14812445z" fill="#F5C244" /><path d="M107.87346963 602.05131852l179.04677926 0 0 42.81685333-179.04677926 0 0-42.81685333Z" fill="#FFFFFF" /><path d="M107.87346963 687.69716148l148.05067852 0 0 42.81685334-148.05067852 0 0-42.81685334Z" fill="#FFFFFF" /><path d="M379.19250963 387.66364445H638.58157037A22.75555555 22.75555555 0 0 1 661.27644445 410.4192v203.88977778a1.86898963 1.86898963 0 0 1-1.86898963 1.86898963H379.19250963a1.86898963 1.86898963 0 0 1-1.86898963-1.86898963V389.53263408a1.86898963 1.86898963 0 0 1 1.86898963-1.86898963z" fill="#F5AC3A" /><path d="M603.81108148 401.48688592h-118.20752593a18.79912297 18.79912297 0 1 1 0-37.62251851h118.20752593a18.79912297 18.79912297 0 1 1 0 37.62251851zM401.14706963 723.54778075a18.79912297 18.79912297 0 0 1-16.10486518-28.45961483l43.76348444-73.01195851A18.78698667 18.78698667 0 0 1 461.02755555 641.38505482l-43.69066666 73.01195851a18.76271408 18.76271408 0 0 1-16.18981926 9.15076742zM691.32591408 723.54778075a18.76271408 18.76271408 0 0 1-16.14127408-9.15076742l-43.76348445-73.01195851A18.78698667 18.78698667 0 0 1 663.7037037 622.07620741l43.69066667 73.01195851a18.79912297 18.79912297 0 0 1-16.10486519 28.45961483z" fill="#2D2924" /><path d="M444.92269037 554.44062815m-25.97167407 0a25.97167408 25.97167408 0 1 0 51.94334815 0 25.97167408 25.97167408 0 1 0-51.94334815 0Z" fill="#2D2924" /><path d="M641.40932741 554.44062815m-25.97167408 0a25.97167408 25.97167408 0 1 0 51.94334815 0 25.97167408 25.97167408 0 1 0-51.94334815 0Z" fill="#2D2924" /><path d="M689.25060741 642.62295703h-289.08657778a47.79273482 47.79273482 0 0 1-47.73205333-47.74418962V338.36600889a47.79273482 47.79273482 0 0 1 47.73205333-47.73205334h289.08657778a47.79273482 47.79273482 0 0 1 47.73205334 47.73205334v256.51275852a47.79273482 47.79273482 0 0 1-47.73205334 47.74418962z m-289.08657778-314.40289185a10.27944297 10.27944297 0 0 0-10.13380741 10.14594371v256.51275852a10.26730667 10.26730667 0 0 0 10.13380741 10.1459437h289.08657778a10.27944297 10.27944297 0 0 0 10.1459437-10.1459437V338.36600889a10.27944297 10.27944297 0 0 0-10.1459437-10.14594371z" fill="#2D2924" /></svg>