<svg xmlns="http://www.w3.org/2000/svg" viewBox="0 0 1024 1024" width="200" height="200"><path d="M807 862c0 6.627-5.373 12-12 12H229c-6.627 0-12-5.373-12-12V186c0-6.627 5.373-12 12-12h566c6.627 0 12 5.373 12 12v676z" fill="#EBF2FD" /><path d="M200 281a5 5 0 0 1-5-5v-27a5 5 0 0 1 10 0v27a5 5 0 0 1-5 5zM612 879H212c-9.374 0-17-7.626-17-17V299a5 5 0 0 1 10 0v563c0 3.859 3.14 7 7 7h400c2.762 0 5 2.238 5 5s-2.238 5-5 5zM778 879H667c-2.762 0-5-2.238-5-5s2.238-5 5-5h111c3.859 0 7-3.141 7-7V186c0-3.86-3.141-7-7-7H212c-3.86 0-7 3.14-7 7v41a5 5 0 0 1-10 0v-41c0-9.374 7.626-17 17-17h566c9.374 0 17 7.626 17 17v676c0 9.374-7.626 17-17 17z" fill="#000000" /><path d="M379 304h-68a5 5 0 0 1 0-10h68a5 5 0 0 1 0 10z" fill="#000000" /><path d="M311 304h-47a5 5 0 0 1 0-10h47a5 5 0 0 1 0 10zM716 347.714H602a5 5 0 1 1 0-10h114a5 5 0 1 1 0 10z" fill="#000000" /><path d="M602 347.714h-25a5 5 0 1 1 0-10h25a5 5 0 1 1 0 10z" fill="#000000" /><path d="M577 347.714H372a5 5 0 0 1 0-10h205a5 5 0 1 1 0 10zM318 347.714h-54a5 5 0 0 1 0-10h54a5 5 0 0 1 0 10zM716 391.429H453a5 5 0 0 1 0-10h263a5 5 0 1 1 0 10z" fill="#000000" /><path d="M453 391.429h-24a5 5 0 0 1 0-10h24a5 5 0 0 1 0 10z" fill="#000000" /><path d="M429 391.429h-19a5 5 0 0 1 0-10h19a5 5 0 0 1 0 10z" fill="#000000" /><path d="M410 391.429h-11a5 5 0 0 1 0-10h11a5 5 0 0 1 0 10z" fill="#000000" /><path d="M399 391.429H264a5 5 0 0 1 0-10h135a5 5 0 0 1 0 10zM716 435.143H458a5 5 0 0 1 0-10h258a5 5 0 1 1 0 10z" fill="#000000" /><path d="M458 435.143h-44a5 5 0 0 1 0-10h44a5 5 0 0 1 0 10z" fill="#000000" /><path d="M414 435.143H264a5 5 0 0 1 0-10h150a5 5 0 0 1 0 10zM716 610H264a5 5 0 1 1 0-10h452c2.762 0 5 2.238 5 5s-2.238 5-5 5zM716 566.286H264a5 5 0 1 1 0-10h452c2.762 0 5 2.238 5 5s-2.238 5-5 5zM716 522.571H264a5 5 0 1 1 0-10h452c2.762 0 5 2.238 5 5s-2.238 5-5 5zM716 478.857H264a5 5 0 0 1 0-10h452a5 5 0 1 1 0 10z" fill="#000000" /><path d="M391.671 771.852c8.786-12.153 15.858-26.3 16.751-40.147 0.964-13.453-4.383-26.582-15.667-34.306-11.153-7.747-26.073-8.582-38.333-2.172-7.032 3.842-7.999 8.894-11.35 15.867-8.193-7.874-24.501-11.033-36.707-8.833-9.974 1.797-13.527 6.736-18.907 14.481-7.878 11.176-7.204 25.642-1.737 37.936 5.693 12.796 17.521 22.604 29.841 30.818 18.623 12.363 33.138 20.117 39.439 18.982 2.493-0.449 6.326-2.495 10.971-6.042 7.751-5.87 17.427-15.338 25.699-26.584z" fill="#F44444" /><path d="M359.624 806.952c-0.001 0-0.001 0 0 0-2.974 0-6.964-0.736-11.542-2.13-10.887-3.268-23.379-9.232-34.26-16.361-10.479-6.99-24.337-18.421-30.986-33.271-6.369-13.962-5.236-29.321 3.042-41.064 7.474-10.758 19.942-17.191 33.34-17.191 1.707 0 3.43 0.107 5.122 0.32 7.087 1.024 13.805 3.855 19.36 8.097 6.001-9.633 15.656-16.194 27.073-18.251a41.26 41.26 0 0 1 7.313-0.657c8.208 0 16.088 2.46 22.789 7.114 11.772 8.059 18.245 22.035 17.294 37.374-1.015 16.341-9.956 31.836-17.277 41.958-13.24 18.226-31.062 32.472-38.778 33.861-0.744 0.133-1.582 0.201-2.49 0.201z m-40.407-103.018c-11.105 0-21.425 5.31-27.604 14.205-6.842 9.707-7.733 22.473-2.398 34.167 5.978 13.351 18.779 23.853 28.468 30.315 10.164 6.66 22.294 12.46 32.425 15.5 3.883 1.183 7.258 1.831 9.516 1.831a7.19 7.19 0 0 0 1.247-0.091c4.599-0.828 20.891-12.55 34.353-31.081 6.774-9.366 15.046-23.616 15.958-38.283 0.796-12.855-4.542-24.511-14.282-31.178-5.542-3.85-12.042-5.877-18.815-5.877-2.017 0-4.06 0.184-6.071 0.546-10.676 1.924-19.486 8.605-24.17 18.333l-2.098 4.355-3.483-3.353c-5.051-4.861-11.75-8.105-18.861-9.134a34.245 34.245 0 0 0-4.185-0.255z" fill="#000000" /><path d="M403.154 735.719a3.499 3.499 0 0 1-3.496-3.717c0.26-4.194-0.252-8.252-1.523-12.059a3.501 3.501 0 0 1 2.211-4.429 3.503 3.503 0 0 1 4.428 2.212c1.557 4.664 2.187 9.612 1.87 14.709a3.5 3.5 0 0 1-3.49 3.284z m-5.465-21.065a3.496 3.496 0 0 1-2.905-1.542 26.494 26.494 0 0 0-4.273-4.909 3.498 3.498 0 0 1-0.271-4.941 3.498 3.498 0 0 1 4.942-0.271 33.489 33.489 0 0 1 5.405 6.206 3.5 3.5 0 0 1-2.898 5.457z m-10.691-9.683a3.476 3.476 0 0 1-1.678-0.432 27.194 27.194 0 0 0-9.205-3.069l-0.027-0.004a28.116 28.116 0 0 0-5.88-0.211 3.5 3.5 0 1 1-0.489-6.982 34.843 34.843 0 0 1 7.397 0.27l0.035 0.005a34.157 34.157 0 0 1 11.532 3.854 3.501 3.501 0 0 1 1.389 4.751 3.504 3.504 0 0 1-3.074 1.818z" fill="#FFFFFF" /><path d="M767.144 787.077c-2.355 4.258-10.586 11.549-21.97 16.457l-56.527 20.951-14.235-60.729c-1.836-8.56 1.537-19.319 3.891-23.576l102.806-185.886a8.81 8.81 0 0 1 11.973-3.446l72.474 40.083a8.81 8.81 0 0 1 3.446 11.973L767.144 787.077z" fill="#F4DD50" /><path d="M680.252 824.628l-15.139-64.59c-1.969-9.169 1.294-20.752 4.235-26.069l102.806-185.886a12.323 12.323 0 0 1 10.78-6.354c2.071 0 4.129 0.532 5.95 1.54l72.474 40.083a12.23 12.23 0 0 1 5.872 7.367c0.909 3.16 0.534 6.485-1.058 9.362L764.314 784.254c-2.808 5.077-11.831 12.884-23.646 17.977l-0.169 0.068-60.247 22.329z m102.683-275.899a5.318 5.318 0 0 0-4.655 2.743L675.474 737.357c-2.027 3.665-5.144 13.631-3.531 21.147l13.315 56.803 52.721-19.541c10.854-4.696 18.35-11.535 20.21-14.9l101.859-184.174a5.27 5.27 0 0 0 0.455-4.037 5.277 5.277 0 0 0-2.532-3.179l-72.475-40.083a5.236 5.236 0 0 0-2.561-0.664z" fill="#000000" /><path d="M888.934 604.178c-1.692 3.059-7.002 3.36-11.86 0.672L775.17 548.492c-4.859-2.687-7.426-7.345-5.735-10.403l11.996-21.69c1.692-3.058 7.357-4.002 12.216-1.315l101.548 57.001c4.859 2.687 7.426 7.345 5.735 10.403l-11.996 21.69z" fill="#FFFFFF" /><path d="M891.431 560.98c-2.025 3.662-6.526 5.05-10.053 3.099l-73.962-40.906c-3.526-1.95-4.743-6.5-2.718-10.162l14.364-25.971c2.025-3.662 6.526-5.05 10.053-3.1l73.962 40.906c3.526 1.95 4.743 6.5 2.718 10.162l-14.364 25.972z" fill="#F44444" /><path d="M883.003 568.279l-6.125-3.387 16.699-30.196c2.856-5.165 3.398-9.224 1.38-10.34l-73.962-40.905c-1.045-0.58-2.196-0.276-2.792-0.044-1.235 0.485-2.366 1.525-3.101 2.853l-16.7 30.196-6.125-3.389 16.7-30.195c1.532-2.771 3.9-4.896 6.67-5.981 2.957-1.16 6.141-1 8.736 0.435l73.962 40.906c2.216 1.226 8.863 6.28 1.356 19.853l-16.698 30.194z" fill="#000000" /><path d="M876.893 606.454c-2.678 0-5.61-0.807-8.259-2.271L766.73 547.824c-2.919-1.614-5.297-3.899-6.694-6.435-1.66-3.013-1.81-6.192-0.408-8.725l11.995-21.69c1.628-2.943 5.107-4.7 9.308-4.7 2.629 0 5.28 0.697 7.665 2.016l101.567 57.012c2.9 1.604 5.278 3.89 6.676 6.425 1.66 3.013 1.809 6.192 0.408 8.725l-11.996 21.691c-1.517 2.739-4.563 4.311-8.358 4.311z m-95.963-93.18c-1.88 0-2.95 0.667-3.183 1.088l-11.995 21.689c-0.166 0.301-0.103 1.021 0.414 1.957 0.757 1.375 2.197 2.719 3.951 3.689l101.905 56.359c1.628 0.9 3.357 1.396 4.87 1.396 1.268 0 2.046-0.363 2.232-0.7l11.996-21.691c0.166-0.3 0.103-1.021-0.414-1.957-0.757-1.374-2.198-2.719-3.952-3.689l-101.566-57.011c-1.312-0.724-2.832-1.13-4.258-1.13z" fill="#000000" /><path d="M751.256 780.117c-2.235-5.71-3.298-3.502-6.26-11.293-2.962-7.791-12.188-10.936-12.188-10.936-8.825-4.881-23.562-1.283-23.562-1.283-20.165-2.168-20.303-11.596-28.807-19.93l-1.692 3.06c-2.355 4.258-5.727 15.016-3.892 23.576l14.235 60.729 56.527-20.951c7.718-3.328 13.98-7.749 17.951-11.579-5.138-3.303-10.701-7.278-12.312-11.393z" fill="#FFFFFF" /><path d="M681.777 823.242l-15.14-64.591c-1.968-9.168 1.295-20.751 4.235-26.067l3.919-7.087 3.286 3.22c2.468 2.419 4.223 4.829 5.92 7.159 4.155 5.707 7.451 10.232 20.241 11.727 1.648-0.354 6.267-1.233 11.523-1.233 5.515 0 10.114 0.963 13.677 2.861 1.826 0.688 10.806 4.445 14.017 12.892 1.582 4.159 1.714 4.334 2.352 5.173 0.646 0.853 1.625 2.141 3.654 5.589 1.771 3.009 6.058 6.927 11.188 10.224l3.722 2.392-3.185 3.072c-4.865 4.692-11.789 9.166-18.995 12.273l-0.169 0.068-60.245 22.328z m-5.44-85.932c-1.963 4.373-4.314 13.074-2.87 19.809l13.316 56.804 52.72-19.541c4.939-2.138 9.699-4.964 13.573-8.022-3.281-2.464-7.354-6.027-9.647-9.925-1.82-3.093-2.648-4.184-3.196-4.905-1.171-1.542-1.522-2.194-3.319-6.918-2.324-6.114-9.979-8.845-10.057-8.872l-0.281-0.098-0.272-0.148c-2.511-1.389-6.156-2.123-10.54-2.123-5.569 0-10.453 1.167-10.501 1.179l-0.593 0.143-0.608-0.064c-16.348-1.757-21.113-8.301-25.722-14.629a99.96 99.96 0 0 0-2.003-2.69z" fill="#000000" /><path d="M680.513 792.304l28.244 15.621-3.388 6.126-28.244-15.621z" fill="#000000" /></svg>