<svg xmlns="http://www.w3.org/2000/svg" viewBox="0 0 1024 1024" width="200" height="200"><path d="M714.7 293.2c-6.6 14.5-13.3 29.1-20 43.6-19.1-28.4-40.9-50.6-64.1-67.8l11.4-41.5c26.7 18 51.2 40 72.7 65.7zM688.6 789.3c1.2 14.4 2 29.3 2.3 44.6-6.4 5.5-13.1 10.7-19.9 15.5-1.7-14.3-3.6-28-5.6-41.3 7.9-5.6 15.7-11.9 23.2-18.8z" fill="#EBEDF7" /><path d="M686.4 767.4c0.8 7.2 1.6 14.4 2.2 21.8-7.5 7-15.3 13.2-23.2 18.8-1.1-7.3-2.3-14.5-3.6-21.5 7.7-5.7 15.2-11.9 22.5-18.9l2.1-0.2z" fill="#2483BF" /><path d="M623 296.1l7.4-27.1c23.2 17.2 45 39.4 64.1 67.8-44 94.3-88.7 182.7-88.7 182.7s61.8 94.7 79.5 247.9l-2.1 2.5c-7.3 6.9-14.8 13.2-22.5 18.9-33-188.4-99.3-267.8-99.3-267.8L623 296.1z" fill="#2483BF" /><path d="M661.9 786.5c1.2 7 2.4 14.2 3.6 21.5-62.4 44.2-134.7 49.5-172.2 48.8-25.4-86.5-66.6-178.9-100.2-247.5h52.1l27.6-81.2-53.6-119.5-61.5-8.4 35-183.6c57-7.5 156.6-8.7 239 52.4l-7.4 27.1L562.5 521s66.3 77.1 99.4 265.5z" fill="#39ACD3" /><path d="M419.1 408.6l53.6 119.5-27.6 81.2H393c-20.2-41.3-37.7-74-47.3-91.5-5.1-9.2-6.8-20-4.8-30.3l16.6-87.2 61.6 8.3z" fill="#87D6D4" /><path d="M493.2 856.8c-9.5-0.2-16.8-0.8-21.2-1.2-32.1-74.4-78.3-174.8-114-246.3h35c33.6 68.6 74.8 161 100.2 247.5zM393 609.3h-35c-12-23.9-22.7-44.6-31.4-60-15.8-28-20.8-60.8-14-92.2l10.3-61.5 34.6 4.7-16.6 87.2c-2 10.4-0.3 21.1 4.8 30.3 9.6 17.5 27.1 50.2 47.3 91.5zM392.6 216.6l-35 183.6-34.6-4.7 28.7-171.3c7.2-1.8 21.6-5.1 40.9-7.6z" fill="#FFFFFF" /><path d="M426.2 592.9h-0.9c-2.8 0-5-2.2-5-5 0-1.6 0.8-3 1.9-4l2.8-8.2c0.9-2.6 3.7-4 6.3-3.1 2.6 0.9 4 3.7 3.1 6.3l-3.6 10.5a4.8 4.8 0 0 1-4.6 3.5z m-18.9 0h-8.2c-2.8 0-5-2.2-5-5s2.2-5 5-5h8.2c2.8 0 5 2.2 5 5s-2.2 5-5 5z m28.3-27.6c-0.5 0-1.1-0.1-1.6-0.3-2.6-0.9-4-3.7-3.1-6.3l3.9-11.4c0.9-2.6 3.7-4 6.3-3.1 2.6 0.9 4 3.7 3.1 6.3l-3.9 11.4c-0.7 2.1-2.7 3.4-4.7 3.4z m9.6-28.4c-0.5 0-1.1-0.1-1.6-0.3-2.6-0.9-4-3.7-3.1-6.3l2.4-7.1-0.2-0.5c-1.1-2.5 0-5.5 2.5-6.6 2.5-1.1 5.5 0 6.6 2.5l1 2.3c0.5 1.2 0.6 2.5 0.2 3.7l-3 9c-0.8 2-2.7 3.3-4.8 3.3z m-5.3-27.7c-1.9 0-3.7-1.1-4.6-3l-4.9-10.9c-1.1-2.5 0-5.5 2.5-6.6 2.5-1.1 5.5 0 6.6 2.5l4.9 10.9c1.1 2.5 0 5.5-2.5 6.6-0.7 0.4-1.4 0.5-2 0.5z m-12.3-27.4c-1.9 0-3.7-1.1-4.6-3l-4.9-10.9c-1.1-2.5 0-5.5 2.5-6.6 2.5-1.1 5.5 0 6.6 2.5l4.9 10.9c1.1 2.5 0 5.5-2.5 6.6-0.7 0.4-1.3 0.5-2 0.5z m-12.3-27.3c-1.9 0-3.7-1.1-4.6-3l-4.9-10.9c-1.1-2.5 0-5.5 2.5-6.6 2.5-1.1 5.5 0 6.6 2.5l4.9 10.9c1.1 2.5 0 5.5-2.5 6.6-0.6 0.3-1.3 0.5-2 0.5z m-15.7-22.9h-0.7L387 430c-2.7-0.4-4.7-2.9-4.3-5.6s2.9-4.6 5.6-4.3l11.9 1.6c2.7 0.4 4.7 2.9 4.3 5.6-0.3 2.4-2.4 4.3-4.9 4.3z m-29.7-4.1h-0.7l-11.9-1.6c-2.7-0.4-4.7-2.9-4.3-5.6s2.9-4.6 5.6-4.3l11.9 1.6c2.7 0.4 4.7 2.9 4.3 5.6-0.3 2.5-2.4 4.3-4.9 4.3z" fill="#BCF7EF" /><path d="M674.3 352.3c-1.5 0-3-0.7-4-2-1.6-2.1-3.3-4.3-4.9-6.4-1.7-2.2-1.4-5.3 0.8-7 2.2-1.7 5.3-1.4 7 0.8 1.7 2.2 3.5 4.4 5.1 6.6 1.7 2.2 1.2 5.3-1 7-0.9 0.6-1.9 1-3 1z m-16.7-20.2c-1.4 0-2.7-0.5-3.7-1.6-2.6-2.9-5.4-5.8-8.1-8.5-2-2-1.9-5.1 0-7.1 2-1.9 5.1-1.9 7.1 0 2.9 2.9 5.7 5.8 8.4 8.8 1.9 2 1.7 5.2-0.3 7.1-1 0.8-2.2 1.3-3.4 1.3z m-21.4-21c-1.2 0-2.3-0.4-3.3-1.2-2.9-2.6-6-5.1-9-7.5-2.2-1.7-2.5-4.9-0.8-7 1.7-2.2 4.9-2.5 7-0.8 3.2 2.5 6.3 5.2 9.4 7.8 2.1 1.8 2.3 5 0.5 7.1-1 1-2.4 1.6-3.8 1.6z m-23.7-18.4c-1 0-2-0.3-2.8-0.9-3.2-2.2-6.5-4.4-9.9-6.4-2.3-1.5-3.1-4.5-1.6-6.9 1.5-2.3 4.5-3.1 6.9-1.6 3.5 2.1 6.9 4.4 10.2 6.7 2.3 1.6 2.9 4.7 1.3 7-0.9 1.3-2.5 2.1-4.1 2.1z m-25.7-15.5c-0.8 0-1.6-0.2-2.3-0.6-3.4-1.8-7-3.6-10.5-5.2-2.5-1.2-3.6-4.2-2.4-6.7 1.2-2.5 4.2-3.6 6.7-2.4 3.7 1.7 7.4 3.6 10.9 5.5 2.4 1.3 3.4 4.3 2.1 6.8-0.9 1.6-2.7 2.6-4.5 2.6z m-27.2-12.4c-0.6 0-1.2-0.1-1.8-0.3-3.6-1.4-7.3-2.8-11.1-4.1-2.6-0.9-4-3.7-3.1-6.4 0.9-2.6 3.7-4 6.4-3.1 3.8 1.3 7.7 2.7 11.5 4.2 2.6 1 3.8 3.9 2.8 6.5-0.8 1.9-2.7 3.2-4.7 3.2z m-28.5-9.5c-0.4 0-0.9-0.1-1.3-0.2-3.7-1-7.6-2-11.4-2.9-2.7-0.6-4.4-3.3-3.7-6 0.6-2.7 3.3-4.4 6-3.7 4 0.9 7.9 1.9 11.8 3 2.7 0.7 4.2 3.5 3.5 6.2-0.7 2.1-2.7 3.6-4.9 3.6z m-29.2-6.6c-0.3 0-0.6 0-0.9-0.1-3.8-0.7-7.8-1.3-11.7-1.8-2.7-0.4-4.6-2.9-4.3-5.6s2.9-4.6 5.6-4.3c4 0.6 8.1 1.2 12 1.9 2.7 0.5 4.5 3.1 4.1 5.8-0.4 2.4-2.5 4.1-4.8 4.1z m-101.7-3.3c-2.5 0-4.7-1.9-5-4.5-0.3-2.7 1.7-5.2 4.5-5.5 4-0.4 8.1-0.7 12.1-1 2.7-0.2 5.1 1.9 5.3 4.6 0.2 2.8-1.9 5.1-4.6 5.3-3.9 0.3-7.9 0.6-11.8 1-0.2 0.1-0.3 0.1-0.5 0.1z m71.9-0.5h-0.4c-3.9-0.3-7.9-0.6-11.8-0.8-2.8-0.1-4.9-2.5-4.7-5.3 0.1-2.8 2.5-4.9 5.3-4.7 4.1 0.2 8.1 0.5 12.1 0.8 2.8 0.2 4.8 2.7 4.6 5.4-0.3 2.6-2.5 4.6-5.1 4.6z m-42-1.3c-2.7 0-4.9-2.2-5-4.9-0.1-2.8 2.1-5.1 4.9-5.1 4.1-0.1 8.1-0.1 12.2-0.1 2.8 0 5 2.3 5 5 0 2.8-2.3 5-5 5-3.9 0-7.9 0-11.8 0.1h-0.3zM504.9 842.5c-2.7 0-4.9-2.1-5-4.8-0.1-2.8 2.1-5.1 4.8-5.2 3.9-0.1 7.9-0.4 11.8-0.6 2.8-0.2 5.1 1.9 5.3 4.6 0.2 2.8-1.9 5.1-4.6 5.3-4 0.3-8.1 0.5-12.2 0.7h-0.1z m29.9-2.4c-2.5 0-4.6-1.8-5-4.4-0.3-2.7 1.6-5.2 4.3-5.6 3.9-0.5 7.8-1.1 11.7-1.7 2.7-0.5 5.3 1.4 5.7 4.1 0.5 2.7-1.4 5.3-4.1 5.7-4 0.7-8 1.3-12.1 1.8-0.1 0.1-0.3 0.1-0.5 0.1z m29.6-5.2c-2.3 0-4.3-1.6-4.9-3.9-0.6-2.7 1.1-5.4 3.8-6 3.8-0.9 7.7-1.8 11.5-2.8 2.7-0.7 5.4 0.9 6.1 3.5s-0.9 5.4-3.5 6.1c-3.9 1-7.9 2-11.8 2.9-0.5 0.2-0.9 0.2-1.2 0.2z m28.9-8.1c-2.1 0-4-1.3-4.7-3.4-0.9-2.6 0.5-5.5 3.1-6.3 3.7-1.3 7.5-2.6 11.1-4 2.6-1 5.5 0.3 6.5 2.9s-0.3 5.5-2.9 6.5c-3.8 1.5-7.6 2.9-11.5 4.2-0.6 0-1.1 0.1-1.6 0.1z m27.8-11.1c-1.9 0-3.7-1.1-4.5-2.9-1.2-2.5-0.1-5.5 2.4-6.6 3.6-1.7 7.1-3.4 10.5-5.2 2.4-1.3 5.5-0.4 6.8 2.1 1.3 2.4 0.4 5.5-2.1 6.8-3.6 1.9-7.3 3.7-11 5.5-0.7 0.1-1.4 0.3-2.1 0.3z m26.3-14.4c-1.7 0-3.3-0.8-4.2-2.3-1.5-2.3-0.8-5.4 1.6-6.9 3.3-2.1 6.6-4.3 9.8-6.5 2.3-1.6 5.4-1 7 1.2 1.6 2.3 1 5.4-1.2 7-3.3 2.3-6.8 4.6-10.2 6.8-0.9 0.5-1.9 0.7-2.8 0.7z m24.4-17.5c-1.4 0-2.9-0.6-3.9-1.8-1.8-2.1-1.4-5.3 0.7-7 3-2.5 6-5.1 8.9-7.7 2-1.9 5.2-1.7 7.1 0.3 1.9 2 1.7 5.2-0.3 7.1-3 2.7-6.1 5.4-9.3 8-1 0.8-2.1 1.1-3.2 1.1z" fill="#43C7E0" /><path d="M527.6 905.2c-8.4 0-16.8-0.4-25.3-1.2-5.5-0.5-11-1.2-16.3-2-3.4-0.5-6.4-2.8-7.7-6-4.7-11.4-9.9-23.6-15.4-36.4-34.1-78.9-79.8-177.7-113.8-245.8-12.5-25-23-45.1-31.2-59.6-16.9-30.1-22.3-65.3-15.1-99l45.6-271.7c0.6-3.8 3.4-6.9 7.1-7.9 14.3-4.2 28.9-7.5 43.4-9.9 88-14.5 176.6 4.5 249.7 53.5 27.9 18.7 53.1 41.4 74.9 67.6 2.5 2.9 3 7 1.4 10.5-6.5 14.3-13.3 29.1-20.1 43.7-37.6 80.7-76.3 157.9-86.4 178 5.5 9.2 17.5 30.7 30.9 63.2 16.4 39.7 37.8 103.8 47.1 184.1 0.9 7.3 1.6 14.8 2.2 22.2 1.3 15 2.1 30.2 2.4 45.2 0.1 3-1.2 5.9-3.5 7.8-6.7 5.7-13.6 11.1-20.7 16-44.6 31.4-95.7 47.7-149.2 47.7z m-33-22.2c3.2 0.4 6.4 0.8 9.6 1.1 57.8 5.5 113.5-9.4 161.1-42.9 5.3-3.7 10.5-7.7 15.6-11.9-0.4-13.1-1.1-26.2-2.2-39.2-0.6-7.2-1.3-14.4-2.1-21.5-17.2-148.9-77.3-242.7-78-243.6-1.9-3-2.2-6.8-0.5-10 0.4-0.9 45.2-89.3 88.6-182.4 5.9-12.6 11.7-25.3 17.4-37.7-19.7-22.8-42.1-42.6-66.6-59.1-68.8-46.1-152.4-64-235.3-50.4-11.7 1.9-23.4 4.5-35 7.6l-44.6 265.6c0 0.1-0.1 0.3-0.1 0.4-6.2 29.1-1.6 59.3 12.9 85.2 8.3 14.8 19 35.1 31.6 60.5 34.2 68.4 80.1 167.6 114.3 246.8 4.6 11 9.1 21.6 13.3 31.5z" fill="#2D3F8C" /><path d="M696.6 343.2c-1.6 0-3.2-0.8-4.2-2.2l-0.2-0.4-0.6-0.9c-17.7-26.3-38.9-48.7-63-66.6-82.1-61-182.7-58.4-235.3-51.5-19.2 2.5-33.5 5.8-40.4 7.5-3.2 0.8-4.9 1.3-4.9 1.3-2.6 0.8-5.4-0.7-6.2-3.4-0.8-2.6 0.7-5.4 3.4-6.2 0.1 0 1.9-0.6 5.3-1.4 7.1-1.8 21.8-5.1 41.5-7.7 26.4-3.5 67.1-6.2 111.4 0.5 50 7.6 94.1 25.4 131.2 52.9 25 18.6 47 41.8 65.3 69 0.2 0.3 0.4 0.7 0.7 1l0.2 0.3c1.5 2.3 0.9 5.4-1.4 6.9-0.9 0.6-1.9 0.9-2.8 0.9zM499.8 861.9c-2.3 0-4.6 0-6.7-0.1-9.6-0.2-17-0.8-21.6-1.2-3-0.3-4.6-0.5-4.7-0.6-2.7-0.4-4.6-2.9-4.2-5.7s2.9-4.6 5.7-4.2c0.1 0 1.6 0.2 4.3 0.5 4.4 0.4 11.5 1 20.8 1.2 36.9 0.8 108-4.4 169.2-47.8 8-5.6 15.6-11.8 22.7-18.4 0.9-0.8 1.7-1.6 2.6-2.4 2-1.9 5.2-1.8 7.1 0.2 1.9 2 1.8 5.2-0.2 7.1-0.9 0.9-1.8 1.7-2.7 2.5-7.4 6.8-15.4 13.3-23.7 19.2-60.1 42.5-129 49.7-168.6 49.7zM445.1 614.3h-88.9c-2.8 0-5-2.2-5-5s2.2-5 5-5h85.3l25.8-75.9-51.7-115.2-98.4-13.4c-2.7-0.4-4.7-2.9-4.3-5.6 0.4-2.7 2.9-4.7 5.6-4.3l101.1 13.8c1.7 0.2 3.2 1.3 3.9 2.9l53.6 119.5c0.5 1.2 0.6 2.5 0.2 3.7L449.7 611c-0.5 2-2.4 3.3-4.6 3.3z" fill="#2D3F8C" /><path d="M351.4 507.7c5 8 9.3 16.4 13.3 25 2 4.3 4 8.6 5.9 12.9 1.9 4.3 3.9 8.5 5.2 13 0.5 1.9 3.4 1.1 2.9-0.8-1.3-4.6-3.4-8.9-5.3-13.3-1.9-4.3-3.9-8.6-5.9-12.9-4.1-8.7-8.4-17.2-13.5-25.4-1-1.7-3.6-0.1-2.6 1.5z" fill="#FFFFFF" /><path d="M347 488.5c-0.3 2.2-0.5 4.3-0.8 6.5 0 0.4 0.2 0.8 0.4 1.1 0.3 0.3 0.7 0.5 1.1 0.4 0.9 0 1.4-0.7 1.5-1.5 0.3-2.2 0.5-4.3 0.8-6.5 0-0.4-0.2-0.8-0.4-1.1-0.3-0.3-0.7-0.5-1.1-0.4-0.9 0.1-1.4 0.7-1.5 1.5z" fill="#FFFFFF" /><path d="M388.2 294.9c-4.3 16.6-8 33.3-11 50.2-0.9 4.8-1.7 9.6-2.4 14.5-0.3 1.9 2.6 2.7 2.9 0.8 2.7-16.9 6-33.7 9.9-50.4 1.1-4.8 2.3-9.5 3.5-14.2 0.4-2-2.4-2.8-2.9-0.9z" fill="#FFFFFF" /></svg>