<svg xmlns="http://www.w3.org/2000/svg" viewBox="0 0 1390 1024" width="200" height="200"><path d="M1279.461313 1023.998746h-73.995771a7.040297 7.040297 0 1 1 0-14.080595h73.995771a7.040297 7.040297 0 1 1 0 14.080595zM1151.650548 1023.998746H167.345219a7.040297 7.040297 0 1 1 0-14.080595h984.305329a7.040297 7.040297 0 1 1 0 14.080595zM135.263371 1023.998746H111.459988a7.040297 7.040297 0 1 1 0-14.080595h23.803383a7.040297 7.040297 0 1 1 0 14.080595z" fill="#7ECAFC" /><path d="M133.804145 491.265952c-0.699186-7.821449-7.606601-13.593772-15.426807-12.894585a14.627028 14.627028 0 0 0-9.558858 5.065685 13.660834 13.660834 0 0 0-3.179249 10.316414 14.608399 14.608399 0 0 0 5.140199 9.558858 13.088321 13.088321 0 0 0 9.003732 3.381678h1.126398c7.818965-0.699186 13.59253-7.606601 12.894585-15.42805z m-8.663452 11.406797a11.529744 11.529744 0 0 1-12.756736-1.398373 10.561067 10.561067 0 0 1-4.0523-7.801578 11.539679 11.539679 0 0 1 2.593075-8.488346 10.578453 10.578453 0 0 1 7.821448-4.053542h1.033256a11.447779 11.447779 0 0 1 11.508632 10.475376 11.529744 11.529744 0 0 1-6.147375 11.266463zM1250.869187 141.488986c-0.968677-10.820623-10.527536-18.809727-21.346916-17.84105a20.22176 20.22176 0 0 0-13.223688 7.008008 18.901627 18.901627 0 0 0-4.401272 14.27433 20.210583 20.210583 0 0 0 7.113569 13.224929 18.108057 18.108057 0 0 0 12.457439 4.679457h1.558577c10.818139-0.964952 18.807243-10.522568 17.842291-21.345674z m-11.988003 15.783231a15.955854 15.955854 0 0 1-17.652282-1.934871 14.608399 14.608399 0 0 1-5.608393-10.794543 15.96579 15.96579 0 0 1 3.587832-11.745834 14.639447 14.639447 0 0 1 10.821864-5.608393h1.430662c8.279707-0.074514 15.221895 6.241759 15.922323 14.494145a15.945919 15.945919 0 0 1-8.502006 15.589496zM221.80103 102.197943a3.055059 3.055059 0 0 1-3.055059-3.05506V79.388075L204.793291 93.340754a3.132057 3.132057 0 0 1-4.428594-4.427352l13.955163-13.952679H194.530279a3.06872 3.06872 0 1 1 0-6.138682h19.790823l-13.955163-13.786266a2.915967 2.915967 0 0 1 0-4.427352 2.914725 2.914725 0 0 1 2.215539-1.015869c0.850697 0 1.656687 0.368843 2.213055 1.015869l13.951438 13.818555V44.669686a3.051334 3.051334 0 0 1 4.693117-3.164346 3.04264 3.04264 0 0 1 1.277909 3.164346v19.757292l14.089288-13.953921a2.918451 2.918451 0 0 1 4.428594 0 2.918451 2.918451 0 0 1 0 4.427352L229.278474 68.856814h19.75605a3.067478 3.067478 0 1 1 0 6.136198H229.278474l13.955163 13.956405c0.791086 0.787361 1.097834 1.94108 0.809715 3.021528a3.138266 3.138266 0 0 1-2.213055 2.215539 3.134541 3.134541 0 0 1-3.025254-0.81344l-14.089288-13.984969v19.75605c0.336553 1.71133-1.372293 3.053817-3.051333 3.053818h0.136608zM191.855239 941.241412h-8.443637v-8.444879c0-1.404582-1.136333-2.540915-2.540915-2.540915s-2.540915 1.136333-2.540915 2.540915v8.444879h-8.443638a2.539673 2.539673 0 1 0 0 5.08183h8.443638v8.443638a2.529738 2.529738 0 0 0 2.528496 2.526012l0.02608-0.109286a2.521045 2.521045 0 0 0 2.527254-2.528497V946.323242h8.443637a2.539673 2.539673 0 1 0 0-5.08183zM1231.368967 843.6273c0 16.738248-11.334767 29.903566-25.352024 29.903566 14.05824 0 25.352025 13.391343 25.352024 29.904808 0-16.740731 11.336009-29.904808 25.348299-29.904808-14.05824 0-25.348299-13.387618-25.348299-29.903566z m0 0" fill="#CCCCCC" /><path d="M988.198667 129.231492H402.550011C319.268598 129.231492 252.104486 196.395604 252.104486 279.675775v586.993627c0 81.9352 67.164112 149.094345 150.445525 149.094344h586.992385c81.936442 0 149.095586-67.159145 149.095587-150.443041V279.675775c-0.001242-83.280171-67.160387-150.444283-150.439316-150.444283z" fill="#DFEFF7" /><path d="M326.618127 866.669402v-586.993627c0-83.280171 67.164112-150.444283 150.445525-150.444283h-74.513641C319.268598 129.231492 252.104486 196.395604 252.104486 279.675775v586.993627c0 81.9352 67.164112 149.094345 150.445525 149.094344h74.513641c-83.281413 0-150.445525-67.159145-150.445525-149.094344z" fill="#C7E6F9" /><path d="M989.542396 1022.804044H402.550011c-86.838197 0-157.485822-70.040339-157.485822-156.134642v-586.993627c0-42.158576 16.355744-81.732771 46.054397-111.431425s69.272848-46.054398 111.431425-46.054397h585.648656c42.157334 0 81.731529 16.355744 111.428941 46.054397 29.69617 29.698654 46.050672 69.271606 46.050672 111.431425v326.867748a7.040297 7.040297 0 1 1-14.080595 0V279.675775c0-79.072634-64.328868-143.403986-143.399018-143.403986H402.550011c-79.073876 0-143.403986 64.33011-143.403986 143.403986v586.993627c0 78.327498 64.33011 142.054047 143.403986 142.054047h586.992385c78.32874 0 142.055289-64.33011 142.055289-143.402744v-51.587036a7.040297 7.040297 0 1 1 14.080595 0v51.587036c-0.001242 86.836955-70.042823 157.483339-156.135884 157.483339z" fill="#7ECAFC" /><path d="M1138.636741 709.003505a7.040297 7.040297 0 0 1-7.040298-7.040297v-58.989966a7.040297 7.040297 0 1 1 14.080595 0v58.989966a7.040297 7.040297 0 0 1-7.040297 7.040297z" fill="#7ECAFC" /><path d="M760.487463 757.38397c-4.033672 0.424728-7.995314-0.141576-11.883684-1.698911l-110.408104-44.417581-99.661995 65.991764c-9.686773 6.506283-22.914187 5.162553-31.188926-2.899823a24.954618 24.954618 0 0 1-7.497314-19.593361l7.922042-117.197539a3.484755 3.484755 0 0 0-1.347455-2.970611l-92.018138-72.924016c-7.497314-5.943705-10.962199-15.490144-8.914315-24.827946 1.982063-9.334075 9.055891-16.62151 18.321663-18.952544l113.876714-28.648011c1.128882-0.283152 2.050367-1.060577 2.404306-2.119913l40.952698-110.05789c3.323308-8.982619 11.31738-15.20575 20.863819-16.128478 9.548923-0.987306 18.603572 3.467368 23.695338 11.600532l62.45485 99.447147a3.467368 3.467368 0 0 0 2.760731 1.626882l117.412386 4.952673c9.546439 0.424728 17.893209 6.081555 21.781579 14.854294 3.892096 8.769014 2.476337 18.742665-3.67849 26.098403l-75.25381 89.966529a3.415209 3.415209 0 0 0-0.639575 3.185458l31.547833 113.09432c1.979579 7.144616 0.777426 14.643172-3.397822 20.724728-4.172764 6.225615-10.748593 10.117711-18.104331 10.893894z m0 0" fill="#B1DDFC" /><path d="M910.575323 784.190253c-4.455916 0-8.699468-1.768457-11.95323-4.951432l-33.808081-34.163262-47.179554 8.629921c-0.63585 0.069546-2.404307 0.284394-3.038914 0.284394-5.871675 0-11.249076-3.04264-14.360021-8.134406-3.110945-5.093007-3.25252-11.174562-0.562578-16.479934l21.923155-42.65285-22.703064-42.223154c-2.827793-5.305371-2.687459-11.528502 0.355182-16.623994 3.394096-5.656827 10.679047-9.050924 17.185329-7.991588l47.318646 7.63889 33.175957-34.661262c3.181732-3.322067 7.493589-5.2321 12.16311-5.232099 8.416316 0 15.420598 6.013251 16.691055 14.28799l7.287434 47.38695 43.215428 20.866304c5.798403 2.829035 9.476893 8.559134 9.547682 14.99587 0.069546 6.434253-3.467368 12.305928-9.265772 15.20575l-42.789458 21.644971-6.510008 47.528526c-1.131365 8.350495-8.275982 14.644414-16.692298 14.644415z m0 0" fill="#7ECAFC" /></svg>