<svg xmlns="http://www.w3.org/2000/svg" viewBox="0 0 1024 1024" width="200" height="200"><path d="M717.1584 482.72384h-410.7264v-224.9728c0-19.59936 15.88224-35.4816 35.4816-35.4816h339.7632c19.59936 0 35.4816 15.88224 35.4816 35.4816v224.9728z" fill="#F6D0C7" /><path d="M730.37824 495.93344H293.2224v-238.1824c0-26.84928 21.84192-48.70144 48.70144-48.70144H681.6768c26.84928 0 48.70144 21.84192 48.70144 48.70144v238.1824z m-410.7264-26.42944h384.28672V257.75104c0-12.26752-9.99424-22.26176-22.26176-22.26176H341.9136c-12.27776 0-22.26176 9.99424-22.26176 22.26176V469.504z" fill="#6F6973" /><path d="M842.37312 676.11648c17.408-2.23232 67.30752 9.8304 65.9456-21.41184 0.91136-12.48256-8.7552-23.4496-21.4016-23.38816H136.68352c-27.9552-0.41984-28.27264 45.21984 0 44.8h230.97344v0.07168h57.4464c61.02016-1.792 62.976 92.28288 2.16064 91.96544-24.68864-2.46784-60.11904 1.10592-59.61728 33.57696h287.17056c0.45056-31.36512-33.08544-36.23936-57.45664-33.57696-61.02016 1.82272-62.976-92.30336-2.16064-91.96544h59.61728v-0.07168h141.91616" fill="#A9B6BC" /><path d="M667.8528 814.9504H354.64192l-0.2048-13.01504c-0.2048-13.39392 4.4032-24.81152 13.32224-33.01376 16.8448-15.47264 44.62592-15.49312 60.14976-13.98784 15.0528-0.11264 22.5792-7.7824 26.25536-14.24384 6.21568-10.92608 5.96992-26.19392-0.60416-37.13024-4.0448-6.71744-12.17536-14.56128-28.0576-14.17216l-71.05536 0.01024v-0.07168H136.12032c-12.1344 0.01024-22.6304-5.89824-28.672-16.24064-6.74816-11.55072-6.72768-27.10528 0.0512-38.7072 6.15424-10.53696 16.9984-16.18944 29.37856-16.29184H887.0912c9.54368 0 18.46272 3.88096 25.0368 10.92608 6.49216 6.95296 9.90208 16.34304 9.43104 25.856 0.29696 11.78624-4.5568 19.2-8.74496 23.36768-13.08672 13.04576-35.8912 11.99104-54.24128 11.13088-5.6832-0.24576-11.54048-0.53248-14.53056-0.14336-7.2192 0.86016-13.86496-4.1984-14.7968-11.43808-0.9216-7.23968 4.1984-13.86496 11.43808-14.7968 5.29408-0.6656 11.70432-0.37888 19.10784-0.03072 10.32192 0.48128 29.51168 1.37216 34.34496-3.44064 0.27648-0.27648 1.10592-1.10592 0.96256-4.2496l-0.03072-0.77824 0.0512-0.768c0.18432-2.4576-0.67584-4.88448-2.33472-6.66624-1.08544-1.15712-2.95936-2.53952-5.79584-2.53952H136.68352c-3.14368-0.01024-5.0176 0.91136-6.35904 3.19488-1.98656 3.39968-2.00704 8.68352-0.0512 12.04224 1.31072 2.24256 3.23584 3.05152 6.20544 3.13344l288.62464 0.07168c21.57568-0.512 40.3968 9.18528 51.0976 26.97216 11.44832 19.03616 11.8272 44.68736 0.93184 63.82592-10.0352 17.65376-28.13952 27.47392-49.94048 27.60704l-1.24928-0.07168c-18.3808-1.81248-33.46432 0.80896-40.30464 7.08608-0.04096 0.04096-0.08192 0.08192-0.13312 0.12288h251.392c-0.08192-0.08192-0.16384-0.14336-0.23552-0.22528-6.73792-6.12352-21.23776-8.81664-37.86752-6.99392l-1.03424 0.07168c-21.92384 0.83968-40.77568-9.15456-51.47648-26.94144-11.45856-19.0464-11.83744-44.70784-0.94208-63.85664 10.04544-17.65376 28.61056-27.50464 49.94048-27.5968l201.45152-0.07168c7.30112 0 13.21984 5.91872 13.21984 13.21984s-5.91872 13.21984-13.21984 13.21984l-201.53344 0.07168h-0.24576c-15.32928 0-22.94784 7.7312-26.64448 14.2336-6.22592 10.93632-5.96992 26.22464 0.6144 37.16096 3.9936 6.64576 11.90912 14.63296 27.56608 14.16192 12.00128-1.25952 40.42752-2.17088 57.9584 13.78304 9.07264 8.26368 13.7728 19.73248 13.57824 33.1776l-0.17408 13.03552zM428.68736 328.74496c17.39776 0 31.55968-14.16192 31.55968-31.55968h17.79712c0 27.21792-22.13888 49.3568-49.34656 49.3568-27.21792 0-49.3568-22.13888-49.3568-49.3568h17.79712c-0.01024 17.408 14.15168 31.55968 31.54944 31.55968z" fill="#6F6973" /><path d="M509.60384 267.53024c17.39776 0 31.55968 14.16192 31.55968 31.55968h17.79712c0-27.21792-22.13888-49.3568-49.34656-49.3568-27.21792 0-49.3568 22.13888-49.3568 49.3568h17.79712c-0.01024-17.39776 14.14144-31.55968 31.54944-31.55968z" fill="#6F6973" /><path d="M590.51008 328.74496c17.39776 0 31.55968-14.16192 31.55968-31.55968h17.79712c0 27.21792-22.13888 49.3568-49.34656 49.3568-27.21792 0-49.3568-22.13888-49.3568-49.3568h17.79712c-0.01024 17.408 14.15168 31.55968 31.54944 31.55968z" fill="#6F6973" /><path d="M671.42656 267.53024c17.39776 0 31.55968 14.16192 31.55968 31.55968h17.79712c0-27.21792-22.13888-49.3568-49.34656-49.3568-27.21792 0-49.3568 22.13888-49.3568 49.3568h17.79712c-0.01024-17.39776 14.15168-31.55968 31.54944-31.55968z" fill="#6F6973" /><path d="M231.168 406.33344v211.7632h561.2544v-211.7632c0-12.26752-9.984-22.26176-22.26176-22.26176H365.7728c-6.0416 6.48192-16.88576 8.36608-26.84928 0h-85.49376c-12.27776 0.01024-22.26176 9.99424-22.26176 22.26176z" fill="#F6D0C5" /><path d="M365.7728 384.08192h404.38784c12.27776 0 22.26176 9.984 22.26176 22.26176v211.7632h-561.2544v-211.7632c0-12.26752 9.984-22.26176 22.26176-22.26176h85.49376c-1.2288-1.03424-2.44736-2.17088-3.64544-3.52256v-9.69728h-81.84832c-19.59936 0-35.4816 15.88224-35.4816 35.4816v224.9728h587.69408v-224.9728c0-19.58912-15.88224-35.4816-35.4816-35.4816H370.52416v1.21856c0 4.64896-1.81248 8.84736-4.75136 12.00128zM336.0256 251.20768c-21.54496 5.29408-37.60128 24.71936-37.60128 47.88224h17.79712c0-12.96384 7.86432-24.09472 19.05664-28.94848v-14.11072c0-1.67936 0.3072-3.2768 0.74752-4.82304zM370.52416 277.31968c5.4272 5.67296 8.8064 13.32224 8.81664 21.77024h17.79712c0-19.00544-10.82368-35.50208-26.60352-43.74528v21.97504zM370.4832 255.32416c-0.01024-0.01024-0.02048-0.01024-0.03072-0.02048v0.01024c0.01024 0 0.02048 0.01024 0.03072 0.01024z" fill="#6F6973" /><path d="M353.82272 250.112c0.82944 0.1024 1.62816 0.3072 2.44736 0.4608 1.13664 0.2048 2.28352 0.3584 3.3792 0.63488 0.78848 0.19456 1.536 0.49152 2.304 0.72704 1.09568 0.32768 2.2016 0.62464 3.26656 1.03424 0.78848 0.29696 1.52576 0.68608 2.28352 1.024 0.98304 0.43008 1.9968 0.82944 2.94912 1.32096-0.38912-9.39008-8.06912-16.896-17.55136-16.896-8.04864 0-14.76608 5.4272-16.87552 12.8 3.76832-0.9216 7.69024-1.47456 11.74528-1.47456 2.05824 0 4.06528 0.12288 6.05184 0.36864z" fill="#F7F9F8" /><path d="M370.52416 277.31968c-5.74464-6.00064-13.79328-9.78944-22.74304-9.78944-4.44416 0-8.66304 0.94208-12.50304 2.6112v87.5008h35.24608v-80.32256z" fill="#FFFFFF" /><path d="M770.16064 357.64224H253.42976c-26.84928 0-48.6912 21.84192-48.6912 48.6912v238.19264h614.12352V406.33344c0-26.83904-21.85216-48.6912-48.70144-48.6912z m35.4816 273.67424H217.94816v-224.9728c0-19.58912 15.88224-35.4816 35.4816-35.4816h81.84832v9.69728c1.18784 1.36192 2.41664 2.48832 3.64544 3.52256h26.84928c2.93888-3.14368 4.75136-7.35232 4.75136-12.00128v-1.21856h399.63648c19.59936 0 35.4816 15.88224 35.4816 35.4816v224.9728zM370.52416 255.34464c-0.01024-0.01024-0.03072-0.01024-0.04096-0.02048 0.02048 0.01024 0.03072 0.02048 0.04096 0.02048zM370.52416 277.31968v-21.28896c0-0.24576-0.06144-0.47104-0.07168-0.7168-0.95232-0.49152-1.95584-0.89088-2.94912-1.3312-0.768-0.33792-1.50528-0.72704-2.28352-1.024-1.06496-0.39936-2.17088-0.69632-3.26656-1.03424-0.768-0.23552-1.51552-0.52224-2.304-0.72704-1.10592-0.27648-2.2528-0.43008-3.3792-0.63488-0.8192-0.14336-1.61792-0.34816-2.44736-0.4608-1.97632-0.24576-3.9936-0.37888-6.0416-0.37888-4.05504 0-7.97696 0.54272-11.74528 1.47456-0.44032 1.54624-0.74752 3.13344-0.74752 4.82304v14.11072c3.84-1.66912 8.05888-2.6112 12.50304-2.6112 8.93952 0.01024 16.98816 3.79904 22.7328 9.79968z" fill="#6F6973" /><path d="M370.52416 256.03072v-0.68608a0.077824 0.077824 0 0 0-0.04096-0.02048c-0.01024-0.01024-0.02048-0.01024-0.03072-0.01024 0.01024 0.24576 0.07168 0.47104 0.07168 0.7168zM361.95328 251.92448c-0.768-0.23552-1.51552-0.52224-2.304-0.72704 0.78848 0.2048 1.536 0.49152 2.304 0.72704zM356.27008 250.5728c-0.8192-0.14336-1.61792-0.34816-2.44736-0.4608 0.82944 0.1024 1.62816 0.31744 2.44736 0.4608zM367.50336 253.98272c-0.768-0.33792-1.50528-0.72704-2.28352-1.024 0.78848 0.29696 1.52576 0.68608 2.28352 1.024z" fill="#6F6973" /><path d="M283.98592 417.97632c0-9.728-7.8848-17.62304-17.62304-17.62304-9.728 0-17.62304 7.89504-17.62304 17.62304v109.40416h35.24608V417.97632zM248.73984 564.992c0 9.728 7.89504 17.62304 17.62304 17.62304 9.73824 0 17.62304-7.89504 17.62304-17.62304v-11.18208h-35.24608v11.18208z" fill="#FFFFFF" /><path d="M800.63488 527.38048H217.94816c-7.30112 0-13.21984 5.91872-13.21984 13.21984s5.91872 13.21984 13.21984 13.21984h582.67648c7.30112 0 13.21984-5.91872 13.21984-13.21984 0.01024-7.30112-5.90848-13.21984-13.2096-13.21984z" fill="#6F6973" /></svg>