<svg xmlns="http://www.w3.org/2000/svg" viewBox="0 0 1024 1024" width="200" height="200"><path d="M976.9984 356.9152l-354.9696-171.6736c-21.504-10.3936-46.336 0.9216-55.552 25.2416l-150.8352 400.0256c11.0592-18.8928 32.768-26.8288 51.8656-17.5616l388.608 206.592L999.2704 419.84c9.1648-24.3712-0.8192-52.5312-22.272-62.9248z" fill="#4B8DFD" /><path d="M856.1152 799.5392L999.2704 419.84c9.1648-24.32-0.8192-52.48-22.272-62.8736l-0.3072-0.1536c4.5568 9.0112 10.7008 29.9008-3.3792 65.792-19.6096 50.0224-124.8256 320.9216-124.8256 320.9216l-75.776-35.6352-26.3168 33.3312 109.7216 58.3168z" fill="#4479E2" /><path d="M976.9984 356.9152l-198.656-96.1024v29.696l187.7504 90.8288s41.3696 16.7424 22.3232 67.2256l10.8544-28.7744c9.1648-24.32-0.8192-52.48-22.272-62.8736z" fill="#76A4FF" /><path d="M797.0304 887.04l-373.6576-180.6848c-20.8384-10.0864-30.5152-37.4272-21.6576-61.0304l10.7008-28.416c8.9088-23.6032 33.024-34.6112 53.8624-24.5248l373.248 180.5312c12.3904 5.9904 18.176 22.272 12.8512 36.3008l-23.9104 63.488c-5.1712 13.824-19.2512 20.224-31.4368 14.336z" fill="#F5F8FC" /><path d="M390.4 175.9232L49.2032 380.3136c-20.6336 12.3904-28.5696 41.3696-17.6128 64.768l179.5584 384.512c-5.9904-21.6576 2.2528-45.7216 20.5824-56.6784l386.304-212.0704-170.4448-365.0048c-10.9056-23.3984-36.5568-32.3072-57.1904-19.9168z" fill="#FD6758" /><path d="M640.8704 667.904L289.1776 878.592c-24.1664 14.4896-54.1184 4.0448-66.8672-23.3472l-7.168-15.36c-11.52-24.6272-3.1744-55.1424 18.5344-68.1984l355.6864-213.0432c11.9296-7.168 26.7264-1.9968 33.024 11.52l28.5184 61.0304c6.144 13.2608 1.6896 29.696-10.0352 36.7104z" fill="#F5F8FC" /><path d="M764.1088 826.7776H297.0624c-22.6304 0-40.96-18.3296-40.96-40.96v-41.984c0-22.6304 18.3296-40.96 40.96-40.96h465.5616a15.6672 15.6672 0 0 1 15.6672 15.6672v94.0032a14.19264 14.19264 0 0 1-14.1824 14.2336z" fill="#F5F8FC" /><path d="M269.8752 716.9024c2.0992-2.1504 4.4544-4.1472 6.9632-5.8368 1.2288-0.8704 2.56-1.6384 3.8912-2.4064a45.23008 45.23008 0 0 1 12.9024-4.8128c3.072-0.6144 6.2464-0.9728 9.472-0.9728h457.2672c9.9328 0 17.9712 8.192 17.9712 18.3296V172.6464c0-26.4704-21.0432-47.9232-46.9504-47.9232H303.0528c-25.9072 0-46.9504 21.4528-46.9504 47.9232v578.1504c0-11.5712 4.0448-22.2208 10.7008-30.464 0.9728-1.1776 1.9968-2.3552 3.072-3.4304z" fill="#FFDD48" /><path d="M679.168 329.728H357.0688a15.6672 15.6672 0 0 1-15.6672-15.6672V222.6688a15.6672 15.6672 0 0 1 15.6672-15.6672h322.0992a15.6672 15.6672 0 0 1 15.6672 15.6672v91.3408c0 8.704-7.0144 15.7184-15.6672 15.7184z" fill="#FFFEDC" /><path d="M256.1024 256.3584L49.2032 380.3136c-20.6336 12.3904-28.5696 41.3696-17.6128 64.768l25.6512 54.8864c-31.6928-67.8912 15.0528-94.0544 15.0528-94.0544l183.8592-113.2544v-36.3008z" fill="#FF7E78" /><path d="M253.6448 716.1856s-67.9424 39.0144-66.048 62.8736c9.5744 20.5312 19.6608 35.6352 19.6608 35.6352s-2.3552-35.7888 48.8448-53.9136c0-31.3344-2.4576-44.5952-2.4576-44.5952z" fill="#E54C45" /><path d="M731.392 124.7232H303.0528c-25.9072 0-46.9504 21.4528-46.9504 47.9232v578.1504c0-11.5712 4.0448-22.2208 10.7008-30.464 0.9728-1.1776 1.9456-2.304 3.0208-3.3792 2.0992-2.1504 4.4544-4.1472 6.9632-5.8368 1.2288-0.8704 2.56-1.6384 3.8912-2.4064 0.1536-0.0512 0.3072-0.1536 0.4096-0.2048V207.0528c0-67.84 31.3856-63.3344 31.3856-63.3344h412.7744c43.6224 0 53.0944 46.592 53.0944 46.592v-17.5616c0-26.5728-21.0432-48.0256-46.9504-48.0256z" fill="#FFE578" /><path d="M269.8752 716.9024c2.0992-2.1504 4.4544-4.1472 6.9632-5.8368 1.2288-0.8704 2.56-1.6384 3.8912-2.4064a45.23008 45.23008 0 0 1 12.9024-4.8128c3.072-0.6144 6.2464-0.9728 9.472-0.9728h457.2672c9.9328 0 17.9712 8.192 17.9712 18.3296v-31.5904c0-9.6256-7.7824-17.408-17.408-17.408H294.8096s-38.7072-0.8192-38.7072 30.6176v47.9232c0-11.5712 4.0448-22.2208 10.7008-30.464 0.9728-1.1264 1.9968-2.304 3.072-3.3792z" fill="#E8C534" /><path d="M679.168 207.0016H357.0688a15.6672 15.6672 0 0 0-15.6672 15.6672v91.3408a15.6672 15.6672 0 0 0 15.5136 15.6672v-98.816c0-5.7856 4.7104-10.496 10.496-10.496h327.2192a15.66208 15.66208 0 0 0-15.4624-13.3632z" fill="#F5F8FC" /><path d="M684.032 225.3312v82.0224s2.4576 10.2912-21.248 10.2912H356.9152s-15.5136 0.3072-15.5136-13.7216v10.0864a15.6672 15.6672 0 0 0 15.6672 15.6672h322.0992a15.6672 15.6672 0 0 0 15.6672-15.6672V222.6688a15.6672 15.6672 0 0 0-15.6672-15.6672h-5.7344s10.5984 4.3008 10.5984 18.3296z" fill="#EFECBF" /><path d="M733.3376 745.3696h-436.224c-1.4336 0-2.56 1.1264-2.56 2.56s1.1264 2.56 2.56 2.56h436.224c1.4336 0 2.56-1.1264 2.56-2.56s-1.1264-2.56-2.56-2.56zM733.3376 785.152h-436.224c-1.4336 0-2.56 1.1264-2.56 2.56s1.1264 2.56 2.56 2.56h436.224c1.4336 0 2.56-1.1264 2.56-2.56s-1.1264-2.56-2.56-2.56z" fill="#472F7E" /><path d="M978.0736 354.6112l-197.2224-95.3856V172.6464c0-27.8528-22.2208-50.4832-49.5104-50.4832H303.0528c-27.2896 0-49.5104 22.6304-49.5104 50.4832v82.2272L47.872 378.112c-21.7088 13.0048-30.0544 43.52-18.6368 68.0448l179.5584 384.512c0.1024 0.256 0.3072 0.3584 0.4608 0.5632 0.8704 3.328 2.048 6.6048 3.4816 9.7792l7.168 15.36c6.7072 14.336 18.5344 25.0368 32.4096 29.2864 4.5056 1.3824 9.1136 2.048 13.6704 2.048 8.448 0 16.7936-2.304 24.4224-6.8608l84.4288-50.5856a2.5088 2.5088 0 0 0 0.8704-0.9216h296.2432c0.1536 0.1024 0.3072 0.256 0.4608 0.3584l123.392 59.648a23.84384 23.84384 0 0 0 19.5072 0.7168c7.0144-2.816 12.6464-8.8064 15.5648-16.4352l23.9104-63.488c0.8192-2.2016 1.3312-4.4544 1.6896-6.7584 0.4096-0.3072 0.768-0.6656 0.9216-1.1776l144.1792-381.4912c9.728-25.4976-0.8704-55.1424-23.5008-66.0992z m-213.9648 469.6064H297.0624c-21.1968 0-38.4-17.2032-38.4-38.4v-35.0208a45.9264 45.9264 0 0 1 13.0048-32.1024c2.048-2.048 4.2496-3.9424 6.5536-5.5296 1.1776-0.8192 2.4064-1.5872 3.6352-2.2528 2.5088-1.3824 5.2224-2.56 7.936-3.4304a43.6224 43.6224 0 0 1 13.2096-2.048h457.2672c8.4992 0 15.4112 7.0656 15.4112 15.7696v91.3408c0.1024 6.4512-5.1712 11.6736-11.5712 11.6736zM258.6624 172.6464c0-25.0368 19.9168-45.3632 44.3904-45.3632h428.3392c24.4736 0 44.3904 20.3264 44.3904 45.3632v533.248c-3.328-3.4304-7.9872-5.632-13.1072-5.632H297.0624c-16.5888 0-31.0784 9.3696-38.4 23.0912V172.6464z m-224.768 271.36C23.5008 421.7856 30.976 394.24 50.5344 382.5152l203.008-121.6v495.9744l-21.1456 12.6976c-0.256 0.1536-0.512 0.3584-0.768 0.512l-1.2288 0.6144c-14.5408 8.704-23.3472 25.4464-23.7568 43.2128L33.8944 444.0064z m254.0032 432.384c-10.496 6.2976-22.528 7.7824-33.9968 4.3008-12.4928-3.84-23.1936-13.5168-29.2864-26.5728l-7.168-15.36c-10.8032-23.1424-3.2768-51.7632 16.7424-64.4096h0.0512c0.0512 0 0.7168-0.4608 0.7168-0.512l18.5344-11.1104v22.9888c0 5.6832 1.1264 11.1104 3.1232 16.128l-17.4592 10.4448a2.57024 2.57024 0 1 0 2.6624 4.4032l16.9984-10.1376a43.64288 43.64288 0 0 0 28.416 21.5552l-32.4608 19.4048a2.57024 2.57024 0 1 0 2.6624 4.4032l37.9904-22.6816c0.5632 0 1.0752 0.1024 1.6384 0.1024h69.4272l-78.592 47.0528z m562.176-68.0448l-23.9104 63.488c-2.3552 6.2976-7.0144 11.2128-12.6464 13.5168-4.9664 1.9968-10.4448 1.792-15.36-0.5632l-114.5856-55.4496h80.5888c1.2288 0 2.4576-0.1536 3.584-0.4096 0.1024 0.1024 0.2048 0.2048 0.3072 0.256l25.6 12.3392c0.3584 0.1536 0.7168 0.256 1.1264 0.256a2.56 2.56 0 0 0 1.1264-4.864l-22.1184-10.7008c4.3008-3.0208 7.1168-8.0384 7.1168-13.6704v-22.1184l26.112 12.5952c0.3584 0.1536 0.7168 0.256 1.1264 0.256a2.56 2.56 0 0 0 1.1264-4.864l-28.3136-13.6704v-37.376l57.6 27.8528c11.1616 5.4272 16.3328 20.3264 11.52 33.1264z m146.7904-389.4272l-140.7488 372.3776c-1.9456-8.9088-7.3728-16.7936-15.4112-20.6848l-59.8016-28.928V264.9088l194.9696 94.3104c20.2752 9.8304 29.696 36.608 20.992 59.6992z" fill="#472F7E" /><path d="M357.0688 332.288h322.0992c10.0352 0 18.2272-8.192 18.2272-18.2272V222.6688c0-10.0864-8.192-18.2272-18.2272-18.2272H357.0688c-10.0352 0-18.2272 8.192-18.2272 18.2272v91.3408c0 10.0864 8.192 18.2784 18.2272 18.2784z m-13.1072-109.6192c0-7.2192 5.888-13.1072 13.1072-13.1072h322.0992c7.2192 0 13.1072 5.888 13.1072 13.1072v91.3408c0 7.2192-5.888 13.1072-13.1072 13.1072H357.0688c-7.2192 0-13.1072-5.888-13.1072-13.1072V222.6688zM341.4016 493.056h209.9712c1.4336 0 2.56-1.1264 2.56-2.56s-1.1264-2.56-2.56-2.56H341.4016c-1.4336 0-2.56 1.1264-2.56 2.56s1.1264 2.56 2.56 2.56zM341.4016 553.3184h353.4336c1.4336 0 2.56-1.1264 2.56-2.56s-1.1264-2.56-2.56-2.56H341.4016c-1.4336 0-2.56 1.1264-2.56 2.56s1.1264 2.56 2.56 2.56z" fill="#472F7E" /></svg>