<svg xmlns="http://www.w3.org/2000/svg" viewBox="0 0 1024 1024" width="200" height="200"><path d="M512 512m-415.492 0a415.492 415.492 0 1 0 830.984 0 415.492 415.492 0 1 0-830.984 0Z" fill="#F1C48B" /><path d="M747 693.196c-25.956 0-47-21.044-47-47v14.012c0 25.956-21.044 47-47 47s-47-21.044-47-47c0 25.956-21.044 47-47 47S512 686.164 512 660.208c0 25.956-21.044 47-47 47s-47-21.044-47-47c0 25.956-21.044 47-47 47S324 686.164 324 660.208v-14.012c0 25.956-21.044 47-47 47s-47-21.044-47-47v118.62a1725.772 1725.772 0 0 0 564 0v-118.62c0 25.96-21.044 47-47 47z" fill="#FD919F" /><path d="M747 693.196a46.824 46.824 0 0 1-34.06-14.672v97.672a1725.52 1725.52 0 0 0 81.056-11.38v-118.62c0.004 25.96-21.04 47-46.996 47z" fill="#E0667D" /><path d="M794 281.48a896.788 896.788 0 0 0-564 0v86.32h18.78c34.396 0 62.276 27.884 62.276 62.276V381.812h18.78c34.244 0 62.012 27.644 62.256 61.832h0.024V381.812h73.956c25.364 0 45.928 20.564 45.928 45.928 0-25.364 20.564-45.928 45.928-45.928h73.956v61.832h0.024c0.244-34.188 28.012-61.832 62.256-61.832h18.78v48.264c0-34.396 27.884-62.276 62.276-62.276h18.78V281.48z" fill="#FD919F" /><path d="M712.94 258.832v171.244c0-34.396 27.884-62.276 62.276-62.276h18.78V281.48a895.54 895.54 0 0 0-81.056-22.648z" fill="#E0667D" /><path d="M277 693.196c-25.956 0-47-21.044-47-47v-66.656H324v66.656c0 25.96-21.044 47-47 47zM371 707.208c-25.956 0-47-21.044-47-47v-66.656h94v66.656c0 25.96-21.044 47-47 47zM465 707.208c-25.956 0-47-21.044-47-47v-66.656H512v66.656c0 25.96-21.044 47-47 47zM559 707.208c-25.956 0-47-21.044-47-47v-66.656h94v66.656c0 25.96-21.044 47-47 47zM653 707.208c-25.956 0-47-21.044-47-47v-66.656H700v66.656c0 25.96-21.044 47-47 47z" fill="#FFFFFF" /><path d="M747 693.196c-25.956 0-47-21.044-47-47v-66.656h94v66.656c0 25.96-21.044 47-47 47z" fill="#D5E6F7" /><path d="M489.948 540.696h-75.78a22.052 22.052 0 0 1-22.052-22.052V381.812h73.956c25.364 0 45.928 20.564 45.928 45.928v90.904a22.052 22.052 0 0 1-22.052 22.052zM609.832 540.696h-75.78a22.052 22.052 0 0 1-22.052-22.052v-90.904c0-25.364 20.564-45.928 45.928-45.928h73.952v136.836a22.044 22.044 0 0 1-22.048 22.048z" fill="#FFFFFF" /><path d="M690.888 521.472H631.88v-77.38c0-34.396 27.884-62.276 62.276-62.276h18.78v117.608a22.048 22.048 0 0 1-22.048 22.048z" fill="#FFFFFF" /><path d="M771.948 507.46h-59.008V430.08c0-34.396 27.884-62.276 62.276-62.276h18.78v117.608a22.048 22.048 0 0 1-22.048 22.048z" fill="#D5E6F7" /><path d="M311.06 507.46H252.052a22.052 22.052 0 0 1-22.052-22.052V367.8h18.78c34.396 0 62.276 27.884 62.276 62.276v77.384z" fill="#FFFFFF" /><path d="M392.116 521.472H333.108a22.052 22.052 0 0 1-22.052-22.052V381.812h18.78c34.396 0 62.276 27.884 62.276 62.276v77.384z" fill="#FFFFFF" /><path d="M512 800.012a1742.812 1742.812 0 0 1-283.96-23.356 12 12 0 0 1-10.04-11.836V646.2a12 12 0 1 1 24 0c0 19.3 15.7 35 35 35s35-15.7 35-35a12 12 0 1 1 24 0v14.012c0 19.3 15.7 35 35 35s35-15.7 35-35a12 12 0 1 1 24 0c0 19.3 15.7 35 35 35s35-15.7 35-35a12 12 0 1 1 24 0c0 19.3 15.7 35 35 35s35-15.7 35-35a12 12 0 1 1 24 0c0 19.3 15.7 35 35 35s35-15.7 35-35v-14.012a12 12 0 1 1 24 0c0 19.3 15.7 35 35 35s35-15.7 35-35a12 12 0 1 1 24 0v118.62a11.996 11.996 0 0 1-10.04 11.836 1742.812 1742.812 0 0 1-283.96 23.356z m-270-45.404c89.068 14.204 179.852 21.404 270 21.404s180.932-7.2 270-21.404v-60.94a58.68 58.68 0 0 1-35 11.528 58.812 58.812 0 0 1-41.836-17.436c-9.912 18.692-29.576 31.448-52.164 31.448-19.16 0-36.216-9.18-47-23.372-10.784 14.192-27.84 23.372-47 23.372s-36.216-9.18-47-23.372c-10.784 14.192-27.84 23.372-47 23.372s-36.216-9.18-47-23.372c-10.784 14.192-27.84 23.372-47 23.372-22.588 0-42.252-12.756-52.164-31.448a58.812 58.812 0 0 1-41.836 17.436 58.704 58.704 0 0 1-35-11.528v60.94z" fill="#504774" /><path d="M277 705.196c-32.532 0-59-26.468-59-59v-66.656a12 12 0 0 1 12-12H324a12 12 0 0 1 12 12v66.656c0 32.536-26.468 59-59 59z m-35-113.656v54.656c0 19.3 15.7 35 35 35s35-15.7 35-35v-54.656H242z" fill="#504774" /><path d="M371 719.208c-32.532 0-59-26.468-59-59v-66.656a12 12 0 0 1 12-12h94a12 12 0 0 1 12 12v66.656c0 32.536-26.468 59-59 59zM336 605.556v54.656c0 19.3 15.7 35 35 35s35-15.7 35-35v-54.656H336z" fill="#504774" /><path d="M465 719.208c-32.532 0-59-26.468-59-59v-66.656a12 12 0 0 1 12-12H512a12 12 0 0 1 12 12v66.656c0 32.536-26.468 59-59 59z m-35-113.652v54.656c0 19.3 15.7 35 35 35s35-15.7 35-35v-54.656h-70z" fill="#504774" /><path d="M559 719.208c-32.532 0-59-26.468-59-59v-66.656a12 12 0 0 1 12-12h94a12 12 0 0 1 12 12v66.656c0 32.536-26.468 59-59 59zM524 605.556v54.656c0 19.3 15.7 35 35 35s35-15.7 35-35v-54.656H524z" fill="#504774" /><path d="M653 719.208c-32.532 0-59-26.468-59-59v-66.656a12 12 0 0 1 12-12H700a12 12 0 0 1 12 12v66.656c0 32.536-26.468 59-59 59z m-35-113.652v54.656c0 19.3 15.7 35 35 35s35-15.7 35-35v-54.656h-70z" fill="#504774" /><path d="M747 705.196c-32.532 0-59-26.468-59-59v-66.656a12 12 0 0 1 12-12h94a12 12 0 0 1 12 12v66.656c0 32.536-26.468 59-59 59zM712 591.54v54.656c0 19.3 15.7 35 35 35s35-15.7 35-35v-54.656H712zM631.908 455.644h-0.024a12 12 0 0 1-12-12V393.812h-61.952c-18.708 0-33.928 15.22-33.928 33.928a12 12 0 1 1-24 0c0-18.708-15.22-33.928-33.928-33.928h-61.952v49.832a12 12 0 0 1-12 12 12.024 12.024 0 0 1-12.024-11.916c-0.196-27.524-22.74-49.916-50.252-49.916h-6.78v36.264a12 12 0 1 1-24 0c0-27.724-22.556-50.276-50.276-50.276H230a12 12 0 0 1-12-12V281.48a12 12 0 0 1 8.228-11.392C318.572 239.5 414.72 223.988 512 223.988s193.428 15.508 285.772 46.1a12 12 0 0 1 8.228 11.392v86.32a12 12 0 0 1-12 12h-18.78c-27.724 0-50.276 22.556-50.276 50.276a12 12 0 1 1-24 0v-36.264h-6.78c-27.516 0-50.06 22.392-50.252 49.916a12.008 12.008 0 0 1-12.004 11.916zM392.116 369.812h73.952c18.684 0 35.332 8.892 45.928 22.664 10.6-13.772 27.248-22.664 45.928-22.664h73.952a12 12 0 0 1 12 12v7.72c13.252-12.232 30.932-19.72 50.276-19.72h18.78a12 12 0 0 1 10.8 6.764 74.02 74.02 0 0 1 51.476-20.78h6.78V290.192c-87.384-28.008-178.172-42.204-270-42.204s-182.616 14.196-270 42.204V355.8h6.78a74 74 0 0 1 51.476 20.78 12 12 0 0 1 10.8-6.764h18.78c19.344 0 37.024 7.488 50.276 19.724v-7.724a12.028 12.028 0 0 1 12.016-12.004z" fill="#504774" /><path d="M489.948 552.696h-75.78c-18.776 0-34.052-15.276-34.052-34.052V381.812a12 12 0 0 1 12-12h73.952c31.944 0 57.928 25.988 57.928 57.928v90.908c0.004 18.772-15.272 34.048-34.048 34.048z m-85.832-158.884v124.832a10.06 10.06 0 0 0 10.052 10.052h75.78a10.06 10.06 0 0 0 10.052-10.052v-90.908c0-18.708-15.22-33.928-33.928-33.928h-61.956z" fill="#504774" /><path d="M609.832 552.696h-75.78c-18.776 0-34.052-15.276-34.052-34.052v-90.908c0-31.94 25.988-57.928 57.928-57.928h73.952a12 12 0 0 1 12 12v136.832c0.004 18.78-15.272 34.056-34.048 34.056z m-51.904-158.884c-18.708 0-33.928 15.22-33.928 33.928v90.908a10.06 10.06 0 0 0 10.052 10.052h75.78a10.06 10.06 0 0 0 10.052-10.052V393.812h-61.956z" fill="#504774" /><path d="M690.892 533.472h-59.008a12 12 0 0 1-12-12v-77.38c0-40.956 33.32-74.276 74.276-74.276h18.78a12 12 0 0 1 12 12v117.604c0 18.776-15.272 34.052-34.048 34.052z m-47.008-24h47.008a10.06 10.06 0 0 0 10.052-10.052V393.812h-6.78c-27.724 0-50.276 22.556-50.276 50.276v65.384z" fill="#504774" /><path d="M771.948 519.456h-59.004a12 12 0 0 1-12-12v-77.38c0-40.956 33.32-74.276 74.276-74.276h18.78a12 12 0 0 1 12 12v117.608c0 18.772-15.276 34.048-34.052 34.048z m-47.008-24h47.004a10.06 10.06 0 0 0 10.052-10.052V379.8h-6.78c-27.724 0-50.276 22.556-50.276 50.276v65.38zM311.06 519.456H252.052c-18.776 0-34.052-15.276-34.052-34.052V367.8a12 12 0 0 1 12-12h18.78c40.956 0 74.276 33.32 74.276 74.276v77.38a11.996 11.996 0 0 1-11.996 12zM242 379.8v105.608a10.06 10.06 0 0 0 10.052 10.052h47.008V430.08c0-27.724-22.556-50.276-50.276-50.276H242z" fill="#504774" /><path d="M392.116 533.472H333.108c-18.776 0-34.052-15.276-34.052-34.052V381.812a12 12 0 0 1 12-12h18.78c40.956 0 74.276 33.32 74.276 74.276v77.38a12 12 0 0 1-11.996 12.004zM323.06 393.812v105.604a10.06 10.06 0 0 0 10.052 10.052H380.12v-65.38c0-27.724-22.556-50.276-50.276-50.276h-6.784z" fill="#504774" /></svg>