<svg xmlns="http://www.w3.org/2000/svg" viewBox="0 0 1024 1024" width="200" height="200"><path d="M512 512m-415.492 0a415.492 415.492 0 1 0 830.984 0 415.492 415.492 0 1 0-830.984 0Z" fill="#F1C48B" /><path d="M648.5 692.532h-95.168v15.332c0 22.828-18.504 41.332-41.332 41.332s-41.332-18.504-41.332-41.332v-15.332H375.5c-37.832 0-68.5 30.668-68.5 68.5v125.5h410v-125.5c0-37.832-30.668-68.5-68.5-68.5zM748.172 558.532H275.828a36.172 36.172 0 0 1-36.172-36.172V294.704a36.172 36.172 0 0 1 36.172-36.172h472.344a36.172 36.172 0 0 1 36.172 36.172v227.656a36.172 36.172 0 0 1-36.172 36.172z" fill="#A0D1F2" /><path d="M748.172 258.532h-53.988a36.172 36.172 0 0 1 36.172 36.172v227.656a36.172 36.172 0 0 1-36.172 36.172h53.988a36.172 36.172 0 0 0 36.172-36.172V294.704a36.172 36.172 0 0 0-36.172-36.172zM648.5 692.532h-41.332c37.832 0 68.5 30.668 68.5 68.5v125.5h41.332v-125.5c0-37.832-30.668-68.5-68.5-68.5z" fill="#7BABF3" /><path d="M512 663.864c-14.492 0-28.396-2.5-41.332-7.048v51.048c0 22.828 18.504 41.332 41.332 41.332s41.332-18.504 41.332-41.332v-51.048A124.368 124.368 0 0 1 512 663.864z" fill="#D5E6F7" /><path d="M748.172 570.532H275.828c-26.564 0-48.172-21.608-48.172-48.172V294.704c0-26.56 21.608-48.168 48.172-48.168h472.344c26.564 0 48.172 21.608 48.172 48.168v227.66c0 26.56-21.608 48.168-48.172 48.168z m-472.344-300a24.2 24.2 0 0 0-24.172 24.168v227.66a24.2 24.2 0 0 0 24.172 24.172h472.344a24.2 24.2 0 0 0 24.172-24.172V294.704a24.2 24.2 0 0 0-24.172-24.168H275.828z" fill="#504774" /><path d="M512 663.864c-68.828 0-124.628-55.796-124.628-124.628v-70.08c0-68.828 55.796-124.628 124.628-124.628s124.628 55.796 124.628 124.628v70.08c0 68.832-55.796 124.628-124.628 124.628z" fill="#FFFFFF" /><path d="M537.492 623.532h-50.988a28.496 28.496 0 0 1-28.496-28.496v-31.012a28.492 28.492 0 0 1 28.496-28.492h50.988a28.496 28.496 0 0 1 28.496 28.492v31.012a28.492 28.492 0 0 1-28.496 28.496z" fill="#FD919F" /><path d="M458.012 511.436c-21.952 0-39.812-17.86-39.812-39.812a12 12 0 1 1 24 0c0 8.72 7.092 15.812 15.812 15.812s15.812-7.092 15.812-15.812a12 12 0 1 1 24 0c0 21.956-17.86 39.812-39.812 39.812zM565.988 511.436c-21.952 0-39.812-17.86-39.812-39.812a12 12 0 1 1 24 0c0 8.72 7.092 15.812 15.812 15.812s15.812-7.092 15.812-15.812a12 12 0 1 1 24 0c0 21.956-17.86 39.812-39.812 39.812zM537.492 635.532h-50.984c-22.328 0-40.496-18.168-40.496-40.496v-31.012c0-22.328 18.168-40.492 40.496-40.492h50.984c22.328 0 40.496 18.164 40.496 40.492v31.012c0 22.332-18.168 40.496-40.496 40.496z m-50.984-88a16.512 16.512 0 0 0-16.496 16.492v31.012a16.516 16.516 0 0 0 16.496 16.496h50.984a16.516 16.516 0 0 0 16.496-16.496v-31.012a16.512 16.512 0 0 0-16.496-16.492h-50.984z" fill="#504774" /><path d="M473.112 161.356l-36.924 50.272h32.308c3.108 0 5.616 2.508 5.616 5.62s-2.508 5.52-5.616 5.52h-43.248c-0.3 0-0.604 0-1.004-0.1-0.1 0-0.204 0-0.3-0.1-0.204 0-0.404-0.1-0.704-0.1-0.1-0.1-0.2-0.1-0.3-0.3-0.1 0-0.3-0.1-0.504-0.2-0.2-0.1-0.3-0.1-0.4-0.2v-0.1c-0.1 0-0.204-0.1-0.3-0.2-0.1-0.1-0.304-0.3-0.404-0.5-0.204-0.1-0.3-0.2-0.404-0.3s-0.2-0.3-0.3-0.4c-0.1-0.3-0.2-0.404-0.2-0.5-0.1-0.2-0.3-0.3-0.3-0.5-0.1-0.2-0.1-0.404-0.204-0.6 0-0.1-0.096-0.2-0.096-0.404 0-0.3-0.1-0.5-0.1-0.704v-0.3-0.1c0-0.3 0-0.5 0.1-0.704v-0.5c0.096-0.1 0.096-0.3 0.2-0.5 0-0.1 0.1-0.3 0.1-0.5 0.2-0.1 0.3-0.3 0.3-0.404a2.34 2.34 0 0 0 0.3-0.5h0.096l36.828-50.372h-32.412c-3.112 0-5.52-2.608-5.52-5.62a5.44 5.44 0 0 1 5.52-5.516h44.048c0.1 0 0.3 0.1 0.404 0.1 0.3 0 0.404 0.1 0.6 0.1 0.1 0.1 0.3 0.1 0.404 0.2 0.3 0 0.404 0.2 0.504 0.3 0.2 0.1 0.3 0.2 0.5 0.3h0.1c0.2 0.1 0.2 0.2 0.3 0.3 0.2 0.1 0.3 0.304 0.4 0.404 0.1 0.1 0.204 0.3 0.3 0.4 0.204 0.1 0.304 0.2 0.404 0.404 0.1 0.2 0.204 0.4 0.3 0.5 0 0.1 0.1 0.3 0.204 0.4 0 0.3 0.096 0.5 0.096 0.6 0.204 0.2 0.204 0.304 0.204 0.5a1.572 1.572 0 0 1 0.096 0.604v1.104c-0.096 0.2-0.096 0.3-0.096 0.4 0 0.3-0.204 0.404-0.204 0.6-0.096 0.2-0.096 0.304-0.2 0.604-0.1 0.1-0.1 0.2-0.2 0.3a2.34 2.34 0 0 1-0.3 0.5l0.008 0.192zM539.044 161.356l-36.924 50.272h32.308c3.108 0 5.616 2.508 5.616 5.62s-2.508 5.52-5.616 5.52h-43.248c-0.3 0-0.604 0-1.004-0.1-0.1 0-0.204 0-0.3-0.1-0.204 0-0.404-0.1-0.704-0.1-0.1-0.1-0.2-0.1-0.3-0.3-0.1 0-0.3-0.1-0.504-0.2-0.2-0.1-0.3-0.1-0.4-0.2v-0.1c-0.1 0-0.204-0.1-0.3-0.2-0.1-0.1-0.304-0.3-0.404-0.5-0.204-0.1-0.3-0.2-0.404-0.3s-0.2-0.3-0.3-0.4c-0.1-0.3-0.2-0.404-0.2-0.5-0.1-0.2-0.3-0.3-0.3-0.5-0.1-0.2-0.1-0.404-0.204-0.6 0-0.1-0.096-0.2-0.096-0.404 0-0.3-0.1-0.5-0.1-0.704v-0.3-0.1c0-0.3 0-0.5 0.1-0.704v-0.5c0.096-0.1 0.096-0.3 0.2-0.5 0-0.1 0.1-0.3 0.1-0.5 0.2-0.1 0.3-0.3 0.3-0.404a2.34 2.34 0 0 0 0.3-0.5h0.096l36.828-50.372h-32.412c-3.112 0-5.52-2.608-5.52-5.62a5.44 5.44 0 0 1 5.52-5.516h44.048c0.1 0 0.3 0.1 0.404 0.1 0.3 0 0.404 0.1 0.6 0.1 0.1 0.1 0.3 0.1 0.404 0.2 0.3 0 0.404 0.2 0.504 0.3 0.2 0.1 0.3 0.2 0.5 0.3h0.1c0.2 0.1 0.2 0.2 0.3 0.3 0.2 0.1 0.3 0.304 0.4 0.404 0.1 0.1 0.204 0.3 0.3 0.4 0.204 0.1 0.304 0.2 0.404 0.404 0.1 0.2 0.204 0.4 0.3 0.5 0 0.1 0.1 0.3 0.204 0.4 0 0.3 0.096 0.5 0.096 0.6 0.204 0.2 0.204 0.304 0.204 0.5a1.572 1.572 0 0 1 0.096 0.604v1.104c-0.096 0.2-0.096 0.3-0.096 0.4 0 0.3-0.204 0.404-0.204 0.6-0.096 0.2-0.096 0.304-0.2 0.604-0.1 0.1-0.1 0.2-0.2 0.3a2.34 2.34 0 0 1-0.3 0.5l0.008 0.192zM604.972 161.356l-36.924 50.272h32.308c3.108 0 5.616 2.508 5.616 5.62s-2.508 5.52-5.616 5.52h-43.248c-0.3 0-0.604 0-1.004-0.1-0.1 0-0.204 0-0.3-0.1-0.204 0-0.404-0.1-0.704-0.1-0.1-0.1-0.2-0.1-0.3-0.3-0.1 0-0.3-0.1-0.504-0.2-0.2-0.1-0.3-0.1-0.4-0.2v-0.1c-0.1 0-0.204-0.1-0.3-0.2-0.1-0.1-0.304-0.3-0.404-0.5-0.204-0.1-0.3-0.2-0.404-0.3s-0.2-0.3-0.3-0.4c-0.1-0.3-0.2-0.404-0.2-0.5-0.1-0.2-0.3-0.3-0.3-0.5-0.1-0.2-0.1-0.404-0.204-0.6 0-0.1-0.096-0.2-0.096-0.404 0-0.3-0.1-0.5-0.1-0.704v-0.3-0.1c0-0.3 0-0.5 0.1-0.704v-0.5c0.096-0.1 0.096-0.3 0.2-0.5 0-0.1 0.1-0.3 0.1-0.5 0.2-0.1 0.3-0.3 0.3-0.404a2.34 2.34 0 0 0 0.3-0.5h0.096l36.828-50.372h-32.412c-3.112 0-5.52-2.608-5.52-5.62a5.44 5.44 0 0 1 5.52-5.516h44.048c0.1 0 0.3 0.1 0.404 0.1 0.3 0 0.404 0.1 0.6 0.1 0.1 0.1 0.3 0.1 0.404 0.2 0.3 0 0.404 0.2 0.504 0.3 0.2 0.1 0.3 0.2 0.5 0.3h0.1c0.2 0.1 0.2 0.2 0.3 0.3 0.2 0.1 0.3 0.304 0.4 0.404 0.1 0.1 0.204 0.3 0.3 0.4 0.204 0.1 0.304 0.2 0.404 0.404 0.1 0.2 0.204 0.4 0.3 0.5 0 0.1 0.1 0.3 0.204 0.4 0 0.3 0.096 0.5 0.096 0.6 0.204 0.2 0.204 0.304 0.204 0.5a1.572 1.572 0 0 1 0.096 0.604v1.104c-0.096 0.2-0.096 0.3-0.096 0.4 0 0.3-0.204 0.404-0.204 0.6-0.096 0.2-0.096 0.304-0.2 0.604-0.1 0.1-0.1 0.2-0.2 0.3a2.34 2.34 0 0 1-0.3 0.5l0.008 0.192z" fill="#484771" /><path d="M512 675.864c-75.336 0-136.628-61.292-136.628-136.628v-70.08c0-75.336 61.292-136.628 136.628-136.628s136.628 61.292 136.628 136.628v70.08c0 75.34-61.292 136.628-136.628 136.628z m0-319.332c-62.104 0-112.628 50.524-112.628 112.628v70.08c0 62.104 50.524 112.628 112.628 112.628s112.628-50.524 112.628-112.628v-70.08c0-62.104-50.524-112.628-112.628-112.628z" fill="#504774" /><path d="M717 898.532H307a12 12 0 0 1-12-12v-125.5c0-44.388 36.112-80.5 80.5-80.5h95.168a12 12 0 0 1 12 12v15.332c0 16.172 13.16 29.332 29.332 29.332s29.332-13.16 29.332-29.332v-15.332a12 12 0 0 1 12-12h95.168c44.388 0 80.5 36.112 80.5 80.5v125.5a12 12 0 0 1-12 12z m-398-24h386v-113.5c0-31.156-25.348-56.5-56.5-56.5h-83.168v3.332c0 29.408-23.924 53.332-53.332 53.332s-53.332-23.924-53.332-53.332v-3.332H375.5c-31.152 0-56.5 25.344-56.5 56.5v113.5z" fill="#504774" /><path d="M512 761.2c-29.408 0-53.332-23.924-53.332-53.332v-51.048a12 12 0 0 1 15.98-11.32 113.216 113.216 0 0 0 74.704 0 12.012 12.012 0 0 1 15.98 11.32v51.048c0 29.404-23.924 53.332-53.332 53.332z m-29.332-88.512v35.176c0 16.176 13.16 29.332 29.332 29.332s29.332-13.16 29.332-29.332v-35.176a137.376 137.376 0 0 1-58.664 0z" fill="#504774" /></svg>