<svg xmlns="http://www.w3.org/2000/svg" viewBox="0 0 1154 1024" width="200" height="200"><path d="M577.561438 1008.55596A558.259022 558.259022 0 0 1 19.784922 449.814432a37.876692 37.876692 0 0 1 75.753385 0 482.505637 482.505637 0 1 0 901.320529-241.252818 38.117945 38.117945 0 1 1 66.103273-38.117945 558.741527 558.741527 0 0 1-485.400671 838.112291z m0 0" fill="#009245" /><path d="M577.561438 1023.031129A572.734191 572.734191 0 0 1 5.792259 449.814432a52.351862 52.351862 0 0 1 104.703723 0A468.995479 468.995479 0 1 0 984.796195 214.834187a52.593114 52.593114 0 0 1 90.71106-52.593114 573.216696 573.216696 0 0 1-497.945817 860.790056zM57.902867 426.171656a23.642776 23.642776 0 0 0-23.16027 23.160271 544.748864 544.748864 0 0 0 332.446383 501.805862 549.091415 549.091415 0 0 0 424.122455 0 544.748864 544.748864 0 0 0 259.105527-774.421547 23.642776 23.642776 0 0 0-40.530473 23.642776A497.945817 497.945817 0 1 1 81.063138 449.814432a23.160271 23.160271 0 0 0-23.160271-23.642776z" fill="#009245" /><path d="M818.814256 720.500094a34.2579 34.2579 0 0 1-31.362866-20.265236l-133.654061-319.901237a32.327878 32.327878 0 0 1 20.265236-42.460496 34.2579 34.2579 0 0 1 44.390519 17.852708l134.136567 319.418732a32.327878 32.327878 0 0 1-18.81772 42.460496 36.670428 36.670428 0 0 1-12.545146 0z m-203.134873 0a34.2579 34.2579 0 0 1-31.362866-20.265236L450.17995 380.333621a32.327878 32.327878 0 0 1 18.81772-42.943002 34.2579 34.2579 0 0 1 44.390518 17.852708l134.136567 319.418732a32.327878 32.327878 0 0 1-18.817719 42.460496 36.670428 36.670428 0 0 1-12.545147 0z m-203.134873 0a34.2579 34.2579 0 0 1-31.362866-19.300225L247.045077 380.333621a32.327878 32.327878 0 0 1 18.81772-42.943002 34.2579 34.2579 0 0 1 44.390518 17.852708l134.136567 319.418732a32.327878 32.327878 0 0 1-18.81772 42.460496 36.670428 36.670428 0 0 1-12.545146 0z m0 0" fill="#009245" /><path d="M818.814256 734.975264a48.250564 48.250564 0 0 1-44.873024-29.432844l-133.654061-319.418732a48.250564 48.250564 0 0 1 0-35.705417 48.250564 48.250564 0 0 1 26.53781-26.055304 48.250564 48.250564 0 0 1 62.725733 26.055304l134.136567 319.418732a48.250564 48.250564 0 0 1 0 35.705417 48.250564 48.250564 0 0 1-26.53781 26.055304 51.628103 51.628103 0 0 1-18.335215 3.37754z m-134.136567-386.00451a20.265237 20.265237 0 0 0-7.72009 0 18.81772 18.81772 0 0 0-10.615124 10.132619 16.887697 16.887697 0 0 0 0 13.510157l134.136567 319.418732a20.265237 20.265237 0 0 0 26.055305 10.132618 18.81772 18.81772 0 0 0 10.615124-10.132618 17.370203 17.370203 0 0 0 0-13.510158l-134.136567-315.076181a19.300225 19.300225 0 0 0-17.852709-13.510158z m-68.998306 386.00451a48.250564 48.250564 0 0 1-44.873024-29.432844L437.152298 386.123688a48.250564 48.250564 0 0 1 0-35.705417 48.250564 48.250564 0 0 1 26.53781-26.055304 48.250564 48.250564 0 0 1 62.725733 26.055304l134.136567 319.418732a48.250564 48.250564 0 0 1 0 35.705417 48.250564 48.250564 0 0 1-26.53781 26.055304 51.628103 51.628103 0 0 1-17.852709 3.37754zM481.060311 349.935765a20.265237 20.265237 0 0 0-7.237585 0 18.81772 18.81772 0 0 0-10.132618 13.510158 17.370203 17.370203 0 0 0 0 13.510158l134.136567 319.418732a20.265237 20.265237 0 0 0 26.055304 10.132618 18.81772 18.81772 0 0 0 10.615124-10.132618 17.370203 17.370203 0 0 0 0-13.510158l-134.619072-319.418732a19.300225 19.300225 0 0 0-18.81772-13.510158z m-68.998306 386.00451a48.250564 48.250564 0 0 1-44.873025-29.432844L233.534919 386.123688a48.250564 48.250564 0 0 1 0-35.705417 48.250564 48.250564 0 0 1 26.53781-26.055304 48.250564 48.250564 0 0 1 62.725733 26.055304l134.136567 319.418732a48.250564 48.250564 0 0 1 0 35.705417 48.250564 48.250564 0 0 1-26.53781 26.055304 51.628103 51.628103 0 0 1-17.852709 3.37754z m-134.136567-386.00451a20.265237 20.265237 0 0 0-7.720091 0 18.81772 18.81772 0 0 0-10.132618 13.510158 17.370203 17.370203 0 0 0 0 13.510158l134.136567 319.418732a20.265237 20.265237 0 0 0 26.055304 10.132618 18.81772 18.81772 0 0 0 12.545147-12.062641 17.370203 17.370203 0 0 0 0-13.510158L296.260652 363.445923a19.300225 19.300225 0 0 0-17.852709-13.510158zM18.337405 308.922786a39.082957 39.082957 0 1 0 39.082957-39.082956 39.082957 39.082957 0 0 0-39.082957 39.082956z m0 0" fill="#009245" /><path d="M57.902867 366.340957a57.418171 57.418171 0 1 1 56.935665-57.418171 57.418171 57.418171 0 0 1-56.935665 57.418171z m0-78.165913a21.230248 21.230248 0 1 0 21.230248 21.230248 21.230248 21.230248 0 0 0-21.230248-21.712754zM1091.912447 1009.038465a37.152934 37.152934 0 0 1-27.502822-12.062641l-138.479117-144.751691a38.745203 38.745203 0 1 1 55.005642-54.523137l137.996612 144.751691a37.63544 37.63544 0 0 1-27.502821 63.690744z m0 0" fill="#009245" /><path d="M1091.912447 1023.513634a51.145597 51.145597 0 0 1-38.117946-16.405191l-138.479117-144.751691a52.20711 52.20711 0 1 1 76.23589-71.410835l137.996612 144.751691a52.110609 52.110609 0 0 1-38.117945 88.298532z m-138.479118-222.917604a23.160271 23.160271 0 0 0-15.922686 6.272573 22.677765 22.677765 0 0 0-7.237585 15.922686 23.160271 23.160271 0 0 0 6.272574 16.887698l138.479117 144.751691a23.642776 23.642776 0 0 0 33.292889 6.272573 22.677765 22.677765 0 0 0 7.237585-15.922686 23.160271 23.160271 0 0 0-6.272573-16.887697l-137.996612-144.751691a22.677765 22.677765 0 0 0-15.922686-7.237585zM278.407943 401.081363a36.670428 36.670428 0 0 1-12.545146 0 32.327878 32.327878 0 0 1-18.81772-42.943002L381.181644 36.307102a34.2579 34.2579 0 0 1 44.390518-17.852709 32.327878 32.327878 0 0 1 18.81772 42.460496L309.77081 380.333621a34.2579 34.2579 0 0 1-31.362867 20.265236z m203.134873 0a36.670428 36.670428 0 0 1-12.545146 0 32.327878 32.327878 0 0 1-18.81772-42.943002L584.316517 38.71963a34.2579 34.2579 0 0 1 44.390519-17.852709 32.327878 32.327878 0 0 1 18.817719 42.460496l-134.136567 317.006204a34.2579 34.2579 0 0 1-31.362866 20.265236z m203.134873 0a36.670428 36.670428 0 0 1-12.545146 0 32.327878 32.327878 0 0 1-18.81772-42.943002L787.45139 38.71963a34.2579 34.2579 0 0 1 44.390519-17.852709 32.327878 32.327878 0 0 1 18.817719 42.460496l-134.136567 317.006204a34.2579 34.2579 0 0 1-31.362866 20.265236z m0 0" fill="#009245" /><path d="M685.160195 415.556532a50.663092 50.663092 0 0 1-17.852709-3.377539 48.250564 48.250564 0 0 1-27.020315-26.055305 48.250564 48.250564 0 0 1 0-36.187923L774.423738 30.517034a48.250564 48.250564 0 0 1 62.725733-26.055304 48.250564 48.250564 0 0 1 26.53781 26.055304 48.250564 48.250564 0 0 1 0 35.705417l-133.654062 319.901237a48.250564 48.250564 0 0 1-44.873024 29.432844z m134.136567-386.004509a19.300225 19.300225 0 0 0-17.852709 11.580135l-134.619072 322.313765a16.887697 16.887697 0 0 0 0 13.510158 18.81772 18.81772 0 0 0 10.615124 10.132619 20.747742 20.747742 0 0 0 25.572799-10.132619l134.136567-319.418731a17.370203 17.370203 0 0 0 0-13.510158 18.81772 18.81772 0 0 0-10.615124-10.132619 20.265237 20.265237 0 0 0-7.720091-3.860045z m-337.753946 386.004509a48.250564 48.250564 0 0 1-17.852708-3.860045 48.250564 48.250564 0 0 1-27.020316-26.055304 48.250564 48.250564 0 0 1 0-35.705418L571.288865 30.517034a48.250564 48.250564 0 0 1 62.725733-26.055304 48.250564 48.250564 0 0 1 26.53781 26.055304 48.250564 48.250564 0 0 1 0 35.705417L526.415841 386.123688a48.250564 48.250564 0 0 1-45.35553 29.432844z m134.136567-386.004509a19.300225 19.300225 0 0 0-17.852708 11.580135L463.690108 363.445923a17.370203 17.370203 0 0 0 0 13.510158 18.81772 18.81772 0 0 0 10.615124 10.132619 20.747742 20.747742 0 0 0 25.572799-10.132619l134.136567-319.418731a17.370203 17.370203 0 0 0 0-13.510158 18.81772 18.81772 0 0 0-10.615124-10.132619 20.265237 20.265237 0 0 0-7.720091-3.860045z m-337.753945 386.004509a48.250564 48.250564 0 0 1-17.370203-3.860045 48.250564 48.250564 0 0 1-27.020316-26.055304 48.250564 48.250564 0 0 1 0-35.705418L367.671486 30.517034A48.250564 48.250564 0 0 1 432.809747 4.46173a48.250564 48.250564 0 0 1 26.53781 26.055304 48.250564 48.250564 0 0 1 0 35.705417L323.280968 386.123688a48.250564 48.250564 0 0 1-44.873025 29.432844z m134.136567-386.004509a19.300225 19.300225 0 0 0-17.852709 11.580135L260.072729 363.445923a17.370203 17.370203 0 0 0 0 13.510158 18.81772 18.81772 0 0 0 10.615124 10.132619 20.747742 20.747742 0 0 0 25.572799-10.132619l136.549095-321.83126a17.370203 17.370203 0 0 0 0-13.510157 18.81772 18.81772 0 0 0-10.615124-10.132619 20.265237 20.265237 0 0 0-9.650113-1.447517z" fill="#009245" /></svg>