<svg xmlns="http://www.w3.org/2000/svg" viewBox="0 0 1024 1024" width="200" height="200"><path d="M501.99 614.08c-71.52 0-133-10.63-160.86-25.88l115.48 317.08s24.94 61.57 45.38 61.57c20.42 0 45.33-61.57 45.33-61.57l115.5-317.08h-0.02c-27.86 15.25-89.31 25.88-160.81 25.88z" fill="#F8BC00" /><path d="M541.43 691.35l-32.34 32.35 8.66 8.69 41.06-41.04-41.06-41.02-8.66 8.66zM570.5 785.14l32.4-32.42 4.59-12.67-36.99-37.01-8.7 8.7 32.36 32.35-32.36 32.35zM465.02 785.14l41.04-41.05-41.04-41.05-8.68 8.7 32.36 32.35-32.36 32.35zM561.8 670.99l8.7 8.65 41.01-41.01-27.7-27.72c1.87-0.16 3.56-0.43 5.39-0.62l-1.83-1.84c-6.74 0.94-13.68 1.75-20.92 2.46l27.7 27.72-32.35 32.36zM623.21 626.94l27.63-27.63c3.11-0.88 6.07-1.78 8.93-2.72l3.06-8.4h-0.02c-7.47 4.08-17.49 7.79-29.32 11.12l-18.93 18.93 8.65 8.7zM509.09 764.46l32.34 32.38-32.34 32.35 8.66 8.67 41.06-41.02-41.06-41.05zM517.75 861.24l-8.65 8.7 37.38 37.39c0.52-1.27 0.84-2.07 0.84-2.07l3.86-10.56-33.43-33.46zM623.21 650.33l-8.66 8.66 16.46 16.49 4.64-12.71zM467.67 887.93l38.39-38.38-41.04-41.02-8.68 8.66 32.36 32.36-38.38 38.38 6.25 17.18 12.7-12.75zM439.51 810.65l13.8-13.81-29.62-29.64-3.45-9.5-13.61-13.61 6.33-6.32-2.68-7.38 2.01 2 41.02-41.04-41.02-41.02-8.67 8.66 32.33 32.36-41.01 41.04-2.03-2 13.4 36.81 29.64 29.64-13.79 13.81 6.23 17.15 12.74-12.74zM456.34 670.99l8.68 8.65 41.04-41.01-25.05-25.07c-6.08-0.16-12.17-0.35-18.06-0.67l25.76 25.75-32.37 32.35zM383.2 656.04l17.4-17.4-37.34-37.33-1.76-4.84c-7.86-2.56-14.91-5.31-20.37-8.28l4.77 13.12 37.34 37.33-17.42 17.4 6.26 17.15 12.74-12.73-1.62-4.42z" fill="#F9DE2A" /><path d="M501.99 508.65c-105.75 0-192.78-19.83-205.18-45.44l28.34 106.64c0 24.45 79.17 44.22 176.84 44.22 97.65 0 176.84-19.78 176.84-44.22l28.32-106.64c-12.4 25.61-99.45 45.44-205.16 45.44z" fill="#F8BC00" /><path d="M456.07 565.8l8.38 8.39 41.04-41.05-24.89-24.88c-5.82-0.13-11.67-0.23-17.31-0.51l25.42 25.39-32.64 32.66zM561.53 565.8l8.38 8.39 41.04-41.05L583.79 506c2.06-0.19 3.97-0.42 6.01-0.62l-1.51-1.47c-6.9 0.78-14.02 1.47-21.31 2.09l27.17 27.14-32.62 32.66zM622.63 521.45l23.93-23.91c2.97-0.59 5.66-1.23 8.47-1.87l5.69-5.7c-9.25 2.79-19.59 5.33-30.94 7.57l-15.53 15.54 8.38 8.37zM659.86 589.71l3.81-3.81-41.04-41.04-8.38 8.39 32.63 32.64-13.47 13.48c10.42-2.9 19.34-6.13 26.45-9.66zM350.59 565.8l8.38 8.39 41.04-41.05-38.41-38.38c-8.22-1.92-16.03-3.92-22.9-6.15l44.55 44.53-32.66 32.66zM530.72 613.4l27.49-27.51-41.04-41.04-8.4 8.39 32.65 32.64-28.04 28.04c5.9-0.06 11.61-0.3 17.34-0.52zM430.49 608.14l22.26-22.24-41.04-41.04-8.4 8.39 32.63 32.64-22.24 22.24c6.69 0.97 13.59 1.87 20.78 2.61l1.87-1.87c-1.93-0.25-3.96-0.45-5.86-0.73z" fill="#F9DE2A" /><path d="M501.99 983.38c-27.47 0-49.85-45.05-60.72-71.91L325.61 593.84c-2.37-6.46-0.46-13.74 4.75-18.23 5.23-4.49 12.72-5.26 18.73-1.92 21.67 11.85 77.34 23.84 152.91 23.84 75.49 0 131.19-11.99 152.84-23.84 6.03-3.35 13.52-2.57 18.75 1.92 5.21 4.5 7.12 11.77 4.75 18.23L562.87 910.92c-11.07 27.4-33.43 72.46-60.88 72.46zM368.91 616.11l103.24 283.5c8.88 21.79 22.49 44.51 29.85 49.96 7.33-5.49 20.96-28.2 30.01-50.51l103.06-282.98c-34.46 9.21-81.8 14.55-133.06 14.55-51.33-0.01-98.65-5.34-133.1-14.52z" fill="#342A26" /><path d="M501.99 630.62c-19.5 0-188.28-1.64-193.28-58.16l-27.93-105c-2.17-8.24 2.26-16.77 10.28-19.75 7.92-2.95 16.92 0.62 20.62 8.28 6.28 12.98 75.27 36.13 190.31 36.13 115.05 0 183.97-23.14 190.25-36.09 3.72-7.73 12.67-11.32 20.67-8.31 7.99 2.95 12.42 11.51 10.23 19.75l-27.88 105c-5.01 56.51-173.79 58.15-193.27 58.15z m-160.37-62.14c7.74 10.69 66.34 29.05 160.38 29.05 94.01 0 152.63-18.36 160.35-29.05 0.07-0.97 0.25-1.91 0.48-2.84l17.2-64.75c-49.05 18.59-127.31 24.32-178.03 24.32s-129-5.73-178.07-24.32l17.22 64.75c0.22 0.94 0.4 1.87 0.47 2.84z" fill="#342A26" /><path d="M712.27 395.18c0-100.04-94.15-181.17-210.27-181.17-116.14 0-210.32 81.12-210.32 181.17 0 0-44.96 29.57-22.88 78.37 22.06 48.83 86.87 28.16 110.32 17.14 0 0 33.91 66.57 112.74 72.39 78.78 5.81 115.14-46.19 119.09-68.27 0 0 58.23 61.25 108.43 13.96 61-57.41-7.11-113.59-7.11-113.59z" fill="#E13758" /><path d="M349.45 429.86c0-100.04 94.18-181.17 210.32-181.17 32.2 0 62.59 6.44 89.9 17.57-37.98-32.28-90.11-52.25-147.68-52.25-116.14 0-210.32 81.12-210.32 181.17 0 0-44.96 29.57-22.88 78.37 11.33 25.05 33.89 31.78 56.36 30.9-18.11-46.5 24.3-74.59 24.3-74.59z" fill="#C23256" /><path d="M503.86 580.07c-4.29 0-8.7-0.15-13.24-0.51-65.33-4.81-102.83-46.47-118.13-68.29-12.58 4.59-31.33 9.87-50.97 9.87-31.83 0-55.92-14.49-67.8-40.75-19.5-43.09 2.65-77.24 21.6-93.54 5.02-105.16 104.77-189.38 226.67-189.38 122.26 0 222.24 84.73 226.67 190.38 10.53 10.54 31.56 35.46 32.61 67.19 0.78 23.84-9.5 45.98-30.55 65.79-15.8 14.88-33.87 22.39-53.71 22.39-24 0-45.4-11.36-59.69-21.54-16.38 26.75-52.67 58.39-113.46 58.39zM379.09 474.15c6.05 0 11.85 3.29 14.75 9.01 1.21 2.33 31.1 58.39 99.2 63.4 68.28 5.05 98.92-39.75 101.62-54.67 1.07-6.14 5.55-11.12 11.53-12.94 5.98-1.78 12.47-0.07 16.74 4.46 0.23 0.23 26.03 26.72 54.08 26.72 11.28 0 21.42-4.35 31.01-13.4 14-13.15 20.57-26.38 20.19-40.47-0.78-26.53-26.26-48.15-26.51-48.38-3.74-3.14-5.96-7.82-5.96-12.71 0-90.78-86.94-164.62-193.74-164.62-106.85 0-193.76 73.84-193.76 164.62 0 5.56-2.81 10.77-7.47 13.84-3.29 2.2-32.47 23.29-16.9 57.72 4.13 9.15 12.54 21.31 37.66 21.31 17.95 0 37.86-6.37 50.54-12.32 2.27-1.09 4.67-1.57 7.02-1.57z" fill="#342A26" /><path d="M681.53 235.24c0-85.31-80.27-154.47-179.31-154.47-98.99 0-179.31 69.16-179.31 154.47 0 0-38.32 25.22-19.5 66.83 18.84 41.64 74.08 24.02 94.06 14.58 0 0 28.91 56.79 96.12 61.74 67.21 4.97 98.17-39.36 101.55-58.17 0 0 49.62 52.19 92.46 11.9 52-48.98-6.07-96.88-6.07-96.88z" fill="#FFFFFF" /><path d="M503.84 395.32c-3.72 0-7.56-0.14-11.49-0.42-55.15-4.08-87.44-38.43-101.41-57.75-10.89 3.81-26.35 7.91-42.54 7.91-28.16 0-49.51-12.82-60.06-36.16-16.94-37.45 1.69-67.25 18.27-81.9 4.93-90.48 90.8-162.77 195.61-162.77 105.21 0 191.32 72.81 195.7 163.71 9.41 9.64 26.95 31.07 27.84 58.24 0.66 21.08-8.36 40.59-26.83 57.99-13.93 13.11-29.92 19.78-47.48 19.78-19.91 0-37.75-8.93-50.22-17.42-14.95 22.91-46.24 48.79-97.39 48.79z m-106.37-95.2c6.03 0 11.85 3.32 14.75 9.03 1 1.91 25.94 48.55 82.57 52.75 56.59 4.11 81.87-32.44 84.06-44.63 1.1-6.14 5.55-11.12 11.53-12.93 6.01-1.78 12.45-0.07 16.74 4.46 5.87 6.1 25.37 22.04 44.32 22.04 9 0 17.08-3.52 24.78-10.79 11.44-10.73 16.81-21.47 16.44-32.77-0.71-21.4-21.47-39.11-21.67-39.27-3.79-3.17-6.01-7.83-6.01-12.78 0-76.04-73.01-137.93-162.77-137.93-89.72 0-162.75 61.88-162.75 137.93 0 5.56-2.79 10.77-7.44 13.8-2.6 1.78-25.96 18.74-13.52 46.22 3.24 7.18 9.87 16.7 29.89 16.7 14.89 0 31.49-5.3 42.02-10.28a17.05 17.05 0 0 1 7.06-1.55z" fill="#342A26" /><path d="M645.9 279.71c-8.22 0-15.35-6.14-16.4-14.51-1.14-9.04 5.3-17.32 14.36-18.45 14.8-1.87 22.42-17.93 22.49-18.09 3.65-8.4 13.36-12.26 21.76-8.61 8.38 3.65 12.24 13.4 8.59 21.8-5.41 12.43-21.74 34.33-48.73 37.74-0.7 0.05-1.38 0.12-2.07 0.12z" fill="#342A26" /><path d="M368.33 275c-37.82 0-58.16-29.12-59.05-30.42-5.16-7.56-3.24-17.83 4.29-23.01 7.54-5.1 17.74-3.23 22.93 4.2 0.71 1 12.74 17.46 34.82 16.03 9.13-0.67 17.06 6.21 17.7 15.32 0.64 9.1-6.21 17.02-15.32 17.67-1.83 0.14-3.63 0.21-5.37 0.21z" fill="#342A26" /><path d="M523.32 235.47c-7.17 0-14.91-0.39-23.18-1.32-9.09-0.99-15.62-9.2-14.61-18.29 1.03-9.04 9.22-15.52 18.29-14.6 39.89 4.52 63.74-5.98 63.96-6.09 8.29-3.68 18.11-0.06 21.85 8.22 3.79 8.24 0.27 18.01-7.97 21.85-1.04 0.48-22.42 10.23-58.34 10.23z" fill="#342A26" /><path d="M482.31 153.91c-0.59 0-1.19-0.05-1.78-0.11-60.58-6.5-88.08-34.79-89.22-36-6.3-6.62-6.01-17.08 0.62-23.4 6.6-6.23 16.94-6 23.29 0.53 1.14 1.13 21.6 20.91 68.83 25.97 9.09 0.97 15.67 9.11 14.71 18.2-0.92 8.51-8.09 14.81-16.45 14.81z" fill="#342A26" /><path d="M346.98 430.86c-35.58 0-64.03-21.52-65.4-22.55-7.24-5.59-8.61-15.97-3.04-23.2 5.57-7.22 15.92-8.63 23.15-3.07 0.66 0.46 27.36 20.22 54.97 14.8 9.07-1.66 17.65 4.17 19.41 13.12 1.71 8.99-4.16 17.69-13.13 19.39a85.594 85.594 0 0 1-15.96 1.51z" fill="#342A26" /><path d="M660.72 440.01c-8.56 0-15.83-6.59-16.49-15.25-0.71-9.11 6.07-17.09 15.21-17.8 28.41-2.2 37.77-18.71 38.14-19.4 4.34-7.92 14.25-11.05 22.26-6.87 7.97 4.16 11.26 13.76 7.26 21.84-0.69 1.36-17.22 33.67-65.11 37.43-0.4 0.03-0.83 0.05-1.27 0.05z" fill="#342A26" /></svg>