<svg xmlns="http://www.w3.org/2000/svg" viewBox="0 0 1024 1024" width="200" height="200"><path d="M163.84 307.2h40.96v40.96H163.84zM204.8 307.2h40.96v40.96h-40.96zM245.76 348.16h40.96v40.96h-40.96zM286.72 389.12h40.96v40.96h-40.96zM368.64 389.12h40.96v40.96h-40.96zM450.56 389.12h40.96v40.96h-40.96zM450.56 348.16h40.96v40.96h-40.96zM491.52 348.16h40.96v40.96h-40.96zM532.48 389.12h40.96v40.96h-40.96zM573.44 389.12h40.96v40.96h-40.96zM163.84 348.16h40.96v40.96H163.84zM163.84 389.12h40.96v40.96H163.84zM122.88 389.12h40.96v40.96H122.88zM204.8 389.12h40.96v40.96h-40.96zM204.8 430.08h40.96v40.96h-40.96zM286.72 430.08h40.96v40.96h-40.96zM327.68 430.08h40.96v40.96h-40.96zM409.6 430.08h40.96v40.96h-40.96zM450.56 430.08h40.96v40.96h-40.96zM491.52 430.08h40.96v40.96h-40.96zM573.44 430.08h40.96v40.96h-40.96zM614.4 430.08h40.96v40.96h-40.96zM655.36 430.08h40.96v40.96h-40.96zM655.36 471.04h40.96v40.96h-40.96zM737.28 471.04h40.96v40.96h-40.96zM819.2 512h40.96v40.96h-40.96zM860.16 552.96h40.96v40.96h-40.96zM901.12 552.96h40.96v40.96h-40.96zM942.08 552.96h40.96v40.96h-40.96zM901.12 593.92h40.96v40.96h-40.96zM860.16 593.92h40.96v40.96h-40.96zM819.2 593.92h40.96v40.96h-40.96zM778.24 593.92h40.96v40.96h-40.96zM778.24 552.96h40.96v40.96h-40.96zM737.28 552.96h40.96v40.96h-40.96zM696.32 512h40.96v40.96h-40.96zM778.24 634.88h40.96v40.96h-40.96z" fill="#FCEFDF" /><path d="M737.28 634.88h40.96v40.96h-40.96zM696.32 634.88h40.96v40.96h-40.96z" fill="#EADCCC" /><path d="M696.32 593.92h40.96v40.96h-40.96z" fill="#FCEFDF" /><path d="M655.36 634.88h40.96v40.96h-40.96zM614.4 634.88h40.96v40.96h-40.96z" fill="#EADCCC" /><path d="M614.4 471.04h40.96v40.96h-40.96zM573.44 471.04h40.96v40.96h-40.96zM573.44 512h40.96v40.96h-40.96zM532.48 552.96h40.96v40.96h-40.96zM491.52 552.96h40.96v40.96h-40.96zM450.56 593.92h40.96v40.96h-40.96zM409.6 552.96h40.96v40.96h-40.96zM409.6 593.92h40.96v40.96h-40.96zM532.48 471.04h40.96v40.96h-40.96zM491.52 471.04h40.96v40.96h-40.96zM450.56 471.04h40.96v40.96h-40.96zM450.56 512h40.96v40.96h-40.96zM368.64 512h40.96v40.96h-40.96zM368.64 471.04h40.96v40.96h-40.96zM327.68 471.04h40.96v40.96h-40.96zM286.72 471.04h40.96v40.96h-40.96zM204.8 471.04h40.96v40.96h-40.96zM81.92 512h40.96v40.96H81.92zM81.92 552.96h40.96v40.96H81.92zM122.88 552.96h40.96v40.96H122.88z" fill="#FCEFDF" /><path d="M122.88 593.92h40.96v40.96H122.88zM163.84 593.92h40.96v40.96H163.84zM204.8 593.92h40.96v40.96h-40.96zM245.76 593.92h40.96v40.96h-40.96zM286.72 593.92h40.96v40.96h-40.96zM286.72 634.88h40.96v40.96h-40.96zM245.76 634.88h40.96v40.96h-40.96zM204.8 634.88h40.96v40.96h-40.96zM163.84 634.88h40.96v40.96H163.84zM122.88 634.88h40.96v40.96H122.88zM81.92 634.88h40.96v40.96H81.92zM40.96 634.88h40.96v40.96H40.96zM81.92 675.84h40.96v40.96H81.92zM122.88 675.84h40.96v40.96H122.88zM163.84 675.84h40.96v40.96H163.84zM204.8 675.84h40.96v40.96h-40.96zM245.76 675.84h40.96v40.96h-40.96zM286.72 675.84h40.96v40.96h-40.96zM327.68 675.84h40.96v40.96h-40.96zM368.64 675.84h40.96v40.96h-40.96zM409.6 675.84h40.96v40.96h-40.96zM327.68 634.88h40.96v40.96h-40.96zM368.64 634.88h40.96v40.96h-40.96zM409.6 634.88h40.96v40.96h-40.96zM450.56 675.84h40.96v40.96h-40.96zM450.56 634.88h40.96v40.96h-40.96zM491.52 634.88h40.96v40.96h-40.96zM532.48 634.88h40.96v40.96h-40.96zM573.44 634.88h40.96v40.96h-40.96zM573.44 675.84h40.96v40.96h-40.96zM614.4 675.84h40.96v40.96h-40.96zM655.36 675.84h40.96v40.96h-40.96zM696.32 675.84h40.96v40.96h-40.96zM737.28 675.84h40.96v40.96h-40.96zM778.24 675.84h40.96v40.96h-40.96zM819.2 675.84h40.96v40.96h-40.96zM819.2 634.88h40.96v40.96h-40.96zM860.16 634.88h40.96v40.96h-40.96zM901.12 634.88h40.96v40.96h-40.96zM942.08 634.88h40.96v40.96h-40.96zM942.08 593.92h40.96v40.96h-40.96z" fill="#EADCCC" /><path d="M163.84 552.96h40.96v40.96H163.84zM204.8 552.96h40.96v40.96h-40.96zM40.96 552.96h40.96v40.96H40.96zM40.96 593.92h40.96v40.96H40.96zM81.92 593.92h40.96v40.96H81.92zM122.88 512h40.96v40.96H122.88zM163.84 512h40.96v40.96H163.84zM204.8 512h40.96v40.96h-40.96zM245.76 512h40.96v40.96h-40.96z" fill="#FCEFDF" /><path d="M204.8 348.16h40.96v40.96h-40.96zM245.76 389.12h40.96v40.96h-40.96zM327.68 389.12h40.96v40.96h-40.96zM409.6 389.12h40.96v40.96h-40.96zM368.64 430.08h40.96v40.96h-40.96zM491.52 389.12h40.96v40.96h-40.96zM532.48 430.08h40.96v40.96h-40.96zM532.48 348.16h40.96v40.96h-40.96zM614.4 389.12h40.96v40.96h-40.96zM696.32 430.08h40.96v40.96h-40.96zM696.32 471.04h40.96v40.96h-40.96zM737.28 512h40.96v40.96h-40.96zM778.24 512h40.96v40.96h-40.96zM819.2 552.96h40.96v40.96h-40.96zM860.16 512h40.96v40.96h-40.96zM778.24 471.04h40.96v40.96h-40.96zM491.52 307.2h40.96v40.96h-40.96zM409.6 471.04h40.96v40.96h-40.96zM245.76 430.08h40.96v40.96h-40.96z" fill="#F2E3CF" /><path d="M450.56 552.96h40.96v40.96h-40.96zM491.52 512h40.96v40.96h-40.96zM532.48 512h40.96v40.96h-40.96zM573.44 552.96h40.96v40.96h-40.96zM532.48 593.92h40.96v40.96h-40.96zM491.52 593.92h40.96v40.96h-40.96z" fill="#DDC2A5" /><path d="M245.76 471.04h40.96v40.96h-40.96z" fill="#F2E3CF" /><path d="M286.72 512h40.96v40.96h-40.96zM245.76 552.96h40.96v40.96h-40.96z" fill="#527009" /><path d="M286.72 552.96h40.96v40.96h-40.96zM327.68 552.96h40.96v40.96h-40.96zM368.64 552.96h40.96v40.96h-40.96zM614.4 552.96h40.96v40.96h-40.96zM655.36 552.96h40.96v40.96h-40.96zM696.32 552.96h40.96v40.96h-40.96z" fill="#CA0402" /><path d="M327.68 512h40.96v40.96h-40.96zM409.6 512h40.96v40.96h-40.96zM409.6 593.92h40.96v40.96h-40.96zM614.4 512h40.96v40.96h-40.96zM655.36 512h40.96v40.96h-40.96zM573.44 593.92h40.96v40.96h-40.96zM614.4 593.92h40.96v40.96h-40.96zM655.36 593.92h40.96v40.96h-40.96zM737.28 593.92h40.96v40.96h-40.96zM368.64 593.92h40.96v40.96h-40.96zM327.68 593.92h40.96v40.96h-40.96z" fill="#527009" /><path d="M163.84 430.08h40.96v40.96H163.84zM163.84 471.04h40.96v40.96H163.84zM122.88 471.04h40.96v40.96H122.88zM81.92 471.04h40.96v40.96H81.92zM40.96 512h40.96v40.96H40.96z" fill="#F2E3CF" /></svg>