<svg xmlns="http://www.w3.org/2000/svg" viewBox="0 0 1024 1024" width="200" height="200"><path d="M840.6528 361.0624l-19.7632-227.1744c-2.7648-31.488-24.576-55.3984-50.6368-55.3984H378.5216c-26.0096 0-88.32 14.6432-94.7712 61.5936l-19.7632 220.9792c-3.1744 36.608 20.3776 68.4544 50.6368 68.4544h464.64c30.208 0 64.6144-31.8976 61.3888-68.4544zM662.528 201.4208c0 22.528-16.5376 40.7552-36.9664 40.7552H415.4368c-20.4288 0-36.9664-18.2272-36.9664-40.7552s16.5376-40.7552 36.9664-40.7552h210.1248c20.4288 0 36.9664 18.2272 36.9664 40.7552z" fill="#8A50F9" /><path d="M703.744 78.4384s78.7968 0.8192 78.7968 32.512 26.112 248.064 26.112 248.064-9.9328 45.312-71.0656 45.312c9.3184-10.9568 32.5632-21.9648 32.5632-63.744s-14.7968-214.8352-14.7968-214.8352-9.728-33.5872-96.8192-40.448c35.2768-6.8608 45.2096-6.8608 45.2096-6.8608z" fill="#743BE2" /><path d="M760.1152 416.1536H273.8176c-16.7424 0-32.4608-7.1168-44.1856-20.0704-13.2096-14.5408-19.712-34.6112-17.7664-54.9888L221.184 243.2c0.512-5.632 5.5296-9.728 11.1616-9.216 5.632 0.5632 9.7792 5.5296 9.216 11.1616L232.2432 343.04c-1.3824 14.6944 3.1744 28.9792 12.544 39.2704 7.8336 8.6016 18.176 13.3632 29.0304 13.3632h486.2976c10.9056 0 21.1968-4.7616 29.0304-13.3632 9.3696-10.2912 13.9264-24.6272 12.544-39.2704l-20.224-211.9168c-2.304-24.1664-20.1728-42.4448-41.5744-42.4448H293.9904c-21.4016 0-39.2704 18.2272-41.5744 42.4448l-2.3552 24.7296c-0.5632 5.632-5.5296 9.728-11.1616 9.216a10.22464 10.22464 0 0 1-9.216-11.1616l2.3552-24.7808c3.328-34.7648 29.952-60.9792 61.952-60.9792h445.9008c32 0 58.624 26.2144 61.952 60.9792l20.224 211.9168c1.9456 20.3776-4.5056 40.448-17.7664 54.9888-11.7248 12.9536-27.4432 20.1216-44.1856 20.1216z" fill="#010101" /><path d="M234.6496 220.1088c-0.3072 0-0.6656 0-0.9728-0.0512a10.22464 10.22464 0 0 1-9.216-11.1616l1.28-13.3632c0.512-5.632 5.5296-9.7792 11.1616-9.216 5.632 0.5632 9.7792 5.5296 9.216 11.1616l-1.28 13.3632c-0.512 5.2736-4.9664 9.2672-10.1888 9.2672zM627.6608 240.896H417.792c-25.5488 0-46.336-20.7872-46.336-46.336v-3.584c0-25.5488 20.7872-46.336 46.336-46.336h209.8688c25.5488 0 46.336 20.7872 46.336 46.336v3.584c0 25.5488-20.7872 46.336-46.336 46.336zM417.792 165.12c-14.2848 0-25.856 11.6224-25.856 25.856v3.584c0 14.2848 11.6224 25.856 25.856 25.856h209.8688c14.2848 0 25.856-11.6224 25.856-25.856v-3.584c0-14.2848-11.6224-25.856-25.856-25.856H417.792z" fill="#010101" /><path d="M350.72 626.9952H262.1952c-21.1968 0-38.4-17.2032-38.4-38.4 0-21.1968 17.2032-38.4 38.4-38.4h569.1392c21.1968 0 38.4 17.2032 38.4 38.4 0 21.1968-17.2032 38.4-38.4 38.4H350.72z" fill="#743BE2" /><path d="M339.2512 626.9952H258.7136c-19.3024 0-34.9184-17.2032-34.9184-38.4 0-21.1968 15.616-38.4 34.9184-38.4h517.6832c19.3024 0 34.9184 17.2032 34.9184 38.4 0 21.1968-15.616 38.4-34.9184 38.4H339.2512z" fill="#8A50F9" /><path d="M831.2832 637.2352H196.352c-26.8288 0-48.64-21.8112-48.64-48.64s21.8112-48.64 48.64-48.64h634.9312c26.8288 0 48.64 21.8112 48.64 48.64 0 26.7776-21.8112 48.64-48.64 48.64z m-634.9312-76.8a28.2112 28.2112 0 0 0-28.16 28.16c0 15.5136 12.6464 28.16 28.16 28.16h634.9312c15.5136 0 28.16-12.6464 28.16-28.16s-12.6464-28.16-28.16-28.16H196.352z" fill="#010101" /><path d="M290.816 593.0496h-27.136c-5.632 0-10.24-4.608-10.24-10.24s4.608-10.24 10.24-10.24h27.136a10.24 10.24 0 1 1 0 20.48zM454.5536 593.0496H323.1744c-5.632 0-10.24-4.608-10.24-10.24s4.608-10.24 10.24-10.24h131.3792c5.632 0 10.24 4.608 10.24 10.24s-4.608 10.24-10.24 10.24zM311.2448 213.6576c-0.3584 0-0.7168 0-1.1264-0.0512-5.632-0.6144-9.6768-5.632-9.0624-11.264l4.9152-45.568c2.7648-18.4832 10.0352-32.9728 21.6576-43.3664 4.1984-3.7888 10.7008-3.4304 14.4384 0.8192 3.7888 4.1984 3.4304 10.7008-0.8192 14.4384-7.9872 7.168-13.056 17.5104-15.0016 30.72l-4.864 45.1584c-0.512 5.2224-4.9664 9.1136-10.1376 9.1136zM439.1936 117.0944H372.0192c-5.632 0-10.24-4.608-10.24-10.24s4.608-10.24 10.24-10.24h67.1744c5.632 0 10.24 4.608 10.24 10.24s-4.608 10.24-10.24 10.24z" fill="#FFFFFF" /><path d="M296.448 405.9136h26.4192v144.2816H296.448z" fill="#FAA235" /><path d="M322.8672 560.4352h-42.1888c-5.632 0-10.24-4.608-10.24-10.24V405.9136c0-5.632 4.608-10.24 10.24-10.24h42.1888c5.632 0 10.24 4.608 10.24 10.24v144.2816c0 5.632-4.608 10.24-10.24 10.24z m-31.9488-20.48h21.7088V416.1536h-21.7088v123.8016z" fill="#010101" /><path d="M726.4256 405.9136h26.4192v144.2816h-26.4192z" fill="#FAA235" /><path d="M752.8448 560.4352h-42.1888c-5.632 0-10.24-4.608-10.24-10.24V405.9136c0-5.632 4.608-10.24 10.24-10.24h42.1888c5.632 0 10.24 4.608 10.24 10.24v144.2816c0 5.632-4.608 10.24-10.24 10.24z m-31.9488-20.48h21.7088V416.1536h-21.7088v123.8016z" fill="#010101" /><path d="M785.7664 626.9952h26.4192v346.0608h-26.4192z" fill="#FFB15C" /><path d="M812.1856 983.2448h-42.1888c-5.632 0-10.24-4.608-10.24-10.24v-346.0608c0-5.632 4.608-10.24 10.24-10.24h42.1888c5.632 0 10.24 4.608 10.24 10.24v346.0608a10.24 10.24 0 0 1-10.24 10.24z m-31.9488-20.48h21.7088v-325.5808h-21.7088v325.5808z" fill="#010101" /><path d="M702.1568 626.9952h26.4192v315.8528h-26.4192z" fill="#FFB15C" /><path d="M728.576 953.088h-42.1888c-5.632 0-10.24-4.608-10.24-10.24v-315.8528c0-5.632 4.608-10.24 10.24-10.24h42.1888c5.632 0 10.24 4.608 10.24 10.24v315.8528a10.24 10.24 0 0 1-10.24 10.24z m-31.8976-20.48h21.7088v-295.3728h-21.7088v295.3728z" fill="#010101" /><path d="M230.6048 626.9952h26.4192v346.0608h-26.4192z" fill="#FFB15C" /><path d="M257.024 983.2448h-42.1888c-5.632 0-10.24-4.608-10.24-10.24v-346.0608c0-5.632 4.608-10.24 10.24-10.24h42.1888c5.632 0 10.24 4.608 10.24 10.24v346.0608a10.24 10.24 0 0 1-10.24 10.24z m-31.9488-20.48h21.7088v-325.5808h-21.7088v325.5808z" fill="#010101" /><path d="M313.0368 626.9952h26.4192v315.8528h-26.4192z" fill="#FFB15C" /><path d="M339.4048 953.088h-42.1888c-5.632 0-10.24-4.608-10.24-10.24v-315.8528c0-5.632 4.608-10.24 10.24-10.24h42.1888c5.632 0 10.24 4.608 10.24 10.24v315.8528a10.24 10.24 0 0 1-10.24 10.24z m-31.8976-20.48h21.7088v-295.3728h-21.7088v295.3728z" fill="#010101" /><path d="M770.01216 722.6368v26.4192H256.88576v-26.4192z" fill="#FFB15C" /><path d="M769.9968 759.296H256.8704c-5.632 0-10.24-4.608-10.24-10.24v-42.1888c0-5.632 4.608-10.24 10.24-10.24h513.1264c5.632 0 10.24 4.608 10.24 10.24v42.1888a10.24 10.24 0 0 1-10.24 10.24z m-502.8864-20.48h492.6464v-21.7088H267.1104v21.7088z" fill="#010101" /></svg>