<svg xmlns="http://www.w3.org/2000/svg" viewBox="0 0 1024 1024" width="200" height="200"><path d="M320.8 818.6h-15.1c-75.1 0-134.1-53.2-139-143.1 0 0-1.7-20-2.7-77.1s0.3-62.6 0.3-62.6c0-65.1 40.7-118.5 114.5-125.8 12.6-1.2 22.3-1.2 22.6-1.2 47.2-2.3 63.4 3.5 63.4 3.5 44.7 9.9 65.1 44.8 68.7 92.5 0 0 2.4 24.7 2.4 88.2 0 68.4-3.5 102.3-3.5 102.3-4.9 65.1-47.2 117.5-111.6 123.3z" fill="#FF6687" /><path d="M320.8 828.6h-15.1c-84.1 0-143.9-61.2-149-152.4-0.2-2.1-1.8-22.8-2.7-77.6-0.4-20.2-0.8-54 0.3-63.4 0.1-35.2 11.2-66.5 32-90.5 22-25.5 53.7-40.9 91.5-44.6 12-1.1 21.4-1.2 23.3-1.2 43.9-2.1 62.3 2.6 66.3 3.8 45.5 10.3 71.8 45.3 76 101.3 0.2 2.1 2.4 27.3 2.4 89.1 0 66.6-3.3 100.4-3.5 103.2-2.6 34.3-15.4 66.1-35.9 89.6-21.9 25-51.2 39.8-84.7 42.8-0.3-0.1-0.6-0.1-0.9-0.1zM174.1 537.9c-0.2 2.3-0.9 14.1-0.1 60.4 1 55.9 2.6 76.2 2.7 76.4v0.3c2.2 40.7 16.1 74.8 40.2 98.7 23.1 22.9 53.8 34.9 88.8 34.9h14.6c28.2-2.6 52.7-15.1 71-36 17.8-20.3 28.8-48 31-78v-0.3c0-0.3 3.4-34.3 3.4-101.3 0-62-2.3-87-2.4-87.2v-0.2c-1.7-23-7.5-41.6-17.2-55.4-10.2-14.6-24.5-23.8-43.7-28-0.5-0.1-0.7-0.2-1.1-0.3-1.1-0.3-17.3-5-59.6-3h-0.5c-0.4 0-9.7 0-21.7 1.2-32.6 3.2-59.7 16.3-78.3 37.8-17.8 20.5-27.1 47.5-27.1 78 0.2 1 0.4 1.1 0 2z m-0.1 0.2z" fill="#543630" /><path d="M488.7 393.4c0-121.1-58.2-207.5-165.8-206.4-115.8 0-196.5 93.4-210.5 227.9 0 0-5.4 46.4-5.4 116.5s3.2 142.6 3.2 142.6c10.8 144.6 83.1 203 199.3 203 110.2 0 170.6-68.9 178.1-183.5 3.3-55.8 0.1-103.7 1.1-300.1z m-209.9 16.7c12.6-1.2 22.3-1.2 22.6-1.2 47.2-2.3 63.4 3.5 63.4 3.5 44.7 9.9 65.1 44.8 68.7 92.5 0 0 0.9 9.2 1.6 30.8-113.6-9.2-226.1-2.2-271 1.5 0.1-0.9 0.1-1.2 0.1-1.2 0-65.2 40.7-118.7 114.6-125.9z m42 408.5h-15.1c-75.1 0-134.1-53.2-139-143.1 0 0-1.6-18-2.6-68.8 122.6-10.1 222.4-5.3 271.7-1.4-0.4 60.2-3.5 90.1-3.5 90.1-4.8 65-47.1 117.4-111.5 123.2z" fill="#FFFFFF" /><path d="M302.5 191.8S274 307.7 277 411.2l-70 19.7s-1.2-140.2 41-228l54.5-11.1zM350.6 191.8s3.9 132.9 0 217l65.9 31.6s5.9-139.2-13-235l-52.9-13.6z" fill="#FFD7E1" /><path d="M224.5 215s-79.3 66.1-81.2 310.4c-1.4 178.3-1.8 224.3 63.6 332.9 0 0-41.5-32.6-49.1-47.5-7.6-14.8-52.8-17.9-44.5-336.8 6-228.6 111.2-259 111.2-259zM441.3 254.7s20 31.2 20 275.5c0 190.3-1.7 204.3-12.4 272 0 0 20.5-17.8 26.8-32.7s6.2-16.8 14.4-245.2c9.9-274.2-48.8-269.6-48.8-269.6zM218.1 792.9s6.5 57.2 29.2 74.7l44 4s-4.7-16.8-4.7-53l-68.5-25.7zM415.4 769.6s-3.2 49-15.1 92.2l-52.6 8.4s3-17.7 3-53.9l64.7-46.7z" fill="#FFD7E1" /><path d="M309.5 887c-62.4 0-111.6-16.8-146.1-50.1-18.2-17.5-32.7-39.9-43.1-66.6-10.6-26.9-17.3-59.1-20-95.6v-0.3c0-0.7-3.2-73.5-3.2-143 0-69.2 5.1-114.9 5.5-117.6 7.2-68.9 31.2-127.7 69.6-170C211.8 200.1 263.9 177 323 177c46.3-0.5 86.6 14.9 116.5 44.6 19.4 19.2 34.4 44.1 44.5 73.8 9.8 29 14.8 62 14.8 98v0.1c-0.4 86.5-0.1 144.3 0.2 186.5 0.3 53.3 0.5 82.7-1.3 114.2-4 60.4-21.9 107.8-53.3 141-32.6 34.3-78 51.8-134.9 51.8zM120.2 673.4c5.1 67.4 24.3 117.5 57.1 149.1 31.1 29.9 74.4 44.5 132.2 44.5 51.2 0 91.7-15.4 120.3-45.6 28.1-29.7 44.2-73 47.8-128.5 1.8-30.8 1.6-59.9 1.3-112.8-0.3-42.2-0.7-100-0.2-186.7 0-67.6-19-123.5-53.4-157.6-26.4-26.1-60.8-39.2-102.3-38.8h-0.1c-53.3 0-100.3 20.8-136 60.2-35.5 39.2-57.8 94-64.5 158.7v0.1c-0.1 0.5-5.3 46.7-5.3 115.3-0.1 67.7 2.9 138.3 3.1 142.1z m368.5-280zM320.8 828.6h-15.1c-84.1 0-143.9-61.2-149-152.4-0.2-2.1-1.7-20.8-2.6-69.3-0.1-5.3 3.9-9.7 9.2-10.2 124-10.2 224.5-5.3 273.3-1.4 5.2 0.4 9.2 4.8 9.2 10-0.4 58.5-3.3 88.3-3.5 90.9-2.6 34.3-15.3 66-35.8 89.5-21.9 25-51.2 39.7-84.7 42.8-0.4 0.1-0.7 0.1-1 0.1zM174.3 615.9c1 42.6 2.3 58.5 2.4 58.7v0.3c2.2 40.7 16.1 74.8 40.2 98.7 23.1 22.9 53.8 34.9 88.8 34.9h14.6c28.2-2.6 52.7-15.1 71-36 17.7-20.3 28.7-47.9 30.9-77.9v-0.3c0-0.3 2.7-27.1 3.4-79.8-49.5-3.5-140.3-7.1-251.3 1.4z m-10.2-68.7c-2.7 0-5.3-1.1-7.2-3-2.1-2.1-3.1-5.1-2.8-8.1v-0.4c0.1-35.4 11.1-66.8 32-91 22.1-25.5 53.7-40.9 91.6-44.6 12-1.1 21.4-1.2 23.3-1.2 43.9-2.1 62.3 2.6 66.3 3.8 45.5 10.3 71.8 45.3 76 101.3 0.1 1.2 1 10.7 1.6 31.3 0.1 2.8-1 5.6-3.1 7.6s-4.9 3-7.7 2.7c-114.3-9.3-226.5-2-269.4 1.5-0.1 0.1-0.3 0.1-0.6 0.1z m-9.9-11.4v0z m125.5-115.7c-32.6 3.2-59.8 16.3-78.4 37.8-15.9 18.3-25.1 41.9-26.8 68.5 47.9-3.6 147.2-8.9 250.2-1.5-0.6-13-1.1-18.9-1.1-19v-0.2c-1.7-23-7.5-41.6-17.2-55.4-10.2-14.6-24.5-23.8-43.7-28-0.5-0.1-0.7-0.2-1.1-0.3-1.1-0.3-17.3-5-59.6-2.9h-0.5c-0.5-0.2-9.8-0.2-21.8 1z" fill="#543630" /><path d="M703.2 818.6h15.1c75.1 0 134.1-53.2 139-143.1 0 0 1.7-20 2.7-77.1s-0.3-62.6-0.3-62.6c0-65.1-40.7-118.5-114.5-125.8-12.6-1.2-22.3-1.2-22.6-1.2-47.2-2.3-63.4 3.5-63.4 3.5-44.7 9.9-65.1 44.8-68.7 92.5 0 0-2.4 24.7-2.4 88.2 0 68.4 3.5 102.3 3.5 102.3 4.9 65.1 47.2 117.5 111.6 123.3z" fill="#FF6687" /><path d="M718.3 828.6h-16c-33.6-3-62.9-17.8-84.7-42.8-20.6-23.5-33.3-55.3-35.9-89.6-0.3-2.8-3.5-36.6-3.5-103.2 0-61.7 2.2-86.9 2.4-89.1 4.3-56 30.5-91 76-101.3 4-1.3 22.4-6 66.3-3.8 1.9 0 11.3 0.1 23.3 1.2 37.8 3.7 69.5 19.2 91.5 44.6 20.8 24 31.9 55.3 32 90.5 1.1 9.4 0.7 43.1 0.3 63.4-1 54.8-2.5 75.5-2.7 77.6-5.1 91.3-64.9 152.5-149 152.5z m-14.6-20h14.6c35 0 65.7-12.1 88.8-34.9 24.1-23.9 38-58 40.2-98.7v-0.3c0-0.2 1.7-20.5 2.7-76.4 0.8-46.3 0.1-58.1-0.1-60.4-0.3-0.9-0.2-0.9-0.2-2.1 0-30.5-9.4-57.5-27.1-78-18.6-21.5-45.7-34.6-78.4-37.8-12-1.1-21.2-1.2-21.6-1.2h-0.5c-42.3-2.1-58.5 2.6-59.6 3-0.4 0.2-0.7 0.2-1.1 0.3-19.2 4.3-33.5 13.4-43.7 28-9.7 13.8-15.4 32.5-17.2 55.4v0.2c0 0.2-2.4 25.2-2.4 87.2 0 66.9 3.4 100.9 3.4 101.3v0.3c2.3 30.1 13.3 57.8 31 78 18.4 21 43 33.5 71.2 36.1zM850 538.1z" fill="#543630" /><path d="M536.3 693.5c7.6 114.6 68 183.5 178.2 183.5 116.3 0 188.5-58.4 199.3-202.9 0 0 3.2-72.6 3.2-142.6S911.6 415 911.6 415c-14-134.6-94.7-228-210.5-228-107.6-1.2-165.8 85.2-165.8 206.4 1 196.4-2.2 244.3 1 300.1z m323.5-157.7s0.1 0.2 0.1 1.2c-44.9-3.6-157.4-10.7-271-1.5 0.7-21.5 1.6-30.8 1.6-30.8 3.7-47.7 24-82.6 68.7-92.5 0 0 16.2-5.8 63.4-3.5 0.2 0 9.9 0 22.6 1.2 73.9 7.4 114.6 60.9 114.6 125.9zM591.6 695.3s-3.1-29.9-3.5-90.1c49.3-3.9 149.1-8.7 271.7 1.4-1 50.8-2.6 68.8-2.6 68.8-4.9 89.9-63.9 143.1-139 143.1h-15.1c-64.3-5.7-106.6-58.1-111.5-123.2z" fill="#FFFFFF" /><path d="M721.5 191.8S750 307.7 747 411.2l69.9 19.8s1.2-140.2-41-228l-54.4-11.2zM673.4 191.8s-3.9 132.9 0 217l-65.9 31.6s-5.9-139.2 13-235l52.9-13.6z" fill="#FFD7E1" /><path d="M799.5 215s79.3 66.1 81.2 310.4c1.4 178.3 1.8 224.3-63.6 332.9 0 0 41.5-32.6 49.1-47.5S919 792.9 910.7 474c-6-228.6-111.2-259-111.2-259zM582.7 254.7s-20 31.2-20 275.5c0 190.3 1.7 204.3 12.4 272 0 0-20.5-17.8-26.8-32.7-6.4-14.9-6.2-16.8-14.4-245.2-9.9-274.2 48.8-269.6 48.8-269.6zM805.9 792.9s-6.5 57.2-29.2 74.7l-44 4s4.7-16.8 4.7-53l68.5-25.7zM608.6 769.6s3.2 49 15.1 92.2l52.6 8.4s-3-17.7-3-53.9l-64.7-46.7z" fill="#FFD7E1" /><path d="M714.5 887c-56.9 0-102.3-17.5-134.8-51.9-31.4-33.2-49.3-80.6-53.3-140.9v-0.1c-1.8-31.2-1.6-60.2-1.2-112.7 0.3-42.4 0.7-100.4 0.2-187.9 0-36.1 5-69.2 14.8-98.2 10.1-29.8 25.1-54.6 44.5-73.8 29.9-29.6 70.2-45 116.5-44.4 59.1 0 111.2 23.1 150.8 66.8 38.4 42.3 62.4 101.2 69.6 170.1 0.3 2.7 5.5 48.4 5.5 117.6 0 69.4-3.2 142.3-3.2 143v0.3c-2.7 36.5-9.5 68.6-20 95.6-10.4 26.7-25 49-43.1 66.5-34.7 33.2-83.8 50-146.3 50zM546.3 692.9c3.7 55.5 19.8 98.8 47.9 128.5 28.6 30.3 69.1 45.6 120.3 45.6 57.9 0 101.2-14.5 132.3-44.5 32.8-31.6 52-81.7 57-149 0.2-3.8 3.2-74.6 3.2-142 0-68.6-5.3-114.9-5.3-115.3v-0.1c-6.7-64.7-29-119.6-64.5-158.8-35.7-39.4-82.7-60.2-136-60.2h-0.1c-41.5-0.5-75.9 12.5-102.3 38.7-34.5 34.1-53.4 90.1-53.4 157.7 0.4 87.6 0.1 145.7-0.2 188.1-0.5 52-0.7 80.7 1.1 111.3z m171.9 135.6h-16c-33.5-3-62.8-17.7-84.7-42.7-20.6-23.5-33.3-55.3-35.9-89.6-0.3-2.6-3.1-32.4-3.5-90.9 0-5.2 4-9.6 9.2-10 48.8-3.9 149.3-8.8 273.3 1.4 5.3 0.4 9.3 4.9 9.2 10.2-1 48.5-2.4 67.2-2.6 69.3-5.1 91.1-64.9 152.3-149 152.3z m-14.6-20h14.6c35 0 65.7-12.1 88.8-34.9 24.1-23.9 38-58 40.2-98.7v-0.3c0-0.2 1.4-16.1 2.4-58.7-111-8.5-201.8-4.9-251.4-1.3 0.6 52.7 3.3 79.5 3.4 79.8v0.3c2.3 30.1 13.3 57.8 31 78 18.3 20.8 42.8 33.2 71 35.8zM859.9 547h-0.8c-43.5-3.5-156.8-10.6-269.4-1.5-2.8 0.2-5.6-0.8-7.7-2.7-2.1-2-3.2-4.7-3.1-7.6 0.7-20.6 1.5-30.2 1.6-31.3 4.4-56 30.7-91 76-101.3 4-1.3 22.4-6 66.3-3.8 1.7 0 11.2 0.1 23.3 1.2 37.9 3.8 69.6 19.3 91.6 44.8 20.8 24 31.9 55.2 32 90.3 0.1 0.7 0.1 1.4 0.1 2 0 2.8-1.2 5.5-3.2 7.3-1.8 1.7-4.2 2.6-6.7 2.6z m-9-6.7z m-0.1 0c0.1 0 0.1 0 0 0 0.1 0 0.1 0 0 0z m0-0.1s0 0.1 0 0c0 0.1 0 0 0 0z m0 0z m0 0z m19-4.4zM708.2 521c59.3 0 110.7 2.9 141.3 5.2-1.8-26.6-11-50-26.8-68.4-18.7-21.6-45.8-34.7-78.4-37.9-12-1.1-21.2-1.1-21.6-1.1h-0.5c-42.3-2.1-58.5 2.6-59.6 3-0.4 0.2-0.7 0.2-1.1 0.3-19.2 4.2-33.5 13.4-43.7 28-9.6 13.8-15.4 32.4-17.2 55.5v0.2c0 0.1-0.6 6-1.1 19 37.1-2.8 74.3-3.8 108.7-3.8z" fill="#543630" /></svg>