<svg xmlns="http://www.w3.org/2000/svg" viewBox="0 0 1024 1024" width="200" height="200"><path d="M0 512C0 229.248 229.248 0 512 0s512 229.248 512 512-229.248 512-512 512S0 794.752 0 512z" fill="#FC7F2C" /><path d="M375.36 432.064c-8.704 11.52-18.048 22.528-28.16 32.896-4.864 4.992-9.856 9.6-14.848 13.824-7.808 6.656-19.712 5.76-26.368-2.048a1.7664 1.7664 0 0 1-0.384-0.512c-1.536-1.92-3.2-3.968-4.992-6.144-5.632-6.912-11.904-13.184-18.816-18.816 15.36-8.576 29.44-19.2 41.856-31.616 3.328-3.2 6.528-6.528 9.728-9.856a18.9696 18.9696 0 0 0-13.696-32c-10.368 0-18.816-8.448-18.816-18.816v-9.344c0-10.368 8.448-18.816 18.816-18.816h36.736c10.368 0 18.816-8.448 18.816-18.816v-4.864c0-10.368 8.448-18.816 18.816-18.816h16.256c10.368 0 18.816 8.448 18.816 18.816v4.864c0 10.368 8.448 18.816 18.816 18.816h24.576c10.368 0 18.816 8.448 18.816 18.816v9.344c0 10.368-8.448 18.816-18.816 18.816h-43.392v0.512c4.864 2.56 11.008 6.016 18.176 10.368 7.168 4.224 14.336 8.576 21.376 12.928 7.04 4.352 13.568 8.576 19.84 12.544 6.272 3.968 10.88 6.912 13.696 8.832l-30.336 39.168c-4.608-4.608-10.752-9.984-18.56-16.384s-15.872-12.8-24.064-19.328v44.8c0 10.368-8.448 18.816-18.816 18.816h-16.256c-10.368 0-18.816-8.448-18.816-18.816v-39.168zM402.88 641.984c9.984 3.072 15.616 13.568 12.544 23.552-0.768 2.432-1.92 4.608-3.584 6.528-8.704 10.112-18.048 19.584-27.904 28.416-16.256 14.848-33.92 28.16-52.608 39.68-2.688-2.304-5.888-5.12-9.856-8.32s-8.064-6.656-12.288-9.984c-4.224-3.456-8.448-6.656-12.544-9.856-3.584-2.688-7.168-5.248-11.008-7.552 17.664-8.704 34.432-19.456 49.792-31.872 11.136-8.832 21.376-18.688 30.464-29.44 4.864-6.016 12.8-8.576 20.224-6.272l16.768 5.12z" fill="#FFFFFF" /><path d="M516.416 738.24c-11.52 3.84-23.424 6.144-35.456 6.656-9.728 0.64-20.608 1.024-32.64 1.152-8.32 0.128-15.616-5.12-18.304-13.056-1.28-4.096-2.944-8.192-4.736-12.672-3.968-9.344-7.68-17.536-11.264-24.704 6.144 0.384 12.544 0.64 18.816 0.768 6.4 0.128 12.288 0.384 17.92 0.512 5.504 0.128 10.368 0.128 14.464 0 4.096-0.128 7.168-0.256 9.088-0.256 2.816 0 5.632-0.64 8.064-1.92 1.664-1.408 2.56-3.712 2.176-5.888v-45.952c0-10.368-8.448-18.816-18.816-18.816h-148.992c-10.368 0-18.816-8.448-18.816-18.816v-11.264c0-10.368 8.448-18.816 18.816-18.816h392.96c10.368 0 18.816 8.448 18.816 18.816v11.264c0 10.368-8.448 18.816-18.816 18.816h-147.456c-10.368 0-18.816 8.448-18.816 18.816v47.232c0.64 10.752-1.408 21.504-5.632 31.36-4.864 8.192-12.416 14.08-21.376 16.768M679.616 522.432v9.344c0 10.368-8.448 18.816-18.816 18.816h-290.56c-10.368 0-18.816-8.448-18.816-18.816v-9.344c0-10.368 8.448-18.816 18.816-18.816h290.56c10.368 0 18.816 8.448 18.816 18.816M705.984 489.92c-11.008-7.936-21.376-16.896-30.848-26.752-10.496-10.624-20.608-22.016-30.336-34.048v41.856c0 10.368-8.448 18.816-18.816 18.944h-17.152c-10.368 0-18.816-8.448-18.944-18.816v-44.416c-9.728 12.288-20.224 23.936-31.616 34.688-6.016 5.76-12.288 11.136-18.816 16.256-8.064 6.4-19.712 5.12-26.24-2.816-1.664-2.176-3.584-4.352-5.504-6.656-5.632-6.784-11.776-12.928-18.432-18.56 16.384-8.192 31.616-18.56 45.312-30.592 3.328-2.816 6.4-5.76 9.472-8.704 7.68-7.04 8.064-19.072 1.024-26.752-3.584-3.84-8.576-6.016-13.824-6.016h-4.096c-10.368 0-18.816-8.448-18.816-18.816v-9.344c0-10.368 8.448-18.816 18.816-18.816h43.648c10.368 0 18.816-8.448 18.816-18.816v-4.864c0-10.368 8.448-18.816 18.816-18.816h17.152c10.368 0 18.816 8.448 18.816 18.816v4.864c0 10.368 8.448 18.816 18.816 18.816h42.624c10.368 0 18.816 8.448 18.816 18.816v9.344c0 10.368-8.448 18.816-18.816 18.816h-49.152c5.888 6.784 12.288 13.824 19.072 20.864s13.952 13.696 21.376 20.096c7.168 6.272 14.72 12.16 22.528 17.664 7.168 5.12 14.592 9.728 22.272 13.952a156.9408 156.9408 0 0 0-19.584 18.56c-3.2 3.584-6.4 7.296-9.344 11.008s-4.992 7.168-7.04 10.24" fill="#FFFFFF" /><path d="M619.456 636.992c6.144-3.712 13.952-3.584 19.84 0.384 5.248 3.456 10.624 7.296 16.256 11.264 9.088 6.528 18.048 13.312 26.88 20.096 8.832 6.784 17.152 13.568 24.96 20.352 6.912 5.888 13.44 12.16 19.584 18.816l-36.608 22.272c-7.552 4.608-17.28 3.2-23.424-3.072-2.304-2.432-4.864-4.864-7.552-7.424-7.168-6.912-14.976-13.952-23.552-21.12-8.448-7.168-17.28-14.208-26.496-21.12l-3.2-2.432c-8.32-6.144-10.112-17.92-3.968-26.368 1.536-2.048 3.456-3.712 5.632-4.992l11.648-6.656z" fill="#FFFFFF" /><path d="M772.608 251.136a83.8272 83.8272 0 0 1 0 118.4L369.92 772.224a83.584 83.584 0 0 1-118.4 0 83.8272 83.8272 0 0 1 0-118.4L654.08 251.136a83.968 83.968 0 0 1 118.528 0z" fill="#FEDFC5" /><path d="M471.936 696.96c4.096-0.128 7.168-0.256 9.088-0.256 2.816 0 5.632-0.64 8.064-1.92 1.664-1.408 2.56-3.712 2.176-5.888v-22.272L460.8 696.96c4.096 0.128 7.936 0.128 11.136 0zM409.472 641.92l-16.64-5.12c-7.424-2.176-15.36 0.256-20.224 6.272-9.216 10.752-19.328 20.736-30.464 29.44-15.36 12.416-32.128 23.04-49.792 31.872 3.84 2.304 7.424 4.864 11.008 7.552 4.096 3.072 8.32 6.4 12.544 9.856 4.224 3.456 8.32 6.784 12.288 9.984s7.168 6.016 9.856 8.32c18.816-11.52 36.352-24.832 52.608-39.68 9.856-8.832 19.2-18.432 27.904-28.416 1.536-1.92 2.816-4.096 3.584-6.528 2.944-9.856-2.688-20.48-12.672-23.552z" fill="#FFF2E9" /><path d="M409.472 641.92l-16.64-5.12c-7.424-2.176-15.36 0.256-20.224 6.272-9.216 10.752-19.328 20.736-30.464 29.44-15.36 12.416-32.128 23.04-49.792 31.872 3.84 2.304 7.424 4.864 11.008 7.552 4.096 3.072 8.32 6.4 12.544 9.856 4.224 3.456 8.32 6.784 12.288 9.984s7.168 6.016 9.856 8.32c18.816-11.52 36.352-24.832 52.608-39.68 9.856-8.832 19.2-18.432 27.904-28.416 1.536-1.92 2.816-4.096 3.584-6.528 2.944-9.856-2.688-20.48-12.672-23.552z" fill="#FFF2E9" /><path d="M457.472 696.96c-5.504-0.128-11.52-0.384-17.92-0.512-6.4-0.128-12.672-0.384-18.816-0.768 3.584 7.168 7.296 15.488 11.264 24.704 0.512 1.408 0.896 2.56 1.536 3.968L460.8 696.96h-3.328z" fill="#FFF2E9" /><path d="M457.472 696.96c-5.504-0.128-11.52-0.384-17.92-0.512-6.4-0.128-12.672-0.384-18.816-0.768 3.584 7.168 7.296 15.488 11.264 24.704 0.512 1.408 0.896 2.56 1.536 3.968L460.8 696.96h-3.328z" fill="#FFF2E9" /><path d="M306.816 614.144c3.2 5.888 9.344 9.984 16.512 9.984H472.32c10.368 0 18.816 8.448 18.816 18.816v23.68l91.392-91.392h-236.8l-38.912 38.912z" fill="#FFF2E9" /><path d="M306.816 614.144c3.2 5.888 9.344 9.984 16.512 9.984H472.32c10.368 0 18.816 8.448 18.816 18.816v23.68l91.392-91.392h-236.8l-38.912 38.912z" fill="#FFF2E9" /><path d="M371.328 549.632c1.792 0.512 3.584 0.896 5.504 0.896h230.4l46.976-46.976h-236.8l-46.08 46.08z" fill="#FFF2E9" /><path d="M371.328 549.632c1.792 0.512 3.584 0.896 5.504 0.896h230.4l46.976-46.976h-236.8l-46.08 46.08z" fill="#FFF2E9" /><path d="M682.752 398.464a397.824 397.824 0 0 1-19.072-20.864h49.152c10.368 0 18.816-8.448 18.816-18.816v-9.344c0-10.368-8.448-18.816-18.816-18.816h-42.624c-10.368 0-18.816-8.448-18.816-18.816v-4.864c0-10.24-8.32-18.688-18.56-18.816l-90.24 90.24c3.456 0.896 6.784 2.688 9.216 5.376 7.04 7.68 6.656 19.584-1.024 26.752-3.072 2.944-6.272 5.76-9.472 8.704-13.696 12.16-28.928 22.4-45.312 30.592 6.656 5.632 12.8 11.904 18.432 18.56 1.92 2.304 3.84 4.48 5.504 6.656 6.528 7.936 18.176 9.216 26.24 2.816 6.528-5.12 12.8-10.496 18.816-16.256 11.264-10.88 21.888-22.4 31.616-34.688v44.416c0 10.368 8.448 18.816 18.944 18.816h17.152c10.368 0 18.816-8.448 18.816-18.944v-41.856c9.728 12.032 19.968 23.424 30.336 34.048 2.176 2.176 4.48 4.096 6.656 6.272l35.456-35.456c-6.784-4.864-13.44-9.984-19.712-15.488-7.552-6.528-14.592-13.184-21.504-20.224z" fill="#FFF2E9" /><path d="M682.752 398.464a397.824 397.824 0 0 1-19.072-20.864h49.152c10.368 0 18.816-8.448 18.816-18.816v-9.344c0-10.368-8.448-18.816-18.816-18.816h-42.624c-10.368 0-18.816-8.448-18.816-18.816v-4.864c0-10.24-8.32-18.688-18.56-18.816l-90.24 90.24c3.456 0.896 6.784 2.688 9.216 5.376 7.04 7.68 6.656 19.584-1.024 26.752-3.072 2.944-6.272 5.76-9.472 8.704-13.696 12.16-28.928 22.4-45.312 30.592 6.656 5.632 12.8 11.904 18.432 18.56 1.92 2.304 3.84 4.48 5.504 6.656 6.528 7.936 18.176 9.216 26.24 2.816 6.528-5.12 12.8-10.496 18.816-16.256 11.264-10.88 21.888-22.4 31.616-34.688v44.416c0 10.368 8.448 18.816 18.944 18.816h17.152c10.368 0 18.816-8.448 18.816-18.944v-41.856c9.728 12.032 19.968 23.424 30.336 34.048 2.176 2.176 4.48 4.096 6.656 6.272l35.456-35.456c-6.784-4.864-13.44-9.984-19.712-15.488-7.552-6.528-14.592-13.184-21.504-20.224z" fill="#FFF2E9" /></svg>