<svg xmlns="http://www.w3.org/2000/svg" viewBox="0 0 1024 1024" width="200" height="200"><path d="M845.6704 927.0272H170.752c-28.2624 0-51.2-22.9376-51.2-51.2v-469.504c0-28.2624 22.9376-51.2 51.2-51.2h674.9184c28.2624 0 51.2 22.9376 51.2 51.2v469.504c0 28.2624-22.9376 51.2-51.2 51.2z" fill="#000100" /><path d="M845.6704 934.7072H170.752c-32.4608 0-58.88-26.4192-58.88-58.88v-469.504c0-32.4608 26.4192-58.88 58.88-58.88h674.9184c32.4608 0 58.88 26.4192 58.88 58.88v469.504c0 32.4608-26.4192 58.88-58.88 58.88zM170.752 362.8544c-24.0128 0-43.52 19.5072-43.52 43.52v469.504c0 24.0128 19.5072 43.52 43.52 43.52h674.9184c24.0128 0 43.52-19.5072 43.52-43.52v-469.504c0-24.0128-19.5072-43.52-43.52-43.52H170.752z" fill="#FFF100" /><path d="M827.0336 185.5488H190.0032c-20.224 0-36.608-16.384-36.608-36.608v-5.888c0-20.224 16.384-36.608 36.608-36.608h637.0304c20.224 0 36.608 16.384 36.608 36.608v5.888c0 20.224-16.384 36.608-36.608 36.608z" fill="#000100" /><path d="M827.0336 193.2288H190.0032c-24.4224 0-44.288-19.8656-44.288-44.288v-5.888c0-24.4224 19.8656-44.288 44.288-44.288h637.0304c24.4224 0 44.288 19.8656 44.288 44.288v5.888c0 24.4224-19.8656 44.288-44.288 44.288zM190.0032 114.176a28.928 28.928 0 0 0-28.928 28.928v5.888a28.928 28.928 0 0 0 28.928 28.928h637.0304c15.9232 0 28.928-12.9536 28.928-28.928v-5.888c0-15.9232-12.9536-28.928-28.928-28.928H190.0032z" fill="#FFF100" /><path d="M941.312 361.1136h0.1536L889.6 222.72c-7.7312-22.272-28.672-37.1712-52.2752-37.1712H179.1488c-23.6544 0-44.6464 15.0528-52.3264 37.376L76.8 358.0928h0.0512a109.5936 109.5936 0 0 0-8.2432 41.6768c0 60.7232 49.2544 109.9776 109.9776 109.9776 60.7232 0 109.9776-49.2544 109.9776-109.9776 0 60.7232 49.2544 109.9776 109.9776 109.9776 32.1536 0 61.0816-13.7728 81.152-35.7888 17.8688-19.5584 28.8256-45.6192 28.8256-74.1888 0 60.7232 49.2544 109.9776 109.9776 109.9776 60.7232 0 109.9776-49.2544 109.9776-109.9776 0 60.7232 49.2544 109.9776 109.9776 109.9776 60.7232 0 109.9776-49.2544 109.9776-109.9776 0-13.6192-2.6112-26.624-7.1168-38.656z" fill="#000100" /><path d="M838.4512 517.4272c-50.176 0-93.0816-31.5392-109.9776-75.8272-16.896 44.288-59.8528 75.8272-109.9776 75.8272-50.1248 0-93.0816-31.5392-109.9776-75.8272a117.15072 117.15072 0 0 1-23.1424 37.5296 118.016 118.016 0 0 1-86.8352 38.2464c-50.176 0-93.0816-31.5392-109.9776-75.8272-16.896 44.288-59.8016 75.8272-109.9776 75.8272-64.8704 0-117.6576-52.7872-117.6576-117.6576 0-15.0528 2.816-29.7472 8.448-43.7248 0.0512-0.2048 0.1024-0.4096 0.2048-0.6144l50.0224-135.168c8.6528-25.2928 32.6144-42.3936 59.5456-42.3936h658.2272c26.8288 0 50.7392 16.9984 59.4944 42.3424l51.7632 138.1888c0.1536 0.4608 0.3072 0.9216 0.3584 1.3824 4.7104 13.0048 7.1168 26.4192 7.1168 39.936 0 65.024-52.7872 117.76-117.6576 117.76z m-109.9776-125.3376c4.2496 0 7.68 3.4304 7.68 7.68 0 56.4224 45.8752 102.2976 102.2976 102.2976s102.2976-45.8752 102.2976-102.2976c0-12.1856-2.2528-24.2688-6.656-35.9424-0.1536-0.4608-0.3072-0.9216-0.3584-1.3824l-51.3024-137.0112a47.68768 47.68768 0 0 0-45.056-32.2048H179.1488c-20.3776 0-38.4512 12.9536-45.056 32.2048L84.2752 359.936c-0.1024 0.3584-0.2048 0.7168-0.3584 1.0752a101.9392 101.9392 0 0 0-7.6288 38.7584c0 56.4224 45.8752 102.2976 102.2976 102.2976s102.2976-45.8752 102.2976-102.2976c0-4.2496 3.4304-7.68 7.68-7.68s7.68 3.4304 7.68 7.68c0 56.4224 45.8752 102.2976 102.2976 102.2976 28.6208 0 56.1664-12.1344 75.52-33.28 17.2544-18.8928 26.7776-43.4176 26.7776-69.0176 0-4.2496 3.4304-7.68 7.68-7.68s7.68 3.4304 7.68 7.68c0 56.4224 45.8752 102.2976 102.2976 102.2976s102.2976-45.8752 102.2976-102.2976c0-4.1984 3.4304-7.68 7.68-7.68z" fill="#FFF100" /><path d="M252.9792 615.68h182.1696v311.3472H252.9792z" fill="#000100" /><path d="M435.1488 934.7072H252.9792c-4.2496 0-7.68-3.4304-7.68-7.68v-311.3472c0-4.2496 3.4304-7.68 7.68-7.68h182.1696c4.2496 0 7.68 3.4304 7.68 7.68v311.3472c0 4.2496-3.4816 7.68-7.68 7.68z m-174.4896-15.36h166.8096v-295.9872H260.6592v295.9872z" fill="#FFF100" /></svg>