<svg xmlns="http://www.w3.org/2000/svg" viewBox="0 0 1024 1024" width="200" height="200"><path d="M394.335117 271.642215c2.380237 0.202966 4.871182 0.350578 7.454385 0.627349 5.756852 0.590446 10.941709-3.598032 11.495252-9.373335 0.516641-5.793755-3.708741-10.997063-9.502496-11.569058-2.823072-0.350578-5.627692-0.498189-8.303152-0.701155-5.849109-0.332126-10.849451 4.07777-11.107772 9.926879C384.057661 266.365101 388.541363 271.346992 394.335117 271.642215z" fill="#C63232" /><path d="M368.447736 253.818116c-36.330901 0.719606-65.262771 30.832369-64.543164 67.255527 0.110709 6.015172 5.111051 10.775646 11.144674 10.664937 6.052075-0.110709 10.923257-5.074148 10.775646-11.144674-0.479738-24.245202 18.820477-44.357281 43.047228-44.837018 6.033623-0.110709 10.904806-5.111051 10.775646-11.200029C379.555508 258.541687 374.499811 253.707408 368.447736 253.818116z" fill="#C63232" /><path d="M391.659657 227.35874c2.398688 0.184514 4.871182 0.350578 7.454385 0.627349 5.775303 0.590446 10.941709-3.598032 11.495252-9.373335 0.516641-5.793755-3.708741-10.997063-9.502496-11.569058-2.823072-0.332126-5.627692-0.479738-8.303152-0.682704-5.849109-0.332126-10.867903 4.07777-11.107772 9.926879C381.382201 222.081626 385.884354 227.045065 391.659657 227.35874z" fill="#C63232" /><path d="M363.502748 206.45325c-35.906517 5.553886-101.519866 44.504892-102.571598 100.892517C260.820441 313.360938 267.462962 317.364903 273.42278 316.460782c5.978269-0.941024 9.594753-6.458007 9.207272-12.49163-2.361785-37.34573 60.299331-72.089807 84.249311-75.816999 5.959818-0.922572 10.111393-6.531813 9.17037-12.546985C375.12716 209.64535 369.462566 205.530677 363.502748 206.45325z" fill="#C63232" /><path d="M382.581545 182.909202c2.380237 0.184514 4.871182 0.332126 7.454385 0.627349 5.775303 0.590446 10.941709-3.616484 11.495252-9.391787 0.516641-5.793755-3.708741-10.978611-9.502496-11.569058-2.823072-0.332126-5.627692-0.479738-8.321603-0.682704-5.849109-0.332126-10.849451 4.07777-11.107772 9.926879C372.304089 177.613637 376.806242 182.595528 382.581545 182.909202z" fill="#C63232" /><path d="M356.970935 176.930933c-1.66063-5.793755-7.804962-9.17037-13.617168-7.472836-34.910139 10.111393-120.469503 53.195524-121.281367 128.385174-0.073806 6.033623 7.749608 9.115015 13.561814 7.435933 5.793755-1.715985 7.306773-7.528191 7.528191-13.543363 2.011208-57.125682 83.049967-94.43451 106.335694-101.18774C355.273402 188.86902 358.668469 182.780042 356.970935 176.930933z" fill="#C63232" /><path d="M586.912878 802.545723c-9.705462 0-17.621133 7.89722-17.621133 17.639584 0 9.705462 7.89722 17.602681 17.621133 17.602681 9.723913 0 17.621133-7.89722 17.621133-17.602681C604.534011 810.442943 596.636791 802.545723 586.912878 802.545723zM586.912878 829.964575c-5.387823 0-9.779267-4.391445-9.779267-9.779267 0-5.424726 4.372993-9.797719 9.779267-9.797719 5.406274 0 9.797719 4.372993 9.797719 9.797719C596.729048 825.57313 592.337604 829.964575 586.912878 829.964575z" fill="#C63232" /><path d="M372.58086 295.296971c-11.735121 0-21.274519 9.55785-21.274519 21.311422 0 11.753572 9.539399 21.256068 21.274519 21.256068 11.735121 0 21.274519-9.520947 21.274519-21.256068C393.873831 304.854821 384.315981 295.296971 372.58086 295.296971zM372.58086 328.435771c-6.513361 0-11.808927-5.295566-11.808927-11.827378s5.295566-11.827378 11.808927-11.827378c6.531813 0 11.84583 5.314017 11.84583 11.827378S379.112673 328.435771 372.58086 328.435771z" fill="#C63232" /><path d="M750.706381 514.721589l0 343.916536 12.934465-12.805305L410.221814 845.83282l12.916013 12.805305L423.137827 345.946195l-12.916013 12.805305 353.419032 0-12.934465-12.805305 0 57.679226c0 7.085356 5.775303 12.805305 12.934465 12.805305s12.934465-5.7384 12.934465-12.805305l0-57.679226c0-7.085356-5.793755-12.823756-12.934465-12.823756L410.221814 333.122439c-7.159162 0-12.934465 5.756852-12.934465 12.823756l0 512.673478c0 7.103807 5.775303 12.823756 12.934465 12.823756l353.419032 0c7.14071 0 12.934465-5.7384 12.934465-12.823756L776.57531 514.721589c0-7.085356-5.793755-12.805305-12.934465-12.805305S750.706381 507.636233 750.706381 514.721589z" fill="#BB3332" /><path d="M750.706381 445.270339l0 19.24486c0 7.066905 5.775303 12.786853 12.934465 12.786853s12.934465-5.7384 12.934465-12.786853l0-19.24486c0-7.085356-5.793755-12.805305-12.934465-12.805305S750.706381 438.184983 750.706381 445.270339z" fill="#BB3332" /><path d="M504.084329 418.036002l19.392472 0c7.14071 0 12.934465-5.7384 12.934465-12.823756 0-7.048453-5.775303-12.805305-12.934465-12.805305l-19.392472 0c-7.14071 0-12.934465 5.756852-12.934465 12.805305C491.131413 412.316053 496.943619 418.036002 504.084329 418.036002z" fill="#BB3332" /><path d="M568.719751 418.036002l116.35483 0c7.14071 0 12.934465-5.7384 12.934465-12.823756 0-7.048453-5.793755-12.805305-12.934465-12.805305l-116.35483 0c-7.14071 0-12.934465 5.756852-12.934465 12.805305C555.785286 412.316053 561.57904 418.036002 568.719751 418.036002z" fill="#BB3332" /><path d="M414.244229 794.556246l345.355749 0c7.14071 0 12.934465-5.756852 12.934465-12.805305 0-7.103807-5.775303-12.823756-12.934465-12.823756L414.244229 768.927185c-7.14071 0-12.916013 5.7384-12.916013 12.823756C401.328216 788.799395 407.103519 794.556246 414.244229 794.556246z" fill="#BB3332" /></svg>