<svg xmlns="http://www.w3.org/2000/svg" viewBox="0 0 1024 1024" width="200" height="200"><path d="M505 2l19.3 0.2 9.1 0.3 13 0.7c5.339 0.826 10.726 0.477 15.8 1.3 8.587 1.391 17.1 1.522 25.2 3.1 9.807 1.91 19.486 2.838 28.705 5.1 10.179 2.5 20.1 4.1 29.806 7 24.787 7.4 48.178 15.135 70.414 24.8a491.263 491.263 0 0 1 86.517 48.4c9.082 6.382 17.744 13.267 26.5 19.9 7.845 5.94 14.891 12.676 22.5 18.8l9.5 8.9 7.1 6.8a81.662 81.662 0 0 1 11.2 11.3l12.8 13.6c8.49 10.543 17.69 20.511 25.9 31.4 27.6 36.581 49.9 76.226 68.513 122 8.992 22.108 15.817 45.865 22.107 70.8 2.65 10.513 4.24 21.433 6.4 32.4 2.43 12.364 2.74 25.292 4.8 38.3l0.9 13.6 0.9 19V519q-0.105 6-0.2 12c-0.13 2.933-0.27 5.867-0.4 8.8q-0.945 12.249-1.9 24.5l-1.5 13.1c-1.94 10.547-2.77 21.133-5 31.3-7.64 34.765-16.161 66.865-28.707 96.5-14.983 35.388-32.324 68.03-53.111 97.6-7 9.961-14.384 19.566-21.8 29.1l-9.9 11.7c-4.989 6.269-10.895 11.7-15.9 17.9l-6.8 6.9a57.692 57.692 0 0 1-8.3 8.3c-3.59 2.9-6.483 6.68-10.1 9.6-5.754 4.642-10.781 10.288-16.6 14.9-11.287 8.939-22.353 18.188-34.207 26.6-45.335 32.173-96.364 57.117-156.231 75-19.6 5.85-40.259 9.2-61.812 13.4l-26.205 3.3-23.5 1.8c-2.933 0.13-5.868 0.27-8.8 0.4l-12 0.3q-7-0.045-14-0.1c-2.934-0.07-5.868-0.13-8.8-0.2q-6-0.195-12-0.4l-9.5-0.6c-7.957-1.24-16.261-1.08-23.9-2.4l-16.3-2.1c-12.961-2.55-25.8-4.18-38.108-7.3-18.284-4.64-36.405-8.935-53.11-15.4-14.828-5.738-29.091-11.317-43.109-17.5-35.469-15.644-67.384-35.684-96.618-57.7-9.635-7.256-18.481-15.416-27.806-22.9-5.265-4.226-9.772-9.278-15-13.5l-5.2-5.2a81.662 81.662 0 0 1-11.2-11.3l-6.7-6.9c-5.385-6.667-11.556-12.641-16.9-19.4-13.2-16.686-26.614-33.323-38.207-51.7a566.761 566.761 0 0 1-47.509-94.1c-5.454-13.737-9.576-28.018-14-42.8-2.955-9.867-5.019-20.128-7.6-30.6-2.169-8.794-3.261-17.964-5.1-27.3-2.245-11.394-2.588-23.619-4.5-35.7l-1-13.6-0.822-19V505l0.1-5.3 0.2-9.1c1.127-7.346 0.389-15.118 1.5-22.2l0.7-8.7 3.2-25.2 4.7-26.2c5.739-23.254 10.52-45.842 18.6-66.7 3.595-9.275 6.874-18.586 10.7-27.6l11.1-24.5a232.349 232.349 0 0 1 12-22.9c8.524-14.574 16.627-28.926 26.105-42.4 6.514-9.261 13.043-18.263 19.8-27.2l15.6-18.9 15.7-17.3 5.2-5.2a81.67 81.67 0 0 1 11.3-11.2c4.5-3.636 8.256-8.241 12.8-11.9 8.677-6.983 16.656-14.924 25.6-21.7 12.829-9.714 25.8-19.491 39.608-28.2 10.4-6.559 21.147-12.618 31.906-18.9 22.974-13.413 48.877-23.157 75.115-33.3l14.2-4.6c12.408-3.914 25.42-7.375 38.607-10.7l25.4-5.2L447.387 6c8.885-1.573 18.156-1.287 27.306-2.7l11.4-0.7z m95.218 191.4l-11 0.2-7.6 0.1-16.7 0.8-19 1.5c-2.559 0.434-5.65 0.212-8.4 0.8-3.374 0.72-6.974 0.7-10.6 1.4-6.805 1.316-13.959 2.1-20.4 3.5l-9.6 1.6c-5.793 1.622-12.108 2.506-18 4.3-9.577 2.915-19.431 5.869-28.306 9.3l-5.7 1.8c-11.188 5.266-22.437 9.875-32.807 15.9-30.007 17.435-54.193 41.743-70.013 73.4a138.51 138.51 0 0 0-11.6 33c-0.9 4.158-0.776 8.021-1.5 12.6a62.567 62.567 0 0 0 0.2 17.7l0.1 3.5c0.448 2.251 0.756 5.066 1.4 7.5 4.4 16.6 11.186 29.1 21.105 40 8.466 9.3 24 18.759 38.507 21.9 31.74 6.872 62.858-3.464 83.116-15.4 56.624-33.363 95.068-87.621 116.623-156 3.641-11.55 6.52-24.053 9.2-36.8 1.326-6.3 1.315-12.047 2.4-18.7l1.1-11.2 0.1-4.9a26.557 26.557 0 0 0 0.1-7.6l-0.3-0.1z m56.711 135.2c-2.237 0.877-5.1 0.144-7.7 0.7-5.2 1.11-10.413 2.095-15.3 3.5-16.441 4.724-31.786 16.63-40.808 28.9-7.23 9.832-11.968 21.622-14.7 36-3.087 16.228 0.8 38.447 5.6 50.2 2.031 4.968 3.168 9.94 5.7 14.3 2.65 4.561 4.217 9.461 7 13.8 4.757 7.413 9.54 14.6 14.5 21.7a106 106 0 0 0 10.6 12.2c7.323 7.618 13.952 15.355 22.4 21.9l8.9 7.7c18.034 13.233 36.812 25.564 58.511 35.2 4.546 2.018 9.28 4.647 14 6.4a476.781 476.781 0 0 0 45.409 14.6c10.308 2.7 21.056 3.538 32.006 5.7l6 0.4a95.167 95.167 0 0 0 14.4 1.1c1.487 0.034 7.028 0.442 7.6-0.3v-2.1c-0.643-0.294-0.493-5.159-0.5-6.4l-0.4-18.9-1.3-21c-0.856-5.323-0.55-10.941-1.5-16.5-2.547-14.9-3.77-30.041-7.3-44-2.222-8.784-4.388-17.936-7.1-26.1-0.755-2.272-0.821-4.158-1.6-6.4-15.914-45.784-38.372-80.829-74.315-106.6a153.766 153.766 0 0 0-45.909-22.3c-5.117-1.544-10.71-2.108-16.2-3.1-5.58-1.01-11.753-0.581-17.995-0.6zM193.838 421a1.066 1.066 0 0 0-0.4 0.4l0.1 8.2c0.05 6.854-0.428 14.52 0.6 20.8l1.1 19.9c0.836 4.957 0.52 10.224 1.4 15.4 2.039 11.987 3.086 24.452 5.7 35.7l0.9 5.8c3.344 11.981 5.654 24 9.4 35.5a248.775 248.775 0 0 0 16.6 38.9c1.867 3.513 3.267 7.188 5.4 10.5l5.6 8.4c4.1 6.6 8.785 12.251 13.2 18.4l5.1 5.5a54.355 54.355 0 0 0 7.6 8.1c6.051 4.912 11.469 10.775 18 15.2l12.2 8.1 6 3.2a79.633 79.633 0 0 0 13 6.4 160.925 160.925 0 0 0 26.706 8.4c3.645 0.777 6.863 0.492 10.8 1.2a61.147 61.147 0 0 0 18.2-0.1c4.328-0.722 8.013-0.566 11.9-1.7 6.827-1.99 14.884-4.043 20.4-7.4a166.4 166.4 0 0 0 18-12.7 45.871 45.871 0 0 0 7.1-7.9 108.425 108.425 0 0 0 6.9-9.6c8.96-14.766 14.152-39.314 9.4-62.3-3.778-18.28-10.642-32.927-18.6-46.8-18.184-31.685-44.566-55.229-74.414-75.3-9.046-6.083-18.582-12.18-29.006-16.8l-8.1-4.3-18.4-8c-4.544-1.526-8.8-3.173-13.1-4.9l-6.5-1.9c-6.187-2.487-13.068-3.459-19.8-5.7-4.931-1.641-10.5-2.422-16-3.6a226.057 226.057 0 0 0-46.986-5z m414.981 156.5l-5.3 0.4c-4.461 0.748-8.881 0.829-13.1 1.9a245.175 245.175 0 0 0-26.5 8.7l-8.1 4.2c-3.428 2-6.915 3.289-10.2 5.4l-11.3 7.3c-5.483 3.545-10.2 8.207-15.3 12.1a109.585 109.585 0 0 0-17.9 16.9l-4 3.9c-2.563 3.174-5.327 6.127-7.8 9.4l-4.1 4.6-10.1 13.7c-5.287 7.326-9.468 15.189-14.2 23.1a256.275 256.275 0 0 0-17.3 34.9c-5.994 14.812-10.661 30.434-15.2 46.8-2.859 10.3-3.729 21.319-5.8 32.3-1.289 6.83-0.369 14.053-1.5 21.1-0.2 1.237-0.243 6.378 0.3 6.8h1.3c0.372-0.817 6.707-0.269 8.2-0.5l6.1-0.1 25.2-1c11.83-1.853 23.98-1.5 35.407-3.6 8.914-1.634 17.64-2.569 26.4-4.4a373.131 373.131 0 0 0 36.808-9.5c60.082-19.153 105.55-54.323 128.025-111.2 2.918-7.386 4.03-15.5 5.8-24l0.4-5.6c2.354-13.156-1.334-31.556-5.2-40.5-1.692-3.913-2.494-7.66-4.6-11.1-15.259-24.877-36.297-41.934-76.44-42z" fill="#000000" /></svg>