<svg xmlns="http://www.w3.org/2000/svg" viewBox="0 0 1024 1024" width="200" height="200"><path d="M886.5 419L513.3 99.7 140.1 419l305.2 342.7L430 924.3h166.6l-23-162.6z" fill="#FFF8FB" /><path d="M596.6 936.3H430c-3.4 0-6.6-1.4-8.8-3.9-2.3-2.5-3.4-5.8-3.1-9.2L433 765.7 131.2 426.9c-2.1-2.4-3.2-5.6-3-8.8 0.2-3.2 1.7-6.2 4.2-8.3L505.5 90.6c4.5-3.8 11.1-3.8 15.6 0l373.2 319.3c2.5 2.1 4 5.1 4.2 8.4 0.2 3.2-0.9 6.4-3.1 8.8L586.2 765.6l22.3 157.1c0.5 3.4-0.5 6.9-2.8 9.5-2.3 2.6-5.6 4.1-9.1 4.1z m-153.5-23.9h139.8l-21.2-149c-0.5-3.5 0.6-7.1 3-9.8L869.3 420l-356-304.6-356.1 304.7 297.1 333.6c2.2 2.5 3.3 5.8 3 9.1l-14.2 149.6z" fill="#1B1C26" /><path d="M491.9 602.8h35.5v151.6h-35.5z" fill="#3FBC74" /><path d="M527.4 766.3h-35.5c-6.6 0-12-5.4-12-12V602.8c0-6.6 5.4-12 12-12h35.5c6.6 0 12 5.4 12 12v151.6c-0.1 6.6-5.4 11.9-12 11.9z m-23.5-23.9h11.5V614.7h-11.5v127.7z" fill="#1B1C26" /><path d="M401.4 364.6a103.4 81.6 0 1 0 206.8 0 103.4 81.6 0 1 0-206.8 0Z" fill="#F94184" /><path d="M504.8 458.2c-63.6 0-115.3-42-115.3-93.6S441.2 271 504.8 271s115.3 42 115.3 93.6-51.7 93.6-115.3 93.6z m0-163.2c-50.4 0-91.4 31.2-91.4 69.6s41 69.6 91.4 69.6 91.4-31.2 91.4-69.6-41-69.6-91.4-69.6z" fill="#1B1C26" /><path d="M503.6 642.5c-74.3 0-138-45.9-165.4-111.5C361.9 340.2 601.8 309.2 667 304.2c8.8-0.7 16.2 6.3 16.2 15.1v140.1c0 101.2-80.4 183.1-179.6 183.1z" fill="#FF608C" /><path d="M503.6 654.5c-77 0-146.3-46.6-176.4-118.8l-1.2-2.9 0.4-3.2c10.6-85.7 63-150.5 155.7-192.6 73.6-33.4 153.2-42.4 184-44.7 7.5-0.5 14.9 2 20.4 7.1 5.5 5.1 8.7 12.4 8.7 19.9v140.1c0 107.6-86 195.1-191.6 195.1zM350.5 529.4c27 61.6 86.8 101.2 153.1 101.2 92.5 0 167.7-76.8 167.7-171.2V319.3c0-1.2-0.6-2-1-2.4-0.5-0.4-1.2-1-2.3-0.8-29.5 2.2-105.7 10.9-175.9 42.7-83.6 37.9-131.1 95.3-141.6 170.6z" fill="#1B1C26" /><path d="M503.6 642.5c74.3 0 138-45.9 165.4-111.5-23.9-192-266.8-222.2-330-226.9-8.1-0.6-15 5.8-15 14v141.3c0 101.2 80.4 183.1 179.6 183.1z" fill="#FCA2C3" /><path d="M503.6 654.5C397.9 654.5 312 567 312 459.4V318.1c0-7.2 3-14.1 8.3-19 5.3-4.9 12.4-7.4 19.5-6.9 30.7 2.2 110 11 183.8 44.2 93.6 42 146.5 107 157.2 193.2 0.3 2.1 0 4.2-0.8 6.1-30.1 72.2-99.4 118.8-176.4 118.8zM337.9 316.1c-0.6 0-1.1 0.3-1.4 0.5-0.3 0.3-0.7 0.8-0.7 1.5v141.3c0 94.4 75.2 171.2 167.7 171.2 66.3 0 126-39.6 153.1-101.2-10.5-75.8-58.6-133.3-142.8-171.2-70.4-31.6-146.4-40-175.8-42.2 0 0.1 0 0.1-0.1 0.1z" fill="#1B1C26" /><path d="M644.3 585.2c-5.8 0-10.9-4.2-11.8-10.2-26-171.1-243.6-203.9-309.6-209.8-6.6-0.6-11.4-6.4-10.8-13 0.6-6.6 6.5-11.4 13-10.8 70.4 6.3 302.5 41.7 331.1 230.1 1 6.5-3.5 12.6-10 13.6-0.7 0-1.3 0.1-1.9 0.1z" fill="#1B1C26" /><path d="M633.3 359.6m-11 0a11 11 0 1 0 22 0 11 11 0 1 0-22 0Z" fill="#FCDB75" /><path d="M617.6 419s2.7 223-172.3 342.7L430 924.3h166.7l-23.1-162.7L886.5 419c-58 13.3-161.6 39.3-268.9 0z" fill="#FFF8FB" /><path d="M596.6 936.3H430c-3.4 0-6.6-1.4-8.8-3.9-2.3-2.5-3.4-5.8-3.1-9.2l15.4-162.7c0.3-3.5 2.2-6.7 5.2-8.7 167.3-114.6 167-330.5 167-332.7 0-3.9 1.9-7.6 5.1-9.9 3.2-2.3 7.3-2.8 11-1.5 100.8 37 198.5 14.3 256.9 0.8l5.1-1.2c5.1-1.1 10.4 1.1 13 5.6 2.6 4.5 2 10.2-1.5 14.1L586.2 765.6l22.3 157.1c0.5 3.4-0.5 6.9-2.8 9.5-2.3 2.6-5.6 4.1-9.1 4.1z m-153.5-23.9h139.8l-21.2-149c-0.5-3.5 0.6-7.1 3-9.8L852 439c-58 12.2-138.2 23-222.9-3.5-3 54.6-24.4 228.3-172.4 332.8l-13.6 144.1z" fill="#1B1C26" /><path d="M406.4 419s-2.7 223 172.3 342.7L594 924.3H427.4l23.1-162.7-313-342.6c58 13.3 161.6 39.3 268.9 0z" fill="#FFF8FB" /><path d="M594 936.3H427.4c-3.5 0-6.8-1.5-9-4.1-2.3-2.6-3.3-6.1-2.8-9.5l22.3-157.1L128.7 427c-3.5-3.9-4.1-9.6-1.5-14.1 2.6-4.5 7.9-6.8 13-5.6l5.1 1.2c58.4 13.6 156.1 36.2 256.9-0.8 3.7-1.4 7.8-0.8 11 1.5s5.1 6 5.1 9.9c0 2.2-0.4 218.1 167.1 332.7 2.9 2 4.8 5.2 5.2 8.7L606 923.2c0.3 3.4-0.8 6.7-3.1 9.2-2.3 2.5-5.5 3.9-8.9 3.9z m-152.9-23.9h139.8l-13.6-144.1c-148-104.5-169.4-278.2-172.4-332.8C310.2 462 230 451.1 172 439l287.3 314.6c2.4 2.6 3.5 6.2 3 9.8l-21.2 149z" fill="#1B1C26" /><path d="M576.5 780.8l-123.9-17.7-5.2 36.6 132.7 18.9z" fill="#FCA2C3" /><path d="M580.1 830.6c-0.6 0-1.1 0-1.7-0.1l-132.6-18.9c-6.5-0.9-11.1-7-10.2-13.5l5.2-36.6c0.4-3.1 2.1-6 4.7-7.9 2.5-1.9 5.8-2.7 8.9-2.3L578.3 769c5.5 0.8 9.7 5.2 10.2 10.7l3.6 37.8c0.3 3.7-1 7.3-3.7 9.8-2.3 2.1-5.3 3.3-8.3 3.3zM461 789.5l105.8 15.1-1.3-13.3-102.7-14.6-1.8 12.8z" fill="#1B1C26" /><path d="M575.4 769.2l-2.9-30.4c-2.6-1.8-5-3.6-7.4-5.4l-110.5 15.7-5.4 38.1 126.2-18z" fill="#FCA2C3" /><path d="M449.2 799.1c-3.2 0-6.2-1.2-8.5-3.5-2.7-2.7-3.9-6.4-3.4-10.1l5.4-38.1c0.7-5.3 4.9-9.4 10.2-10.2l110.5-15.7c3.1-0.4 6.2 0.3 8.7 2.2l2.5 1.8c1.6 1.1 3.1 2.3 4.7 3.4 2.9 2 4.8 5.2 5.2 8.7l2.9 30.4c0.6 6.4-3.9 12.1-10.2 13L451 799c-0.7 0.1-1.2 0.1-1.8 0.1z m16-39.4l-1.9 13.4 99.1-14.1-1.2-13-96 13.7z" fill="#1B1C26" /></svg>