<svg xmlns="http://www.w3.org/2000/svg" viewBox="0 0 1024 1024" width="200" height="200"><path d="M920.512 435.712c0-103.424-88.512-186.88-197.12-186.88-108.544 0-197.12 83.968-197.12 186.88v186.88h199.68c107.52-1.024 194.56-84.48 194.56-186.88z" fill="#EAEAEA" /><path d="M796.16 426.496c0-59.392-26.624-112.64-69.12-148.992 0.512-5.632 1.024-11.264 1.024-16.896a196.672 196.672 0 0 0-197.12-196.096c-108.544 0-197.632 88.064-197.632 196.608 0 2.048 0 3.584 0.448 5.632A187.52 187.52 0 0 0 64.448 435.2 187.968 187.968 0 0 0 245.76 622.592v0.512h361.92v-0.512a196.992 196.992 0 0 0 188.48-196.096z" fill="#F7F7F7" /><path d="M622.08 952.832a5.696 5.696 0 0 1-5.632-5.632v-148.992c0-3.072 2.56-5.632 5.632-5.632 3.008 0 5.568 2.56 5.568 5.632V947.2c-0.512 3.072-2.56 5.632-5.632 5.632z" fill="#D8D8D8" /><path d="M622.08 837.12a4.672 4.672 0 0 1-3.584-1.536l-21.504-21.504a5.568 5.568 0 0 1 0-7.68 5.568 5.568 0 0 1 7.68 0l17.92 17.92 17.92-17.92a5.568 5.568 0 0 1 7.68 0 5.568 5.568 0 0 1 0 7.68l-21.568 21.504c-2.048 1.024-3.072 1.536-4.608 1.536z m21.44 104.448a4.672 4.672 0 0 1-3.584-1.536l-17.92-17.92-17.92 17.92a5.568 5.568 0 0 1-7.68 0 5.568 5.568 0 0 1 0-7.68l21.504-21.504a5.568 5.568 0 0 1 7.68 0l21.504 21.504a5.568 5.568 0 0 1 0 7.68 4.672 4.672 0 0 1-3.584 1.536zM686.528 915.456c-1.024 0-2.048 0-2.56-0.512l-128.96-74.24c-2.56-1.536-3.584-4.608-2.112-7.168 1.6-2.56 4.608-3.584 7.232-2.048l128.96 74.24c2.56 1.536 3.584 4.608 2.112 7.168a6.08 6.08 0 0 1-4.672 2.56z" fill="#D8D8D8" /><path d="M556.48 865.792a4.992 4.992 0 0 1-5.12-4.096 5.888 5.888 0 0 1 3.584-6.656l24.128-6.656-6.656-24.064a5.888 5.888 0 0 1 3.52-6.656c3.072-1.024 5.632 1.024 6.656 3.584l7.68 29.696a5.888 5.888 0 0 1-3.584 6.656l-29.632 7.68c0.448 0 0 0.512-0.576 0.512z m109.632 62.976a4.992 4.992 0 0 1-5.12-4.096l-7.68-29.696a5.888 5.888 0 0 1 3.584-6.656l29.632-7.68c3.072-1.024 5.632 1.024 6.656 3.584a5.888 5.888 0 0 1-3.584 6.656l-24.064 6.656 6.72 24.064a5.888 5.888 0 0 1-3.584 6.656c-2.112 0.512-2.112 0.512-2.56 0.512zM557.504 915.456a5.376 5.376 0 0 1-4.608-2.56c-1.472-2.56-0.448-5.632 2.112-7.168l128.96-74.24c2.56-1.536 5.632-0.512 7.232 2.048 1.472 2.56 0.448 5.632-2.112 7.168l-128.96 74.24c-0.576 0.512-1.6 0.512-2.56 0.512z" fill="#D8D8D8" /><path d="M577.984 928.768h-1.536c-3.008-0.512-4.608-3.584-3.584-6.656l6.656-24.064-24-6.656c-3.072-1.024-4.608-3.584-3.584-6.656 0.96-3.072 3.584-4.608 6.592-3.584l29.696 7.68c3.072 1.024 4.608 3.584 3.584 6.656l-7.68 29.696c-1.536 2.048-3.584 3.584-6.144 3.584z m109.568-63.488h-1.536l-29.632-7.68c-3.136-1.024-4.608-3.584-3.584-6.656l7.68-29.696c0.96-3.072 3.584-4.608 6.656-3.584 3.072 1.024 4.608 3.584 3.584 6.656l-6.656 24.064 24.064 6.656c3.008 1.024 4.544 3.584 3.52 6.656 0.512 2.048-2.048 3.584-4.096 3.584zM387.584 860.16a7.04 7.04 0 0 1-7.168-7.168v-198.656a7.04 7.04 0 0 1 7.168-7.168 7.04 7.04 0 0 1 7.168 7.168v198.656a7.296 7.296 0 0 1-7.168 7.168z" fill="#D8D8D8" /><path d="M387.584 705.024a6.592 6.592 0 0 1-5.12-2.048l-28.736-28.672c-2.56-2.56-2.56-7.168 0-10.24 2.56-2.56 7.168-2.56 10.24 0l23.616 23.552 23.488-23.552c2.56-2.56 7.168-2.56 10.24 0 2.56 2.56 2.56 7.168 0 10.24l-28.608 28.672a6.592 6.592 0 0 1-5.12 2.048zM358.848 844.8a6.592 6.592 0 0 1-5.12-2.048c-2.56-2.56-2.56-7.168 0-10.24l28.736-28.672c2.56-2.56 7.168-2.56 10.24 0l28.608 28.672c2.56 2.56 2.56 7.168 0 10.24-2.56 2.56-7.168 2.56-10.24 0l-23.488-23.552-23.616 23.552a6.592 6.592 0 0 1-5.12 2.048zM473.6 809.984a9.472 9.472 0 0 1-3.648-1.024l-172.032-99.328a6.848 6.848 0 0 1-2.56-9.728 6.848 6.848 0 0 1 9.728-2.56l172.032 99.328a6.848 6.848 0 0 1 2.56 9.728c-1.024 2.56-3.584 3.584-6.144 3.584z" fill="#D8D8D8" /><path d="M300.544 743.424a7.68 7.68 0 0 1-7.168-5.12c-1.024-4.096 1.024-7.68 5.12-8.704l32.256-8.704-8.704-32.256c-1.024-4.096 1.024-7.68 5.12-8.704a7.04 7.04 0 0 1 8.64 5.12l10.752 39.424c1.024 4.096-1.024 7.68-5.12 8.704l-39.36 10.752c-0.512-0.512-1.024-0.512-1.536-0.512z m145.92 83.968a7.68 7.68 0 0 1-7.168-5.12l-10.752-39.424c-1.024-4.096 1.024-7.68 5.12-8.704l39.36-10.752c4.096-1.024 7.68 1.024 8.704 5.12 1.024 4.096-1.024 7.68-5.12 8.704l-32.192 8.704 8.704 32.256c1.024 4.096-1.024 7.68-5.12 8.704-0.512 0.512-1.024 0.512-1.536 0.512zM301.568 809.984a7.104 7.104 0 0 1-6.144-3.584 6.848 6.848 0 0 1 2.56-9.728l172.032-99.328a6.848 6.848 0 0 1 9.664 2.56 6.848 6.848 0 0 1-2.56 9.728L305.152 808.96c-1.024 1.024-2.56 1.024-3.584 1.024z" fill="#D8D8D8" /><path d="M329.216 827.392h-2.048c-3.584-1.024-6.144-5.12-5.12-8.704l8.704-32.256-32.32-8.704c-3.584-1.024-6.144-5.12-5.12-8.704 1.024-3.584 5.12-6.144 8.704-5.12l39.424 10.752c3.584 1.024 6.144 5.12 5.12 8.704l-10.752 39.424c-0.512 2.56-3.584 4.608-6.592 4.608z m145.92-83.968H472.96l-39.36-10.752c-3.584-1.024-6.144-5.12-5.12-8.704l10.752-39.424c1.024-3.584 5.12-6.144 8.704-5.12 3.584 1.024 6.144 5.12 5.12 8.704l-8.704 32.256 32.192 8.704c3.584 1.024 6.144 5.12 5.12 8.704a6.592 6.592 0 0 1-6.656 5.632z" fill="#D8D8D8" /></svg>