<svg xmlns="http://www.w3.org/2000/svg" viewBox="0 0 1024 1024" width="200" height="200"><path d="M511.8194 511.8194m-493.759435 0a493.759436 493.759436 0 1 0 987.518871 0 493.759436 493.759436 0 1 0-987.518871 0Z" fill="#FFFFFF" /><path d="M511.8194 36.119929c127.142152 0 246.699118 49.484303 336.276544 139.422928s139.422928 209.495591 139.422927 336.276543-49.484303 246.699118-139.422927 336.276544-209.495591 139.422928-336.276544 139.422927-246.699118-49.484303-336.276543-139.422927S36.119929 638.961552 36.119929 511.8194s49.484303-246.699118 139.422928-336.276543S384.677249 36.119929 511.8194 36.119929m0-36.119929C229.361552 0 0 229.361552 0 511.8194s229.361552 511.8194 511.8194 511.819401S1024 794.638448 1024 511.8194 794.638448 0 511.8194 0z" fill="#47A935" /><path d="M808.72522 673.997884l-226.833157 78.019047-227.555555-78.380247V318.577778l227.555555 78.380247 226.833157-78.019048v354.697707z" fill="#FFFFFF" /><path d="M581.892063 769.354497c-1.805996 0-3.611993-0.361199-5.417989-1.083598l-227.555555-78.380246c-6.862787-2.528395-11.558377-9.029982-11.558378-16.253969V318.577778c0-5.417989 2.528395-10.835979 7.223986-14.086773 4.695591-3.250794 10.47478-3.973192 15.53157-2.167195l221.776366 76.57425 221.415168-76.213051c5.417989-1.805996 11.197178-1.083598 15.53157 2.167196 4.334392 3.250794 7.223986 8.307584 7.223986 14.086772v355.058907c0 7.223986-4.695591 13.725573-11.558378 16.253968l-227.194356 78.019047c-1.805996 0.722399-3.611993 1.083598-5.41799 1.083598z m-210.217989-107.998589l210.217989 72.601058 209.856791-72.239858V342.778131l-204.438801 70.072663c-3.611993 1.083598-7.585185 1.083598-11.197178 0l-204.438801-70.433863v318.938977z m437.051146 12.641976z" fill="#47A935" /><path d="M693.502646 646.185538l-239.113933 81.99224-239.475133-82.353439V271.983069l239.475133 82.353439L693.502646 272.344268v373.480071z" fill="#FFFFFF" /><path d="M454.388713 746.237743c-2.167196 0-3.973192-0.361199-5.779189-1.083598L209.495591 662.439506c-7.223986-2.528395-12.280776-9.391182-12.280776-16.976367V271.983069c0-5.779189 2.889594-11.197178 7.585185-14.809171 4.695591-3.250794 10.835979-4.334392 16.253968-2.528395l233.334745 80.547442 233.334744-80.186243c5.417989-1.805996 11.558377-1.083598 16.253968 2.528395 4.695591 3.250794 7.585185 9.029982 7.585185 14.809171v373.84127c0 7.585185-5.05679 14.447972-12.280776 16.976367l-239.113933 81.99224c-1.805996 0.722399-3.973192 1.083598-5.779188 1.083598z m-221.415168-113.416579l221.053968 76.213051 221.053968-75.851852V297.628219l-215.274779 73.684656c-3.973192 1.444797-7.946384 1.444797-11.919577 0L232.973545 297.267019v335.554145z m460.529101 13.364374z" fill="#47A935" /><path d="M327.60776 438.134744c-3.250794 0-6.501587-1.444797-8.668783-4.334391l-20.949559-28.895944-14.809171 11.558378c-3.250794 2.528395-7.585185 2.889594-11.558378 1.083597-3.611993-1.805996-6.140388-5.417989-6.140388-9.75238v-108.359789c0-6.140388 4.695591-10.835979 10.835979-10.835979s10.835979 4.695591 10.835979 10.835979v86.326632l6.140388-4.695591c2.167196-1.805996 5.417989-2.528395 8.307584-2.167196 2.889594 0.361199 5.417989 1.805996 7.223986 4.334391l7.946384 11.197179v-75.851852c0-6.140388 4.695591-10.835979 10.835979-10.835979s10.835979 4.695591 10.835979 10.835979v109.082187c0 4.695591-2.889594 8.668783-7.585185 10.474779h-3.250794zM508.207407 476.421869c-3.611993 0-6.862787-2.167196-8.307583-5.779188-1.805996-4.695591 0.361199-9.752381 5.05679-11.919577l123.530158-49.845503c4.695591-1.805996 9.752381 0.361199 11.919577 5.056791 1.805996 4.695591-0.361199 9.752381-5.05679 11.919576l-123.530159 49.845503c-1.444797 0.722399-2.528395 0.722399-3.611993 0.722398zM508.207407 623.791182c-3.611993 0-6.862787-2.167196-8.307583-5.779189-1.805996-4.695591 0.361199-9.752381 5.05679-11.919577L628.486772 556.246914c4.695591-1.805996 9.752381 0.361199 11.919577 5.05679 1.805996 4.695591-0.361199 9.752381-5.05679 11.919576l-123.530159 49.845503c-1.444797 0.722399-2.528395 0.722399-3.611993 0.722399zM508.207407 550.106526c-3.611993 0-6.862787-2.167196-8.307583-5.779189-1.805996-4.695591 0.361199-9.752381 5.05679-11.919577l123.530158-49.845503c4.695591-1.805996 9.752381 0.361199 11.919577 5.056791 1.805996 4.695591-0.361199 9.752381-5.05679 11.919576l-123.530159 49.845503c-1.444797 0.722399-2.528395 0.722399-3.611993 0.722399z" fill="#47A935" /><path d="M415.740388 630.292769c-1.083598 0-1.805996 0-2.889594-0.361199l-139.422928-46.955909c-4.695591-1.444797-7.223986-6.862787-5.779189-11.558377 1.444797-4.695591 6.862787-7.223986 11.558378-5.779189l139.422927 46.955909c4.695591 1.444797 7.223986 6.862787 5.779189 11.558377-1.444797 3.973192-5.05679 6.140388-8.668783 6.140388z" fill="#47A935" /><path d="M415.740388 581.530864c-1.083598 0-1.805996 0-2.889594-0.361199L357.587302 562.748501c-4.695591-1.444797-7.223986-6.862787-5.779189-11.558378s6.862787-7.223986 11.558377-5.779188l54.902293 18.421164c4.695591 1.444797 7.223986 6.862787 5.779189 11.558377-1.083598 3.973192-4.695591 6.140388-8.307584 6.140388z" fill="#47A935" /></svg>