<svg xmlns="http://www.w3.org/2000/svg" viewBox="0 0 1024 1024" width="200" height="200"><path d="M876.8 176h-294.4l-67.2 134.4H137.6v128H16l121.6 409.6h806.4v-672z m-230.4 67.2h227.2v67.2h-259.2z m176 195.2H211.2v-60.8h665.6v244.032z" fill="#7CD8CF" /><path d="M970.816 523.648c-0.192 76.192-0.576 152.384 0 228.576a121.856 121.856 0 0 1-23.296 73.376 352.736 352.736 0 0 1-84.864 80.704 758.656 758.656 0 0 1-106.24 63.04 8.224 8.224 0 0 1-8.288 0.416 643.424 643.424 0 0 1-158.208-105.6 191.232 191.232 0 0 1-51.52-72.512 87.904 87.904 0 0 1-5.216-30.4v-115.2-122.752a7.712 7.712 0 0 1 6.208-8.544q103.68-38.4 207.2-77.376a13.568 13.568 0 0 1 10.432 0q103.584 38.848 207.264 77.28a8.096 8.096 0 0 1 6.528 8.992z" fill="#13645D" /><path d="M986.976 502.912q-115.392-42.752-230.624-85.984a11.424 11.424 0 0 0-8.768 0q-114.944 43.072-230.016 85.792a7.264 7.264 0 0 0-5.504 8.352v247.936a113.248 113.248 0 0 0 7.52 40.8 215.808 215.808 0 0 0 56.736 79.456 658.464 658.464 0 0 0 171.936 112 8.8 8.8 0 0 0 8.512-0.672 755.008 755.008 0 0 0 95.52-52.992 426.048 426.048 0 0 0 103.328-89.024A144.416 144.416 0 0 0 992 757.6v-247.264a6.4 6.4 0 0 0-5.024-7.424z m-48.768 316.8a335.104 335.104 0 0 1-80.832 76.8 722.016 722.016 0 0 1-101.152 60.032 7.872 7.872 0 0 1-7.936 0.416 613.28 613.28 0 0 1-150.656-100.448 182.08 182.08 0 0 1-49.056-69.056 84.32 84.32 0 0 1-4.992-28.96v-109.824-116.864a7.392 7.392 0 0 1 5.92-8.16q98.784-36.64 197.344-73.6a12.8 12.8 0 0 1 9.952 0q98.592 36.96 197.376 73.6a7.68 7.68 0 0 1 6.176 8.608c-0.192 72.544-0.512 145.12 0 217.6a115.808 115.808 0 0 1-22.144 69.792z" fill="#004D40" /><path d="M788.544 576a82.368 82.368 0 0 0-6.4 30.016c0 1.152-1.216 2.464-2.176 3.456a20.512 20.512 0 0 0 17.92 34.528 73.6 73.6 0 0 1 46.912-108.8 75.232 75.232 0 0 1 92.384 58.144 72.64 72.64 0 0 1-52.896 83.584l-2.4-12.256a60.448 60.448 0 0 0 33.824-89.888 62.976 62.976 0 0 0-87.84-17.952 58.88 58.88 0 0 0-17.536 80.96 19.52 19.52 0 0 0-1.216-29.28 5.696 5.696 0 0 1-2.432-5.824l2.528-14.432 1.344-0.448c3.648 3.84 7.584 7.424 10.88 11.52a71.136 71.136 0 0 1-90.784 105.312 4.768 4.768 0 0 0-5.984 0A8.096 8.096 0 0 1 713.6 704a26.944 26.944 0 0 0-2.464-1.568 7.104 7.104 0 0 0-10.976 3.584c-1.664 4.384-3.2 8.8-4.96 13.184a5.728 5.728 0 0 1-8 3.808c-5.472-1.888-10.944-3.808-16.416-5.632a10.72 10.72 0 0 0-11.392 6.976c-0.416 2.976-0.96 5.92-1.408 8.896-0.608 4.32-2.912 5.984-7.488 5.888a30.528 30.528 0 0 0-8.192 0.704c-4.704 1.152-6.048 5.344-7.36 9.184-2.112 6.112-5.632 7.168-11.296 6.72a15.168 15.168 0 0 0-7.232 1.568c-4 1.856-7.648 4.384-11.616 6.4a7.136 7.136 0 0 1-4.736 0.48c-9.6-2.88-19.04-5.984-28.544-9.024-5.408-1.728-6.592-3.392-5.632-8.768 1.28-7.328 2.752-14.624 4.096-21.952a13.664 13.664 0 0 1 7.328-9.824q56.448-31.776 112.8-63.648a5.12 5.12 0 0 0 3.2-5.6 71.36 71.36 0 0 1 91.488-70.912c1.056 0.384 2.4 0.896 3.744 1.536z m-90.4 92.8l-3.712 1.984-37.12 21.024L590.72 729.6c-3.712 2.08-4.224 3.552-2.56 6.592 2.016 3.584 3.616 4 7.488 1.824L672 694.88l30.56-17.248z" fill="#FFFFFF" /><path d="M743.36 719.168a82.848 82.848 0 0 0 78.848-19.84 78.208 78.208 0 0 0 23.648-75.008 70.08 70.08 0 0 1-31.2 127.808 19.2 19.2 0 0 1-4.064 0.32 9.184 9.184 0 0 0-10.464 5.76c-0.576 1.344-3.2 2.208-5.088 2.688a21.408 21.408 0 0 1-5.536 0 7.008 7.008 0 0 0-7.968 9.024c0.736 4.256 1.536 8.512 2.24 12.8 0.8 4.736-0.896 7.008-5.632 7.84l-16.384 2.944a10.944 10.944 0 0 0-6.4 11.232l3.584 9.056c1.568 3.936 0.48 6.4-3.2 8.48a34.176 34.176 0 0 0-7.168 5.184c-4 4-1.6 8.896-1.152 13.408a6.4 6.4 0 0 1-3.808 7.392 17.632 17.632 0 0 0-10.688 10.656 17.856 17.856 0 0 1-16.544 11.776 201.6 201.6 0 0 0-20.64 4.192c-6.144 1.312-7.968 0.32-10.048-5.44-2.368-6.4-4.576-13.184-7.072-19.712a13.888 13.888 0 0 1 1.248-13.024c21.536-36.448 42.912-72.96 64.448-109.376 1.28-2.784 2.624-5.12-0.96-8.16z m17.664 18.848l-0.576 0.448q-31.104 52.736-62.176 105.6a3.904 3.904 0 0 0 1.6 6.08c3.552 2.144 5.312 1.632 7.648-2.336l59.744-101.568c0.544-0.896 1.024-1.888 1.568-2.88z" fill="#FFFFFF" /></svg>