<svg xmlns="http://www.w3.org/2000/svg" viewBox="0 0 1024 1024" width="200" height="200"><path d="M639.007752 746.170543H384.992248a7.937984 7.937984 0 0 1-7.937984-7.937985v-16.447504c0-33.799938-14.193116-64.599318-38.943752-84.476031-75.569612-60.693829-113.608434-154.74307-101.796714-251.538852 15.352062-125.626543 117.847318-227.010481 243.696124-241.092466 80.364155-8.985798 157.426109 15.494946 217.151504 68.901706A278.258109 278.258109 0 0 1 789.829457 420.713178 276.686388 276.686388 0 0 1 686.635659 636.705736c-25.226915 20.40062-39.689922 51.390512-39.689923 85.015814V738.232558a7.937984 7.937984 0 0 1-7.937984 7.937985z m-246.077519-15.875969h238.139534v-8.557148c0-38.435721 16.62214-73.934388 45.579907-97.367317A260.92155 260.92155 0 0 0 773.953488 420.713178c0-74.442419-31.847194-145.630264-87.381333-195.30617-56.296186-50.358574-129.135132-73.426357-204.784124-64.948589-118.641116 13.256434-215.262264 108.829767-229.725271 227.232744-11.14493 91.318574 24.750636 180.001736 96.001984 237.25048 28.51324 22.909023 44.865488 58.217178 44.865489 96.859287v8.493644z" fill="#263238" /><path d="M519.937984 976.372093h-15.875968a119.069767 119.069767 0 0 1-119.069768-119.069767V738.232558h254.015504v119.069768a119.069767 119.069767 0 0 1-119.069768 119.069767z" fill="#FFD740" /><path d="M519.937984 984.310078h-15.875968c-70.028899 0-127.007752-56.978853-127.007752-127.007752V738.232558a7.937984 7.937984 0 0 1 7.937984-7.937984h254.015504a7.937984 7.937984 0 0 1 7.937984 7.937984v119.069768c0 70.028899-56.978853 127.007752-127.007752 127.007752z m-127.007751-238.139535v111.131783c0 61.28124 49.866419 111.131783 111.131783 111.131783h15.875968c61.265364 0 111.131783-49.850543 111.131783-111.131783v-111.131783h-238.139534z" fill="#263238" /><path d="M639.007752 809.674419H384.992248a7.937984 7.937984 0 0 1 0-15.875969h254.015504a7.937984 7.937984 0 0 1 0 15.875969zM639.007752 873.178295H384.992248a7.937984 7.937984 0 0 1 0-15.875969h254.015504a7.937984 7.937984 0 0 1 0 15.875969zM513.984496 111.131783a7.937984 7.937984 0 0 1-7.937984-7.937985V7.937984a7.937984 7.937984 0 0 1 15.875969 0v95.255814a7.937984 7.937984 0 0 1-7.937985 7.937985zM194.48062 428.651163H99.224806a7.937984 7.937984 0 0 1 0-15.875969h95.255814a7.937984 7.937984 0 0 1 0 15.875969zM924.775194 428.651163h-95.255814a7.937984 7.937984 0 0 1 0-15.875969h95.255814a7.937984 7.937984 0 0 1 0 15.875969zM220.12031 720.530853a7.937984 7.937984 0 0 1-5.620093-13.542202l67.345861-67.361736a7.937984 7.937984 0 0 1 11.22431 11.22431l-67.345861 67.361736a7.906233 7.906233 0 0 1-5.604217 2.317892zM736.533829 204.133209a7.937984 7.937984 0 0 1-5.620093-13.542201l67.345861-67.361737a7.937984 7.937984 0 0 1 11.22431 11.22431l-67.34586 67.361737a7.937984 7.937984 0 0 1-5.604218 2.317891zM803.87969 720.530853a7.969736 7.969736 0 0 1-5.620093-2.317892l-67.345861-67.361736a7.937984 7.937984 0 0 1 11.224311-11.22431l67.34586 67.361736a7.937984 7.937984 0 0 1-5.604217 13.542202zM287.466171 204.133209a7.969736 7.969736 0 0 1-5.620093-2.317891l-67.345861-67.361737a7.937984 7.937984 0 0 1 11.22431-11.22431l67.345861 67.361737a7.937984 7.937984 0 0 1-5.604217 13.542201zM972.403101 428.651163h-15.875969a7.937984 7.937984 0 0 1 0-15.875969h15.875969a7.937984 7.937984 0 0 1 0 15.875969zM67.472868 428.651163H51.596899a7.937984 7.937984 0 0 1 0-15.875969h15.875969a7.937984 7.937984 0 0 1 0 15.875969z" fill="#263238" /><path d="M512 420.713178m-142.883721 0a142.883721 142.883721 0 1 0 285.767442 0 142.883721 142.883721 0 1 0-285.767442 0Z" fill="#FFD740" /><path d="M512 571.534884c-83.158326 0-150.821705-67.66338-150.821705-150.821706s67.66338-150.821705 150.821705-150.821705 150.821705 67.66338 150.821705 150.821705-67.66338 150.821705-150.821705 150.821706z m0-285.767442c-74.410667 0-134.945736 60.53507-134.945736 134.945736s60.53507 134.945736 134.945736 134.945737 134.945736-60.53507 134.945736-134.945737-60.53507-134.945736-134.945736-134.945736z" fill="#263238" /><path d="M523.319566 484.217054h-51.596899a7.937984 7.937984 0 0 1 0-15.875969h51.596899c10.938543 0 19.844961-8.906419 19.844961-19.844961s-8.906419-19.844961-19.844961-19.844961h-23.813954c-19.686202 0-35.72093-16.018853-35.72093-35.72093s16.034729-35.72093 35.72093-35.720931h43.658915a7.937984 7.937984 0 0 1 0 15.875969h-43.658915c-10.938543 0-19.844961 8.906419-19.844961 19.844962s8.906419 19.844961 19.844961 19.844961h23.813954c19.686202 0 35.72093 16.018853 35.72093 35.72093S543.005767 484.217054 523.319566 484.217054z" fill="#263238" /><path d="M511.412589 373.085271a7.937984 7.937984 0 0 1-7.937984-7.937984V341.333333a7.937984 7.937984 0 0 1 15.875969 0v23.813954a7.937984 7.937984 0 0 1-7.937985 7.937984z" fill="#263238" /><path d="M511.412589 508.031008a7.937984 7.937984 0 0 1-7.937984-7.937985v-23.813953a7.937984 7.937984 0 0 1 15.875969 0V500.093023a7.937984 7.937984 0 0 1-7.937985 7.937985z" fill="#263238" /></svg>