<svg xmlns="http://www.w3.org/2000/svg" viewBox="0 0 1024 1024" width="200" height="200"><path d="M413.5 629.7c-1.1-6.2-7.1-10.3-13.1-9.1-6.2 1.1-10.3 7-9.1 13.1l47.6 262.8c0.9 4.7 4.5 8.2 9 9.1 1.4 0.2 2.8 0.3 4.2 0 6.2-1.1 10.3-7 9.1-13.1l-47.7-262.8zM563.1 892.5c-1.1 6.2 3 12.1 9.1 13.1 1.4 0.2 2.8 0.2 4.2 0 4.5-0.9 8.1-4.4 9-9.1L633 633.8c1.1-6.2-3-12.1-9.1-13.1-6.2-1.1-12.1 3-13.1 9.1l-47.7 262.7z" fill="#2F9B77" /><path d="M598.4 982H425.7c-23.3 0-42.3-18.9-42.3-42.3v-79.9c0-16.7 13.5-30.1 30.1-30.1h196.9c16.7 0 30.1 13.5 30.1 30.1v79.9c0.2 23.4-18.7 42.3-42.1 42.3z" fill="#F2B843" /><path d="M523.4 919.1v-27h40.5c6.3 0 11.3-5 11.3-11.3 0-5.1-3.3-9.4-8-10.8-1.1-0.3-2.2-0.5-3.3-0.5h-40.5v-39.7h-22.6v39.7H459v-39.7h-22.6v39.7h-52.6v22.6h52.6V982H459v-40.3h181.7v-22.6H523.4z m-22.7 0H459v-27h41.8l-0.1 27z" fill="#EA800C" /><path d="M797.3 417.9c-15.1 54-45.1 101.8-85.3 138.6-40.2 36.7-63.1 88.7-63.1 143 0 5.3-2.1 10.1-5.6 13.5-3.5 3.5-8.2 5.6-13.5 5.6H394.2c-5.2 0-10-2.1-13.6-5.6-3.4-3.4-5.7-8.2-5.7-13.6 0-54.4-22.8-106.2-62.8-142.8-40.3-36.9-70.4-84.7-85.5-138.8h187.6c-3.2-27.8-4.9-57.4-4.9-88.1 0-37.1 2.5-72.6 7.1-105.1H238.5C283.3 117.5 389.4 42 512.1 42h4.5c121.5 1.8 225.1 76.7 269.1 182.6h-178c4.6 32.6 7.1 68 7.1 105.1 0 30.7-1.7 60.3-4.9 88.1l187.4 0.1z" fill="#3DC38A" /><path d="M614.7 329.8c0 30.7-1.7 60.3-4.9 88.1-6 52.5-17.3 98.4-32.1 133-16.2 38-25.1 78.7-25.1 120.1v47.7h-81.2V671c0-41.3-8.9-82.1-25.1-120.1-14.7-34.5-26-80.5-32-133-3.2-27.8-4.9-57.4-4.9-88.1 0-37.1 2.5-72.6 7.1-105.1C431.4 117.7 468.6 42 512.1 42c28.4 0 54 32.2 72.6 84.3 9.9 27.8 17.8 61.2 23 98.4 4.5 32.5 7 68 7 105.1z" fill="#2F9B77" /><path d="M808.2 338.1c0 27.6-3.8 54.4-10.9 79.8H226.7c-7.2-25.9-11-53.2-10.9-81.4 0.2-39.6 8.3-77.4 22.7-111.8h547.1c14.6 34.9 22.6 73.2 22.6 113.4z" fill="#F2B843" /><path d="M614.7 329.8c0 30.7-1.7 60.3-4.9 88.1H414.3c-3.2-27.8-4.9-57.4-4.9-88.1 0-37.1 2.5-72.6 7.1-105.1h191.2c4.5 32.5 7 68 7 105.1z" fill="#EA800C" /><path d="M459 929.1h41.8c5.5 0 10-4.5 10-10v-27c0-5.5-4.5-10-10-10H459c-5.5 0-10 4.5-10 10v27c0 5.5 4.5 10 10 10z m10-27h21.8v7H469v-7z" fill="#4D3500" /><path d="M794.9 220.8C748 107.9 638.8 33.8 516.7 32h-4.6c-61.4 0-120.8 18.3-171.6 52.9-49.7 33.8-88.2 80.8-111.3 135.9-15.4 36.7-23.3 75.6-23.5 115.6-0.1 28.6 3.7 56.9 11.3 84.1 15.3 55 45.9 104.6 88.4 143.5 37.8 34.6 59.6 84 59.6 135.4 0 7.8 3.1 15.1 8.6 20.7l0.1 0.1c5.6 5.4 12.9 8.4 20.6 8.4h3.9l16.5 91.1h-1.1c-22.1 0-40.1 18-40.1 40.1v79.9c0 28.8 23.5 52.3 52.3 52.3H598.4c14.1 0 27.2-5.5 37.1-15.4 8.7-8.8 13.9-20.1 14.8-32.2 0.2-0.9 0.4-1.8 0.4-2.7v-22.6c0-0.7-0.1-1.4-0.2-2v-57.3c0-22.1-18-40.1-40.1-40.1h-0.9l16.5-91.1h3.8c7.7 0 15-3 20.5-8.5 5.5-5.4 8.6-12.7 8.6-20.6 0-51.5 21.8-100.9 59.9-135.6 42.3-38.7 72.8-88.3 88.2-143.3 7.5-26.8 11.3-54.5 11.3-82.5-0.1-40.6-7.9-80.1-23.4-117.3z m-24.6-6.2h-154c-5.2-33.8-12.6-64.9-22.2-91.7-10.4-29.3-22.9-52-36.8-67.4 92.2 14.7 172.2 73.8 213 159.1zM604.7 329.8c0 26.8-1.3 53-3.9 78.1H423.2c-2.6-25.1-3.9-51.3-3.9-78.1 0-33 2-65.1 5.8-95.2h173.8c3.8 30.1 5.8 62.2 5.8 95.2zM458.1 819.7l-16.5-91.1h28.5c0.4 0.1 0.9 0.1 1.3 0.1h81.2c0.5 0 0.9 0 1.3-0.1h28.6L566 819.7H458.1z m10.9 20h21.8v19.8H469v-19.8z m73.6-131.1h-61.2V671c0-42-8.7-83.7-25.9-124-13.7-32.2-23.9-73.3-30-119.1h173c-6 45.9-16.3 87.1-30 119.1-17.2 40.3-25.9 82-25.9 124v37.6zM428 214.6c5-31.3 12-60.1 20.9-85C466.5 80.3 489.5 52 512.1 52c22.5 0 45.6 28.3 63.1 77.6 8.9 24.9 15.9 53.7 20.8 85H428z m-76.3-113.2c34.9-23.7 74.1-39.2 115.1-45.8-13.9 15.4-26.3 38.1-36.8 67.3-9.6 26.8-17.1 57.9-22.3 91.7H253.9c22-45.6 55.5-84.5 97.8-113.2zM245.1 234.6H405c-3.7 30.2-5.7 62.3-5.7 95.2 0 26.7 1.3 52.9 3.8 78.1H237.4c-1 0-2 0.2-2.9 0.4-5.9-23.4-8.8-47.5-8.8-71.9 0.2-35.1 6.7-69.3 19.4-101.8z m142.5 471.3c-1-1.1-2.7-3.3-2.7-6.5 0-57-24.1-111.8-66-150.2-36.4-33.3-63.4-75.1-78.7-121.3h165.3c6.2 48.7 17.1 92.6 31.7 126.9 16.1 37.8 24.3 76.9 24.3 116.2v37.6h-67.2c-2.5 0-4.8-1-6.7-2.7z m30.9 22.7h2.8l16.5 91.1H435l-16.5-91.1z m-5 111.1h12.9v19.8h-33c0.2-10.9 9.1-19.8 20.1-19.8z m-20.1 100v-37.6h33V972h-0.7c-17.8 0-32.3-14.5-32.3-32.3z m53 32.3v-79.9c0-5.5-4.5-10-10-10h-42.6v-2.6h42.6c5.5 0 10-4.5 10-10v-29.7h2.6v29.7c0 5.5 4.5 10 10 10h41.8c5.5 0 10-4.5 10-10v-29.7h2.6v29.7c0 5.5 4.5 10 10 10h40.5s0.2 0 0.5 0.1 0.8 0.4 0.8 1.2c0 0.8-0.5 1.3-1.3 1.3h-40.5c-5.5 0-10 4.5-10 10v27c0 5.5 4.5 10 10 10h107.1v2.6H459c-5.5 0-10 4.5-10 10V972h-2.6z m152 0H469v-20.3h159.3c-1.6 4-3.9 7.7-7 10.8-6.1 6.1-14.2 9.5-22.9 9.5z m32.1-112.2v49.3h-97.1v-7h30.5c11.7 0 21.3-9.6 21.3-21.3 0-9.5-6.1-17.7-15.1-20.4-0.1 0-0.2 0-0.2-0.1-2.1-0.6-4-0.9-5.9-0.9h-30.5v-19.8h77c11 0.1 20 9.1 20 20.2z m-41.4-40.1h-2.8l16.5-91.1h2.8l-16.5 91.1z m116.2-270.6c-42.2 38.5-66.4 93.3-66.4 150.4 0 2.5-0.9 4.7-2.6 6.3l-0.1 0.1c-1.2 1.2-3.3 2.7-6.4 2.7h-67.2V671c0-39.3 8.2-78.4 24.3-116.2 14.7-34.2 25.5-78.1 31.7-126.9h165.2c-15.3 46.3-42.3 88-78.5 121.2z m84.1-140.4c-1.2-0.5-2.5-0.8-3.8-0.8H620.9c2.5-25.2 3.8-51.4 3.8-78.1 0-32.9-1.9-64.9-5.7-95.2h159.9c12.8 33 19.3 67.8 19.3 103.5 0 23.9-3 47.6-8.8 70.6z" fill="#4D3500" /></svg>