<svg xmlns="http://www.w3.org/2000/svg" viewBox="0 0 1024 1024" width="200" height="200"><path d="M1006.933333 409.6h-68.266666c-10.24 0-17.066667-6.826667-17.066667-17.066667s6.826667-17.066667 17.066667-17.066666h68.266666c10.24 0 17.066667 6.826667 17.066667 17.066666s-6.826667 17.066667-17.066667 17.066667zM849.92 191.146667c-3.413333 0-10.24 0-13.653333-3.413334-6.826667-6.826667-6.826667-17.066667 0-23.893333l47.786666-47.786667c6.826667-6.826667 17.066667-6.826667 23.893334 0s6.826667 17.066667 0 23.893334l-47.786667 47.786666c-3.413333 3.413333-6.826667 3.413333-10.24 3.413334zM631.466667 102.4c-10.24 0-17.066667-6.826667-17.066667-17.066667v-68.266666c0-10.24 6.826667-17.066667 17.066667-17.066667s17.066667 6.826667 17.066666 17.066667v68.266666c0 10.24-6.826667 17.066667-17.066666 17.066667zM413.013333 191.146667c-3.413333 0-10.24 0-13.653333-3.413334l-47.786667-47.786666c-6.826667-6.826667-6.826667-17.066667 0-23.893334s17.066667-6.826667 23.893334 0l47.786666 47.786667c6.826667 6.826667 6.826667 17.066667 0 23.893333 0 3.413333-3.413333 3.413333-10.24 3.413334z" fill="#000000" /><path d="M791.893333 853.333333c-10.24 0-17.066667-6.826667-17.066666-17.066666s6.826667-17.066667 17.066666-17.066667h3.413334c109.226667-6.826667 194.56-95.573333 194.56-204.8 0-112.64-92.16-204.8-204.8-204.8-20.48 0-40.96 3.413333-58.026667 10.24-6.826667 3.413333-17.066667 0-20.48-10.24-47.786667-102.4-146.773333-170.666667-259.413333-170.666667-143.36 0-262.826667 109.226667-283.306667 252.586667 0 6.826667-6.826667 13.653333-13.653333 13.653333-68.266667 17.066667-119.466667 81.92-119.466667 153.6C34.133333 747.52 102.4 819.2 187.733333 819.2c10.24 0 17.066667 6.826667 17.066667 17.066667s-6.826667 17.066667-17.066667 17.066666c-102.4 0-187.733333-85.333333-187.733333-191.146666 0-85.333333 54.613333-160.426667 133.12-184.32 23.893333-157.013333 157.013333-273.066667 314.026667-273.066667 119.466667 0 228.693333 68.266667 283.306666 177.493333 17.066667-3.413333 37.546667-6.826667 54.613334-6.826666 133.12 0 238.933333 105.813333 238.933333 238.933333 0 126.293333-98.986667 232.106667-225.28 238.933333h-6.826667z" fill="#000000" /><path d="M866.986667 426.666667h-3.413334c-44.373333-17.066667-92.16-20.48-136.533333-6.826667-6.826667 3.413333-17.066667 0-20.48-10.24-44.373333-98.986667-136.533333-163.84-242.346667-167.253333-6.826667 0-13.653333-3.413333-13.653333-10.24-3.413333-6.826667 0-13.653333 3.413333-17.066667C498.346667 163.84 563.2 136.533333 631.466667 136.533333c139.946667 0 256 116.053333 256 256v17.066667c0 6.826667-3.413333 10.24-6.826667 13.653333-6.826667 0-10.24 3.413333-13.653333 3.413334zM785.066667 375.466667c23.893333 0 44.373333 3.413333 68.266666 10.24-3.413333-119.466667-102.4-215.04-221.866666-215.04-47.786667 0-88.746667 13.653333-126.293334 40.96 95.573333 17.066667 180.906667 81.92 225.28 170.666666 17.066667-3.413333 37.546667-6.826667 54.613334-6.826666zM273.066667 955.733333c-3.413333 0-6.826667 0-10.24-3.413333-6.826667-6.826667-10.24-17.066667-3.413334-23.893333l102.4-136.533334c6.826667-6.826667 17.066667-10.24 23.893334-3.413333 6.826667 6.826667 10.24 17.066667 3.413333 23.893333l-102.4 136.533334c-3.413333 3.413333-6.826667 6.826667-13.653333 6.826666z" fill="#000000" /><path d="M256 1024c-27.306667 0-51.2-23.893333-51.2-51.2S228.693333 921.6 256 921.6s51.2 23.893333 51.2 51.2S283.306667 1024 256 1024z m0-68.266667c-10.24 0-17.066667 6.826667-17.066667 17.066667s6.826667 17.066667 17.066667 17.066667 17.066667-6.826667 17.066667-17.066667-6.826667-17.066667-17.066667-17.066667z" fill="#000000" /><path d="M443.733333 955.733333c-3.413333 0-6.826667 0-10.24-3.413333-6.826667-6.826667-10.24-17.066667-3.413333-23.893333l102.4-136.533334c6.826667-6.826667 17.066667-10.24 23.893333-3.413333 6.826667 6.826667 10.24 17.066667 3.413334 23.893333l-102.4 136.533334c-3.413333 3.413333-6.826667 6.826667-13.653334 6.826666z" fill="#000000" /><path d="M426.666667 1024c-27.306667 0-51.2-23.893333-51.2-51.2s23.893333-51.2 51.2-51.2 51.2 23.893333 51.2 51.2-23.893333 51.2-51.2 51.2z m0-68.266667c-10.24 0-17.066667 6.826667-17.066667 17.066667s6.826667 17.066667 17.066667 17.066667 17.066667-6.826667 17.066666-17.066667-6.826667-17.066667-17.066666-17.066667z" fill="#000000" /><path d="M614.4 955.733333c-3.413333 0-6.826667 0-10.24-3.413333-6.826667-6.826667-10.24-17.066667-3.413333-23.893333l102.4-136.533334c6.826667-6.826667 17.066667-10.24 23.893333-3.413333 6.826667 6.826667 10.24 17.066667 3.413333 23.893333l-102.4 136.533334c-3.413333 3.413333-6.826667 6.826667-13.653333 6.826666z" fill="#000000" /><path d="M597.333333 1024c-27.306667 0-51.2-23.893333-51.2-51.2s23.893333-51.2 51.2-51.2 51.2 23.893333 51.2 51.2-23.893333 51.2-51.2 51.2z m0-68.266667c-10.24 0-17.066667 6.826667-17.066666 17.066667s6.826667 17.066667 17.066666 17.066667 17.066667-6.826667 17.066667-17.066667-6.826667-17.066667-17.066667-17.066667z" fill="#000000" /></svg>