<svg xmlns="http://www.w3.org/2000/svg" viewBox="0 0 1024 1024" width="200" height="200"><path d="M515.9 960.2c-17.6 0-32-14.4-32-32V92.1c0-17.6 14.4-32 32-32s32 14.4 32 32v836.1c0 17.6-14.4 32-32 32z" fill="#EF9F20" /><path d="M515.9 976.2c-26.5 0-48-21.5-48-48V92.1c0-26.5 21.5-48 48-48s48 21.5 48 48v836.1c0 26.5-21.5 48-48 48z m0-900.1c-8.8 0-16 7.2-16 16v836.1c0 8.8 7.2 16 16 16s16-7.2 16-16V92.1c0-8.8-7.1-16-16-16z" fill="#2D2D2D" /><path d="M500 707.8h31.8v88.5H500z" fill="#D18920" /><path d="M515.9 976.2c-26.5 0-48-21.5-48-48V92.1c0-26.5 21.5-48 48-48s48 21.5 48 48v836.1c0 26.5-21.5 48-48 48z m0-900.1c-8.8 0-16 7.2-16 16v836.1c0 8.8 7.2 16 16 16s16-7.2 16-16V92.1c0-8.8-7.1-16-16-16z" fill="#2D2D2D" /><path d="M570.1 549.6H452.5c-55.7 0-101.2-45.6-101.2-101.2 0-55.7 45.6-101.2 101.2-101.2h117.6c55.7 0 101.2 45.6 101.2 101.2 0.1 55.6-45.5 101.2-101.2 101.2z" fill="#F84A63" /><path d="M570.1 565.6H452.5c-64.6 0-117.2-52.6-117.2-117.2s52.6-117.2 117.2-117.2h117.6c64.6 0 117.2 52.6 117.2 117.2s-52.5 117.2-117.2 117.2zM452.5 363.1c-47 0-85.2 38.2-85.2 85.2s38.2 85.2 85.2 85.2h117.6c47 0 85.2-38.2 85.2-85.2s-38.2-85.2-85.2-85.2H452.5z" fill="#2D2D2D" /><path d="M570.3 347.2H452.7c-55.7 0-101.2-45.6-101.2-101.2 0-55.7 45.6-101.2 101.2-101.2h117.6c55.7 0 101.2 45.6 101.2 101.2 0 55.7-45.5 101.2-101.2 101.2z" fill="#F84A63" /><path d="M570.3 363.2H452.7c-64.6 0-117.2-52.6-117.2-117.2S388 128.7 452.7 128.7h117.6c64.6 0 117.2 52.6 117.2 117.2s-52.6 117.3-117.2 117.3zM452.7 160.7c-47 0-85.2 38.2-85.2 85.2s38.2 85.2 85.2 85.2h117.6c47 0 85.2-38.2 85.2-85.2s-38.2-85.2-85.2-85.2H452.7z" fill="#2D2D2D" /><path d="M570.1 752.1H452.5c-55.7 0-101.2-45.6-101.2-101.2 0-55.7 45.6-101.2 101.2-101.2h117.6c55.7 0 101.2 45.6 101.2 101.2 0.1 55.6-45.5 101.2-101.2 101.2z" fill="#F84A63" /><path d="M570.1 768.1H452.5c-64.6 0-117.2-52.6-117.2-117.2s52.6-117.2 117.2-117.2h117.6c64.6 0 117.2 52.6 117.2 117.2s-52.5 117.2-117.2 117.2zM452.5 565.6c-47 0-85.2 38.2-85.2 85.2s38.2 85.2 85.2 85.2h117.6c47 0 85.2-38.2 85.2-85.2s-38.2-85.2-85.2-85.2H452.5z" fill="#2D2D2D" /><path d="M630.4 435.3c0 55.7-45.6 101.2-101.2 101.2 22.1 0 42.6 7.2 59.3 19.3 47-8.7 82.9-50.1 82.9-99.6 0-47.4-32.9-87.4-77-98.3 21.9 18.8 36 46.5 36 77.4zM630.5 233c0 54.6-43.7 99.4-97.9 101.2 20.8 0.7 40.1 7.8 56 19.4 47-8.7 82.9-50.1 82.9-99.6 0-47.4-32.9-87.4-77-98.3 22 18.6 36 46.4 36 77.3zM630.4 637.8c0 55.7-45.6 101.2-101.2 101.2H411.5c-8.3 0-16.4-1-24.2-2.9 17.6 14.9 40.4 23.9 65.2 23.9h117.6c55.7 0 101.2-45.6 101.2-101.2 0-47.4-32.9-87.4-77-98.3 22 18.6 36.1 46.4 36.1 77.3z" fill="#ED2B50" /><path d="M570.1 565.6H452.5c-64.6 0-117.2-52.6-117.2-117.2s52.6-117.2 117.2-117.2h117.6c64.6 0 117.2 52.6 117.2 117.2s-52.5 117.2-117.2 117.2zM452.5 363.1c-47 0-85.2 38.2-85.2 85.2s38.2 85.2 85.2 85.2h117.6c47 0 85.2-38.2 85.2-85.2s-38.2-85.2-85.2-85.2H452.5z" fill="#2D2D2D" /><path d="M570.3 363.2H452.7c-64.6 0-117.2-52.6-117.2-117.2S388 128.7 452.7 128.7h117.6c64.6 0 117.2 52.6 117.2 117.2s-52.6 117.3-117.2 117.3zM452.7 160.7c-47 0-85.2 38.2-85.2 85.2s38.2 85.2 85.2 85.2h117.6c47 0 85.2-38.2 85.2-85.2s-38.2-85.2-85.2-85.2H452.7z" fill="#2D2D2D" /><path d="M570.1 768.1H452.5c-64.6 0-117.2-52.6-117.2-117.2s52.6-117.2 117.2-117.2h117.6c64.6 0 117.2 52.6 117.2 117.2s-52.5 117.2-117.2 117.2zM452.5 565.6c-47 0-85.2 38.2-85.2 85.2s38.2 85.2 85.2 85.2h117.6c47 0 85.2-38.2 85.2-85.2s-38.2-85.2-85.2-85.2H452.5z" fill="#2D2D2D" /><path d="M415.3 229.1c-3.2 0-6.3-0.9-9.1-2.9-7.2-5.1-9-15-4-22.3 13.9-19.9 36.5-31.7 60.6-31.7 8.8 0 16 7.2 16 16s-7.2 16-16 16c-13.6 0-26.4 6.7-34.3 18-3.2 4.5-8.1 6.9-13.2 6.9z" fill="#FFFFFF" /><path d="M400.1 268.6c-0.5 0-1 0-1.6-0.1s-1-0.1-1.6-0.2c-0.5-0.1-1-0.2-1.5-0.4-0.5-0.1-1-0.3-1.5-0.5s-0.9-0.4-1.4-0.7c-0.5-0.2-0.9-0.5-1.4-0.8-0.4-0.3-0.9-0.6-1.3-0.9-0.4-0.3-0.8-0.7-1.2-1.1s-0.7-0.8-1.1-1.2c-0.3-0.4-0.6-0.8-0.9-1.3-0.3-0.4-0.6-0.9-0.8-1.4-0.3-0.5-0.5-0.9-0.7-1.4-0.2-0.5-0.4-1-0.5-1.5-0.2-0.5-0.3-1-0.4-1.5-0.1-0.5-0.2-1-0.2-1.6 0-0.5-0.1-1-0.1-1.6s0-1 0.1-1.6c0.1-0.5 0.1-1 0.2-1.5s0.2-1 0.4-1.5c0.1-0.5 0.3-1 0.5-1.5s0.4-1 0.7-1.4c0.2-0.5 0.5-0.9 0.8-1.3 0.3-0.4 0.6-0.9 0.9-1.3 0.3-0.4 0.7-0.8 1.1-1.2 0.4-0.4 0.8-0.7 1.2-1.1 0.4-0.3 0.8-0.6 1.3-0.9 0.4-0.3 0.9-0.6 1.4-0.8 0.5-0.2 0.9-0.5 1.4-0.7 0.5-0.2 1-0.4 1.5-0.5 0.5-0.2 1-0.3 1.5-0.4 0.5-0.1 1-0.2 1.6-0.2 1-0.1 2.1-0.1 3.1 0 0.5 0 1 0.1 1.5 0.2s1 0.2 1.5 0.4c0.5 0.1 1 0.3 1.5 0.5s1 0.4 1.4 0.7c0.5 0.3 0.9 0.5 1.3 0.8 0.4 0.3 0.9 0.6 1.3 0.9 0.4 0.3 0.8 0.7 1.2 1.1 0.4 0.4 0.7 0.8 1.1 1.2 0.3 0.4 0.6 0.8 0.9 1.3 0.3 0.4 0.5 0.9 0.8 1.3 0.2 0.5 0.5 0.9 0.7 1.4 0.2 0.5 0.4 1 0.5 1.5 0.1 0.5 0.3 1 0.4 1.5 0.1 0.5 0.2 1 0.2 1.5 0.1 0.5 0.1 1.1 0.1 1.6s0 1-0.1 1.6c0 0.5-0.1 1-0.2 1.6-0.1 0.5-0.2 1-0.4 1.5s-0.3 1-0.5 1.5-0.4 0.9-0.7 1.4c-0.3 0.5-0.5 0.9-0.8 1.4-0.3 0.4-0.6 0.9-0.9 1.3-0.3 0.4-0.7 0.8-1.1 1.2-0.4 0.4-0.8 0.7-1.2 1.1-0.4 0.3-0.8 0.6-1.3 0.9-0.4 0.3-0.9 0.6-1.3 0.8-0.5 0.3-0.9 0.5-1.4 0.7-0.5 0.2-1 0.4-1.5 0.5-0.5 0.2-1 0.3-1.5 0.4-0.5 0.1-1 0.2-1.5 0.2s-1 0.1-1.5 0.1z" fill="#FFFFFF" /><path d="M415.3 432.9c-3.2 0-6.3-0.9-9.1-2.9-7.2-5.1-9-15-4-22.3 13.9-19.9 36.5-31.7 60.6-31.7 8.8 0 16 7.2 16 16s-7.2 16-16 16c-13.6 0-26.4 6.7-34.3 18-3.2 4.5-8.1 6.9-13.2 6.9z" fill="#FFFFFF" /><path d="M415.3 627.4c-3.2 0-6.3-0.9-9.1-2.9-7.2-5.1-9-15-4-22.3 13.9-19.9 36.5-31.7 60.6-31.7 8.8 0 16 7.2 16 16s-7.2 16-16 16c-13.6 0-26.4 6.7-34.3 18-3.2 4.5-8.1 6.9-13.2 6.9z" fill="#FFFFFF" /></svg>