<svg xmlns="http://www.w3.org/2000/svg" viewBox="0 0 1024 1024" width="200" height="200"><path d="M298.666667 85.333333h426.666666c25.6 0 42.666667 17.066667 42.666667 42.666667v768c0 25.6-17.066667 42.666667-42.666667 42.666667H298.666667c-25.6 0-42.666667-17.066667-42.666667-42.666667V128c0-25.6 17.066667-42.666667 42.666667-42.666667z" fill="#4F2AB5" /><path d="M298.666667 85.333333h426.666666c25.6 0 42.666667 17.066667 42.666667 42.666667v725.333333c0 25.6-17.066667 42.666667-42.666667 42.666667H298.666667c-25.6 0-42.666667-17.066667-42.666667-42.666667V128c0-25.6 17.066667-42.666667 42.666667-42.666667z" fill="#723FDB" /><path d="M742.4 128v725.333333c0 8.533333-8.533333 17.066667-17.066667 17.066667H298.666667c-8.533333 0-17.066667-8.533333-17.066667-17.066667V128c0-8.533333 8.533333-17.066667 17.066667-17.066667h426.666666c8.533333 0 17.066667 8.533333 17.066667 17.066667z" fill="#7750E2" /><path d="M307.2 136.533333h409.6v708.266667H307.2z" fill="#4F2AB5" /><path d="M307.2 597.333333h409.6v247.466667H307.2z" fill="#301196" /><path d="M627.2 772.266667v55.466666c0 4.266667-4.266667 8.533333-8.533333 8.533334h-213.333334c-4.266667 0-8.533333-4.266667-8.533333-8.533334v-55.466666c0-4.266667 4.266667-8.533333 8.533333-8.533334h213.333334c4.266667 0 8.533333 4.266667 8.533333 8.533334z" fill="#D04C83" /><path d="M388.266667 614.4v55.466667c0 4.266667-4.266667 8.533333-8.533334 8.533333H324.266667c-4.266667 0-8.533333-4.266667-8.533334-8.533333v-55.466667c0-4.266667 4.266667-8.533333 8.533334-8.533333h55.466666c4.266667 0 8.533333 4.266667 8.533334 8.533333zM465.066667 614.4v55.466667c0 4.266667-4.266667 8.533333-8.533334 8.533333H405.333333c-4.266667 0-8.533333-4.266667-8.533333-8.533333v-55.466667c0-4.266667 4.266667-8.533333 8.533333-8.533333h55.466667c4.266667 0 4.266667 4.266667 4.266667 8.533333zM546.133333 614.4v55.466667c0 4.266667-4.266667 8.533333-8.533333 8.533333h-55.466667c-4.266667 0-8.533333-4.266667-8.533333-8.533333v-55.466667c0-4.266667 4.266667-8.533333 8.533333-8.533333h55.466667c4.266667 0 8.533333 4.266667 8.533333 8.533333zM627.2 614.4v55.466667c0 4.266667-4.266667 8.533333-8.533333 8.533333h-55.466667c-4.266667 0-8.533333-4.266667-8.533333-8.533333v-55.466667c0-4.266667 4.266667-8.533333 8.533333-8.533333h55.466667c4.266667 0 8.533333 4.266667 8.533333 8.533333zM708.266667 614.4v55.466667c0 4.266667-4.266667 8.533333-8.533334 8.533333h-55.466666c-4.266667 0-8.533333-4.266667-8.533334-8.533333v-55.466667c0-4.266667 4.266667-8.533333 8.533334-8.533333h55.466666c4.266667 0 8.533333 4.266667 8.533334 8.533333zM388.266667 695.466667v55.466666c0 4.266667-4.266667 8.533333-8.533334 8.533334H324.266667c-4.266667 0-8.533333-4.266667-8.533334-8.533334v-55.466666c0-4.266667 4.266667-8.533333 8.533334-8.533334h55.466666c4.266667 0 8.533333 4.266667 8.533334 8.533334zM465.066667 695.466667v55.466666c0 4.266667-4.266667 8.533333-8.533334 8.533334H405.333333c-4.266667 0-8.533333-4.266667-8.533333-8.533334v-55.466666c0-4.266667 4.266667-8.533333 8.533333-8.533334h55.466667c4.266667 0 4.266667 4.266667 4.266667 8.533334zM546.133333 695.466667v55.466666c0 4.266667-4.266667 8.533333-8.533333 8.533334h-55.466667c-4.266667 0-8.533333-4.266667-8.533333-8.533334v-55.466666c0-4.266667 4.266667-8.533333 8.533333-8.533334h55.466667c4.266667 0 8.533333 4.266667 8.533333 8.533334zM627.2 695.466667v55.466666c0 4.266667-4.266667 8.533333-8.533333 8.533334h-55.466667c-4.266667 0-8.533333-4.266667-8.533333-8.533334v-55.466666c0-4.266667 4.266667-8.533333 8.533333-8.533334h55.466667c4.266667 0 8.533333 4.266667 8.533333 8.533334zM708.266667 695.466667v55.466666c0 4.266667-4.266667 8.533333-8.533334 8.533334h-55.466666c-4.266667 0-8.533333-4.266667-8.533334-8.533334v-55.466666c0-4.266667 4.266667-8.533333 8.533334-8.533334h55.466666c4.266667 0 8.533333 4.266667 8.533334 8.533334zM388.266667 772.266667v55.466666c0 4.266667-4.266667 8.533333-8.533334 8.533334H324.266667c-4.266667 0-8.533333-4.266667-8.533334-8.533334v-55.466666c0-4.266667 4.266667-8.533333 8.533334-8.533334h55.466666c4.266667 0 8.533333 4.266667 8.533334 8.533334zM708.266667 772.266667v55.466666c0 4.266667-4.266667 8.533333-8.533334 8.533334h-55.466666c-4.266667 0-8.533333-4.266667-8.533334-8.533334v-55.466666c0-4.266667 4.266667-8.533333 8.533334-8.533334h55.466666c4.266667 0 8.533333 4.266667 8.533334 8.533334z" fill="#7750E2" /><path d="M507.733333 256h140.8c21.333333 0 38.4 17.066667 38.4 38.4s-17.066667 38.4-38.4 38.4h-140.8c-21.333333 0-38.4-17.066667-38.4-38.4-4.266667-21.333333 17.066667-38.4 38.4-38.4z" fill="#EDC35B" /><path d="M375.466667 388.266667h140.8c21.333333 0 38.4 17.066667 38.4 38.4s-17.066667 38.4-38.4 38.4H375.466667c-21.333333 0-38.4-17.066667-38.4-38.4s17.066667-38.4 38.4-38.4z" fill="#6ED6AB" /><path d="M725.333333 960H298.666667c-34.133333 0-64-29.866667-64-64V128c0-34.133333 29.866667-64 64-64h426.666666c34.133333 0 64 29.866667 64 64v768c0 34.133333-29.866667 64-64 64zM298.666667 106.666667c-12.8 0-21.333333 8.533333-21.333334 21.333333v768c0 12.8 8.533333 21.333333 21.333334 21.333333h426.666666c12.8 0 21.333333-8.533333 21.333334-21.333333V128c0-12.8-8.533333-21.333333-21.333334-21.333333H298.666667z" fill="#301196" /></svg>