<svg xmlns="http://www.w3.org/2000/svg" viewBox="0 0 1024 1024" width="200" height="200"><path d="M651.2 489.9c-1.1 0-2.3-0.4-3.2-1.2l-34-28.3c-1.2-1-1.9-2.5-1.8-4.1 0.7-14.6 0.3-25.7 0.2-29.3-0.1-2.3 1.4-4.3 3.6-5 2.2-0.6 4.6 0.3 5.7 2.3l33.8 58c1.2 2.1 0.8 4.8-1.1 6.3-0.9 1-2 1.3-3.2 1.3z m-28.9-35.5l10.4 8.6-10.1-17.3c-0.1 2.7-0.2 5.6-0.3 8.7z" fill="#0F56D3" /><path d="M617.2 461.7c-1.2 0-2.3-0.4-3.2-1.2l-15.7-13.1-59-49.2c-1.1-0.9-1.8-2.3-1.8-3.8-0.5-53.1-9.3-100.1-13.1-117.8-0.5-2.4 0.8-4.8 3.1-5.7 2.3-0.9 4.9 0 6.1 2.1l88.1 151.3c0.4 0.7 0.6 1.5 0.7 2.3 0.4 10.2 0.3 20-0.2 30.2-0.1 1.9-1.3 3.6-3 4.3-0.7 0.4-1.3 0.6-2 0.6zM547.4 392l65.1 54.3c0.1-6 0.1-11.9-0.1-18l-73-125.3c3.7 22.9 7.6 54.6 8 89z" fill="#0F56D3" /><path d="M542.5 399.4c-1.1 0-2.3-0.4-3.2-1.2l-8.9-7.4c-17.8-14.9-41.2-18.5-62.8-9.5-1.7 0.7-3.5 0.4-5-0.7-1.4-1.1-2.1-2.9-1.9-4.6 10.4-77.1 4.7-169.8 1.8-206.1-0.2-2.3 1.3-4.5 3.5-5.2 2.2-0.7 4.6 0.2 5.8 2.3l61.8 106.2c0.3 0.5 0.5 1 0.6 1.5 3.8 18 12.8 65.7 13.3 119.8 0 1.9-1.1 3.7-2.9 4.6-0.7 0.1-1.4 0.3-2.1 0.3z m-51.3-32.9c16.4 0 32.5 5.7 45.5 16.6l0.5 0.4c-1.4-47.8-9.1-89.1-12.7-106.1L474 190.6c2.7 42.7 5.3 114.9-2.3 178.6 6.4-1.8 13-2.7 19.5-2.7z" fill="#0F56D3" /><path d="M426.3 428.6c-2 0-3.9-1.3-4.7-3.2-39.2-100.6-66.8-201.3-76.9-240l-0.2-0.9c-0.1-0.4-0.2-0.8-0.2-1.3v-0.1c0-0.9 0.2-1.7 0.7-2.5l42.4-74c5.1-8.9 14.2-14.3 24.5-14.3 10.3-0.1 19.5 5.2 24.7 14.1l35.1 60.3c0.4 0.7 0.7 1.6 0.7 2.4 3 36.7 8.7 130-1.8 208.1-0.2 1.8-1.4 3.3-3.1 4-18.9 7.7-32.1 23.5-36.4 43.4-0.5 2.2-2.3 3.8-4.5 3.9 0 0.1-0.2 0.1-0.3 0.1zM354.7 184c9.8 37.5 35.1 129.9 71.2 224.7 6.9-15.7 19.2-28.2 35.2-35.5 9.8-76 4.4-165.8 1.5-202.3L428 111.5c-3.4-5.7-9.3-9.1-15.9-9.1h-0.1c-6.6 0-12.6 3.5-15.9 9.3L354.7 184z m111 192.6z" fill="#0F56D3" /><path d="M404.9 551.2c-1.8 0-3.4-0.9-4.3-2.5-68.2-116.2-91.2-267.7-95.1-296.8-0.1-1.1 0.1-2.2 0.6-3.2l38.9-67.9c1-1.8 3-2.7 5-2.5 2 0.3 3.7 1.7 4.2 3.7l0.3 1.1c10 38.5 37.5 138.9 76.4 238.7 0.4 0.9 0.4 1.9 0.2 2.9-0.2 0.8-0.3 1.6-0.5 2.5v0.2L409.9 547c-0.4 2.1-2 3.7-4 4.1-0.4 0.1-0.7 0.1-1 0.1z m-89.2-299c4.3 31.4 26 168.7 86.7 279.4l18.4-105.9v-0.1l0.1-0.3c0.1-0.4 0.2-0.8 0.2-1.2-35.6-91.6-61.6-183.4-73.4-227.7l-32 55.8z" fill="#0F56D3" /><path d="M388.5 647c-1.2 0-2.4-0.4-3.3-1.3-53.9-47.9-93.4-109.2-117.2-182.2-17.8-54.5-20.8-97.6-21.2-109.5V353.4c0-0.9 0.2-1.7 0.7-2.5l58.8-102.3c1.1-1.9 3.2-2.8 5.3-2.4 2.1 0.4 3.7 2.1 4 4.2 3.9 28.8 26.5 178.4 93.8 293.1 0.6 1 0.8 2.2 0.6 3.4l-16.5 95.9c-0.3 1.8-1.6 3.3-3.3 3.9-0.6 0.2-1.2 0.3-1.7 0.3zM256.7 354.8c0.6 12.9 3.8 54 20.7 105.7 22.3 68.2 58.5 126 107.7 171.7l14.6-85.1c-59.9-103-84.5-232.6-92.1-280.9l-50.9 88.6z" fill="#0F56D3" /><path d="M290.4 649.6c-1.3 0-2.5-0.5-3.4-1.3-87.9-81.7-88.2-191-87.4-212.1 0-0.8 0.3-1.6 0.7-2.3l47.1-82.5c1.1-1.9 3.4-2.9 5.5-2.4 2.2 0.5 3.7 2.4 3.8 4.7 0.5 11.6 3.4 53.5 20.8 106.8 23.3 71.3 61.8 131.1 114.4 177.8 1.3 1.2 1.9 2.9 1.6 4.6l-0.4 2.2c-0.4 2.4-2.5 4.1-4.9 4.1l-97.8 0.4z m-80.9-211.8c-0.7 22.9 1.2 124.7 82.8 201.8l85.7-0.4c-50.3-46.9-87.3-105.9-110.1-175.7-12.9-39.5-18-73-20-93l-38.4 67.3z" fill="#0F56D3" /><path d="M209.8 649.9c-27.9 0-52.8-14.3-66.8-38.4-14-24.1-14.1-53-0.2-77.2l57.4-100.4c1.1-2 3.5-3 5.7-2.3 2.2 0.6 3.7 2.7 3.6 5-0.8 20.3-0.4 125.7 84.2 204.4 1.5 1.4 2 3.6 1.3 5.5s-2.6 3.2-4.6 3.2l-80.3 0.3c-0.1-0.1-0.2-0.1-0.3-0.1z m-10.1-195l-48.3 84.4c-12.1 21.1-12 46.2 0.2 67.2s33.9 33.4 58.2 33.4h0.3l68-0.3c-64.6-65.8-76.6-146.4-78.4-184.7z" fill="#0F56D3" /><path d="M757.9 810.9c-1.4 0-2.8-0.6-3.7-1.7-1.4-1.5-1.7-3.7-0.7-5.6 52.3-103.6 15.7-202.4 7.8-221.1-0.9-2.1-0.2-4.6 1.6-6 1.9-1.4 4.4-1.3 6.2 0.2l96.9 80.8c19.8 16.5 29 41.5 24.6 66.9-4.4 25.4-21.4 45.9-45.6 54.8l-85.3 31.3c-0.7 0.3-1.3 0.4-1.8 0.4z m19-214.6c11.8 36.6 28.7 116.2-9.2 200.7l73.8-27.1c20.8-7.7 35.5-25.3 39.2-47.2 3.8-21.8-4.1-43.3-21.2-57.5l-82.6-68.9z m66.3 178.3z" fill="#0F56D3" /><path d="M664.4 845.3c-1.4 0-2.8-0.6-3.8-1.7-1.4-1.6-1.6-3.8-0.6-5.6 33.8-63.2 49.1-134.3 45.3-211.2-2.9-60-16.8-101.8-18.3-106.3-0.7-2.1 0-4.5 1.9-5.7 1.8-1.3 4.3-1.2 6 0.3l72.7 60.6 1.4 1.2c0.6 0.5 1.1 1.1 1.4 1.9 8.2 19.5 46.1 122-8.1 229.5-0.6 1.2-1.6 2.1-2.9 2.5l-1.1 0.4-92.1 33.8c-0.6 0.2-1.2 0.3-1.8 0.3z m36.8-312.1c4.9 18.6 12.1 51.6 14.1 93 1.7 34.7-0.5 68.9-6.6 101.7-6.7 36.2-18.1 70.9-34 103.2l79.6-29.3c50-101 16-197.2 7.4-218.3l-0.5-0.4-60-49.9z m56.7 272.7zM417.7 931.6c-16.3 0-32.3-5.7-45.4-16.6-19.8-16.5-29-41.5-24.6-66.9l35.4-204.7 0.4-2.2 16.5-95.8 20.7-119.7v-0.1c0.2-1.1 0.4-2.1 0.6-3 5-23.2 20.4-41.6 42.4-50.6 24.6-10.2 52.6-6 73 11.1l68 56.6c0.8 0.7 1.4 1.7 1.7 2.7l0.2 1c4.9 21.1 8.5 41.9 10.7 55.6 8.1 50.3 12.5 98.7 12.9 143.9 1.1 99.9-16.5 178.4-52.4 233.4-0.6 0.9-1.5 1.6-2.5 2l-132.8 48.8c-8.1 3-16.5 4.5-24.8 4.5z m73.8-555.2c-8 0-16 1.6-23.9 4.8-18.9 7.7-32.1 23.5-36.4 43.5l-0.6 2.7L409.9 547l-16.5 95.8-0.4 2.2-35.4 204.6c-3.8 21.8 4.1 43.4 21.1 57.6 17 14.2 39.6 18.1 60.4 10.4l131.2-48.2c34.2-53.2 51-129.3 49.9-226.4-0.4-44.8-4.7-92.7-12.7-142.4-2.2-13.4-5.7-33.7-10.5-54.3l-66.7-55.6c-11.3-9.4-24.9-14.3-38.8-14.3z m82.1 497.2z" fill="#0F56D3" /><path d="M573.6 878.6c-1.5 0-2.9-0.7-3.9-1.9-1.3-1.7-1.5-4-0.3-5.8 34.8-53.2 51.9-129.9 50.8-227.8-0.4-44.7-4.7-92.7-12.7-142.4-3.1-19.4-6.7-37.8-10.6-54.7-0.1-0.6-0.2-1-0.3-1.3-0.5-2.1 0.5-4.2 2.3-5.3 1.8-1.1 4.2-0.9 5.8 0.4l15.7 13.1 34 28.3 40.5 33.7c0.9 0.7 1.4 1.7 1.7 2.8 2.2 6.6 15.8 48.8 18.7 108.6 1.7 34.7-0.5 68.9-6.6 101.7-7.5 40.6-20.9 79.1-39.9 114.7-0.6 1.1-1.5 1.9-2.7 2.3l-90.8 33.3c-0.5 0.2-1.1 0.3-1.7 0.3z m35.9-421.8c2.8 13.4 5.4 27.5 7.8 42.2 8.1 50.3 12.5 98.7 12.9 143.9 1 92.7-14 166.9-44.9 221l75.5-27.7c78-147.7 31.7-298.7 26.5-314.6L648 488.8l-38.5-32z m54.9 383.5z" fill="#0F56D3" /></svg>