<svg xmlns="http://www.w3.org/2000/svg" viewBox="0 0 1024 1024" width="200" height="200"><path d="M854.2 270.832a381.976 381.976 0 0 1 22.496 79.608h-78.192a304.992 304.992 0 0 0-28.944-79.608h84.64z m-652.408 79.608a304.96 304.96 0 0 1 28.944-79.608h-84.64a381.848 381.848 0 0 0-22.496 79.608h78.192z m117.264 0h-41.408a184 184 0 0 1 38.544-56.544l26.176 26.176a146.992 146.992 0 0 0-23.312 30.368zM869.776 509.664a382.104 382.104 0 0 1-30.464 79.608H749.672a305.08 305.08 0 0 0 40.056-79.608h80.048z m-619.152 79.608a305.04 305.04 0 0 1-40.056-79.608H130.52a381.72 381.72 0 0 0 30.464 79.608h89.64z m32.832-79.608a184 184 0 0 0 43.408 54.304l24.032-28.16a146.952 146.952 0 0 1-24.032-26.144h-43.408zM500.152 748.496H316.24a381.856 381.856 0 0 0 183.904 47.2v-47.2z m343.168 79.608l-79.616-79.608h92.912l79.608 79.608h-92.904z" fill="#FF5ABE" /><path d="M669.816 630.664l-35.544 35.544L716.56 748.496h69.328l79.608 79.608h-69.328l159.224 159.224 46.448-46.456-268.144-268.144a381.784 381.784 0 0 0 58.464-83.456H702.528a304.992 304.992 0 0 1-33.848 40.256l1.136 1.136z m163.192-179.392a382.728 382.728 0 0 1-10.376 58.392H742.576a304.984 304.984 0 0 0 8.776-159.224h78.192l-0.072-0.424c5.632 33.216 6.88 67.256 3.536 101.256z m-10.376 58.392zM722.416 270.832a305.08 305.08 0 0 0-180.88-148.872A305.024 305.024 0 0 0 184 270.064l-0.408 0.768h-84.64a381.864 381.864 0 0 1 671.552-69.128 381.568 381.568 0 0 1 36.552 69.12h-84.64zM76.448 350.44a381.8 381.8 0 0 0 6.92 159.224h80.048l0.608 1.824A304.944 304.944 0 0 1 154.648 350.4l-0.008 0.04H76.448z m134.312 358.576A381.816 381.816 0 0 1 113.832 589.28h89.64a304.968 304.968 0 0 0 249.52 129.6v76.824c-7.88 0-15.744-0.24-23.568-0.728v-46.48h-160.32a381.76 381.76 0 0 1-58.344-39.472z m19.736-358.576a184 184 0 0 0 5.816 159.224h43.4a146.832 146.832 0 0 0-27.424-79.864 146.992 146.992 0 0 1 19.624-79.376l-0.008 0.016h-41.408z" fill="#FF5ABE" /><path d="M807.048 270.832a381.976 381.976 0 0 1 22.496 79.608H751.36a304.992 304.992 0 0 0-28.944-79.608h84.632zM154.64 350.44a304.96 304.96 0 0 1 28.944-79.608h-84.64a381.84 381.84 0 0 0-22.488 79.608h78.184z m117.264 0h-41.408a184 184 0 0 1 38.544-56.544l26.184 26.176a146.992 146.992 0 0 0-23.32 30.368zM822.632 509.664a381.808 381.808 0 0 1-30.472 79.608H702.528a305.08 305.08 0 0 0 40.048-79.608h80.056z m-619.16 79.608a305.04 305.04 0 0 1-40.056-79.608H83.368a381.72 381.72 0 0 0 30.464 79.608h89.64z m32.832-79.608a184 184 0 0 0 43.408 54.304l24.032-28.16a146.952 146.952 0 0 1-24.032-26.144h-43.408zM453 748.496H269.104a381.856 381.856 0 0 0 183.896 47.2v-47.2z m343.168 79.608l-79.608-79.608h92.904l79.608 79.608H796.168z" fill="#4DE5FF" /><path d="M622.664 630.664l-35.544 35.544 82.288 82.288h92.904l-75.768-75.768a381.784 381.784 0 0 0 58.464-83.456H655.376a304.992 304.992 0 0 1-33.84 40.256l1.12 1.136z m219.256 197.44H749.016l159.224 159.224 46.448-46.456-112.768-112.768z m-56.064-376.832a381.856 381.856 0 0 1-10.376 58.392H695.432a304.936 304.936 0 0 0 8.776-159.224h78.184c5.576 33.08 6.8 66.976 3.464 100.832zM675.264 270.832a305.08 305.08 0 0 0-180.88-148.872 305.024 305.024 0 0 0-357.544 148.104l-0.4 0.768H51.792l-0.152 0.36a381.864 381.864 0 0 1 671.696-69.488 381.784 381.784 0 0 1 36.56 69.12h-84.64zM29.304 350.44a381.808 381.808 0 0 0 6.912 159.224h80.048a304.896 304.896 0 0 1-8.776-159.224H29.304zM163.6 709.016A381.824 381.824 0 0 1 66.68 589.28H156.32a304.968 304.968 0 0 0 249.52 129.6v76.824-47.2H221.96a381.76 381.76 0 0 1-58.344-39.48z m19.736-358.576a184 184 0 0 0 5.816 159.224h43.4a147 147 0 0 1-7.808-159.224h-41.408z" fill="#4DE6FF" /><path d="M829.544 350.44a381.976 381.976 0 0 0-22.496-79.608h-37.488a304.992 304.992 0 0 1 28.944 79.608h31.04z m-645.96-79.608a304.96 304.96 0 0 0-28.944 79.608h-31.04a381.848 381.848 0 0 1 22.496-79.608h37.488z m111.184 48.792c-0.664 0.968-1.328 1.944-1.976 2.928 0.8-0.832 1.608-1.664 2.432-2.48l-0.448-0.448zM792.16 589.28a381.808 381.808 0 0 0 30.472-79.616h-32.904a305.08 305.08 0 0 1-40.056 79.608h42.488z m-628.744-79.616a305.04 305.04 0 0 0 40.056 79.608h-42.488a381.72 381.72 0 0 1-30.464-79.608h32.896z m138.456 28.336l1.872-2.192c-3.84-3.28-7.488-6.728-10.952-10.368a184.08 184.08 0 0 0 9.08 12.56zM316.248 748.496a381.896 381.896 0 0 0 136.752 44.28v-44.28H316.24z m527.072 79.608h45.752l-79.608-79.608h-45.76l79.616 79.608z" fill="#4D51BE" /><path d="M702.528 589.28a304.944 304.944 0 0 1-33.848 40.248l1.136 1.136-35.544 35.544L716.56 748.496h45.76l-75.776-75.768a381.808 381.808 0 0 0 58.464-83.456h-42.48z m229.288 374.472l22.872-22.88-112.768-112.768h-45.752l135.648 135.648zM775.48 509.664a381.84 381.84 0 0 0 6.912-159.224h-31.04a304.976 304.976 0 0 1-8.776 159.224h32.904z m-53.064-238.832a305.096 305.096 0 0 0-180.88-148.872 304.992 304.992 0 0 0-112.112-12.224 305.008 305.008 0 0 0-292.584 160.32l-0.4 0.776h-37.496a381.784 381.784 0 0 1 207.92-209.76 381.8 381.8 0 0 1 122.56-28.344 381.848 381.848 0 0 1 330.48 238.104h-37.488zM76.448 350.44a381.8 381.8 0 0 0 6.92 159.224h32.896a304.896 304.896 0 0 1-8.776-159.224h-31.04z m192.656 398.056H405.84v-29.624a305.024 305.024 0 0 1-249.52-129.6h-42.496a381.808 381.808 0 0 0 155.272 159.224z" fill="#4D51BE" /></svg>