<svg xmlns="http://www.w3.org/2000/svg" viewBox="0 0 1024 1024" width="200" height="200"><path d="M899.4 608.9c-4.7-4.1-13-6.5-15.5-1.5-13 25.1-38.1 42.1-46.3 70-1.9 6.3 2 11 9.6 12 1.8-0.9 4.6-1.4 6-3.1 16.9-19.9 34-39.6 50.3-60 4.8-6.1 1.2-12.7-4.1-17.4zM807 586.1c-4.7 13.3-9.4 26.6-14.2 39.8-3.6 9.8-7.2 19.7-10.8 29.5-29 17.4-34.1 50.6-50 76.6-5.6 9.1-7.1 19.9 3.5 26 13.1 7.6 19.1-3.2 24.5-12.7 7.3-12.8 11.3-29.7 22-37.8 19.3-14.6 17.7-29 8.9-46.8l7.2-28.5c7.5-10.8 10.6-23.2 14-35.6 6.1-12.5 13.2-24.8 11.2-44.9-10.2 13.1-14.2 23.2-16.3 34.4zM266.8 477.8c-18.8 3.3-37.9 5.3-55.6 13.3-1.6 1.7-3.2 3.3-4.8 5-6.4 3.8-3.7 15.8-14.3 15.7-3.4-2.1-6.6-4.8-10.3-6.3-5.6-2.2-11.2-1.5-15.6 3.2-3.1 3.3-3.5 7.2-1.3 11.1 3.6 6.6 9.2 9.1 16.3 6.9 3.8-1.2 7.2-3.6 10.8-5.5 12.8 0.3 17.2-8.7 21.1-18.6 3.1-1.8 6.3-3.6 9.4-5.5l60.3-14.7c6.4-0.9 15 2.6 17.7-9.9-12 2-22.8 3.7-33.7 5.3zM74.9 280.7c-4.9 1.4-9.4 4.2-10.8 9.2-1 3.7 2.4 6.1 5.9 5.8 6.3-0.5 10.2-4.6 11.9-10.8-0.5-4.1-3.5-5.2-7-4.2zM701.3 753.6c-4.5 0.6-7.6 3.2-6.7 8.1 0.8 4.2 3.4 7.6 8.2 7.3 5.2-0.3 6-4.4 6.4-8.6-0.5-4.8-3-7.5-7.9-6.8zM336.5 471.3c9.2 0.8 19 3.1 24.5-8.1-9.6-5.3-17.6-2.5-25.1 3.8-10.3-1.4-19.4 0.9-29.5 8.3 12.5 3.4 20.9-3.2 30.1-4z" fill="#FF0000" /><path d="M960 363c0-7.2-4.2-9.5-10.6-9.6l-48.5-0.9c-0.9 0.4-1.9 0.4-2.9 0.3 1-0.1 1.9-0.2 2.9-0.3-19.2-20.1-45.1-20.8-70.2-24-21.4-3.2-42.7-6.3-64.1-9.5-19.9-0.8-39.3-7.7-59.5-4.9h-43.6c-6.8-0.1-13.6-0.3-20.4-0.4-1.5-1-3-1.2-4.7-0.6-3.1-5.1-6.2-10.2-9.2-15.3-8.2-9.9-16.3-19.7-24.5-29.6-2.3-7-7.5-16.9-13.6-12.1-9 7.2 1.1 13.2 7.5 17.7l24 30.6c2.1 2.9 4.3 5.8 6.4 8.7-31.8 3.6-63.7 7.2-95.5 10.7-21.9-10.2-40.5-31.1-68.6-20.8-9.9 0.2-19.8 0.5-29.7 0.7-0.5 0.4-1 0.7-1.5 0.9l1.5-0.9c-8.4-0.1-16.7-0.2-25.1-0.2-48.1-5.1-96-5.8-143.6 4.7-19.3 9.1-39.7 5.3-59.8 4.8-7-0.2-15.3-3.8-19.3 5-3.8 8.2 2.3 13.6 7.3 19 2.2 2.4 4.4 4.7 6.6 7 1 9.5-1.1 17.8-9 23.9-8.3-0.1-16.7-0.1-25-0.2-6-2.7-9.9 2.4-14.7 4.1-0.2-0.8-0.3-1.6-0.7-2.4-0.4-0.7-1-1.3-1.5-2-8.5 17.8-32 0.4-42.7 18.5 16 1.5 30.8-0.8 44.7 4.3 15.8-0.3 27.5 9.2 39.9 16.9 10.4 11.1 20.8 23.6 36.7 7.9 7.5-7.4 15.8-15.7 24.8-6.3 8.5 8.8-2.5 15.9-7.5 22.9-1.4 2-3.2 3.9-4.1 6.1-4.8 11.2-3.8 22 7.6 27.8 11.5 6 20.9 0.7 26-10.8 2.6-6 4-12.5 5.9-18.8 4.3-14.8 15.4-18.2 28.8-16.2 8.1 1.2 15.8 4.4 23.7 6.7 18.2-3.4 14.3-13.2 4.4-20.9-15.6-12.1-8.6-19.9 1-31.5 19.2-23.2 41.6-31.3 70-22.1 0 0.5 0 1 0.1 1.4-0.6 0.2-1.2 0.3-1.8 0.5-18.2 18.9-44.8 28.3-54 57.8-5.5 17.8 2.4 12.8 11 12.6 5.2 5.2 10.1 10.7 15.5 15.6 5.9 5.3 7.9 10.6 1.6 16.6-40.8 39-50.7 93-69.4 142.8-2.1 5.6-4.1 12.6 2.7 18 25.3 20.1 57.5 7.7 62.7-25 5.7-35.6 21-67.2 38.3-98.2 5.6-10 12.9-14.6 25.4-15.6 24.3-2.1 48.3-7.8 72.5-12 6.6 0.3 13.2 0.7 19.8 1 4.9 2.9 9.8 5.7 14.6 8.6-5.4 9.9-18.2 2.4-24.4 10.4-8.8 24.1-12.6 30.7-19.8 34.7-3.5 0.2-7 0.3-10.5 0.5-1.3-1-2.8-1.8-3.8-3-5.5-7.2-11.4-16.3-21.6-10.2-12.1 7.3-8.4 20.6-5.8 31 2.6 10.5 11.6 11.9 21.5 8.1 23.1-8.9 12.3 9.9 14.6 18.1-13.1 23.7-27.4 46.9-39.1 71.3-9.7 20.3-2.8 39.7 13.4 46.8 16.3 7 33.1-1.8 42.6-23.1 8.7-19.6 15.7-39.9 27.4-58.1 8.2-12.9 18.3-21.2 34.6-17.3 10.2 4.3 26.5-7.4 31.2 11.8-13.6 24.3-27.4 48.5-40.7 73-5.6 10.3-4.9 21.1 2.6 30.1 7.5 9.1 16.9 13.1 27.9 5.1 4.8 0.1 9.4-0.9 12.1 5.4 2.9 6.6 8.7 11.4 15.5 5.4 6.7-5.9 6.1-13.8-1.5-18.8-11.3-7.4-2.7-18.4-5.9-27.1 13.7-31.3 27.6-62.5 48.6-89.8 3.7 0.7 7.8 7.2 10.3 3.4 9.5-14.9 24.3-12.7 38.3-13.7 9.6 0 9.3 9.4 13.9 14.1 6 6.2 14 16.6 21.8 0.9 18-32.3 31.4-68.5 69.1-84.8 26.3-4.7 6.2 18.1 14.9 25.6 8.8-10.6 6.3-23.7 10.4-34.5 8.2-3.2 16.5-6.5 24.7-9.7 16.6 3.6 25.3 10.3 12.9 28-4 5.7-4.7 13.7-6.5 20.7-1.5 6-5.3 13.9 4.8 15.3 7 1 13.1-3.7 13.3-11.2 0.4-13.3 8.6-22.3 15.4-32.3 0.4-0.9 1.1-1.5 1.8-2-0.6 0.7-1.2 1.3-1.8 2 8.8-1.1 17.7-1.7 26.4-3.4 7.3-1.4 15.6-4.3 13.4-13.7-1.9-8.6-10-6.4-16.3-5.1-7.9 1.7-15.8 3.8-23.7 5.7-8.1-8.3-28.4 2.1-28.4-18.5 21.5-12.2 41.5-26.3 58.2-44.7 12-7.3 11.7-18.1 8.5-29.7-2.7-5-5.4-10-8.2-15 2.7-1.9 5.4-3.8 8.1-5.8 6.9 0.6 11.2-1.6 11.2-8.9zM565.9 471.5c-0.4 0.1-0.7 0.1-1.1 0.2 0.2-0.3 0.4-0.5 0.6-0.9 0.2 0.3 0.3 0.5 0.5 0.7z m92.1-144c-0.7 1-1.3 2-1.8 3-0.9-1.4-2-2.7-3.3-3.8 2.7-0.2 5.5-0.4 8.2-0.5-1 0.5-2.1 0.9-3.1 1.3z m-22.4-11.3c0-0.1 0-0.1 0 0-0.1 0.4-0.2 0.7-0.3 1.1-0.1-0.5-0.3-1-0.5-1.4 0.2 0 0.5 0.1 0.8 0.3z m-4.2 10.2c1-0.6 1.9-1.4 2.6-2.3 2.5 9.5 8 16.6 17.4 20.5 0.3 0 0.5-0.2 0.7-0.2l-0.2 0.2c0.6 7.5-3.1 8.5-7.4 8.5-2.8-0.6-5.8-0.8-9-0.9-25.3 8.8-47.7-3-70.9-9.1 11.3-5.3 22.8-10 36-10.4 10.4-0.4 21.1-1.9 30.8-6.3z" fill="#FF0000" /><path d="M713.7 647.1c-0.2 1.9 1.1 5.3 2.4 5.8 3.7 1.2 5.9-1.6 5.7-5-0.1-1.8-2.1-3.5-3.8-6.3-2 2.3-4.2 3.8-4.3 5.5zM278.5 616.5c-4.4-0.5-4.9 3.2-5.2 4.8-0.4 5.1 0.4 8.2 4.4 8.8 4.9 0.8 5-3.1 5-6.2s0-6.9-4.2-7.4zM861.7 620.6c1.3-3.6-0.2-7.1-3.1-8.2-3-1.1-6.8 0.7-7 4.7-0.1 2 1.2 4.8 2.7 6 3.1 2.5 5.9 1.5 7.4-2.5zM890.5 590.9c1.8-0.3 3.2-2.3 4.4-3.2-0.5-4.8-2.8-6.7-6.2-6-1.7 0.4-3.9 2.8-4.1 4.5-0.7 4.2 2.7 5.3 5.9 4.7zM914.7 555.4c-2.9 1.1-6.9 1.7-5.5 6.2 0.6 2 2.5 4.4 4.4 5.1 3.6 1.2 6.2-0.9 6.8-4.7 0.8-4.4-2.4-5.6-5.7-6.6z" fill="#FF0000" /></svg>