<svg xmlns="http://www.w3.org/2000/svg" viewBox="0 0 1336 1024" width="200" height="200"><path d="M1333.10173 298.795864c-11.121947-29.107025-46.448684-63.759704-214.380897-37.563381-119.737108-218.670353-377.22704-316.163566-607.570841-230.068051-230.405079 86.095515-365.431035 330.349411-318.7066 576.319088-216.096679 128.990078-195.568567 186.346236-188.429686 205.587511 7.108242 19.210636 28.494245 46.877629 111.188834 46.877629a810.125094 810.125094 0 0 0 139.100939-15.442042l42.220505-8.732108c133.647202 167.595184 356.116787 231.109776 555.484587 158.587326s332.432861-265.364148 332.279665-481.522104c0-10.784919 0-21.263447-1.715782-31.741977 100.373277-63.483953 170.199497-129.878608 150.529276-182.301891zM403.974863 200.965622a707.729645 707.729645 0 0 0-4.840957 150.253525 63.238841 63.238841 0 0 0-34.31565 66.486572 62.197116 62.197116 0 0 0 52.576478 52.607118 694.799998 694.799998 0 0 0 110.300304 240.82233 2728.921438 2728.921438 0 0 1-176.174097 51.534753c-126.23257-173.232755-103.55973-415.954702 52.453922-561.704298zM57.019129 793.523366c0-10.75428 28.494245-53.005424 149.119884-126.937266a503.949833 503.949833 0 0 0 53.863315 116.458737c-117.439185 24.75629-189.869718 24.48054-202.983199 10.509168z m541.697049 133.953592c12.83773-6.127795 25.95121-13.082842 39.616192-21.232809a78.895356 78.895356 0 0 1-23.101785-36.3991c-25.36907 16.330573-52.790951 29.045747-81.499669 37.839132a422.296969 422.296969 0 0 1-142.563143-94.643789 2746.17118 2746.17118 0 0 0 173.600422-52.086254c21.78431 25.277153 45.437597 48.838523 70.714751 70.469638-1.470671 5.484376-2.236645 11.152586-2.267284 16.851436 0.153195 3.370287 0.643418 6.648657 1.409393 9.896388v3.799233c0.980447 3.155814 2.114089 6.28099 3.431565 9.314248 1.072364 2.328562 2.297923 4.595846 3.676677 6.709935l4.289456 5.515015c1.440032 0 2.297923 3.492843 3.707316 4.963514l7.414631 5.821405c9.498082 6.985686 21.110253 10.417251 32.783702 9.620637 10.938113-0.214473 21.569837-3.768594 30.516417-10.202778 18.475301 11.275142 37.502103 21.600476 57.019129 30.853446-30.516417 7.659743-61.798809 11.64281-93.234395 11.9492-28.739357 0-57.386797-3.002619-85.513375-9.038497z m243.763672-23.28562a577.360814 577.360814 0 0 1-98.075354-47.490409 40.137055 40.137055 0 0 0 0-11.64281 48.409578 48.409578 0 0 0-2.022172-13.082841 58.152771 58.152771 0 0 0-25.06268-34.346289l-4.595846-2.052812a49.665776 49.665776 0 0 0-5.66821-2.604312l-7.721022-2.052811h-3.983066a53.036063 53.036063 0 0 0-7.108242 0h-1.440032a56.130599 56.130599 0 0 0-26.226961 7.874216 679.694984 679.694984 0 0 1-52.729673-51.259003 2876.693206 2876.693206 0 0 0 114.038259-42.220505c7.383993-2.634952 59.010663-22.703479 129.143272-53.311814a100.8635 100.8635 0 0 1-19.97661-53.863315c-40.474084 17.464215-83.521841 35.050985-129.143273 52.699034a3403.132046 3403.132046 0 0 1-133.98423 48.930441 650.89435 650.89435 0 0 1-111.464585-236.134568 63.116285 63.116285 0 0 0 27.299325-62.197116 62.166477 62.166477 0 0 0-44.426511-50.799417 658.002591 658.002591 0 0 1 16.851435-191.033999c188.031379-128.070909 441.936551-78.282577 570.191294 111.832253 3.676677 48.3483-20.252361 145.596401-74.452705 247.501626l-11.091309-2.022172h-15.105014c-4.534568 0.214473-9.007858 0.919169-13.41987 2.022172l-5.116709 2.052811-7.414631 2.604313-6.55674 4.074984-4.289457 2.634951-7.108241 6.127795a17.280381 17.280381 0 0 1-2.297923 2.328562 90.201137 90.201137 0 0 0-6.556741 8.149967v1.440032c-2.052811 3.309009-3.983067 6.709935-5.698849 10.202778-1.623866 3.768594-2.97198 7.659743-3.983066 11.64281a63.238841 63.238841 0 0 0-1.991534 12.80709c-0.30639 3.002619-0.30639 6.035878 0 9.038498 0.214473 4.503929 0.88853 9.007858 1.991534 13.389231 0.735335 2.451118 1.593227 4.902236 2.573673 7.292076v4.350734l5.116709 9.314248c1.225559 2.175367 2.665591 4.228178 4.289456 6.127794-3.431565 4.074983-6.28099 8.456357-9.712554 12.53134a953.239738 953.239738 0 0 1-131.716947 136.251515c12.439423 8.885302 21.968144 21.355364 27.391243 35.847599a1003.671489 1003.671489 0 0 0 139.407328-142.716338l12.25559-16.299934c3.125175 0 5.9746 1.746421 8.824024 2.052811 4.657124 0.428946 9.344887 0.428946 13.971372 0a73.839926 73.839926 0 0 0 13.971372-2.328562h2.849424c3.492843-1.103003 6.924408-2.359201 10.264056-3.799232l3.431565-2.328562c2.849425-1.562588 5.606932-3.309009 8.272523-5.208626 1.930255-1.623866 3.737955-3.370287 5.423098-5.269903 1.409393-1.470671 3.125175-2.634952 4.534568-4.381373 1.440032-1.746421 2.573674-3.492843 3.983067-5.208626 1.440032-1.77706 2.880063-3.799233 3.983066-6.127795 1.623866-2.941341 3.063897-5.943961 4.289457-9.038497a70.224527 70.224527 0 0 0 3.707315-13.695621v-3.492843a100.802222 100.802222 0 0 0 0-13.082841v-2.052812-1.440031a70.439 70.439 0 0 0-14.247122-36.70549l-1.409393-1.746422a752.677019 752.677019 0 0 0 75.555708-203.841089 425.697896 425.697896 0 0 1 34.468845 127.550046 2238.85106 2238.85106 0 0 1-94.368038 51.259002 101.415002 101.415002 0 0 1 26.809102 50.676862 2149.569091 2149.569091 0 0 0 69.274719-36.70549c-7.353354 163.397645-106.102765 307.860404-253.721338 371.283079l-0.30639-0.30639zM1175.157822 416.725272a521.781716 521.781716 0 0 0-28.494245-100.434554c94.061648-12.83773 128.867522-2.910702 133.98423 2.022172-1.133642 16.299934-36.184628 51.841143-105.489985 98.412382z" fill="#000000" /></svg>