<svg xmlns="http://www.w3.org/2000/svg" viewBox="0 0 1024 1024" width="200" height="200"><path d="M511.974273 512.025215m-486.3741 0a486.374101 486.374101 0 1 0 972.748201 0 486.374101 486.374101 0 1 0-972.748201 0Z" fill="#FFFFFF" /><path d="M149.958351 874.041137A511.972737 511.972737 0 1 1 511.974273 1023.997952a508.644915 508.644915 0 0 1-362.015922-149.956815zM51.19881 512.025215a460.775464 460.775464 0 1 0 460.775463-460.775464 461.313035 461.313035 0 0 0-460.775463 460.775464z m542.230326 295.433868a395.626933 395.626933 0 0 1-188.789947-47.971846 152.004706 152.004706 0 0 1-59.90081-54.857879 114.835485 114.835485 0 0 1-15.179992-64.815748 275.159748 275.159748 0 0 1 36.298867-107.079098c3.686204-7.167618 8.140367-15.922352 11.161006-22.833984-78.050244-16.587917-133.880871-56.803375-150.41759-109.331778a123.56462 123.56462 0 0 1 39.959472-126.866845 172.381221 172.381221 0 0 1 83.118774-41.853771 215.668516 215.668516 0 0 1 99.271513 0.537571 123.820607 123.820607 0 0 1 93.179039 85.089869 139.640564 139.640564 0 0 1-15.359182 93.563018c-3.583809 8.421952-6.911632 16.33193-8.933925 23.038773a32.817452 32.817452 0 0 0-1.740707 8.677938 28.798466 28.798466 0 0 0 8.396353 3.020639c7.398006 1.843102 19.480563 3.865394 33.483017 6.246068a806.101075 806.101075 0 0 1 128.940334 29.617623 310.204282 310.204282 0 0 1 66.556456 31.204738 160.631446 160.631446 0 0 1 51.658049 51.197274 138.232639 138.232639 0 0 1 8.44755 119.417641 152.900658 152.900658 0 0 1-40.957819 63.791803 202.229231 202.229231 0 0 1-65.199728 40.317853 314.197669 314.197669 0 0 1-113.81154 19.992535z m-34.532561-99.373909a24.702685 24.702685 0 0 0 23.397154 25.803426c7.167618 0.358381 14.130448 0.537571 20.734896 0.537572a227.03431 227.03431 0 0 0 66.044483-8.319557 89.416039 89.416039 0 0 0 50.019736-34.455765c27.057759-40.650635 2.918245-91.540725-7.423604-113.069179v-0.38398a24.574691 24.574691 0 1 0-44.413635 21.042079v0.38398c6.681244 14.156046 22.475603 47.306281 10.87942 64.687755-10.239455 15.359182-44.362438 22.833984-93.460623 20.47891h-1.100741a24.728283 24.728283 0 0 0-24.702685 23.294759z m-270.372803 79.662958a3.481415 3.481415 0 0 1-3.507013-3.507013v-24.293106h-21.758841a3.507013 3.507013 0 0 1-3.353422-4.735748l33.662208-91.028753a3.532612 3.532612 0 0 1 6.604448 0l33.61101 91.105549a3.455816 3.455816 0 0 1-3.225428 4.68455h-21.810039v24.293107a3.481415 3.481415 0 0 1-3.507013 3.507013z m-52.502804-144.811488a4.32617 4.32617 0 0 1-4.32617-4.300571v-29.771215h-26.596983a4.300571 4.300571 0 0 1-3.558211-1.868701 4.249374 4.249374 0 0 1-0.486374-3.967788l41.239404-111.482064a4.249374 4.249374 0 0 1 4.018986-2.892646 4.300571 4.300571 0 0 1 4.044585 2.892646l40.957819 111.507662a4.351768 4.351768 0 0 1-3.993388 5.862088h-26.622582v29.796814a4.300571 4.300571 0 0 1-4.274972 4.274972z m485.06857-169.181391a4.300571 4.300571 0 0 1-4.274972-4.274973v-29.745616h-26.648181a4.428564 4.428564 0 0 1-3.507014-1.894299 4.351768 4.351768 0 0 1-0.537571-3.94219l41.085812-111.507662a4.32617 4.32617 0 0 1 4.044585-2.892646 4.274972 4.274972 0 0 1 4.018986 2.892646l41.162608 111.533261a4.454163 4.454163 0 0 1-0.486374 3.916591 4.351768 4.351768 0 0 1-3.455816 1.919898h-26.622582v29.720017a4.32617 4.32617 0 0 1-4.32617 4.274973z m-135.212-45.053601a2.867047 2.867047 0 0 1-2.841449-2.867048v-19.480562h-17.45827a2.943843 2.943843 0 0 1-2.380673-1.228735 2.892646 2.892646 0 0 1-0.332782-2.559864l27.083357-73.288897a2.790251 2.790251 0 0 1 5.27332 0l26.955364 73.2377a2.764653 2.764653 0 0 1-2.559863 3.788598h-17.355876v19.53176a2.867047 2.867047 0 0 1-2.867048 2.867048z m63.459021-89.77442a3.37902 3.37902 0 0 1-3.37902-3.37902v-23.627542h-21.067678a3.481415 3.481415 0 0 1-2.841449-1.484721 3.430217 3.430217 0 0 1-0.332782-3.148632l32.612663-88.417692a3.37902 3.37902 0 0 1 6.374061 0l32.689459 88.494488a3.455816 3.455816 0 0 1-3.251027 4.556557h-21.144474v23.627542a3.37902 3.37902 0 0 1-3.37902 3.37902z" fill="#722ED1" /></svg>