<svg xmlns="http://www.w3.org/2000/svg" viewBox="0 0 1030 1024" width="200" height="200"><path d="M103.30537 825.697361C330.646418 1053.025094 678.148693 1074.15483 879.353842 872.88311s180.141984-548.720739-47.185749-776.088415c-1.251541-1.863997-730.313977 725.081472-728.862723 728.902666z" fill="#FDBEC6" /><path d="M816.470576 356.023404q120.360941 237.459888 0 462.004941-77.076271 131.891093-208.727708 185.467689l134.021376-32.35366q166.321779-101.268288 230.842699-230.509842t45.401638-194.388246q-9.666155-124.807905-26.748355-185.387804T918.284748 192.737277l-50.234715-40.302275z" fill="#FDA1AD" /><path d="M535.126876 1024q-17.308542 0-34.803485-1.065141c-149.745521-9.106956-293.992251-75.891302-406.16492-188.103914l-1.970511-1.970511-0.985256-2.662852c-3.448394-9.106956-3.448394-9.106956 115.288207-128.722299 67.782915-68.262229 158.346535-158.958991 249.149812-249.642439C696.788662 211.057704 821.516682 87.714367 826.243245 85.304486l10.345183-5.325706 5.645248 8.574386c111.640099 112.092784 178.091588 255.966714 187.171915 405.299493 9.146899 150.318034-40.901417 288.173918-140.891536 388.17735C796.286153 974.204655 671.837732 1024 535.126876 1024zM121.226368 825.151476c106.394279 102.519828 241.107996 163.472526 380.654792 171.967026 142.782161 8.654271 273.634742-38.69125 368.325783-133.382291s142.049876-225.490365 133.382291-368.325783c-8.4945-139.520166-69.407255-274.193941-171.887141-380.574906-78.394383 75.238903-638.312417 635.037108-710.475725 710.315954z" fill="#520001" /><path d="M623.866441 617.382395C825.138161 416.123989 921.799714 180.541412 836.082486 94.824184S514.689481 105.675309 313.417761 306.947029 15.391289 744.333897 101.108516 830.051125s321.486205-11.383695 522.757925-212.66873z" fill="#FDA1AD" /><path d="M189.62174 874.267794c-41.047874 0-74.280276-11.703238-97.646808-35.06977-45.268496-45.268496-46.839579-127.816929-4.313822-232.254012 40.967989-100.642517 117.897803-210.365362 216.609752-309.143882s208.434794-175.60182 308.890912-216.516552c104.317254-42.485815 186.732545-40.94136 232.027668 4.380393 90.536991 90.616877-4.593421 333.256014-212.216045 540.878637-98.765206 98.751892-208.488051 175.748277-308.890911 216.782837-50.554258 20.637108-95.955897 30.942348-134.460746 30.942349zM747.076635 76.596957c-35.016513 0-77.222728 9.546327-124.102249 28.638981-97.393837 39.649876-204.08103 114.502665-300.409726 210.85799S151.329918 519.189702 111.626785 616.716682c-37.799194 92.827045-38.291822 167.267091-1.331427 204.187544s111.267299 36.347939 204.001144-1.531141c97.34058-39.769705 204.08103-114.742322 300.42304-211.124275 194.201846-194.188532 291.369341-425.124431 212.216045-504.291041-18.240541-18.240541-45.627981-27.360811-79.858952-27.360812z" fill="#520001" /><path d="M724.003017 188.423456C577.626004 42.046444 382.30576-21.702249 235.036692 30.995605c-75.065817 26.854869-100.615889-16.709401-128.535899 19.398882S56.93179 124.754648 30.383149 202.869432c-51.646028 151.942374 11.982837 362.147965 164.524353 514.662852 23.499675 46.746379 239.030971-37.106852 384.143129-187.171915 121.053283-125.180705 182.139124-314.60273 144.952386-341.936913z" fill="#FAE06F" /><path d="M128.269614 46.200494Q39.530048 187.9974 65.386348 318.783409c25.8563 130.799324 73.321649 206.637368 218.873176 391.918658q1.171655 15.45786-46.666493 15.471174l-49.52906-10.358496q-236.607775-308.797712-161.488701-497.953453Q96.035782 53.123911 119.868314 41.274217z" fill="#FFFFFF" fill-opacity=".7" /><path d="M585.894162 89.644936q71.510909 98.33915 66.784345 202.217033c-3.075595 67.51663-16.336601 123.82265-23.67276 175.282278-0.119828 0.892056 2.369939 3.275309 7.482616 7.176388l21.529164-44.975582q44.815811-63.908464 56.865219-104.663425t26.881498-125.154076z" fill="#F9C87D" /><path d="M226.914992 743.441841a87.101911 87.101911 0 0 1-13.20775-0.931998c-16.815915-2.556339-25.124015-10.318554-29.224808-17.108829C32.859602 572.952698-35.495826 356.609232 18.147341 198.715382 46.00078 116.76609 68.688285 78.154726 96.315382 42.485815c18.79974-24.325159 39.463477-21.089793 59.514757-17.934313 18.240541 2.862567 40.914732 6.404161 74.906046-5.725134 150.451177-53.842881 352.042439 10.39844 501.854531 159.851047 8.441243 6.723703 13.46072 17.974256 14.792147 33.605201 5.911533 70.219425-61.245612 225.011052-159.917618 327.064881-116.499805 120.427513-282.115928 204.094344-360.550253 204.094344z m-91.868418-695.19095c-7.882044 0-12.502093 2.516396-18.333741 10.065583C90.763334 91.868418 69.314055 128.456014 42.605643 207.036796-8.148329 356.422832 58.236588 562.567572 204.041087 708.385386l2.409882 3.328565c1.664283 3.328566 7.695644 4.686621 11.157352 5.232506 56.905162 8.348043 229.418073-69.660226 351.190327-195.573216 100.269718-103.704798 157.441165-251.040437 152.727916-306.9204-0.971941-11.663295-4.207307-14.885347-5.192563-15.604317l-1.477883-1.331426c-142.955246-142.955246-334.041555-205.039657-475.465662-154.445456-40.182447 14.406033-67.596515 10.105526-87.621167 6.936731a116.340034 116.340034 0 0 0-16.696087-1.757482z" fill="#520001" /><path d="M125.44699 40.075933q68.1424 368.272526 406.471148 518.723703c-0.62577 0.559199 14.139748-11.543466 39.356963-37.905708q6.457418-6.737017 20.996593-23.086933-262.064647-114.862151-337.676349-195.719672t-129.148355-262.01139z" fill="#F9C87D" /></svg>