<svg xmlns="http://www.w3.org/2000/svg" viewBox="0 0 1024 1024" width="200" height="200"><path d="M498.102857 506.148571m-453.485714 0a453.485714 453.485714 0 1 0 906.971428 0 453.485714 453.485714 0 1 0-906.971428 0Z" fill="#CE242C" /><path d="M581.105371 879.981714c-13.063314 0-26.185143-0.336457-39.204571-0.702171a1506.2016 1506.2016 0 0 0-78.818743 0c-56.480914 1.521371-114.936686 3.086629-162.069943-24.195657-48.186514-27.882057-75.556571-78.774857-102.005028-128a1264.830171 1264.830171 0 0 0-19.119543-34.698972c-6.4512-11.1616-13.502171-22.367086-20.626286-33.733485C129.9456 611.927771 99.620571 563.624229 99.620571 506.148571c0-57.490286 30.325029-105.808457 59.655315-152.532114 7.124114-11.351771 14.160457-22.557257 20.611657-33.718857 6.509714-11.264 12.8-22.9376 19.119543-34.7136 26.463086-49.210514 53.818514-100.103314 102.005028-127.985371 47.133257-27.282286 105.5744-25.7024 162.069943-24.210286 26.331429 0.7168 52.487314 0.7168 78.833372 0 56.495543-1.506743 114.907429-3.072 162.055314 24.210286 48.186514 27.882057 75.556571 78.774857 102.005028 127.985371 6.334171 11.761371 12.609829 23.464229 19.134172 34.7136 6.4512 11.1616 13.487543 22.367086 20.611657 33.704229 29.315657 46.723657 59.640686 95.056457 59.640686 152.532114 0 57.490286-30.325029 105.823086-59.655315 152.546743-7.109486 11.337143-14.145829 22.542629-20.597028 33.6896-6.509714 11.264-12.785371 22.9376-19.119543 34.698971-26.463086 49.225143-53.818514 100.132571-102.034286 128-36.264229 21.006629-79.228343 24.912457-122.850743 24.912457zM502.491429 863.963429c13.194971 0 26.506971 0.351086 39.789714 0.7168 57.007543 1.506743 110.782171 2.940343 154.360686-22.250058 44.602514-25.8048 70.977829-74.839771 96.4608-122.2656 6.407314-11.893029 12.756114-23.698286 19.338971-35.079314 6.524343-11.293257 13.663086-22.659657 20.874971-34.143086 28.233143-44.982857 57.417143-91.487086 57.417143-144.778971 0-53.277257-29.184-99.781486-57.417143-144.764343a1174.235429 1174.235429 0 0 1-20.874971-34.157714 1239.215543 1239.215543 0 0 1-19.338971-35.108572c-25.4976-47.425829-51.858286-96.446171-96.446172-122.250971-43.578514-25.205029-97.411657-23.786057-154.360686-22.235429a1504.548571 1504.548571 0 0 1-79.608685 0c-57.007543-1.550629-110.7968-2.9696-154.346057 22.235429-44.602514 25.8048-70.9632 74.839771-96.4608 122.250971a1294.833371 1294.833371 0 0 1-19.338972 35.108572 1113.965714 1113.965714 0 0 1-20.8896 34.157714C143.433143 406.367086 114.249143 452.871314 114.249143 506.148571c0 53.262629 29.184 99.766857 57.402514 144.735086 7.226514 11.498057 14.350629 22.864457 20.8896 34.186972 6.597486 11.381029 12.946286 23.200914 19.338972 35.093942 25.482971 47.4112 51.843657 96.446171 96.446171 122.250972 43.563886 25.205029 97.397029 23.742171 154.346057 22.250057 13.312-0.351086 26.624-0.702171 39.818972-0.702171z" fill="#F5CA90" /><path d="M502.491429 96.548571m-14.628572 0a14.628571 14.628571 0 1 0 29.257143 0 14.628571 14.628571 0 1 0-29.257143 0Z" fill="#F5CA90" /><path d="M502.491429 915.748571m-14.628572 0a14.628571 14.628571 0 1 0 29.257143 0 14.628571 14.628571 0 1 0-29.257143 0Z" fill="#F5CA90" /><path d="M589.136457 607.349029l14.570057-1.272686 12.756115 145.729828-14.570058 1.272686z" fill="#F5CA90" /><path d="M645.573486 749.275429l-72.864915 6.378057a7.343543 7.343543 0 0 1-7.928685-6.656 7.343543 7.343543 0 0 1 6.656-7.928686l72.864914-6.378057a7.328914 7.328914 0 0 1 1.272686 14.584686zM519.899429 319.736686l23.581257 269.604571a51.360914 51.360914 0 0 0 55.471543 46.548114 51.360914 51.360914 0 0 0 46.548114-55.471542l-23.581257-269.604572-102.019657 8.923429z" fill="#F5CA90" /><path d="M523.732114 363.432229l102.005029-8.923429 1.287314 14.570057-102.019657 8.923429z" fill="#FFFFFF" /><path d="M569.168457 484.308114m-7.314286 0a7.314286 7.314286 0 1 0 14.628572 0 7.314286 7.314286 0 1 0-14.628572 0Z" fill="#FFFFFF" /><path d="M600.853943 510.902857m-7.314286 0a7.314286 7.314286 0 1 0 14.628572 0 7.314286 7.314286 0 1 0-14.628572 0Z" fill="#FFFFFF" /><path d="M588.200229 453.412571m-7.314286 0a7.314286 7.314286 0 1 0 14.628571 0 7.314286 7.314286 0 1 0-14.628571 0Z" fill="#FFFFFF" /><path d="M422.794971 311.149714l-70.0416 261.412572a51.360914 51.360914 0 0 0 36.205715 62.712685 51.360914 51.360914 0 0 0 62.712685-36.205714l70.0416-261.412571-98.9184-26.506972z" fill="#F5CA90" /><path d="M389.471086 605.096229l14.1312 3.774171-37.858743 141.312-14.1312-3.803429z" fill="#F5CA90" /><path d="M393.991314 757.774629l-70.656-18.929372a7.328914 7.328914 0 0 1-5.178514-8.952686 7.328914 7.328914 0 0 1 8.952686-5.178514l70.656 18.929372a7.314286 7.314286 0 0 1-3.774172 14.1312z" fill="#F5CA90" /><path d="M411.428571 353.528686l98.9184 26.506971-3.803428 14.116572-98.889143-26.492343z" fill="#FFFFFF" /><path d="M430.738286 472.298057m-7.314286 0a7.314286 7.314286 0 1 0 14.628571 0 7.314286 7.314286 0 1 0-14.628571 0Z" fill="#FFFFFF" /><path d="M409.029486 496.771657m-7.314286 0a7.314286 7.314286 0 1 0 14.628571 0 7.314286 7.314286 0 1 0-14.628571 0Z" fill="#FFFFFF" /><path d="M433.503086 518.465829m-7.314286 0a7.314286 7.314286 0 1 0 14.628571 0 7.314286 7.314286 0 1 0-14.628571 0Z" fill="#FFFFFF" /><path d="M401.466514 525.034057m-7.314285 0a7.314286 7.314286 0 1 0 14.628571 0 7.314286 7.314286 0 1 0-14.628571 0Z" fill="#FFFFFF" /><path d="M441.080686 490.218057m-7.314286 0a7.314286 7.314286 0 1 0 14.628571 0 7.314286 7.314286 0 1 0-14.628571 0Z" fill="#FFFFFF" /><path d="M452.432457 447.824457m-7.314286 0a7.314286 7.314286 0 1 0 14.628572 0 7.314286 7.314286 0 1 0-14.628572 0Z" fill="#FFFFFF" /></svg>