<svg xmlns="http://www.w3.org/2000/svg" viewBox="0 0 1024 1024" width="200" height="200"><path d="M344.945326 399.847619c8.307584-23.839153 24.922751-45.149912 48.761905-58.514286 29.257143-16.253968 62.848677-17.698765 91.744621-6.140388-8.307584 23.839153-24.922751 45.149912-48.761905 58.514286-29.618342 16.253968-63.209877 17.698765-91.744621 6.140388z" fill="#68AE30" /><path d="M383.95485 412.850794c-14.086772 0-27.812346-2.528395-41.176719-7.946385l-4.695591-1.805996 1.805996-4.695591c9.029982-26.367549 27.451146-48.039506 51.2903-61.40388 29.979541-16.615168 65.015873-19.143563 96.440212-6.501588l4.69559 1.805997-1.805996 5.05679c-9.029982 26.367549-27.451146 48.039506-51.2903 61.40388-17.337566 9.029982-36.481129 14.086772-55.263492 14.086773z m-32.146737-16.253969c26.728748 9.029982 56.34709 6.501587 81.99224-7.585185 19.865961-11.197178 35.75873-28.895944 44.427513-50.567901-27.089947-9.029982-56.708289-6.501587-81.99224 7.585185-19.865961 11.197178-35.397531 28.895944-44.427513 50.567901z" fill="#05391E" /><path d="M477.866667 344.945326c-21.310758 3.250794-43.343915 6.862787-61.76508 18.059965-5.05679 3.250794-9.752381 6.862787-15.17037 10.11358-7.585185 4.695591-16.253968 8.307584-24.561552 11.558378" fill="#05391E" /><path d="M356.503704 615.483598c0 64.293474 32.869136 123.891358 86.68783 156.038095 53.457496 32.146737 119.556966 32.146737 173.014462 0 53.457496-32.146737 86.687831-91.744621 86.687831-156.038095s-32.869136-123.891358-86.687831-156.038095c-53.457496-32.146737-119.556966-32.146737-173.014462 0-53.457496 32.146737-86.687831 91.744621-86.68783 156.038095z" fill="#6A608F" /><path d="M340.972134 604.647619c0 62.848677 31.063139 120.640564 81.99224 152.064903 50.567901 31.424339 113.055379 31.424339 163.98448 0 50.567901-31.424339 81.99224-89.216226 81.992239-152.064903s-31.063139-120.640564-81.992239-152.064903c-50.567901-31.424339-113.055379-31.424339-163.98448 0-50.567901 31.424339-81.99224 89.216226-81.99224 152.064903z" fill="#A597C7" /><path d="M379.259259 608.982011c-6.862787 0-12.280776-5.417989-12.641975-12.280776-0.722399-44.427513 32.507937-69.350265 33.952734-70.433863 5.417989-3.973192 13.364374-2.889594 17.698765 2.528395 3.973192 5.417989 2.889594 13.364374-2.528395 17.698766-1.083598 0.722399-24.200353 18.782363-23.839153 49.845502 0 3.250794-1.083598 6.501587-3.611993 9.029983-2.167196 2.167196-5.417989 3.611993-9.029983 3.611993z" fill="#FFFFFF" /><path d="M491.231041 601.758025c2.167196 7.223986 10.11358 11.558377 17.337566 9.391181 7.223986-2.167196 11.558377-10.11358 9.391181-17.337566-2.167196-7.223986-10.11358-11.558377-17.337566-9.391181s-11.558377 10.11358-9.391181 17.337566zM566.721693 579.363668c1.444797 4.695591 5.417989 8.307584 10.11358 9.391182s9.752381-0.361199 13.364374-3.973192c3.250794-3.611993 4.695591-8.668783 3.250794-13.725573-1.444797-4.695591-5.417989-8.307584-10.11358-9.391182s-9.752381 0.361199-13.364374 3.973192c-3.250794 3.611993-4.695591 8.668783-3.250794 13.725573z" fill="#05371D" /><path d="M560.942504 642.212346c-13.725573 3.973192-28.173545-3.611993-32.146737-17.337566-0.722399-2.889594 0.722399-5.779189 3.611993-6.501588s5.779189 0.722399 6.501587 3.611993c2.528395 8.307584 11.197178 13.003175 19.143563 10.47478 8.307584-2.528395 13.003175-11.197178 10.47478-19.143563-0.722399-2.889594 0.722399-5.779189 3.611993-6.501587s5.779189 0.722399 6.501587 3.611993c3.973192 13.364374-3.973192 27.812346-17.698766 31.785538z" fill="#0A391E" /><path d="M474.977072 425.492769c-1.083598 0-1.805996-0.361199-2.889594-0.722399-2.528395-1.444797-3.250794-5.05679-1.805997-7.585185 0.361199-0.361199 31.063139-52.373898 15.170371-106.192592-10.11358-35.036332-37.564727-63.571076-81.269841-84.881835-2.528395-1.444797-3.973192-4.695591-2.528395-7.223986 1.444797-2.528395 4.695591-3.973192 7.223985-2.528395 46.594709 22.755556 75.851852 53.818695 87.04903 91.744621 16.976367 58.875485-15.17037 112.69418-16.615167 114.861376-0.722399 1.444797-2.528395 2.528395-4.334392 2.528395z" fill="#05371D" /><path d="M632.459965 459.806702c-6.140388-5.05679-15.17037-4.695591-21.310759 0 48.039506 31.785538 79.463845 86.326631 79.463845 148.091711 0 97.885009-79.463845 177.348854-177.348853 177.348853S335.915344 705.783422 335.915344 607.898413s79.463845-177.348854 177.348854-177.348854c15.17037 0 30.340741 1.805996 44.427513 5.41799-0.361199-7.585185-6.140388-14.447972-14.086773-15.53157-10.11358-1.444797-20.22716-2.528395-30.34074-2.528395-104.747795 0-189.990829 85.243034-189.990829 189.990829s85.243034 189.990829 189.990829 189.990829 189.990829-85.243034 189.990828-189.990829c0.361199-57.791887-25.64515-112.332981-70.795061-148.091711z" fill="#05371D" /></svg>