<svg xmlns="http://www.w3.org/2000/svg" viewBox="0 0 1024 1024" width="200" height="200"><path d="M840.380494 152.763243 248.894162 152.763243c-85.932138 0-169.384805 70.800509-169.384805 153.332201l0 388.532991c0 82.530668 83.452667 148.868539 169.384805 148.868539L840.380494 843.496973c85.975117 0 131.451868-66.335824 131.451868-148.868539L971.832362 306.095443C971.832362 223.563752 926.354588 152.763243 840.380494 152.763243zM553.947879 552.539298c5.716188 7.887644 13.225209 13.554714 22.51376 16.945951 2.155083 1.24434 4.000104 2.494821 5.548366 3.712555 3.406586 2.806929 5.729491 6.361895 6.965645 10.679223 0.624217 3.722788 0.459464 8.201799-0.464581 13.468756-0.918929 5.238304-2.467191 10.573823-4.624321 16.008602-2.173502 5.403057-4.825912 10.277064-7.888667 14.626115-3.095501 4.313236-6.506181 7.408737-10.228969 9.28855-3.703345 1.841951-6.966669 2.76395-9.746992 2.76395-2.783393 0-5.878894-0.590448-9.270131-1.845021-3.098571-0.918929-6.970762-1.77646-11.595083-2.568499-4.663206-0.757247-9.371438-0.921999-14.164604-0.459464-4.806469 0.459464-9.582239 1.480724-14.391778 3.02694-4.77577 1.549286-8.893554 4.184299-12.285814 7.873318-7.426133 7.739265-11.775184 16.566304-13.010315 26.482141-1.236154 9.878998 0.163729 19.333324 4.185322 28.291346 3.095501 6.194072 2.617617 12.385075-1.399883 18.577101-1.845021 2.471284-4.79419 5.037736-8.812713 7.641027-4.018523 2.631944-8.43102 5.039783-13.239536 7.213285-4.77577 2.14178-9.815553 3.853771-15.086603 5.104251-5.239328 1.219781-9.882068 1.843998-13.919011 1.843998-2.781346 0-5.417383-1.086751-7.888667-3.25923-2.485611-2.174526-4.180206-4.480035-5.103228-6.952342l-0.459464 0c-3.393283-9.582239-9.205663-17.84953-17.424858-24.833595-8.184403-6.949272-17.686824-10.440793-28.523637-10.440793-10.506285 0-20.025079 3.491521-28.556383 10.440793-8.496511 6.983041-14.458293 15.084557-17.853623 24.373107-1.549286 3.722788-3.885494 6.42227-6.966669 8.134261-3.093455 1.680269-6.503111 2.535753-10.226922 2.535753-4.313236 0-9.188266-0.788969-14.591323-2.335185-5.434779-1.550309-10.833743-3.459798-16.254196-5.798053-5.417383-2.305509-10.293437-5.008061-14.624069-8.103562-4.330632-3.094478-7.573489-6.193049-9.746992-9.286504-1.549286-2.173502-2.388397-4.744048-2.553149-7.643074-0.149403-2.963495 1.003863-7.049556 3.490497-12.31856 3.394307-7.115048 4.711302-15.251356 3.921309-24.37106-0.75827-9.124821-4.693906-17.557888-11.82328-25.297153-4.317329-4.644787-9.587356-7.643074-15.777335-9.024537-6.175653-1.417279-12.05557-1.944282-17.622356-1.647523-6.488785 0.329505-13.159718 1.581008-19.961634 3.722788-4.348028 1.25355-8.662287 0.921999-13.010315-0.923022-3.39226-1.217734-6.55223-4.116761-9.501398-8.594749-2.948145-4.479011-5.584182-9.419534-7.888667-14.854313-2.340301-5.402033-4.098341-10.969842-5.334495-16.699334-1.25355-5.730515-1.549286-10.440793-0.921999-14.164604 0.921999-6.783497 4.016477-11.132548 9.28855-12.977569 9.255805-3.729951 17.622356-9.839089 25.047466-18.35402 7.429203-8.498558 11.149944-18.017352 11.149944-28.523637 0-10.836813-3.721765-20.274766-11.149944-28.341488-7.42511-8.020674-15.791661-13.899568-25.047466-17.622356-2.798742-0.921999-5.121648-3.180436-6.983041-6.737448-1.845021-3.540639-2.781346-7.179516-2.781346-10.901281 0-4.0175 0.608867-8.496511 1.858324-13.45443 1.254573-4.940522 2.867304-9.733689 4.875031-14.377452 2.00875-4.65809 4.330632-8.90788 6.949272-12.761652 2.635013-3.888564 5.501294-6.737448 8.596795-8.595772 2.470261-1.549286 4.874007-2.157129 7.196912-1.862417 2.321882 0.313132 4.857635 0.921999 7.656377 1.862417 9.273201 3.703345 18.956747 4.874007 29.000498 3.473101 10.063193-1.381463 18.956747-5.796006 26.696012-13.20679 3.721765-3.721765 6.40692-8.283664 8.101515-13.701047 1.713015-5.420453 2.797719-10.754948 3.261277-16.025998 0.459464-5.253654 0.459464-10.045797 0-14.377452-0.463558-4.329609-0.857531-7.443529-1.153266-9.287527-0.626263-1.859347-1.168616-4.018523-1.630127-6.488785-0.476861-2.468215-0.228197-4.644787 0.694825-6.503111 1.859347-4.329609 5.185093-8.119935 9.979282-11.363815 4.79112-3.244904 9.979282-5.962805 15.563464-8.120958 5.566786-2.173502 10.966773-3.802606 16.236799-4.872984 5.252631-1.088798 9.437953-1.63115 12.518105-1.63115 4.018523 0 7.212262 1.318018 9.516748 3.953032 2.321882 2.617617 3.953032 5.334495 4.876054 8.116865 3.408633 8.351202 8.974395 15.694447 16.699334 22.052249 7.756661 6.340405 16.879436 9.501398 27.405163 9.501398 10.80202 0 20.422122-3.012613 28.770254-9.038864 8.351202-6.043646 14.228049-13.68672 17.639752-22.991644 1.232061-2.469238 3.158946-5.022387 5.796006-7.638981 2.63399-2.636037 5.337565-3.953032 8.119935-3.953032 4.331655 0 9.042957 0.626263 14.146185 1.858324 5.121648 1.235131 10.146081 2.931772 15.102976 5.107321 4.940522 2.158153 9.503445 4.939499 13.684674 8.348132 4.183276 3.411703 7.510044 7.116071 9.981329 11.133571 1.546216 2.488681 2.00875 5.189186 1.399883 8.137331-0.626263 2.930749-1.25355 5.022387-1.862417 6.240121-4.018523 8.991792-5.272074 18.430768-3.722788 28.341488 1.550309 9.884115 6.02625 18.544355 13.473873 25.972535 7.40669 7.426133 16.532535 11.528568 27.369348 12.302187 10.837836 0.788969 20.880563-1.003863 30.18651-5.335519 2.472308-1.550309 5.483898-2.157129 9.024537-1.862417 3.575432 0.313132 6.588045 1.698688 9.057283 4.183276 4.643764 4.330632 8.747221 10.901281 12.304234 19.730367 3.539616 8.806573 5.962805 17.717524 7.18054 26.678616 0.626263 5.266957-0.214894 9.371438-2.536776 12.301164-2.322905 2.930749-4.711302 4.875031-7.179516 5.79703-9.619078 3.426029-17.819854 9.371438-24.606421 17.86795-6.816243 8.514931-10.211573 18.180058-10.211573 29.015847C545.367457 535.461341 548.234761 544.650631 553.947879 552.539298zM884.851335 684.882466 683.403277 684.882466l0-71.631434 201.447035 0L884.850311 684.882466zM884.851335 541.619598 683.403277 541.619598l0-71.631434 201.447035 0L884.850311 541.619598zM884.851335 398.35673 683.403277 398.35673l0-58.328453 201.447035 0L884.850311 398.35673z" fill="#020202" /></svg>