<svg xmlns="http://www.w3.org/2000/svg" viewBox="0 0 1024 1024" width="200" height="200"><path d="M138.666667 614.4V409.6c0-187.306667 83.626667-270.933333 270.933333-270.933333h204.8c187.306667 0 270.933333 83.626667 270.933333 270.933333a32 32 0 0 1-64 0c0-152.746667-54.186667-206.933333-206.933333-206.933333H409.6c-152.746667 0-206.933333 54.186667-206.933333 206.933333v204.8c0 152.746667 54.186667 206.933333 206.933333 206.933333a32 32 0 0 1 0 64c-187.306667 0-270.933333-83.626667-270.933333-270.933333z" fill="#292D32" /><path d="M320.853333 722.773333a173.568 173.568 0 0 1-54.613333-146.773333v-128c0-123.733333 57.6-181.333333 181.333333-181.333333h128a174.122667 174.122667 0 0 1 146.773334 54.613333 31.872 31.872 0 0 1-5.12 44.8 31.488 31.488 0 0 1-44.8-5.12c-10.24-13.226667-31.573333-30.293333-96.426667-30.293333h-128c-88.746667 0-117.333333 28.586667-117.333333 117.333333v128c0 64.853333 17.493333 86.186667 30.293333 96.426667a32.170667 32.170667 0 0 1-20.053333 57.173333 32.554667 32.554667 0 0 1-20.053334-6.826667zM309.76 170.666667V85.333333a32.213333 32.213333 0 0 1 32-32 32.213333 32.213333 0 0 1 32 32v85.333334a32 32 0 0 1-64 0zM480 170.666667V85.333333a32.213333 32.213333 0 0 1 32-32 32.213333 32.213333 0 0 1 32 32v85.333334a32.213333 32.213333 0 0 1-32 32 32.213333 32.213333 0 0 1-32-32zM650.666667 170.666667V85.333333a32.213333 32.213333 0 0 1 32-32 32.213333 32.213333 0 0 1 32 32v85.333334a32.213333 32.213333 0 0 1-32 32 32.213333 32.213333 0 0 1-32-32zM853.333333 373.333333a32.213333 32.213333 0 0 1-32-32 32.213333 32.213333 0 0 1 32-32h85.333334a32 32 0 0 1 0 64zM309.76 938.666667v-85.333334a32.213333 32.213333 0 0 1 32-32 32.213333 32.213333 0 0 1 32 32v85.333334a32.213333 32.213333 0 0 1-32 32 32.213333 32.213333 0 0 1-32-32zM85.333333 373.333333a32 32 0 0 1 0-64h85.333334a32 32 0 0 1 0 64zM85.333333 544a32.213333 32.213333 0 0 1-32-32 32.213333 32.213333 0 0 1 32-32h85.333334a32 32 0 0 1 0 64zM85.333333 714.666667a32.213333 32.213333 0 0 1-32-32 32.213333 32.213333 0 0 1 32-32h85.333334a32 32 0 0 1 0 64zM712.96 825.173333A99.84 99.84 0 1 1 812.8 725.333333a99.968 99.968 0 0 1-99.84 99.84z m0-135.68a35.84 35.84 0 1 0 35.84 35.84 36.437333 36.437333 0 0 0-35.84-35.84z" fill="#292D32" /><path d="M785.066667 970.666667a69.589333 69.589333 0 0 1-60.16-34.56l-2.944-4.693334a26.154667 26.154667 0 0 0-9.386667-10.666666 24.917333 24.917333 0 0 0-9.386667 10.666666l-2.56 4.266667a70.229333 70.229333 0 0 1-60.458666 34.858667 68.522667 68.522667 0 0 1-35.114667-9.685334l-38.4-22.186666a72.917333 72.917333 0 0 1-34.986667-45.653334 75.605333 75.605333 0 0 1 7.253334-56.746666c4.864-8.533333 4.608-12.8 4.266666-13.610667a24.277333 24.277333 0 0 0-13.610666-2.56 74.965333 74.965333 0 0 1-75.178667-74.709333v-39.68a74.752 74.752 0 0 1 74.666667-74.666667 26.752 26.752 0 0 0 13.824-2.858667h0.256a28.501333 28.501333 0 0 0-4.693334-13.269333 73.557333 73.557333 0 0 1-7.253333-56.789333 75.008 75.008 0 0 1 34.986667-45.653334l38.826666-22.613333a67.84 67.84 0 0 1 34.517334-9.429333 69.589333 69.589333 0 0 1 60.202666 34.56l2.56 4.736a25.6 25.6 0 0 0 9.386667 10.624 24.746667 24.746667 0 0 0 9.386667-10.624l2.56-4.266667a70.997333 70.997333 0 0 1 60.544-35.029333 68.266667 68.266667 0 0 1 35.029333 9.813333l39.68 21.76a72.533333 72.533333 0 0 1 34.986667 45.653333 75.434667 75.434667 0 0 1-7.253334 56.746667c-4.949333 8.533333-4.650667 12.8-4.266666 13.653333a25.6 25.6 0 0 0 13.653333 2.56 74.965333 74.965333 0 0 1 75.093333 74.666667v39.68a74.752 74.752 0 0 1-74.666666 74.709333 26.581333 26.581333 0 0 0-13.866667 2.858667h-0.213333a28.16 28.16 0 0 0 4.736 13.226667 73.856 73.856 0 0 1 7.253333 56.746666 75.306667 75.306667 0 0 1-35.029333 45.653334l-38.826667 22.613333a72.874667 72.874667 0 0 1-35.413333 9.898667z m-72.106667-113.92a76.544 76.544 0 0 1 64.853333 42.666666l2.56 4.693334a5.546667 5.546667 0 0 0 4.608 2.474666 4.736 4.736 0 0 0 2.645334-0.768l39.253333-22.613333a10.368 10.368 0 0 0 5.12-6.784 11.349333 11.349333 0 0 0-0.853333-8.149333 75.605333 75.605333 0 0 1-4.266667-77.226667 76.288 76.288 0 0 1 69.12-34.986667 11.178667 11.178667 0 0 0 11.093333-10.666666v-39.68a10.837333 10.837333 0 0 0-10.666666-10.666667 75.264 75.264 0 0 1-69.12-34.986667 76.8 76.8 0 0 1 4.266666-77.226666 8.064 8.064 0 0 0 0.853334-8.106667 11.477333 11.477333 0 0 0-5.12-6.826667l-38.826667-22.613333a5.802667 5.802667 0 0 0-2.858667-0.853333 6.357333 6.357333 0 0 0-5.248 2.901333l-2.133333 3.84a76.544 76.544 0 0 1-64.853333 42.666667 76.544 76.544 0 0 1-64.810667-42.666667l-2.56-4.266667a5.504 5.504 0 0 0-4.949333-2.474666 4.608 4.608 0 0 0-2.346667 0.597333l-39.253333 22.613333a10.581333 10.581333 0 0 0-5.162667 6.826667 11.349333 11.349333 0 0 0 0.896 8.106667 75.605333 75.605333 0 0 1 4.266667 77.056 76.288 76.288 0 0 1-69.12 34.986666 11.178667 11.178667 0 0 0-11.093334 10.666667v39.68a10.837333 10.837333 0 0 0 10.666667 10.666667 75.349333 75.349333 0 0 1 69.12 34.986666 76.8 76.8 0 0 1-4.266667 77.226667 11.349333 11.349333 0 0 0 4.266667 14.933333l38.826667 22.613334a5.674667 5.674667 0 0 0 2.858666 0.768 6.485333 6.485333 0 0 0 5.248-2.901334l2.090667-4.266666a75.818667 75.818667 0 0 1 64.896-42.24z" fill="#292D32" /></svg>