<svg xmlns="http://www.w3.org/2000/svg" viewBox="0 0 1024 1024" width="200" height="200"><path d="M721.8 147.5H322.2V1.5h399.6v146z m-369.6-30h339.6v-86H352.2v86zM731.3 1022.3H312.9c-57.1 0-103.6-46.5-103.6-103.6V305.5c0-57.1 46.5-103.6 103.6-103.6h12v-41h394.3v41h12c57.2 0 103.7 46.5 103.7 103.6v613.2c0 57.1-46.5 103.6-103.6 103.6zM312.9 231.9c-40.6 0-73.6 33-73.6 73.6v613.2c0 40.6 33 73.6 73.6 73.6h418.4c40.6 0 73.6-33 73.6-73.6V305.5c0-40.6-33.1-73.6-73.7-73.6h-42v-41H354.9v41h-42z" fill="#444444" /><path d="M286.3 355.5h471.5v512.1H286.3z" fill="#3392F0" /><path d="M496.2 719.3h-29.9c-8.3 0-15-6.7-15-15v-68.9c0-8.3 6.7-15 15-15h29.9c8.3 0 15 6.7 15 15v68.9c0 8.3-6.7 15-15 15z m-24.9-20h19.9v-58.9h-19.9v58.9zM496.2 820.3h-29.9c-8.3 0-15-6.7-15-15v-68.9c0-8.3 6.7-15 15-15h29.9c8.3 0 15 6.7 15 15v68.9c0 8.3-6.7 15-15 15z m-24.9-20h19.9v-58.9h-19.9v58.9z" fill="#444444" /><path d="M575.5 719.3h-29.9c-8.3 0-15-6.7-15-15v-68.9c0-8.3 6.7-15 15-15h29.9c8.3 0 15 6.7 15 15v68.9c0 8.3-6.7 15-15 15z m-24.9-20h19.9v-58.9h-19.9v58.9zM575.5 820.3h-29.9c-8.3 0-15-6.7-15-15v-68.9c0-8.3 6.7-15 15-15h29.9c8.3 0 15 6.7 15 15v68.9c0 8.3-6.7 15-15 15z m-24.9-20h19.9v-58.9h-19.9v58.9z" fill="#444444" /><path d="M404.1 514.3c-3.8 0-7.6-1.4-10.5-4.2l-0.2-0.2-48.7-48.7c-5.7-5.7-5.8-15.2-0.2-21.1l0.2-0.2 21.1-21.1c5.7-5.7 15.2-5.8 21.1-0.2l0.2 0.2 48.9 48.9c5.6 5.9 5.5 15.4-0.2 21.1L414.7 510c-2.9 2.9-6.8 4.3-10.6 4.3z m-41.7-63.7l41.7 41.7 14.1-14.1-41.7-41.7-14.1 14.1zM475.4 585.8c-3.8 0-7.6-1.4-10.5-4.2l-0.2-0.2-48.7-48.6c-5.7-5.7-5.8-15.2-0.2-21.1l0.2-0.2 21.1-21.1c5.7-5.7 15.2-5.8 21.1-0.2l0.2 0.2L507 539c2.9 2.8 4.5 6.5 4.5 10.5 0.1 4-1.5 7.9-4.3 10.7L486 581.5c-2.9 2.9-6.8 4.3-10.6 4.3z m-41.7-63.6l41.7 41.7 14.1-14.1-41.7-41.7-14.1 14.1z" fill="#444444" /><path d="M354.6 563.7c-3.8 0-7.6-1.4-10.5-4.2l-0.2-0.2-48.7-48.7c-5.7-5.7-5.8-15.2-0.2-21.1l0.2-0.2 21.1-21.1c5.7-5.7 15.2-5.8 21.1-0.2l0.2 0.2 48.7 48.7c5.7 5.7 5.8 15.2 0.2 21.1l-0.2 0.2-21.1 21.1c-2.9 3-6.8 4.4-10.6 4.4zM312.9 500l41.7 41.7 14.1-14.1L327 486l-14.1 14zM426 635.1c-3.8 0-7.6-1.4-10.5-4.2l-0.2-0.2-48.7-48.7c-5.7-5.7-5.8-15.2-0.2-21.1l0.2-0.2 21.1-21.1c5.7-5.7 15.2-5.8 21.1-0.2l0.2 0.2 48.6 48.6c2.8 2.8 4.4 6.5 4.5 10.5 0.1 4-1.6 8-4.4 10.8l-21.1 21.1c-2.9 3.1-6.8 4.5-10.6 4.5z m-41.7-63.6l41.7 41.7 14-14.2-41.7-41.7-14 14.2z" fill="#444444" /><path d="M687.3 563.7c-3.9 0-7.7-1.4-10.6-4.3l-21.1-21.1c-5.7-5.7-5.8-15.2-0.2-21.1l0.2-0.2 48.7-48.7c5.7-5.7 15.2-5.8 21.1-0.2l0.2 0.2 21.1 21.1c5.7 5.7 5.8 15.2 0.2 21.1l-0.2 0.2-48.9 48.9c-2.9 2.7-6.7 4.1-10.5 4.1z m-14-36l14.1 14.1L729 500l-14-14-41.7 41.7zM615.9 635.1c-3.9 0-7.7-1.4-10.6-4.3l-21.1-21.1c-5.7-5.7-5.8-15.2-0.2-21.1l0.2-0.2 48.7-48.7c5.7-5.7 15.2-5.8 21.1-0.2l0.2 0.2 21.1 21.1c5.7 5.7 5.8 15.2 0.2 21.1l-0.2 0.2-48.9 48.9c-2.9 2.7-6.7 4.1-10.5 4.1z m-14-36.1l14.1 14.1 41.7-41.7-14.1-14.1-41.7 41.7z" fill="#444444" /><path d="M638 514.3h-0.2c-4-0.1-7.7-1.6-10.5-4.5l-21-21c-5.7-5.7-5.8-15.2-0.2-21.1l0.2-0.2 48.7-48.7c5.7-5.7 15.2-5.8 21.1-0.2l0.2 0.2 21.1 21.1c5.7 5.7 5.8 15.2 0.2 21.1l-0.2 0.2-48.7 48.7c-2.9 2.8-6.7 4.4-10.7 4.4z m-14-36.2l14.1 14.1 41.7-41.7-14.1-14.1-41.7 41.7zM566.6 585.7c-4 0-7.8-1.6-10.7-4.4l-21.1-21.1c-5.7-5.7-5.8-15.2-0.2-21.1l0.2-0.2 48.7-48.7c5.7-5.7 15.2-5.8 21.1-0.2l0.2 0.2 21.2 21.1c5.7 5.7 5.8 15.2 0.2 21.1l-0.2 0.2-48.7 48.7c-2.9 2.8-6.7 4.4-10.7 4.4z m-14.1-36.2l14.1 14.1 41.7-41.7-14.1-14.1-41.7 41.7z" fill="#444444" /></svg>