<svg xmlns="http://www.w3.org/2000/svg" viewBox="0 0 1024 1024" width="200" height="200"><path d="M127.7 217.4c-4.6 0-8.4-3.7-8.4-8.4 0-47.6 38.7-86.4 86.4-86.4 4.6 0 8.4 3.7 8.4 8.4s-3.8 8.4-8.4 8.4c-38.4 0-69.6 31.2-69.6 69.6 0 4.6-3.7 8.4-8.4 8.4z" fill="#303232" /><path d="M158.8 218c-4.6 0-8.4-3.7-8.4-8.4 0-31.1 25.3-56.4 56.4-56.4 4.6 0 8.4 3.7 8.4 8.4 0 4.6-3.8 8.4-8.4 8.4-21.8 0-39.6 17.8-39.6 39.6 0 4.7-3.8 8.4-8.4 8.4zM823.7 896.3c-4.6 0-8.4-3.7-8.4-8.4 0-4.6 3.8-8.4 8.4-8.4 38.4 0 69.6-31.2 69.6-69.6 0-4.6 3.8-8.4 8.4-8.4s8.4 3.7 8.4 8.4c-0.1 47.6-38.8 86.4-86.4 86.4z" fill="#303232" /><path d="M822.6 865.6c-4.6 0-8.4-3.7-8.4-8.4s3.8-8.4 8.4-8.4c21.8 0 39.6-17.8 39.6-39.6 0-4.6 3.8-8.4 8.4-8.4s8.4 3.7 8.4 8.4c0 31.2-25.3 56.4-56.4 56.4zM890.9 212.2c-4.6 0-8.4-3.7-8.4-8.4 0-38.4-31.2-69.6-69.6-69.6-4.6 0-8.4-3.7-8.4-8.4 0-4.6 3.8-8.4 8.4-8.4 47.6 0 86.4 38.7 86.4 86.4-0.1 4.7-3.8 8.4-8.4 8.4z" fill="#303232" /><path d="M860.2 213.3c-4.6 0-8.4-3.7-8.4-8.4 0-21.8-17.8-39.6-39.6-39.6-4.6 0-8.4-3.7-8.4-8.4s3.8-8.4 8.4-8.4c31.1 0 56.4 25.3 56.4 56.4 0 4.6-3.7 8.4-8.4 8.4zM203.6 899.8c-47.6 0-86.4-38.7-86.4-86.4 0-4.6 3.8-8.4 8.4-8.4s8.4 3.7 8.4 8.4c0 38.4 31.2 69.6 69.6 69.6 4.6 0 8.4 3.7 8.4 8.4 0 4.6-3.8 8.4-8.4 8.4z" fill="#303232" /><path d="M204.2 868.7c-31.1 0-56.4-25.3-56.4-56.4 0-4.6 3.8-8.4 8.4-8.4s8.4 3.7 8.4 8.4c0 21.8 17.8 39.6 39.6 39.6 4.6 0 8.4 3.7 8.4 8.4s-3.7 8.4-8.4 8.4z" fill="#303232" /><path d="M413.681484 609.848781a139.2 139.2 0 1 0 196.855092-196.861964 139.2 139.2 0 1 0-196.855092 196.861964Z" fill="#F9DAF9" /><path d="M512.1 663c-38.9 0-77.7-14.8-107.3-44.4-28.7-28.7-44.4-66.8-44.4-107.3s15.8-78.6 44.4-107.3c59.2-59.1 155.4-59.2 214.6 0 59.2 59.2 59.2 155.4 0 214.6C589.8 648.2 551 663 512.1 663z m0-278.1c-32.4 0-64.8 12.3-89.5 37-23.9 23.9-37.1 55.7-37.1 89.5s13.2 65.6 37.1 89.5c49.4 49.4 129.7 49.4 179 0 49.4-49.4 49.4-129.7 0-179-24.6-24.7-57.1-37-89.5-37z" fill="#313232" /><path d="M859.8 248.3l-74.9 74.9c-2.8 2.8-7.4 2.8-10.2 0l-74.9-74.9c-2.8-2.8-2.8-7.4 0-10.2l74.9-74.9c2.8-2.8 7.4-2.8 10.2 0l74.9 74.9c2.8 2.9 2.8 7.4 0 10.2z" fill="#FFFFFF" /><path d="M779.7 316c-18.6 0-37.3-7.1-51.4-21.3-28.4-28.4-28.4-74.5 0-102.9 28.4-28.4 74.5-28.4 102.9 0 28.4 28.4 28.4 74.5 0 102.9-14.2 14.2-32.8 21.3-51.5 21.3z m0-120.3c-12.2 0-24.4 4.6-33.7 13.9-18.6 18.6-18.6 48.8 0 67.3 18.6 18.6 48.8 18.6 67.3 0 18.6-18.6 18.6-48.8 0-67.3-9.2-9.3-21.4-13.9-33.6-13.9z" fill="#313232" /><path d="M323.5 785.1L248.6 860c-2.8 2.8-7.4 2.8-10.2 0l-74.9-74.9c-2.8-2.8-2.8-7.4 0-10.2l74.9-74.9c2.8-2.8 7.4-2.8 10.2 0l74.9 74.9c2.8 2.8 2.8 7.4 0 10.2z" fill="#FFFFFF" /><path d="M243.5 852.7c-19.5 0-37.7-7.5-51.4-21.2-13.7-13.7-21.2-32-21.2-51.4 0-19.5 7.5-37.7 21.2-51.4 13.7-13.7 32-21.2 51.4-21.2s37.7 7.5 51.4 21.2c28.4 28.4 28.4 74.5 0 102.9-13.6 13.5-31.9 21.1-51.4 21.1z m0-120.2c-12.8 0-24.7 4.9-33.7 13.9-8.9 8.9-13.9 20.9-13.9 33.7 0 12.8 4.9 24.7 13.9 33.7 8.9 9 20.9 13.9 33.7 13.9s24.7-4.9 33.7-13.9c8.9-8.9 13.9-20.9 13.9-33.7 0-12.8-4.9-24.7-13.9-33.7-9-9-20.9-13.9-33.7-13.9z" fill="#313232" /><path d="M775.7 860l-74.9-75c-2.8-2.8-2.8-7.4 0-10.2l74.9-74.9c2.8-2.8 7.4-2.8 10.2 0l74.9 74.9c2.8 2.8 2.8 7.4 0 10.2l-74.9 75c-2.8 2.8-7.4 2.8-10.2 0z" fill="#FFFFFF" /><path d="M780.8 852.7c-18.6 0-37.3-7.1-51.4-21.3-13.7-13.7-21.2-32-21.2-51.4 0-19.5 7.5-37.7 21.2-51.4 28.4-28.3 74.5-28.3 102.9 0 13.7 13.7 21.2 32 21.2 51.4 0 19.5-7.5 37.7-21.2 51.4-14.3 14.2-32.9 21.3-51.5 21.3z m-33.7-39.1c18.6 18.6 48.8 18.6 67.3 0 8.9-9 13.9-20.9 13.9-33.7 0-12.8-4.9-24.7-13.9-33.7-18.6-18.6-48.8-18.5-67.3 0-8.9 8.9-13.9 20.9-13.9 33.7 0.1 12.8 5 24.8 13.9 33.7z" fill="#313232" /><path d="M239.5 323.8l-74.9-74.9c-2.8-2.8-2.8-7.4 0-10.2l74.9-74.9c2.8-2.8 7.4-2.8 10.2 0l74.9 74.9c2.8 2.8 2.8 7.4 0 10.2l-74.9 74.9c-2.8 2.8-7.4 2.8-10.2 0z" fill="#FFFFFF" /><path d="M244.6 316.5c-18.6 0-37.3-7.1-51.4-21.3-28.4-28.4-28.4-74.5 0-102.9 28.4-28.4 74.5-28.4 102.9 0 28.4 28.4 28.4 74.5 0 102.9-14.3 14.2-32.9 21.3-51.5 21.3z m-33.7-39.1c18.6 18.6 48.8 18.6 67.3 0 18.6-18.6 18.6-48.8 0-67.3-18.6-18.6-48.8-18.5-67.3 0-18.5 18.6-18.5 48.8 0 67.3zM601.653 404.106l127.631-127.632 17.749 17.748L619.4 421.854z" fill="#313232" /><path d="M277.2 294.22l17.754-17.743 127.595 127.668-17.753 17.743zM601.608 618.69l17.743-17.754 127.738 127.666-17.743 17.754zM277.185 728.615l127.702-127.703 17.749 17.749-127.703 127.702z" fill="#313232" /><path d="M244.6 423.3c-99 0-179.6-80.6-179.6-179.6S145.6 64.2 244.6 64.2s179.6 80.6 179.6 179.6-80.6 179.5-179.6 179.5z m0-334c-85.2 0-154.5 69.3-154.5 154.5s69.3 154.5 154.5 154.5S399 328.9 399 243.8 329.8 89.3 244.6 89.3zM779.7 422.8c-99 0-179.6-80.6-179.6-179.6S680.7 63.6 779.7 63.6s179.6 80.6 179.6 179.6c0 99.1-80.5 179.6-179.6 179.6z m0-334c-85.2 0-154.5 69.3-154.5 154.5s69.3 154.5 154.5 154.5 154.5-69.3 154.5-154.5S864.9 88.8 779.7 88.8zM244.6 959.8c-99 0-179.6-80.6-179.6-179.6s80.6-179.6 179.6-179.6 179.6 80.6 179.6 179.6c0 99.1-80.6 179.6-179.6 179.6z m0-334c-85.2 0-154.5 69.3-154.5 154.5s69.3 154.5 154.5 154.5S399 865.4 399 780.3c0-85.2-69.2-154.5-154.4-154.5zM779.7 959.4c-99 0-179.6-80.6-179.6-179.6s80.6-179.6 179.6-179.6 179.6 80.6 179.6 179.6-80.5 179.6-179.6 179.6z m0-334.1c-85.2 0-154.5 69.3-154.5 154.5s69.3 154.5 154.5 154.5S934.2 865 934.2 779.8s-69.3-154.5-154.5-154.5z" fill="#313232" /></svg>