<svg xmlns="http://www.w3.org/2000/svg" viewBox="0 0 1024 1024" width="200" height="200"><path d="M0.7 0h1024v1024H0.7z" fill="#9FFFF7" /><path d="M608.1 326.5l-99.6 240.7-38.8-16L586 270.3c1.5-3.6 5.7-5.3 9.3-3.8l9.9 4.1c15.6 6.4 9.4 40.2 2.9 55.9z" fill="#4DECE1" /><path d="M447.8 326.5l99.6 240.7 38.8-16L470 270.3c-1.5-3.6-5.7-5.3-9.3-3.8l-9.9 4.1c-15.7 6.4-9.5 40.2-3 55.9zM512.1 558.7c3.8-9.3-2.2-19.7-12.1-21-55.3-7-110.7 23.4-133.1 77.4-22.4 54-4.6 114.6 39.5 148.8 7.9 6.1 19.6 3 23.4-6.3l82.3-198.9z" fill="#4DECE1" /><path d="M577.7 319.9l-99.6 240.7-38.8-16 116.2-280.9c1.5-3.6 5.7-5.3 9.3-3.8l9.9 4.1c15.7 6.4 9.5 40.2 3 55.9z" fill="#FFFFFF" /><path d="M478.1 568.1c-1 0-1.9-0.2-2.9-0.6l-38.8-16c-1.8-0.8-3.3-2.2-4.1-4.1-0.8-1.8-0.8-3.9 0-5.7l116.2-280.9c1.5-3.6 4.3-6.4 7.9-7.9 3.6-1.5 7.6-1.5 11.2 0l9.9 4.1c22.1 9.1 14.3 48.2 7.1 65.7l-6.9-2.9 6.9 2.9L485 563.5c-0.8 1.8-2.2 3.3-4.1 4.1-0.9 0.3-1.8 0.5-2.8 0.5z m-29-27.6l24.9 10.3L570.7 317c2.8-6.9 5.9-18.5 6.3-28.8 0.3-9.4-1.6-15.8-5.2-17.3l-9.5-3.9-113.2 273.5z" fill="#6B3437" /><path d="M568.9 270.8l-3.2-1.3c8.5 11.1 3.2 37.6-2.3 50.8l-98.1 238 8.8 3.6 97.7-236.3c6.4-15.3 15.1-51.3-2.9-54.8z" fill="#F1E8E3" /><path d="M481.6 552.1c3.8-9.3-2.2-19.7-12.1-21-55.3-7-110.7 23.4-133.1 77.4-22.4 54-4.6 114.6 39.5 148.8 7.9 6.1 19.6 3 23.4-6.3l82.3-198.9z" fill="#FEA7C1" /><path d="M385.1 768c-5 0-9.8-1.6-13.8-4.8-47.7-37-64.9-101.8-41.8-157.6 23.1-55.8 81-89.5 140.9-82 7.1 0.9 13.2 4.9 16.8 11.1 3.6 6.2 4.1 13.5 1.4 20.2l-82.3 199c-2.7 6.6-8.3 11.5-15.2 13.3-2 0.6-4 0.8-6 0.8z m68.6-230.3c-47.7 0-91.7 28.8-110.3 73.8-20.5 49.6-5.2 107.2 37.1 140 1.9 1.5 4.3 2 6.7 1.3 2.4-0.6 4.3-2.3 5.2-4.5l82.3-199c0.9-2.3 0.8-4.8-0.5-6.9-1.2-2.1-3.3-3.5-5.7-3.8-4.9-0.6-9.9-0.9-14.8-0.9z" fill="#6B3437" /><path d="M462.9 540.1c-0.4 0-0.8-0.1-1.2-0.1 4.4 3.8 6.3 10.1 3.8 16l-75.6 182.8c-2.4 5.7-8 7-13.6 6.8 0.2 0.2 0.4 0.3 0.6 0.5 6.2 6.8 17.2 8.7 21.7-3.7l75.4-183c6.8-12.7-1.5-20.5-11.1-19.3z" fill="#F27A97" /><path d="M543.9 558.7c-3.8-9.3 2.2-19.7 12.1-21 55.3-7 110.7 23.4 133.1 77.4s4.6 114.6-39.5 148.8c-7.9 6.1-19.6 3-23.4-6.3l-82.3-198.9z" fill="#4DECE1" /><path d="M410.7 319.9l99.6 240.7 38.8-16-116.2-280.9c-1.5-3.6-5.7-5.3-9.3-3.8l-9.9 4.1c-15.6 6.4-9.4 40.2-3 55.9z" fill="#FFFFFF" /><path d="M510.3 568.1c-2.9 0-5.7-1.7-6.9-4.6l-99.6-240.7c-7.2-17.5-15-56.6 7.1-65.7l9.9-4.1c7.4-3.1 16 0.5 19.1 7.9L556 541.7c0.8 1.8 0.8 3.9 0 5.7-0.8 1.8-2.2 3.3-4.1 4.1l-38.8 16c-0.8 0.4-1.8 0.6-2.8 0.6z m-84.2-301.2l-9.5 3.9c-3.6 1.5-5.5 8-5.2 17.3 0.4 10.4 3.4 21.9 6.3 28.8l96.7 233.8 24.9-10.3-113.2-273.5z" fill="#6B3437" /><path d="M417.2 275.2L533 553.7l13.5-5.6-114.9-277.6c-1.5-3.6-1.7-5.6-5.2-4.1l-10.9 4.6" fill="#F1E8E3" /><path d="M506.8 552.1c-3.8-9.3 2.2-19.7 12.1-21 55.3-7 110.7 23.4 133.1 77.4 22.4 54 4.6 114.6-39.5 148.8-7.9 6.1-19.6 3-23.4-6.3l-82.3-198.9z" fill="#FEA7C1" /><path d="M603.3 768c-2 0-3.9-0.3-5.9-0.8-6.9-1.8-12.5-6.7-15.2-13.3l-82.3-199c-2.7-6.6-2.2-14 1.4-20.2 3.6-6.2 9.7-10.2 16.8-11.1 59.9-7.6 117.8 26.2 140.9 82 23.1 55.8 5.9 120.6-41.8 157.6-4.1 3.2-8.9 4.8-13.9 4.8z m-89.6-218.8l82.3 199c0.9 2.3 2.8 3.9 5.2 4.5 2.3 0.6 4.8 0.1 6.7-1.3 42.4-32.8 57.7-90.4 37.1-140-20.5-49.6-72-79.6-125.2-72.8-2.4 0.3-4.5 1.7-5.7 3.8-1.1 2.1-1.3 4.6-0.4 6.8z" fill="#6B3437" /><path d="M645.6 612.1c-13.2-31.9-37.8-53-67.8-63.6 25.5 11.3 46 32.8 57.5 61.1 19.5 48.1 7.4 102.3-31.2 132.7-2.2 1.7-5.1 3-7.6 3.1 3.9 4.8 9.1 4.9 14.6 0.6 38.7-30.4 54.9-84.8 34.5-133.9z" fill="#F27A97" /><path d="M493.3 463.8m-30.2 0a30.2 30.2 0 1 0 60.4 0 30.2 30.2 0 1 0-60.4 0Z" fill="#FEA7C1" /><path d="M493.3 501.5c-20.8 0-37.7-16.9-37.7-37.7s16.9-37.7 37.7-37.7c20.8 0 37.7 16.9 37.7 37.7s-16.9 37.7-37.7 37.7z m0-60.4c-12.5 0-22.7 10.2-22.7 22.7s10.2 22.7 22.7 22.7 22.7-10.2 22.7-22.7-10.2-22.7-22.7-22.7z" fill="#6B3437" /><path d="M509.2 449.2c1.7 3.1 2.7 6.7 2.7 10.6 0 12.1-9.8 21.9-21.9 21.9-6 0-11.5-2.4-15.4-6.3 3.7 6.8 10.9 11.3 19.2 11.3 12.1 0 21.9-9.8 21.9-21.9 0-6.2-2.5-11.7-6.5-15.6z" fill="#F27A97" /><path d="M397.8 561.7c-1.2 0-2.3-0.6-2.9-1.7-0.9-1.6-0.3-3.6 1.3-4.5 5.5-3 11.1-5.4 16.8-6.9 1.8-0.5 3.6 0.5 4.1 2.3s-0.5 3.6-2.3 4.1c-5.2 1.5-10.4 3.6-15.4 6.4-0.5 0.2-1.1 0.3-1.6 0.3zM342.5 628.9c-0.4 0-0.8-0.1-1.2-0.2-1.7-0.7-2.5-2.6-1.9-4.3 0.6-1.4 14-35 41-58 1.4-1.2 3.5-1 4.6 0.4 1.2 1.4 1 3.5-0.4 4.6-25.7 21.8-39 55-39.1 55.3-0.4 1.5-1.7 2.2-3 2.2zM473.8 460.8h-0.4c-1.4-0.2-2.4-1.6-2.2-3 0.1-0.4 1.7-9.9 10.3-13.6 1.3-0.6 2.9 0 3.5 1.4 0.6 1.3 0 2.9-1.4 3.5-6 2.6-7.2 9.5-7.2 9.6-0.2 1.2-1.3 2.1-2.6 2.1z" fill="#FFFFFF" /></svg>