<svg xmlns="http://www.w3.org/2000/svg" viewBox="0 0 1024 1024" width="200" height="200"><path d="M554.052267 112.469333l3.242666 1.911467 2.56 1.297067 4.983467 3.106133 325.154133 248.2176c33.348267 27.306667 39.799467 75.776 12.765867 113.5616-14.848 17.408-34.133333 28.808533-55.739733 30.583467l-5.973334 0.238933h-52.189866v109.738667l13.994666-4.539734c28.842667-8.9088 46.557867-10.717867 65.877334-2.9696l4.8128 2.1504 4.642133 2.3552c17.476267 8.772267 30.8224 24.9856 38.843733 46.626134 13.960533 44.032-5.12 84.309333-37.000533 106.018133l-4.642133 2.9696-0.2048-0.341333-18.090667 10.922666-30.208 17.237334-45.056 24.917333-32.392533 17.544533-24.132267 12.834134-37.512533 19.524266-13.312 6.724267-17.5104 8.567467-9.591467 4.471466-7.714133 3.345067c-34.986667 14.267733-69.051733 20.3776-104.584534 21.777067l-11.8784 0.341333h-13.550933c-8.2944 0-16.554667-0.785067-24.507733-2.048l-3.9936-0.682667-4.608-0.955733-333.892267-54.954667c-18.909867-4.744533-31.470933-20.343467-34.577067-39.287466l-0.580266-4.8128-0.170667-4.573867v-149.9136c0-25.156267 17.681067-46.8992 43.076267-49.390933l4.846933-0.2048h71.850667v-105.028267h-42.325334c-40.448 0-73.6256-28.535467-80.9984-68.164267l-0.887466-5.7344L102.4 430.455467c0-20.548267 7.714133-39.7312 20.957867-55.125334l4.642133-4.983466 3.618133-3.618134 5.393067-2.730666 326.382933-242.858667a80.520533 80.520533 0 0 1 90.658134-8.669867zM295.3216 683.008H175.616l-0.068267 116.155733 315.392 52.0192 0.7168 0.136534a91.101867 91.101867 0 0 0 13.7216 1.8432l4.3008 0.136533h12.731734c30.958933-0.341333 56.9344-4.437333 81.169066-13.038933l9.0112-3.413334 6.007467-2.594133 8.3968-3.8912 16.725333-8.192 12.629334-6.382933 36.898133-19.182934 23.722667-12.629333 31.812266-17.2032 44.270934-24.507733 28.910933-16.4864 14.677333-8.738134 8.533334-5.563733 1.4336-1.2288a22.8352 22.8352 0 0 0 7.133866-18.6368l-0.682666-3.072c-1.9456-5.3248-3.754667-7.953067-5.12-9.079467l-0.750934-0.512-3.618133-1.911466-3.413333 0.341333-5.154134 1.058133-6.9632 1.877334-4.164266 1.2288-103.253334 33.3824v-271.837867l120.490667 0.034133c1.365333 0 3.2768-0.7168 5.700267-2.730666l1.774933-1.7408 0.6144-0.9216c3.2768-6.212267 2.935467-11.844267 0.682667-15.086934l-1.297067-1.365333-322.4576-246.203733-1.297067-0.8192-0.1024 0.170666-2.116266-1.297066-2.048-1.1264c-4.164267-1.9456-8.430933-1.570133-13.653334 1.911466l-333.243733 247.9104-0.989867 1.467734a15.291733 15.291733 0 0 0-1.774933 4.778666l-0.034133 0.580267 0.443733 2.1504a13.653333 13.653333 0 0 0 10.786133 10.4448l2.696534 0.238933h110.592L295.3216 614.4H494.933333a85.333333 85.333333 0 1 1 0 170.666667H409.6a34.133333 34.133333 0 0 1-3.9936-68.027734L409.6 716.8h85.333333a17.066667 17.066667 0 0 0 3.072-33.860267L494.933333 682.666667H295.3216v0.341333z" fill="#0E87F7" /><path d="M392.192 607.573333c13.1072-1.501867 22.3232-3.8912 27.648-7.168 12.288-7.168 15.701333-18.773333 15.701333-40.618666v-73.045334l8.874667-2.2528a25.668267 25.668267 0 0 0 19.114667-28.296533l-1.365334-10.0352a11.639467 11.639467 0 0 0-14.165333-9.762133 10.171733 10.171733 0 0 1-12.458667-9.898667v-14.506667a15.018667 15.018667 0 0 1 15.018667-15.018666 15.018667 15.018667 0 0 0 15.018667-15.018667v-15.701333a15.018667 15.018667 0 0 0-15.018667-15.018667 15.018667 15.018667 0 0 1-15.018667-15.018667v-24.064a23.722667 23.722667 0 0 0-47.445333 0v21.674667a17.408 17.408 0 0 1-17.408 17.408 17.408 17.408 0 0 0-17.408 17.408v10.922667c0 9.6256 7.7824 17.408 17.408 17.408a17.408 17.408 0 0 1 17.408 17.408v15.496533c0 11.605333-8.192 21.640533-19.626667 23.927467a18.909867 18.909867 0 0 0-14.609066 23.313066l1.1264 4.334934c3.413333 13.175467 16.725333 21.162667 29.969066 17.988266l3.140267-0.750933v61.098667c0 4.437333-1.365333 5.802667-5.802667 5.802666h-9.147733a13.448533 13.448533 0 0 0-12.970667 17.237334l1.297067 4.437333a28.603733 28.603733 0 0 0 30.72 20.309333z m198.997333-18.261333V508.586667a10.922667 10.922667 0 0 1 10.922667-10.922667h6.075733a34.133333 34.133333 0 0 1 9.5232 1.365333l20.5824 5.973334a19.7632 19.7632 0 0 0 25.258667-18.978134V341.333333a34.133333 34.133333 0 0 0-34.133333-34.133333h-122.197334a34.133333 34.133333 0 0 0-34.133333 34.133333v145.851734a18.6368 18.6368 0 0 0 24.064 17.8176l19.182933-5.870934a34.133333 34.133333 0 0 1 9.966934-1.467733h6.519466a11.605333 11.605333 0 0 1 11.605334 11.605333v80.042667a23.381333 23.381333 0 1 0 46.762666 0z m-58.368-209.408a11.605333 11.605333 0 0 1-11.605333-11.605333v-4.437334a11.605333 11.605333 0 0 1 23.210667 0v4.437334a11.605333 11.605333 0 0 1-11.605334 11.605333z m69.290667 0a10.922667 10.922667 0 0 1-10.922667-10.922667v-5.802666a10.922667 10.922667 0 0 1 21.845334 0v5.802666a10.922667 10.922667 0 0 1-10.922667 10.922667z m0 73.045333a10.922667 10.922667 0 0 1-10.922667-10.922666v-6.485334a10.922667 10.922667 0 0 1 21.845334 0v6.485334a10.922667 10.922667 0 0 1-10.922667 10.922666z m-69.290667 0a11.605333 11.605333 0 0 1-11.605333-11.605333v-5.12a11.605333 11.605333 0 0 1 23.210667 0v5.12a11.605333 11.605333 0 0 1-11.605334 11.605333z" fill="#BD1B2D" /></svg>