<svg xmlns="http://www.w3.org/2000/svg" viewBox="0 0 1082 1024" width="200" height="200"><path d="M82.421586 510.400569C81.461992 793.054423 299.183293 1023.570315 568.935933 1023.570315h-82.418495C217.937636 1022.717342-0.956502 791.56172 0.003092 510.080705 0.962686 228.599689 221.56277-0.956609 490.462437 0.002985h82.09863C302.915049-0.636744 83.487802 227.746716 82.421586 510.400569z" fill="#E8C6BC" /><path d="M562.858502 1023.570315h6.077431a492.805021 492.805021 0 0 1-50.432016-2.66554 381.065587 381.065587 0 0 0 44.354585 2.66554zM566.483636 0.002985A379.466263 379.466263 0 0 0 522.448917 2.668525C538.762021 1.069201 555.608233 0.002985 572.561067 0.002985z" fill="#F7DCD2" /><path d="M518.503917 1021.331261a404.095852 404.095852 0 0 1-337.88384-279.455205l-22.603778-39.343369a82.844981 82.844981 0 0 1 4.264863-93.187276l0.63973-197.143332a83.058224 83.058224 0 0 1-2.985405-93.293897l22.817022-39.236748A404.309095 404.309095 0 0 1 522.448917 2.668525a511.783665 511.783665 0 0 0-3.731756 1018.662736z" fill="#FFF2E9" /><path d="M182.219401 279.671434l17.37932-29.747426c29.534182-50.75188 94.999843-59.174986 126.026728-16.206482L395.569216 330.529936a75.381469 75.381469 0 0 1-69.304038 118.989702l-118.669837-13.007835a65.359039 65.359039 0 0 1-44.674449-24.309724l-0.63973 197.143332a65.039174 65.039174 0 0 1 44.781071-24.096481l118.776459-12.154862A75.381469 75.381469 0 0 1 394.503 693.043365l-70.690118 95.959437c-31.240128 42.648639-96.705788 33.799046-125.920106-17.059456l-17.059456-29.960668a404.095852 404.095852 0 0 0 337.670597 279.348583 492.805021 492.805021 0 0 0 50.432016 2.66554A511.783665 511.783665 0 1 0 572.561067 0.002985c-16.952834 0-33.799046 1.066216-50.11215 2.66554a404.309095 404.309095 0 0 0-340.229516 277.002909z m565.094463 52.137961l70.690119-95.959437c31.240128-42.648639 96.705788-33.799046 125.920106 17.166077l39.663234 69.304038c29.107696 50.965123 3.625134 111.846055-49.045935 117.283756L815.658308 451.225583a75.274847 75.274847 0 0 1-68.451065-119.416188z m68.024579 242.990619l118.669837 13.007835c52.671069 5.757566 77.727144 66.958363 48.192962 117.283756l-40.196342 68.984173c-29.534182 50.75188-94.999843 59.174986-126.026727 16.313105L746.35427 693.789716a75.381469 75.381469 0 0 1 68.877551-118.989702zM532.471347 59.391215h79.859576c58.641878 0 98.731599 52.77769 76.980793 101.077274l-48.832692 109.180515a75.381469 75.381469 0 0 1-137.648481-0.533108L454.637581 159.935381c-21.324319-48.619448 19.085266-100.757409 77.833766-100.544166z m93.613762 453.035165a55.336609 55.336609 0 1 1-55.123366-55.656474 55.336609 55.336609 0 0 1 55.123366 55.656474zM452.185284 863.63792L501.124597 754.777269a75.274847 75.274847 0 0 1 137.648482 0l48.192961 109.287137c21.324319 48.512827-19.085266 100.757409-77.833765 100.544166h-79.859576c-58.7485-0.106622-98.83822-52.564447-77.087415-100.970652z" fill="#FFF2E9" /><path d="M182.219401 279.671434L159.935487 318.908182a83.058224 83.058224 0 0 0 3.518513 93.293897V400.900189a400.150853 400.150853 0 0 1 18.765401-121.228755z" fill="#FFF2E9" /><path d="M602.841601 746.354163l48.192961 109.287137c21.324319 48.512827-19.085266 100.757409-77.833765 100.544166H490.462437a91.801195 91.801195 0 0 0 38.810262 8.636349h79.859576c58.7485 0 99.158085-52.031339 77.833765-100.544166L638.666457 755.203756a74.635118 74.635118 0 0 0-69.517281-44.994314A73.355659 73.355659 0 0 1 602.841601 746.354163zM946.269764 696.881742L906.286665 765.865915a85.297277 85.297277 0 0 1-69.197416 43.714855c33.692425 19.191887 81.139035 5.864188 105.022273-35.185127l40.196342-68.984173c29.534182-50.75188 4.478107-111.846055-48.192962-117.283756L921.96004 586.421768c35.611613 18.765401 48.939313 68.1312 24.309724 110.459974zM907.992611 244.059821l39.663234 69.304037c29.107696 50.858502 3.625134 111.846055-49.045935 117.283757l-118.776459 12.04824h-7.037025a74.635118 74.635118 0 0 0 42.648639 8.103242l118.776458-12.154862c52.671069-5.33108 78.15363-66.318633 49.045935-117.283757l-39.663234-69.304038a84.550926 84.550926 0 0 0-73.035794-44.354584 89.988628 89.988628 0 0 1 37.424181 36.357965zM653.486859 152.045382l-48.832691 108.967272a74.635118 74.635118 0 0 1-68.131201 44.461206 75.274847 75.274847 0 0 0 103.956057-35.931478l48.832692-108.967272c21.324319-47.446611-16.952834-98.944842-73.995389-100.86403 35.611613 16.846212 54.590258 55.763095 38.170532 92.334302zM289.800592 225.187798l69.943768 96.81241a75.381469 75.381469 0 0 1-69.304038 118.989702l-106.621597-11.728376a65.892147 65.892147 0 0 0 23.883238 7.250269l118.563215 13.007835A75.381469 75.381469 0 0 0 395.569216 330.529936l-69.943767-96.81241a65.785525 65.785525 0 0 0-56.829311-27.614994 67.064984 67.064984 0 0 1 21.004454 19.085266zM332.875717 572.667582a75.488091 75.488091 0 0 1 25.589184 111.312947l-70.690119 95.959437a65.572282 65.572282 0 0 1-53.310799 27.188507 68.877552 68.877552 0 0 0 89.135655-18.125671L394.503 693.043365a75.381469 75.381469 0 0 0-61.627283-120.375783zM570.961743 456.769906h-6.077431a55.336609 55.336609 0 0 1-24.096481 101.610382 55.336609 55.336609 0 1 0 30.173912-101.930247z" fill="#E5C6B1" /></svg>