<svg xmlns="http://www.w3.org/2000/svg" viewBox="0 0 1024 1024" width="200" height="200"><path d="M104.6 146.66h591.55v591.55H104.6z" fill="#085647" /><path d="M664.42 146.66L104.6 706.48V555.86l409.2-409.2h150.62zM480.7 146.66l-376.1 376.1v-40.91l335.19-335.19h40.91z" fill="#F9E8F9" opacity=".54" /><path d="M134.14 176.2h532.47v532.47H134.14z" fill="#0F6857" /><path d="M458.68 525.65c-11.45 12.55-26.5 32.21-41.85 53.46-42.22 23.64-89.48 39.38-91.83 40.16 56.79-76.49 107.26-91.74 133.68-93.62zM469.54 524.83s45.26 67.77-120.19 183.4c0 0 100.33-180.99 120.19-183.4zM526.31 420.93s-52.06-27-135.27 35c-0.04 0.07 106.54-4.72 135.27-35z" fill="#15473D" /><path d="M530.8 424.66s-13.8-50.21-111.2-61.92c0 0 71.19 63.66 111.2 61.92zM508.73 705.5c-25.43-46.24-34.65-82.94-36.22-110.65 6.74-21.25 8.19-38.15 7-51.22 4.21-10.85 8.66-16.07 8.66-16.07 35.34 45.26 20.56 177.94 20.56 177.94zM472.51 519.06s-29-59.74-221.92 1.12c0 0 208.2 11.16 221.92-1.12z" fill="#15473D" /><path d="M492.75 505.4s58.79 7.46 54 174.08c0.05 0-61.21-160.2-54-174.08zM563 337.71l-83.57 162.54s-21.75-5.73-11.45 0 19.17 10.16 19.17 10.16S563 344.57 571 344.57s11.88-3.29 8-3.5-16-3.36-16-3.36zM574.17 483.3c5.54 8.47 14.5 20.13 24.26 32.23C607 543 610.84 571.92 611 573.36c-35-44.36-38.3-75.04-36.83-90.06zM574.74 477.12s39.92-13.88 85.43 97.55c0 0-86.01-86.09-85.43-97.55z" fill="#15473D" /><path d="M673.57 485.48c-26.73 6.43-46.92 5.44-61.66 1.68-10.57-7.3-19.34-10.93-26.33-12.46a39.9 39.9 0 0 1-7.66-7.51c27.13-12.1 95.65 18.29 95.65 18.29zM572 474.5s-34.17 6.18-20.07 123.73c-0.02 0 25.25-114.04 20.07-123.73z" fill="#15473D" /><path d="M566.67 461s9.4-31.49 96.73-1c0-0.06-90.09 7.28-96.73 1zM484.88 393.84l77.84 73.67s-5 11.15-1.07 6.37 7.14-9 7.14-9-80.3-69.92-79.55-74.38-0.63-7.16-1.1-5a78.23 78.23 0 0 1-3.26 8.34z" fill="#15473D" /><path d="M634.88 176.2L134.14 676.94V526.32L484.26 176.2h150.62zM451.16 176.2L134.14 493.22v-40.91L410.25 176.2h40.91z" fill="#F9E8F9" opacity=".28" /><path d="M922.85 727.53a181.5 181.5 0 0 0-27.05-95.84l-34 7.72 11.4-36.87c-30.61-31.95-72.89-51.72-119.59-51.72-50.25 0-95.4 22.9-126.36 59.22l9.09 29.37-26-5.92A183 183 0 0 0 620.82 837l31.18-6.31-10 29.59c29.8 27.36 68.9 44 111.65 44a164.19 164.19 0 0 0 104.63-37.82l-12-35.72 39 7.85a180.47 180.47 0 0 0 37.57-111.06zM754 782.46c12.65-0.05 23.41-6.56 28-15.83a4 4 0 0 1 0.09 1c0 9.78-12.91 17.71-28.9 17.8s-29-7.76-29.07-17.54a12 12 0 0 1 0.68-3.82c3.6 10.67 15.35 18.43 29.2 18.39z m-120.19-93.74c0-20 22-36.19 49.27-36.19s49.22 16.21 49.22 36.19-22 36.15-49.22 36.15-49.27-16.21-49.27-36.15z m121 159.13c-27.27 0-49.39-9.57-49.39-21.36s22.12-21.31 49.39-21.31 49.44 9.52 49.44 21.31-22.12 21.36-49.44 21.36z m64.53-123c-27.18 0-49.26-16.21-49.26-36.15s22.08-36.19 49.26-36.19 49.27 16.21 49.27 36.19-22.04 36.17-49.27 36.17z" fill="#257F6E" /></svg>