<svg xmlns="http://www.w3.org/2000/svg" viewBox="0 0 1024 1024" width="200" height="200"><path d="M468.237 565.337l6.65 0.009 9.404 0.023 5.908 0.023 9.69 0.056 6.447 0.054 4.894 0.052 4.674 0.06 5.554 0.089 4.228 0.081 4.05 0.092 3.889 0.102 4.65 0.143 2.69 0.095 2.62 0.1 2.556 0.109 1.672 0.076 3.272 0.162 1.604 0.086 3.153 0.182 2.323 0.146 2.293 0.154 1.515 0.107 2.255 0.168 2.241 0.177 2.232 0.186 2.62 0.23c0.753 0.068 1.502 0.138 2.246 0.21l2.22 0.22 1.1 0.115 2.181 0.237c0.723 0.08 1.441 0.163 2.155 0.247l2.13 0.258 2.106 0.27 2.081 0.28 2.058 0.292c22.505 3.275 40.785 8.659 57.535 17.196a202.643 202.643 0 0 1 88.539 88.573c8.66 17.006 14.075 35.59 17.333 58.573l0.286 2.07c0.14 1.041 0.277 2.091 0.408 3.15l0.258 2.131c0.084 0.715 0.167 1.433 0.247 2.156l0.237 2.181 0.226 2.208 0.109 1.113 0.21 2.248 0.166 1.876 0.25 2.976 0.176 2.242 0.168 2.257 0.107 1.515 0.154 2.294 0.146 2.323 0.182 3.154 0.086 1.605 0.083 1.626 0.117 2.48 0.146 3.397 0.133 3.51 0.122 3.635 0.057 1.87 0.104 3.85 0.094 4.012 0.084 4.184 0.074 4.37 0.08 5.747 0.054 4.84 0.046 5.07 0.055 8.066 0.04 8.659 0.021 7.701 0.019 11.576V896c0 17.673-14.327 32-32 32H86c-17.673 0-32-14.327-32-32v-35.854l0.01-10.12 0.025-10.942 0.036-8.691 0.05-8.1 0.044-5.095 0.065-6.046 0.078-5.712 0.053-3.278 0.08-4.208 0.09-4.032 0.099-3.87 0.054-1.88 0.116-3.652 0.094-2.654 0.1-2.587 0.109-2.525 0.154-3.28 0.125-2.403 0.178-3.136 0.19-3.072 0.154-2.27 0.16-2.245 0.113-1.487 0.175-2.22 0.247-2.945 0.165-1.87 0.21-2.247 0.11-1.113 0.225-2.208 0.237-2.181 0.247-2.156 0.258-2.13 0.133-1.057 0.275-2.094 0.286-2.07c3.259-22.983 8.673-41.567 17.335-58.574a202.638 202.638 0 0 1 88.538-88.572c14.719-7.502 30.62-12.57 49.532-15.91l1.967-0.34c1.978-0.333 3.989-0.649 6.035-0.946l2.057-0.292 2.082-0.28 2.105-0.27 2.13-0.258a348.5 348.5 0 0 1 3.243-0.367l2.194-0.231 1.107-0.112 2.233-0.215c0.749-0.07 1.502-0.139 2.26-0.206l0.743-0.065 2.23-0.188 2.237-0.18 2.25-0.17 2.27-0.163 2.292-0.154 2.323-0.146 3.153-0.182 1.604-0.086 3.272-0.162 1.672-0.076 2.556-0.108 2.62-0.101 3.602-0.125 3.738-0.113 1.924-0.052 3.969-0.097 4.137-0.087 4.322-0.076 4.518-0.067 5.944-0.072 5.009-0.048 3.914-0.031 6.838-0.042 8.759-0.037 7.79-0.02 8.264-0.012h124.724z m-1.899 63.999H345.417l-6.497 0.007-12.1 0.029-8.34 0.037-7.76 0.051-4.87 0.043-4.642 0.05-4.427 0.058-5.25 0.084-3.007 0.057-3.854 0.084-3.688 0.093-3.535 0.103-2.557 0.084-2.483 0.09-2.414 0.096-3.12 0.138-2.273 0.11-2.95 0.159-2.872 0.17-2.804 0.184-2.066 0.146-1.363 0.101-2.026 0.159-1.34 0.11-2.945 0.256-0.935 0.086-1.846 0.178-1.813 0.185-0.895 0.095-1.767 0.196-1.736 0.204-1.706 0.212-0.842 0.108-1.661 0.224-0.82 0.114-1.619 0.236-0.798 0.12-1.577 0.248c-1.042 0.168-2.066 0.34-3.072 0.52l-1.497 0.272c-1.236 0.231-2.446 0.47-3.63 0.72l-1.41 0.303c-0.465 0.102-0.927 0.206-1.385 0.312l-1.362 0.32-0.673 0.165-1.328 0.335c-7.685 1.98-14.253 4.435-20.18 7.456a138.637 138.637 0 0 0-60.573 60.599 85.112 85.112 0 0 0-1.984 4.173l-0.47 1.079a91.438 91.438 0 0 0-1.343 3.33l-0.427 1.142a107.348 107.348 0 0 0-2.712 8.516l-0.35 1.296-0.338 1.319c-0.391 1.55-0.763 3.146-1.116 4.791l-0.299 1.423-0.146 0.72-0.286 1.46a186.63 186.63 0 0 0-1.056 6.095l-0.244 1.591c-0.08 0.536-0.158 1.075-0.235 1.62l-0.227 1.648a243.4 243.4 0 0 0-0.11 0.835l-0.216 1.692-0.105 0.857-0.204 1.737-0.099 0.88-0.192 1.783-0.094 0.903-0.181 1.83-0.174 1.864-0.142 1.61-0.224 2.677-0.107 1.349-0.153 2.041-0.098 1.375-0.141 2.087-0.177 2.838-0.124 2.175-0.118 2.222-0.075 1.51-0.106 2.311-0.1 2.372-0.094 2.437-0.088 2.508-0.108 3.464-0.098 3.611-0.068 2.813-0.1 4.902-0.07 4.128-0.063 4.325-0.054 4.535-0.056 5.981-0.054 7.67-0.05 11.127-0.023 10.653L118 864h575.749v-8.703l-0.032-15.218-0.033-8.309-0.038-6.488-0.048-6.116-0.046-4.64-0.083-6.567-0.083-5.136-0.056-2.946-0.082-3.778-0.09-3.618-0.075-2.616-0.08-2.538-0.116-3.27-0.062-1.59-0.13-3.095-0.143-2.995-0.114-2.186-0.08-1.432-0.168-2.808-0.134-2.064-0.19-2.705-0.15-2-0.159-1.98-0.11-1.31-0.198-2.264-0.174-1.863-0.09-0.92-0.185-1.814-0.095-0.896-0.196-1.768-0.204-1.736c-0.07-0.574-0.14-1.143-0.211-1.707l-0.22-1.677-0.227-1.648c-0.038-0.273-0.077-0.544-0.117-0.814l-0.239-1.605c-0.122-0.796-0.246-1.581-0.374-2.356l-0.26-1.537c-0.132-0.762-0.267-1.514-0.406-2.256l-0.28-1.472c-0.144-0.73-0.29-1.45-0.439-2.16l-0.303-1.41c-0.102-0.467-0.206-0.929-0.312-1.387l-0.32-1.363-0.165-0.673-0.335-1.33c-0.509-1.977-1.05-3.88-1.623-5.718l-0.387-1.215-0.397-1.197-0.407-1.178a93.515 93.515 0 0 0-2.188-5.632l-0.469-1.079a85.105 85.105 0 0 0-1.984-4.173 138.642 138.642 0 0 0-60.573-60.599c-5.928-3.021-12.496-5.476-20.18-7.456l-1.33-0.335-0.672-0.164-1.362-0.321c-0.458-0.106-0.92-0.21-1.386-0.312l-1.409-0.303a163.656 163.656 0 0 0-3.63-0.72l-1.497-0.272c-1.006-0.18-2.03-0.352-3.072-0.52l-1.577-0.248c-0.53-0.08-1.065-0.16-1.604-0.239l-1.633-0.231-1.661-0.224c-0.56-0.073-1.123-0.144-1.691-0.215l-1.721-0.208-1.751-0.2-1.783-0.192-1.813-0.185-0.92-0.09-1.861-0.174-0.943-0.084-2.001-0.172-1.341-0.11-1.349-0.107-2.04-0.153-2.762-0.193-2.82-0.18-2.16-0.127-2.95-0.158-2.273-0.111-3.12-0.138-2.414-0.096-2.483-0.09-2.557-0.084-3.534-0.103-3.688-0.093-2.875-0.064-3.987-0.077-3.112-0.052-4.324-0.062-4.532-0.054-7.219-0.067-7.759-0.051-8.34-0.037-5.905-0.017-12.69-0.019z m495.285-417.301c12.374 12.37 12.502 32.351 0.38 44.877l-0.371 0.378-105.337 105.376 105.337 105.378c12.37 12.374 12.489 32.356 0.362 44.877l-0.371 0.378c-12.374 12.369-32.356 12.489-44.878 0.362l-0.377-0.371-127.95-128c-12.366-12.371-12.49-32.346-0.37-44.87l0.37-0.376 127.95-128c12.494-12.5 32.756-12.504 45.255-0.01zM405.875 96c100.118 0 181.275 81.189 181.275 181.333 0 100.145-81.157 181.334-181.275 181.334-100.118 0-181.275-81.189-181.275-181.334C224.6 177.188 305.757 96 405.875 96z m0 64C341.109 160 288.6 212.53 288.6 277.333c0 64.805 52.508 117.334 117.275 117.334s117.275-52.53 117.275-117.334S470.641 160 405.875 160z" fill="#000000" /></svg>