<svg xmlns="http://www.w3.org/2000/svg" viewBox="0 0 1455 1024" width="200" height="200"><path d="M1294.206152 569.896788c22.570492-4.471206 42.320484-16.403087 57.046869-32.903657C1412.004231 515.644423 1455.741464 457.876182 1455.741464 389.930749c0-68.07541-43.893205-125.941133-104.826383-147.172862C1331.88646 221.558652 1304.545816 207.963066 1273.773781 207.963066H701.849353c-31.272446 0-58.944532 14.031008-77.98615 35.769648 15.987161 18.261757 26.021379 41.872064 26.021379 68.036417v156.323237c0 26.151356-10.027719 49.735667-26.021379 67.984426 19.041618 21.784131 46.7332 35.821638 77.98615 35.821638h239.696931c12.464786 13.836043 20.282898 31.935328 20.282897 51.990767 0 43.002863-34.983287 77.98615-77.986149 77.98615v51.990766c71.662773 0 129.976916-58.314144 129.976916-129.976916 0-10.430648-1.546725-20.432371-3.88631-30.154645l155.718845 366.853348c22.46651 52.9266 83.497171 77.550727 136.378279 55.110212l57.982703-24.624126c52.822619-22.440515 77.531231-83.497171 55.084217-136.371781l-120.89153-284.805419zM1377.755314 457.986663V321.874836c15.967664 18.294251 25.995383 41.924054 25.995383 68.062412 0 26.151356-10.027719 49.77466-25.995383 68.062412zM766.863807 311.944599h207.963066v51.990767h-207.963066v-51.990767z m0 103.981533h207.963066v51.990767h-207.963066v-51.990767z" fill="#63B473" /><path d="M151.202147 363.935366c2.891986 8.175548 4.770153 16.832011 4.770153 25.995383 0 9.163373-1.884665 17.819835-4.770153 25.995383H285.949216v-51.990766H151.202147z" fill="#9D57C4" /><path d="M441.921516 311.769131c0-26.138358 10.027719-49.729168 25.995383-67.984427C448.849285 222.000573 421.151205 207.963066 389.930749 207.963066c-57.31982 0-103.981533 46.479745-103.981533 103.806065V468.092368C285.949216 525.444682 332.480952 571.898432 389.930749 571.898432c31.174963 0 58.866545-14.037507 77.960155-35.815139C451.923239 517.815037 441.921516 494.237225 441.921516 468.085869V311.769131z" fill="#B976DD" /><path d="M649.884582 311.769131c0-26.164353-10.027719-49.768161-26.021379-68.036417C604.79559 221.987576 577.123504 207.963066 545.903049 207.963066c-31.19446 0-58.89904 14.037507-77.98615 35.821638-15.967664 18.248759-25.995383 41.852567-25.995383 67.977928v156.329736c0 26.151356 10.001724 49.735667 25.969388 67.984426C486.958517 557.860925 514.650099 571.898432 545.903049 571.898432c31.174963 0 58.866545-14.037507 77.960154-35.815139 15.987161-18.261757 26.021379-41.839569 26.021379-67.990925V311.769131z" fill="#9D57C4" /><path d="M766.863807 311.944599h207.963066v51.990767h-207.963066zM766.863807 415.926132h207.963066v51.990767h-207.963066z" fill="#99D59D" /><path d="M151.202147 363.935366c-10.768588-30.219633-39.324516-51.990767-73.215997-51.990767-43.087348 0-77.98615 34.918299-77.98615 77.98615s34.898802 77.98615 77.98615 77.98615c33.891481 0 62.453908-21.771133 73.215997-51.990767 2.891986-8.175548 4.770153-16.832011 4.770153-25.995383 0-9.163373-1.884665-17.819835-4.770153-25.995383z" fill="#C1DB66" /><path d="M877.422172 155.9723h51.990766v51.990766h-51.990766z" fill="#535353" /><path d="M1267.144958 155.9723c43.282313 0 78.194113-34.918299 78.194113-77.98615 0-42.976867-35.009282-77.98615-78.194113-77.98615h-519.498238c-43.282313 0-78.187614 34.918299-78.187614 77.98615 0 42.976867 35.002784 77.98615 78.181115 77.98615h519.504737z" fill="#FF427A" /></svg>