<svg xmlns="http://www.w3.org/2000/svg" viewBox="0 0 1024 1024" width="200" height="200"><path d="M0 160h1024v864H0z" fill="#CCA071" /><path d="M700.8 107.2c12.8-25.6 1.6-57.6-24-68.8 0 0-1.6 0-1.6-1.6-38.4-17.6-102.4-4.8-195.2 6.4-76.8 9.6-129.6 30.4-147.2 46.4-11.2 9.6-41.6 36.8-51.2 147.2-12.8 131.2 6.4 169.6 12.8 185.6 17.6 51.2 35.2 108.8 60.8 120 124.8 60.8 265.6 72 332.8-6.4 14.4-17.6 24-51.2 38.4-102.4 17.6-59.2 27.2-121.6 28.8-184 0-76.8-3.2-94.4-19.2-115.2-11.2-14.4-22.4-24-35.2-27.2z" fill="#7F4500" /><path d="M544 593.6c-62.4 0-132.8-19.2-193.6-49.6-24-11.2-43.2-62.4-62.4-121.6 0-1.6-1.6-3.2-1.6-4.8-6.4-19.2-22.4-62.4-11.2-182.4 11.2-112 43.2-139.2 52.8-148.8 19.2-17.6 73.6-38.4 150.4-48C496 36.8 512 35.2 528 32c68.8-9.6 116.8-14.4 148.8 0 0 0 1.6 0 1.6 1.6 12.8 6.4 24 17.6 28.8 32 4.8 12.8 4.8 25.6-1.6 38.4 12.8 4.8 24 14.4 30.4 25.6 16 22.4 19.2 40 19.2 118.4-1.6 62.4-11.2 124.8-28.8 185.6-14.4 51.2-24 86.4-38.4 104-35.2 40-86.4 56-144 56zM625.6 32c-25.6 0-59.2 4.8-97.6 9.6-14.4 1.6-30.4 3.2-48 6.4-75.2 9.6-128 28.8-145.6 44.8-9.6 9.6-40 35.2-51.2 144-11.2 118.4 4.8 161.6 11.2 179.2 0 1.6 1.6 3.2 1.6 4.8 14.4 44.8 35.2 105.6 57.6 118.4 113.6 56 259.2 75.2 326.4-6.4 14.4-16 24-52.8 36.8-100.8 17.6-59.2 27.2-121.6 28.8-182.4 0-75.2-3.2-92.8-17.6-113.6-6.4-11.2-17.6-20.8-30.4-24l-4.8-1.6 1.6-4.8c6.4-11.2 6.4-24 1.6-36.8-4.8-12.8-12.8-22.4-24-27.2 0 0-1.6 0-1.6-1.6-9.6-6.4-25.6-8-44.8-8z" fill="#3F2100" /><path d="M537.6 404.8h-44.8c-56 0-100.8 44.8-102.4 100.8l-35.2 403.2c0 56 80 100.8 136 100.8h44.8c56 0 136-44.8 136-100.8l-32-403.2c0-56-46.4-100.8-102.4-100.8z" fill="#FFC799" /><path d="M318.4 361.6a65.6 51.2 90 1 0 102.4 0 65.6 51.2 90 1 0-102.4 0Z" fill="#FFC799" /><path d="M612.8 361.6a65.6 51.2 90 1 0 102.4 0 65.6 51.2 90 1 0-102.4 0Z" fill="#FFC799" /><path d="M536 617.6h-41.6c-36.8 0-67.2 0-70.4-36.8L368 528c-8-6.4-11.2-16-12.8-27.2l-17.6-305.6c-3.2-49.6 30.4-92.8 75.2-92.8h203.2c44.8 0 76.8 43.2 75.2 92.8l-17.6 307.2c0 11.2-4.8 20.8-12.8 27.2l-54.4 51.2c0 35.2-33.6 36.8-70.4 36.8z" fill="#FFD9B3" /><path d="M536 619.2h-41.6c-36.8 0-68.8 0-73.6-38.4L366.4 528c-8-8-12.8-17.6-12.8-28.8l-17.6-304c-1.6-27.2 8-54.4 24-72 14.4-14.4 32-22.4 51.2-22.4h203.2c19.2 0 38.4 8 52.8 22.4 17.6 17.6 25.6 44.8 24 72l-17.6 307.2c0 11.2-4.8 20.8-12.8 28.8L608 580.8c0 38.4-36.8 38.4-72 38.4zM412.8 104c-17.6 0-35.2 8-49.6 22.4-16 17.6-25.6 43.2-24 68.8l17.6 305.6c0 9.6 4.8 19.2 11.2 25.6l56 52.8c3.2 35.2 32 35.2 68.8 35.2h41.6c41.6 0 68.8-3.2 68.8-35.2v-1.6l54.4-51.2c8-6.4 11.2-16 12.8-25.6L688 195.2c1.6-25.6-6.4-51.2-24-68.8a65.6 65.6 0 0 0-49.6-22.4H412.8z" fill="#FFB273" /><path d="M376 646.4l139.2 64 139.2-64-139.2 360z" fill="#FED9FF" /><path d="M587.2 1024l-19.2-70.4-43.2-184h-19.2L464 953.6l-14.4 70.4z" fill="#BF1334" /><path d="M115.2 731.2c-14.4 4.8-25.6 14.4-32 27.2L80 768c-1.6 6.4-1.6 12.8-1.6 19.2L75.2 1024h440c-1.6-3.2-102.4-272-139.2-366.4L115.2 731.2zM955.2 1024l-4.8-236.8c1.6-8 0-14.4-1.6-22.4l-3.2-6.4c-6.4-12.8-17.6-24-32-27.2l-259.2-73.6c-33.6 91.2-139.2 363.2-139.2 366.4h440z" fill="#26063F" /><path d="M529.6 772.8l20.8-36.8c3.2-8 0-17.6-8-20.8-1.6-1.6-3.2-1.6-6.4-1.6h-43.2c-9.6 0-16 8-14.4 17.6 0 1.6 0 3.2 1.6 6.4l20.8 36.8c4.8 8 14.4 9.6 22.4 4.8l6.4-6.4z" fill="#BF1334" /><path d="M376 646.4l139.2 64-75.2 104z" fill="#FED9FF" /><path d="M440 819.2l-67.2-176 145.6 67.2-1.6 1.6-76.8 107.2z m-60.8-169.6l60.8 160 72-99.2-132.8-60.8z" fill="#FF80FF" /><path d="M654.4 646.4l-139.2 64 73.6 104z" fill="#FED9FF" /><path d="M590.4 819.2L512 708.8l145.6-67.2-67.2 177.6z m-72-108.8l70.4 99.2 62.4-160-132.8 60.8z" fill="#FF80FF" /><path d="M516.8 1022.4l136-380.8 41.6 25.6 32 112-44.8 6.4 52.8 38.4-164.8 198.4" fill="#26063F" /><path d="M571.2 1024l-3.2-3.2 163.2-195.2-54.4-41.6 48-6.4-32-108.8-40-24L518.4 1024l-3.2-1.6 136-384 44.8 27.2 1.6 1.6 32 113.6-43.2 6.4 51.2 36.8-1.6 1.6z" fill="#7200CC" /><path d="M512 1022.4l-134.4-380.8-43.2 25.6-32 112 44.8 6.4-51.2 38.4 164.8 198.4" fill="#26063F" /><path d="M459.2 1024L292.8 824l1.6-1.6 48-35.2-41.6-6.4 32-115.2 46.4-27.2 136 384-4.8 1.6-134.4-379.2-40 24-30.4 108.8 46.4 6.4-52.8 41.6 163.2 195.2z" fill="#7200CC" /><path d="M345.6 88c105.6-1.6 158.4-20.8 201.6-40 33.6-16 72-22.4 108.8-14.4 17.6 1.6 32 11.2 41.6 27.2 6.4 19.2 4.8 38.4-1.6 57.6-11.2 24-49.6 48-80 51.2-108.8 17.6-161.6 22.4-195.2 19.2-78.4-4.8-96-16-108.8-41.6-8-16 20.8-41.6 33.6-59.2z" fill="#7F4500" /><path d="M361.6 126.4c17.6 4.8 19.2 62.4 20.8 121.6 0 30.4-1.6 54.4-1.6 70.4-9.6 4.8-24 12.8-40 22.4-12.8 8-25.6 14.4-40 19.2-20.8-3.2-20.8-89.6 1.6-156.8 12.8-38.4 43.2-81.6 59.2-76.8zM672 126.4c-17.6 4.8-19.2 62.4-19.2 121.6 0 30.4 0 54.4 1.6 70.4 9.6 4.8 24 12.8 40 22.4 9.6 6.4 19.2 11.2 30.4 14.4 20.8-3.2 30.4-83.2 8-150.4-14.4-40-43.2-83.2-60.8-78.4z" fill="#7F4500" /><path d="M184 1024c-3.2-43.2-11.2-84.8-25.6-126.4-17.6-51.2-41.6-99.2-73.6-144l6.4-4.8c32 44.8 56 94.4 73.6 145.6 14.4 41.6 22.4 84.8 25.6 128l-6.4 1.6z" fill="#7200CC" /><path d="M844.8 1024h-8c3.2-43.2 11.2-86.4 25.6-128 17.6-52.8 41.6-100.8 73.6-145.6l6.4 4.8c-30.4 44.8-56 92.8-72 144-12.8 40-22.4 81.6-25.6 124.8z" fill="#7200CC" /><path d="M368 107.2v-3.2c49.6-3.2 99.2-12.8 147.2-28.8 11.2-3.2 24-8 36.8-12.8 32-12.8 68.8-27.2 104-24v3.2c-33.6-4.8-68.8 11.2-102.4 24-12.8 4.8-25.6 11.2-36.8 14.4-48 14.4-97.6 24-148.8 27.2z" fill="#3F2100" /><path d="M296 379.2l-3.2-3.2c20.8-20.8 38.4-44.8 49.6-72 8-17.6 12.8-36.8 16-56h3.2c-3.2 19.2-8 38.4-16 57.6-11.2 28.8-27.2 52.8-49.6 73.6z" fill="#3F2100" /><path d="M729.6 364.8c-40-25.6-65.6-70.4-67.2-118.4h3.2c1.6 46.4 27.2 89.6 65.6 115.2l-1.6 3.2z" fill="#3F2100" /></svg>