<svg xmlns="http://www.w3.org/2000/svg" viewBox="0 0 1024 1024" width="200" height="200"><path d="M389.89 424.12c-6.7-6.7-6.7-17.67 0-24.38l104.73-104.73c6.7-6.7 17.67-6.7 24.38 0l104.73 104.73c5.52 5.52 6.5 13.94 2.92 20.48" fill="#46BCB6" /><path d="M384.23 429.78c-9.84-9.84-9.84-25.85 0-35.69l104.73-104.73c9.84-9.84 25.85-9.84 35.69 0l104.73 104.73c7.87 7.87 9.63 20.19 4.28 29.98l-14.04-7.67c1.96-3.59 1.32-8.11-1.56-10.99L513.34 300.66c-3.6-3.6-9.46-3.6-13.06 0L395.54 405.4c-3.6 3.6-3.6 9.46 0 13.07l-11.31 11.31z" fill="#752323" /><path d="M506.26 295.15c-0.13-0.02 0.01 0.87 0.03 2.09 0.23 13.1 1.54 82.56 1.54 82.56s89.91 16.3 109.37 29.44c19.46 13.15-70.97-106.73-110.94-114.09z" fill="#05443F" opacity=".1" /><path d="M571.33 375.95h-68.96c-6.73 0-12.23-5.5-12.23-12.23v-3.76c0-6.73 5.5-12.23 12.23-12.23h68.96c6.73 0 12.23 5.5 12.23 12.23v3.76c0 6.73-5.5 12.23-12.23 12.23z" fill="#05443F" opacity=".1" /><path d="M521.57 350.27h-7.29c-13.03 0-23.7-10.66-23.7-23.7v-7.29c0-13.03 10.66-23.7 23.7-23.7h7.29c13.03 0 23.7 10.66 23.7 23.7v7.29c-0.01 13.04-10.67 23.7-23.7 23.7z" fill="#05443F" opacity=".1" /><path d="M505.96 772.05c-106.32 0-192.79-86.46-192.79-192.79s86.46-192.79 192.79-192.79 192.79 86.46 192.79 192.79c0.01 106.33-86.46 192.79-192.79 192.79z" fill="#EB7E91" /><path d="M653.1 345.3a8.002 8.002 0 0 1-5.94-13.36l45.17-50.08a8.002 8.002 0 0 1 11.88 10.72l-45.17 50.08a7.954 7.954 0 0 1-5.94 2.64zM595.46 279.98c-0.95 0-1.92-0.17-2.86-0.53a7.993 7.993 0 0 1-4.61-10.33l24.09-62.99a7.993 7.993 0 0 1 10.33-4.61 7.993 7.993 0 0 1 4.61 10.33l-24.09 62.99a8.005 8.005 0 0 1-7.47 5.14zM356.44 346.56a7.97 7.97 0 0 1-5.94-2.64l-45.17-50.08a8.002 8.002 0 0 1 11.88-10.72l45.17 50.08a8.002 8.002 0 0 1-5.94 13.36zM416.19 277.55c-3.22 0-6.25-1.96-7.47-5.14l-24.09-62.99a8.002 8.002 0 0 1 4.61-10.33c4.13-1.58 8.75 0.49 10.33 4.61l24.09 62.99a8.002 8.002 0 0 1-7.47 10.86zM507.42 251.02c-4.41 0-7.99-3.57-8-7.99l-0.12-67.44a7.991 7.991 0 0 1 7.99-8.01h0.02c4.41 0 7.99 3.57 8 7.99l0.12 67.44a7.991 7.991 0 0 1-7.99 8.01h-0.02z" fill="#752323" /><path d="M389.02 492.66l-1.61-1.03c-2.88-1.85-3.73-5.72-1.88-8.6l7.66-11.94c1.85-2.88 5.72-3.73 8.6-1.88l1.61 1.03c2.88 1.85 3.73 5.72 1.88 8.6l-7.66 11.94c-1.84 2.89-5.71 3.73-8.6 1.88z" fill="#FFFFFF" opacity=".7" /><path d="M392.37 495.65c-1.52 0-3.06-0.42-4.43-1.3l-1.61-1.03a8.182 8.182 0 0 1-3.59-5.17 8.195 8.195 0 0 1 1.1-6.2l7.66-11.94c2.45-3.82 7.55-4.93 11.37-2.48l1.61 1.03c1.84 1.18 3.12 3.02 3.59 5.17s0.08 4.35-1.1 6.2l-7.66 11.94a8.247 8.247 0 0 1-6.94 3.78z m-2.27-4.67c1.96 1.26 4.58 0.69 5.84-1.28l7.66-11.94c0.61-0.94 0.81-2.08 0.56-3.18s-0.9-2.05-1.84-2.66l-1.61-1.03a4.225 4.225 0 0 0-5.84 1.28l-7.66 11.94a4.225 4.225 0 0 0 1.28 5.84l1.61 1.03z" fill="#FFFFFF" opacity=".7" /><path d="M377.79 513.62s-19.1 29.27-14.02 75.01M363.76 596.64c-4.02 0-7.49-3.03-7.94-7.12-5.34-48.04 14.43-78.98 15.27-80.27a8.004 8.004 0 0 1 11.07-2.33 7.999 7.999 0 0 1 2.34 11.05c-0.18 0.27-17.46 27.72-12.78 69.78 0.49 4.39-2.68 8.35-7.07 8.83-0.29 0.04-0.59 0.06-0.89 0.06z" fill="#FFFFFF" opacity=".7" /><path d="M576.25 445.79h-71.96c-13.03 0-23.7-10.66-23.7-23.7v-7.29c0-13.03 10.66-23.7 23.7-23.7h71.96c13.03 0 23.7 10.66 23.7 23.7v7.29c0 13.04-10.67 23.7-23.7 23.7zM588.17 554.81H516.2c-13.03 0-23.7-10.66-23.7-23.7v-7.29c0-13.03 10.66-23.7 23.7-23.7h71.96c13.03 0 23.7 10.66 23.7 23.7v7.29c0 13.04-10.66 23.7-23.69 23.7zM559.77 664.18h-71.96c-13.03 0-23.7-10.66-23.7-23.7v-7.29c0-13.03 10.66-23.7 23.7-23.7h71.96c13.03 0 23.7 10.66 23.7 23.7v7.29c0 13.03-10.66 23.7-23.7 23.7zM519.58 387.96s0.7 0.05 2.02 0.18v-0.18h-2.02z" fill="#A00728" opacity=".1" /><path d="M705.2 584.78c-5.36-37.16-15.56-130.06-74.55-161.66-52.17-27.95-98.94-33.96-109.05-34.97l0.1 57.65h27.06c15.04 0 27.34 12.3 27.34 27.34s-12.3 27.34-27.34 27.34H521.8l0.1 54.33h43.35c15.04 0 27.34 12.3 27.34 27.34s-12.3 27.34-27.34 27.34H522l0.1 55.03h54.72c15.04 0 27.34 12.3 27.34 27.34s-12.3 27.34-27.34 27.34H522.2l0.08 47.68s91.73-16.04 106.92-34.61c15.19-18.55 81.36-110.33 76-147.49z" fill="#A00728" opacity=".1" /><path d="M546.98 773.76h-71.96c-13.03 0-23.7-10.66-23.7-23.7v-7.29c0-13.03 10.66-23.7 23.7-23.7h71.96c13.03 0 23.7 10.66 23.7 23.7v7.29c0 13.04-10.67 23.7-23.7 23.7z" fill="#A00728" opacity=".1" /><path d="M385.92 429.37c-9.84-9.84-9.84-25.85 0-35.69l104.73-104.73c9.84-9.84 25.85-9.84 35.69 0l104.73 104.73c7.87 7.87 9.63 20.2 4.28 29.98l-14.04-7.67c1.96-3.59 1.32-8.11-1.56-10.99L515.04 300.25c-3.6-3.6-9.46-3.6-13.06 0L397.24 404.99c-3.6 3.6-3.6 9.46 0 13.07l-11.32 11.31z" fill="#752323" /><path d="M509.54 775.96c-110.72 0-200.79-90.07-200.79-200.79s90.07-200.79 200.79-200.79 200.79 90.08 200.79 200.79c0 110.72-90.07 200.79-200.79 200.79z m0-385.58c-101.89 0-184.79 82.9-184.79 184.79 0 101.89 82.9 184.79 184.79 184.79 101.9 0 184.79-82.9 184.79-184.79 0-101.89-82.89-184.79-184.79-184.79z" fill="#752323" /></svg>