<svg xmlns="http://www.w3.org/2000/svg" viewBox="0 0 1024 1024" width="200" height="200"><path d="M249.761512 483.621055v56.75389c0 16.267968-13.189974 29.457942-29.457942 29.457942H57.621887c-16.267968 0-29.457942-13.189974-29.457942-29.457942v-56.75389c0-16.267968 13.189974-29.457942 29.457942-29.457942h162.681683c16.271968 0.004 29.457942 13.189974 29.457942 29.457942z" fill="#CEE8FA" /><path d="M220.30557 597.998832H57.619887C25.84995 597.998832 0 572.150883 0 540.378945v-56.75389c0-31.771938 25.84995-57.619887 57.619887-57.619887h162.685683c31.771938 0 57.621887 25.84995 57.621887 57.619887v56.75389c0 31.771938-25.84995 57.619887-57.621887 57.619887zM57.619887 482.331058a1.291997 1.291997 0 0 0-1.289997 1.289997v56.75389c0 0.711999 0.579999 1.289997 1.289997 1.289997h162.685683c0.711999 0 1.291997-0.579999 1.291997-1.289997v-56.75389a1.291997 1.291997 0 0 0-1.291997-1.289997H57.619887zM397.461224 540.164945h-35.583931c-15.55597 0-28.163945-12.609975-28.163945-28.163945s12.609975-28.163945 28.163945-28.163945h35.583931c15.55597 0 28.163945 12.609975 28.163945 28.163945s-12.607975 28.163945-28.163945 28.163945zM529.832965 540.164945h-35.58393c-15.55597 0-28.163945-12.609975-28.163945-28.163945s12.609975-28.163945 28.163945-28.163945h35.58393c15.55197 0 28.163945 12.609975 28.163945 28.163945s-12.607975 28.163945-28.163945 28.163945zM662.210707 540.164945h-35.585931c-15.55197 0-28.163945-12.609975-28.163945-28.163945s12.611975-28.163945 28.163945-28.163945h35.585931c15.55197 0 28.163945 12.609975 28.163945 28.163945s-12.609975 28.163945-28.163945 28.163945z" fill="#2D527C" /><path d="M130.497745 482.201058c-10.873979 0-21.229959-6.333988-25.841949-16.941967-3.895992-8.955983-2.315995-23.091955-0.304-33.371935 37.979926-194.74162 209.77959-336.099344 408.499202-336.099343 198.715612 0 370.519276 141.353724 408.505202 336.105343 2.977994 15.26597-6.983986 30.057941-22.251956 33.033936-15.24797 2.971994-30.057941-6.983986-33.033936-22.253957C833.232373 274.317464 684.682663 152.119703 512.852998 152.119703c-171.653665 0-320.075375 121.959762-353.11531 290.051433-0.323999 2.239996-0.939998 7.417986-1.143998 9.983981 0.765999 11.533977-5.669989 22.823955-16.879967 27.697946a27.987945 27.987945 0 0 1-11.215978 2.347995zM512.852998 928.210187c-95.875813 0-189.46163-33.391935-263.511485-94.027816-73.017857-59.785883-123.997758-143.26372-143.55572-235.051541-3.241994-15.21397 6.463987-30.171941 21.675958-33.413935 15.22797-3.249994 30.175941 6.463987 33.413935 21.675958C195.999617 752.236531 344.027328 871.882297 512.852998 871.882297c108.843787 0 210.685589-48.499905 279.419455-133.06174 9.807981-12.071976 27.547946-13.901973 39.619922-4.091992 12.067976 9.809981 13.901973 27.547946 4.089992 39.619923-79.473845 97.779809-197.253615 153.861699-323.129369 153.861699z" fill="#2D527C" /><path d="M483.665055 774.194488h56.753889c16.267968 0 29.457942 13.189974 29.457943 29.457942v162.681683c0 16.267968-13.189974 29.457942-29.457943 29.457942h-56.753889c-16.267968 0-29.457942-13.189974-29.457942-29.457942v-162.685683c0-16.267968 13.189974-29.453942 29.457942-29.453942z" fill="#CEE8FA" /><path d="M540.420944 1023.958h-56.753889c-31.771938 0-57.621887-25.84995-57.621887-57.621887v-162.685683c0-31.771938 25.84995-57.619887 57.621887-57.619887h56.753889c31.771938 0 57.621887 25.84995 57.621888 57.619887v162.685683c0 31.771938-25.84995 57.621887-57.621888 57.621887z m-56.755889-221.597567a1.293997 1.293997 0 0 0-1.291997 1.289997v162.685683c0 0.711999 0.579999 1.291997 1.291997 1.291997h56.753889c0.711999 0 1.291997-0.579999 1.291998-1.291997v-162.685683a1.291997 1.291997 0 0 0-1.291998-1.289997h-56.753889z" fill="#2D527C" /><path d="M483.665055 28.207945h56.753889c16.267968 0 29.457942 13.189974 29.457943 29.457942v162.685683c0 16.267968-13.189974 29.457942-29.457943 29.457942h-56.753889c-16.267968 0-29.457942-13.189974-29.457942-29.457942V57.665887c0-16.267968 13.189974-29.457942 29.457942-29.457942z" fill="#CEE8FA" /><path d="M540.420944 277.971457h-56.753889c-31.771938 0-57.621887-25.84995-57.621887-57.619887V57.665887c0-31.771938 25.84995-57.621887 57.621887-57.621887h56.753889c31.771938 0 57.621887 25.84995 57.621888 57.621887v162.685683c0 31.771938-25.84995 57.619887-57.621888 57.619887zM483.665055 56.37389a1.293997 1.293997 0 0 0-1.291997 1.291997v162.685683c0 0.711999 0.579999 1.289997 1.291997 1.289997h56.753889c0.711999 0 1.291997-0.579999 1.291998-1.289997V57.665887a1.293997 1.293997 0 0 0-1.291998-1.291997h-56.753889zM893.438255 597.998832h-89.743825c-31.769938 0-57.619887-25.84995-57.619887-57.619887v-56.75389c0-31.771938 25.84995-57.619887 57.619887-57.619887h162.685683c31.771938 0 57.621887 25.84995 57.621887 57.619887v56.75389c0 15.55597-12.611975 28.163945-28.163945 28.163945-15.55197 0-28.163945-12.609975-28.163945-28.163945v-56.75389a1.291997 1.291997 0 0 0-1.291997-1.289997h-162.685683a1.291997 1.291997 0 0 0-1.289997 1.289997v56.75389c0 0.711999 0.577999 1.289997 1.289997 1.289997h89.743825c15.55197 0 28.163945 12.609975 28.163945 28.163945S908.990225 597.998832 893.438255 597.998832z" fill="#2D527C" /></svg>