<svg xmlns="http://www.w3.org/2000/svg" viewBox="0 0 1024 1024" width="200" height="200"><path d="M655.49 212.89a16.12 16.12 0 0 1 3.93 0.61c27.84 7.19 57.31 22.51 85.8 37.32 5.63 2.93 11.44 6 17.09 8.83 20.15 10.26 40.76 21.72 51.85 38.8 14.49 22.32 12.12 54.05 9.42 71a208 208 0 0 1-15.18 51.34A200.45 200.45 0 0 1 780.91 466c-17.76 21.91-41.66 41.57-73.06 60.08-9.92 5.85-21.1 10.92-32.93 16.29-19.17 8.7-39 17.69-56.75 31.46-28.81 22.34-50 50.92-70.58 78.57-19.13 25.75-37.2 50.08-59.93 67.54-13.32 10.23-28.92 18.7-47.71 25.89-24.95 9.55-51.62 15.49-81.4 21.71-34.74 7.27-78 16.31-118.35 16.31a247.79 247.79 0 0 1-31.19-1.9c-25-3.19-43.69-10.24-57.13-21.55-14.28-12-24.1-31.69-25.63-51.31-0.85-10.88 0.48-26.61 11.63-39.71 10-11.75 24.13-21.05 39.08-30.89l2.88-1.9c41.12-27.12 88.34-60.92 126.8-105.94A332.64 332.64 0 0 0 355 456.46c13.62-28.94 22-58.66 24.84-88.33 0.27-2.83 0.5-5.63 0.72-8.33 0.84-10.35 1.7-21 4.93-25.69 3-4.36 10.69-6.58 22.74-6.58a190.55 190.55 0 0 1 25.22 2.19c21.88 3 38.75 4.39 54.68 4.39a208.58 208.58 0 0 0 51.19-5.88c42.75-10.7 77.36-37.38 95-73.19 3-6.06 5.53-12.1 8-17.95 3-7.08 5.8-13.76 8.69-18.73 2.24-3.87 3.63-5.12 4-5.41a4.51 4.51 0 0 1 0.58 0m0-30.93c-27.45 0-34.33 33-47 58.71-14.84 30.21-44.72 49.63-75.88 57.43a182.8 182.8 0 0 1-44.55 5.06c-17 0-34.07-1.79-50.93-4.13a213.71 213.71 0 0 0-29-2.45c-18.23 0-35.62 4.08-46.06 19.08-9.58 13.76-9.56 32.23-11.21 49.27-5.24 54.26-31.29 104.49-65.75 144.84s-77.08 71.75-120.61 100.46c-17.1 11.28-34.68 22.44-48.19 38.31-33.95 39.89-20.2 104.32 17.51 136.06 20.22 17 46.09 24.73 71.68 28a273.6 273.6 0 0 0 34.64 2.12c41.48 0 83-8.34 123.94-16.89 28.78-6 58.1-12.42 85.62-23 19.47-7.46 38-17 54.87-29.91 51.77-39.76 79.18-106.31 130.61-146.19 25.35-19.65 58.92-29.34 86.66-45.69 30-17.71 58.44-39.11 81-66.93 25.52-31.5 42.77-70.51 49.32-111.53 5.11-32 3.17-67.05-14.17-93.76-15-23.12-39.4-37-63.21-49.11-34.12-17.38-71.67-38.77-108.57-48.3a43.09 43.09 0 0 0-10.82-1.47z" fill="#1C0901" /><path d="M315 842c-64.28 0-123.16-15.74-156.26-42.25a16.14 16.14 0 0 1-2.88-21.65 13.94 13.94 0 0 1 20.31-3.1c23 18.38 76.87 38.78 153.34 35.76 56.55-2.23 141.17-18.34 223.16-82.44 35.52-27.77 51.2-49.56 63.79-67.07 7.66-10.65 14.28-19.85 23.28-27 16.95-13.55 36.44-20.2 55.3-26.63 5-1.7 9.68-3.3 14.36-5 76.48-28.32 142.3-58.31 173.12-138.79 8.25-21.55 13.25-50.12 13.37-76.43 0.1-22-3.1-53.36-18.91-77.58-16.44-25.18-43.51-37.33-80.55-36.07-8 0.3-14.71-6.43-15-15s6-15.68 14-15.95c59.11-2 89.9 25.72 105.3 49.33 15.94 24.42 24.27 57.41 24.1 95.38-0.14 30.51-5.8 62.57-15.52 88C874 567.8 799.13 602.1 718.94 631.79c-5 1.86-10.11 3.6-15 5.27-17.37 5.94-33.74 11.5-46.77 21.94-5.8 4.64-11 11.91-17.66 21.12-13 18.06-30.79 42.8-69.66 73.18-87.93 68.74-178.65 86-239.26 88.41q-7.84 0.29-15.59 0.29zM257.69 653.92a14.16 14.16 0 0 1-11.28-5.73 16.16 16.16 0 0 1 2.13-21.75l22.72-19.63a13.92 13.92 0 0 1 20.42 2.27 16.16 16.16 0 0 1-2.13 21.75l-22.72 19.63a13.92 13.92 0 0 1-9.14 3.46zM339.65 565.16a13.86 13.86 0 0 1-8.57-3 16.13 16.13 0 0 1-3.08-21.61l14.19-20.62a13.94 13.94 0 0 1 20.29-3.33 16.13 16.13 0 0 1 3.12 21.61l-14.19 20.62a14.22 14.22 0 0 1-11.76 6.33zM406.77 450.39a13.69 13.69 0 0 1-3.91-0.57c-7.72-2.3-12.23-10.83-10.08-19.05l5.16-19.7c2.16-8.22 10.16-13 17.88-10.74s12.23 10.83 10.08 19.05l-5.16 19.7a14.69 14.69 0 0 1-13.97 11.31zM337 415.33l26.48-21.59c-13.06-15.7-25.45-33.45-40.87-46.67-15.6-13.38-36.47-21.56-56.26-13.61-21.24 8.53-31 31.48-25.55 54.39 5 20.8 21 35.21 38.93 43.57 22.38 10.45 46.27 17.74 69.38 26.16 8.35 3 18.8-3.47 20.74-12.44 2.14-9.91-2.84-18.66-11.77-21.91l-33.82-12.32c-5.49-2-11-4-16.48-6-2.25-0.83-4.5-1.66-6.74-2.53-0.61-0.24-6.2-2.55-4.29-1.7-8.44-3.77-14.73-7.8-19.65-13.7 2 2.36-1.57-2.77-1.94-3.36q-1.29-2.85-0.36-0.38-0.59-1.58-1.06-3.21t-0.78-3.27q0.23 3 0-0.22c0-1.13 0.85-7-0.05-3.38a27.23 27.23 0 0 1 0.82-3.1q-1.12 2.65 0.23-0.14 1.61-2.58 0.15-0.35a23.43 23.43 0 0 1 2.21-2.22c-3.34 2.73 4.59-1.56 0.45-0.07 0.78-0.28 6.7-1.43 3.05-1.06 7.7-0.78 10.63 0.7 18 5.45q2.46 1.93 1 0.64 1.43 1.21 2.81 2.49c1.85 1.71 3.63 3.52 5.37 5.36 3.48 3.71 6.75 7.63 10 11.55q11.35 13.62 22.68 27.27c5.48 6.59 16 6.59 22.13 1.39 7.07-5.95 7.8-14.59 4.34-23-16.17-39.25-23.81-82.79-22.79-126q0.19-8.06 0.77-16.1c0.1-1.43 0.25-2.86 0.34-4.29 0 0.4-0.78 2.92-0.12 1.11a13.71 13.71 0 0 0 0.68-2.88c0.19-1.71-0.73 1.74-1.45 2.44-1 1-7.69 2.37-8.07 3.08-0.11 0.21-1.93-1.46 0-0.05 1.74 1.27 4.26 2 6.18 3a97.43 97.43 0 0 1 11.92 7c0.29 0.21 3.11 2.33 1.69 1.19-1.24-1 0.86 0.79 0.88 0.81a41.37 41.37 0 0 1 4.6 5c-1.64-2.26 1.7 3.36 1.93 3.91-0.17-0.42-0.62-1.71 0 0.18a42.23 42.23 0 0 1 1.14 4.57c-0.47-2.46 0.08 0.47 0.1 0.91 0.07 1.28 0.12 2.55 0.13 3.84 0 2.27-0.13 4.55-0.35 6.81-0.31 3.22 0.36-2.07-0.16 1.15-0.16 1-0.32 2-0.5 2.94-0.54 2.94-1.2 5.86-1.9 8.76-6.43 26.69-13.89 53.15-20.85 79.68-2.35 9 2.91 19.78 11.77 21.91a17.08 17.08 0 0 0 20.74-12.44c7.21-27.47 15.29-54.86 21.53-82.59 3.11-13.8 4.87-28.33 1.6-42.29-3.19-13.6-11.46-24.32-21.89-32.53a86.07 86.07 0 0 0-13-8.35c-5.65-3-12-6.87-18.21-8.2-15.47-3.32-28.31 7.46-31.09 23.43" fill="#1C0901" /><path d="M832.71 731.94H718.24c-8 0-14.52-6.92-14.52-15.46s6.5-15.48 14.52-15.48h114.47c8 0 14.52 6.92 14.52 15.46s-6.5 15.48-14.52 15.48zM912.48 731.94h-33c-8 0-14.52-6.92-14.52-15.46S871.43 701 879.45 701h33c8 0 14.52 6.92 14.52 15.46s-6.47 15.48-14.49 15.48zM912.48 815.22H569.34c-8 0-14.52-6.92-14.52-15.46s6.5-15.46 14.52-15.46h343.14c8 0 14.52 6.92 14.52 15.46s-6.5 15.46-14.52 15.46z" fill="#BF1A20" /></svg>