<svg xmlns="http://www.w3.org/2000/svg" viewBox="0 0 1024 1024" width="200" height="200"><path d="M512.008 81.858c-237.562 0-430.14 192.586-430.14 430.146 0 237.552 192.578 430.134 430.14 430.134 237.546 0 430.132-192.582 430.132-430.134 0-237.56-192.586-430.146-430.132-430.146z" fill="#EDF3FC" /><path d="M512.008 2C230.788 2 2 230.786 2 512.004 2 793.218 230.788 1022 512.008 1022 793.222 1022 1022 793.218 1022 512.004 1022 230.786 793.222 2 512.008 2z m0 1003.662c-272.21 0-493.662-221.454-493.662-493.658C18.346 239.796 239.8 18.338 512.008 18.338c272.204 0 493.648 221.458 493.648 493.666 0 272.204-221.446 493.658-493.648 493.658z" fill="#EDF3FC" /><path d="M213.206 606.17a48.696 48.696 0 0 1-35.374-35.374l-0.746-2.976-0.738 2.976a48.694 48.694 0 0 1-35.382 35.374l-2.966 0.744 2.964 0.742a48.676 48.676 0 0 1 35.382 35.374l0.74 2.97 0.746-2.972a48.684 48.684 0 0 1 35.374-35.374l2.978-0.742-2.978-0.742zM231.89 687.342a37.478 37.478 0 0 1-27.228-27.23l-0.574-2.29-0.568 2.29a37.486 37.486 0 0 1-27.238 27.23l-2.282 0.572 2.282 0.572a37.47 37.47 0 0 1 27.238 27.23l0.568 2.288 0.574-2.288a37.47 37.47 0 0 1 27.228-27.23l2.292-0.572-2.292-0.572z" fill="#FFBE1B" /><path d="M870.6 480.068a52.362 52.362 0 0 1-38.06-38.052l-0.794-3.196-0.798 3.196a52.344 52.344 0 0 1-38.06 38.052l-3.184 0.804 3.184 0.81a52.33 52.33 0 0 1 38.06 38.042l0.798 3.194 0.794-3.194a52.35 52.35 0 0 1 38.06-38.042l3.196-0.81-3.196-0.804zM891.574 389.336a39.78 39.78 0 0 1-28.916-28.91l-0.606-2.426-0.606 2.426a39.762 39.762 0 0 1-28.916 28.91l-2.418 0.612 2.418 0.616a39.752 39.752 0 0 1 28.916 28.902l0.606 2.426 0.606-2.426a39.772 39.772 0 0 1 28.916-28.902l2.426-0.616-2.426-0.612z" fill="#330D84" /><path d="M332.012 771.248c0.128 16.728 13.722 30.254 30.48 30.254h47.726c16.76 0 30.352-13.526 30.482-30.254h-108.688zM583.298 771.248c0.13 16.728 13.722 30.254 30.48 30.254h47.726c16.76 0 30.354-13.526 30.482-30.254h-108.688z" fill="#5932AE" /><path d="M731.476 252.752h-438.94c-27.786 0-50.312 22.524-50.312 50.296V720.94c0 27.786 22.528 50.308 50.312 50.308h438.942c27.782 0 50.3-22.524 50.3-50.308V303.048c0-27.772-22.52-50.296-50.302-50.296z" fill="#330D84" /><path d="M732.016 360.998h4.708v-21.382c0-23.138-18.758-41.9-41.898-41.9h-365.64c-23.144 0-41.91 18.762-41.91 41.9v344.76c0 23.144 18.766 41.906 41.91 41.906h365.64c23.14 0 41.898-18.762 41.898-41.906v-21.36h-4.708A14.018 14.018 0 0 1 718 649v-57.984a14.018 14.018 0 0 1 14.016-14.016h4.708v-129.984h-4.708A14.018 14.018 0 0 1 718 433v-57.984a14.018 14.018 0 0 1 14.016-14.018z" fill="#6857E5" /><path d="M681.928 553.978l-15.972-9.22A114.652 114.652 0 0 0 670.712 512a114.64 114.64 0 0 0-4.756-32.758l15.972-9.222a8.266 8.266 0 0 0 3.028-11.292l-18.326-31.744a8.27 8.27 0 0 0-11.294-3.026l-15.996 9.234c-15.07-15.924-34.658-27.528-56.712-32.764v-18.448a8.268 8.268 0 0 0-8.27-8.268h-36.652a8.268 8.268 0 0 0-8.268 8.268v18.448c-22.052 5.238-41.64 16.842-56.712 32.766l-16-9.236a8.264 8.264 0 0 0-11.292 3.026l-18.324 31.744a8.262 8.262 0 0 0 3.026 11.292l15.97 9.222A114.78 114.78 0 0 0 441.352 512c0 11.382 1.668 22.378 4.754 32.758l-15.97 9.22a8.268 8.268 0 0 0-3.024 11.294l18.322 31.742a8.264 8.264 0 0 0 11.292 3.026l16-9.236c15.07 15.924 34.658 27.528 56.712 32.766v18.45a8.268 8.268 0 0 0 8.268 8.268h36.652a8.27 8.27 0 0 0 8.27-8.268v-18.448c22.054-5.24 41.638-16.842 56.712-32.768l15.996 9.236a8.266 8.266 0 0 0 11.294-3.026l18.326-31.742a8.27 8.27 0 0 0-3.028-11.294z" fill="#8AC9F9" /><path d="M556.028 414.394c-53.904 0-97.604 43.698-97.604 97.608 0 53.906 43.7 97.604 97.604 97.604 53.912 0 97.612-43.698 97.612-97.604-0.002-53.91-43.7-97.608-97.612-97.608z" fill="#FFBE1B" /><path d="M556.028 512.002m-73.268 0a73.268 73.268 0 1 0 146.536 0 73.268 73.268 0 1 0-146.536 0Z" fill="#FFE37B" /><path d="M585.568 516.572c-2.61-3.012-6.118-5-10.526-5.948 1.22-0.538 2.07-0.93 2.544-1.17 0.472-0.234 1.322-0.83 2.542-1.78 3.596-2.708 5.388-6.846 5.388-12.404 0-4.612-1.59-8.742-4.782-12.4-1.76-1.97-4.386-3.526-7.878-4.686-1.04-0.342-2.16-0.62-3.324-0.858v-9.042h-12.468v8.174h-8.366v-8.174h-12.472v8.174h-13.652v13.42h10.164v44.232h-10.164v13.426h13.652v8.178h12.472v-8.178h8.366v8.178h12.468v-8.482c6.78-0.734 11.752-2.814 14.868-6.302 3.386-3.792 5.082-8.168 5.082-13.118 0-4.476-1.306-8.214-3.914-11.24z m-36.96-26.694h7.626c4.678 0 7.998 0.51 9.958 1.528 1.972 1.016 2.952 3.096 2.952 6.254 0 3.148-1.064 5.204-3.202 6.148-2.138 0.95-5.408 1.426-9.806 1.426h-7.528v-15.356z m21.1 42.558c-2.278 1.122-5.684 1.676-10.226 1.676h-10.876v-16.366h9.352c5.286 0 9.134 0.526 11.542 1.572 2.408 1.056 3.616 3.224 3.616 6.512 0 3.286-1.14 5.488-3.408 6.606z" fill="#FFFFFF" /><path d="M742.984 360.998h-10.968a14.018 14.018 0 0 0-14.016 14.016v57.984a14.018 14.018 0 0 0 14.016 14.016h10.968a14.018 14.018 0 0 0 14.016-14.016v-57.984a14.018 14.018 0 0 0-14.016-14.016zM742.984 577h-10.968a14.018 14.018 0 0 0-14.016 14.016V649a14.018 14.018 0 0 0 14.016 14.016h10.968a14.018 14.018 0 0 0 14.016-14.016v-57.984a14.018 14.018 0 0 0-14.016-14.016z" fill="#5932AE" /><path d="M377.63 495.738a31.85 31.85 0 0 1 4.466 16.262c0 5.944-1.648 11.492-4.466 16.262C392.156 526.216 408 521.752 408 512c0-9.75-15.844-14.212-30.37-16.262z" fill="#8AC9F9" /><path d="M350.048 479.952c-17.7 0-32.048 14.348-32.048 32.048 0 17.7 14.35 32.046 32.048 32.046 17.702 0 32.048-14.348 32.048-32.046 0.002-17.7-14.346-32.048-32.048-32.048z" fill="#5D8EF9" /></svg>