<svg xmlns="http://www.w3.org/2000/svg" viewBox="0 0 1024 1024" width="200" height="200"><path d="M272.4 959.5H109.9V111.7h162.5v847.8z m-150.8-11.7h139V123.5h-139v824.3z" fill="#495460" /><path d="M184.7 137.2h62.2v796.9h-62.2z" fill="#FDDA43" /><path d="M204.8 179.2h61.7V191h-61.7zM204.8 249.3h61.7v11.8h-61.7zM204.8 319.3h61.7V331h-61.7zM204.8 389.4h61.7v11.7h-61.7zM204.8 459.4h61.7v11.7h-61.7zM204.8 529.5h61.7v11.7h-61.7zM204.8 599.5h61.7v11.8h-61.7zM204.8 669.6h61.7v11.7h-61.7zM204.8 739.7h61.7v11.7h-61.7zM204.8 809.7h61.7v11.8h-61.7zM204.8 879.8h61.7v11.7h-61.7z" fill="#495460" /><path d="M836.5 959.5H366v-412h470.6c36.3 0 65.8-29.5 65.8-65.8h11.7V880c0 43.1-35.5 79.5-77.6 79.5z m-458.8-11.7h458.8c35.7 0 65.8-31 65.8-67.8V522.7c-13.7 21.9-38.1 36.6-65.8 36.6H377.7v388.5z" fill="#495460" /><path d="M512.4 709.1h-11.8v-11.7h11.8v11.7z m-23.5 0h-11.7v-11.7h11.7v11.7z m-23.5 0h-11.8v-11.7h11.8v11.7z m47-70.6h-11.8v-11.8h11.8v11.8z m-23.5 0h-11.7v-11.8h11.7v11.8z m-23.5 0h-11.8v-11.8h11.8v11.8z m-21.5 70.2h-11.7v-11.8h11.7v11.8z m0-23.5h-11.7v-11.8h11.7v11.8z m0-23.5h-11.7v-11.8h11.7v11.8z m0-23.5h-11.7v-11.5h11.7v11.5z" fill="#495460" /><path d="M766.4 713H527.1v-90.6h239.2V713z m-227.5-11.7h215.7v-67.1H538.9v67.1z" fill="#495460" /><path d="M552.6 647.9h188.3v39.7H552.6z" fill="#F09069" /><path d="M533 739.7h107v11.7H533z" fill="#495460" /><path d="M533 778.2h107V790H533z" fill="#495460" /><path d="M533 816.8h107v11.8H533z" fill="#495460" /><path d="M533 855.4h107v11.8H533z" fill="#495460" /><path d="M766.4 867.2H664.9V739.7h101.4v127.5z m-89.7-11.8h77.9v-104h-77.9v104z" fill="#495460" /><path d="M690.4 765.1h50.5v76.6h-50.5z" fill="#7ECBE1" /><path d="M840.8 867.2H829v-11.8h11.8v11.8z m-24.6 0h-11.8v-11.8h11.8v11.8z m-23.5 0h-11.3v-11.8h11.3v11.8z m48.1-22.4H829V833h11.7v11.8z m0-23.5H829v-11.8h11.7v11.8z m0-23.5H829V786h11.7v11.8z m0-23.6H829v-11.8h11.7v11.8z m-5.9-22.8H829v-11.7h11.7v11.7h-5.8z m-18.3 0h-11.8v-11.7h11.8v11.7z m-23.5 0h-11.8v-11.7h11.8v11.7z" fill="#495460" /><path d="M417.8 513.8v-81.1h5.9c10.7 0 19.4-8.7 19.4-19.3 0-6.5-3.2-12.5-8.7-16.1l-4.9-3.2L592.4 148v113L417.8 513.8z m11.8-70V476l151-218.9v-70.3L445.4 391.1c5.9 5.8 9.4 13.8 9.4 22.2 0 15.1-10.9 27.8-25.2 30.5z" fill="#495460" /><path d="M466.1 398.9c-1-2.9-2.3-5.8-3.9-8.4l104.6-158V253L466.1 398.9z" fill="#E7E7E6" /><path d="M832.6 513.8L658 260.8v-113l162.9 246.1-4.9 3.2c-5.4 3.6-8.7 9.6-8.7 16.1 0 10.6 8.7 19.3 19.3 19.3h5.9v81.3zM669.8 257.2l151 218.9v-32.2c-14.4-2.8-25.2-15.4-25.2-30.5 0-8.5 3.4-16.4 9.4-22.2L669.8 186.9v70.3z" fill="#495460" /><path d="M683.5 252.9v-20.5l104.6 158c-1.6 2.7-2.9 5.5-3.9 8.4L683.5 252.9z" fill="#E7E7E6" /><path d="M669.8 309.4h-89.2V120.7h89.2v188.7z m-77.4-11.8H658V132.5h-65.7v165.1z" fill="#495460" /><path d="M645.7 132.5h-41.5v-68h41.5v68z m-29.8-11.8h18V76.2h-18v44.5z" fill="#495460" /><path d="M645.4 185.1c0 11.6-9.4 21.1-21.1 21.1-11.6 0-21.1-9.4-21.1-21.1s9.4-21.1 21.1-21.1c11.7 0 21.1 9.5 21.1 21.1zM645.4 255.2c0 11.6-9.4 21.1-21.1 21.1-11.6 0-21.1-9.4-21.1-21.1 0-11.6 9.4-21.1 21.1-21.1 11.7 0 21.1 9.4 21.1 21.1z" fill="#F09069" /><path d="M624.4 212c-14.9 0-26.9-12.1-26.9-26.9 0-14.9 12.1-26.9 26.9-26.9 14.9 0 26.9 12.1 26.9 26.9 0 14.9-12.1 26.9-26.9 26.9z m0-42.1c-8.4 0-15.2 6.8-15.2 15.2s6.8 15.2 15.2 15.2c8.4 0 15.2-6.8 15.2-15.2s-6.9-15.2-15.2-15.2zM624.4 282.1c-14.9 0-26.9-12.1-26.9-26.9 0-14.9 12.1-27 26.9-27 14.9 0 26.9 12.1 26.9 27 0 14.8-12.1 26.9-26.9 26.9z m0-42.1c-8.4 0-15.2 6.8-15.2 15.2 0 8.4 6.8 15.2 15.2 15.2 8.4 0 15.2-6.8 15.2-15.2-0.1-8.4-6.9-15.2-15.2-15.2zM410.3 334h62v11.7h-62zM780.6 334h62v11.7h-62zM529 334h190.7v11.7H529zM423.7 444.4c-17.1 0-31.1-13.9-31.1-31.1 0-17.1 13.9-31.1 31.1-31.1s31.1 14 31.1 31.1-14 31.1-31.1 31.1z m0-50.4c-10.7 0-19.3 8.7-19.3 19.3 0 10.7 8.7 19.3 19.3 19.3 10.7 0 19.3-8.7 19.3-19.3 0-10.7-8.6-19.3-19.3-19.3z" fill="#495460" /><path d="M423.7 418.9c-3.1 0-5.6-2.5-5.6-5.6 0-3.1 2.5-5.6 5.6-5.6 3.1 0 5.6 2.5 5.6 5.6 0 3.1-2.5 5.6-5.6 5.6z" fill="#F09069" /><path d="M826.7 444.4c-17.1 0-31.1-13.9-31.1-31.1 0-17.1 13.9-31.1 31.1-31.1 17.1 0 31.1 14 31.1 31.1s-13.9 31.1-31.1 31.1z m0-50.4c-10.7 0-19.3 8.7-19.3 19.3 0 10.7 8.7 19.3 19.3 19.3 10.7 0 19.3-8.7 19.3-19.3 0-10.7-8.6-19.3-19.3-19.3z" fill="#495460" /><path d="M826.7 418.9c-3.1 0-5.6-2.5-5.6-5.6 0-3.1 2.5-5.6 5.6-5.6 3.1 0 5.6 2.5 5.6 5.6 0 3.1-2.5 5.6-5.6 5.6z" fill="#F09069" /></svg>