<svg xmlns="http://www.w3.org/2000/svg" viewBox="0 0 1024 1024" width="200" height="200"><path d="M703.96 598.44c16.28-0.65 32.63-0.57 48.96 0.46 16.33 1 32.65 2.97 48.82 6.13 8.08 1.57 16.13 3.46 24.08 5.75 7.96 2.28 15.84 4.9 23.58 8 7.75 3.07 15.35 6.62 22.72 10.69 7.35 4.11 14.48 8.72 21.18 14 13.41 10.49 25.21 23.7 33.43 39.2 2.04 3.87 3.86 7.87 5.47 11.95 1.61 4.08 2.94 8.27 4.09 12.5s2 8.54 2.71 12.85c0.68 4.32 1.1 8.67 1.39 13.02 0.21 4.37 0.31 8.65 0.22 12.97-0.11 4.31-0.32 8.63-0.75 12.94-0.43 4.31-0.99 8.61-1.76 12.88-0.78 4.27-1.71 8.52-2.81 12.74-4.43 16.85-11.66 33.04-21.23 47.73-9.59 14.67-21.49 27.86-35.12 38.95-13.59 11.13-28.85 20.25-45.16 27.04-8.16 3.38-16.59 6.18-25.21 8.35-8.63 2.15-17.46 3.61-26.39 4.39-8.93 0.75-17.97 0.79-27.01 0.04a152.14 152.14 0 0 1-26.89-4.73c-8.84-2.41-17.49-5.69-25.77-9.78-8.28-4.09-16.16-9.05-23.5-14.7-14.65-11.35-26.93-25.53-36.45-41.03-9.55-15.52-16.44-32.28-21.31-49.29-4.89-17.03-7.76-34.35-9.29-51.6l-0.51-6.47-0.38-6.46c-0.07-2.27-0.17-4.54-0.2-6.82 0.01-2.27-0.05-4.55 0.04-6.82 0.21-9.09 1.08-18.17 2.54-27.09 2.93-17.86 8.23-34.98 14.66-51.14 6.45-16.17 14.03-31.44 21.79-46.18 7.77-14.74 15.74-29 23.37-43.12 15.26-28.2 28.87-56.15 37.71-85.07 4.43-14.44 7.67-29.08 9.65-43.85 0.98-7.39 1.62-14.82 1.94-22.27 0.33-7.49 0.3-14.79 0.07-22.67-0.89-30.95-4.81-61.52-13.47-89.91-4.32-14.18-9.86-27.76-16.8-40.34-6.94-12.57-15.24-24.13-24.88-34.33-9.63-10.23-20.68-18.99-32.77-26.32-12.08-7.34-25.27-13.15-39.12-17.6-13.86-4.45-28.38-7.52-43.23-9.46-14.85-1.96-30.05-2.77-45.35-2.71-15.29 0.06-30.44 1.05-45.26 3.14-14.82 2.1-29.3 5.35-43.09 10-13.78 4.65-26.89 10.65-38.92 18.14a157.25 157.25 0 0 0-32.43 26.87c-9.55 10.34-17.68 22.07-24.42 34.78-6.74 12.71-12.06 26.41-16.17 40.67-4.13 14.26-6.96 29.11-8.83 44.23-0.95 7.55-1.63 15.19-2.1 22.87-0.27 3.83-0.39 7.69-0.57 11.55-0.09 3.87-0.22 7.73-0.22 11.61-0.06 3.94 0.01 7.6 0.09 11.33l0.23 5.57 0.37 5.56c0.59 7.4 1.49 14.75 2.77 22.04 2.54 14.58 6.56 28.89 11.91 42.91 5.33 14.02 11.97 27.76 19.5 41.36 7.53 13.6 15.93 27.09 24.56 40.85 8.62 13.76 17.54 27.78 25.85 42.6 8.3 14.8 16.06 30.39 22.14 46.96 6.1 16.53 10.45 34.01 12.49 51.72 1.02 8.85 1.5 17.75 1.41 26.61-0.02 2.21-0.11 4.42-0.16 6.63-0.07 2.21-0.23 4.4-0.35 6.6-0.28 4.35-0.63 8.58-1.06 12.88-1.73 17.12-4.86 34.27-9.85 51.08-5.05 16.79-11.97 33.28-21.43 48.55-9.42 15.25-21.37 29.27-35.63 40.61-7.1 5.69-14.77 10.68-22.78 14.96-8.04 4.23-16.45 7.73-25.08 10.39a154.52 154.52 0 0 1-26.34 5.63c-8.88 1.09-17.81 1.44-26.68 1.09-17.74-0.72-35.19-4.22-51.72-10.06-16.53-5.85-32.17-14.06-46.26-24.42-7.05-5.17-13.72-10.85-19.9-17.05a162.06 162.06 0 0 1-17.02-19.96c-10.26-14.19-18.1-30.17-22.9-46.99-2.35-8.42-4.02-17.02-4.85-25.68-0.43-4.33-0.7-8.66-0.74-13a88.03 88.03 0 0 1-0.01-3.25c0.01-1.09 0-2.15 0.06-3.27l0.14-3.31 0.26-3.3c1.53-17.62 7.33-34.69 16.16-49.57 8.83-14.93 20.45-27.78 33.4-38.6 12.96-10.86 27.35-19.66 42.32-26.89 15.01-7.19 30.63-12.85 46.57-17.04 15.93-4.23 32.16-7.11 48.45-8.76 16.3-1.68 32.67-2.13 48.95-1.5-32.55 1.31-64.87 6.61-95.42 16.86-15.25 5.14-30.06 11.49-43.99 19.26-6.95 3.91-13.71 8.11-20.13 12.75-3.23 2.29-6.35 4.71-9.43 7.17-3.04 2.51-6.03 5.06-8.88 7.75-11.45 10.7-21.28 22.98-28.3 36.54-7.05 13.53-11.23 28.31-11.75 43.22l-0.08 2.79 0.02 2.8c-0.01 0.92 0.05 1.89 0.08 2.84s0.06 1.91 0.14 2.86c0.2 3.81 0.61 7.59 1.15 11.35 1.06 7.52 2.85 14.9 5.19 22.07 4.74 14.33 11.99 27.75 21.31 39.59 4.64 5.93 9.78 11.48 15.33 16.58 5.54 5.12 11.49 9.79 17.75 14.01 12.52 8.42 26.28 15.01 40.62 19.53 14.34 4.51 29.29 6.92 44.12 7 7.41 0.03 14.79-0.54 22.04-1.69a126.04 126.04 0 0 0 21.2-5.33c6.85-2.4 13.45-5.38 19.72-8.93 6.24-3.59 12.16-7.7 17.62-12.37 10.97-9.3 20.14-20.71 27.44-33.38 7.33-12.67 12.72-26.63 16.6-41.14 3.82-14.54 6.22-29.63 7.34-44.95 0.27-3.81 0.51-7.71 0.62-11.49 0.02-1.87 0.1-3.74 0.09-5.6-0.03-1.86-0.02-3.73-0.08-5.58-0.21-7.43-0.84-14.81-1.95-22.1-2.18-14.59-6.26-28.81-11.86-42.66-5.57-13.86-12.76-27.33-20.8-40.68-8.04-13.36-16.93-26.62-26-40.2-9.06-13.58-18.28-27.5-26.88-42.2-8.6-14.68-16.61-30.13-23.24-46.41-6.62-16.27-11.84-33.34-15.26-50.78-1.71-8.72-3.01-17.52-3.86-26.34l-0.56-6.62-0.39-6.62c-0.18-4.4-0.34-8.89-0.35-13.09-0.35-34.07 2.57-68.85 11.85-103.12 4.63-17.1 10.92-34.02 19.25-50.19 8.32-16.16 18.68-31.56 31.07-45.3 12.4-13.73 26.73-25.78 42.26-35.65 15.54-9.87 32.2-17.64 49.24-23.46 17.05-5.84 34.47-9.8 51.88-12.36 17.42-2.58 34.84-3.68 52.12-3.79 17.26-0.1 34.66 0.79 52.11 3.05 17.43 2.28 34.9 5.97 52.06 11.51 17.13 5.55 33.98 12.91 49.7 22.56 15.71 9.62 30.34 21.36 42.98 34.91 12.68 13.52 23.4 28.72 32.04 44.75 8.66 16.03 15.3 32.84 20.32 49.85 5.02 17.02 8.46 34.26 10.72 51.46 1.12 8.6 1.97 17.2 2.59 25.78 0.58 8.58 0.92 17.14 1.07 25.67 0.12 8.4 0.04 17.39-0.49 26.17-0.51 8.81-1.4 17.61-2.69 26.35-2.57 17.48-6.74 34.67-12.16 51.27-5.42 16.61-12.06 32.62-19.42 48.01-7.37 15.38-15.42 30.16-23.57 44.53-16.27 28.74-33.13 55.97-45.13 83.87-5.98 13.93-10.7 28-13.44 42.23-1.36 7.12-2.27 14.27-2.66 21.45-0.13 1.79-0.12 3.59-0.2 5.39-0.03 1.8 0 3.6-0.01 5.4l0.17 5.74 0.28 5.72c0.45 7.61 1.19 15.17 2.28 22.62 1.08 7.46 2.47 14.83 4.3 22.03 3.61 14.41 8.86 28.2 15.95 40.71 7.08 12.5 16.11 23.64 26.9 32.66 5.41 4.48 11.21 8.5 17.4 11.87a110.49 110.49 0 0 0 19.52 8.32c6.8 2.14 13.84 3.67 21 4.57 7.17 0.88 14.47 1.15 21.78 0.84 14.63-0.68 29.31-3.66 43.33-8.74 14.01-5.1 27.36-12.24 39.4-21.21 6.03-4.47 11.72-9.4 17.01-14.73 5.33-5.3 10.2-11.05 14.66-17.11 8.86-12.16 15.81-25.75 20.42-40.19a150.29 150.29 0 0 0 5.2-22.19c0.6-3.77 1.01-7.58 1.32-11.4 0.3-3.82 0.43-7.68 0.45-11.45-0.07-15.14-3.07-30.15-9.44-43.83-6.3-13.71-15.92-25.97-27.57-36.22-11.66-10.27-25.22-18.63-39.59-25.43-14.39-6.82-29.63-12.04-45.19-16.2-15.57-4.18-31.52-7.13-47.59-9.33-16.05-2.15-32.29-3.5-48.57-4.16z" fill="#E3C386" /></svg>