<svg xmlns="http://www.w3.org/2000/svg" viewBox="0 0 1024 1024" width="200" height="200"><path d="M83.94 511.39a448.42 276.28 0 1 0 896.84 0 448.42 276.28 0 1 0-896.84 0Z" fill="#F8E868" /><path d="M148.64 511.39a383.72 236.42 0 1 0 767.44 0 383.72 236.42 0 1 0-767.44 0Z" fill="#FFA621" /><path d="M396.3 430.39m-68.38 0a68.38 68.38 0 1 0 136.76 0 68.38 68.38 0 1 0-136.76 0Z" fill="#F8E868" /><path d="M311.29 567.15m-68.38 0a68.38 68.38 0 1 0 136.76 0 68.38 68.38 0 1 0-136.76 0Z" fill="#F8E868" /><path d="M503.98 590.63m-68.38 0a68.38 68.38 0 1 0 136.76 0 68.38 68.38 0 1 0-136.76 0Z" fill="#F8E868" /><path d="M678.91 590.63m-68.38 0a68.38 68.38 0 1 0 136.76 0 68.38 68.38 0 1 0-136.76 0Z" fill="#F8E868" /><path d="M572.36 430.39m-68.38 0a68.38 68.38 0 1 0 136.76 0 68.38 68.38 0 1 0-136.76 0Z" fill="#F8E868" /><path d="M747.29 430.39m-68.38 0a68.38 68.38 0 1 0 136.76 0 68.38 68.38 0 1 0-136.76 0Z" fill="#F8E868" /><path d="M67.63 447.91a6.998 6.998 0 0 1-6.44-9.75c7.47-17.48 17.7-34.59 30.42-50.86a7.01 7.01 0 0 1 9.83-1.2 7.01 7.01 0 0 1 1.2 9.83c-11.97 15.3-21.58 31.36-28.57 47.73a7.006 7.006 0 0 1-6.44 4.25z" fill="#7C4924" /><path d="M501.33 794.67c-121.06 0-234.97-29.11-320.75-81.96-42.02-25.89-75.06-56.11-98.2-89.82-24.2-35.25-36.47-72.76-36.47-111.5 0-3.87 3.13-7 7-7s7 3.13 7 7c0 148.48 198.02 269.28 441.42 269.28s441.42-120.8 441.42-269.28-198.02-269.28-441.42-269.28c-147.5 0-284.74 44.85-367.12 119.98a6.994 6.994 0 0 1-9.89-0.46 6.994 6.994 0 0 1 0.46-9.89c84.89-77.42 225.66-123.64 376.55-123.64 121.06 0 234.97 29.11 320.75 81.96 42.02 25.89 75.06 56.11 98.2 89.82 24.2 35.25 36.47 72.76 36.47 111.5s-12.27 76.25-36.47 111.5c-23.14 33.71-56.18 63.93-98.2 89.82-85.78 52.86-199.69 81.97-320.75 81.97z" fill="#7C4924" /><path d="M396.3 505.77c-41.57 0-75.38-33.82-75.38-75.38s33.82-75.38 75.38-75.38 75.38 33.82 75.38 75.38-33.81 75.38-75.38 75.38z m0-136.76c-33.85 0-61.38 27.54-61.38 61.38s27.54 61.38 61.38 61.38 61.38-27.54 61.38-61.38-27.53-61.38-61.38-61.38zM311.29 642.53c-41.57 0-75.38-33.82-75.38-75.38s33.82-75.38 75.38-75.38 75.38 33.82 75.38 75.38-33.81 75.38-75.38 75.38z m0-136.76c-33.85 0-61.38 27.54-61.38 61.38s27.54 61.38 61.38 61.38 61.38-27.54 61.38-61.38-27.53-61.38-61.38-61.38zM503.98 666.01c-41.57 0-75.38-33.82-75.38-75.38s33.82-75.38 75.38-75.38 75.38 33.82 75.38 75.38-33.82 75.38-75.38 75.38z m0-136.76c-33.85 0-61.38 27.54-61.38 61.38s27.54 61.38 61.38 61.38 61.38-27.54 61.38-61.38-27.54-61.38-61.38-61.38zM678.91 666.01c-41.57 0-75.38-33.82-75.38-75.38s33.82-75.38 75.38-75.38 75.38 33.82 75.38 75.38-33.81 75.38-75.38 75.38z m0-136.76c-33.85 0-61.38 27.54-61.38 61.38s27.54 61.38 61.38 61.38 61.38-27.54 61.38-61.38-27.53-61.38-61.38-61.38zM572.36 505.77c-41.57 0-75.38-33.82-75.38-75.38s33.82-75.38 75.38-75.38 75.38 33.82 75.38 75.38-33.82 75.38-75.38 75.38z m0-136.76c-33.85 0-61.38 27.54-61.38 61.38s27.54 61.38 61.38 61.38 61.38-27.54 61.38-61.38-27.54-61.38-61.38-61.38zM747.29 505.77c-41.57 0-75.38-33.82-75.38-75.38s33.82-75.38 75.38-75.38 75.38 33.82 75.38 75.38-33.81 75.38-75.38 75.38z m0-136.76c-33.85 0-61.38 27.54-61.38 61.38s27.54 61.38 61.38 61.38 61.38-27.54 61.38-61.38-27.53-61.38-61.38-61.38z" fill="#7C4924" /><path d="M448.05 498.77m-68.38 0a68.38 68.38 0 1 0 136.76 0 68.38 68.38 0 1 0-136.76 0Z" fill="#F8E868" /><path d="M448.05 574.15c-41.57 0-75.38-33.82-75.38-75.38s33.82-75.38 75.38-75.38 75.38 33.82 75.38 75.38-33.81 75.38-75.38 75.38z m0-136.76c-33.85 0-61.38 27.54-61.38 61.38s27.54 61.38 61.38 61.38 61.38-27.54 61.38-61.38-27.53-61.38-61.38-61.38z" fill="#7C4924" /><path d="M610.53 487.28m-68.38 0a68.38 68.38 0 1 0 136.76 0 68.38 68.38 0 1 0-136.76 0Z" fill="#F8E868" /><path d="M610.53 562.66c-41.57 0-75.38-33.82-75.38-75.38s33.82-75.38 75.38-75.38 75.38 33.82 75.38 75.38-33.81 75.38-75.38 75.38z m0-136.77c-33.85 0-61.38 27.54-61.38 61.38s27.54 61.38 61.38 61.38 61.38-27.54 61.38-61.38-27.53-61.38-61.38-61.38z" fill="#7C4924" /><path d="M290.95 537.85c5.14-1.55 10.28-3.1 15.41-4.65 7.37-2.23 4.23-13.81-3.19-11.57-5.14 1.55-10.28 3.1-15.41 4.65-7.37 2.23-4.23 13.82 3.19 11.57z" fill="#FFFFFF" /><path d="M444.64 481.61c3.12-2.36 6.92-3.99 10.93-3.44 3.21 0.44 6.44-0.78 7.38-4.19 0.77-2.8-0.96-6.93-4.19-7.38-7.17-0.99-14.28 0.2-20.17 4.65-2.58 1.95-3.92 5.18-2.15 8.21 1.48 2.55 5.6 4.12 8.2 2.15z" fill="#FFFFFF" /><path d="M576.7 391.99c0.35-1.37 0.94-2.14 1.71-2.66 0.35-0.24 0.71-0.45 1.09-0.63 0.37-0.19 0.38-0.19 0.02-0.01l0.6-0.18c0.31-0.07 0.91-0.16 0.26-0.1 0.63-0.06 1.26-0.01 1.88 0.05 3.23 0.31 6-2.98 6-6 0-3.51-2.76-5.69-6-6-7.76-0.75-15.21 4.92-17.13 12.34-1.93 7.48 9.64 10.67 11.57 3.19z" fill="#FFFFFF" /><path d="M496.25 623.06h11.73c7.72 0 7.73-12 0-12h-11.73c-7.72 0-7.73 12 0 12z" fill="#FFFFFF" /><path d="M619.87 450.51c7.82 2.6 15.64 5.21 23.46 7.81 7.34 2.45 10.49-9.14 3.19-11.57-7.82-2.6-15.64-5.21-23.46-7.81-7.35-2.45-10.5 9.14-3.19 11.57z" fill="#FFFFFF" /><path d="M752.1 404.33c5.78-1.7 12.55-0.2 16.38 4.76 1.99 2.59 5.14 3.9 8.21 2.15 2.54-1.45 4.13-5.65 2.15-8.21-7.12-9.24-18.52-13.64-29.93-10.28-7.39 2.19-4.24 13.77 3.19 11.58z" fill="#FFFFFF" /></svg>