<svg xmlns="http://www.w3.org/2000/svg" viewBox="0 0 1024 1024" width="200" height="200"><path d="M512 705.422222c-12.8 0-22.755556 4.266667-29.866667 12.8-7.111111 8.533333-11.377778 21.333333-11.377777 38.4 0 17.066667 4.266667 29.866667 11.377777 38.4 8.533333 8.533333 18.488889 12.8 29.866667 12.8 12.8 0 22.755556-4.266667 29.866667-12.8 7.111111-8.533333 11.377778-21.333333 11.377777-39.822222 0-17.066667-4.266667-29.866667-11.377777-38.4-7.111111-7.111111-17.066667-11.377778-29.866667-11.377778z" fill="#010101" /><path d="M1018.311111 456.533333c-1.422222-4.266667-2.844444-8.533333-5.688889-11.377777L526.222222 12.8c-8.533333-7.111111-19.911111-7.111111-28.444444 0L12.8 445.155556c-2.844444 2.844444-5.688889 7.111111-5.688889 11.377777H4.266667v546.133334c0 7.111111 5.688889 14.222222 14.222222 14.222222h987.022222c7.111111 0 14.222222-5.688889 14.222222-14.222222l-1.422222-546.133334zM226.133333 823.466667c-9.955556 8.533333-24.177778 11.377778-39.822222 11.377777-19.911111 0-36.977778-7.111111-49.777778-19.911111-12.8-14.222222-19.911111-32.711111-19.911111-55.466666 0-25.6 7.111111-44.088889 19.911111-58.311111 12.8-14.222222 29.866667-21.333333 51.2-21.333334 18.488889 0 32.711111 5.688889 45.511111 15.644445 5.688889 5.688889 9.955556 11.377778 12.8 19.911111 1.422222 4.266667-1.422222 8.533333-4.266666 8.533333l-17.066667 4.266667c-2.844444 1.422222-7.111111-1.422222-8.533333-4.266667-1.422222-5.688889-5.688889-9.955556-9.955556-12.8-5.688889-4.266667-12.8-7.111111-19.911111-7.111111-11.377778 0-19.911111 4.266667-27.022222 11.377778-7.111111 8.533333-9.955556 21.333333-9.955556 38.4 0 18.488889 2.844444 32.711111 9.955556 41.244444 7.111111 8.533333 15.644444 12.8 27.022222 12.8 8.533333 0 15.644444-2.844444 21.333333-7.111111 4.266667-4.266667 8.533333-9.955556 11.377778-18.488889 1.422222-2.844444 4.266667-5.688889 8.533334-4.266666l17.066666 5.688888c4.266667 1.422222 5.688889 5.688889 4.266667 8.533334-7.111111 14.222222-12.8 24.177778-22.755556 31.288889z m169.244445 9.955555h-89.6c-4.266667 0-8.533333-4.266667-8.533334-8.533333v-133.688889c0-4.266667 4.266667-8.533333 8.533334-8.533333h14.222222c4.266667 0 8.533333 4.266667 8.533333 8.533333v108.088889c0 4.266667 4.266667 8.533333 8.533334 8.533333h59.733333c4.266667 0 8.533333 4.266667 8.533333 8.533334v8.533333c-2.844444 4.266667-5.688889 8.533333-9.955555 8.533333z m170.666666-18.488889c-12.8 14.222222-31.288889 19.911111-52.622222 19.911111-22.755556 0-39.822222-7.111111-54.044444-19.911111-12.8-14.222222-19.911111-32.711111-19.911111-56.888889 0-15.644444 2.844444-28.444444 7.111111-38.4 2.844444-7.111111 8.533333-14.222222 14.222222-21.333333 5.688889-5.688889 12.8-9.955556 19.911111-14.222222 9.955556-4.266667 19.911111-5.688889 32.711111-5.688889 22.755556 0 39.822222 7.111111 52.622222 21.333333 12.8 14.222222 19.911111 32.711111 19.911112 56.888889 0 25.6-7.111111 44.088889-19.911112 58.311111z m172.088889-1.422222c-4.266667 7.111111-11.377778 12.8-19.911111 17.066667-8.533333 4.266667-19.911111 5.688889-32.711111 5.688889-18.488889 0-34.133333-4.266667-44.088889-12.8-8.533333-7.111111-14.222222-15.644444-17.066666-28.444445-1.422222-5.688889 2.844444-9.955556 8.533333-11.377778l11.377778-1.422222c4.266667 0 8.533333 1.422222 9.955555 5.688889 1.422222 7.111111 5.688889 11.377778 8.533334 14.222222 5.688889 4.266667 12.8 7.111111 21.333333 7.111111 9.955556 0 17.066667-1.422222 22.755555-5.688888 4.266667-4.266667 7.111111-8.533333 7.111112-14.222223 0-4.266667-1.422222-7.111111-2.844445-8.533333-1.422222-2.844444-5.688889-4.266667-11.377778-7.111111-4.266667-1.422222-11.377778-2.844444-24.177777-7.111111-15.644444-4.266667-28.444444-8.533333-34.133334-14.222222-8.533333-8.533333-14.222222-18.488889-14.222222-29.866667 0-7.111111 2.844444-14.222222 7.111111-21.333333s9.955556-11.377778 18.488889-15.644445c8.533333-2.844444 18.488889-5.688889 29.866667-5.688889 18.488889 0 32.711111 4.266667 42.666666 12.8 7.111111 5.688889 11.377778 14.222222 14.222223 22.755556 1.422222 5.688889-2.844444 11.377778-8.533334 11.377778h-14.222222c-4.266667 0-7.111111-2.844444-8.533333-5.688889-1.422222-4.266667-4.266667-8.533333-7.111111-9.955556-4.266667-2.844444-11.377778-5.688889-19.911112-5.688889-8.533333 0-15.644444 1.422222-21.333333 5.688889-2.844444 2.844444-4.266667 5.688889-4.266667 9.955556 0 4.266667 1.422222 7.111111 4.266667 8.533333 4.266667 2.844444 12.8 7.111111 28.444445 9.955556 14.222222 2.844444 25.6 7.111111 32.711111 11.377777 7.111111 4.266667 12.8 8.533333 17.066666 15.644445 4.266667 7.111111 5.688889 14.222222 5.688889 24.177778 1.422222 7.111111-1.422222 14.222222-5.688889 22.755555z m163.555556 19.911111H796.444444c-2.844444 0-4.266667-1.422222-4.266666-4.266666v-140.8c0-2.844444 1.422222-4.266667 4.266666-4.266667h102.4c2.844444 0 4.266667 1.422222 4.266667 4.266667v15.644444c0 2.844444-1.422222 4.266667-4.266667 4.266667h-71.111111c-2.844444 0-4.266667 1.422222-4.266666 4.266666v24.177778c0 2.844444 1.422222 4.266667 4.266666 4.266667h65.422223c2.844444 0 4.266667 1.422222 4.266666 4.266666v15.644445c0 2.844444-1.422222 4.266667-4.266666 4.266667h-65.422223c-2.844444 0-4.266667 1.422222-4.266666 4.266666v31.288889c0 2.844444 1.422222 4.266667 4.266666 4.266667h73.955556c2.844444 0 4.266667 1.422222 4.266667 4.266666V824.888889c0 5.688889-1.422222 8.533333-4.266667 8.533333zM924.444444 456.533333H99.555556c-12.8 0-18.488889-15.644444-8.533334-24.177777l412.444445-368.355556c5.688889-4.266667 12.8-4.266667 18.488889 0l412.444444 368.355556c8.533333 8.533333 2.844444 24.177778-9.955556 24.177777z" fill="#010101" /></svg>