<svg xmlns="http://www.w3.org/2000/svg" viewBox="0 0 1024 1024" width="200" height="200"><path d="M604.65363 60.594646c-144.135537 35.497065-281.642519 83.865621-412.529066 145.105668-20.104855 159.686052-45.855956 331.890451-62.384721 493.622303a164116.702562 164116.702562 0 0 1 422.22632-223.097732c17.543546-156.016601 39.101569-301.714902 52.687467-415.630239z" fill="#79CDF2" /><path d="M101.313778 714.394155a32.562316 32.562316 0 0 1-3.494909-18.671983c17.89669-162.154001 44.764051-335.43001 65.652319-496.776245 1.404458-10.756686 7.351079-19.593406 15.952368-23.563231C308.434786 115.774417 444.748386 69.96717 588.360295 37.969073c10.634912-2.358353 23.827075 0.081183 34.210322 6.121163 10.391365 6.060276 16.212153 14.791458 15.136484 23.092373-14.466728 112.141499-36.560556 256.658593-54.384182 412.131272a32.245704 32.245704 0 0 1-16.707367 24.606427 41492.675163 41492.675163 0 0 1-421.4835 224.140928c-10.513139 5.508235-23.392748 4.765415-33.33355-1.956499a32.188876 32.188876 0 0 1-10.484724-11.710582zM219.198941 229.255428c-16.609947 133.407264-36.552438 275.460469-51.193709 412.634603a27555.374783 27555.374783 0 0 1 354.30495-185.648228c14.775222-130.813482 31.920974-254.284004 44.224188-357.657788C446.566875 133.748231 330.788398 177.302663 219.198941 229.255428z" fill="#79CDF2" /><path d="M917.559545 708.021326c0.982309-11.495447-2.427358-21.484959-9.246691-26.502039-94.155507-69.354242-213.481661-146.177278-338.178039-231.029266-9.636367-6.563608-22.31708-7.342961-32.8221-1.95244A27539.21134 27539.21134 0 0 0 114.834729 670.324215c-10.005748 5.374284-16.561238 15.785944-17.166047 27.305746a32.473015 32.473015 0 0 0 3.649155 16.768254 32.196995 32.196995 0 0 0 10.837869 11.954128c132.607616 87.12104 280.924054 171.713245 420.996404 255.335318 10.488784 6.238878 22.580923 6.977639 31.571889 1.798193 119.955318-68.854969 232.977647-150.812801 339.066988-245.869434 7.610863-6.843688 12.782191-18.124002 13.768558-29.595094z" fill="#67AFCF" /><path d="M893.172311 710.927661c-1.883435-144.192365 3.67351-281.289375 7.480971-399.828058-86.090022-78.089483-188.327251-160.838844-295.999652-250.504957-13.589957 113.915337-35.143921 259.613638-52.687467 415.62618 125.081995 85.655696 245.447285 163.688351 341.206148 234.706835" fill="#80D8FF" /><path d="M523.917597 491.000107a31.405465 31.405465 0 0 1-3.462436-18.107765c17.360886-156.597056 38.476464-303.517154 51.262714-419.242862 0.913304-8.211614 7.862529-14.247535 18.379726-16.021374 10.521257-1.777898 23.072077 0.848358 32.911401 6.717855 108.711536 87.457948 211.228845 167.909843 296.921073 243.580087 8.394274 4.6477 12.067784 13.48036 9.741905 23.307506-5.402698 117.592906-12.558939 254.284004-12.315391 398.65903-1.453167 11.584748-7.062881 22.609337-14.949765 28.872569-7.870647 6.287588-16.975269 6.851806-24.07874 1.562764-97.423105-72.613721-218.916832-151.766695-344.44939-238.120561a31.498825 31.498825 0 0 1-9.961097-11.207249z m108.593821-384.561682c-13.565602 100.9789-31.681485 223.491468-47.057458 354.459197 104.826952 71.046898 205.265988 136.394782 289.371097 196.3765-4.432567-117.80804-5.061731-230.022603-7.095354-330.579353-70.149831-70.592276-150.374415-143.555082-235.218285-220.256344z" fill="#80D8FF" /></svg>