<svg xmlns="http://www.w3.org/2000/svg" viewBox="0 0 1331 1024" width="200" height="200"><path d="M254.469389 647.459032c-15.726484 111.244126 8.439916 203.495747 78.874948 271.796547 64.625179 62.900547 165.505347 100.055579 286.008589 101.699368 283.017432 3.443874 463.920505-121.079916 440.778106-260.888252-21.665684 2.306695-43.342147 4.419368-65.02939 6.3488 18.070905 130.516884-181.792337 208.039074-375.296 204.164042-98.444126-1.298863-180.294063-30.655326-232.938442-80.971453-58.950063-56.125979-81.434947-138.202274-69.847579-235.654737a3636.547368 3636.547368 0 0 1-62.550232-6.494315z" fill="#C5C5E0" /><path d="M565.070147 99.963958C453.2224-16.939116 288.741053-31.571537 148.819537 60.286653 10.299284 151.983158-52.401853 329.366905 57.807495 467.617684c17.699032 21.962105 38.744926 41.240253 62.269979 57.618863l-10.256169 52.466527c-6.731453 33.479411 22.673516 66.484547 65.482106 72.245894a3620.260379 3620.260379 0 0 0 214.565726 22.377095c42.991832 3.244463 79.845053-22.969937 81.8176-57.117642l3.352252-53.431242c26.925811-11.247832 52.186274-25.853305 74.865179-43.811032 141.333558-113.189726 125.698695-301.605726 15.165979-418.002189zM314.103916 419.980126C233.170189 411.815074 178.822737 346.052716 192.344926 277.304589c13.522189-68.834358 82.388884-116.040758 154.122779-109.206905 71.733895 6.968589 126.539453 66.414484 122.211706 136.542316-4.3008 70.046989-73.6256 123.569853-154.575495 115.340126z" fill="#D4D4FF" /><path d="M341.369263 194.242021c70.181726 6.909305 126.334653 54.131874 144.066021 116.304842a139.188547 139.188547 0 0 0 10.628042-45.519495c4.155284-83.709305-59.952505-153.853305-142.928842-161.878231-82.981726-7.814737-163.877726 47.993263-181.107873 129.853979a134.704505 134.704505 0 0 0-1.180295 46.209347c33.226105-56.7296 100.330442-91.745011 170.522947-84.970442z" fill="#6E6E96" opacity=".15" /><path d="M650.919074 278.113011c-8.644716 62.426274-39.612632 123.079411-96.536253 169.482778-22.091453 18.0224-46.705179 32.681768-72.951916 44.010443l-3.319916 53.431242c-1.950989 34.158484-37.920337 60.453726-79.861221 57.365558a3528.898021 3528.898021 0 0 1-209.316379-21.520169c-41.768421-5.567326-70.343411-38.378442-63.644294-71.874021l10.218442-52.471916c-22.872926-16.233095-43.309811-35.371116-60.459116-57.209263C30.827789 343.050779 15.532463 278.409432 22.689684 216.511326c-34.578863 82.2272-29.103158 177.938863 35.619032 257.994106 17.763705 21.962105 38.879663 41.234863 62.480168 57.618863l-10.218442 52.466526c-6.704505 33.495579 22.802863 66.489937 65.713853 72.240505a3637.474358 3637.474358 0 0 0 215.072337 22.333979c43.094232 3.222905 80.006737-23.007663 81.957726-57.149979l3.319916-53.431242c26.974316-11.258611 52.283284-25.874863 75.005305-43.843368 82.717642-65.465937 111.933979-158.800842 99.279495-246.627705z" fill="#6E6E96" opacity=".15" /><path d="M476.946863 630.277389l0.00539-0.070063z" fill="#FFFFFF" /><path d="M1170.954779 158.682274c-145.143916-91.615663-317.752589-72.364463-434.887411 46.155452-115.776674 118.099537-131.330695 305.313684 15.4624 419.177095 23.541221 18.054737 49.750232 32.768 77.7216 44.123621l3.411537 53.695326c1.999495 34.304 40.151579 60.8256 84.7872 57.807495a3758.926147 3758.926147 0 0 0 222.676884-21.762695c44.425432-5.637389 75.118484-39.019789 68.311579-73.016589l-10.385515-53.248c24.489768-16.615747 46.478821-36.206484 65.002442-58.588968 115.270063-140.762274 51.658105-322.974989-92.100716-414.342737z m-173.169179 366.48421c-84.178189 8.4992-156.203116-45.212295-160.595537-115.582652-4.4032-70.467368 52.9408-130.840253 127.816758-138.784337 74.892126-7.803958 146.399663 39.3216 160.099705 109.201516 13.700042 69.777516-43.126568 136.736337-127.320926 145.165473z" fill="#E0E0FF" /><path d="M966.639832 297.547453c73.242947-7.545263 142.939621 27.303074 177.098105 84.792589a133.642779 133.642779 0 0 0-0.910821-46.969263c-17.337937-83.202695-101.246653-138.902905-187.979453-129.827032-86.705853 9.280674-153.944926 80.529516-149.816589 164.56219a135.168 135.168 0 0 0 10.935242 45.697347c18.658358-62.528674 77.441347-110.570442 150.673516-118.255831z" fill="#6E6E96" opacity=".15" /><path d="M1304.904758 316.001011c7.097937 63.229305-9.167495 129.406653-55.371453 186.863831-17.925389 22.312421-39.256926 41.833095-63.083789 58.389558l10.423242 53.237221c6.839242 34.012968-22.969937 67.287579-66.333642 72.865684a3671.487326 3671.487326 0 0 1-217.362863 21.552506c-43.563116 3.007326-80.885221-23.487326-82.917053-57.807495l-3.449263-53.695327c-27.286905-11.339453-52.881516-26.047326-75.873011-44.075115-59.246484-46.457263-91.621053-107.013389-100.777768-169.380379-13.0048 87.875368 17.699032 181.010863 103.688084 246.730105 23.611284 18.033179 49.901137 32.730274 77.93179 44.069726l3.454652 53.695327c2.026442 34.309389 40.297095 60.804042 85.018948 57.7536a3767.651705 3767.651705 0 0 0 223.178105-21.929769c44.517053-5.664337 75.269389-39.073684 68.435537-73.070484l-10.423242-53.242611c24.549053-16.642695 46.581221-36.254989 65.137179-58.648252 67.578611-81.553516 73.825011-179.561095 38.324547-263.308126z" fill="#6E6E96" opacity=".15" /><path d="M1217.676126 698.588968v-0.070063l-0.010779 0.00539z" fill="#FFFFFF" /></svg>