<svg xmlns="http://www.w3.org/2000/svg" viewBox="0 0 1024 1024" width="200" height="200"><path d="M67.2256 473.6v358.9632c0 64.5632 70.1952 104.6528 125.7984 71.8336l133.888-79.0016a83.39456 83.39456 0 0 1 85.2992 0.3072l200.0896 120.064c25.7536 15.4624 57.856 15.872 84.0192 1.0752l227.1232-128.5632c26.1632-14.7968 42.3424-42.5472 42.3424-72.6016V428.4416c0-63.6928-68.5056-103.8848-124.1088-72.8064l-146.6368 81.92a83.4048 83.4048 0 0 1-78.848 1.3312l-240.128-123.6992a83.44576 83.44576 0 0 0-72.448-1.8944L116.4288 397.5168a83.42528 83.42528 0 0 0-49.2032 76.0832z" fill="#025FFC" /><path d="M106.4448 485.5808v312.7296c0 55.6032 64.0512 90.112 114.7904 61.8496l122.2144-68.0448c24.064-13.3632 53.9136-13.2608 77.8752 0.256l182.6304 103.424c23.5008 13.312 52.7872 13.6704 76.6464 0.9216l207.3088-110.7456c23.8592-12.7488 38.6048-36.608 38.6048-62.5152V446.6688c0-54.8352-62.5152-89.4464-113.2544-62.72L679.424 454.5536c-22.272 11.7248-49.3056 12.1856-71.9872 1.1264L388.2496 349.184a80.05632 80.05632 0 0 0-66.0992-1.6384L151.3472 420.0448c-27.2896 11.6224-44.9024 37.2736-44.9024 65.536z" fill="#0C7AF2" /><path d="M160.4096 504.1664v260.4032c0 45.6192 55.6544 73.9328 99.6864 50.7392l106.1376-55.808c20.8896-10.9568 46.848-10.9056 67.6352 0.2048l158.6176 84.7872c20.4288 10.9056 45.8752 11.2128 66.56 0.768l180.0704-90.8288c20.736-10.4448 33.536-30.0544 33.536-51.2512v-230.912c0-45.0048-54.272-73.3696-98.3552-51.4048l-116.224 57.856c-19.3536 9.6256-42.8032 9.984-62.5152 0.9216L405.1456 392.2944c-17.92-8.2432-39.0656-8.704-57.3952-1.3312L199.3728 450.4576c-23.7056 9.5232-38.9632 30.5664-38.9632 53.7088z" fill="#3489FA" /><path d="M217.4464 522.0864v212.2752c0 36.4544 46.7456 59.0336 83.712 40.5504l89.1392-44.5952c17.5104-8.7552 39.3216-8.704 56.7808 0.1536l133.1712 67.7376c17.152 8.704 38.5024 8.96 55.9104 0.6144l151.1936-72.5504c17.408-8.3456 28.16-24.0128 28.16-40.96V496.5888c0-35.9424-45.6192-58.624-82.5856-41.1136L635.3408 501.76c-16.2304 7.68-35.9424 7.9872-52.48 0.768L422.9632 432.6912c-15.0528-6.5536-32.768-6.9632-48.2304-1.0752l-124.5696 47.5648c-19.9168 7.5776-32.7168 24.3712-32.7168 42.9056z" fill="#3F91FC" /><path d="M766.0544 314.368c0-135.0144-114.5856-244.4288-249.5488-244.4288S266.9056 179.4048 266.9056 314.368c0 213.0944 172.032 413.0816 249.5488 413.0816 70.1952 0.0512 249.6-211.7632 249.6-413.0816z" fill="#025FFC" /><path d="M734.3616 315.0848c0-116.6336-99.9936-211.1488-217.856-211.1488S298.6496 198.4512 298.6496 315.0848c0 184.064 150.1696 356.8128 217.856 356.8128 61.2352 0 217.856-182.8864 217.856-356.8128z" fill="#0C7AF2" /><path d="M709.888 317.1328c0-100.7616-88.7808-182.4768-193.3824-182.4768S323.1232 216.3712 323.1232 317.1328c0 159.0784 133.2736 308.3776 193.3824 308.3776 54.3744 0 193.3824-158.1056 193.3824-308.3776z" fill="#3489FA" /><path d="M679.4752 316.7744c0-81.3568-74.8032-147.3024-162.9696-147.3024S353.536 235.4176 353.536 316.7744c0 128.4096 112.3328 248.9344 162.9696 248.9344 45.824 0 162.9696-127.5904 162.9696-248.9344z" fill="#3F91FC" /><path d="M516.5056 142.1824c-95.6928 0-173.5168 77.824-173.5168 173.5168s77.824 173.5168 173.5168 173.5168 173.5168-77.824 173.5168-173.5168-77.824-173.5168-173.5168-173.5168z m0 160.8704c6.9632 0 12.6464 5.6832 12.6464 12.6464s-5.6832 12.6464-12.6464 12.6464-12.6464-5.6832-12.6464-12.6464 5.6832-12.6464 12.6464-12.6464z" fill="#025FFC" /><path d="M516.5056 455.7824c-77.2608 0-140.0832-62.8224-140.0832-140.0832S439.2448 175.616 516.5056 175.616s140.0832 62.8224 140.0832 140.0832-62.8224 140.0832-140.0832 140.0832z m0-177.7664c-20.7872 0-37.6832 16.896-37.6832 37.6832 0 20.7872 16.896 37.6832 37.6832 37.6832 20.7872 0 37.6832-16.896 37.6832-37.6832 0-20.7872-16.896-37.6832-37.6832-37.6832z" fill="#F7BC00" /><path d="M516.5056 455.7824c-77.2608 0-140.0832-62.8224-140.0832-140.0832S439.2448 175.616 516.5056 175.616s140.0832 62.8224 140.0832 140.0832-62.8224 140.0832-140.0832 140.0832z m0-177.7664c-20.7872 0-37.6832 16.896-37.6832 37.6832 0 20.7872 16.896 37.6832 37.6832 37.6832 20.7872 0 37.6832-16.896 37.6832-37.6832 0-20.7872-16.896-37.6832-37.6832-37.6832z" fill="#F7BC00" /><path d="M516.5056 435.3024c-65.9456 0-119.6032-53.6576-119.6032-119.6032S450.56 196.096 516.5056 196.096s119.6032 53.6576 119.6032 119.6032-53.6576 119.6032-119.6032 119.6032z m0-177.7664c-32.1024 0-58.1632 26.112-58.1632 58.1632s26.112 58.1632 58.1632 58.1632 58.1632-26.112 58.1632-58.1632c0-32.1024-26.112-58.1632-58.1632-58.1632z" fill="#FFD029" /><path d="M516.5056 419.9424c-57.4976 0-104.2432-46.7456-104.2432-104.2432s46.7456-104.2432 104.2432-104.2432 104.2432 46.7456 104.2432 104.2432-46.7456 104.2432-104.2432 104.2432z m0-177.7664c-40.5504 0-73.5232 32.9728-73.5232 73.5232s32.9728 73.5232 73.5232 73.5232 73.5232-32.9728 73.5232-73.5232-32.9728-73.5232-73.5232-73.5232z" fill="#FFE576" /></svg>