<svg xmlns="http://www.w3.org/2000/svg" viewBox="0 0 1024 1024" width="200" height="200"><path d="M447.996 804.188h77.916v155.832h-77.916z" fill="#8D386D" /><path d="M445.724 804.188h38.96v155.832h-38.96z" fill="#E8E6F4" /><path d="M525.916 972.02H448a12 12 0 0 1-12-12v-155.832a12 12 0 0 1 12-12h77.916a12 12 0 0 1 12 12v155.832a12 12 0 0 1-12 12z m-65.92-24h53.916v-131.832h-53.916v131.832z" fill="#44294F" /><path d="M486.956 63.98c-101.432 0-183.66 104.652-183.66 233.752 0 84.504 35.236 158.524 88.024 199.58 48.924 38.048 76.156 97.656 76.156 159.632v147.244h38.96v-147.244c0-61.976 27.232-121.588 76.156-159.632 52.792-41.056 88.024-115.076 88.024-199.58 0-129.1-82.228-233.752-183.66-233.752z" fill="#FCC800" /><path d="M506.432 816.188h-38.956a12 12 0 0 1-12-12v-147.248c0-59.196-26.74-115.332-71.524-150.16-58.02-45.12-92.66-123.268-92.66-209.052 0-135.508 87.772-245.752 195.66-245.752s195.66 110.244 195.66 245.752c0 85.78-34.64 163.928-92.66 209.052-44.784 34.828-71.524 90.964-71.524 150.16v147.248a11.992 11.992 0 0 1-11.996 12z m-26.956-24h14.956v-135.248c0-66.548 30.2-129.76 80.788-169.104 52.22-40.608 83.392-111.676 83.392-190.104 0-122.272-77.004-221.752-171.66-221.752S315.296 175.456 315.296 297.732c0 78.428 31.172 149.496 83.392 190.104 50.588 39.34 80.788 102.56 80.788 169.104v135.248z" fill="#44294F" /><path d="M486.956 558.152c-15.736-36.224-40.02-68.264-71.08-92.416-44.768-34.816-72.58-99.192-72.58-168.004 0-106.832 64.444-193.752 143.66-193.752s143.66 86.916 143.66 193.752c0 68.812-27.812 133.188-72.584 168.004-31.056 24.152-55.34 56.192-71.076 92.416z" fill="#EB6B69" /><path d="M486.956 570.152a11.996 11.996 0 0 1-11.004-7.22c-15.144-34.86-38.464-65.196-67.44-87.728-47.628-37.04-77.216-105.044-77.216-177.476 0-113.448 69.828-205.752 155.66-205.752s155.66 92.3 155.66 205.752c0 72.432-29.588 140.436-77.216 177.476-28.976 22.536-52.296 52.868-67.44 87.728a11.996 11.996 0 0 1-11.004 7.22z m0-454.172c-72.596 0-131.66 81.532-131.66 181.752 0 65.192 26.036 125.936 67.948 158.532 25.768 20.04 47.488 45.596 63.712 74.804 16.224-29.208 37.94-54.764 63.712-74.804 41.912-32.592 67.948-93.34 67.948-158.532 0-100.22-59.064-181.752-131.66-181.752z" fill="#44294F" /><path d="M557.104 466.46a113.144 113.144 0 0 1-140.296 0.004l-0.932-0.728c-44.768-34.816-72.58-99.192-72.58-168.004 0-106.832 64.444-193.752 143.66-193.752s143.66 86.916 143.66 193.752c0 68.812-27.812 133.188-72.584 168.004l-0.928 0.724z" fill="#94D3CC" /><path d="M455.768 466.464l-0.932-0.728c-44.768-34.816-72.58-99.192-72.58-168.004 0-97.92 54.152-179.056 124.18-191.92a107.548 107.548 0 0 0-19.48-1.828c-79.216 0-143.66 86.916-143.66 193.752 0 68.812 27.812 133.188 72.58 168.004l0.932 0.728a113.132 113.132 0 0 0 89.628 22.64 113.508 113.508 0 0 1-50.668-22.644z" fill="#E8E6F4" /><path d="M486.956 502.824a125.256 125.256 0 0 1-77.564-26.928l-0.868-0.676c-47.644-37.052-77.228-105.056-77.228-177.488 0-113.448 69.828-205.752 155.66-205.752s155.66 92.3 155.66 205.752c0 72.432-29.588 140.436-77.216 177.476l-0.888 0.696a125.276 125.276 0 0 1-77.556 26.92z m0-386.844c-72.596 0-131.66 81.532-131.66 181.752 0 65.192 26.036 125.936 67.948 158.532l0.972 0.756a101.232 101.232 0 0 0 125.472 0.008l0.008-0.008 0.96-0.748c41.924-32.604 67.96-93.352 67.96-158.544 0-100.216-59.064-181.748-131.66-181.748z" fill="#44294F" /><path d="M474.956 103.98h24v386.852h-24zM397.04 135.052h24v324.712h-24zM552.872 135.052h24v324.712h-24z" fill="#44294F" /><path d="M337.62 246.768h290.976v24H337.62zM406.652 168.856h158.22v24h-158.22zM406.652 402.604h158.22v24h-158.22zM343.296 324.688h285.3v24H343.296z" fill="#44294F" /><path d="M642.788 648.356m-77.916 0a77.916 77.916 0 1 0 155.832 0 77.916 77.916 0 1 0-155.832 0Z" fill="#8479B9" /><path d="M603.832 648.356c0-36.292 24.848-66.7 58.436-75.364a77.816 77.816 0 0 0-19.48-2.552c-43.032 0-77.916 34.884-77.916 77.916s34.884 77.916 77.916 77.916c6.74 0 13.244-0.944 19.48-2.552-33.588-8.664-58.436-39.072-58.436-75.364z" fill="#E8E6F4" /><path d="M642.788 738.268c-49.58 0-89.916-40.336-89.916-89.916 0-49.584 40.336-89.916 89.916-89.916s89.916 40.336 89.916 89.916-40.336 89.916-89.916 89.916z m0-155.832c-36.348 0-65.916 29.572-65.916 65.916 0 36.344 29.572 65.916 65.916 65.916 36.344 0 65.916-29.572 65.916-65.916 0-36.344-29.568-65.916-65.916-65.916z" fill="#44294F" /><path d="M592.956 720.232a11.96 11.96 0 0 1-7.68-2.78 89.696 89.696 0 0 1-32.404-69.092 89.72 89.72 0 0 1 32.404-69.096 11.992 11.992 0 0 1 15.364 0 89.72 89.72 0 0 1 32.404 69.096 89.696 89.696 0 0 1-32.404 69.092 12 12 0 0 1-7.684 2.78z m0-115.008c-10.32 11.904-16.084 27.136-16.084 43.132s5.764 31.232 16.084 43.128c10.32-11.9 16.084-27.132 16.084-43.128s-5.764-31.232-16.084-43.132zM692.62 720.232a11.96 11.96 0 0 1-7.68-2.78c-20.592-17.152-32.404-42.336-32.404-69.092s11.808-51.94 32.4-69.096a11.992 11.992 0 0 1 15.364 0c20.592 17.156 32.404 42.34 32.404 69.096s-11.812 51.944-32.404 69.096a12 12 0 0 1-7.68 2.776z m0-115.008c-10.32 11.904-16.084 27.136-16.084 43.132s5.764 31.232 16.084 43.128c10.32-11.9 16.084-27.132 16.084-43.128s-5.764-31.232-16.084-43.132zM474.956 843.144h24v116.876h-24z" fill="#44294F" /></svg>