<svg xmlns="http://www.w3.org/2000/svg" viewBox="0 0 1024 1024" width="200" height="200"><path d="M986.956976 176.521591H35.837672A19.05035 19.05035 0 0 1 16.787322 157.296467a157.296467 157.296467 0 0 1 157.296467-157.296467h675.326165a157.296467 157.296467 0 0 1 157.296467 157.296467 19.225124 19.225124 0 0 1-19.749445 19.225124zM173.559468 18.001707a139.819082 139.819082 0 0 0-139.819082 139.819082 1.572965 1.572965 0 0 0 1.572965 1.747738h951.643625a1.572965 1.572965 0 0 0 1.747738-1.747738 139.819082 139.819082 0 0 0-139.819081-139.819082z" fill="#ABABD3" /><path d="M864.440506 1024H158.354143a117.97235 117.97235 0 0 1-117.797577-117.97235v-629.185868A117.97235 117.97235 0 0 1 158.354143 158.869432h706.086363a118.147124 118.147124 0 0 1 117.622802 118.147124v629.185868a118.147124 118.147124 0 0 1-117.622802 117.797576zM158.354143 176.521591a100.494965 100.494965 0 0 0-100.320191 100.494965v629.185868a100.494965 100.494965 0 0 0 100.320191 100.494965h706.086363a100.669739 100.669739 0 0 0 100.145417-100.669739v-629.185868a100.669739 100.669739 0 0 0-100.494965-100.494965z" fill="#ABABD3" /><path d="M545.128678 223.360983h-67.287934a31.28452 31.28452 0 1 1 0-62.569039h67.287934a31.28452 31.28452 0 0 1 0 62.569039z m-67.287934-48.587131a17.477385 17.477385 0 0 0 0 34.954771h67.287934a17.477385 17.477385 0 0 0 0-34.954771z" fill="#ABABD3" /><path d="M813.406541 977.160608H209.562881a118.147124 118.147124 0 0 1-117.97235-117.972351V323.855948a118.147124 118.147124 0 0 1 117.97235-117.97235h603.84366a117.97235 117.97235 0 0 1 117.797576 117.97235v535.332309a117.97235 117.97235 0 0 1-117.797576 117.972351zM209.562881 223.360983a100.669739 100.669739 0 0 0-100.494965 100.494965v535.332309a100.669739 100.669739 0 0 0 100.494965 100.494965h603.84366a100.494965 100.494965 0 0 0 100.320191-100.494965V323.855948a100.494965 100.494965 0 0 0-100.320191-100.494965z" fill="#ABABD3" /><path d="M428.030197 523.447687H214.281775a63.093361 63.093361 0 0 1-63.09336-63.09336v-116.049838a63.093361 63.093361 0 0 1 63.09336-63.093361h213.748422a63.093361 63.093361 0 0 1 63.09336 63.093361v116.049838a63.093361 63.093361 0 0 1-63.09336 63.09336zM214.281775 298.688513a45.615975 45.615975 0 0 0-45.615975 45.615976v116.049838a45.615975 45.615975 0 0 0 45.615975 45.615975h213.748422a45.790749 45.790749 0 0 0 45.615975-45.615975v-116.049838a45.790749 45.790749 0 0 0-45.615975-45.615976z" fill="#ABABD3" /><path d="M540.584557 289.949821m54.354668 0l213.573648 0q54.354668 0 54.354668 54.354668l0 116.049838q0 54.354668-54.354668 54.354668l-213.573648 0q-54.354668 0-54.354668-54.354668l0-116.049838q0-54.354668 54.354668-54.354668Z" fill="#ABABD3" /><path d="M808.512873 523.447687H594.939225a63.093361 63.093361 0 0 1-63.09336-63.09336v-116.049838a63.093361 63.093361 0 0 1 63.09336-63.093361H808.512873a63.093361 63.093361 0 0 1 63.09336 63.093361v116.049838a63.093361 63.093361 0 0 1-63.09336 63.09336zM594.939225 298.688513a45.615975 45.615975 0 0 0-45.615975 45.615976v116.049838a45.615975 45.615975 0 0 0 45.615975 45.615975H808.512873a45.615975 45.615975 0 0 0 45.615975-45.615975v-116.049838a45.615975 45.615975 0 0 0-45.615975-45.615976z" fill="#ABABD3" /><path d="M160.101881 565.218638m54.354668 0l213.573648 0q54.354668 0 54.354668 54.354668l0 116.049838q0 54.354668-54.354668 54.354668l-213.573648 0q-54.354668 0-54.354668-54.354668l0-116.049838q0-54.354668 54.354668-54.354668Z" fill="#ABABD3" /><path d="M428.030197 798.716505H214.281775a63.093361 63.093361 0 0 1-63.09336-63.093361v-116.57416a63.093361 63.093361 0 0 1 63.09336-63.09336h213.748422a63.093361 63.093361 0 0 1 63.09336 63.09336v116.049838a63.093361 63.093361 0 0 1-63.09336 63.617683zM214.281775 573.957331a45.615975 45.615975 0 0 0-45.615975 45.091653v116.049838a45.615975 45.615975 0 0 0 45.615975 45.615976h213.748422a45.790749 45.790749 0 0 0 45.615975-45.615976v-116.049838a45.790749 45.790749 0 0 0-45.615975-45.615975zM808.512873 798.716505H594.939225a63.093361 63.093361 0 0 1-63.09336-63.093361v-116.57416a63.093361 63.093361 0 0 1 63.09336-63.09336H808.512873a63.093361 63.093361 0 0 1 63.09336 63.09336v116.049838a63.093361 63.093361 0 0 1-63.09336 63.617683zM594.939225 573.957331a45.615975 45.615975 0 0 0-45.615975 45.091653v116.049838a45.615975 45.615975 0 0 0 45.615975 45.615976H808.512873a45.615975 45.615975 0 0 0 45.615975-45.615976v-116.049838a45.615975 45.615975 0 0 0-45.615975-45.615975zM356.547691 927.874381a17.477385 17.477385 0 0 1-8.389145-1.922512l-38.799795-17.477385a29.012459 29.012459 0 0 1 0-52.432156l38.799795-17.477385a19.924219 19.924219 0 0 1 28.488138 17.477385v52.432156a19.574671 19.574671 0 0 1-9.263014 17.477385 20.098993 20.098993 0 0 1-10.835979 1.922512z m0-74.628435h-1.048643l-38.799795 17.477386a11.535074 11.535074 0 0 0 0 20.798088l38.799795 17.477385a2.796382 2.796382 0 0 0 2.446834 0 2.621608 2.621608 0 0 0 1.223417-2.27206v-52.432155a2.621608 2.621608 0 0 0-1.223417-2.272061zM670.965851 927.874381a20.448541 20.448541 0 0 1-10.835979-3.145929 20.098993 20.098993 0 0 1-9.263014-17.477385v-52.432156a20.098993 20.098993 0 0 1 28.662912-17.477385l38.625021 17.477385a29.012459 29.012459 0 0 1 0 52.432156l-38.625021 17.477385a18.526028 18.526028 0 0 1-8.563919 3.145929z m0-74.628435h-1.398191a3.145929 3.145929 0 0 0-1.223417 2.27206v52.432156a3.145929 3.145929 0 0 0 1.223417 2.27206 4.019799 4.019799 0 0 0 2.621608 0l38.625021-17.477385a11.535074 11.535074 0 0 0 0-20.798088l-38.625021-17.477386a1.922512 1.922512 0 0 0-1.223417-1.223417z" fill="#ABABD3" /><path d="M368.082765 859.887353h291.69756v43.693463H368.082765z" fill="#ABABD3" /></svg>