<svg xmlns="http://www.w3.org/2000/svg" viewBox="0 0 1024 1024" width="200" height="200"><path d="M450.1 751.8c-2 0-3.9-1.1-4.8-3-20.3-43.7 24.5-210.4 26.4-217.5 0.7-2.8 3.6-4.5 6.4-3.7 2.8 0.8 4.4 3.6 3.7 6.4-0.5 1.7-45.7 170.1-27 210.3 1.2 2.6 0.1 5.7-2.5 7-0.7 0.4-1.4 0.5-2.2 0.5zM472.5 758.1c-1 0-2-0.3-2.9-0.9-2.4-1.6-3.1-4.9-1.4-7.3 5.5-9.1 28-128.5 40.9-201.6 0.5-2.8 3.2-4.7 6.1-4.2 2.8 0.5 4.7 3.2 4.2 6.1-5.7 32.2-34.4 193.5-42.5 205.6-1 1.5-2.7 2.3-4.4 2.3zM507.2 767.7c-2.1 0-4.1-1.3-4.9-3.3-1-2.7 0.3-5.7 3-6.8 7.9-7.5 28-107 42.5-198.7 0.4-2.9 3.2-4.8 6-4.3 2.9 0.4 4.8 3.1 4.3 6-11.8 74.7-33.9 200.9-49.1 206.8-0.5 0.2-1.1 0.3-1.8 0.3zM547.1 777.6c-2.5 0-4.7-1.8-5.1-4.3-0.4-2.3 0.7-4.4 2.6-5.5 2.7-3.9 12.5-29 39.4-185.2 0.6-3.7 1-5.9 1.1-6.4 0.6-2.8 3.3-4.7 6.2-4.1 2.8 0.6 4.7 3.3 4.1 6.2-0.1 0.4-0.5 2.6-1.1 6.1-32.8 190.9-40.6 192.2-46.3 193.2h-0.9z m-0.9-10.4zM582.8 786.5c-2.1 0-4.1-1.3-4.9-3.4-1-2.7 0.4-5.7 3.1-6.7 8.7-7.3 26.8-104.3 39.2-193.7 0.4-2.9 2.9-4.9 5.9-4.5 2.9 0.4 4.9 3 4.5 5.9-10 72.8-29.3 195.9-45.9 202.1-0.7 0.2-1.3 0.3-1.9 0.3zM619.9 791.7c-1.9 0-3.8-1.1-4.7-2.9-1.3-2.6-0.2-5.7 2.3-7 6.6-7.3 25.2-100.5 39-186.1 0.5-2.9 3.1-4.8 6-4.3s4.8 3.1 4.3 6c-11.2 69.7-32 187.5-44.7 193.8-0.7 0.3-1.4 0.5-2.2 0.5zM651.7 804.3c-0.4 0-0.9 0-1.2-0.1-2.8-0.7-4.5-3.6-3.8-6.4 0.4-1.6 1.5-2.8 2.8-3.4 7.2-11.4 29.3-105 47-189.3 0.6-2.8 3.3-4.7 6.2-4 2.8 0.6 4.6 3.4 4 6.2-14.7 70.5-41.1 189.7-51.6 196.2-0.8 0.5-2.2 0.8-3.4 0.8z" fill="#231815" /><path d="M743 858.1c-156.4 0-439.9-8.1-540.6-63.4-74.6-42.4-69.6-78.2-66.4-88.1l10.4-185c0.1-1.1 0.3-2.1 0.6-3.1 0.5-1.3 11.9-30.8 49.3-35.1C214 433.8 323.9 162.7 584.4 170c80.9 0 116.1 14.4 123.6 18 14.7 3.5 56.7 15.4 61.8 38.5 0.5 2.4 0.7 5.2 0.2 8.4 3.7-1.2 6.1-2.5 6.1-2.5 3.6-2 8.1-1.7 11.4 0.8 6 4.6 147.5 116 94.6 391.7-1.8 11.2-8.9 83.5-19.5 198.2-1.3 14.6-3.8 20.8-5.7 23.4-1.6 2.4-8.1 10.3-21.5 10.6-17.6 0.4-50.4 1-92.4 1zM155.9 713.3s-8.5 26.1 56.8 63.2c122.8 67.6 540 61.6 622.4 59.8 2.6-0.1 3.9-0.9 4.5-1.3 0.5-1.3 1.6-5.3 2.3-13.7 6.2-67.7 17-183.6 19.7-199.9 45.1-234.8-58.7-345.9-82.2-367.5-7.3 2.8-19.3 6-31.9 3.2-4-0.9-7.1-4-7.9-7.9-0.9-4 0.6-8.1 3.8-10.6 4.5-3.4 6.2-6.3 6-7.4-1.6-7.3-26.3-18.1-47.2-22.9-1-0.2-1.9-0.6-2.7-1.1-0.2-0.1-31.2-16.1-115.2-16.1-3-0.1-5.9-0.1-8.8-0.1-239.9 0-352.3 264.3-361.1 304.9-1 4.7-5.2 8.1-10 8.2-25.1 0.6-34.7 16.3-37 20.8L157 709.6c-0.2 1.2-0.6 2.5-1.1 3.7z m684 121.2s-0.1 0.1 0 0c-0.1 0.1-0.1 0.1 0 0z" fill="#231815" /><path d="M865.3 646.7c-55.2 0-250.8-58.2-337.1-90.4-134.1-50.1-240-68.9-323.6-57.7-3 0.4-5.5-1.6-5.9-4.5-0.4-2.9 1.6-5.5 4.5-5.9 85.3-11.5 192.9 7.6 328.6 58.2 86.1 32.1 292.5 93.4 337.5 89.6 2.9-0.4 5.4 1.9 5.7 4.8 0.2 2.9-1.9 5.4-4.8 5.7-1.4 0.1-3.1 0.2-4.9 0.2zM843.9 849.7c-19.2-0.2-108.6-23.5-195-45.9C605.7 792.6 565 782 535.7 775c-30.3-7.3-65.9-17.4-103.7-28.1-68.9-19.6-147.1-41.7-202.5-48.5-31.8-3.9-55.1 0.1-67.3 11.4-9.6 8.9-9.2 19.5-9.2 19.9 0.1 2.9-2 5.3-4.9 5.5-2.8 0.2-5.3-2-5.5-4.8 0-0.6-0.9-15.6 12.2-28 14.7-13.9 40.3-18.8 75.9-14.4 56.3 6.9 131.4 28.2 204.1 48.9 37.6 10.7 73.1 20.8 103.3 28 29.4 7.1 70.2 17.7 113.4 28.9 81.8 21.3 174.6 45.4 192.5 45.6 2.9 0 5.2 2.4 5.2 5.3-0.1 2.7-2.4 5-5.3 5zM789.9 330.4h-0.6c-2.9-0.3-4.9-2.9-4.6-5.8 3.2-27.9-0.4-49.1-10.7-61.3-6.2-7.4-13.2-9.6-16.2-10.3-9.1 5.5-51.5 27.6-129 18.1-2.9-0.3-4.9-3-4.6-5.8 0.3-2.9 3-5 5.8-4.6 82.1 10 123.3-17.2 123.7-17.5 1-0.7 2.1-0.9 3.3-0.9 0.6 0 14 1 25 14.3 12.3 14.7 16.6 38 13 69.2-0.2 2.7-2.5 4.6-5.1 4.6z" fill="#231815" /><path d="M755 247.7c-0.6 0-1.3-0.1-1.9-0.3-1-0.4-105.7-39.9-193.4-7.5-2.7 1-5.7-0.4-6.7-3.1s0.4-5.7 3.1-6.7c91.5-33.7 196.4 5.9 200.8 7.6 2.7 1 4 4.1 3 6.8-0.8 1.9-2.8 3.2-4.9 3.2zM183 696.9c-2.7 0-5-2.1-5.2-4.8-7.1-83.2 20.8-191 21.1-192.1 0.7-2.8 3.6-4.4 6.4-3.7 2.8 0.7 4.5 3.6 3.7 6.4-0.3 1.1-27.7 107.2-20.8 188.5 0.2 2.9-1.9 5.4-4.8 5.7h-0.4zM218.9 696.9c-2.7 0-5-2.1-5.2-4.8-7.1-83.2 23.9-198.2 25.2-203 0.8-2.8 3.6-4.4 6.4-3.7 2.8 0.8 4.4 3.6 3.7 6.4-0.3 1.2-31.9 118-24.9 199.4 0.2 2.9-1.9 5.4-4.8 5.7h-0.4zM254.7 696.9c-2.7 0-5-2.1-5.2-4.8-7.1-83.2 23.9-198.2 25.2-203 0.8-2.8 3.6-4.4 6.4-3.7 2.8 0.8 4.4 3.6 3.7 6.4-0.3 1.2-31.9 118-24.9 199.4 0.2 2.9-1.9 5.4-4.8 5.7h-0.4zM286.3 702.3c-2.7 0-5-2.1-5.2-4.8-7.1-83.2 23.9-198.2 25.2-203 0.8-2.8 3.6-4.4 6.4-3.7 2.8 0.8 4.4 3.6 3.7 6.4-0.3 1.2-31.9 118-24.9 199.4 0.2 2.9-1.9 5.4-4.8 5.7h-0.4zM319.1 712c-2.7 0-5-2.1-5.2-4.8-7.1-83.2 23.9-198.2 25.2-203 0.8-2.8 3.6-4.4 6.4-3.7 2.8 0.8 4.4 3.6 3.7 6.4-0.3 1.2-31.9 118-24.9 199.4 0.2 2.9-1.9 5.4-4.8 5.7h-0.4zM351.3 719.8c-2.7 0-5-2.1-5.2-4.8-7.1-83.2 23.9-198.2 25.2-203 0.8-2.8 3.6-4.4 6.4-3.7 2.8 0.8 4.4 3.6 3.7 6.4-0.3 1.2-31.9 118-24.9 199.4 0.2 2.9-1.9 5.4-4.8 5.7-0.1-0.1-0.3 0-0.4 0zM384.5 727c-2.7 0-5-2.1-5.2-4.8-7.1-83.2 23.9-198.2 25.2-203 0.8-2.8 3.6-4.4 6.4-3.7 2.8 0.8 4.4 3.6 3.7 6.4-0.3 1.2-31.9 118-24.9 199.4 0.2 2.9-1.9 5.4-4.8 5.7-0.1-0.1-0.2 0-0.4 0zM416.8 736.4c-2.7 0-5-2.1-5.2-4.8-7.1-83.2 23.9-198.2 25.2-203 0.8-2.8 3.6-4.4 6.4-3.7 2.8 0.8 4.4 3.6 3.7 6.4-0.3 1.2-31.9 118-24.9 199.4 0.2 2.9-1.9 5.4-4.8 5.7h-0.4zM689.6 814.2c-0.4 0-0.9-0.1-1.3-0.2-1.4-0.3-2.6-1.3-3.3-2.5-1.4-2.4-3.2-5.4 46.6-191.8 0.8-2.8 3.7-4.4 6.4-3.7 2.8 0.7 4.4 3.6 3.7 6.4-18.4 69.1-45.8 174.2-47 185.5 0.1 0.7 0.1 1.5-0.1 2.2-0.5 2.5-2.6 4.1-5 4.1zM736.7 821.3c-1.2 0-2.4-0.4-3.3-1.2-2.7-2.3-11-9.2 33.1-190.7 0.7-2.8 3.5-4.5 6.3-3.8 2.8 0.7 4.5 3.5 3.8 6.3-19.4 79.7-38.3 169.6-35.7 181.2 1.3 1.9 1.3 4.5-0.3 6.4-0.9 1.2-2.4 1.8-3.9 1.8z m4.4-7.9z m-1-1.3zM780.3 832.6c-1.6 0-3.1-0.7-4.2-2.1-14.4-19 20.4-152 31.4-192.3 0.8-2.8 3.6-4.4 6.4-3.7 2.8 0.8 4.4 3.6 3.7 6.4-22.4 82-40.9 173-33.1 183.2 1.7 2.3 1.3 5.6-1 7.3-1 0.9-2.1 1.2-3.2 1.2zM818.5 845.7c-0.7 0-1.3-0.1-2-0.4-4.6-1.9-15.4-6.3 22.2-201.2 0.5-2.8 3.3-4.7 6.1-4.1 2.8 0.5 4.7 3.3 4.1 6.1-16.4 84.9-30.8 178.4-27 190.5 1.6 1.4 2.2 3.8 1.3 5.8-0.6 2.1-2.6 3.3-4.7 3.3z m3.8-8.6h0.1-0.1z" fill="#231815" /></svg>