<svg xmlns="http://www.w3.org/2000/svg" viewBox="0 0 1024 1024" width="200" height="200"><path d="M789.215143 1023.923304h-2.991125c-100.892933-1.342171-187.482156-71.556904-210.529154-170.800883-9.165113-39.38314-19.595701-79.226454-29.681159-117.765944-4.409991-16.757967-8.781635-33.515935-13.076584-50.31225-2.377561-9.318504-4.064862-19.902483 1.533911-27.572033 5.522076-7.592855 15.837621-9.126765 24.197431-9.625285 17.141445-0.997042 37.043928-1.763997 55.987716 1.840692 9.088417 1.725649 17.103097 6.979291 24.810995 12.194585v-53.763548c-0.038348-42.335917-0.076696-86.129049 0.268435-129.231921 0.268434-34.244542 24.197431-60.397708 58.173538-63.618919 30.86994-2.952777 60.052578 18.943789 66.648392 49.775381 1.457215 6.749204 1.457215 13.536756 1.495562 20.055874v0.997041c0.076696 25.808037 0.076696 51.616073 0.076695 77.807587v17.409879c29.566116-6.787552 53.955286 2.492604 71.250122 27.226904 39.766618-12.61641 62.276748-4.103209 84.940269 32.135415 2.569299-0.805303 5.176946-1.572258 7.899637-2.262517 18.368573-4.678426 38.501142-0.728607 53.725199 10.545631 13.843538 10.23885 21.934914 25.002734 22.778564 41.568963 0.306782 6.365727 0.69026 12.731453 1.03539 19.09718 2.72269 49.123469 5.560424 99.93424-6.519118 149.594577-23.69891 97.403288-110.556567 164.780287-211.871325 164.780287z m-206.732727-361.580945c-7.899637 0-15.68423 0.383478-22.931955 0.805302-9.356851 0.536869-11.964498 2.339213-12.731454 3.336255-0.958694 1.303824-1.572258 4.94686 0.958694 14.725536 4.294948 16.757967 8.666592 33.515935 13.076583 50.235554 10.123806 38.616185 20.592742 78.574542 29.796203 118.149422 21.474741 92.341385 101.96667 157.724301 195.803618 158.951428 95.524248 1.303824 177.550088-61.701532 199.753436-153.045875 11.542673-47.436168 8.781635-97.096506 6.13564-145.10789l-1.03539-19.173876c-0.613564-11.887803-6.48077-22.548478-16.566228-29.987941-11.581021-8.551549-26.843426-11.542673-40.878703-8.01468-2.991125 0.766955-5.905554 1.687301-8.781635 2.569299-1.380519 0.421825-2.761038 0.881998-4.141557 1.265476-3.374602 0.997042-7.017638-0.421825-8.819983-3.489645-21.32135-36.430364-36.852189-42.29757-75.468374-28.684118-3.41295 1.18878-7.209377-0.153391-9.088417-3.221211-15.722578-25.808037-36.967232-33.094109-66.725087-22.970303-2.339213 0.805303-4.908512 0.421825-6.940943-1.03539-1.994083-1.457215-3.182863-3.75808-3.182864-6.250683v-27.572033c0-26.153166 0-51.961203-0.038347-77.730892v-0.997041c0-6.020597 0-11.696064-1.150433-16.911359-4.985208-23.35378-26.996817-39.843313-50.197206-37.695839-25.846384 2.454256-44.061566 22.395087-44.291653 48.471557-0.34513 43.026177-0.306782 86.780961-0.268434 129.078531V675.879115c0 2.72269-1.457215 5.29199-3.834775 6.634161s-5.29199 1.380519-7.66955 0c-4.103209-2.377561-7.861289-4.908512-11.542673-7.401116-7.017638-4.755121-13.613452-9.241808-19.979179-10.430589-9.510242-1.802344-19.480658-2.415908-29.259334-2.415908z" fill="#888888" /><path d="M399.180165 770.789799C186.656928 770.789799 13.785266 597.879789 13.785266 385.394899S186.656928 0 399.180165 0 784.575065 172.871662 784.575065 385.394899c0 20.170917-1.572258 40.41853-4.678426 60.20597a7.646542 7.646542 0 0 1-8.781635 6.365727 7.646542 7.646542 0 0 1-6.365727-8.781636c2.991125-18.982137 4.525035-38.424447 4.525035-57.828408 0-204.048384-166.007415-370.055799-370.055799-370.055799S29.124366 181.346515 29.124366 385.394899 195.131781 755.450698 399.180165 755.450698c44.981912 0 88.966783-8.01468 130.727484-23.852301 3.949818-1.495562 8.398158 0.498521 9.89372 4.448339 1.495562 3.949818-0.498521 8.398158-4.448339 9.89372-43.48635 16.489533-89.311913 24.849343-136.172865 24.849343z m40.111748-133.296783H374.675952c-4.218253 0-7.66955-3.451298-7.66955-7.66955v-68.22065c-44.253305-7.32442-87.547916-26.306557-119.644984-52.651462-2.761038-2.262517-3.604689-6.13564-1.994083-9.356852l34.512976-69.486125c1.035389-2.109126 3.029472-3.643036 5.330338-4.103209 2.339213-0.498521 4.716773 0.153391 6.519117 1.687301 32.864023 28.30064 83.789836 49.660338 118.417856 49.660338 10.545632 0 35.088192-1.955735 35.088192-20.017526 0-16.604576-22.625173-23.928997-59.822491-33.976108-50.427293-13.651799-119.453245-32.288807-119.453245-109.367786 0-55.450848 37.619144-95.447553 101.084672-107.94892V141.004681c0-4.218253 3.451298-7.66955 7.66955-7.66955h64.615961c4.218253 0 7.66955 3.451298 7.66955 7.66955V205.160469c37.504101 5.100251 73.819421 18.023443 102.887016 36.775493 3.259559 2.070779 4.448339 6.250683 2.761039 9.740329L519.131931 322.12111c-0.920346 1.917388-2.569299 3.374602-4.640078 4.026514-2.032431 0.651912-4.2566 0.421825-6.097292-0.651912-36.775493-20.861177-80.376886-35.433322-106.031532-35.433322-10.392241 0-27.80212 2.032431-27.80212 15.645882 0 16.988054 27.188556 24.7343 58.633712 33.669326 50.925814 14.49545 120.680373 34.321237 120.680373 113.087518 0 57.790061-39.804966 98.40033-106.913531 109.597873v67.760477c0 4.218253-3.451298 7.66955-7.66955 7.66955z m-56.94641-15.339101h49.27686v-66.686739c0-3.834775 2.837734-7.094334 6.634161-7.592855 62.775269-8.474853 100.241022-44.138262 100.241021-95.409205 0-67.146912-58.173539-83.713141-109.521177-98.323634-37.427405-10.660675-69.792907-19.864135-69.792907-48.43321 0-19.403962 16.144403-30.984983 43.14122-30.984982s69.102648 13.575104 106.376662 33.477586l27.073512-56.908062c-27.955511-16.642924-62.2384-27.878815-97.36494-31.713591a7.681055 7.681055 0 0 1-6.8259-7.631202v-63.27379H382.307155V212.446542c0 3.75808-2.72269 6.979291-6.442422 7.554507-59.247276 9.701981-94.64225 44.866869-94.64225 93.990338 0 65.30622 57.444931 80.83706 108.140658 94.565554 36.583755 9.89372 71.173426 19.250571 71.173426 48.77834 0 22.165-18.867094 35.356627-50.427293 35.356626-35.279931 0-85.553833-19.864135-120.833764-47.167734l-27.456989 55.335805c31.100026 23.928997 72.208815 40.76366 113.892821 46.55417 3.796427 0.536869 6.634161 3.75808 6.634161 7.592855v67.146912z" fill="#888888" /></svg>