<svg xmlns="http://www.w3.org/2000/svg" viewBox="0 0 1024 1024" width="200" height="200"><path d="M653.88544 0a92.16 92.16 0 0 1 65.09568 26.9312l187.61728 187.21792a92.16 92.16 0 0 1 27.05408 65.2288v120.6272A80.10752 80.10752 0 0 1 1013.76 480.09216v319.7952a80.10752 80.10752 0 0 1-77.55776 80.06656l-2.54976 0.03072v48.00512c0 53.02272-43.02848 96-96.12288 96H196.7104c-53.0944 0-96.12288-42.97728-96.12288-96v-48.00512A80.10752 80.10752 0 0 1 20.48 799.8976v-319.7952a80.10752 80.10752 0 0 1 77.55776-80.06656l2.54976-0.04096V96C100.58752 42.97728 143.616 0 196.7104 0h457.17504zM837.5296 879.99488H196.7104v17.28512a30.72 30.72 0 0 0 30.72 30.72h579.3792a30.72 30.72 0 0 0 30.72-30.72v-17.28512zM291.10272 577.59744c-14.2336 0-26.53184 1.93536-36.89472 5.79584a74.67008 74.67008 0 0 0-27.7504 18.3808c-6.7584 6.9632-12.032 15.33952-15.84128 25.15968a83.7632 83.7632 0 0 0-5.70368 30.5152c0 20.40832 6.10304 36.36224 18.28864 47.872 12.1856 11.49952 29.16352 17.2544 50.944 17.2544 5.98016 0 12.12416-0.44032 18.432-1.31072a187.4432 187.4432 0 0 0 19.58912-3.85024l3.51232-31.97952a86.33344 86.33344 0 0 1-16.82432 6.43072 64.6144 64.6144 0 0 1-16.32256 2.1504c-12.15488 0-21.78048-3.20512-28.86656-9.60512-7.08608-6.41024-10.62912-15.06304-10.62912-25.98912 0-16.77312 4.67968-29.88032 14.03904-39.34208 9.3696-9.45152 22.39488-14.1824 39.10656-14.1824 6.23616 0 12.07296 0.74752 17.50016 2.24256a57.9584 57.9584 0 0 1 15.45216 6.81984l9.1648-28.17024a180.89984 180.89984 0 0 0-24.3712-6.144c-7.80288-1.37216-15.4112-2.048-22.82496-2.048zM665.6 577.792c-17.408 0-31.488 4.17792-42.20928 12.52352-10.73152 8.35584-16.08704 19.23072-16.08704 32.6144 0 7.60832 1.91488 14.11072 5.74464 19.5072 3.84 5.38624 9.68704 9.74848 17.55136 13.056l2.80576 1.15712 3.584 1.4336 2.0992 0.8192c14.4896 5.79584 21.73952 12.032 21.73952 18.72896 0 5.3248-2.73408 9.55392-8.192 12.67712-5.45792 3.11296-12.93312 4.67968-22.4256 4.67968-5.20192 0-10.51648-0.7168-15.94368-2.1504a89.61024 89.61024 0 0 1-16.81408-6.43072l-7.9872 28.5696c7.13728 2.52928 14.57152 4.43392 22.272 5.70368a148.48 148.48 0 0 0 24.12544 1.8944c19.82464 0 35.5328-4.5056 47.104-13.49632 11.5712-9.0112 17.34656-21.08416 17.34656-36.22912 0-8.25344-2.07872-15.0528-6.2464-20.3776-4.1472-5.3248-11.9808-10.78272-23.49056-16.384a170.27072 170.27072 0 0 0-9.35936-4.096c-9.8816-4.096-14.81728-8.63232-14.81728-13.63968 0-4.608 2.19136-8.1408 6.57408-10.57792 4.39296-2.43712 10.71104-3.65568 18.96448-3.65568 5.46816 0 10.79296 0.5632 15.99488 1.69984 5.20192 1.13664 10.3424 2.84672 15.40096 5.12l8.58112-27.00288c-5.5296-2.01728-12.20608-3.54304-20.02944-4.58752A200.88832 200.88832 0 0 0 665.6 577.792z m121.58976 0c-17.41824 0-31.49824 4.17792-42.21952 12.52352-10.72128 8.35584-16.08704 19.23072-16.08704 32.6144 0 7.60832 1.91488 14.11072 5.75488 19.5072 3.82976 5.38624 9.68704 9.74848 17.55136 13.056 2.00704 0.84992 4.83328 1.98656 8.47872 3.42016 14.4896 5.7856 21.73952 12.02176 21.73952 18.71872 0 5.3248-2.72384 9.55392-8.192 12.67712-5.45792 3.11296-12.93312 4.67968-22.4256 4.67968-5.19168 0-10.50624-0.7168-15.93344-2.1504a89.61024 89.61024 0 0 1-16.82432-6.43072l-7.9872 28.5696c7.14752 2.52928 14.57152 4.43392 22.272 5.70368a148.48 148.48 0 0 0 24.13568 1.8944c19.82464 0 35.52256-4.5056 47.09376-13.49632 11.5712-9.0112 17.34656-21.08416 17.34656-36.22912 0-8.25344-2.07872-15.0528-6.23616-20.3776-4.15744-5.3248-11.99104-10.78272-23.5008-16.384a170.27072 170.27072 0 0 0-9.35936-4.096c-9.8816-4.096-14.81728-8.63232-14.81728-13.63968 0-4.608 2.19136-8.1408 6.58432-10.57792 4.38272-2.43712 10.71104-3.65568 18.96448-3.65568 5.45792 0 10.78272 0.5632 15.98464 1.69984 5.20192 1.13664 10.3424 2.84672 15.4112 5.12l8.58112-27.00288c-5.5296-2.01728-12.20608-3.54304-20.03968-4.58752a200.88832 200.88832 0 0 0-26.27584-1.55648z m-388.1472 3.0208h-37.34528l-29.5424 138.5472h94.38208l6.0416-27.5968h-57.33376L399.0528 580.8128z m159.11936 0h-45.9264l-81.89952 138.5472h38.912l16.56832-29.5424h54.30272l3.61472 29.5424h36.7616l-22.33344-138.5472z m-27.40224 27.10528l6.63552 55.76704h-37.34528l30.72-55.76704z m77.57824-519.59808H227.4304a30.72 30.72 0 0 0-30.72 30.72v280.95488h640.8192v-81.5616H700.52864c-50.8928-0.01024-92.14976-41.2672-92.16-92.16l-0.03072-137.95328z m96.12288 59.84256v58.91072a15.36 15.36 0 0 0 15.36 15.36h59.0848l-74.4448-74.27072z" fill="#FF6B08" /></svg>