<svg xmlns="http://www.w3.org/2000/svg" viewBox="0 0 1190 1024" width="200" height="200"><path d="M747.104865 533.863784l243.462919 15.775135a34.594595 34.594595 0 0 1-0.940973 69.106162l-3.542487-0.055351-243.462919-15.775135a34.594595 34.594595 0 0 1 0.940973-69.078487l3.542487 0.027676zM802.788324 454.268541l244.348541 15.885837a34.594595 34.594595 0 0 1-0.968649 69.078487l-3.542486-0.055351-244.320865-15.858163a34.594595 34.594595 0 0 1 0.940973-69.106162l3.542486 0.055352zM1152.581189 34.594595l1.079352 6.448432c0.968649 6.254703 2.075676 14.585081 3.210378 24.825081l0.691892 6.365406c11.014919 106.412973 5.369081 224.089946-29.363892 336.121081-2.435459 7.859892-5.009297 15.664432-7.749189 23.35827a34.594595 34.594595 0 0 1-31.162811 23.081513l-3.542487-0.027675-228.324324-13.754811a34.594595 34.594595 0 0 1 0.608865-69.106162l3.542486 0.055351 201.644973 12.121946 3.431784-11.540757c26.042811-92.16 31.218162-189.356973 23.496649-278.417297l-1.21773-12.841514-11.568432 2.601514c-7.942919 1.826595-16.162595 3.874595-24.659027 6.171676l-12.952217 3.597837c-57.094919 16.273297-114.106811 39.022703-167.714594 69.106163l-14.557406 8.413405-2.020324 1.21773 33.321514 84.881297a34.594595 34.594595 0 0 1-16.328649 43.39546l-3.210378 1.46681a34.594595 34.594595 0 0 1-43.39546-16.328648l-1.466811-3.238054-43.810594-111.588325a34.594595 34.594595 0 0 1 13.201297-41.541189c9.299027-6.116324 18.764108-12.038919 28.395243-17.767784 63.349622-37.638919 130.933622-65.259243 198.600649-84.576865 23.801081-6.780541 45.996973-12.066595 66.089513-16.051891l6.918919-1.300757 19.926487-3.321081a34.594595 34.594595 0 0 1 38.884324 28.173838zM689.622486 612.352l239.754379 16.134919c29.446919 1.992649 43.035676 37.555892 22.417297 58.672432-145.518703 149.088865-305.207351 213.656216-400.411676 144.190271a34.594595 34.594595 0 0 1 37.638919-57.952865l3.155027 2.075675c47.740541 34.843676 142.806486 5.977946 244.237838-76.274162l8.496433-7.057297-159.965406-10.793514a34.594595 34.594595 0 0 1-32.242162-33.266162l0.083027-3.542486a34.594595 34.594595 0 0 1 33.293838-32.269838l3.542486 0.083027z" fill="#5AC2EE" /><path d="M714.973405 190.353297a34.594595 34.594595 0 0 1 53.690811 8.911568l1.577514 3.376432 58.478702 140.869189a34.594595 34.594595 0 0 1-62.380973 29.723676l-1.522162-3.182703-38.52454-92.79654-3.542487 4.012973c-6.033297 6.918919-11.789838 14.003892-17.297297 21.227243l-8.108973 10.959568c-110.204541 153.79373-162.234811 321.231568-135.610811 414.028108a34.594595 34.594595 0 1 1-66.476973 19.096216c-33.59827-117.012757 24.548324-304.155676 145.850811-473.392432a528.909838 528.909838 0 0 1 73.866378-82.833298z" fill="#5AC2EE" /><path d="M1078.327351 37.002378a34.594595 34.594595 0 0 1 58.257298 37.085406l-2.020325 3.210378-662.555675 924.810379a34.594595 34.594595 0 0 1-58.284973-37.085406l2.048-3.210378 662.555675-924.810379zM176.487784 739.909189a34.594595 34.594595 0 0 1 18.681081 66.615352c-20.037189 5.618162-42.897297 19.096216-44.751568 24.077837a34.594595 34.594595 0 0 1-64.761081-24.354594c12.09427-32.186811 51.089297-55.185297 90.831568-66.338595z" fill="#5AC2EE" /><path d="M411.758703 444.941838c17.906162 0 32.657297 13.588757 34.400865 31.052108l0.193729 3.542486v108.848433a34.594595 34.594595 0 0 1-31.079783 34.42854l-3.514811 0.166054H253.841297l-0.470486 4.206703c-0.83027 5.811892-2.075676 11.402378-3.874595 17.241946l-1.937297 5.922595a105.638054 105.638054 0 0 1-32.076108 45.941621c-10.516757 8.856216-22.057514 15.138595-39.825297 22.72173l-32.768 13.533405c-37.05773 15.941189-52.694486 30.52627-56.818163 57.288649-6.946595 45.360432 16.384 91.32973 84.023352 147.677406l5.424432 4.428108h181.05427c17.906162 0 32.657297 13.644108 34.400865 31.079783l0.19373 3.542487a34.594595 34.594595 0 0 1-31.079784 34.400865l-3.514811 0.193729h-193.176216c-7.749189 0-15.249297-2.601514-21.337946-7.361729C45.388108 928.076108 5.867243 856.506811 17.684757 779.347027c8.164324-53.248 38.469189-83.359135 90.859243-107.270919l9.049946-3.957622 29.696-12.232648 8.358054-3.680865c6.171676-2.87827 10.516757-5.286054 13.616432-7.555459l1.715892-1.356109c5.618162-4.704865 9.160649-9.963243 11.402379-16.217946l0.968648-2.961297 0.415135-1.771243-0.470486-0.055351a34.594595 34.594595 0 0 1-27.45427-30.360217l-0.19373-3.542486v-108.848433c0-17.933838 13.616432-32.657297 31.079784-34.42854l3.514811-0.166054h221.516108z m-34.622271 69.161513H224.837189v39.686919h152.299243v-39.686919z" fill="#5AC2EE" /><path d="M389.396757 557.88627c19.096216 0 34.594595 15.498378 34.594594 34.594595l-0.138378 7.942919c-0.415135 17.408 0.691892 25.101838 5.811892 33.459892 2.214054 3.653189 5.258378 7.306378 9.492757 11.014919 2.435459 2.158703 6.116324 4.594162 11.402378 7.417081a34.594595 34.594595 0 1 1-32.463568 61.080216 124.761946 124.761946 0 0 1-24.852756-16.716108 117.068108 117.068108 0 0 1-22.694054-26.845406c-12.786162-20.978162-16.107243-38.552216-15.968865-64.484324l0.221405-12.869189c0-19.096216 15.498378-34.594595 34.594595-34.594595z" fill="#5AC2EE" /></svg>