<svg xmlns="http://www.w3.org/2000/svg" viewBox="0 0 1024 1024" width="200" height="200"><path d="M629.52 245.45c0-8.69 7.04-15.73 15.73-15.73h96.03c9.6 0 17.39-7.78 17.39-17.39 0-9.6-7.78-17.39-17.39-17.39H255.32c-9.6 0-17.39 7.78-17.39 17.39 0 9.6 7.78 17.39 17.39 17.39h53.81c8.69 0 15.73 7.04 15.73 15.73 0 8.69-7.04 15.73-15.73 15.73H169.22c-9.6 0-17.39 7.78-17.39 17.39 0 9.6 7.78 17.39 17.39 17.39h500.03c9.6 0 17.39-7.78 17.39-17.39 0-9.6-7.78-17.39-17.39-17.39h-24.01c-8.68 0-15.72-7.05-15.72-15.73zM807.02 484.32c0-8.69 7.04-15.73 15.73-15.73h96.03c9.6 0 17.39-7.78 17.39-17.39 0-9.6-7.78-17.39-17.39-17.39H432.82c-9.6 0-17.39 7.78-17.39 17.39 0 9.6 7.78 17.39 17.39 17.39h53.81c8.69 0 15.73 7.04 15.73 15.73 0 8.69-7.04 15.73-15.73 15.73H346.72c-9.6 0-17.39 7.78-17.39 17.39 0 9.6 7.78 17.39 17.39 17.39h500.03c9.6 0 17.39-7.78 17.39-17.39 0-9.6-7.78-17.39-17.39-17.39h-24.01c-8.68 0-15.72-7.04-15.72-15.73zM711.02 804.32c0-8.69 7.04-15.73 15.73-15.73h96.03c9.6 0 17.39-7.78 17.39-17.39 0-9.6-7.78-17.39-17.39-17.39H336.82c-9.6 0-17.39 7.78-17.39 17.39 0 9.6 7.78 17.39 17.39 17.39h53.81c8.69 0 15.73 7.04 15.73 15.73 0 8.69-7.04 15.73-15.73 15.73H250.72c-9.6 0-17.39 7.78-17.39 17.39 0 9.6 7.78 17.39 17.39 17.39h500.03c9.6 0 17.39-7.78 17.39-17.39 0-9.6-7.78-17.39-17.39-17.39h-24.01c-8.68 0-15.72-7.04-15.72-15.73z" fill="#ECF9FF" /><path d="M236.93 448.64m-17.81 0a17.81 17.81 0 1 0 35.62 0 17.81 17.81 0 1 0-35.62 0Z" fill="#FFDB56" /><path d="M233.34 478.52c-6.73 0-13.47-2.56-18.59-7.69-10.25-10.25-10.25-26.93 0-37.19 10.25-10.25 26.93-10.25 37.19 0 10.25 10.25 10.25 26.93 0 37.19-5.14 5.13-11.87 7.69-18.6 7.69z m0-47.47c-5.43 0-10.86 2.07-14.99 6.2-8.27 8.27-8.27 21.72 0 29.99s21.72 8.27 29.99 0 8.27-21.72 0-29.99c-4.14-4.13-9.57-6.2-15-6.2z" fill="#F76319" /><path d="M220.35 241.85m-17.81 0a17.81 17.81 0 1 0 35.62 0 17.81 17.81 0 1 0-35.62 0Z" fill="#FFDB56" /><path d="M216.75 271.73c-6.73 0-13.47-2.56-18.59-7.69-10.25-10.25-10.25-26.93 0-37.19 10.25-10.25 26.93-10.25 37.19 0 10.25 10.25 10.25 26.93 0 37.19-5.13 5.13-11.87 7.69-18.6 7.69z m0-47.48c-5.43 0-10.86 2.07-14.99 6.2-8.27 8.27-8.27 21.72 0 29.99s21.72 8.27 29.99 0 8.27-21.72 0-29.99c-4.14-4.13-9.57-6.2-15-6.2z" fill="#F76319" /><path d="M716.51 704.72m-17.81 0a17.81 17.81 0 1 0 35.62 0 17.81 17.81 0 1 0-35.62 0Z" fill="#FFDB56" /><path d="M712.91 734.61c-7.02 0-13.63-2.74-18.59-7.7-4.97-4.97-7.7-11.57-7.7-18.59s2.74-13.63 7.7-18.59c4.97-4.97 11.57-7.7 18.59-7.7s13.63 2.74 18.59 7.7c4.97 4.97 7.7 11.57 7.7 18.59s-2.74 13.63-7.7 18.59c-4.96 4.97-11.56 7.7-18.59 7.7z m0-47.5c-5.66 0-10.99 2.21-14.99 6.21-4.01 4.01-6.21 9.33-6.21 15 0 5.66 2.21 10.99 6.21 14.99a21.05 21.05 0 0 0 14.99 6.21c5.67 0 10.99-2.21 14.99-6.21a21.05 21.05 0 0 0 6.21-14.99c0-5.67-2.21-10.99-6.21-14.99-4-4.01-9.32-6.22-14.99-6.22zM878.5 570.07H861v-17.5c0-2.35-1.9-4.25-4.25-4.25s-4.25 1.9-4.25 4.25v17.5H835c-2.35 0-4.25 1.9-4.25 4.25s1.9 4.25 4.25 4.25h17.5v17.5c0 2.35 1.9 4.25 4.25 4.25s4.25-1.9 4.25-4.25v-17.5h17.5c2.35 0 4.25-1.9 4.25-4.25s-1.9-4.25-4.25-4.25zM686.5 128.07H669v-17.5c0-2.35-1.9-4.25-4.25-4.25s-4.25 1.9-4.25 4.25v17.5H643c-2.35 0-4.25 1.9-4.25 4.25s1.9 4.25 4.25 4.25h17.5v17.5c0 2.35 1.9 4.25 4.25 4.25s4.25-1.9 4.25-4.25v-17.5h17.5c2.35 0 4.25-1.9 4.25-4.25s-1.9-4.25-4.25-4.25zM255.09 384.07h-17.5v-17.5c0-2.35-1.9-4.25-4.25-4.25s-4.25 1.9-4.25 4.25v17.5h-17.5c-2.35 0-4.25 1.9-4.25 4.25s1.9 4.25 4.25 4.25h17.5v17.5c0 2.35 1.9 4.25 4.25 4.25s4.25-1.9 4.25-4.25v-17.5h17.5c2.35 0 4.25-1.9 4.25-4.25s-1.91-4.25-4.25-4.25zM581.12 791.93l-12.37 12.37-12.37-12.37a4.249 4.249 0 1 0-6.01 6.01l12.37 12.37-12.37 12.37a4.249 4.249 0 1 0 6.01 6.01l12.37-12.37 12.37 12.37a4.249 4.249 0 1 0 6.01-6.01l-12.37-12.37 12.37-12.37a4.249 4.249 0 0 0 0-6.01c-1.65-1.66-4.35-1.66-6.01 0zM498.91 145.93l-12.37 12.37-12.37-12.37a4.249 4.249 0 1 0-6.01 6.01l12.37 12.37-12.37 12.37a4.249 4.249 0 1 0 6.01 6.01l12.37-12.37 12.37 12.37a4.249 4.249 0 1 0 6.01-6.01l-12.37-12.37 12.37-12.37a4.249 4.249 0 1 0-6.01-6.01z" fill="#F76319" /><path d="M568.75 176.69m-32 0a32 32 0 1 0 64 0 32 32 0 1 0-64 0Z" fill="#66FF33" opacity=".51" /><path d="M736.66 330.49m-32 0a32 32 0 1 0 64 0 32 32 0 1 0-64 0Z" fill="#66FF33" opacity=".51" /><path d="M837.87 638.82m-32 0a32 32 0 1 0 64 0 32 32 0 1 0-64 0Z" fill="#6666FF" opacity=".51" /><path d="M280.75 849.94m-32 0a32 32 0 1 0 64 0 32 32 0 1 0-64 0Z" fill="#6666FF" opacity=".51" /><path d="M251.3 813.88c-2.16 0-4.33-0.46-6.37-1.41-5.72-2.68-9.19-8.71-8.62-15l6.98-77.3c-17.91-2.96-34.37-11.52-47.25-24.74-15.67-16.08-24.29-37.31-24.29-59.77V481.48c0-47.23 38.43-85.66 85.66-85.66h382.84c47.23 0 85.66 38.43 85.66 85.66v154.17c0 47.24-38.43 85.66-85.66 85.66h-287.4c-1.75 0-3.4 0.68-4.63 1.92l-86.24 86.24c-2.88 2.89-6.76 4.41-10.68 4.41z m6.11-392.06c-32.9 0-59.66 26.76-59.66 59.66v154.17c0 32.53 25.46 58.73 57.96 59.64 4.11 0.12 8.04 1.94 10.77 5.02 2.72 3.06 4.07 7.16 3.7 11.24l-5.25 58.21 64.91-64.91c6.15-6.15 14.32-9.53 23.02-9.53h287.4c32.9 0 59.66-26.77 59.66-59.66V481.48c0-32.9-26.76-59.66-59.66-59.66H257.41z" fill="#F76319" /><path d="M721.67 653.57v-26c32.9 0 59.66-26.76 59.66-59.66V413.73c0-32.9-26.76-59.66-59.66-59.66H338.83c-32.9 0-59.66 26.76-59.66 59.66h-26c0-47.23 38.43-85.66 85.66-85.66h382.84c47.23 0 85.66 38.43 85.66 85.66V567.9c0 47.24-38.43 85.67-85.66 85.67z" fill="#F76319" /><path d="M536.75 497.32H295.82c-7.18 0-13-5.82-13-13s5.82-13 13-13h240.93c7.18 0 13 5.82 13 13s-5.82 13-13 13z" fill="#FFDB56" /><path d="M486.53 574.57H295.82c-7.18 0-13-5.82-13-13s5.82-13 13-13h190.71c7.18 0 13 5.82 13 13s-5.82 13-13 13z" fill="#F76319" /><path d="M427.84 651.82H295.82c-7.18 0-13-5.82-13-13s5.82-13 13-13h132.02c7.18 0 13 5.82 13 13s-5.82 13-13 13z" fill="#FFDB56" /></svg>