<svg xmlns="http://www.w3.org/2000/svg" viewBox="0 0 1523 1024" width="200" height="200"><path d="M761.191923 1023.982585c-224.658548 0-317.134276-67.014426-389.251411-137.73833-34.343152 6.87908-136.884976 10.449235-208.688634-163.965909-3.674648-8.951511-9.090834-24.381548-15.952498-43.956448-26.279825-74.886183-80.929323-230.806181-137.895069-293.135866a35.405491 35.405491 0 0 1 26.123087-59.351654h122.743678a35.475152 35.475152 0 0 1 29.223027 15.377791l78.595661 114.175305a42.249739 42.249739 0 0 0 35.910537 6.495941 43.712632 43.712632 0 0 0 29.606165-26.71521c19.15693-49.302973 53.987713-95.993637 100.748038-135.038944a17.45893 17.45893 0 1 1 22.378778 26.802287c-42.214909 35.266167-73.545197 77.080522-90.560035 120.915062a78.369261 78.369261 0 0 1-53.064697 47.770418 76.906368 76.906368 0 0 1-68.686303-14.402529 17.293484 17.293484 0 0 1-3.483078-3.726893l-80.1108-116.491553-123.283555-0.261231c61.389254 68.494734 115.585952 223.021501 144.704486 306.023256 6.68751 19.15693 11.964374 34.151582 15.308129 42.232324 73.266551 177.933053 171.193296 143.206763 175.33816 141.656793a17.676622 17.676622 0 0 1 18.669299 3.918463c70.898058 70.880643 152.66332 134.516482 371.64445 134.516482 233.906121 0 400.937139-79.100707 458.251192-217.030606 20.219269-48.658603 30.459519-106.773764 30.459519-172.778097 0-57.087653-14.837913-112.015797-44.113186-163.286709a17.453705 17.453705 0 0 1 30.302781-17.328314c32.322966 56.600022 48.763096 117.362322 48.763095 180.597608 0 70.619412-11.14585 133.262574-33.089243 186.170533-63.095963 151.600981-241.88237 238.55603-490.591573 238.55603z" fill="#244C7F" /><path d="M514.833798 282.609377a17.415391 17.415391 0 0 1-8.42905-32.740936c68.564396-37.721738 147.856672-60.95387 230.109566-67.571718l6.321787-31.835335a75.338983 75.338983 0 0 1-33.994844-63.18304c0-39.620015 55.102298-77.324337 66.178487-84.464648a17.415391 17.415391 0 0 1 18.982776 0c11.041358 7.14031 66.178487 44.844633 66.178487 84.464648a75.513137 75.513137 0 0 1-33.663951 62.939224l5.538094 32.009489a568.525449 568.525449 0 0 1 185.12561 46.02888 17.453705 17.453705 0 1 1-14.123883 31.922412 535.471036 535.471036 0 0 0-186.884564-44.06094 17.415391 17.415391 0 0 1-16.231144-14.454775l-10.01385-57.836514a17.415391 17.415391 0 0 1 10.449234-19.052438 40.699769 40.699769 0 0 0 24.886595-37.547584c0-12.573913-21.368685-34.012259-40.734601-48.501865-19.365915 14.507021-40.7346 35.927952-40.7346 48.501865a40.612693 40.612693 0 0 0 25.339394 37.721737 17.415391 17.415391 0 0 1 10.449235 19.557485l-11.441912 57.62753a17.415391 17.415391 0 0 1-16.109237 14.01939c-81.852339 4.719571-161.005293 26.924195-228.803411 64.245378a17.415391 17.415391 0 0 1-8.394218 2.211755z" fill="#ACCFFF" /><path d="M1283.1312 844.290577a17.415391 17.415391 0 0 1-2.734216-34.691459c100.573885-16.056991 208.044264-84.325325 208.044264-227.775903 0-68.96495-21.57767-122.604355-64.12347-159.420492-93.625144-81.0164-259.663484-58.010668-261.335362-57.766853a17.415391 17.415391 0 0 1-15.046898-5.120125 440.6094 440.6094 0 0 0-81.399539-65.621195 17.485053 17.485053 0 0 1 18.617053-29.606165 478.714276 478.714276 0 0 1 81.678185 64.645933c38.104876-4.127448 186.571087-13.932313 280.196231 66.892518 50.643958 43.764878 76.314245 106.233887 76.314244 185.926717 0 108.445642-62.381932 234.306675-237.45886 262.258378a17.694038 17.694038 0 0 1-2.751632 0.278646z" fill="#376299" /><path d="M1309.289118 763.622485a17.415391 17.415391 0 0 1-7.680188-33.089244c50.661373-24.764686 82.130985-79.518677 82.130986-142.806208a157.31323 157.31323 0 0 0-104.997394-148.239811 17.493761 17.493761 0 0 1 11.563819-33.019582 192.26592 192.26592 0 0 1 128.334019 181.120069c0 76.78446-38.95823 143.537655-101.68847 174.153913a17.415391 17.415391 0 0 1-7.662772 1.880863zM524.551586 461.047476h39.985738v-27.673057h-13.340189v13.845237h-13.322775v-27.690473h39.985739v55.363529h-66.631287v-69.208765h-93.311667v83.054001h66.648703v-55.363529h-39.985739v27.673057h13.322774v-13.82782h13.34019v27.673056h-39.985738v-55.363529h66.631287v69.208765H591.182873v-83.054001H524.551586v55.363529zM711.157504 461.047476h39.985738v-27.673057h-13.34019v13.845237H724.480278v-27.690473h39.985739v55.363529h-66.648703v-69.208765h-93.294251v83.054001h66.648702v-55.363529h-39.985738v27.673057h13.322774v-13.82782h13.34019v27.673056h-39.985738v-55.363529h66.631287v69.208765h93.294251v-83.054001h-66.631287v55.363529zM897.763422 461.047476h39.985738v-27.673057h-13.34019v13.845237h-13.322774v-27.690473h39.985738v55.363529h-66.648702v-69.208765h-93.294251v83.054001h66.648702v-55.363529h-39.985738v27.673057h13.322774v-13.82782h13.322774v27.673056h-39.985738v-55.363529h66.648702v69.208765h93.294252v-83.054001H897.763422v55.363529zM1084.351924 461.047476h39.985738v-27.673057h-13.322774v13.845237h-13.322774v-27.690473h39.985738v55.363529h-66.648702v-69.208765h-93.294252v83.054001h66.631288v-55.363529h-39.968323v27.673057h13.322774v-13.82782h13.322774v27.673056h-39.985738v-55.363529h66.648702v69.208765h93.294251v-83.054001h-66.648702v55.363529z" fill="#ACCFFF" /></svg>