<svg xmlns="http://www.w3.org/2000/svg" viewBox="0 0 1024 1024" width="200" height="200"><path d="M506.1 533.3l-79.2 29.5-78.7-29.4c-45-16.8-71.2-63.6-61.8-110.5l13.1-65.1h255.4l13.1 65c9.5 46.8-16.8 93.7-61.9 110.5" fill="#0C4C8E" /><path d="M603.7 762.9H250.1V631.1c0-53.9 44-97.6 98.2-97.6h157.2c54.3 0 98.2 43.7 98.2 97.6v131.8z" fill="#1395FD" /><path d="M250.1 762.9h29.5V631.1c0-53.9 44-97.6 98.2-97.6h-29.5c-54.3 0-98.2 43.7-98.2 97.6" fill="#6CC0FC" /><path d="M476 533.4h29.5c54.3 0 98.2 43.7 98.2 97.6v131.8h-29.5V631.1c0-54-43.9-97.7-98.2-97.7" fill="#0A70BE" /><path d="M388.3 582.2h78.6v-97.6h-78.6zM515.1 382.2c0.1 16.2 13.3 29.2 29.6 29.2 16.3-0.1 29.4-13.2 29.4-29.4-0.1-16.2-13.3-29.2-29.6-29.2-16.4 0-29.5 13.2-29.4 29.4M339 382.9c0.1 16.2-13.1 29.3-29.4 29.4-16.3 0.1-29.5-13-29.6-29.2-0.1-16.2 13.1-29.3 29.4-29.4 16.3-0.1 29.5 13 29.6 29.2" fill="#CFECFE" /><path d="M446.7 508.9l-38.4 0.2c-54.3 0.2-98.4-43.3-98.6-97.3l-0.1-38.1c-0.2-53.9 43.6-97.8 97.8-98l38.4-0.1c54.3-0.2 98.4 43.3 98.6 97.3l0.1 38.1c0.2 53.8-43.6 97.6-97.8 97.9" fill="#CFECFE" /><path d="M544.4 372.8c-0.2-53.9-44.4-97.5-98.6-97.3l-27.1 0.1c53.2 1 96.1 44 96.3 97.2l0.1 38.1c0.2 53.9-43.6 97.8-97.8 98H406c0.8 0 1.6 0.1 2.4 0.1l38.4-0.2c54.2-0.2 98-44.1 97.8-98l-0.2-38z" fill="#BCE5F7" /><path d="M393 388.7c0 8.1-6.5 14.7-14.7 14.7-8.1 0-14.8-6.5-14.8-14.6s6.5-14.7 14.7-14.7c8.1 0 14.8 6.5 14.8 14.6M490.5 388.3c0 8.1-6.5 14.7-14.7 14.7-8.1 0-14.8-6.5-14.8-14.6s6.5-14.7 14.7-14.7c8.1 0 14.8 6.5 14.8 14.6M427 447.1c-9.8 0-19.6-3.7-27.1-11.1-1.9-1.9-1.9-5 0-6.9 1.9-1.9 5-1.9 6.9 0 11.2 11 29.4 11 40.5-0.2 1.9-1.9 5-1.9 6.9 0 1.9 1.9 1.9 5 0 6.9-7.4 7.6-17.3 11.3-27.2 11.3" fill="#023E75" /><path d="M309.5 412.3c0 8.1-6.6 14.6-14.7 14.6s-14.7-6.6-14.7-14.6 6.6-14.6 14.7-14.6 14.7 6.5 14.7 14.6M574 412.3c0 8.1-6.6 14.6-14.7 14.6s-14.7-6.6-14.7-14.6 6.6-14.6 14.7-14.6 14.7 6.5 14.7 14.6" fill="#3DACFD" /><path d="M339.1 411.8l-0.1-38.1c-0.2-53.9 43.6-97.8 97.8-98h11.3c-0.8 0-1.6-0.1-2.4-0.1l-38.4 0.2c-54.2 0.2-98 44.1-97.8 98l0.1 38.1c0.2 53.9 44.4 97.5 98.6 97.3l27.1-0.1c-53.1-1.2-96-44.2-96.2-97.3" fill="#E4F4FD" /><path d="M554.9 357.5v-39.1c0-32.3-26.4-58.6-58.9-58.6v39.1c0 32.3 26.4 58.6 58.9 58.6" fill="#0C4C8E" /><path d="M507.8 282.9c-21.6-25.9-54.2-42.4-90.6-42.4-60.3 0-109.8 45-116.8 103.1l-0.9 13.9h46.9c45.7 0 90-15.9 125.3-44.8l36.1-29.8z" fill="#0C4C8E" /><path d="M432.1 241.5c-4.9-0.6-9.8-1-14.9-1-60.3 0-109.8 45-116.8 103.1l-0.9 13.9H329l0.9-13.9c6.3-53.3 48.7-95.5 102.2-102.1" fill="#0A70BE" /><path d="M514.8 289.4H338l-9.8-87.9h196.4z" fill="#1395FD" /><path d="M495.2 201.5l-9.9 87.9h29.5l9.8-87.9z" fill="#0A70BE" /><path d="M406.8 234.4h8.6v-8.5c0-5.4 4.4-9.8 9.8-9.8h2.4c5.4 0 9.8 4.4 9.8 9.8v8.5h8.6c5.4 0 9.8 4.4 9.8 9.8v2.4c0 5.4-4.4 9.8-9.8 9.8h-8.6v8.5c0 5.4-4.4 9.8-9.8 9.8h-2.4c-5.4 0-9.8-4.4-9.8-9.8v-8.5h-8.6c-5.4 0-9.8-4.4-9.8-9.8v-2.4c0-5.4 4.3-9.8 9.8-9.8" fill="#FFFFFF" /><path d="M328.2 201.5h29.4l9.9 87.9H338" fill="#6CC0FC" /><path d="M388.3 533.4l-24.6 83 63.9 34.2zM466.9 533.4l24.5 83-63.8 34.2z" fill="#0A70BE" /><path d="M773.8 655.3c-20.4 0-20.4-16.3-40.9-16.3s-20.5 16.3-40.9 16.3-20.5-16.3-40.9-16.3c-20.5 0-20.5 16.3-40.9 16.3-20.5 0-20.5-18.5-40.9-18.5s-20.5 16.3-40.9 16.3v-14c0-22.5 18.3-40.7 40.9-40.7H733c22.6 0 40.9 18.2 40.9 40.7v16.2z" fill="#80CBEE" /><path d="M732.9 598.4h-12.3c22.6 0 40.9 18.2 40.9 40.7v13.7c3.2 1.6 7.1 2.6 12.3 2.6V639c0-22.4-18.3-40.6-40.9-40.6" fill="#53B8E8" /><path d="M569.2 598.4h12.3c-22.6 0-40.9 18.2-40.9 40.7v13.7c-3.2 1.6-7.1 2.6-12.3 2.6V639c0-22.4 18.3-40.6 40.9-40.6" fill="#B1DFF5" /><path d="M732.9 655.3c-20.5 0-20.5 16.3-40.9 16.3-1.3 0-2.4-0.1-3.5-0.2 2.2 5 3.5 10.6 3.5 16.4 0 22.5-18.3 40.7-40.9 40.7s-40.9-18.2-40.9-40.7c0-5.9 1.3-11.4 3.5-16.4-1.1 0.1-2.2 0.2-3.5 0.2-20.5 0-20.5-18.5-40.9-18.5-20.5 0-20.5 16.3-40.9 16.3v67.3c0 22.5 18.3 40.7 40.9 40.7H733c22.6 0 40.9-18.2 40.9-40.7v-65.1c-20.5 0-20.5-16.3-41-16.3" fill="#6CC0FC" /><path d="M761.6 669v67.7c0 22.5-18.3 40.7-40.9 40.7H733c22.6 0 40.9-18.2 40.9-40.7v-65.1c-5.2 0-9.1-1.1-12.3-2.6" fill="#3DACFD" /><path d="M540.6 669v67.7c0 22.5 18.3 40.7 40.9 40.7h-12.3c-22.6 0-40.9-18.2-40.9-40.7v-65.1c5.2 0 9.1-1.1 12.3-2.6" fill="#8BD2FC" /><path d="M573.3 740.7c0 4.5-3.7 8.1-8.2 8.1-4.5 0-8.2-3.6-8.2-8.1s3.7-8.1 8.2-8.1c4.6 0 8.2 3.6 8.2 8.1M614.3 740.7c0 4.5-3.7 8.1-8.2 8.1-4.5 0-8.2-3.6-8.2-8.1s3.7-8.1 8.2-8.1c4.5 0 8.2 3.6 8.2 8.1M593.8 708.2c0 4.5-3.7 8.1-8.2 8.1-4.5 0-8.2-3.6-8.2-8.1s3.7-8.1 8.2-8.1c4.5 0 8.2 3.6 8.2 8.1M722.7 744.8c0 4.5-3.7 8.1-8.2 8.1-4.5 0-8.2-3.6-8.2-8.1s3.7-8.1 8.2-8.1c4.5 0 8.2 3.6 8.2 8.1M743.2 712.3c0 4.5-3.7 8.1-8.2 8.1-4.5 0-8.2-3.6-8.2-8.1s3.7-8.1 8.2-8.1c4.5-0.1 8.2 3.6 8.2 8.1" fill="#0A70BE" /><path d="M719.8 523.6c-5.4-4-13.1-2.9-17.2 2.4l-12.3 16.3c-27.2 36-44.3 79-49.7 123.5-8.3 3.9-14.1 12.3-14.1 22.1 0 13.5 11 24.4 24.5 24.4 13.6 0 24.6-10.9 24.6-24.4 0-8.3-4.2-15.6-10.5-20 5-40 20.5-78.6 44.9-110.9l12.3-16.3c4.1-5.5 3-13.1-2.5-17.1" fill="#0C4C8E" /></svg>