<svg xmlns="http://www.w3.org/2000/svg" viewBox="0 0 1024 1024" width="200" height="200"><path d="M0 0h1024v1024H0z" fill="#FCFAFB" /><path d="M647.291437 601.378905m-270.206542 0a270.206542 270.206542 0 1 0 540.413084 0 270.206542 270.206542 0 1 0-540.413084 0Z" fill="#7E64AD" /><path d="M647.291437 890.402058c-159.188534 0-289.023153-129.83462-289.023153-289.023153S488.102903 312.355752 647.291437 312.355752s289.023153 129.83462 289.023153 289.023153-129.83462 289.023153-289.023153 289.023153zM647.291437 349.988975c-138.490261 0-251.38993 112.899669-251.38993 251.38993s112.899669 251.38993 251.38993 251.38993 251.38993-112.899669 251.38993-251.38993S785.781698 349.988975 647.291437 349.988975z" fill="#333333" /><path d="M452.351341 317.624403a98.599044 73.384785 0 1 0 197.198089 0 98.599044 73.384785 0 1 0-197.198089 0Z" fill="#40AF7A" /><path d="M550.950386 409.825799c-64.729144 0-117.415656-41.396545-117.415656-92.201396s52.686512-92.201397 117.415656-92.201397 117.415656 41.396545 117.415656 92.201397-52.686512 92.201397-117.415656 92.201396z m0-146.76957c-43.278207 0-79.782433 24.837927-79.782433 54.568174s36.504226 54.568173 79.782433 54.568173 79.782433-24.837927 79.782433-54.568173-36.504226-54.568173-79.782433-54.568174z" fill="#333333" /><path d="M664.979052 317.624403a98.599044 73.384785 0 1 0 197.198089 0 98.599044 73.384785 0 1 0-197.198089 0Z" fill="#40AF7A" /><path d="M763.578096 409.825799c-64.729144 0-117.415656-41.396545-117.415656-92.201396s52.686512-92.201397 117.415656-92.201397 117.415656 41.396545 117.415656 92.201397-52.686512 92.201397-117.415656 92.201396z m0-146.76957c-43.278207 0-79.782433 24.837927-79.782433 54.568174s36.504226 54.568173 79.782433 54.568173 79.782433-24.837927 79.782433-54.568173-36.504226-54.568173-79.782433-54.568174z" fill="#333333" /><path d="M649.54943 298.807791h-0.752664c-5.268651-0.376332-9.031974-4.892319-8.655641-10.16097 0.752664-6.021316 15.053289-149.403896 106.878353-158.435869 5.268651-0.376332 9.784638 3.38699 10.16097 8.279309 0.376332 5.268651-3.38699 9.784638-8.279309 10.16097-76.771775 7.526645-89.943403 139.99559-90.319735 141.124587 0 5.644983-4.139655 9.031974-9.031974 9.031973z" fill="#333333" /><path d="M550.950386 317.624403a98.599044 73.384785 0 1 0 197.198089 0 98.599044 73.384785 0 1 0-197.198089 0Z" fill="#40AF7A" /><path d="M649.54943 409.825799c-64.729144 0-117.415656-41.396545-117.415656-92.201396s52.686512-92.201397 117.415656-92.201397 117.415656 41.396545 117.415656 92.201397-52.686512 92.201397-117.415656 92.201396z m0-146.76957c-43.278207 0-79.782433 24.837927-79.782433 54.568174s36.504226 54.568173 79.782433 54.568173 79.782433-24.837927 79.782433-54.568173-36.504226-54.568173-79.782433-54.568174z" fill="#333333" /><path d="M176.876148 578.798971a146.76957 97.470048 90 1 0 194.940096 0 146.76957 97.470048 90 1 0-194.940096 0Z" fill="#FFFFFF" /><path d="M274.346196 744.385153c-65.105476 0-116.286659-72.632121-116.286659-165.586182s51.181183-165.586182 116.286659-165.586182 116.286659 72.632121 116.28666 165.586182-51.181183 165.586182-116.28666 165.586182z m0-293.539141c-42.525542 0-78.653436 58.707828-78.653436 127.952959s36.127894 127.952958 78.653436 127.952958 78.653436-58.707828 78.653436-127.952958-36.127894-127.952958-78.653436-127.952959z" fill="#333333" /><path d="M395.148842 578.798971a146.76957 98.599044 90 1 0 197.198089 0 146.76957 98.599044 90 1 0-197.198089 0Z" fill="#FFFFFF" /><path d="M493.747887 744.385153c-65.85814 0-117.415656-72.632121-117.415656-165.586182s51.557516-165.586182 117.415656-165.586182 117.415656 72.632121 117.415656 165.586182-51.557516 165.586182-117.415656 165.586182z m0-293.539141c-43.278207 0-79.782433 58.707828-79.782433 127.952959s36.504226 127.952958 79.782433 127.952958 79.782433-58.707828 79.782433-127.952958-36.504226-127.952958-79.782433-127.952959z" fill="#333333" /><path d="M290.15215 569.390665a146.76957 86.932745 90 1 0 173.865491 0 146.76957 86.932745 90 1 0-173.865491 0Z" fill="#FFFFFF" /><path d="M377.084895 734.976847c-59.460492 0-105.749357-72.632121-105.749357-165.586182s46.288864-165.586182 105.749357-165.586181 105.749357 72.632121 105.749357 165.586181-46.288864 165.586182-105.749357 165.586182z m0-293.53914c-36.127894 0-68.116134 59.836825-68.116134 127.952958s31.98824 127.952958 68.116134 127.952959 68.116134-59.836825 68.116134-127.952959-31.98824-127.952958-68.116134-127.952958z" fill="#333333" /><path d="M647.291437 614.174201c0 149.403896-121.178978 270.206542-270.206542 270.206541s-270.206542-121.178978-270.206541-270.206541H647.291437z" fill="#7E64AD" /><path d="M377.084895 903.197354c-159.188534 0-289.023153-129.83462-289.023153-289.023153v-18.816612H666.108049v18.816612c0 159.564866-129.83462 289.023153-289.023154 289.023153z m-250.637265-270.206542C136.232268 762.825432 244.61595 865.564131 377.084895 865.564131c132.468945 0 240.852628-102.738699 250.637266-232.573319H126.44763z" fill="#333333" /></svg>