<svg xmlns="http://www.w3.org/2000/svg" viewBox="0 0 1024 1024" width="200" height="200"><path d="M151.5 747c-1.3 0-2.6-0.5-3.5-1.5-2-2-2-5.1 0-7.1l561.7-561.7c2-2 5.1-2 7.1 0s2 5.1 0 7.1L155.1 745.5c-1 1-2.3 1.5-3.6 1.5z" fill="#000000" /><path d="M219.833 568.004l81.529-81.529 107.903 107.903-81.529 81.53z" fill="#9D5B50" /><path d="M327.8 680.9c-1.3 0-2.6-0.5-3.5-1.5l-108-107.9c-2-2-2-5.1 0-7.1l81.5-81.5c2-2 5.1-2 7.1 0l107.9 107.9c2 2 2 5.1 0 7.1l-81.5 81.5c-0.9 1-2.2 1.5-3.5 1.5zM226.9 568l100.9 100.9 74.4-74.4-100.9-101-74.4 74.5z" fill="#000000" /><path d="M480.9 522.8c-22.5 22.5-59 22.5-81.5 0L373 496.4c-22.5-22.5-22.5-59 0-81.5s59-22.5 81.5 0l26.4 26.4c22.5 22.5 22.5 59 0 81.5z" fill="#D1270D" /><path d="M440.1 544.7c-16.7 0-32.5-6.5-44.3-18.3L369.4 500c-11.8-11.8-18.3-27.6-18.3-44.3 0-16.7 6.5-32.5 18.3-44.3 11.8-11.8 27.6-18.3 44.3-18.3 16.7 0 32.5 6.5 44.3 18.3l26.4 26.4c24.4 24.4 24.4 64.1 0 88.6-11.8 11.8-27.6 18.3-44.3 18.3zM413.7 403c-14.1 0-27.3 5.5-37.2 15.4-9.9 9.9-15.4 23.2-15.4 37.2 0 14.1 5.5 27.3 15.4 37.2l26.4 26.4c9.9 9.9 23.2 15.4 37.2 15.4 14.1 0 27.3-5.5 37.2-15.4 20.5-20.5 20.5-53.9 0-74.4l-26.4-26.4c-9.9-9.9-23.2-15.4-37.2-15.4z m67.2 119.8z" fill="#000000" /><path d="M444.51 343.298l81.53-81.528 107.903 107.903-81.529 81.529z" fill="#9D5B50" /><path d="M552.4 456.2c-1.3 0-2.6-0.5-3.5-1.5L441 346.8c-2-2-2-5.1 0-7.1l81.5-81.5c0.9-0.9 2.2-1.5 3.5-1.5s2.6 0.5 3.5 1.5l107.9 107.9c2 2 2 5.1 0 7.1L556 454.8c-1 0.9-2.2 1.4-3.6 1.4zM451.6 343.3l100.9 100.9 74.4-74.4L526 268.9l-74.4 74.4z" fill="#000000" /><path d="M705.5 298.1c-22.5 22.5-59 22.5-81.5 0l-26.4-26.4c-22.5-22.5-22.5-59 0-81.5s59-22.5 81.5 0l26.4 26.4c22.5 22.5 22.5 59 0 81.5z" fill="#D1270D" /><path d="M664.8 320c-16.7 0-32.5-6.5-44.3-18.3l-26.4-26.4c-11.8-11.8-18.3-27.6-18.3-44.3s6.5-32.5 18.3-44.3c11.8-11.8 27.6-18.3 44.3-18.3s32.5 6.5 44.3 18.3l26.4 26.4c24.4 24.4 24.4 64.1 0 88.6-11.9 11.8-27.6 18.3-44.3 18.3z m-26.4-141.7c-14.1 0-27.3 5.5-37.2 15.4-9.9 9.9-15.4 23.2-15.4 37.2 0 14.1 5.5 27.3 15.4 37.2l26.4 26.4c9.9 9.9 23.2 15.4 37.2 15.4 14.1 0 27.3-5.5 37.2-15.4 20.5-20.5 20.5-53.9 0-74.4l-26.4-26.4c-10-9.9-23.2-15.4-37.2-15.4z m67.1 119.8z" fill="#000000" /><path d="M298 890.3c-1.3 0-2.6-0.5-3.5-1.5-2-2-2-5.1 0-7.1L856.2 320c2-2 5.1-2 7.1 0s2 5.1 0 7.1L301.5 888.8c-1 1-2.3 1.5-3.5 1.5z" fill="#000000" /><path d="M366.234 711.311l81.529-81.528 107.903 107.903-81.528 81.529z" fill="#9D5B50" /><path d="M474.2 824.2c-1.3 0-2.6-0.5-3.5-1.5l-108-107.9c-2-2-2-5.1 0-7.1l81.5-81.5c0.9-0.9 2.2-1.5 3.5-1.5s2.6 0.5 3.5 1.5l107.9 107.9c2 2 2 5.1 0 7.1l-81.5 81.5c-0.8 1-2.1 1.5-3.4 1.5zM373.3 711.3l100.9 100.9 74.4-74.4-100.9-101-74.4 74.5z" fill="#000000" /><path d="M627.3 666.1c-22.5 22.5-59 22.5-81.5 0l-26.4-26.4c-22.5-22.5-22.5-59 0-81.5s59-22.5 81.5 0l26.4 26.4c22.5 22.5 22.5 59 0 81.5z" fill="#D1270D" /><path d="M586.5 688c-16.7 0-32.5-6.5-44.3-18.3l-26.4-26.4c-11.8-11.8-18.3-27.6-18.3-44.3s6.5-32.5 18.3-44.3c11.8-11.8 27.6-18.3 44.3-18.3s32.5 6.5 44.3 18.3l26.4 26.4c11.8 11.8 18.3 27.6 18.3 44.3s-6.5 32.5-18.3 44.3C619 681.5 603.2 688 586.5 688z m-26.4-141.7c-14.1 0-27.3 5.5-37.2 15.4-9.9 9.9-15.4 23.2-15.4 37.2 0 14.1 5.5 27.3 15.4 37.2l26.4 26.4c9.9 9.9 23.2 15.4 37.2 15.4 14.1 0 27.3-5.5 37.2-15.4 9.9-9.9 15.4-23.2 15.4-37.2 0-14.1-5.5-27.3-15.4-37.2l-26.4-26.4c-9.9-9.9-23.1-15.4-37.2-15.4z" fill="#000000" /><path d="M590.912 486.606l81.529-81.528L780.344 512.98l-81.528 81.529z" fill="#9D5B50" /><path d="M698.8 599.5c-1.3 0-2.6-0.5-3.5-1.5L587.4 490.1c-2-2-2-5.1 0-7.1l81.5-81.5c0.9-0.9 2.2-1.5 3.5-1.5s2.6 0.5 3.5 1.5l107.9 107.9c2 2 2 5.1 0 7.1L702.3 598c-0.9 1-2.2 1.5-3.5 1.5zM598 486.6l100.9 100.9 74.4-74.4-100.9-100.9-74.4 74.4z" fill="#000000" /><path d="M852 441.4c-22.5 22.5-59 22.5-81.5 0L744 415c-22.5-22.5-22.5-59 0-81.5s59-22.5 81.5 0l26.4 26.4c22.6 22.5 22.6 59 0.1 81.5z" fill="#D1270D" /><path d="M811.2 463.3c-16.7 0-32.5-6.5-44.3-18.3l-26.4-26.4c-11.8-11.8-18.3-27.6-18.3-44.3 0-16.7 6.5-32.5 18.3-44.3 11.8-11.8 27.6-18.3 44.3-18.3 16.7 0 32.5 6.5 44.3 18.3l26.4 26.4c11.8 11.8 18.3 27.6 18.3 44.3s-6.5 32.5-18.3 44.3c-11.8 11.8-27.6 18.3-44.3 18.3z m-26.4-141.7c-14.1 0-27.3 5.5-37.2 15.4-9.9 9.9-15.4 23.2-15.4 37.2s5.5 27.3 15.4 37.2l26.4 26.4c9.9 9.9 23.2 15.4 37.2 15.4 14.1 0 27.3-5.5 37.2-15.4 9.9-9.9 15.4-23.2 15.4-37.2s-5.5-27.3-15.4-37.2L822 337c-10-9.9-23.2-15.4-37.2-15.4z" fill="#000000" /></svg>