<svg xmlns="http://www.w3.org/2000/svg" viewBox="0 0 1024 1024" width="200" height="200"><path d="M560.2624 359.3088a22.1568 22.1568 0 0 0-6.4768-15.7952 22.4 22.4 0 0 0-15.7824-6.4384h-0.1856c-12.3264-0.0128-22.336 9.9008-22.3552 22.144-0.0128 12.2496 9.9648 22.1888 22.2976 22.208h0.2432a22.1696 22.1696 0 0 0 22.208-22.1184h0.0512z m115.8336 0c0.4672 14.048-10.6112 25.8176-24.7552 26.2912a25.7984 25.7984 0 0 1-1.7728 0H607.488c-10.2208 29.408-38.2848 48.992-69.6128 48.576-32.0512 0-59.232-19.2512-69.6192-48.576H167.8336c-14.176 0.4992-26.08-10.5088-26.5856-24.5888a28.672 28.672 0 0 1 0-1.76c0-15.2576 11.1616-26.3488 26.5856-26.3488h300.4288c10.2656-29.3824 38.2912-48.9984 69.6192-48.576 32.1088 0 59.232 19.2512 69.6128 48.576h42.1312c7.5008 0 14.2272 2.624 19.0848 7.392 4.8 4.768 7.4432 11.5072 7.4432 19.0144h-0.064zM310.912 208.0256h0.1152a26.0992 26.0992 0 0 0 19.2-10.0736c2.8224-3.5712 4.0832-7.2128 3.424-9.8944l-0.3008-1.0688v-1.1968c0.1024-12.0768-9.6768-21.952-21.8432-22.0544h-0.48a22.432 22.432 0 0 0-31.5712 0.1152 22.0672 22.0672 0 0 0 0.1152 31.36 22.4 22.4 0 0 0 15.6736 6.4384 22.1504 22.1504 0 0 0 15.6032 6.3744h0.064z m368.8448-27.776v2.1504c0.4672 14.08-10.6432 25.8752-24.8192 26.3424a25.856 25.856 0 0 1-1.7088 0H384.064c-10.2272 29.4144-38.2912 48.9984-69.6192 48.576-32.1024 0-59.2896-19.2512-69.6128-48.576h-77.184c-14.1696 0.4672-26.048-10.5664-26.5216-24.6464a33.7792 33.7792 0 0 1 0-1.696c0-12.64 12.0064-22.8928 26.528-22.8928h77.056c10.2016-30.1632 34.9888-48.5184 66.1952-48.5184 32.1088 0 59.232 19.1936 69.6192 48.5184h269.0432c12.2432 0 23.104 7.1552 29.0432 18.8992l0.96 1.9072h0.064l0.1216-0.064zM97.44 830.9184h308.4672v49.2352H97.2544a72.2688 72.2688 0 0 1-50.6496-20.864A71.3408 71.3408 0 0 1 25.6 808.7424V71.4112C25.6 52.4544 33.1648 34.272 46.6048 20.864A72.224 72.224 0 0 1 97.376 0h644.1344a72.512 72.512 0 0 1 50.6496 20.864 71.2832 71.2832 0 0 1 20.9472 50.6624v354.24h-49.5744V71.4176c-0.032-12.224-10.016-22.1184-22.3232-22.1184H97.5616c-12.2624 0.064-22.176 9.9392-22.208 22.1184v737.3312a22.144 22.144 0 0 0 6.4768 15.744 22.3872 22.3872 0 0 0 15.7248 6.432H97.44z m302.1696-294.816c0.032-12.224-9.9008-22.1696-22.208-22.2336h-0.1792c-12.3072 0.032-22.2656 9.952-22.2656 22.176v0.064c0 5.8368 2.3424 11.5584 6.4832 15.6736a22.2336 22.2336 0 0 0 15.7248 6.432h0.1792c12.2624 0.0384 22.2336-9.8112 22.2656-21.9904v-0.1216z m47.2896-26.4064v52.7552c-10.2592 29.3824-38.2912 48.9344-69.6192 48.512-32.0448 0-59.232-19.2448-69.6128-48.512H167.8336c-14.176 0.4992-26.08-10.5088-26.5856-24.5888a25.344 25.344 0 0 1 0-1.76c0-15.3152 11.1616-26.4064 26.5856-26.4064h139.8336c10.2016-29.3824 38.2912-48.9344 69.6128-48.5184 32.1088 0 59.2384 19.1936 69.6192 48.5184z" fill="#333333" /><path d="M760.1728 1019.1232h-73.2736c-18.3488 0-30.6048-12.5248-36.6976-31.2256 0-6.2976-6.1568-31.2256-6.1568-49.984h-6.0352l-36.6976 24.992a29.1008 29.1008 0 0 1-42.7328 0c-6.1568 0-54.9824-49.984-61.0816-56.2176-12.2496-12.5312-12.2496-31.2256 0-49.984 0 0 18.2912-18.7008 24.448-31.232v-6.2912l-48.896-6.1696c-18.3424 0-30.5344-18.7584-30.5344-37.5232V706.88c0-18.7648 12.192-31.296 30.5408-37.5232 6.1568 0 30.5408-6.2976 48.8896-6.2976v-6.2336c-6.1568-12.4608-24.448-31.2192-24.448-31.2192-11.7952-11.5328-12.224-30.656-0.9408-42.7264 0.3072-0.3328 0.6208-0.6528 0.9408-0.9664l54.9888-56.2176c12.192-12.4672 30.5408-12.4672 48.832 0l36.6912 24.992h6.0992l6.0928-56.2176c0-18.7584 18.3488-31.2256 36.6336-31.2256h73.28c12.3072 0 30.592 12.4672 30.592 31.2256 0 6.2976 6.0992 31.2256 6.0992 49.984h6.1568l36.576-24.992c12.256-12.5248 30.5408-12.5248 48.896 0l54.976 56.2176c12.1984 18.7008 12.1984 37.4592 0 49.92 0 0-18.3424 18.7648-24.4416 31.232v6.2912l48.896 6.2336c18.2784 0 30.5344 18.7584 30.5344 37.4592v74.912c0 18.7648-12.256 31.296-30.5408 37.5232-6.1568 0-30.5408 6.2976-48.8896 6.2976v6.1696c12.256 12.5248 24.448 31.2192 24.448 31.2192 11.8144 11.52 12.2688 30.6432 1.0048 42.7264a29.9008 29.9008 0 0 1-1.0048 1.024l-54.9888 56.224c-12.192 12.4672-30.5408 12.4672-48.8896 6.2336-6.0928 0-24.384-18.7584-36.6336-24.992h-6.0992l-6.1568 43.7504c0 18.7008-18.2848 31.232-30.4768 31.232z m-67.2384-49.984h54.9824l12.256-62.4512 54.9824-24.992 12.192 6.2912s24.448 18.7008 36.64 31.168l36.6976-37.4592c-12.256-12.4672-30.6048-37.4592-30.6048-37.4592l-6.0928-12.5248 24.448-56.224h12.2496s30.5408-6.2272 48.8256-6.2272v-56.2176l-61.0816-12.4672-24.448-49.984 6.1632-12.4672s18.2848-24.992 30.5408-37.4592l-36.6976-37.5168-48.832 37.5168-61.0816-24.992v-12.5248s-6.1568-31.232-6.1568-49.92h-54.9824l-12.192 62.4448-48.8896 24.992-48.832-37.5168c-12.2496 12.5248-30.5344 24.992-42.7904 37.5168 12.256 12.4672 30.5408 37.4592 30.5408 37.4592l6.1568 12.4672-18.3488 56.2176h-12.2496s-30.5408 6.2912-48.832 6.2912v49.92l61.0816 6.2976 24.448 56.16-12.256 18.7584s-18.2848 24.992-30.5408 37.4592c12.256 12.4608 30.5408 24.992 36.64 37.4592l48.8896-37.4592 54.9824 24.992v12.4672c6.1568 0 12.192 31.2256 12.192 49.984z m30.5408-118.6688c-30.5408 0-54.9248-12.4672-79.4304-31.232-18.7072-20.3584-29.5424-46.9888-30.4768-74.912 0-31.2896 12.192-56.2176 30.5408-74.976a105.2992 105.2992 0 0 1 152.704 0c18.3424 18.7584 30.5344 49.984 30.5344 74.912 0 31.232-12.192 56.224-30.5408 74.9184-19.904 19.1744-45.9456 30.2976-73.2736 31.2896h-0.064z m0-168.6528c-18.2912 0-30.5408 6.2912-42.7328 18.752-12.192 12.4736-18.3488 24.9984-18.3488 43.6992 0 18.752 6.1568 31.2192 18.3488 43.7504a58.1376 58.1376 0 0 0 85.5232 0c6.1568-18.7584 12.192-31.2256 12.192-43.7504 0-12.4672-6.0928-31.232-12.192-43.6928a65.3056 65.3056 0 0 0-42.7904-18.7584z" fill="#333333" /></svg>