<svg xmlns="http://www.w3.org/2000/svg" viewBox="0 0 1024 1024" width="200" height="200"><path d="M883.2 362.666667h-4.266667l-456.533333-128c-12.8-4.266667-21.333333-17.066667-17.066667-25.6 4.266667-12.8 17.066667-17.066667 25.6-12.8l456.533334 128c12.8 4.266667 17.066667 17.066667 12.8 25.6 0 8.533333-8.533333 12.8-17.066667 12.8z" fill="#D04C83" /><path d="M170.666667 324.266667c-12.8 0-21.333333-8.533333-21.333334-21.333334V234.666667C149.333333 174.933333 196.266667 128 256 128h512c59.733333 0 106.666667 46.933333 106.666667 106.666667V298.666667c0 12.8-8.533333 21.333333-21.333334 21.333333s-21.333333-8.533333-21.333333-21.333333V234.666667c0-34.133333-29.866667-64-64-64H256c-34.133333 0-64 29.866667-64 64v68.266666c0 12.8-8.533333 21.333333-21.333333 21.333334z" fill="#4F2AB5" /><path d="M128 302.933333h768c25.6 0 42.666667 17.066667 42.666667 42.666667V853.333333c0 25.6-17.066667 42.666667-42.666667 42.666667H128c-25.6 0-42.666667-17.066667-42.666667-42.666667V345.6c0-25.6 17.066667-42.666667 42.666667-42.666667z" fill="#4F2AB5" /><path d="M128 298.666667h768c25.6 0 42.666667 17.066667 42.666667 42.666666v426.666667c0 25.6-17.066667 42.666667-42.666667 42.666667H128c-25.6 0-42.666667-17.066667-42.666667-42.666667V341.333333c0-25.6 17.066667-42.666667 42.666667-42.666666z" fill="#723FDB" /><path d="M896 917.333333H128c-34.133333 0-64-29.866667-64-64V345.6c0-34.133333 29.866667-64 64-64h768c34.133333 0 64 29.866667 64 64V853.333333c0 34.133333-29.866667 64-64 64zM128 324.266667c-12.8 0-21.333333 8.533333-21.333333 21.333333V853.333333c0 12.8 8.533333 21.333333 21.333333 21.333334h768c12.8 0 21.333333-8.533333 21.333333-21.333334V345.6c0-12.8-8.533333-21.333333-21.333333-21.333333H128z" fill="#301196" /><path d="M896 832H128c-34.133333 0-64-29.866667-64-64V341.333333c0-34.133333 29.866667-64 64-64h768c34.133333 0 64 29.866667 64 64v426.666667c0 34.133333-29.866667 64-64 64zM128 320c-12.8 0-21.333333 8.533333-21.333333 21.333333v426.666667c0 12.8 8.533333 21.333333 21.333333 21.333333h768c12.8 0 21.333333-8.533333 21.333333-21.333333V341.333333c0-12.8-8.533333-21.333333-21.333333-21.333333H128z" fill="#301196" /><path d="M913.066667 341.333333v426.666667c0 8.533333-8.533333 17.066667-17.066667 17.066667H128c-8.533333 0-17.066667-8.533333-17.066667-17.066667V341.333333c0-8.533333 8.533333-17.066667 17.066667-17.066666h768c8.533333 0 17.066667 8.533333 17.066667 17.066666z" fill="#7750E2" /><path d="M917.333333 341.333333v170.666667H115.2V341.333333c0-8.533333 8.533333-17.066667 17.066667-17.066666h768c8.533333 0 17.066667 8.533333 17.066666 17.066666z" fill="#301196" /><path d="M746.666667 324.266667V512h-640V341.333333c0-8.533333 8.533333-17.066667 17.066666-17.066666h622.933334z" fill="#4F2AB5" /><path d="M153.6 384h42.666667v128h-42.666667z" fill="#EDC35B" /><path d="M238.933333 426.666667h42.666667v85.333333h-42.666667zM324.266667 426.666667h42.666666v85.333333h-42.666666z" fill="#723FDB" /><path d="M409.6 426.666667h42.666667v85.333333h-42.666667z" fill="#EDC35B" /><path d="M494.933333 384h42.666667v128h-42.666667z" fill="#6ED6AB" /><path d="M580.266667 426.666667h42.666666v85.333333h-42.666666z" fill="#EDC35B" /><path d="M665.6 426.666667h42.666667v85.333333h-42.666667z" fill="#723FDB" /><path d="M234.666667 648.533333m-106.666667 0a106.666667 106.666667 0 1 0 213.333333 0 106.666667 106.666667 0 1 0-213.333333 0Z" fill="#4F2AB5" /><path d="M426.666667 541.866667h170.666666c25.6 0 42.666667 17.066667 42.666667 42.666666v128c0 25.6-17.066667 42.666667-42.666667 42.666667h-170.666666c-25.6 0-42.666667-17.066667-42.666667-42.666667v-128c0-25.6 17.066667-42.666667 42.666667-42.666666z" fill="#4F2AB5" /><path d="M384 648.533333h256v64c0 25.6-17.066667 42.666667-42.666667 42.666667h-170.666666c-25.6 0-42.666667-17.066667-42.666667-42.666667v-64z" fill="#723FDB" /><path d="M789.333333 648.533333m-106.666666 0a106.666667 106.666667 0 1 0 213.333333 0 106.666667 106.666667 0 1 0-213.333333 0Z" fill="#4F2AB5" /><path d="M832 418.133333m-42.666667 0a42.666667 42.666667 0 1 0 85.333334 0 42.666667 42.666667 0 1 0-85.333334 0Z" fill="#6ED6AB" /></svg>