<svg xmlns="http://www.w3.org/2000/svg" viewBox="0 0 1024 1024" width="200" height="200"><path d="M389.224972 634.616015L136.48479 713.217343 87.596089 1023.988572h848.798349L887.505737 713.217343l-272.144813-78.601328H389.224972z" fill="#262626" /><path d="M426.354328 514.188449h154.448524v178.218626H426.354328z" fill="#EAA063" /><path d="M725.72048 228.924368c0 125.981541 11.256515 203.714346-216.85647 202.457274-220.901959-1.222789-239.358072-76.475732-239.358072-202.457274S371.64881 0.811383 497.607495 0.811383s228.112985 102.131444 228.112985 228.112985z" fill="#262626" /><path d="M672.203466 352.917449c1.05137-97.251716-37.780749-167.727783-37.780749-167.727783l-58.213894 11.576497a480.167491 480.167491 0 0 1-78.64704 8.890932 479.881792 479.881792 0 0 1-78.635612-8.890932l-58.156754-11.576497s-38.854975 70.476067-37.712181 167.727783l-1.062798 89.697851c0 65.882038 48.500151 77.172836 99.263032 111.479494 26.284248 17.759009 46.031717 34.283801 76.361453 38.523564 30.329736-4.20548 50.05435-20.764556 76.361453-38.523564 50.762882-34.283801 99.263032-45.597455 99.263032-111.479494z" fill="#FFBF82" /><path d="M327.079868 294.737838c-66.659137-28.432699-93.709056 97.765973-5.074002 147.877462z" fill="#EAA063" /><path d="M357.123906 648.032409l69.230422 262.659628 81.515452 88.852185 94.280453-88.852185 45.003203-266.830824-31.792512-9.245198-113.067976 57.779633-108.211104-57.779633-36.957938 13.416394z" fill="#FFFFFF" /><path d="M664.443899 285.949757c66.659137-28.432699 93.709056 97.765973 5.074003 147.877462z" fill="#EAA063" /><path d="M419.646131 601.315016l82.646817 91.080632-65.790614 57.882484-47.277362-115.662117 30.421159-33.300999zM584.939764 601.315016l-82.646816 91.080632 65.790614 57.882484 47.277362-115.662117-30.42116-33.300999z" fill="#FFFFFF" /><path d="M88.464612 1023.257184l48.67157-309.479872 83.686759-26.021406 74.635835 335.501278H88.464612z" fill="#FFFFFF" /><path d="M220.262972 688.704425l74.281569 333.821372H89.378847L137.856142 714.360136l82.46397-25.655711m1.142793-1.885609l-84.886692 26.398527L87.596089 1024h208.776921l-75.012956-337.124044z" fill="#000000" /><path d="M728.543179 1023.257184l79.961253-329.947302 78.349913 20.490285 48.67157 309.457017H728.543179z" fill="#FFFFFF" /><path d="M809.041545 694.235545l77.14998 20.193159 48.465867 308.119948H729.48027l79.561275-328.313107m-1.074226-1.805614l-80.36123 331.570069h208.788349L887.505737 713.217343l-79.538418-20.810268z" fill="#000000" /><path d="M435.645239 775.693856c-8.399531 0-14.399196-1.954177-18.376118-5.965381-7.382445-7.485297-7.199598-21.713074-6.993895-38.157871 0-2.856983 0.068568-5.782534 0.068567-8.765225s0-5.91967-0.068567-8.765225c-0.205703-16.467652-0.38855-30.684002 6.993895-38.157871 3.976921-4.022633 9.976586-5.976809 18.376118-5.976809a52.899905 52.899905 0 0 1 0 105.788382z" fill="#E2133F" /><path d="M435.645239 670.579722a52.225657 52.225657 0 0 1 0 104.439886c-8.205256 0-14.056358-1.885609-17.896145-5.771106-7.18817-7.268166-7.005323-21.358808-6.79962-37.712181 0-2.845555 0.068568-5.782534 0.068567-8.765226s0-5.931098-0.068567-8.776653c-0.205703-16.307661-0.38855-30.398304 6.79962-37.712181 3.839786-3.885497 9.690888-5.771107 17.896145-5.771106m0-1.337069c-29.58692 0-25.964265 23.998661-25.964266 53.562726s-3.622655 53.562725 25.964266 53.562725a53.562725 53.562725 0 0 0 0-107.125451z" fill="#000000" /><path d="M568.597819 775.693856a52.899905 52.899905 0 1 1 0-105.788382c8.388103 0 14.399196 1.954177 18.36469 5.976809 7.382445 7.473869 7.211026 21.713074 7.005323 38.157871 0 2.845555-0.079996 5.782534-0.079995 8.765225s0 5.908242 0.079995 8.765225c0.205703 16.456225 0.377122 30.672574-7.005323 38.157871-3.965493 4.011205-9.976586 5.965381-18.36469 5.965381z" fill="#E2133F" /><path d="M568.597819 670.579722c8.205256 0 14.056358 1.885609 17.884717 5.771107 7.18817 7.279594 7.016751 21.370236 6.85676 37.712181 0 2.845555-0.079996 5.782534-0.079996 8.776653s0 5.91967 0.079996 8.765225c0.205703 16.319089 0.377122 30.409732-6.85676 37.712181-3.828358 3.885497-9.67946 5.771107-17.884717 5.771107a52.225657 52.225657 0 1 1 0-104.439886m0-1.337069a53.562725 53.562725 0 1 0 0 107.125451c29.575492 0 25.964265-23.998661 25.964266-53.562725s3.611227-53.562725-25.964266-53.562726z" fill="#000000" /><path d="M502.132957 755.409274a32.615323 32.615323 0 1 1 32.603895-32.603895 32.649607 32.649607 0 0 1-32.603895 32.603895z" fill="#E2133F" /><path d="M502.132957 690.864304a31.941075 31.941075 0 1 1-31.941075 31.998215 31.998214 31.998214 0 0 1 31.941075-31.998215m0-1.337068a33.278143 33.278143 0 1 0 33.278143 33.278143 33.266715 33.266715 0 0 0-33.278143-33.278143z" fill="#000000" /></svg>