<svg xmlns="http://www.w3.org/2000/svg" viewBox="0 0 1024 1024" width="200" height="200"><path d="M512.162798 353.970467c-6.969587-4.118067-14.044635-7.919753-21.331627-11.193114C294.521638 233.058825 349.116227 79.622442 349.116227 79.622442 581.541267 106.868031 512.162798 353.970467 512.162798 353.970467z" fill="#90BC42" /><path d="M618.39602 323.980866c136.540227 0 247.208921 138.863423 247.20892 310.146128S754.936247 944.273121 618.39602 944.273121c-38.015838 0-74.024861-10.771274-106.233222-29.990625-32.208361 19.219351-68.217384 29.990625-106.233222 29.990625-136.540227 0-247.208921-138.863423-247.208921-310.146127S269.388325 323.980866 405.929576 323.980866c29.778681 0 58.396276 6.653207 84.902619 18.796487a401.206393 401.206393 0 0 0 21.331627 11.193114c32.206313-19.218328 68.21636-29.989601 106.232198-29.989601z m2.95698 296.101493c0-101.797751-48.892572-184.271714-109.190202-184.271714S402.972595 518.283584 402.972595 620.082359c0 141.292079 109.190203 184.271714 109.190203 184.271713s109.190203-36.854752 109.190202-184.271713z" fill="#F7B239" /><path d="M512.162798 435.810645c60.297631 0 109.190203 82.472939 109.190202 184.271714 0 147.416961-109.190203 184.271714-109.190202 184.271713S402.972595 761.374438 402.972595 620.082359c0-101.798775 48.892572-184.271714 109.190203-184.271714z" fill="#B27214" /><path d="M484.917209 620.082359c0-77.299246 28.19473-143.509815 68.217384-170.85984-12.671605-8.658998-26.505319-13.41085-40.972819-13.41085-60.297631 0-109.190203 82.472939-109.190203 184.271714 0 141.292079 109.190203 184.271714 109.190203 184.271713s19.535732-6.546723 42.028445-25.344233c-31.150687-26.295423-69.273009-75.398915-69.27301-158.928504z" fill="#995C0D" /><path d="M512.162798 353.970467c-6.969587-4.118067-14.044635-7.919753-21.331627-11.193114C294.521638 233.058825 349.116227 79.622442 349.116227 79.622442s130.309885 184.166253 163.046571 274.348025z" fill="#9AD14B" /><path d="M551.128802 727.054826c-2.74606 0-5.596557-0.739245-8.131698-2.323196-7.180508-4.435471-9.398243-13.939175-4.962772-21.119683 13.833715-22.176332 20.803302-50.265602 20.803302-83.529588 0-27.561969-4.435471-53.961828-12.989009-76.454541-2.956981-7.919753 1.055626-16.790695 8.976403-19.746653 7.919753-2.956981 16.790695 1.055626 19.746652 8.976403 9.821108 25.871534 14.88934 56.07308 14.88934 87.224791 0 39.071464-8.553538 72.547395-25.449693 99.686499-2.745037 4.750828-7.707809 7.285968-12.882525 7.285968z" fill="#FFFFFF" /><path d="M541.413154 504.238949m-15.312205 0a15.312205 15.312205 0 1 0 30.62441 0 15.312205 15.312205 0 1 0-30.62441 0Z" fill="#FFFFFF" /><path d="M805.201849 405.292719c-49.631817-62.303422-116.05433-96.624058-186.805829-96.624058-29.25138 0-57.763514 5.807478-84.902619 17.317996 6.335802-42.451309 9.821108-118.588446-30.623386-178.991536-31.257171-46.674836-82.367479-74.553186-151.957893-82.684884-7.075048-0.844705-13.833715 3.378822-16.262371 10.137489-0.633785 1.900331-15.94599 46.041051-2.006815 104.649271 12.989009 54.489129 45.301806 97.045899 82.895804 129.781561-3.167901-0.10546-6.335802-0.21092-9.503704-0.210921-70.85696 0-137.174013 34.319612-186.80583 96.624058-48.892572 61.247796-75.715296 142.559649-75.715296 228.939735s26.928184 167.586478 75.715296 228.939735c49.631817 62.303422 116.05433 96.624058 186.80583 96.624058 37.065673 0 72.758315-9.292783 106.233222-27.667429 33.474907 18.374646 69.167549 27.667429 106.233222 27.667429 70.85696 0 137.174013-34.319612 186.80583-96.624058 48.892572-61.247796 75.715296-142.559649 75.715295-228.939735s-26.928184-167.690915-75.820756-228.938711zM362.949942 173.50044c-8.342618-33.474907-5.280177-61.670661-2.323196-76.876382 53.328043 8.764458 92.611452 31.362631 116.688115 67.267218 37.592974 56.07308 30.307006 131.893836 24.182123 166.741773-1.16211-0.528325-2.323196-1.16211-3.485305-1.689411-74.342266-41.39466-119.749532-93.561617-135.061737-155.443198z m255.446078 755.460476c-34.319612 0-67.372678-9.398243-98.313469-27.878349a15.223127 15.223127 0 0 0-7.919753-2.217736c-2.74606 0-5.491097 0.739245-7.919753 2.217736-30.940791 18.480106-63.993857 27.87835-98.313469 27.878349-127.775769 0-231.791255-132.21124-231.791255-294.833922S278.153807 339.292047 406.035036 339.292047c34.319612 0 67.372678 9.398243 98.313469 27.87835a15.538484 15.538484 0 0 0 15.734046 0c30.940791-18.480106 63.993857-27.87835 98.313469-27.87835 127.881229 0 231.896716 132.21124 231.896715 294.833923S746.171789 928.960916 618.39602 928.960916z" fill="#333333" /><path d="M512.162798 420.49844c-34.847937 0-66.949814 21.858928-90.393716 61.458717-21.964388 37.171133-34.108692 86.169165-34.108692 138.124178 0 78.038492 31.996416 127.775769 58.9246 155.759579 29.25138 30.517926 58.81914 42.345849 60.086711 42.76769 1.794871 0.739245 3.696226 1.055626 5.596557 1.055626 1.689411 0 3.273361-0.316381 4.857312-0.844706 1.26757-0.422865 31.046251-10.771274 60.614011-40.655414 26.928184-27.244565 59.030061-76.876382 59.030061-158.188235 0-51.955013-12.144304-100.953045-34.108692-138.124178-23.548339-39.494329-55.650215-61.353256-90.498152-61.353257z m0.421841 367.064937c-8.658998-4.435471-26.928184-15.100261-44.879966-34.108692-32.735662-34.637017-49.420897-79.516982-49.420897-133.477786 0-91.554802 42.97861-168.854048 93.877998-168.854049s93.877998 77.299246 93.877998 168.854049c0.001024 117.320876-72.651831 158.293695-93.455133 167.586478z" fill="#333333" /></svg>