<svg xmlns="http://www.w3.org/2000/svg" viewBox="0 0 1024 1024" width="200" height="200"><path d="M657.5 293.7h-57.3c15.9 0 28.9 12.9 28.9 28.9V444c0 5.4-4.4 9.7-9.7 9.7h57.3c5.4 0 9.7-4.4 9.7-9.7V322.6c0-16-12.9-28.9-28.9-28.9z" fill="#2EA7E0" /><path d="M648.1 444V322.6c0-15.9-12.9-28.9-28.9-28.9H413.6c-15.9 0-28.9 12.9-28.9 28.9V444c0 5.4 4.4 9.7 9.7 9.7h243.9c5.5 0.1 9.8-4.3 9.8-9.7z" fill="#F7F8F8" /><path d="M822.8 453.8h-71.3c13.3 0 24 10.7 24 24v192.5c0 13.3-10.7 24-24 24h71.3c13.3 0 24-10.7 24-24V477.8c0-13.3-10.8-24-24-24z" fill="#2EA7E0" /><path d="M653 573.3l25.6 121h71.3l-25.6-121z" fill="#F7F8F8" /><path d="M750.6 453.8H252.2c-13.7 0-24.9 11.1-24.9 24.9v190.8c0 13.7 11.1 24.9 24.9 24.9h49.6c0.4 0 0.8-0.3 0.8-0.7l25-119.6c0.1-0.4 0.4-0.7 0.8-0.7H723.6c0.4 0 0.8 0.3 0.8 0.7l25.3 119.6c0.1 0.4 0.4 0.7 0.8 0.7 13.7 0 24.9-11.1 24.9-24.9V478.6c0.1-13.7-11.1-24.8-24.8-24.8z" fill="#F7F8F8" /><path d="M749.9 694.3l-25.6-121h-35.9l25.6 121 16.9 80.2h36z" fill="#2EA7E0" /><path d="M688.4 573.3H327.8l-25.3 121-16.7 80.2h445.1L714 694.3z" fill="#F7F8F8" /><path d="M890.9 716.1c-1.9-1.9-4.9-1.9-6.8 0l-7.5 7.5-7.5-7.5c-1.9-1.9-4.9-1.9-6.8 0s-1.9 4.9 0 6.8l7.5 7.5-7.5 7.5c-1.9 1.9-1.9 4.9 0 6.8s4.9 1.9 6.8 0l7.5-7.5 7.5 7.5c1.9 1.9 4.9 1.9 6.8 0 1.9-1.9 1.9-4.9 0-6.8l-7.5-7.5 7.5-7.5c1.9-1.8 1.9-4.9 0-6.8zM782.2 328.4h13.6V342c0 3.4 2.8 6.2 6.2 6.2s6.2-2.8 6.2-6.2v-13.6h13.6c3.4 0 6.2-2.8 6.2-6.2 0-3.4-2.8-6.2-6.2-6.2h-13.6v-13.6c0-3.4-2.8-6.2-6.2-6.2s-6.2 2.8-6.2 6.2V316h-13.6c-3.4 0-6.2 2.8-6.2 6.2 0 3.5 2.8 6.2 6.2 6.2zM819 402.6c0 11.6 9.4 21 21 21s21-9.4 21-21-9.4-21-21-21-21 9.4-21 21z m21-11c6.1 0 11 4.9 11 11s-4.9 11-11 11-11-4.9-11-11 4.9-11 11-11zM244 370.4c2.3 0 4.2-1.9 4.2-4.2v-13.4c0-2.3-1.9-4.2-4.2-4.2-2.3 0-4.2 1.9-4.2 4.2v13.4c0 2.3 1.8 4.2 4.2 4.2zM244 410.4c2.3 0 4.2-1.9 4.2-4.2v-13.4c0-2.3-1.9-4.2-4.2-4.2-2.3 0-4.2 1.9-4.2 4.2v13.4c0 2.4 1.8 4.2 4.2 4.2zM259.9 401.4c0.8 0.8 1.9 1.2 3 1.2s2.1-0.4 3-1.2c1.6-1.6 1.6-4.3 0-5.9l-9.4-9.4c-1.6-1.6-4.3-1.6-5.9 0-1.6 1.6-1.6 4.3 0 5.9l9.3 9.4zM231.6 373c0.8 0.8 1.9 1.2 3 1.2s2.1-0.4 3-1.2c1.6-1.6 1.6-4.3 0-5.9l-9.4-9.4c-1.6-1.6-4.3-1.6-5.9 0-1.6 1.6-1.6 4.3 0 5.9l9.3 9.4zM231.6 386l-9.4 9.4c-1.6 1.6-1.6 4.3 0 5.9 0.8 0.8 1.9 1.2 3 1.2s2.1-0.4 3-1.2l9.4-9.4c1.6-1.6 1.6-4.3 0-5.9-1.8-1.6-4.4-1.6-6 0zM253.4 374.3c1.1 0 2.1-0.4 3-1.2l9.4-9.4c1.6-1.6 1.6-4.3 0-5.9-1.6-1.6-4.3-1.6-5.9 0l-9.4 9.4c-1.6 1.6-1.6 4.3 0 5.9 0.8 0.8 1.8 1.2 2.9 1.2zM253.1 379.5c0 2.3 1.9 4.2 4.2 4.2h13.4c2.3 0 4.2-1.9 4.2-4.2 0-2.3-1.9-4.2-4.2-4.2h-13.4c-2.3 0.1-4.2 1.9-4.2 4.2zM217.2 383.7h13.4c2.3 0 4.2-1.9 4.2-4.2 0-2.3-1.9-4.2-4.2-4.2h-13.4c-2.3 0-4.2 1.9-4.2 4.2 0.1 2.3 1.9 4.2 4.2 4.2z" fill="#036EB8" /><path d="M904.5 423.6m-8.9 0a8.9 8.9 0 1 0 17.8 0 8.9 8.9 0 1 0-17.8 0Z" fill="#036EB8" /><path d="M167 627.5m-8.9 0a8.9 8.9 0 1 0 17.8 0 8.9 8.9 0 1 0-17.8 0Z" fill="#036EB8" /><path d="M296 308.2m-8.9 0a8.9 8.9 0 1 0 17.8 0 8.9 8.9 0 1 0-17.8 0Z" fill="#036EB8" /><path d="M845.2 566c-5.5 0-10 4.5-10 10v19c0 5.5 4.5 10 10 10s10-4.5 10-10v-19c0-5.5-4.5-10-10-10zM845.2 623.5c-5.5 0-10 4.5-10 10v36.8c0 7.7-6.3 14-14 14h-64.8l-23.9-113.1c-1-4.6-5.1-7.9-9.8-7.9H326.2c-4.7 0-8.8 3.3-9.8 8l-23.6 113.1h-65.1c-7.7 0-14-6.3-14-14V477.8c0-7.7 6.3-14 14-14h30.4c5.5 0 10-4.5 10-10s-4.5-10-10-10h-30.4c-18.7 0-34 15.3-34 34v192.5c0 18.7 15.3 34 34 34h60.9l-14.2 68.1c-0.6 2.9 0.1 6 2 8.4 1.9 2.3 4.8 3.7 7.8 3.7h385.5c5.5 0 10-4.5 10-10s-4.5-10-10-10H296.5l14.2-68.1 23.6-113.1h380.3l23.9 113.1 14.4 68.1h-30.2c-5.5 0-10 4.5-10 10s4.5 10 10 10h42.5c3 0 5.9-1.4 7.8-3.7s2.6-5.4 2-8.4l-14.4-68.1h60.5c18.7 0 34-15.3 34-34v-36.8c0.1-5.5-4.4-10-9.9-10z" fill="#036EB8" /><path d="M821.2 443.8H694.8V322.6c0-21.4-17.4-38.9-38.9-38.9H393c-21.4 0-38.9 17.4-38.9 38.9v4.9c0 5.5 4.5 10 10 10s10-4.5 10-10v-4.9c0-10.4 8.5-18.9 18.9-18.9h263c10.4 0 18.9 8.5 18.9 18.9v121.2H374.1v-87.3c0-5.5-4.5-10-10-10s-10 4.5-10 10v87.3h-49.2c-5.5 0-10 4.5-10 10s4.5 10 10 10h516.3c7.7 0 14 6.3 14 14v65.7c0 5.5 4.5 10 10 10s10-4.5 10-10v-65.7c0-18.8-15.3-34-34-34z" fill="#036EB8" /><path d="M785.3 543.9c5.5 0 10-4.5 10-10s-4.5-10-10-10h-40.1c-5.5 0-10 4.5-10 10s4.5 10 10 10h40.1z" fill="#036EB8" /><path d="M470.6 503.2m-16 0a16 16 0 1 0 32 0 16 16 0 1 0-32 0Z" fill="#3E3A39" /><path d="M438.6 529.9m-16 0a16 16 0 1 0 32 0 16 16 0 1 0-32 0Z" fill="#EF6676" /><path d="M610.3 529.9m-16 0a16 16 0 1 0 32 0 16 16 0 1 0-32 0Z" fill="#EF6676" /><path d="M578.3 503.2m-16 0a16 16 0 1 0 32 0 16 16 0 1 0-32 0Z" fill="#3E3A39" /><path d="M549.8 513.9h-50.6c-3.9 0-6.7 3.7-5.8 7.5 1.8 7.5 6.3 14 12.3 18.4 5.3 3.8 11.8 6.1 18.8 6.1s13.5-2.3 18.8-6.1c6.1-4.4 10.5-10.9 12.3-18.4 0.9-3.9-1.9-7.5-5.8-7.5z" fill="#3E3A39" /><path d="M524.5 529.9c-7 0-13.3 3.2-17.5 8.2-0.8 0.9-0.5 2.3 0.5 3 4.9 3.1 10.7 4.9 17 4.9 6.2 0 12.1-1.8 17-4.9 1-0.6 1.3-2 0.5-3-4.2-5.1-10.5-8.2-17.5-8.2z" fill="#E4847F" /></svg>