<svg xmlns="http://www.w3.org/2000/svg" viewBox="0 0 1024 1024" width="200" height="200"><path d="M960 448c0-8.84-7.16-16-16-16v-32c8.84 0 16-7.16 16-16s-7.16-16-16-16v-16c0-8.84-7.16-16-16-16h-32c0-8.84-7.16-16-16-16s-16 7.16-16 16h-32c0-8.84-7.16-16-16-16s-16 7.16-16 16h-32c0-8.84-7.16-16-16-16s-16 7.16-16 16h-32c0-8.84-7.16-16-16-16s-16 7.16-16 16h-32c0-8.84-7.16-16-16-16s-16 7.16-16 16h-32c0-8.84-7.16-16-16-16s-16 7.16-16 16h-32c0-8.84-7.16-16-16-16s-16 7.16-16 16h-32c0-8.84-7.16-16-16-16s-16 7.16-16 16h-32c0-8.84-7.16-16-16-16s-16 7.16-16 16h-32c0-8.84-7.16-16-16-16s-16 7.16-16 16h-32c-8.84 0-16 7.16-16 16v16c-8.84 0-16 7.16-16 16s7.16 16 16 16v32c-8.84 0-16 7.16-16 16s7.16 16 16 16v32c-8.84 0-16 7.16-16 16s7.16 16 16 16v32c-8.84 0-16 7.16-16 16s7.16 16 16 16v32c-8.84 0-16 7.16-16 16s7.16 16 16 16v32c-8.84 0-16 7.16-16 16s7.16 16 16 16v32c-8.84 0-16 7.16-16 16s7.16 16 16 16v16c0 8.84 7.16 16 16 16h32c0 8.84 7.16 16 16 16s16-7.16 16-16h32c0 8.84 7.16 16 16 16s16-7.16 16-16h32c0 8.84 7.16 16 16 16s16-7.16 16-16h32c0 8.84 7.16 16 16 16s16-7.16 16-16h32c0 8.84 7.16 16 16 16s16-7.16 16-16h32c0 8.84 7.16 16 16 16s16-7.16 16-16h32c0 8.84 7.16 16 16 16s16-7.16 16-16h32c0 8.84 7.16 16 16 16s16-7.16 16-16h32c0 8.84 7.16 16 16 16s16-7.16 16-16h32c0 8.84 7.16 16 16 16s16-7.16 16-16h32c8.84 0 16-7.16 16-16v-16c8.84 0 16-7.16 16-16s-7.16-16-16-16v-32c8.84 0 16-7.16 16-16s-7.16-16-16-16v-32c8.84 0 16-7.16 16-16s-7.16-16-16-16v-32c8.84 0 16-7.16 16-16s-7.16-16-16-16v-32c8.84 0 16-7.16 16-16s-7.16-16-16-16v-32c8.84 0 16-7.16 16-16z" fill="#E6B05D" /><path d="M336 432m-16 0a16 16 0 1 0 32 0 16 16 0 1 0-32 0Z" fill="#CC8F39" /><path d="M336 576m-16 0a16 16 0 1 0 32 0 16 16 0 1 0-32 0Z" fill="#CC8F39" /><path d="M336 720m-16 0a16 16 0 1 0 32 0 16 16 0 1 0-32 0Z" fill="#CC8F39" /><path d="M464 432m-16 0a16 16 0 1 0 32 0 16 16 0 1 0-32 0Z" fill="#CC8F39" /><path d="M464 576m-16 0a16 16 0 1 0 32 0 16 16 0 1 0-32 0Z" fill="#CC8F39" /><path d="M464 720m-16 0a16 16 0 1 0 32 0 16 16 0 1 0-32 0Z" fill="#CC8F39" /><path d="M592 432m-16 0a16 16 0 1 0 32 0 16 16 0 1 0-32 0Z" fill="#CC8F39" /><path d="M592 576m-16 0a16 16 0 1 0 32 0 16 16 0 1 0-32 0Z" fill="#CC8F39" /><path d="M592 720m-16 0a16 16 0 1 0 32 0 16 16 0 1 0-32 0Z" fill="#CC8F39" /><path d="M720 432m-16 0a16 16 0 1 0 32 0 16 16 0 1 0-32 0Z" fill="#CC8F39" /><path d="M720 576m-16 0a16 16 0 1 0 32 0 16 16 0 1 0-32 0Z" fill="#CC8F39" /><path d="M720 720m-16 0a16 16 0 1 0 32 0 16 16 0 1 0-32 0Z" fill="#CC8F39" /><path d="M848 432m-16 0a16 16 0 1 0 32 0 16 16 0 1 0-32 0Z" fill="#CC8F39" /><path d="M848 576m-16 0a16 16 0 1 0 32 0 16 16 0 1 0-32 0Z" fill="#CC8F39" /><path d="M848 720m-16 0a16 16 0 1 0 32 0 16 16 0 1 0-32 0Z" fill="#CC8F39" /><path d="M800 320c0-8.84-7.16-16-16-16v-32c8.84 0 16-7.16 16-16s-7.16-16-16-16v-16c0-8.84-7.16-16-16-16h-32c0-8.84-7.16-16-16-16s-16 7.16-16 16h-32c0-8.84-7.16-16-16-16s-16 7.16-16 16h-32c0-8.84-7.16-16-16-16s-16 7.16-16 16h-32c0-8.84-7.16-16-16-16s-16 7.16-16 16h-32c0-8.84-7.16-16-16-16s-16 7.16-16 16h-32c0-8.84-7.16-16-16-16s-16 7.16-16 16h-32c0-8.84-7.16-16-16-16s-16 7.16-16 16h-32c0-8.84-7.16-16-16-16s-16 7.16-16 16h-32c0-8.84-7.16-16-16-16s-16 7.16-16 16h-32c0-8.84-7.16-16-16-16s-16 7.16-16 16H96c-8.84 0-16 7.16-16 16v16c-8.84 0-16 7.16-16 16s7.16 16 16 16v32c-8.84 0-16 7.16-16 16s7.16 16 16 16v32c-8.84 0-16 7.16-16 16s7.16 16 16 16v32c-8.84 0-16 7.16-16 16s7.16 16 16 16v32c-8.84 0-16 7.16-16 16s7.16 16 16 16v32c-8.84 0-16 7.16-16 16s7.16 16 16 16v32c-8.84 0-16 7.16-16 16s7.16 16 16 16v16c0 8.84 7.16 16 16 16h32c0 8.84 7.16 16 16 16s16-7.16 16-16h32c0 8.84 7.16 16 16 16s16-7.16 16-16h32c0 8.84 7.16 16 16 16s16-7.16 16-16h32c0 8.84 7.16 16 16 16s16-7.16 16-16h32c0 8.84 7.16 16 16 16s16-7.16 16-16h32c0 8.84 7.16 16 16 16s16-7.16 16-16h32c0 8.84 7.16 16 16 16s16-7.16 16-16h32c0 8.84 7.16 16 16 16s16-7.16 16-16h32c0 8.84 7.16 16 16 16s16-7.16 16-16h32c0 8.84 7.16 16 16 16s16-7.16 16-16h32c8.84 0 16-7.16 16-16v-16c8.84 0 16-7.16 16-16s-7.16-16-16-16v-32c8.84 0 16-7.16 16-16s-7.16-16-16-16v-32c8.84 0 16-7.16 16-16s-7.16-16-16-16v-32c8.84 0 16-7.16 16-16s-7.16-16-16-16v-32c8.84 0 16-7.16 16-16s-7.16-16-16-16v-32c8.84 0 16-7.16 16-16z" fill="#F6D499" /><path d="M176 304m-16 0a16 16 0 1 0 32 0 16 16 0 1 0-32 0Z" fill="#D39842" /><path d="M176 448m-16 0a16 16 0 1 0 32 0 16 16 0 1 0-32 0Z" fill="#D39842" /><path d="M176 592m-16 0a16 16 0 1 0 32 0 16 16 0 1 0-32 0Z" fill="#D39842" /><path d="M304 304m-16 0a16 16 0 1 0 32 0 16 16 0 1 0-32 0Z" fill="#D39842" /><path d="M304 448m-16 0a16 16 0 1 0 32 0 16 16 0 1 0-32 0Z" fill="#D39842" /><path d="M304 592m-16 0a16 16 0 1 0 32 0 16 16 0 1 0-32 0Z" fill="#D39842" /><path d="M432 304m-16 0a16 16 0 1 0 32 0 16 16 0 1 0-32 0Z" fill="#D39842" /><path d="M432 448m-16 0a16 16 0 1 0 32 0 16 16 0 1 0-32 0Z" fill="#D39842" /><path d="M432 592m-16 0a16 16 0 1 0 32 0 16 16 0 1 0-32 0Z" fill="#D39842" /><path d="M560 304m-16 0a16 16 0 1 0 32 0 16 16 0 1 0-32 0Z" fill="#D39842" /><path d="M560 448m-16 0a16 16 0 1 0 32 0 16 16 0 1 0-32 0Z" fill="#D39842" /><path d="M560 592m-16 0a16 16 0 1 0 32 0 16 16 0 1 0-32 0Z" fill="#D39842" /><path d="M688 304m-16 0a16 16 0 1 0 32 0 16 16 0 1 0-32 0Z" fill="#D39842" /><path d="M688 448m-16 0a16 16 0 1 0 32 0 16 16 0 1 0-32 0Z" fill="#D39842" /><path d="M688 592m-16 0a16 16 0 1 0 32 0 16 16 0 1 0-32 0Z" fill="#D39842" /></svg>