<svg xmlns="http://www.w3.org/2000/svg" viewBox="0 0 1024 1024" width="200" height="200"><path d="M342.114724 427.960378c0.118228-2.030258-59.713221-48.877026-73.953562-123.185272-12.360926-72.962895 20.873332-173.383189 250.524827-251.495111-1.019206-1.512501 111.056725 39.753097 182.152435 109.821448 73.195273 69.45275 105.410326 167.700099-6.718604 265.894448" fill="#D97FFF" /><path d="M691.796031 459.832978a33.784629 33.784629 0 0 1-20.804025-9.185082c-12.707456-12.120394-13.029525-31.725834-0.171227-43.768767 46.814154-43.626079 68.038093-85.433895 60.300284-130.095487-13.579896-87.496767-145.52626-164.866707-213.087366-189.825015-133.764627 45.309807-205.361786 110.526738-215.745453 174.724464-11.93286 79.135204 62.155238 142.358569 62.208237 143.292161 13.294519 11.696404 13.775584 31.362996 1.57773 43.939995-12.218237 12.576998-32.435201 13.624741-45.823486 2.319712-2.817084-3.958595-101.048126-83.3751-87.843298-196.038093 11.75348-89.604485 99.127942-175.201452 272.242062-230.854158a45.860178 45.860178 0 0 1 28.757907 0.464758c11.981782 0.595216 249.428162 97.94974 267.015574 245.02927 9.600917 65.249546-21.236169 124.909768-83.436252 181.471606-7.008058 6.384304-16.213524 9.197312-25.190687 8.524636z" fill="#AF66CF" /><path d="M340.789757 474.839762a2365.694557 2365.694557 0 0 0-193.771379 22.22276c-66.007835 10.27767-108.325254 73.272733-94.561901 135.990572l58.787782 280.884926a1965.004045 1965.004045 0 0 1 804.76071-7.468739l57.646272-275.678823c13.502437-61.515177-29.031054-123.527726-95.030736-133.842087a2364.972959 2364.972959 0 0 0-192.625792-22.084148" fill="#D1A648" /><path d="M909.714431 936.560308A1934.02427 1934.02427 0 0 0 117.665255 944.599803c-14.211804 3.126923-28.798675-7.83973-32.618658-24.72593L22.406217 639.64124c-18.798229-79.498041 34.538841-160.23136 119.772972-173.440265a2397.273625 2397.273625 0 0 1 196.331624-22.402141l4.570118 62.098163a2333.911648 2333.911648 0 0 0-191.211135 22.043379c-47.670287 7.464662-78.629678 52.79893-69.2856 98.952639l48.938179 250.769437a1995.979743 1995.979743 0 0 1 763.972099-6.45361l48.004586-246.427621c9.164697-45.330191-21.945536-89.963245-69.623976-97.387139a2332.170844 2332.170844 0 0 0-190.118547-21.680542l4.488582-61.686404a2395.451285 2395.451285 0 0 1 195.137115 22.487754c85.193362 13.371978 138.795426 92.88225 120.372265 170.716947l-61.401026 274.684079c-3.742523 16.547823-18.341625 27.477785-32.639042 24.644392z" fill="#D1A648" /><path d="M117.176036 623.399178a2245.428289 2245.428289 0 0 1 128.444374-19.511673l15.809918 131.351148a2113.669459 2113.669459 0 0 0-120.849253 18.724847l-23.405039-130.564322zM784.193139 603.002835a2241.041628 2241.041628 0 0 1 128.550372 19.09176l-23.188968 128.43622a2112.177342 2112.177342 0 0 0-121.093862-17.615951l15.732458-129.912029z" opacity=".31" fill="#000000" /><path d="M336.77001 428.339523a2411.301972 2411.301972 0 0 1 352.001019 0.252763c-10.730197 147.9642-21.464471 295.924324-32.190591 443.888524a1965.391343 1965.391343 0 0 0-286.820779 2.666242l-32.989649-446.807529z" fill="#F5C254" /><path d="M654.342262 903.32605a1934.29334 1934.29334 0 0 0-282.291429 2.870083c-14.440106 1.202663-27.388094-11.521101-28.929133-28.660063l-39.076345-446.599611c-1.541039-17.134885 12.075549-32.329203 30.437557-33.64194a2442.408128 2442.408128 0 0 1 356.53037 0.456604c18.362009 1.365736 31.994904 16.486671 30.486479 33.487021l-38.220212 443.134312c-1.512501 17.004427-14.46049 29.858649-28.937287 28.953594z m-259.787368-61.246106a1997.300634 1997.300634 0 0 1 237.132465-2.005797c7.50543-127.592318 15.014938-255.188712 22.516291-382.785107a2381.031564 2381.031564 0 0 0-282.813262-0.040768l23.164506 384.831672z" fill="#F5C254" /><path d="M430.969073 902.180463l-8.247412-190.750454c-2.45017-47.65398 38.485206-88.915501 91.010989-89.021499 52.52986-0.158996 93.514157 40.69892 91.104755 88.132752l-8.084339 190.012549" fill="#3F5B6E" /><path d="M61.873937 999.306685c-17.387649-62.950218 182.303277-169.489824 450.317674-168.539924 267.977705-0.073383 467.689015 105.940313 450.660126 167.386184" fill="#B6D19A" /></svg>