<svg xmlns="http://www.w3.org/2000/svg" viewBox="0 0 1024 1024" width="200" height="200"><path d="M419.328 866.816c0 19.968 16.384 35.84 35.84 35.84 19.968 0 35.84-16.384 35.84-35.84v-269.312L418.816 573.44v293.376zM564.736 866.816c0 19.968 16.384 35.84 35.84 35.84 19.968 0 35.84-16.384 35.84-35.84V573.44l-72.192 24.064v269.312z" fill="#FFFF00" /><path d="M893.44 162.816l-144.384 72.192c-24.576 12.288-39.936 37.376-39.936 64.512v4.608c0-29.696-17.92-56.32-45.568-67.072l-3.072-1.024c-85.504-33.792-181.248-33.28-266.752 1.024-27.136 11.264-45.056 37.376-45.056 67.072v-4.096c0-27.136-15.36-52.224-39.936-64.512L164.864 162.816c-48.128-24.064-104.448 10.752-104.448 64.512v389.632c0 58.88 67.072 93.184 114.688 57.856l144.384-105.984c18.432-13.824 29.184-35.328 29.184-57.856v-13.824c0 30.208 18.944 56.832 47.104 67.584l7.168 2.56c79.872 29.696 167.936 30.208 248.32 1.024l10.752-4.096c28.672-10.24 47.616-37.376 47.616-67.584v13.824c0 23.04 10.752 44.544 29.184 57.856l144.384 105.984c47.616 34.816 114.688 1.024 114.688-57.856v-389.12c-0.512-53.76-56.832-88.576-104.448-64.512z" fill="#FFFF00" /><path d="M935.936 121.344c-25.088-15.36-55.808-16.896-81.92-3.584l-144.384 71.68c-15.36 7.68-27.648 19.456-35.84 33.792-9.216-14.336-23.04-25.6-39.936-32.256l-3.072-1.024c-89.088-35.328-186.88-34.816-275.968 1.024-16.384 6.656-30.208 17.92-39.424 32.256-8.192-14.336-20.48-26.112-35.328-33.792L136.192 117.76c-26.624-13.312-57.344-11.776-81.92 3.584-25.088 15.36-39.936 42.496-39.936 71.68v389.632c0 32.256 17.92 60.928 46.08 75.264 12.288 6.144 25.088 9.216 38.4 9.216 17.408 0 35.328-5.632 50.176-16.384l144.384-105.984c11.264-8.192 19.968-19.456 26.112-31.744 9.728 12.8 22.528 23.552 38.4 29.184l7.168 2.56c3.072 1.024 5.632 2.048 8.704 3.072v284.672c0 26.624 21.504 48.64 48.64 48.64 12.8 0 25.088-5.12 34.304-14.336 9.216-9.216 14.336-21.504 14.336-34.304v-265.216c8.192 0.512 16.384 1.024 24.576 1.024 8.192 0 15.872-0.512 24.064-1.024v265.216c0 12.8 5.12 25.088 14.336 34.304s21.504 14.336 34.304 14.336c26.624 0 48.64-21.504 48.64-48.64V547.84c2.048-0.512 4.096-1.536 6.144-2.048l10.752-4.096c15.872-5.632 29.184-16.384 38.912-29.184 6.144 12.288 14.848 23.552 26.112 31.744l144.384 105.984c14.848 10.752 32.256 16.384 50.176 16.384 12.8 0 26.112-3.072 38.4-9.216 28.672-14.336 46.08-43.52 46.08-75.264V193.536c-2.048-29.696-16.896-56.832-41.984-72.192z m-248.32 217.6l263.68-66.56v188.928l-263.68-68.608V338.944z m0-73.728c0-22.528 12.8-43.008 33.28-53.248L865.28 139.776c18.432-9.216 40.448-8.192 57.856 2.56 17.92 10.752 28.16 29.696 28.16 50.688v53.248l-263.68 66.56v-47.616zM38.912 272.384l263.68 66.56v53.76L38.912 461.312V272.384z m28.16-130.048c9.728-6.144 20.48-9.216 31.232-9.216 9.216 0 18.432 2.048 26.624 6.144l144.384 72.192c20.48 10.24 33.28 30.72 33.28 53.248v48.128l-263.68-66.56V193.536c0-20.992 10.752-39.936 28.16-51.2z m235.52 334.848c0 18.944-9.216 36.864-24.576 48.128l-144.384 105.984c-18.432 13.824-41.984 15.36-62.464 5.12s-32.768-30.208-32.768-53.248V486.912L302.08 418.304v58.88zM445.44 833.024c0 6.144-2.56 12.288-7.168 16.896-4.608 4.608-10.24 7.168-16.896 7.168-12.8 0-23.552-10.752-23.552-23.552v-276.992c15.36 4.096 31.232 7.168 47.104 9.728v266.752z m145.408 0c0 12.8-10.752 23.552-23.552 23.552-6.144 0-12.288-2.56-16.896-7.168s-7.168-10.24-7.168-16.896v-267.776c15.872-2.048 31.744-5.12 47.104-9.216v277.504z m32.768-313.856l-10.752 4.096c-77.312 28.16-162.816 28.16-239.616-1.024l-7.168-2.56c-23.04-8.704-38.912-31.232-38.912-55.808v-194.56c0-24.576 14.848-46.08 37.376-55.296 41.984-16.896 86.016-25.6 130.048-25.6 43.008 0 86.528 8.192 127.488 24.576l3.072 1.024c23.04 9.216 37.888 30.72 37.888 55.296v193.536c0 25.088-15.872 47.616-39.424 56.32z m294.912 117.248c-20.48 10.24-44.032 8.192-62.464-5.12L711.68 525.312c-15.36-11.264-24.576-29.184-24.576-48.128V418.304l263.68 68.608v96.256c0.512 23.04-11.776 43.008-32.256 53.248z" fill="#221E1F" /><path d="M572.416 317.44l-32.256-4.608c-1.536 0-3.072-1.024-3.584-2.56l-14.336-29.184c-5.12-10.24-15.36-16.384-26.624-16.384s-21.504 6.144-26.624 16.384l-14.336 29.184c-0.512 1.536-2.048 2.56-3.584 2.56l-33.28 4.608c-11.264 1.536-20.48 9.216-24.064 19.968s-0.512 22.528 7.68 30.208l23.552 23.04c1.024 1.024 1.536 2.56 1.536 4.096l-5.632 32.256c-2.048 11.264 2.56 22.528 11.776 29.184 5.12 3.584 11.264 5.632 17.408 5.632 4.608 0 9.216-1.024 13.824-3.584l29.184-15.36c1.536-0.512 3.072-0.512 4.608 0l29.184 15.36c10.24 5.12 22.016 4.608 31.232-2.048 9.216-6.656 13.824-17.92 11.776-29.184l-5.632-32.256c-0.512-1.536 0-3.072 1.536-4.096l23.552-23.04c8.192-7.68 10.752-19.456 7.68-30.208-4.608-10.24-13.312-18.432-24.576-19.968z m-1.024 32.768l-23.552 23.04c-7.168 6.656-10.24 16.384-8.704 26.112l5.632 32.256c0.512 2.56-1.024 4.096-2.048 4.608-1.024 0.512-2.56 1.536-5.12 0.512l-29.184-15.36c-4.096-2.048-9.216-3.584-13.824-3.584s-9.216 1.024-13.824 3.584l-29.184 15.36c-2.56 1.024-4.096 0.512-5.12-0.512-1.024-0.512-2.56-2.048-2.048-4.608l5.632-32.256c1.536-9.728-1.536-19.456-8.704-26.112l-23.552-23.04c-2.048-2.048-1.536-4.096-1.024-5.12s1.536-3.072 4.096-3.072l32.256-4.608c9.728-1.536 17.92-7.68 22.528-16.384l14.336-29.184c1.024-2.56 3.072-2.56 4.096-2.56s3.072 0.512 4.096 2.56l14.336 29.184c4.096 8.704 12.8 14.848 22.528 16.384l32.256 4.608c2.56 0.512 3.584 2.048 4.096 3.072 1.536 1.536 2.048 3.584 0 5.12z" fill="#221E1F" /></svg>