<svg xmlns="http://www.w3.org/2000/svg" viewBox="0 0 1024 1024" width="200" height="200"><path d="M209.454545 418.909091a23.272727 23.272727 0 0 1 0-46.545455h100.848485v46.545455z" fill="#FFB82C" /><path d="M302.545455 380.121212v31.030303H209.454545a15.515152 15.515152 0 0 1 0-31.030303h93.09091m15.515151-15.515151H209.454545a31.030303 31.030303 0 0 0 0 62.060606h108.606061v-62.060606z" fill="#352635" /><path d="M713.69697 418.909091v-46.545455h100.848485a23.272727 23.272727 0 0 1 0 46.545455z" fill="#FFB82C" /><path d="M814.545455 380.121212a15.515152 15.515152 0 0 1 0 31.030303H721.454545v-31.030303h93.09091m0-15.515151H705.939394v62.060606h108.606061a31.030303 31.030303 0 0 0 0-62.060606z" fill="#352635" /><path d="M271.515152 760.242424a38.787879 38.787879 0 0 1-38.787879-38.787879v-54.30303h77.575757v54.30303a38.787879 38.787879 0 0 1-38.787878 38.787879z" fill="#FFB82C" /><path d="M302.545455 674.909091v46.545454a31.030303 31.030303 0 0 1-62.060607 0v-46.545454h62.060607m15.515151-15.515152H224.969697v62.060606a46.545455 46.545455 0 0 0 93.090909 0v-62.060606z" fill="#352635" /><path d="M752.484848 760.242424a38.787879 38.787879 0 0 1-38.787878-38.787879v-54.30303h77.575757v54.30303a38.787879 38.787879 0 0 1-38.787879 38.787879z" fill="#FFB82C" /><path d="M783.515152 674.909091v46.545454a31.030303 31.030303 0 0 1-62.060607 0v-46.545454h62.060607m15.515151-15.515152H705.939394v62.060606a46.545455 46.545455 0 0 0 93.090909 0v-62.060606z" fill="#352635" /><path d="M224.969697 682.666667a23.272727 23.272727 0 0 1-23.272727-23.272728V543.030303a177.570909 177.570909 0 0 1 14.972121-71.524848l56.397576-128.698182A131.878788 131.878788 0 0 1 393.852121 263.757576h236.295758A131.878788 131.878788 0 0 1 750.933333 342.807273l56.397576 128.853333A177.570909 177.570909 0 0 1 822.30303 543.030303v116.363636a23.272727 23.272727 0 0 1-23.272727 23.272728z" fill="#B3CAFE" /><path d="M630.147879 271.515152a124.121212 124.121212 0 0 1 113.72606 74.395151l56.397576 128.853333A170.666667 170.666667 0 0 1 814.545455 543.030303v116.363636a15.515152 15.515152 0 0 1-15.515152 15.515152H224.969697a15.515152 15.515152 0 0 1-15.515152-15.515152V543.030303a170.666667 170.666667 0 0 1 14.27394-68.421818l56.397576-128.853333A124.121212 124.121212 0 0 1 393.852121 271.515152h236.295758m0-15.515152H393.852121a139.636364 139.636364 0 0 0-127.922424 83.704242L209.454545 468.557576a187.035152 187.035152 0 0 0-15.515151 74.472727v116.363636a31.030303 31.030303 0 0 0 31.030303 31.030303h574.060606a31.030303 31.030303 0 0 0 31.030303-31.030303V543.030303a187.035152 187.035152 0 0 0-15.515151-74.627879l-56.475152-128.698182A139.636364 139.636364 0 0 0 630.147879 256z" fill="#352635" /><path d="M293.391515 488.727273A23.272727 23.272727 0 0 1 271.515152 457.076364l38.787878-99.84a85.876364 85.876364 0 0 1 79.670303-54.303031h244.286061a85.333333 85.333333 0 0 1 79.592727 54.303031l38.787879 99.84A23.272727 23.272727 0 0 1 730.608485 488.727273z" fill="#FFFFFF" /><path d="M634.259394 310.30303a77.963636 77.963636 0 0 1 72.378182 49.726061l38.787879 99.84A15.515152 15.515152 0 0 1 730.608485 480.969697H293.391515A15.515152 15.515152 0 0 1 279.272727 459.869091l38.4-99.84A77.963636 77.963636 0 0 1 389.740606 310.30303h244.518788m0-15.515151H389.740606A93.090909 93.090909 0 0 0 302.545455 354.443636l-38.089697 99.84A31.030303 31.030303 0 0 0 293.391515 496.484848h437.21697a31.030303 31.030303 0 0 0 28.935757-42.201212L721.454545 354.443636A93.090909 93.090909 0 0 0 634.259394 294.787879z" fill="#352635" /><path d="M263.757576 566.30303h62.060606a46.545455 46.545455 0 0 1 46.545454 46.545455h-62.060606a46.545455 46.545455 0 0 1-46.545454-46.545455z" fill="#FFFFFF" /><path d="M380.121212 620.606061h-69.818182a54.30303 54.30303 0 0 1-54.30303-54.303031v-7.757575h69.818182a54.30303 54.30303 0 0 1 54.30303 54.30303z m-107.830303-46.545455a38.787879 38.787879 0 0 0 38.012121 31.030303h53.527273a38.787879 38.787879 0 0 0-38.012121-31.030303z" fill="#352635" /><path d="M698.181818 566.30303h62.060606a46.545455 46.545455 0 0 1-46.545454 46.545455h-62.060606a46.545455 46.545455 0 0 1 46.545454-46.545455z" fill="#FFFFFF" /><path d="M713.69697 620.606061h-69.818182v-7.757576a54.30303 54.30303 0 0 1 54.30303-54.30303h69.818182v7.757575a54.30303 54.30303 0 0 1-54.30303 54.303031z m-53.527273-15.515152H713.69697a38.787879 38.787879 0 0 0 38.012121-31.030303H698.181818a38.787879 38.787879 0 0 0-38.012121 31.030303z" fill="#352635" /><path d="M484.926061 488.727273L386.172121 389.973333 484.926061 488.727273z" fill="#FFB82C" /><path d="M386.172121 382.215758a7.757576 7.757576 0 0 0-5.507879 2.249697 7.757576 7.757576 0 0 0 0 11.015757L479.418182 494.235152a7.757576 7.757576 0 0 0 10.938182-11.015758L391.68 384.465455a7.757576 7.757576 0 0 0-5.507879-2.249697z" fill="#352635" /><path d="M634.492121 488.727273L535.738182 389.973333 634.492121 488.727273z" fill="#FFB82C" /><path d="M535.738182 382.215758a7.757576 7.757576 0 0 0-5.430303 2.249697 7.757576 7.757576 0 0 0 0 11.015757l98.676363 98.75394a7.757576 7.757576 0 0 0 11.015758 0 7.757576 7.757576 0 0 0 0-11.015758L541.246061 384.465455a7.757576 7.757576 0 0 0-5.507879-2.249697z" fill="#352635" /></svg>