<svg xmlns="http://www.w3.org/2000/svg" viewBox="0 0 1024 1024" width="200" height="200"><path d="M445.278018 567.407784c0-32.006322-26.797166-57.95095-59.83665-57.95095H251.332712c-33.053933 0-59.843874 25.944628-59.843874 57.95095 0 19.911834 10.389411 37.475574 26.1686 47.901109 1.018711 3.38848 4.89126 20.822171-22.166003 22.04318v211.819716h0.505743c0.823639 20.822171 10.46166 37.302176 22.368301 37.302176h200.722264c12.441284 0 22.512799-17.968335 22.512799-40.127113a68.925578 68.925578 0 0 0-0.332346-5.931646V637.352073h-6.155617c-22.563373-3.821974-15.822538-21.985381-15.822539-21.985381l-0.216747-0.0289c15.800864-10.43276 26.204724-27.9965 26.204725-47.930008z m-61.28163 188.497728h-45.979285v45.964835a12.325685 12.325685 0 1 1-24.636921 0v-45.964835h-45.964835a12.30401 12.30401 0 0 1-12.31846-12.31846c0-6.798634 5.498151-12.311235 12.31846-12.311236h45.964835v-45.964835c0-6.798634 5.505376-12.33291 12.318461-12.33291 6.813084 0 12.31846 5.534276 12.31846 12.33291v45.964835h45.979285a12.311235 12.311235 0 1 1 0 24.629696zM303.879434 360.450428c30.568566 0 55.364434-20.309203 55.364435-45.365168 0-7.752321-2.376993-15.035024-6.524088-21.400164l0.556318 0.144498-48.731973-70.840177 0.028899-0.903113-0.310671 0.484068-0.151723-0.187847 0.01445 0.36847-45.878136 66.721982c-6.126718 7.289927-9.717495 16.133209-9.717495 25.648407 0.021675 25.01984 24.788643 45.329044 55.349984 45.329044z" fill="#13AE67" /><path d="M887.637174 784.971298c-5.252505-7.651173-12.166737-12.015014-15.396269-9.782519l-14.420907 9.898117-71.33147-109.890779 46.69455-32.100246c4.428866-3.027234 3.764175-11.675444-1.495555-19.326616-5.252505-7.651173-13.091525-11.386448-17.505941-8.351989l-27.526882 18.907572-214.637428-327.389269-9.00223-9.992042-0.332345 0.01445-120.193492-0.310671L353.738492 171.591454c-2.969435-4.168769-10.129314-4.161544-16.01761 0.0289-5.873846 4.168769-8.243615 10.916829-5.295854 15.092823l87.80425 123.733695-15.641916 35.676572-30.424068 64.720684s0 9.992041 6.993707 19.984083l219.817684 324.723281 4.248243 3.402929-25.09209 17.20972c-4.414416 3.048909-3.735275 11.697119 1.51723 19.348291 5.23083 7.636723 13.0843 11.386448 17.484266 8.330313l47.836085-32.84441 71.331471 109.898005-18.770299 12.889227c-3.265656 2.23972-1.654503 10.244913 3.605227 17.888861 5.23083 7.651173 12.152287 12.036689 15.410719 9.796969l172.682414-118.625688c3.280106-2.21082 1.676178-10.216013-3.590777-17.874411zM508.893292 401.37228a12.990376 12.990376 0 0 1 4.949058-17.686563l38.299213-21.566337a13.004826 13.004826 0 0 1 17.701013 4.941834 13.004826 13.004826 0 0 1-4.941834 17.686563l-38.313662 21.573562a12.983151 12.983151 0 0 1-17.693788-4.949059z m38.638783 39.968165a12.990376 12.990376 0 0 1 4.934609-17.686563l38.313662-21.566336a12.990376 12.990376 0 1 1 12.737505 22.628397l-38.299213 21.573561a12.968701 12.968701 0 0 1-17.686563-4.949059z m43.963536 62.618238a12.990376 12.990376 0 0 1 4.934609-17.686564l38.313663-21.566336a12.997601 12.997601 0 0 1 17.686563 4.941834c3.525753 6.242316 1.314932 14.160811-4.949059 17.686563l-38.299212 21.573561a12.983151 12.983151 0 0 1-17.686564-4.949058z m39.968166 58.622865a12.975926 12.975926 0 0 1 4.934609-17.686563l38.313662-21.573561a12.990376 12.990376 0 0 1 12.73028 22.635622l-38.299213 21.559111a12.968701 12.968701 0 0 1-17.679338-4.934609z m17.310868 66.606384a13.004826 13.004826 0 0 1 4.956284-17.686563l38.299212-21.566337a13.004826 13.004826 0 0 1 17.701014 4.941834 13.004826 13.004826 0 0 1-4.941834 17.686564l-38.313663 21.573561a12.997601 12.997601 0 0 1-17.701013-4.949059z m97.247199 232.706912l-71.338696-109.90523 84.126775-57.777552 71.324246 109.89078-84.112325 57.792002z" fill="#13AE67" /></svg>