<svg xmlns="http://www.w3.org/2000/svg" viewBox="0 0 1024 1024" width="200" height="200"><path d="M58.4 71.23m315.06 0l269.88 0q315.06 0 315.06 315.06l0 269.88q0 315.06-315.06 315.06l-269.88 0q-315.06 0-315.06-315.06l0-269.88q0-315.06 315.06-315.06Z" fill="#D6EFAF" /><path d="M933.36 334.4H183.81A29.92 29.92 0 0 0 154 364.24v448.81a29.92 29.92 0 0 0 29.84 29.84h749.52a29.93 29.93 0 0 0 29.85-29.84V364.24a29.93 29.93 0 0 0-29.85-29.84z" fill="#606060" /><path d="M99.97 289.4m29.84 0l749.56 0q29.84 0 29.84 29.84l0 448.81q0 29.84-29.84 29.84l-749.56 0q-29.84 0-29.84-29.84l0-448.81q0-29.84 29.84-29.84Z" fill="#68BCAC" /><path d="M183.34 378.33m12 0l618.5 0q12 0 12 12l0 195.57q0 12-12 12l-618.5 0q-12 0-12-12l0-195.57q0-12 12-12Z" fill="#FFFFFF" /><path d="M196.67 677.97m12 0l591.82 0q12 0 12 12l0 95.92q0 12-12 12l-591.82 0q-12 0-12-12l0-95.92q0-12 12-12Z" fill="#F8E9AC" /><path d="M431.4 449.47m12 0l115.19 0q12 0 12 12l0 50.24q0 12-12 12l-115.19 0q-12 0-12-12l0-50.24q0-12 12-12Z" fill="#F8E9AC" /><path d="M321.61 488.11m-49.89 0a49.89 49.89 0 1 0 99.78 0 49.89 49.89 0 1 0-99.78 0Z" fill="#F0B9A0" /><path d="M680.37 488.11m-49.89 0a49.89 49.89 0 1 0 99.78 0 49.89 49.89 0 1 0-99.78 0Z" fill="#F0B9A0" /><path d="M879.36 794.14H132.19c-16.36 0-28.43-11.25-28.47-27.9V411c0-30.37-0.25-60.76 0-91.13a26.54 26.54 0 0 1 26.09-26.75H868.27c8.44 0 17-0.8 24.61 3.8 13.86 8.42 12.58 22.86 12.58 36.56v433.9a26.55 26.55 0 0 1-26.1 26.75c-4.81 0.11-4.83 7.61 0 7.5A34.16 34.16 0 0 0 913 768V333.51c0-13.52 0.93-26.73-9.41-37.53-9.19-9.6-20.68-10.33-32.77-10.33H133.16c-2 0-4.1 0-6.14 0.13-17.47 1.54-30.48 16.28-30.8 33.61-0.17 8.59 0 17.21 0 25.81v321c0 33.37-0.11 66.74 0 100.11 0.06 19.86 14.7 35.23 34.77 35.33h748.37c4.83 0 4.84-7.5 0-7.5z" fill="#FFFFFF" /><path d="M813.84 594.15H208.49c-4.1 0-8.21 0.11-12.3 0-9.12-0.24-9.1-7.8-9.1-14.51V392.92c0-5.37 1.86-10.4 8.25-10.84 0.67-0.05 1.35 0 2 0h611.5c6 0 12.68 0.06 13.25 8.28 0.52 7.61 0 15.44 0 23.06v157.71c0 7.42 2.68 22.43-8.25 23-4.8 0.26-4.84 7.76 0 7.5 9.21-0.5 15.5-7.28 15.75-16.41 0.08-3.23 0-6.46 0-9.69V416.88c0-8.74 0.28-17.53 0-26.27-0.35-10.54-8.59-16-18.26-16h-571.1c-14.33 0-28.67-0.08-43 0-9.81 0.05-17.47 6.22-17.64 16.55-0.16 9.67 0 19.35 0 29v157.66c0 2.62-0.09 5.26 0 7.88a16.11 16.11 0 0 0 15.79 15.95c10.63 0.44 21.37 0 32 0h586.46c4.82 0 4.83-7.5 0-7.5zM800.5 794.14H218.55c-3.08 0-6.18 0.1-9.27 0-9.73-0.31-8.86-9.27-8.86-16.21v-84.67c0-5.59 1.39-11.07 8.26-11.54h1.55c3.72-0.06 7.45 0 11.18 0h575.33c5.65 0 11.5 0.87 12 8.26 0.64 9.4 0 19.07 0 28.48v48.93c0 7.71 3.35 26.12-8.25 26.75-4.8 0.26-4.83 7.76 0 7.5a16.15 16.15 0 0 0 15.75-16.09c0.12-3.8 0-7.62 0-11.42v-48.08c0-11.77 0.2-23.56 0-35.32-0.18-9.87-7.38-16.4-17-16.51-10.77-0.12-21.55 0-32.32 0H243c-11 0-21.93-0.09-32.9 0-9.54 0.08-16.91 6.37-17.19 16.24-0.32 11.36 0 22.77 0 34.14v48.49c0 4-0.1 8.1 0 12.14 0.22 8.18 5.52 15.25 14 16.27 7.77 0.94 16 0.14 23.84 0.14H800.5c4.82 0 4.83-7.5 0-7.5z" fill="#FFFFFF" /><path d="M558.59 520H446.34c-5.5 0-10.71-1.58-11.19-8.27-0.34-4.62 0-9.41 0-14.05v-24.77c0-4.33-1.12-10.82 0.8-14.91 2.32-4.9 7-4.78 11.51-4.78H553c3.1 0 6.94-0.49 9.72 1.13 5.36 3.15 4.1 10.47 4.1 15.73 0 13.66 0.79 27.58 0 41.22-0.29 4.81-3.29 8.39-8.25 8.66s-4.84 7.76 0 7.5c9.64-0.53 15.66-7.74 15.75-17.13 0.06-7.25 0-14.51 0-21.76v-23.74c0-7.76-2.3-15.2-10.39-18.13-3.63-1.31-7.61-1-11.4-1H479c-11.68 0-23.41-0.31-35.08 0-9 0.25-15.91 6.62-16.3 15.76-0.23 5.43 0 10.92 0 16.35v26c0 6.33-0.67 12.87 3.81 18 7.08 8.19 22 5.55 31.65 5.55h95.48c4.85 0.1 4.86-7.36 0.03-7.36zM367.75 488.11c-0.27 19.25-12.18 36.89-30.49 43.43a46.16 46.16 0 1 1-7.09-88.78c21.76 4.17 37.28 23.36 37.58 45.35 0.06 4.83 7.56 4.84 7.5 0a53.65 53.65 0 1 0-43.75 52.71c25.31-4.55 43.4-27.32 43.75-52.71 0.06-4.82-7.44-4.83-7.5 0zM726.51 488.11c-0.26 19.25-12.18 36.89-30.49 43.43a46.15 46.15 0 1 1-7.09-88.78c21.77 4.17 37.28 23.36 37.58 45.35 0.07 4.83 7.57 4.84 7.5 0a53.62 53.62 0 0 0-95-34.06c-14.12 17.31-16.2 42.25-4.69 61.51a54.22 54.22 0 0 0 56 25.26c25.31-4.55 43.4-27.32 43.75-52.71 0.01-4.82-7.49-4.83-7.56 0z" fill="#FFFFFF" /></svg>