<svg xmlns="http://www.w3.org/2000/svg" viewBox="0 0 1024 1024" width="200" height="200"><path d="M673.568258 0c-188.146137 0-341.20363 153.057493-341.20363 341.20363 0 90.778609 35.858657 173.174675 93.877106 234.370007l15.344942-15.948965 26.581607 25.567218-15.215837 15.833693C512.492479 651.671268 589.456952 682.40726 673.568258 682.40726c188.146137 0 341.20363-153.057493 341.203629-341.20363s-153.057493-341.20363-341.203629-341.20363z m0 645.520381c-167.78919 0-304.316751-136.518339-304.316751-304.316751s136.527561-304.316751 304.316751-304.316751 304.316751 136.518339 304.31675 304.316751-136.527561 304.316751-304.31675 304.316751z" fill="#C6DFED" /><path d="M673.568258 36.886879c-167.78919 0-304.316751 136.518339-304.316751 304.316751s136.527561 304.316751 304.316751 304.316751 304.316751-136.518339 304.31675-304.316751-136.527561-304.316751-304.31675-304.316751z m0 553.303183c-137.297574 0-248.986433-111.69808-248.986433-248.986432s111.688858-248.986433 248.986433-248.986433 248.986433 111.69808 248.986432 248.986433-111.688858 248.986433-248.986432 248.986432z" fill="#50CCD3" /><path d="M673.568258 129.104076c-116.945239 0-212.099554 95.145093-212.099554 212.099554s95.154315 212.099554 212.099554 212.099554 212.099554-95.145093 212.099553-212.099554-95.154315-212.099554-212.099553-212.099554zM593.099531 444.832705a18.438829 18.438829 0 1 1-36.702444-3.531918c6.261548-65.229834-58.359653-96.016546-61.116948-97.302976-9.22172-4.278878-13.256222-15.220448-9.023453-24.45139a18.397331 18.397331 0 0 1 24.391449-9.078783c3.725575 1.706018 91.276582 42.715006 82.451396 134.360456z m116.696252 4.481756c-12.970349 45.370861-66.640758 75.161627-68.932354 76.401948-2.812625 1.535416-5.832738 2.263932-8.806743 2.263932a18.457272 18.457272 0 0 1-16.188729-9.572145 18.466494 18.466494 0 0 1 7.275937-25.036969c11.813023-6.510534 44.015268-28.960811 51.203599-54.279042 2.794181-9.775023 1.512362-19.190399-3.886955-28.762544a18.438829 18.438829 0 0 1 7.003896-25.129186 18.434218 18.434218 0 0 1 25.124576 7.008507c10.355991 18.383498 12.790525 37.59234 7.206773 57.105499z m-1.046665-227.822586c-35.665001-34.53534-91.69617 9.06034-92.272527 9.498372a18.406553 18.406553 0 0 1-25.8992-3.015503 18.434218 18.434218 0 0 1 3.029335-25.908421c28.186186-22.335005 93.923215-52.508472 140.824882-7.054616 11.90524 11.550204 19.490105 16.414661 23.612213 18.443439 3.674855-6.3261 10.844742-10.208444 18.697037-8.963511a18.452661 18.452661 0 0 1 15.506322 20.960969c-1.291041 8.682249-7.40043 20.361557-20.315449 24.732652a31.169413 31.169413 0 0 1-10.02862 1.618412c-19.365611 0-39.160033-16.737421-53.153993-30.311793z m163.040005 125.032687c-18.268227 6.980842-65.455767 32.036254-64.644255 63.671364a18.44805 18.44805 0 0 1-17.973132 18.909136c-0.165991 0.009222-0.32276 0.009222-0.470308 0.009222a18.457272 18.457272 0 0 1-18.443439-17.96391c-1.641466-64.266165 84.761437-97.722564 88.436292-99.105822a18.401942 18.401942 0 0 1 23.75515 10.687973 18.44805 18.44805 0 0 1-10.664919 23.792037z" fill="#DBEEF7" /><path d="M673.568258 92.217197c-137.297574 0-248.986433 111.69808-248.986433 248.986433s111.688858 248.986433 248.986433 248.986432 248.986433-111.69808 248.986432-248.986432-111.688858-248.986433-248.986432-248.986433z m0 461.085987c-116.945239 0-212.099554-95.145093-212.099554-212.099554s95.154315-212.099554 212.099554-212.099554 212.099554 95.145093 212.099553 212.099554-95.154315 212.099554-212.099553 212.099554z" fill="#C6DFED" /><path d="M441.586676 559.624672l-15.349552 15.948965-207.991278 216.276992-21.034743-21.043964a18.429607 18.429607 0 0 0-26.083634 0l-156.492584 156.497195a18.434218 18.434218 0 0 0 0 26.083634l65.197559 65.20678a18.429607 18.429607 0 0 0 26.079023 0l156.497195-156.497195a18.434218 18.434218 0 0 0 0-26.083634l-18.065349-18.074571 208.604522-216.913291 15.220448-15.833693-26.581607-25.567218z" fill="#618287" /><path d="M792.242569 225.452604a18.452661 18.452661 0 0 0-15.506322-20.960969c-7.852294-1.244932-15.022181 2.637412-18.692426 8.968122-4.12672-2.033389-11.711584-6.897846-23.616824-18.443439-46.901667-45.463078-112.643306-15.285-140.824882 7.054615a18.434218 18.434218 0 0 0-3.029335 25.903811 18.406553 18.406553 0 0 0 25.8992 3.020113c0.576357-0.442643 56.612137-44.038323 92.272527-9.498371 13.99396 13.56515 33.788381 30.307182 53.153993 30.307182 3.365928 0 6.713412-0.502584 10.02862-1.618412 12.910408-4.371095 19.019797-16.045792 20.32006-24.732652zM882.44482 322.732525a18.401942 18.401942 0 0 0-23.759761-10.687973c-3.670244 1.383258-90.073147 34.839657-88.436292 99.105822a18.457272 18.457272 0 0 0 18.44344 17.96391c0.147548 0 0.308928 0 0.474918-0.009222a18.44805 18.44805 0 0 0 17.973132-18.909136c-0.811511-31.63511 46.376028-56.690522 64.644255-63.671364a18.44805 18.44805 0 0 0 10.660308-23.792037zM510.638913 310.467638a18.397331 18.397331 0 0 0-24.386837 9.078783 18.480326 18.480326 0 0 0 9.023452 24.45139c2.757294 1.28643 67.378495 32.073141 61.112337 97.302976a18.44805 18.44805 0 0 0 18.369666 20.209398 18.438829 18.438829 0 0 0 18.337389-16.67748c8.825186-91.650061-78.725821-132.66366-82.456007-134.365067zM677.459823 385.205066a18.438829 18.438829 0 0 0-7.008507 25.124575c5.403928 9.572145 6.685747 18.98291 3.891566 28.762544-7.188331 25.313621-39.390576 47.768508-51.203599 54.279042a18.466494 18.466494 0 0 0-7.280548 25.036969 18.457272 18.457272 0 0 0 16.19334 9.572145c2.974005 0 5.994118-0.728516 8.806743-2.259321 2.286986-1.244932 55.962006-31.031087 68.932355-76.401948 5.57914-19.51777 3.149217-38.731223-7.206774-57.11011a18.434218 18.434218 0 0 0-25.129187-7.008507z" fill="#9D57C4" /></svg>