<svg xmlns="http://www.w3.org/2000/svg" viewBox="0 0 1024 1024" width="200" height="200"><path d="M800.144 144a16 16 0 0 1 16 16v112.688C843.408 410.896 907.36 571.904 1008 755.728c-31.472 40.176-63.232 65.6-95.296 76.272-24.688 8.208-50.224 13.28-76.576 15.152L841.056 864c-31.792 21.392-65.328 34.4-100.624 39.056-29.088 3.84-64.032 2.928-104.832-2.72C616.88 918.784 575.68 928 512 928c-54.064 0-91.92-6.64-113.568-19.92-17.712 6.304-46.208 6.208-85.456-0.272-56.496-9.328-92.8-23.936-108.848-43.808l5.232-19.392c-25.632-2.656-46.96-6.848-63.984-12.608-63.088-21.328-103.2-51.04-120.336-89.136C120.72 567.616 187.04 411.248 224 273.76V160a16 16 0 0 1 16-16h560.144z" fill="#63713A" /><path d="M215.104 320h607.344l8.224 32H206.288z" fill="#293C12" /><path d="M216 208H816a16 16 0 0 1 16 16v80a16 16 0 0 1-16 16H216a56 56 0 0 1 0-112z" fill="#6A2E0F" /><path d="M592 176a16 16 0 0 1 16 16v16h-128v112h128v16a16 16 0 0 1-16 16h-128a32 32 0 0 1-32-32v-112a32 32 0 0 1 32-32h128z m8 64a24 24 0 1 1 0 48 24 24 0 0 1 0-48z m112 0a24 24 0 1 1 0 48 24 24 0 0 1 0-48z m-384 0a24 24 0 1 1 0 48 24 24 0 0 1 0-48z" fill="#F0A538" /><path d="M322.096 491.856c8.016 2.288 12.672 10.64 10.4 18.656a334799.52 334799.52 0 0 0-97.408 344.512c-0.96 3.44-0.224 4.832 2.72 6.272 17.52 8.448 36.08 14.528 55.2 18.112 18 3.664 36.16 6.544 54.336 9.04 12.64 2.048 25.552 1.92 38.16-0.384 2.848-0.576 3.776-1.68 4.048-4.272l53.12-359.712a16 16 0 0 1 17.328-13.6l0.48 0.048a14.816 14.816 0 0 1 13.248 16.96c-31.536 209.536-48.944 328.928-52.192 358.192-0.432 3.92 0.24 6.256 4.272 7.392 4.96 1.392 9.76 3.36 14.752 4.64 21.056 5.328 42.608 6.432 64.16 7.168a363.04 363.04 0 0 0 69.536-3.648c9.536-1.456 18.848-4.304 28.192-6.944l7.008-1.92a3.648 3.648 0 0 0 3.136-3.584l-1.248-10.208-33.008-349.568a15.2 15.2 0 0 1 14.8-16.64l1.392-0.032a16 16 0 0 1 16.304 14.544c18.08 197.376 28.08 305.04 30.032 323.008l2.832 26.56 2.752 0.704c0.416 0.096 0.8 0.16 1.216 0.224 29.888 3.648 59.808 6.112 89.968 3.168a202.56 202.56 0 0 0 71.936-21.536 4.784 4.784 0 0 0 1.616-4.192c-0.768-3.84-2.128-7.568-3.248-11.36-6.32-21.68-31.216-109.6-74.688-263.696l29.68-8.528a156763.712 156763.712 0 0 1 71.488 247.6c1.04 3.648 2.56 4.912 6.288 4.448l21.28-2.192c18.56-2.144 36.8-6.528 54.336-13.024 25.664-9.888 45.424-28.08 63.424-48.32l-0.336-0.544 19.616-19.2 10.688 14.816a16 16 0 0 1-1.12 20.112c-17.824 19.68-32.368 33.872-43.648 42.608-21.664 16.432-46.464 25.568-72.736 30.784-14.72 2.944-29.664 4.576-44.512 6.832-0.784 0.16-1.568 0.352-2.336 0.592l2.432 8.64c0.432 1.408 0.88 2.784 1.392 4.16 1.056 2.832 0.32 4.368-2.048 5.936a251.424 251.424 0 0 1-51.904 26.112c-39.12 14.256-79.568 15.68-120.496 12.224-9.12-0.784-18.4-2.048-27.584-3.104a10.256 10.256 0 0 0-6.848 1.344l-1.44 1.056c-11.296 9.232-24.752 13.984-38.72 17.328-31.76 7.6-64.112 8.592-96.48 7.488-20.08-0.704-39.968-2.912-59.84-5.488a108.64 108.64 0 0 1-39.504-13.072 6.048 6.048 0 0 0-4.208-0.512c-14.72 4.32-29.824 4.24-44.848 3.408a411.232 411.232 0 0 1-106.96-20.688 159.136 159.136 0 0 1-46.08-23.44c-3.936-2.976-5.872-5.888-3.744-10.96 1.6-4.608 2.912-9.296 3.952-14.064l-14.592-2.128c-23.904-3.44-46.672-10.816-69.008-19.696-23.136-9.248-42.896-20.832-63.664-34.8-7.168-4.704-17.616-14.688-31.36-29.952a16 16 0 0 1-1.84-18.88l11.44-19.232c37.92 53.76 96.832 85.04 176.768 93.824 0.544-0.896 3.52-10 3.92-10.96l89.296-308.096a15.136 15.136 0 0 1 18.72-10.336z m423.392 19.056l8.544 29.584-29.472 8.464-8.624-30.576a14.768 14.768 0 0 1 10.608-18.336 15.712 15.712 0 0 1 18.944 10.88z" fill="#293C12" /></svg>