<svg xmlns="http://www.w3.org/2000/svg" viewBox="0 0 1024 1024" width="200" height="200"><path d="M170.666667 785.066667a341.333333 74.666667 0 1 0 682.666666 0 341.333333 74.666667 0 1 0-682.666666 0Z" fill="#F3E4DB" /><path d="M682.666667 765.866667H326.4c-44.8 0-78.933333-40.533333-72.533333-85.333334l32-155.733333c4.266667-17.066667 19.2-29.866667 36.266666-29.866667H682.666667c17.066667 0 32 12.8 36.266666 29.866667l32 155.733333c10.666667 42.666667-23.466667 85.333333-68.266666 85.333334zM633.6 256V200.533333h-172.8v200.533334H576v36.266666h194.133333V256z" fill="#EB883A" /><path d="M452.266667 565.333333c-14.933333 0-27.733333-12.8-27.733334-27.733333V192c0-14.933333 12.8-27.733333 27.733334-27.733333 14.933333 0 27.733333 12.8 27.733333 27.733333v345.6c-2.133333 14.933333-12.8 27.733333-27.733333 27.733333z" fill="#EBCB4B" /></svg>