<svg xmlns="http://www.w3.org/2000/svg" viewBox="0 0 1024 1024" width="200" height="200"><path d="M758.13 676.08c0 135.93-110.2 246.13-246.13 246.13S265.87 812.02 265.87 676.08c-0.04-87.96 46.88-169.24 123.07-213.2V224.85c0.01-67.97 55.12-123.06 123.08-123.05 67.95 0.01 123.04 55.09 123.05 123.05v238.04c76.18 43.95 123.1 125.24 123.06 213.19zM512 183.83c-22.66 0-41.02 18.36-41.02 41.02v205.11c-0.11 22.66 18.16 41.11 40.82 41.22 22.66 0.11 41.11-18.16 41.22-40.82V224.85c0-22.66-18.36-41.02-41.02-41.02z" fill="#2E3133" /></svg>