<svg xmlns="http://www.w3.org/2000/svg" viewBox="0 0 1024 1024" width="200" height="200"><path d="M642.2 654c-70.6 0-128-57.4-128-128 0-28.3-19-41.2-36.6-41.2S441 497.7 441 526c0 69.4-58.6 128-128 128-70.6 0-128-57.4-128-128V398h585.3v128c-0.1 70.6-57.5 128-128.1 128z" fill="#A9D0D3" /><path d="M821.8 636.8c0 90.2-73.4 163.5-163.5 163.5-90.2 0-163.5-73.4-163.5-163.5h-34.4c0 109.2 88.8 197.9 198 197.9s198-88.8 198-197.9V189.2H822v447.6z" fill="#573A32" /><path d="M477.6 502c8.9 0 19.4 6.3 19.4 23.9 0 80.1 65.2 145.2 145.2 145.2s145.2-65 145.2-145.1V398c0-9.5-7.7-17.2-17.2-17.2H184.9c-9.5 0-17.2 7.7-17.2 17.2v128c0 80.1 65.2 145.2 145.2 145.2 80.1 0 145.2-65.2 145.2-145.2 0.1-17.7 10.5-24 19.5-24z m-53.8 24c0 60.1-50.7 110.8-110.8 110.8-61.1 0-110.8-49.7-110.8-110.8V415.2H753V526c0 61.1-49.7 110.8-110.8 110.8S531.4 587.1 531.4 526c0-38.3-27.1-58.4-53.8-58.4-26.7 0-53.8 20.1-53.8 58.4z" fill="#573A32" /></svg>