<svg xmlns="http://www.w3.org/2000/svg" viewBox="0 0 1024 1024" width="200" height="200"><path d="M511.5 389.1h-281v306.1c0 138.3 112.8 250.4 251.9 250.4h28.9c154.6 0 283.3-125.7 282.7-279.4-0.5-153.5-127.9-277.1-282.5-277.1z" fill="#EB6836" /><path d="M260.4 667.4a242.6 241.2 0 1 0 485.2 0 242.6 241.2 0 1 0-485.2 0Z" fill="#C74B38" /><path d="M511.5 375.2H367.7V91.4h49.5c7.7 0 14-6.2 14-13.9s-6.3-13.9-14-13.9H230.5c-7.7 0-14 6.2-14 13.9v378.4c0 7.7 6.3 13.9 14 13.9s14-6.2 14-13.9v-52.8h267c147.5 0 268 118.1 268.6 263.3 0.2 61.3-21.8 121.4-62 169.1-5 5.9-4.2 14.7 1.7 19.6 5.8 4.9 14.8 4.1 19.7-1.7 44.5-52.7 68.9-119.1 68.6-187.1-0.7-160.5-133.7-291.1-296.6-291.1z" fill="#000000" /><path d="M503 881.7c118.8 0 215.5-96.1 215.5-214.3S621.8 453.2 503 453.2s-215.5 96.1-215.5 214.3S384.1 881.7 503 881.7z" fill="#000000" /><path d="M339.7 91.4h-95.2v39h30.8c7.7 0 14 6.2 14 13.9s-6.3 13.9-14 13.9h-30.8v31.5h30.8c7.7 0 14 6.2 14 13.9s-6.3 13.9-14 13.9h-30.8V249h30.8c7.7 0 14 6.2 14 13.9s-6.3 13.9-14 13.9h-30.8v31.5h30.8c7.7 0 14 6.2 14 13.9s-6.3 13.9-14 13.9h-30.8v8.3h95.2v-253z" fill="#F7D04A" /><path d="M244.5 344.6h95.2v30.6h-95.2z" fill="#F3B41B" /><path d="M676.3 875.3c-47.2 36.4-105.8 56.4-164.9 56.4h-28.9c-131.2 0-237.9-106.1-237.9-236.5V530.1c0-7.7-6.3-13.9-14-13.9s-14 6.2-14 13.9v165.1c0 145.8 119.3 264.4 265.9 264.4h28.9c65.4 0 130.1-22.1 182.1-62.3 6.1-4.7 7.2-13.5 2.5-19.5-4.8-6.1-13.6-7.2-19.7-2.5z" fill="#000000" /><path d="M503 481c98.7 0 179.8 76.2 187 172.5H316c7.1-96.3 88.3-172.5 187-172.5zM503 853.9c-98.7 0-179.8-76.2-187-172.5h374c-7.2 96.3-88.3 172.5-187 172.5z" fill="#F7D04A" /><path d="M447 636.8c7.7 0 14-6.2 14-13.9v-59l25.5 21.4c5.2 4.4 12.9 4.4 18.1 0l25.5-21.4v59c0 7.7 6.3 13.9 14 13.9s14-6.2 14-13.9v-89c0-11.6-14.1-18.1-23-10.6l-39.5 33.2-39.6-33.3c-8.9-7.5-23-1-23 10.6v89c0 7.8 6.3 14 14 14z" fill="#000000" /><path d="M468.5 698h-55c-7.7 0-14 6.2-14 13.9v89c0 7.7 6.3 13.9 14 13.9s14-6.2 14-13.9v-30.6h27.1c7.7 0 14-6.2 14-13.9s-6.3-13.9-14-13.9h-27.1v-16.7h41.1c7.7 0 14-6.2 14-13.9-0.1-7.6-6.4-13.9-14.1-13.9z" fill="#000000" /><path d="M592.6 698h-63.4c-7.7 0-14 6.2-14 13.9s6.3 13.9 14 13.9h19.6V801c0 7.7 6.3 13.9 14 13.9s14-6.2 14-13.9v-75.1h15.9c7.7 0 14-6.2 14-13.9-0.1-7.7-6.4-14-14.1-14z" fill="#000000" /></svg>