<svg xmlns="http://www.w3.org/2000/svg" viewBox="0 0 1024 1024" width="200" height="200"><path d="M840.96 150.4H322.88a130.24 130.24 0 0 0-125.44-96H116.16a41.6 41.6 0 0 0 0 83.2h81.28a46.72 46.72 0 0 1 46.72 46.72v449.92A108.48 108.48 0 0 0 352 742.72h488.96a108.48 108.48 0 0 0 108.48-108.48V258.88a108.48 108.48 0 0 0-108.48-108.48z m25.28 483.84a25.28 25.28 0 0 1-25.28 25.28H352a25.28 25.28 0 0 1-25.28-25.28V233.6h514.24a25.6 25.6 0 0 1 25.28 25.28zM415.04 864m-64 0a64 64 0 1 0 128 0 64 64 0 1 0-128 0ZM799.04 864m-64 0a64 64 0 1 0 128 0 64 64 0 1 0-128 0ZM635.52 337.28a41.6 41.6 0 0 0-56 0l-64 58.24a41.6 41.6 0 0 0 28.48 72.32 42.24 42.24 0 0 0 22.4-7.36v77.76a41.6 41.6 0 0 0 83.2 0V460.8a40.96 40.96 0 0 0 52.48-6.4 41.92 41.92 0 0 0-2.56-58.88z" fill="#000000" /></svg>