<svg xmlns="http://www.w3.org/2000/svg" viewBox="0 0 1024 1024" width="200" height="200"><path d="M512 320m-160 0a160 160 0 1 0 320 0 160 160 0 1 0-320 0Z" fill="#FAFAFA" /><path d="M512 512C406.144 512 320 425.856 320 320s86.144-192 192-192 192 86.144 192 192-86.144 192-192 192z m0-320c-70.592 0-128 57.408-128 128s57.408 128 128 128 128-57.408 128-128-57.408-128-128-128z" fill="#000000" /><path d="M161.408 864a352.064 352.064 0 0 1 701.184 0H161.408z" fill="#FD6C2D" /><path d="M862.592 896H161.408a31.872 31.872 0 0 1-31.872-34.88A381.952 381.952 0 0 1 512 512a381.952 381.952 0 0 1 382.464 349.12 31.808 31.808 0 0 1-31.872 34.88zM198.336 832H825.6A318.08 318.08 0 0 0 512 576a318.08 318.08 0 0 0-313.664 256z" fill="#000000" /></svg>