<svg xmlns="http://www.w3.org/2000/svg" viewBox="0 0 1024 1024" width="200" height="200"><path d="M784.25 369.24l3 38.61c2.93 37.93 4.4 71.57 4.41 109.58 0 38.25-1.46 72.12-4.41 110.28l-3 38.6C778.71 738 723.73 794.94 654.5 800.67l-40.78 3.38c-33.91 2.8-119.38 2.8-153.29 0l-40.78-3.38C350.41 794.94 295.43 738 289.9 666.31l-3-38.6c-2.93-38.05-4.4-71.8-4.4-109.93s1.47-71.89 4.4-109.93l3-38.61c5.53-71.7 60.51-128.63 129.75-134.36l37.29-3.08c36.73-3 139.73-3.24 160.27 0l37.29 3.08c69.23 5.73 124.21 62.66 129.75 134.36z" fill="#CAE0FF" /><path d="M282.85 729.45h-139.5a27.5 27.5 0 0 1 0-55h139.5a27.5 27.5 0 0 1 0 55zM282.85 361.45h-139.5a27.5 27.5 0 1 1 0-55h139.5a27.5 27.5 0 0 1 0 55z" fill="#1A5F8E" /><path d="M537.07 920.12c-37.9 0-75.81-0.92-98.92-2.77L384.08 913a215.07 215.07 0 0 1-197.27-197.23l-3.95-49.44c-3.93-49.21-5.92-99.19-5.92-148.56s2-99.35 5.92-148.56l3.95-49.43a215.07 215.07 0 0 1 197.27-197.27l49.43-4c48.73-3.89 175.4-4.44 208 0.07l48.56 3.88a215.07 215.07 0 0 1 197.26 197.32l3.95 49.43c3.92 49.07 5.92 98.9 5.93 148.12 0 49.51-2 99.64-5.93 149l-3.95 49.44A215.07 215.07 0 0 1 690.07 913L636 917.35c-23.12 1.85-61 2.77-98.93 2.77z m10.62-749.65c-41 0-85.56 1-109.79 2.92l-49.44 4a160.07 160.07 0 0 0-146.82 146.77l-3.95 49.43c-3.82 47.76-5.75 96.27-5.75 144.18s1.93 96.42 5.75 144.18l3.95 49.44a160.09 160.09 0 0 0 146.82 146.82l54.07 4.32c43.3 3.46 145.79 3.46 189.09 0l54.07-4.32a160.09 160.09 0 0 0 146.82-146.82l4-49.44c3.83-47.9 5.76-96.56 5.75-144.61 0-47.76-2-96.13-5.75-143.75l-4-49.43a160.07 160.07 0 0 0-146.82-146.82l-49.44-4c-0.65 0-1.3-0.13-1.94-0.23-11.85-1.75-47.61-2.64-86.62-2.64z" fill="#1A5F8E" /><path d="M537.43 706.9c-36.21 0-77.45-1.53-108.76-12.86-49-17.75-59.31-53.44-59.31-80.27 0-46 30-87.92 80.15-112a27.5 27.5 0 1 1 23.78 49.59c-30.64 14.7-48.93 38-48.93 62.39 0 19.29 8.73 38.13 113.07 38.13s113.07-18.82 113.07-38.11c0-24.37-18.29-47.69-48.94-62.39a27.5 27.5 0 0 1 23.78-49.59c50.19 24.06 80.16 65.93 80.16 112 0 26.83-10.29 62.52-59.31 80.27-31.31 11.31-72.55 12.84-108.76 12.84z" fill="#1A5F8E" /><path d="M537.43 563.69c-61.65 0-111.8-54.79-111.8-122.15s50.15-122.15 111.8-122.15 111.8 54.8 111.8 122.15-50.16 122.15-111.8 122.15z m0-189.3c-31.32 0-56.8 30.13-56.8 67.15s25.48 67.15 56.8 67.15 56.8-30.12 56.8-67.15-25.48-67.15-56.8-67.15z" fill="#1A5F8E" /></svg>