<svg xmlns="http://www.w3.org/2000/svg" viewBox="0 0 1024 1024" width="200" height="200"><path d="M277.333333 853.333333h469.333334v85.333334H277.333333v-85.333334zM512 170.666667c-141.376 0-256 114.624-256 256s114.624 256 256 256 256-114.624 256-256S653.376 170.666667 512 170.666667zM170.666667 426.666667c0-188.522667 152.810667-341.333333 341.333333-341.333334s341.333333 152.810667 341.333333 341.333334-152.810667 341.333333-341.333333 341.333333S170.666667 615.189333 170.666667 426.666667z" fill="#000000" /><path d="M554.666667 682.666667v256h-85.333334V682.666667h85.333334z" fill="#000000" /><path d="M512 362.666667a64 64 0 1 0 0 128 64 64 0 0 0 0-128z m-149.333333 64a149.333333 149.333333 0 1 1 298.666666 0 149.333333 149.333333 0 0 1-298.666666 0z" fill="#0078FF" /></svg>