<svg xmlns="http://www.w3.org/2000/svg" viewBox="0 0 1024 1024" width="200" height="200"><path d="M911.4 591.7h-49.1V432.3h49.1c0.3 0 0.6 0.3 0.6 0.6V591c0 0.4-0.3 0.7-0.6 0.7z" fill="#9D9D9E" /><path d="M788.1 340.4c27.8 0 50.4 22.6 50.4 50.4v242.3c0 27.8-22.6 50.4-50.4 50.4H190.9c-27.8 0-50.4-22.6-50.4-50.4V390.8c0-27.8 22.6-50.4 50.4-50.4h597.2m0-28.5H190.9c-43.5 0-78.9 35.4-78.9 78.9v242.3c0 43.5 35.4 78.9 78.9 78.9h597.2c43.5 0 78.9-35.4 78.9-78.9V390.8c0.1-43.5-35.3-78.9-78.9-78.9z" fill="#3D3939" /><path d="M717 491.3l-224.2-63.7-9.7 97S256.8 501.2 249 499.7s277.2 95 277.2 95l18.9-103.5 171.9 0.1z" fill="#B42423" /></svg>