<svg xmlns="http://www.w3.org/2000/svg" viewBox="0 0 1024 1024" width="200" height="200"><path d="M750 147.14h-10.59v30a78.18 78.18 0 0 1-78.11 78.1H349.63a78.17 78.17 0 0 1-78.11-78.1v-30H261c-49.08 0-89 41.24-89 91.89v616.21c0 50.65 39.9 91.89 89 91.89h489c49.08 0 89-41.24 89-91.89V239c-0.08-50.62-40-91.86-89-91.86z" fill="#142E4F" /><path d="M683.84 601.19H327.09a27 27 0 1 1 0-54.05h356.75a27 27 0 1 1 0 54.05zM683.84 455.24H327.09a27 27 0 1 1 0-54.05h356.75a27 27 0 1 1 0 54.05zM537.9 747.13H327.09a27 27 0 1 1 0-54H537.9a27 27 0 0 1 0 54z" fill="#FF9600" /><path d="M308.17 76.87m54.97 0l284.65 0q54.97 0 54.97 54.97l0 36.01q0 54.97-54.97 54.97l-284.65 0q-54.97 0-54.97-54.97l0-36.01q0-54.97 54.97-54.97Z" fill="#142E4F" /></svg>