<svg xmlns="http://www.w3.org/2000/svg" viewBox="0 0 1024 1024" width="200" height="200"><path d="M466.24 346.88l-32 8.32-64-227.2h68.8l48.64 179.84a32 32 0 0 1-21.44 39.04z" fill="#181818" /><path d="M416 160m-32 0a32 32 0 1 0 64 0 32 32 0 1 0-64 0Z" fill="#181818" /><path d="M672 589.76l8.32-32a32 32 0 0 1 39.36-22.72L896 583.68v64z" fill="#181818" /><path d="M422.08 647.04l-45.12 45.12A761.6 761.6 0 0 0 832 893.12v-64a700.16 700.16 0 0 1-409.92-182.08zM194.88 192h-64a762.56 762.56 0 0 0 161.92 409.28l45.44-45.44A700.48 700.48 0 0 1 194.88 192zM192 128H128c0 21.44 0 42.88 2.88 64h64C192 170.88 192 149.44 192 128zM416 360.64l82.56-22.08L480 276.8l-85.44 22.72c5.568 20.896 12.736 41.312 21.44 61.12zM416 360.64l-64 16.64a509.12 509.12 0 0 0 57.28 107.52l45.44-45.76A443.84 443.84 0 0 1 416 360.64zM649.92 674.24l16.64-62.08a445.12 445.12 0 0 1-128-79.68l-45.12 45.12a512 512 0 0 0 156.48 96.64z" fill="#181818" /><path d="M394.88 299.52l-61.76 16.64c5.056 20.8 11.456 41.184 19.2 61.12L416 360.64a425.28 425.28 0 0 1-21.12-61.12zM416 192V128h-28.8c-3.2 21.184-4.896 42.56-5.12 64zM326.08 192a329.28 329.28 0 0 1 7.04-64H180.8c0 21.44 1.6 42.816 4.8 64z" fill="#181818" /><path d="M382.08 192c0.224-21.44 1.92-42.816 5.12-64h-64a528.64 528.64 0 0 0-4.48 64zM832 829.12c21.12 1.6 42.56 2.88 64 2.88v-128a528.64 528.64 0 0 1-64 4.48zM832 644.16a470.72 470.72 0 0 0 64-4.16v-32h-64z" fill="#181818" /><path d="M832 708.16a528.64 528.64 0 0 0 64-4.16v-64a470.72 470.72 0 0 1-64 5.12zM832 893.12c21.12 1.6 42.56 2.88 64 2.88v-64c-21.44 0-42.88 0-64-2.88zM751.04 544l-62.08-16.64-22.4 84.16c19.872 7.872 40.32 14.304 61.12 19.2z" fill="#181818" /><path d="M711.04 693.12l16.64-61.76a437.44 437.44 0 0 1-61.12-19.2l-16.64 62.08a563.2 563.2 0 0 0 61.12 18.88zM448 532.16l-69.76 69.76c14.496 15.776 29.536 30.816 45.12 45.12l69.76-69.44A549.44 549.44 0 0 1 448 532.16zM536.96 532.48L918.72 150.72 873.28 105.28 491.52 487.04a435.2 435.2 0 0 0 45.44 45.44zM331.84 647.04L105.28 873.28l45.44 45.44 226.24-226.56c-16.64-13.44-31.68-28.48-45.12-45.12z" fill="#181818" /><path d="M376.96 601.92l-45.12 45.12c14.496 15.776 29.536 30.816 45.12 45.12l45.12-45.12a643.04 643.04 0 0 1-45.12-45.12zM491.84 577.6l45.12-45.12a435.2 435.2 0 0 1-45.44-45.44L448 532.16c13.76 16 28.352 31.136 43.84 45.44z" fill="#181818" /></svg>