<svg xmlns="http://www.w3.org/2000/svg" viewBox="0 0 1024 1024" width="200" height="200"><path d="M870.4 791.272727c20.945455-27.927273 32.581818-60.509091 32.581818-95.418182 0-88.436364-72.145455-160.581818-160.581818-160.581818S581.818182 607.418182 581.818182 695.854545s72.145455 160.581818 160.581818 160.581819c34.909091 0 67.490909-11.636364 95.418182-32.581819l76.8 76.8c4.654545 4.654545 11.636364 6.981818 16.290909 6.981819s11.636364-2.327273 16.290909-6.981819c9.309091-9.309091 9.309091-23.272727 0-32.581818L870.4 791.272727z m-55.854545-6.981818c-20.945455 16.290909-46.545455 25.6-72.145455 25.6-62.836364 0-114.036364-51.2-114.036364-114.036364s51.2-114.036364 114.036364-114.036363 114.036364 51.2 114.036364 114.036363c0 34.909091-16.290909 65.163636-41.890909 88.436364zM384 300.218182c0-44.218182-37.236364-81.454545-81.454545-81.454546S221.090909 256 221.090909 300.218182s37.236364 81.454545 81.454546 81.454545 81.454545-34.909091 81.454545-81.454545z m-139.636364 0c0-32.581818 25.6-58.181818 58.181819-58.181818s58.181818 25.6 58.181818 58.181818-25.6 58.181818-58.181818 58.181818-58.181818-25.6-58.181819-58.181818zM886.690909 93.090909H137.309091C100.072727 93.090909 69.818182 123.345455 69.818182 160.581818v656.290909C69.818182 854.109091 100.072727 884.363636 137.309091 884.363636H558.545455c13.963636 0 23.272727-9.309091 23.272727-23.272727s-9.309091-23.272727-23.272727-23.272727H137.309091c-11.636364 0-20.945455-9.309091-20.945455-20.945455V160.581818c0-11.636364 9.309091-20.945455 20.945455-20.945454h749.381818c11.636364 0 20.945455 9.309091 20.945455 20.945454V558.545455c0 13.963636 9.309091 23.272727 23.272727 23.272727s23.272727-9.309091 23.272727-23.272727V160.581818C954.181818 123.345455 923.927273 93.090909 886.690909 93.090909zM190.836364 714.472727c2.327273 0 4.654545 2.327273 4.654545 2.327273 4.654545 0 6.981818-2.327273 9.309091-6.981818l95.418182-172.218182c20.945455-39.563636 72.145455-53.527273 111.709091-32.581818l46.545454 25.6c48.872727 27.927273 118.690909 13.963636 153.6-30.254546l69.818182-86.109091c16.290909-20.945455 48.872727-51.2 90.763636-23.272727 23.272727 16.290909 44.218182 44.218182 44.218182 44.218182 4.654545 4.654545 11.636364 6.981818 16.290909 2.327273 4.654545-4.654545 6.981818-11.636364 2.327273-16.290909 0-2.327273-23.272727-32.581818-48.872727-48.872728-39.563636-25.6-83.781818-16.290909-121.018182 27.927273l-69.818182 86.109091c-27.927273 34.909091-86.109091 46.545455-125.672727 25.6l-46.545455-25.6c-51.2-27.927273-114.036364-9.309091-141.963636 41.890909L186.181818 700.509091c-2.327273 4.654545 0 11.636364 4.654546 13.963636z" fill="#000000" /></svg>