<svg xmlns="http://www.w3.org/2000/svg" viewBox="0 0 1024 1024" width="200" height="200"><path d="M955.58163 68.039111a37.660444 37.660444 0 0 0-30.72-10.619259l-229.072593 23.893333c-9.860741 0.758519-18.583704 5.30963-24.651852 12.515556L302.26963 516.475259l-60.453926-60.453926a37.774222 37.774222 0 0 0-53.475556 0 116.508444 116.508444 0 0 0 0 165.357037L235.52 668.634074l-152.993185 152.993185a85.067852 85.067852 0 0 0 0 120.604445 86.091852 86.091852 0 0 0 120.604444 0l152.917334-152.879408 52.641185 52.754963a117.115259 117.115259 0 0 0 165.357037 0c14.791111-14.791111 14.791111-39.063704 0-53.854815l-67.242667-67.280592 422.608593-368.867556c7.205926-6.068148 11.757037-14.791111 12.515555-24.272592l24.272593-228.693334c1.517037-11.377778-2.654815-22.755556-10.619259-31.099259z" fill="#000000" /></svg>