<svg xmlns="http://www.w3.org/2000/svg" viewBox="0 0 1024 1024" width="200" height="200"><path d="M133.6 585.4l9-29s1-9 20.5-6 71 18.5 105.7 7c34.8-11.5 40.8-13.5 40.8-13.5s14.5 60.9 34 66c19.5 5.1 110.7 6.1 110.7 6.1s105.8 0.4 115.8-6.1c10-6.4 16.5-18.5 16.5-18.5l-16.5-51.5 315.6 2s9 1 11 9.5 11.1 34.5 11.1 34.5-3.4 20.5-61.3 31.5-400 24.5-400 24.5-180.4 0-206-8c-25.4-8-98.4-23.5-106.9-48.5z" fill="#395B4A" /><path d="M285.9 480s0.1 16.3 5.6 24.5 13.2 18.3 13.2 18.3-2.5 17.9 6.1 34.9 11.7 48.5 31.1 54.2c19.4 5.7 210.6 10 224.4 1.9l13.8-8.1 9.3-12.5s-12.2-42.8-22.9-67.2c-10.7-24.5-26-66.2-37.7-73.9l-55-73.7L285.9 480z" fill="#B2A38E" /><path d="M285.9 480s2.7 40.8 18.8 42.8l192.4-113.3-23.3-31.2L285.9 480z" fill="#BD413F" /></svg>