<svg xmlns="http://www.w3.org/2000/svg" viewBox="0 0 1024 1024" width="200" height="200"><path d="M0 0h1024v1024H0z" fill="#FFFFFF" /><path d="M842.752 148.616533c37.205333 0 67.345067 30.173867 67.345067 67.345067v448.9216c0 37.205333-30.139733 67.310933-67.345067 67.310933H493.090133l-154.282666 101.137067a22.459733 22.459733 0 0 1-34.747734-18.773333V732.16h-89.770666a67.345067 67.345067 0 0 1-67.345067-67.310933V215.9616c0-37.205333 30.139733-67.345067 67.345067-67.345067H842.752z m-285.4912 291.805867H371.370667v67.345067h185.856v-67.345067z m128.375467-134.690133h-314.231467v67.345066h314.231467V305.732267z" fill="#F95A42" /></svg>