<svg xmlns="http://www.w3.org/2000/svg" viewBox="0 0 1024 1024" width="200" height="200"><path d="M631.04 25.6v51.2a25.6 25.6 0 0 1-25.6 25.6H102.4v819.2h819.2V496.384a25.6 25.6 0 0 1 25.6-25.6h51.2a25.6 25.6 0 0 1 25.6 25.6V972.8a51.2 51.2 0 0 1-47.36 51.2H51.2a51.2 51.2 0 0 1-51.2-47.36V51.2A51.2 51.2 0 0 1 47.36 0h558.08a25.6 25.6 0 0 1 25.6 25.6z" fill="#333333" /><path d="M411.072 559.744l479.68-480a17.024 17.024 0 0 1 27.2 0l45.248 45.248a17.024 17.024 0 0 1 0 27.2l-480 480a16.96 16.96 0 0 1-27.136 0l-44.992-45.312a16.96 16.96 0 0 1 0-27.136z" fill="#1B8CF6" /></svg>