<svg xmlns="http://www.w3.org/2000/svg" viewBox="0 0 1024 1024" width="200" height="200"><path d="M469.333333 213.333333c0-23.552-19.2-42.922667-42.581333-40.32a384 384 0 1 0 424.234667 424.234667c2.56-23.424-16.768-42.581333-40.32-42.581333h-170.325334c-23.552 0-42.026667 19.626667-49.706666 41.898666a128.298667 128.298667 0 1 1-163.2-163.2c22.272-7.68 41.898667-26.154667 41.898666-49.706666V213.333333z" fill="#000000" /><path d="M896 469.333333c23.552 0 42.922667-19.2 40.32-42.581333a383.872 383.872 0 0 0-339.072-339.072C573.824 85.12 554.666667 104.448 554.666667 128v170.325333c0 23.552 19.626667 42.026667 41.898666 49.706667a128.810667 128.810667 0 0 1 48.853334 30.549333 128.298667 128.298667 0 0 1 30.549333 48.853334c7.68 22.272 26.154667 41.898667 49.706667 41.898666H896z" fill="#9F9F9F" /></svg>