<svg xmlns="http://www.w3.org/2000/svg" viewBox="0 0 1024 1024" width="200" height="200"><path d="M120.427 204.693a70.08 70.08 0 1 0 140.16 0 70.08 70.08 0 1 0-140.16 0zM120.427 512.213a70.08 70.08 0 1 0 140.16 0 70.08 70.08 0 1 0-140.16 0zM120.427 819.84a70.08 70.08 0 1 0 140.16 0 70.08 70.08 0 1 0-140.16 0zM443.307 204.693a70.08 70.08 0 1 0 140.16 0 70.08 70.08 0 1 0-140.16 0zM443.307 512.213a70.08 70.08 0 1 0 140.16 0 70.08 70.08 0 1 0-140.16 0zM443.307 819.84a70.08 70.08 0 1 0 140.16 0 70.08 70.08 0 1 0-140.16 0zM763.947 204.693a70.08 70.08 0 1 0 140.16 0 70.08 70.08 0 1 0-140.16 0zM763.947 512.213a70.08 70.08 0 1 0 140.16 0 70.08 70.08 0 1 0-140.16 0zM763.947 819.84a70.08 70.08 0 1 0 140.16 0 70.08 70.08 0 1 0-140.16 0z" fill="#0070C0" /></svg>