<svg xmlns="http://www.w3.org/2000/svg" viewBox="0 0 1024 1024" width="200" height="200"><path d="M460.8 565.248c-7.68 0-14.848-3.072-20.48-8.704L357.376 473.6c-11.264-11.264-11.264-30.208 0-41.472 11.264-11.264 30.208-11.264 41.472 0L481.28 515.072c11.264 11.264 11.264 30.208 0 41.472C475.648 562.176 468.48 565.248 460.8 565.248zM460.8 565.248c-7.68 0-14.848-3.072-20.48-8.704-11.264-11.264-11.264-30.208 0-41.472l165.888-165.888c11.264-11.264 30.208-11.264 41.472 0 11.264 11.264 11.264 30.208 0 41.472L481.28 556.544C475.648 562.176 468.48 565.248 460.8 565.248zM502.272 906.24c-16.384 0-29.184-13.312-29.184-29.184l0-171.008c0-16.384 13.312-29.184 29.184-29.184s29.184 13.312 29.184 29.184l0 171.008C531.456 892.928 518.656 906.24 502.272 906.24zM819.712 740.864l-229.376 0c-16.384 0-29.184-13.312-29.184-29.184s13.312-29.184 29.184-29.184l229.376 0c8.192 0 14.848-6.656 14.848-14.848l0-424.96c0-8.192-6.656-14.848-14.848-14.848L204.288 227.84c-8.192 0-14.848 6.656-14.848 14.848l0 424.96c0 8.192 6.656 14.848 14.848 14.848l212.48 0c16.384 0 29.184 13.312 29.184 29.184s-13.312 29.184-29.184 29.184L204.288 740.864c-40.448 0-73.216-32.768-73.216-73.216l0-424.96c0-40.448 32.768-73.216 73.216-73.216l615.424 0c40.448 0 73.216 32.768 73.216 73.216l0 424.96C892.928 708.096 860.16 740.864 819.712 740.864z" fill="#000000" /></svg>