<svg xmlns="http://www.w3.org/2000/svg" viewBox="0 0 1038 1024" width="200" height="200"><path d="M408.405333 174.933333l32.284445 90.410667 284.259555 0.682667a71.111111 71.111111 0 0 1 70.940445 71.111111V660.053333a71.111111 71.111111 0 0 1-71.111111 71.111111H195.356444a71.111111 71.111111 0 0 1-71.111111-71.111111V246.684444a71.111111 71.111111 0 0 1 70.897778-71.111111l213.262222-0.64z m-58.069333 82.645334l-143.587556 0.440889V648.675556h506.652445V348.472889l-330.894222-0.782222-32.170667-90.112z" fill="#000000" /><path d="M921.088 381.582222V736.711111a112.355556 112.355556 0 0 1-108.856889 112.298667l-3.498667 0.056889H285.696v-82.488889h523.036444a29.866667 29.866667 0 0 0 29.795556-27.733334l0.071111-2.133333V381.582222h82.488889z" fill="#FF7000" /></svg>