<svg xmlns="http://www.w3.org/2000/svg" viewBox="0 0 1024 1024" width="200" height="200"><path d="M913.6 272.58l-0.36-13.82c-11.77-16.38-6.9-25.24-23.28-13.46L512.01 516.72 145.25 254.03c-16.38-11.77-12.24-9.83-24.01 6.55l-6.91 12.01c-11.77 16.38 0.19 48.42 16.57 60.2l359.41 258.32a36.34 36.34 0 0 0 21.32 6.86h0.74c7.39 0 14.85-2.22 21.32-6.86L893.1 332.79c16.38-11.78 32.27-43.81 20.5-60.2z" fill="#4F95FC" /><path d="M848.65 867.58h-673.3c-50.36 0-91.33-40.97-91.33-91.33v-528.5c0-50.36 40.97-91.33 91.33-91.33h673.3c50.36 0 91.33 40.97 91.33 91.33v528.5c0 50.36-40.97 91.33-91.33 91.33z m-673.3-638.09c-10.07 0-18.27 8.19-18.27 18.27v528.49c0 10.07 8.2 18.27 18.27 18.27h673.3c10.07 0 18.27-8.2 18.27-18.27v-528.5c0-10.07-8.19-18.27-18.27-18.27h-673.3z" fill="#474747" /></svg>