<svg xmlns="http://www.w3.org/2000/svg" viewBox="0 0 1024 1024" width="200" height="200"><path d="M512 950.857143C269.622857 950.857143 73.142857 754.377143 73.142857 512S269.622857 73.142857 512 73.142857s438.857143 196.48 438.857143 438.857143-196.48 438.857143-438.857143 438.857143z m-4.004571-561.28h284.708571c18.870857 0 32.146286-12.013714 32.146286-29.988572 0-18.450286-13.275429-30.445714-32.128-30.445714h-284.708572C489.142857 329.142857 475.428571 341.138286 475.428571 359.570286c0 17.993143 13.714286 29.988571 32.566858 29.988571z m53.723428 141.860571h231.003429c18.834286 0 32.128-12.013714 32.128-30.006857 0-18.432-13.275429-30.427429-32.128-30.427428H561.718857c-18.852571 0-32.146286 11.995429-32.146286 30.427428 0 17.993143 13.293714 29.988571 32.146286 29.988572z m59.282286 141.842286h171.282286c18.852571 0 32.566857-11.995429 32.566857-29.988571 0-18.432-13.714286-30.427429-32.548572-30.427429H620.982857c-18.852571 0-32.566857 11.995429-32.566857 30.427429 0 17.993143 13.714286 29.988571 32.548571 29.988571z m-251.684572 97.28c9.435429 0 16.274286-3.419429 24.868572-11.995429l145.700571-144.859428c5.577143-5.558857 8.155429-13.275429 8.155429-22.272 0-17.572571-13.293714-30.866286-30.866286-30.866286-8.996571 0-17.133714 3.437714-22.710857 9.435429l-53.138286 53.577143-43.282285 51.419428 3.419428-90.422857V306.432c0-18.852571-13.293714-32.146286-32.146286-32.146286-18.432 0-32.146286 13.275429-32.146285 32.146286v278.125714l3.437714 90.88L297.325714 623.542857l-53.138285-53.577143c-5.577143-6.4-13.293714-9.417143-22.729143-9.417143-17.554286 0-31.268571 13.293714-31.268572 30.866286 0 8.996571 2.980571 16.713143 8.996572 22.272l144.841143 144.859429c8.594286 8.155429 15.872 12.013714 25.289142 12.013714z" fill="#000000" /></svg>