<svg xmlns="http://www.w3.org/2000/svg" viewBox="0 0 1024 1024" width="200" height="200"><path d="M512 1024c282.784 0 512-229.216 512-512s-229.216-512-512-512-512 229.216-512 512 229.216 512 512 512zM512 96c229.76 0 416 186.24 416 416s-186.24 416-416 416-416-186.24-416-416 186.24-416 416-416zM542.752 711.04c140.256-27.712 249.12-91.552 288.448-176.608-21.664 167.968-161.504 297.568-330.848 297.568-119.232 0-223.872-64.288-282.88-160.96 70.4 55.072 194.528 65.792 325.28 39.968zM640 352c0-53.024 28.64-96 64-96s64 42.976 64 96c0 53.024-28.64 96-64 96s-64-42.976-64-96zM352 371.488c-41.792 0-77.344 15.648-90.528 37.504-3.552-5.856-5.472-32.16-5.472-38.752 0-31.072 42.976-56.256 96-56.256s96 25.184 96 56.256c0 6.592-1.952 32.896-5.472 38.752-13.184-21.856-48.704-37.504-90.528-37.504z" fill="#444444" /></svg>