<svg xmlns="http://www.w3.org/2000/svg" viewBox="0 0 1024 1024" width="200" height="200"><path d="M437.6064 499.2c-27.0336-16.5888-47.9232-35.584-63.8976-59.7504-57.8048-87.3472-37.4272-224.8192 66.816-277.9648 65.1264-33.1776 148.48-15.9744 196.5056 42.8032 52.3776 64.1536 62.3104 134.7584 28.8256 211.2-13.3632 30.5152-31.7952 56.6272-59.3408 75.776-2.0992 1.4336-3.9936 3.2256-5.888 4.9152-0.512 0.4608-0.768 1.2288-1.9456 3.328 6.1952 1.4848 12.032 2.7136 17.7664 4.352 71.5776 20.48 131.5328 57.4464 172.9024 121.1904 23.04 35.5328 37.5296 74.4448 44.1856 115.9168 4.7616 29.8496 7.168 60.2112 8.8576 90.4192 1.4336 25.9584-11.776 41.1136-39.3728 49.2544-34.048 10.0864-69.2224 11.3664-104.2432 12.2368-134.912 3.2768-269.824 4.4032-404.6848-2.0992-20.992-1.024-42.1376-5.0688-62.5664-10.1888-29.952-7.5264-40.3456-23.7056-39.424-54.4256 1.1776-39.936 5.0176-79.4112 16.384-117.9648 29.0816-98.8672 92.5696-164.608 189.7984-198.0416 6.1952-2.1504 12.4416-4.2496 18.7904-6.0416 5.7856-1.6896 11.776-2.8672 20.5312-4.9152z" fill="#505587" /><path d="M333.8752 194.9696c-56.4736 97.024-53.4016 192.8704 6.5024 288.5632-126.6688 62.1056-182.7328 170.8544-198.4 306.4832-23.4496 0.5632-46.6944 1.4336-67.7376-9.1648-7.2192-3.6352-15.616-12.5952-16.384-19.8656-2.5088-24.5248-4.8128-49.7152-1.792-73.984 8.448-68.608 38.9632-126.5152 92.0064-171.6736 25.344-21.5552 54.272-36.9152 86.1696-46.4896 3.4304-1.024 6.8608-2.1504 12.2368-3.7888-37.1712-20.5824-61.2352-49.92-72.7552-89.1904-11.5712-39.4752-7.424-77.568 11.9296-113.6128 30.3616-56.576 91.9552-84.224 148.224-67.2768zM687.7184 483.4816c61.6448-96.512 61.3376-193.0752 6.2976-291.5328 28.5696-8.6528 56.3712-6.6048 82.8416 6.656 49.5104 24.832 76.8 65.8944 80.896 120.576 4.2496 56.4736-16.0256 103.0656-62.976 136.6016-4.4032 3.1232-9.472 5.376-15.2576 8.6016 2.7648 1.4336 4.6592 2.7648 6.8096 3.4816 104.2944 35.072 162.7648 109.6192 183.1424 215.4496 4.5056 23.2448 3.2768 47.872 2.7136 71.7824-0.4096 16.0256-11.4176 26.4704-26.7264 29.3888-19.1488 3.6864-38.7072 5.12-59.3408 7.68-14.1824-138.1376-71.168-246.1696-198.4-308.6848z" fill="#505587" /></svg>