<svg xmlns="http://www.w3.org/2000/svg" viewBox="0 0 1024 1024" width="200" height="200"><path d="M512 142.6L136 379.9V888h752V379.9L512 142.6zM724 788c0 19.9-16.1 36-36 36H336c-19.9 0-36-16.1-36-36s16.1-36 36-36h352c19.9 0 36 16.1 36 36z" fill="#FFEB3B" /><path d="M926.4 319l-376-237.3c-23.3-14.7-53.5-14.7-76.9 0L97.6 319c-21 13.3-33.6 36-33.6 60.9V888c0 39.7 32.3 72 72 72h752c39.7 0 72-32.3 72-72V379.9c0-24.9-12.6-47.7-33.6-60.9zM136 379.9l376-237.3 376 237.3V888H136V379.9z" fill="#FF9800" /><path d="M688 752H336c-19.9 0-36 16.1-36 36s16.1 36 36 36h352c19.9 0 36-16.1 36-36s-16.1-36-36-36z" fill="#FF5722" /></svg>