<svg xmlns="http://www.w3.org/2000/svg" viewBox="0 0 1024 1024" width="200" height="200"><path d="M506.06 485.16c-30.03 0-60.06-6.89-87.47-20.67l-32.96-16.58c-1.31-0.66-3.21-0.72-4.61-0.12l-44.45 18.39c-65.78 27.24-143.86 13.79-194.24-33.47l-12.58-11.79c-60.73-56.95 6.63-203.59 28.72-247.17 18.32-37.88 59.74-62.65 105.27-62.65H755.1c46.36 0 87.92 25.3 106.18 64.55 22.18 41.62 88.7 177.73 45.36 236.42-44.16 59.79-126.71 84.12-200.72 59.08l-72.99-24.66c-1.4-0.46-3.09-0.36-4.33 0.24l-34.58 17.53c-27.53 13.93-57.75 20.89-87.96 20.9zM807.54 903.3H209.73c-47.23 0-85.52-38.29-85.52-85.52V644.37c0-47.23 38.29-85.52 85.52-85.52h597.81c47.23 0 85.52 38.29 85.52 85.52v173.42c0 47.23-38.29 85.51-85.52 85.51z" fill="#000000" /></svg>