<svg xmlns="http://www.w3.org/2000/svg" viewBox="0 0 1024 1024" width="200" height="200"><path d="M153.77 802.63L363.88 197.9a65.89 65.89 0 0 1 78.18-42.34c113.17 28.25 356.28 126.38 452.31 456.5a65.9 65.9 0 0 1-46.23 82L211.79 865c-37.35 10-70.71-25.83-58.02-62.37z" fill="#FFD0A1" /><path d="M147.22 819l216.13-622S756 228.09 854.55 692.24L194.29 869.61c-30.29 8.14-57.36-20.94-47.07-50.61z" fill="#FFE3C5" /><path d="M144.23 828.1L334 281.94s344.78 27.29 431.29 434.83L185.55 872.51c-26.55 7.15-50.36-18.39-41.32-44.41z" fill="#FFB05A" /><path d="M487 612m-102 0a102 102 0 1 0 204 0 102 102 0 1 0-204 0Z" fill="#FC6257" /><path d="M200.62 664.38a65 65 0 1 1-42.48 122.86c7-22.44 15.56-42.9 21.24-61.43z" fill="#FC6257" /></svg>