<svg xmlns="http://www.w3.org/2000/svg" viewBox="0 0 1024 1024" width="200" height="200"><path d="M309.2 951c-4.9 0-9.7-1.9-13.3-5.5L103.7 753.2c-3.7-3.7-5.6-8.6-5.5-13.5V117.1c0-10.4 8.4-18.9 18.9-18.9h792.1c10.4 0 18.9 8.4 18.9 18.9v622.4c0 10.4-8.4 18.9-18.9 18.9H328.1v173.8c0 7.6-4.6 14.5-11.6 17.4-2.4 0.9-4.8 1.4-7.3 1.4zM135.8 732.1l154.5 154.5V739.5c0-10.4 8.4-18.9 18.9-18.9h581.1V135.9H135.8v596.2z" fill="#2E3742" /><path d="M767.7 350.1H277.3c-10.4 0-18.9-8.4-18.9-18.9 0-10.4 8.4-18.9 18.9-18.9h490.4c10.4 0 18.9 8.4 18.9 18.9-0.1 10.5-8.5 18.9-18.9 18.9zM767.7 508.6H277.3c-10.4 0-18.9-8.4-18.9-18.9 0-10.4 8.4-18.9 18.9-18.9h490.4c10.4 0 18.9 8.4 18.9 18.9-0.1 10.5-8.5 18.9-18.9 18.9z" fill="#2E3742" /></svg>