<svg xmlns="http://www.w3.org/2000/svg" viewBox="0 0 1024 1024" width="200" height="200"><path d="M926.2 258.1l0.2-0.2-162-190.3H170.7c-41.1 0-74.6 33.5-74.6 74.6v744.3c0 41.1 33.5 74.6 74.6 74.6H852c41.1 0 74.6-33.5 74.6-74.6V258.1h-0.4z m-83.7 0h-66.1c-5.8 0-10.5-4.7-10.6-10.5l-0.6-80.4 77.3 90.9z m20.1 628.4c0 5.8-4.7 10.6-10.6 10.6H170.7c-5.8 0-10.6-4.7-10.6-10.6V142.2c0-5.8 4.7-10.6 10.6-10.6h530.1l0.9 116.5c0.3 40.8 33.8 74 74.6 74h86.2v564.4z" fill="#9F9F9F" /><path d="M289.1 319.1h126.5c17.7 0 32-14.3 32-32s-14.3-32-32-32H289.1c-17.7 0-32 14.3-32 32s14.3 32 32 32zM736.8 448.6H289.1c-17.7 0-32 14.3-32 32s14.3 32 32 32h447.7c17.7 0 32-14.3 32-32s-14.3-32-32-32zM736.8 640.6H289.1c-17.7 0-32 14.3-32 32s14.3 32 32 32h447.7c17.7 0 32-14.3 32-32s-14.3-32-32-32z" fill="#9F9F9F" /></svg>