<svg xmlns="http://www.w3.org/2000/svg" viewBox="0 0 1024 1024" width="200" height="200"><path d="M512.030402 232.946751a268.784713 268.784713 0 0 0-198.388717 81.915341A269.424676 269.424676 0 0 0 231.08638 511.970882a269.424676 269.424676 0 0 0 81.915341 198.388716A268.784713 268.784713 0 0 0 512.030402 793.554867a266.864822 266.864822 0 0 0 197.748753-81.915341A267.504786 267.504786 0 0 0 791.694496 511.970882a267.504786 267.504786 0 0 0-82.555305-198.388717A266.864822 266.864822 0 0 0 512.030402 232.946751z m120.95312 287.983621L465.953022 627.16433a22.398726 22.398726 0 0 1-11.519345 0 20.478835 20.478835 0 0 1-10.239417 0 21.758762 21.758762 0 0 1-10.879381-18.558944v-211.187989a21.118799 21.118799 0 0 1 32.638143-17.918981l166.390537 105.593994a22.398726 22.398726 0 0 1 9.599454 17.918981 21.118799 21.118799 0 0 1-9.599454 17.918981z" fill="#4A4A4A" /><path d="M871.689946 152.311337A511.970882 511.970882 0 0 0 691.22021 34.558035a533.089681 533.089681 0 0 0-360.299508 0 511.970882 511.970882 0 0 0-180.469736 117.753302A494.051901 494.051901 0 0 0 0.05952 511.970882a491.492046 491.492046 0 0 0 149.111519 360.299508A492.13201 492.13201 0 0 0 512.030402 1023.941763a490.212119 490.212119 0 0 0 360.299508-149.751483A491.492046 491.492046 0 0 0 1024.001283 511.970882a494.051901 494.051901 0 0 0-152.311337-359.659545z m-132.472466 589.406478A312.302238 312.302238 0 0 1 512.030402 836.432428a312.942201 312.942201 0 0 1-228.467006-94.714613A312.942201 312.942201 0 0 1 188.208819 511.970882a312.942201 312.942201 0 0 1 94.714613-227.187079A312.942201 312.942201 0 0 1 512.030402 191.989081a312.302238 312.302238 0 0 1 227.827042 94.714613A312.942201 312.942201 0 0 1 832.012203 511.970882a312.942201 312.942201 0 0 1-92.794723 229.746933z" fill="#4A4A4A" /></svg>