<svg xmlns="http://www.w3.org/2000/svg" viewBox="0 0 1024 1024" width="200" height="200"><path d="M717.312 590.882133l-277.845333-277.845333c45.294933-49.834667 40.5504-123.972267-4.096-168.618667a122.5728 122.5728 0 0 0-172.714667 0 122.197333 122.197333 0 0 0-35.498667 89.429334c-31.061333-1.365333-64.853333 11.264-89.088 35.157333a122.9824 122.9824 0 0 0 0 173.056c44.714667 44.714667 121.856 46.421333 168.277334 4.437333l277.504 277.504a123.050667 123.050667 0 0 0 4.437333 168.277334c47.547733 47.581867 126.2592 47.104 172.714667 0 23.210667-22.869333 35.84-53.589333 36.181333-86.016v-2.730667c32.426667-0.341333 64.853333-12.288 88.746667-35.84a122.5728 122.5728 0 0 0 0-172.714667 122.4704 122.4704 0 0 0-168.618667-4.096zM906.24 260.642133h-2.730667c-17.885867 0-33.792-11.195733-39.765333-28.023466a127.965867 127.965867 0 0 0-5.051733-12.1856 42.120533 42.120533 0 0 1 8.260266-47.9232l2.048-2.048c5.973333-5.973333 5.973333-15.7696 0-21.742934s-15.7696-5.973333-21.7088 0l-2.048 2.048c-12.629333 12.629333-31.812267 15.940267-47.957333 8.260267a126.395733 126.395733 0 0 0-12.151467-5.051733 42.120533 42.120533 0 0 1-28.0576-39.7312v-2.730667c0-8.430933-6.8608-15.291733-15.291733-15.291733s-15.325867 6.8608-15.325867 15.291733v2.730667c0 18.363733-12.117333 33.962667-29.354666 40.311466a124.8256 124.8256 0 0 0-9.454934 3.8912c-16.6912 7.714133-36.2496 5.256533-49.2544-7.748266l-1.9456-1.979734a15.428267 15.428267 0 0 0-21.742933 0 15.428267 15.428267 0 0 0 0 21.742934l1.9456 1.979733c12.936533 12.970667 15.394133 32.494933 7.714133 49.152a128.9216 128.9216 0 0 0-4.096 9.728c-6.280533 17.237333-21.9136 29.354667-40.277333 29.354667h-2.6624a15.36 15.36 0 0 0-15.291733 15.291733 15.36 15.36 0 0 0 15.291733 15.291733h2.730667c17.885867 0 33.792 11.229867 39.765333 28.0576 1.467733 4.096 3.140267 8.192 5.0176 12.151467a42.120533 42.120533 0 0 1-8.260267 47.9232l-1.877333 1.911467a15.428267 15.428267 0 0 0 0 21.742933c6.144 5.802667 15.394133 6.007467 21.742933 0l2.048-2.048c12.629333-12.629333 31.812267-15.940267 47.957334-8.260267 3.8912 1.877333 7.918933 3.549867 12.014933 4.983467 16.7936 6.007467 27.989333 21.879467 27.989333 39.7312v2.935467a15.36 15.36 0 0 0 30.6176 0v-2.901334c0-17.851733 11.229867-33.757867 28.0576-39.7312 4.130133-1.467733 8.192-3.140267 12.151467-5.0176a42.120533 42.120533 0 0 1 47.9232 8.260267l2.048 2.048a15.530667 15.530667 0 0 0 21.742933 0 15.428267 15.428267 0 0 0 0-21.742933l-1.911466-1.9456c-13.0048-12.970667-15.4624-32.597333-7.748267-49.288534a124.928 124.928 0 0 0 3.959467-9.489066c6.314667-17.237333 21.9136-29.320533 40.277333-29.320534h2.628267a15.36 15.36 0 0 0 15.325866-15.291733 15.36 15.36 0 0 0-15.325866-15.325867z" fill="#000000" /></svg>