<svg xmlns="http://www.w3.org/2000/svg" viewBox="0 0 1024 1024" width="200" height="200"><path d="M558.053 749.726l52.354-130.465L769.811 539v-62.477c-122.568 0-225.886 84.168-257.55 198.992C480.602 560.69 377.284 476.523 254.716 476.523V539l159.403 80.261 43.962 130.465h99.973z" fill="#6DFFC0" /><path d="M251.889 531.758c-9.941 0-18 8.06-18 18 0 9.941 8.059 18 18 18 108.235 0 195.81 85.586 195.81 190.952 0 9.94 8.06 18 18 18l1.065-0.031 1.064 0.03h90.225c9.942 0 18-8.058 18-18 0-9.356-7.138-17.045-16.266-17.917l-1.734-0.082-75.071-0.002c-9.374-117.005-109.339-208.95-231.093-208.95z" fill="#4B4668" /><path d="M771.864 531.758c-127.934 0-231.81 101.516-231.81 226.952 0 9.94 8.058 18 18 18 9.94 0 18-8.06 18-18 0-105.366 87.575-190.952 195.81-190.952 9.941 0 18-8.059 18-18 0-9.94-8.059-18-18-18z" fill="#4B4668" /><path d="M240.916 317.839m1.5 0l537.776 0q1.5 0 1.5 1.5l0 34.007q0 1.5-1.5 1.5l-537.776 0q-1.5 0-1.5-1.5l0-34.007q0-1.5 1.5-1.5Z" fill="#4B4668" /><path d="M285.034 251h452.54c29.824 0 54 24.177 54 54v116.685H231.034V305c0-28.971 22.815-52.614 51.458-53.941L285.034 251z m0 36c-9.941 0-18 8.059-18 18v80.685h488.54V305c0-9.941-8.059-18-18-18H285.034z" fill="#4B4668" /><path d="M230.224 399.032v149.46c0 9.94 8.059 18 18 18 9.94 0 18-8.06 18-18v-149.46c0-9.942-8.06-18-18-18-9.941 0-18 8.058-18 18zM756.613 398.487v149.46c0 9.94 8.059 18 18 18s18-8.06 18-18v-149.46c0-9.942-8.059-18-18-18s-18 8.058-18 18z" fill="#4B4668" /><path d="M178.657 915.315c40.68 0 73.658-32.978 73.658-73.658S219.337 768 178.657 768 105 800.978 105 841.657c0 40.68 32.978 73.658 73.657 73.658z m0-40.177c-18.49 0-33.48-14.99-33.48-33.48 0-18.491 14.99-33.481 33.48-33.481 18.491 0 33.481 14.99 33.481 33.48 0 18.491-14.99 33.481-33.48 33.481z" fill="#B5FFDF" /><path d="M204.86 103.5c11.094 0 20.088 8.994 20.088 20.088v13.393h13.393c11.094 0 20.088 8.993 20.088 20.088s-8.994 20.088-20.088 20.088h-13.393v13.393c0 11.094-8.994 20.088-20.088 20.088-11.095 0-20.088-8.994-20.088-20.088l-0.014-13.393H171.38c-11.094 0-20.088-8.993-20.088-20.088s8.994-20.088 20.088-20.088h13.393v-13.393c0-11.094 8.993-20.088 20.088-20.088zM854.384 812.517c11.095 0 20.088 8.994 20.088 20.089v13.392h13.393c11.094 0 20.088 8.994 20.088 20.088 0 11.095-8.994 20.089-20.088 20.089h-13.393v13.392c0 11.095-8.993 20.088-20.088 20.088-11.094 0-20.088-8.993-20.088-20.088l-0.014-13.392h-13.379c-11.094 0-20.088-8.994-20.088-20.089 0-11.094 8.994-20.088 20.088-20.088h13.393v-13.392c0-11.095 8.994-20.089 20.088-20.089z" fill="#6DFFC0" opacity=".366" /></svg>