<svg xmlns="http://www.w3.org/2000/svg" viewBox="0 0 1024 1024" width="200" height="200"><path d="M512.71 76.61s56.24-5.17 66.04 54.51v315.25s-0.23 40.24-35.24 54.2v428.99c0 9.63-7.81 17.44-17.44 17.44H490c-9.63 0-17.44-7.81-17.44-17.44v-419.7s0.58-19.51 14-17.05" fill="#F3D7D6" /><path d="M503.72 503.48c-31.41 0-57.11-25.7-57.11-57.11v-312.5c0-31.41 25.7-57.11 57.11-57.11s57.11 25.7 57.11 57.11v312.5c0 31.41-25.7 57.11-57.11 57.11z" fill="#575759" /><path d="M481.61 599.9a10.85 18.21 0 1 0 21.7 0 10.85 18.21 0 1 0-21.7 0zM481.61 672.75a10.85 18.21 0 1 0 21.7 0 10.85 18.21 0 1 0-21.7 0zM481.61 745.61a10.85 18.21 0 1 0 21.7 0 10.85 18.21 0 1 0-21.7 0z" fill="#F3D7D6" /></svg>