<svg xmlns="http://www.w3.org/2000/svg" viewBox="0 0 1024 1024" width="200" height="200"><path d="M78.4384 413.0304L104.8576 184.32s-1.024-77.312 110.848-77.312h583.68s94.6688-4.608 109.6192 82.432 24.3712 203.264 24.3712 203.264 9.5232 126.1056-97.6384 139.6736-132.864-46.08-132.864-46.08A107.0592 107.0592 0 0 1 609.28 538.368c-66.56 0-95.3856-33.1264-103.2704-46.6944-14.4896 17.6128-28.2624 46.6944-101.5296 46.6944S304.1792 486.4 304.1792 486.4s-18.688 56.8832-119.8592 48.1792c-106.1888-9.1648-107.9808-103.7824-105.8816-121.5488z" fill="#7A7AF9" /><path d="M144.1792 574.4128s88.1664 23.04 161.3824-21.7088c36.608 20.48 106.24 50.176 200.2432 0 62.8224 33.8944 134.7072 36.608 199.68 0 51.5072 29.1328 92.16 35.84 161.3824 19.0976v263.9872a92.5696 92.5696 0 0 1-92.5696 92.5184h-537.6a92.5184 92.5184 0 0 1-92.5696-92.5184z" fill="#CCDAFF" /></svg>