<svg xmlns="http://www.w3.org/2000/svg" viewBox="0 0 1025 1024" width="200" height="200"><path d="M725.350639 245.330127c0 29.438105 23.891795 53.3299 53.3299 53.3299s53.3299-23.891795 53.3299-53.3299-23.891795-53.3299-53.3299-53.3299S725.350639 215.913354 725.350639 245.330127zM352.446645 999.201596c32.87255 33.08587 86.202451 33.08587 119.245657 0l521.353105-517.918659c20.883989-20.905321 31.357981-48.444881 30.931342-75.96311L1023.976748 105.819108c0-58.449571-47.378283-105.806522-105.806522-105.806522l-299.50072 0c-27.518229-0.426639-55.036457 10.026021-75.96311 30.931342L24.80907 552.318365c-33.064538 33.043206-33.064538 86.373106 0 119.245657L352.446645 999.201596zM640.022799 245.330127c0-76.581737 62.076004-138.657741 138.657741-138.657741s138.657741 62.076004 138.657741 138.657741-62.076004 138.657741-138.657741 138.657741S640.022799 321.911864 640.022799 245.330127z" fill="#040000" /></svg>