<svg xmlns="http://www.w3.org/2000/svg" viewBox="0 0 1024 1024" width="200" height="200"><path d="M670.250667 130.005333H245.333333v682.666667h597.333334V682.666667h-21.333334v108.672h-554.666666v-640h394.773333l159.893333 159.104V448h21.333334v-146.432l-172.416-171.562667z" fill="#4F4F4F" /><path d="M192 866.005333v-661.333333h432l144 145.706667v515.626666H192z" fill="#F1F4F9" /><path d="M608 204.672h21.333333v138.666667H768v21.333333h-160v-160z" fill="#1F64C0" /><path d="M628.458667 194.005333H181.333333v682.666667h597.333334V682.666667h-21.333334v172.672h-554.666666v-640h416.874666L757.333333 354.773333V448h21.333334v-101.994667l-150.208-152z" fill="#1F64C0" /><path d="M476.352 561.685333H608V693.333333h-131.648v-131.648z" fill="#1F64C0" /><path d="M476.352 405.333333H608v131.648h-131.648V405.333333z" fill="#FFFFFF" /><path d="M586.666667 426.666667v88.981333h-88.981334V426.666667H586.666667z m-110.314667-21.333334v131.648H608V405.333333h-131.648zM320 561.685333h131.648V693.333333H320v-131.648zM320 405.333333h131.648v131.648H320V405.333333z" fill="#1F64C0" /><path d="M814.976 536.896H693.333333v64h121.642667v47.317333l138.709333-80.085333-138.709333-80.085333v48.853333z" fill="#F24141" /></svg>