<svg xmlns="http://www.w3.org/2000/svg" viewBox="0 0 1024 1024" width="200" height="200"><path d="M689.536 96v176.192H864v329.152h64V247.552L732.928 32H96v960h441.344v-64H160v-832h529.536zM514.048 437.184L434.816 303.04h-92.8L464.128 502.4l-134.976 217.408H424.96l87.296-143.04 87.68 144.256 40.768-0.064 36.032-28.864-116.48-185.472 123.264-203.52H591.36L513.92 437.184z" fill="#324558" /><path d="M736 608a192 192 0 1 1 0 384 192 192 0 0 1 0-384z m-49.984 107.2a6.4 6.4 0 0 0-5.952 3.904l-0.448 2.56v156.736a6.4 6.4 0 0 0 7.296 6.272l2.432-0.832 128.128-78.4a6.4 6.4 0 0 0 1.92-9.216l-1.92-1.664-128.128-78.4a6.4 6.4 0 0 0-3.328-0.96z" fill="#41A368" /></svg>