<svg xmlns="http://www.w3.org/2000/svg" viewBox="0 0 1024 1024" width="200" height="200"><path d="M752.64 549.376 237.056 549.376c-15.872 0-28.672-12.8-28.672-28.672L208.384 123.392c0-15.872 12.8-28.672 28.672-28.672L752.64 94.72c15.872 0 28.672 12.8 28.672 28.672l0 397.312C781.824 536.064 768.512 549.376 752.64 549.376zM265.728 491.52l458.24 0L723.968 152.064 265.728 152.064 265.728 491.52zM595.456 313.344 394.24 313.344c-15.872 0-28.672-12.8-28.672-28.672 0-15.872 12.8-28.672 28.672-28.672l201.728 0c15.872 0 28.672 12.8 28.672 28.672C624.64 300.544 611.328 313.344 595.456 313.344zM595.456 394.24 394.24 394.24c-15.872 0-28.672-12.8-28.672-28.672s12.8-28.672 28.672-28.672l201.728 0c15.872 0 28.672 12.8 28.672 28.672S611.328 394.24 595.456 394.24zM495.104 485.376c-15.872 0-28.672-12.8-28.672-28.672L466.432 288.768c0-15.872 12.8-28.672 28.672-28.672s28.672 12.8 28.672 28.672l0 167.936C523.776 472.576 510.976 485.376 495.104 485.376zM482.304 311.296c-9.728 0-19.456-5.12-24.576-13.824l-39.936-66.56c-8.192-13.824-3.584-31.232 9.728-39.424 13.824-8.192 31.232-3.584 39.424 9.728l39.936 66.56c8.192 13.824 3.584 31.232-9.728 39.424C492.544 310.272 487.424 311.296 482.304 311.296zM503.808 311.296c-5.12 0-10.24-1.536-14.848-4.096-13.824-8.192-17.92-25.6-9.728-39.424l39.936-66.56c8.192-13.824 26.112-17.92 39.424-9.728 13.824 8.192 17.92 25.6 9.728 39.424l-39.936 66.56C523.264 306.688 513.536 311.296 503.808 311.296zM655.36 758.784c-15.872 0-28.672-12.8-28.672-28.672 0-15.872 12.8-28.672 28.672-28.672 13.824 0 25.088-11.264 25.088-25.088s-11.264-25.088-25.088-25.088c-15.872 0-28.672-12.8-28.672-28.672s12.8-28.672 28.672-28.672c45.568 0 82.944 37.376 82.944 82.944S701.44 758.784 655.36 758.784zM655.36 758.784 453.632 758.784c-15.872 0-28.672-12.8-28.672-28.672 0-15.872 12.8-28.672 28.672-28.672L655.36 701.44c15.872 0 28.672 12.8 28.672 28.672C684.544 745.984 671.744 758.784 655.36 758.784zM130.56 820.224c-15.872 0-28.672-12.8-28.672-28.672l0-169.472c0-15.872 12.8-28.672 28.672-28.672L655.36 593.408c15.872 0 28.672 12.8 28.672 28.672s-12.8 28.672-28.672 28.672L159.744 650.752l0 140.8C159.744 807.424 146.432 820.224 130.56 820.224zM892.416 739.84c-7.168 0-14.848-2.56-20.48-8.192-11.264-11.264-11.264-29.696 0-40.96 4.608-4.608 7.68-11.264 7.68-17.92 0-12.8-9.728-23.552-22.016-25.088l-117.76 32.768c-15.36 4.096-31.232-4.608-35.328-19.968-4.096-15.36 4.608-31.232 19.968-35.328l122.368-33.792c2.56-0.512 5.12-1.024 7.68-1.024 45.568 0 82.944 37.376 82.944 82.944 0 22.016-8.704 43.008-24.064 58.368C906.752 737.28 899.584 739.84 892.416 739.84zM471.04 933.888c-128.512 0-250.88-40.96-353.28-118.272-12.8-9.728-15.36-27.648-5.632-40.448 9.728-12.8 27.648-15.36 40.448-5.632 92.16 69.632 202.752 106.496 318.464 106.496 150.528 0 294.912-64.512 395.264-177.152 10.752-11.776 28.672-12.8 40.448-2.56 11.776 10.752 12.8 28.672 2.56 40.448C798.208 862.208 638.464 933.888 471.04 933.888z" fill="#000000" /></svg>