<svg xmlns="http://www.w3.org/2000/svg" viewBox="0 0 1024 1024" width="200" height="200"><path d="M0 0h1023.887372v1023.887372H0z" fill="#333333" opacity=".01" /><path d="M819.109898 0a102.388737 102.388737 0 0 1 102.388737 102.388737v819.109898a102.388737 102.388737 0 0 1-169.043805 77.764246L511.943686 844.195139 271.432542 999.314075a102.388737 102.388737 0 0 1-138.685544-4.965853l-5.733769-6.143325A102.388737 102.388737 0 0 1 102.388737 921.498635V102.388737a102.388737 102.388737 0 0 1 102.388737-102.388737z m-307.166212 204.777474a51.194369 51.194369 0 0 0-51.194368 51.194369v102.388737H358.36058a51.194369 51.194369 0 1 0 0 102.388738h102.388738v102.388737a51.194369 51.194369 0 0 0 102.388737 0V460.749318h102.388737a51.194369 51.194369 0 0 0 0-102.388738h-102.388737V255.971843a51.194369 51.194369 0 0 0-51.194369-51.194369z" fill="#333333" /></svg>