<svg xmlns="http://www.w3.org/2000/svg" viewBox="0 0 1024 1024" width="200" height="200"><path d="M761.6 105.6H28.8v156.8c0 38.4 16 73.6 41.6 96v560H944v-560c25.6-25.6 41.6-57.6 41.6-96V105.6h-224z m-224 41.6H720v115.2c0 51.2-41.6 89.6-89.6 89.6-51.2 0-89.6-41.6-89.6-89.6V147.2z m-233.6 0h182.4v115.2c0 51.2-41.6 89.6-89.6 89.6s-89.6-41.6-89.6-89.6V147.2z m-230.4 0H256v115.2c0 51.2-41.6 89.6-89.6 89.6-51.2 0-89.6-41.6-89.6-89.6V147.2z m249.6 729.6V608h102.4v268.8H323.2z m585.6 0H470.4V563.2H284.8v313.6H118.4V384c16 6.4 32 9.6 48 9.6 51.2 0 92.8-28.8 115.2-70.4 22.4 41.6 67.2 70.4 115.2 70.4s92.8-28.8 115.2-70.4c22.4 41.6 67.2 70.4 115.2 70.4 51.2 0 92.8-28.8 115.2-70.4 22.4 41.6 67.2 70.4 115.2 70.4 16 0 32-3.2 48-9.6v492.8z m41.6-614.4c0 51.2-41.6 89.6-89.6 89.6-51.2 0-89.6-41.6-89.6-89.6V147.2h182.4v115.2zM572.8 710.4h166.4V585.6H572.8v124.8z m41.6-83.2h83.2v41.6h-83.2v-41.6z" fill="#000000" /></svg>