<svg xmlns="http://www.w3.org/2000/svg" viewBox="0 0 1024 1024" width="200" height="200"><path d="M853.034667 984.234667C407.168 984.234667 42.666667 619.733333 42.666667 173.866667c0-71.978667 57.898667-129.834667 128.298666-129.834667h159.573334c51.626667 0 92.288 40.661333 92.288 92.288 0 67.285333 14.08 131.413333 42.24 192.426667 7.808 17.194667 4.693333 39.125333-9.386667 53.205333l-68.821333 67.242667a35.498667 35.498667 0 0 0-9.386667 25.045333c0 9.386667 3.114667 17.194667 9.386667 25.045333l139.221333 139.221334c12.501333 12.501333 35.968 12.501333 48.512 0l67.242667-67.285334c14.08-14.08 34.432-17.194667 53.205333-9.386666 61.013333 28.16 126.72 42.24 195.541333 42.24 50.090667 0 92.330667 40.704 92.330667 92.330666v159.573334c-1.578667 70.4-57.898667 128.256-129.877333 128.256zM170.965333 137.898667a34.730667 34.730667 0 0 0-34.432 34.389333c0 395.818667 322.261333 718.08 716.501334 718.08 18.773333 0 34.432-15.616 34.432-34.389333v-158.037334c-70.4 0-137.685333-12.501333-201.813334-39.082666l-43.818666 43.776c-23.466667 23.466667-56.32 37.546667-90.709334 37.546666-34.432 0-65.706667-14.08-90.752-37.546666l-139.221333-139.221334c-23.466667-23.466667-37.546667-56.32-37.546667-90.752 0-34.389333 14.08-65.706667 37.546667-90.709333L366.506667 336.554667a548.053333 548.053333 0 0 1-37.546667-200.234667H170.965333v1.578667z" fill="#F8F8FF" /><path d="M917.205333 375.68h-219.050666a46.08 46.08 0 0 1-46.933334-46.933333V109.738667c0-26.624 20.352-46.933333 46.933334-46.933334 26.624 0 46.933333 20.309333 46.933333 46.933334v172.074666h172.117333c26.581333 0 46.933333 20.352 46.933334 46.933334 0 26.581333-20.352 46.933333-46.933334 46.933333z" fill="#F8F8FF" /><path d="M698.154667 375.68c-12.501333 0-23.466667-4.693333-32.853334-14.08-18.773333-18.773333-18.773333-48.512 0-65.706667l236.245334-237.781333c18.773333-18.773333 48.512-18.773333 65.706666 0 18.773333 18.773333 18.773333 48.469333 0 65.706667l-236.245333 237.781333c-9.386667 9.386667-21.888 14.08-32.853333 14.08z" fill="#F8F8FF" /></svg>