<svg xmlns="http://www.w3.org/2000/svg" viewBox="0 0 1024 1024" width="200" height="200"><path d="M512 192a128 128 0 1 1-128 128 128 128 0 0 1 128-128m0-42.666667a170.666667 170.666667 0 1 0 170.666667 170.666667 170.666667 170.666667 0 0 0-170.666667-170.666667z" fill="#707070" /><path d="M768 844.586667a23.786667 23.786667 0 0 1-5.973333-0.853334 21.333333 21.333333 0 0 1-14.506667-26.453333A245.333333 245.333333 0 1 0 266.666667 748.053333a248.426667 248.426667 0 0 0 9.6 68.693334 21.333333 21.333333 0 1 1-40.96 11.733333A288 288 0 1 1 800 748.053333a288.533333 288.533333 0 0 1-11.52 81.066667A21.333333 21.333333 0 0 1 768 844.586667z" fill="#707070" /><path d="M512 810.666667a21.333333 21.333333 0 0 1-21.333333-21.333334V576a21.333333 21.333333 0 0 1 42.666666 0v213.333333a21.333333 21.333333 0 0 1-21.333333 21.333334z" fill="#2DE3A1" /></svg>