<svg xmlns="http://www.w3.org/2000/svg" viewBox="0 0 1024 1024" width="200" height="200"><path d="M448 213.333333a21.333333 21.333333 0 0 1 21.333333-21.333333h85.333334a21.333333 21.333333 0 0 1 21.333333 21.333333v85.333334a21.333333 21.333333 0 0 1-21.333333 21.333333h-85.333334a21.333333 21.333333 0 0 1-21.333333-21.333333v-85.333334z m0 256a21.333333 21.333333 0 0 1 21.333333-21.333333h85.333334a21.333333 21.333333 0 0 1 21.333333 21.333333v85.333334a21.333333 21.333333 0 0 1-21.333333 21.333333h-85.333334a21.333333 21.333333 0 0 1-21.333333-21.333333v-85.333334z m21.333333 234.666667a21.333333 21.333333 0 0 0-21.333333 21.333333v85.333334a21.333333 21.333333 0 0 0 21.333333 21.333333h85.333334a21.333333 21.333333 0 0 0 21.333333-21.333333v-85.333334a21.333333 21.333333 0 0 0-21.333333-21.333333h-85.333334z" fill="#000000" /></svg>