<svg xmlns="http://www.w3.org/2000/svg" viewBox="0 0 1024 1024" width="200" height="200"><path d="M843.434667 354.304v405.504c0 51.882667-42.325333 94.208-94.208 94.208H265.216c-51.882667 0-94.208-42.325333-94.208-94.208V354.304c0-51.882667 42.325333-94.208 94.208-94.208h484.010667c8.533333 0 16.725333 1.024 24.576 3.072 39.936 10.922667 69.632 47.445333 69.632 91.136z" fill="#FCA235" opacity=".6" /><path d="M695.637333 777.557333H318.805333c-20.48 0-37.205333-16.725333-37.205333-37.205333S298.325333 703.146667 318.805333 703.146667h376.832c20.48 0 37.205333 16.725333 37.205334 37.205333 0 20.821333-16.725333 37.205333-37.205334 37.205333zM811.690667 206.165333c0 6.144-1.024 12.288-3.413334 18.090667-2.389333 5.802667-5.802667 10.922667-10.24 15.36l-23.893333 23.552c-7.850667-2.048-16.042667-3.072-24.576-3.072h-108.885333l60.757333-60.416 26.624-26.282667c8.874667-8.874667 21.504-13.994667 34.474667-14.336 12.970667 0 25.258667 4.778667 34.816 13.653334 4.437333 4.437333 8.192 9.557333 10.581333 15.36 2.048 5.461333 3.413333 11.605333 3.754667 18.090666z" fill="#FCA235" opacity=".6" /><path d="M811.690667 206.165333c0 6.144-1.024 12.288-3.413334 18.090667-2.389333 5.802667-5.802667 10.922667-10.24 15.36l-23.893333 23.552c-7.850667-2.048-16.042667-3.072-24.576-3.072h-108.885333l60.757333-60.416 26.624-26.282667c8.874667-8.874667 21.504-13.994667 34.474667-14.336 12.970667 0 25.258667 4.778667 34.816 13.653334 4.437333 4.437333 8.192 9.557333 10.581333 15.36 2.048 5.461333 3.413333 11.605333 3.754667 18.090666z" fill="#FCA235" opacity=".6" /><path d="M773.802667 263.168l-70.997334 70.314667-161.109333 159.744c-10.24 10.24-23.552 17.408-38.229333 20.821333l-65.536 14.336 13.653333-63.829333c3.072-13.994667 9.898667-27.306667 20.48-37.546667l168.618667-167.253333h108.885333c8.192 0.341333 16.384 1.365333 24.234667 3.413333z" fill="#FFFFFF" /></svg>