<svg xmlns="http://www.w3.org/2000/svg" viewBox="0 0 1024 1024" width="200" height="200"><path d="M176.853333 560.426667h670.506667v42.666666H176.853333z" fill="#2FDDDC" /><path d="M490.666667 729.6h42.666666V853.333333h-42.666666z" fill="#5879FB" /><path d="M359.893333 832h304.213334v42.666667H359.893333zM775.04 750.933333H248.96a93.653333 93.653333 0 0 1-93.44-93.44V242.773333A93.653333 93.653333 0 0 1 248.96 149.333333h526.08a93.653333 93.653333 0 0 1 93.44 93.44v414.72a93.653333 93.653333 0 0 1-93.44 93.44zM248.96 192a50.986667 50.986667 0 0 0-50.773333 50.773333v414.72a50.986667 50.986667 0 0 0 50.773333 50.773334h526.08a50.773333 50.773333 0 0 0 50.773333-50.773334V242.773333A50.773333 50.773333 0 0 0 775.04 192z" fill="#5879FB" /></svg>