<svg xmlns="http://www.w3.org/2000/svg" viewBox="0 0 1024 1024" width="200" height="200"><path d="M686.37 759.39c-6.33 0-12.7-2.18-17.88-6.62L419.12 539.02c-4.57-3.92-11.37-3.81-15.8 0.26L192.58 732.45c-11.19 10.26-28.59 9.51-38.85-1.69-10.26-11.2-9.51-28.59 1.69-38.85l210.73-193.17c24.93-22.85 63.09-23.49 88.76-1.48l249.37 213.75c11.53 9.88 12.87 27.25 2.98 38.78-5.43 6.34-13.14 9.6-20.89 9.6z" fill="#3376E5" /><path d="M892.43 660.85c-5.74 0-11.53-1.79-16.48-5.5l-130.31-97.73c-4.71-3.53-11.41-3.06-15.57 1.11L636 652.8c-10.74 10.74-28.15 10.74-38.89 0-10.74-10.74-10.74-28.15 0-38.89l94.07-94.07a66.914 66.914 0 0 1 87.46-6.22l130.31 97.73c12.15 9.11 14.61 26.35 5.5 38.5-5.4 7.2-13.66 11-22.02 11zM787.8 373.3c-2.85 0-5.7-0.44-8.45-1.33-46.38-14.97-137.3-79.27-137.3-160.09 0-49.99 41.51-90.65 92.53-90.65 19.26 0 37.81 5.92 53.21 16.51A94.006 94.006 0 0 1 841 121.23c51.02 0 92.53 40.67 92.53 90.65 0 80.82-90.92 145.12-137.3 160.09-2.73 0.88-5.58 1.33-8.43 1.33z m-53.21-197.07c-20.7 0-37.53 15.99-37.53 35.65 0 20.2 12.56 43.64 35.36 66 18.59 18.23 39.74 31.63 55.39 38.5 15.65-6.87 36.8-20.27 55.39-38.5 22.8-22.36 35.36-45.8 35.36-66 0-19.66-16.84-35.65-37.53-35.65-12.35 0-23.92 5.79-30.95 15.48a27.507 27.507 0 0 1-22.26 11.36 27.48 27.48 0 0 1-22.26-11.36c-7.05-9.7-18.62-15.48-30.97-15.48z" fill="#3376E5" /><path d="M866.03 902.77H185.72c-37.23 0-67.52-32.71-67.52-72.91V194.13c0-40.2 30.29-72.91 67.52-72.91h403.37c15.19 0 27.5 12.31 27.5 27.5s-12.31 27.5-27.5 27.5H185.72c-5.92 0-12.52 7.36-12.52 17.91v635.73c0 10.55 6.6 17.91 12.52 17.91h680.31c5.92 0 12.52-7.36 12.52-17.91V428.04c0-15.19 12.31-27.5 27.5-27.5s27.5 12.31 27.5 27.5v401.82c-0.01 40.21-30.3 72.91-67.52 72.91z" fill="#D0E2FA" /></svg>