<svg xmlns="http://www.w3.org/2000/svg" viewBox="0 0 1024 1024" width="200" height="200"><path d="M548.949333 106.666667c-16.426667-28.458667-57.493333-28.458667-73.92 0l-89.365333 154.773333H170.282667c-32.853333 0-53.376 35.562667-36.970667 64L241.024 512l-107.733333 186.581333c-16.426667 28.437333 4.117333 64 36.970666 64h215.424L475.093333 917.333333c16.426667 28.437333 57.472 28.437333 73.898667 0l89.365333-154.794666h215.381334c32.853333 0 53.376-35.562667 36.970666-64L782.976 512l107.733333-186.581333c16.426667-28.437333-4.117333-64-36.970666-64H638.314667L548.906667 106.666667z" fill="#408CFF" /></svg>