<svg xmlns="http://www.w3.org/2000/svg" viewBox="0 0 1024 1024" width="200" height="200"><path d="M664.77 429l-27.39-90.22h-88v-75h66.08l70.92 39.09 28.19-50.5-76.87-42.17H398.86v53.58h75v75H385l-25.3 90.32-61.79 63.73v358.5l65.65 67.71H661l65.65-67.71V492.84z m45.46 415.68l-31.13 32.16H519.59l0.92-245.24 136.72-186.79 53 54.67z m-339.7 58l-9.17-9.46h301.85l-9.21 9.47z m-56.2-58V499.51L366.24 446l137.88 185.63-0.92 245.21H345.47z m159.53-489.47h151.37l21.39 70.48-268.75-0.56 19.59-69.92z m16.39-91.38H533v75h-42.75z m22 351.27L384.07 442.46l0.45-0.93 254.41 0.54z m-97-367.66v-20.8h218.24l58.7 32.21L680 280.69l-60.33-33.25H415.26z" fill="#921E25" /></svg>