<svg xmlns="http://www.w3.org/2000/svg" viewBox="0 0 1024 1024" width="200" height="200"><path d="M637.013333 358.4a21.333333 21.333333 0 0 1-35.84 15.786667l-74.666666-68.693334a21.333333 21.333333 0 0 0-29.013334 0l-74.666666 68.266667a21.333333 21.333333 0 0 1-35.84-15.36V106.666667a21.333333 21.333333 0 0 1 21.333333-21.333334h207.36a21.333333 21.333333 0 0 1 21.333333 21.333334zM682.666667 938.624H341.333333a212.352 212.352 0 0 1-162.688-58.666667A219.818667 219.818667 0 0 1 128 725.333333V298.666667c0-123.861333 59.306667-196.778667 171.52-210.986667a19.157333 19.157333 0 0 1 2.645333 0 21.717333 21.717333 0 0 1 20.821334 21.333333v256.853334a82.346667 82.346667 0 0 0 49.066666 75.093333 82.048 82.048 0 0 0 88.32-14.933333l37.077334-34.133334a21.973333 21.973333 0 0 1 14.549333-5.546666 20.821333 20.821333 0 0 1 14.336 5.76l37.077333 34.133333a81.28 81.28 0 0 0 55.466667 21.717333 81.621333 81.621333 0 0 0 81.92-81.877333V109.013333a21.717333 21.717333 0 0 1 20.821333-21.333333 19.157333 19.157333 0 0 1 2.645334 0C836.693333 101.888 896 174.805333 896 298.666667v426.666666a219.818667 219.818667 0 0 1-50.688 154.666667A212.352 212.352 0 0 1 682.666667 938.624z m-298.666667-202.666667a32.042667 32.042667 0 0 0-32.042667 32.042667 32.426667 32.426667 0 0 0 32.042667 32h362.666667a32 32 0 0 0 0-64z m181.333333-170.666666a32 32 0 0 0 0 64h181.333334a32 32 0 0 0 0-64z" fill="#000000" /></svg>