<svg xmlns="http://www.w3.org/2000/svg" viewBox="0 0 1024 1024" width="200" height="200"><path d="M135.68 916.48c-5.12 0-11.52-1.28-16.64-3.84-14.08-6.4-23.04-20.48-23.04-35.84V320c0-116.48 92.16-211.2 206.08-211.2h418.56c113.92 0 206.08 94.72 206.08 211.2v298.24c0 116.48-92.16 211.2-206.08 211.2H252.16l-90.88 76.8c-7.68 6.4-16.64 10.24-25.6 10.24z m166.4-744.96c-78.08 0-142.08 66.56-142.08 147.2v504.32l69.12-58.88h492.8c78.08 0 142.08-66.56 142.08-147.2V320c0-81.92-64-147.2-142.08-147.2H302.08zM608 633.6h-192c-17.92 0-32-14.08-32-32s14.08-32 32-32h192c17.92 0 32 14.08 32 32s-14.08 32-32 32z" fill="#000000" /></svg>