<svg xmlns="http://www.w3.org/2000/svg" viewBox="0 0 1024 1024" width="200" height="200"><path d="M107.2 547.2a332.8 313.6 90 1 0 627.2 0 332.8 313.6 90 1 0-627.2 0Z" fill="#FFBDB6" /><path d="M401.6 888c-187.2 0-340.8-153.6-340.8-340.8s153.6-340.8 340.8-340.8 340.8 153.6 340.8 340.8-153.6 340.8-340.8 340.8z m0-665.6C222.4 222.4 76.8 368 76.8 547.2s145.6 324.8 324.8 324.8 324.8-145.6 324.8-324.8c0-179.2-145.6-324.8-324.8-324.8z" fill="#000000" /><path d="M401.6 547.2m-268.8 0a268.8 268.8 0 1 0 537.6 0 268.8 268.8 0 1 0-537.6 0Z" fill="#B9D7FB" /><path d="M401.6 824c-152 0-276.8-124.8-276.8-276.8s124.8-276.8 276.8-276.8 276.8 124.8 276.8 276.8-124.8 276.8-276.8 276.8z m0-537.6c-144 0-260.8 116.8-260.8 260.8s116.8 260.8 260.8 260.8 260.8-116.8 260.8-260.8-116.8-260.8-260.8-260.8z" fill="#000000" /><path d="M942.4 240c-17.6-57.6-49.6-78.4-49.6-78.4-25.6-16-49.6-11.2-72 8-6.4 4.8-11.2 11.2-14.4 17.6-9.6 16-16 33.6-22.4 49.6-6.4 19.2-11.2 36.8-14.4 56-4.8 25.6-4.8 52.8 3.2 78.4 6.4 20.8 17.6 38.4 36.8 51.2 16 11.2 30.4 30.4 30.4 49.6v356.8c0 3.2 3.2 6.4 6.4 6.4H880c3.2 0 6.4-3.2 6.4-6.4v-16-36.8-41.6-32c0-27.2 1.6-56 1.6-83.2v-88-56-1.6c1.6-12.8 6.4-25.6 14.4-36.8 4.8-8 12.8-12.8 20.8-19.2 9.6-6.4 20.8-20.8 25.6-32s9.6-24 9.6-38.4c3.2-54.4-16-107.2-16-107.2z" fill="#B9D7FB" /><path d="M880 843.2h-33.6c-8 0-14.4-6.4-14.4-14.4V472c0-16-12.8-33.6-27.2-43.2-19.2-12.8-32-30.4-40-56s-9.6-52.8-3.2-81.6c3.2-17.6 8-35.2 14.4-57.6l3.2-8c6.4-14.4 11.2-28.8 20.8-43.2 3.2-4.8 8-12.8 16-19.2 25.6-22.4 54.4-25.6 81.6-8 1.6 1.6 35.2 22.4 52.8 83.2 1.6 4.8 19.2 56 16 110.4 0 14.4-4.8 28.8-9.6 41.6-6.4 12.8-17.6 28.8-28.8 35.2-1.6 1.6-3.2 3.2-4.8 3.2-6.4 4.8-11.2 8-12.8 12.8-8 9.6-11.2 22.4-12.8 33.6v353.6c-3.2 8-9.6 14.4-17.6 14.4z m-32-16h30.4v-124.8-41.6-187.2c1.6-16 8-28.8 16-41.6 4.8-6.4 11.2-12.8 17.6-17.6 1.6-1.6 3.2-3.2 4.8-3.2 8-6.4 19.2-19.2 24-28.8 4.8-9.6 9.6-22.4 9.6-35.2 3.2-52.8-16-104-16-104-16-54.4-46.4-73.6-46.4-73.6-20.8-12.8-41.6-11.2-62.4 8-6.4 4.8-9.6 11.2-12.8 14.4-8 14.4-14.4 28.8-19.2 41.6l-1.6 6.4c-6.4 20.8-11.2 36.8-14.4 54.4-4.8 27.2-4.8 52.8 3.2 75.2 6.4 20.8 17.6 36.8 33.6 46.4 16 11.2 33.6 32 33.6 56v355.2z" fill="#000000" /></svg>