<svg xmlns="http://www.w3.org/2000/svg" viewBox="0 0 1024 1024" width="200" height="200"><path d="M520.98 509.58m-286.62 0a286.62 286.62 0 1 0 573.24 0 286.62 286.62 0 1 0-573.24 0Z" fill="#FF743E" /><path d="M326.57 711.59a558.37 558.37 0 0 1-56.4-2.72c-41.13-4.19-75.29-13.1-101.52-26.47-30.22-15.39-49.86-37.16-56.82-62.95-12.08-44.81 16.37-86.84 42.37-114.22a23.5 23.5 0 0 1 34.08 32.37c-14.5 15.26-37.81 44.61-31.07 69.61 7.45 27.62 51.46 48.15 117.72 54.9 75.84 7.73 171.63-2.59 269.72-29s186.08-65.76 247.75-110.57c53.88-39.16 81.6-79 74.15-106.65-5.24-19.41-27.38-31.82-45-38.81a23.5 23.5 0 0 1 17.31-43.7c27.65 10.95 62.78 32 73.1 70.27 7 25.79 0.92 54.48-17.46 83-16 24.75-41 49.62-74.44 73.93-66.19 48.1-159.64 90-263.14 117.88-80.78 21.77-160.53 33.13-230.35 33.13z" fill="#000000" /></svg>