<svg xmlns="http://www.w3.org/2000/svg" viewBox="0 0 1024 1024" width="200" height="200"><path d="M992 576H640a32 32 0 0 1-32-32V288a32 32 0 0 1 32-32h266.56a32 32 0 0 1 0 64H672v192h320a32 32 0 0 1 0 64zM480 576H32a32 32 0 0 1-32-32V288a32 32 0 0 1 32-32h448a32 32 0 0 1 32 32v256a32 32 0 0 1-32 32zM64 512h384v-192H64z" fill="#9F85EC" /><path d="M1024 533.76L908.8 193.6a96 96 0 0 0-90.88-64H96A96 96 0 0 0 0 224v480a96 96 0 0 0 96 96h36.48a128 128 0 1 0 0-64H96a32 32 0 0 1-32-32V224a32 32 0 0 1 32-32h721.92a32 32 0 0 1 32 21.76L960 549.12V704a32 32 0 0 1-32 32h-36.48a128 128 0 0 0-247.04 0H480a32 32 0 0 0 0 64h164.48a128 128 0 0 0 247.04 0H928a96 96 0 0 0 96-96v-170.24zM256 704a64 64 0 1 1-64 64 64 64 0 0 1 64-64z m512 128a64 64 0 1 1 64-64 64 64 0 0 1-64 64z" fill="#38004D" /></svg>