<svg xmlns="http://www.w3.org/2000/svg" viewBox="0 0 1024 1024" width="200" height="200"><path d="M174.933333 919.466667c-96 0-174.933333-78.933333-174.933333-174.933334s78.933333-174.933333 174.933333-174.933333 174.933333 78.933333 174.933334 174.933333-78.933333 174.933333-174.933334 174.933334z m0-307.2c-72.533333 0-132.266667 59.733333-132.266666 132.266666 0 72.533333 59.733333 132.266667 132.266666 132.266667 72.533333 0 132.266667-59.733333 132.266667-132.266667 0-72.533333-59.733333-132.266667-132.266667-132.266666zM849.066667 919.466667c-96 0-174.933333-78.933333-174.933334-174.933334s78.933333-174.933333 174.933334-174.933333 174.933333 78.933333 174.933333 174.933333-78.933333 174.933333-174.933333 174.933334z m0-307.2c-72.533333 0-132.266667 59.733333-132.266667 132.266666 0 72.533333 59.733333 132.266667 132.266667 132.266667s132.266667-59.733333 132.266666-132.266667c0-72.533333-59.733333-132.266667-132.266666-132.266666zM605.866667 699.733333H426.666667l-4.266667-12.8C317.866667 416 57.6 507.733333 46.933333 512c-10.666667 4.266667-23.466667-2.133333-27.733333-12.8-4.266667-10.666667 2.133333-23.466667 12.8-27.733333 2.133333-2.133333 302.933333-106.666667 424.533333 185.6h134.4c12.8-40.533333 57.6-147.2 155.733334-192 70.4-32 153.6-23.466667 247.466666 23.466666 10.666667 4.266667 14.933333 19.2 8.533334 27.733334-4.266667 10.666667-19.2 14.933333-27.733334 8.533333-81.066667-40.533333-151.466667-49.066667-209.066666-21.333333-100.266667 44.8-136.533333 177.066667-136.533334 179.2l-4.266666 14.933333-19.2 2.133333zM251.733333 488.533333c-12.8 0-21.333333-8.533333-21.333333-21.333333V155.733333c0-12.8 8.533333-21.333333 21.333333-21.333333s21.333333 8.533333 21.333334 21.333333v311.466667c0 12.8-8.533333 21.333333-21.333334 21.333333zM827.733333 488.533333c-12.8 0-21.333333-8.533333-21.333333-21.333333V155.733333c0-12.8 8.533333-21.333333 21.333333-21.333333s21.333333 8.533333 21.333334 21.333333v311.466667c0 12.8-8.533333 21.333333-21.333334 21.333333zM900.266667 147.2H157.866667c-12.8 0-21.333333-8.533333-21.333334-21.333333s8.533333-21.333333 21.333334-21.333334h742.4c12.8 0 21.333333 8.533333 21.333333 21.333334s-8.533333 21.333333-21.333333 21.333333zM328.533333 544c-6.4 0-10.666667-2.133333-14.933333-6.4-8.533333-8.533333-8.533333-21.333333 0-29.866667l142.933333-145.066666c8.533333-8.533333 21.333333-8.533333 29.866667 0 8.533333 8.533333 8.533333 21.333333 0 29.866666l-142.933333 145.066667c-4.266667 4.266667-8.533333 6.4-14.933334 6.4zM529.066667 458.666667c-6.4 0-10.666667-2.133333-14.933334-6.4L384 315.733333c-8.533333-8.533333-8.533333-21.333333 0-29.866666 8.533333-8.533333 21.333333-8.533333 29.866667 0l130.133333 136.533333c8.533333 8.533333 8.533333 21.333333 0 29.866667-4.266667 4.266667-10.666667 6.4-14.933333 6.4z" fill="#000000" /></svg>