<svg xmlns="http://www.w3.org/2000/svg" viewBox="0 0 1024 1024" width="200" height="200"><path d="M512 62.317714a449.682286 449.682286 0 1 1 0 899.364572A449.682286 449.682286 0 0 1 512 62.317714z m0 102.4a347.282286 347.282286 0 1 0 0 694.564572 347.282286 347.282286 0 0 0 0-694.564572z m130.779429 421.010286a40.009143 40.009143 0 0 1 50.468571-23.552 38.619429 38.619429 0 0 1 24.429714 49.810286C686.811429 695.808 604.525714 751.981714 512 751.981714s-174.811429-56.173714-205.677714-139.995428a38.619429 38.619429 0 0 1 24.356571-49.810286c20.48-6.948571 43.154286 3.364571 50.541714 23.552 19.456 52.809143 71.68 88.502857 130.779429 88.502857 59.026286 0 111.323429-35.693714 130.779429-88.502857zM384 351.963429a64 64 0 1 1-6.144 0.292571l6.144-0.292571z m256 0a64 64 0 1 1-6.144 0.292571l6.144-0.292571z" fill="#77798E" /></svg>