<svg xmlns="http://www.w3.org/2000/svg" viewBox="0 0 1024 1024" width="200" height="200"><path d="M778.666667 778.666667a32 32 0 0 0 32-32v-341.333334a32 32 0 0 0-64 0v341.333334c0 17.664 14.336 32 32 32zM608 778.666667a32 32 0 0 0 32-32v-341.333334a32 32 0 0 0-64 0v341.333334c0 17.664 14.336 32 32 32zM245.333333 778.666667A32 32 0 0 1 213.333333 746.666667v-341.333334a32 32 0 0 1 64 0v341.333334a32 32 0 0 1-32 32zM416 778.666667a32 32 0 0 0 32-32v-341.333334a32 32 0 0 0-64 0v341.333334c0 17.664 14.336 32 32 32z" fill="#222222" /><path d="M832 302.122667V362.666667h-640V302.122667l320-106.666667 320 106.666667zM157.184 246.272A42.666667 42.666667 0 0 0 128 286.762667V384a42.666667 42.666667 0 0 0 42.666667 42.666667h682.666666a42.666667 42.666667 0 0 0 42.666667-42.666667V286.72a42.666667 42.666667 0 0 0-29.184-40.448l-341.333333-113.792a42.666667 42.666667 0 0 0-26.965334 0l-341.333333 113.792zM170.666667 757.333333a32 32 0 0 1 32-32h618.666666a32 32 0 0 1 0 64H202.666667a32 32 0 0 1-32-32zM128 885.333333a32 32 0 0 1 32-32h704a32 32 0 0 1 0 64H160a32 32 0 0 1-32-32z" fill="#222222" /></svg>