<svg xmlns="http://www.w3.org/2000/svg" viewBox="0 0 1024 1024" width="200" height="200"><path d="M854.68 954.44h-686.7c-25.78 0-46.74-20.98-46.74-46.74v-478c0-13.1 5.54-25.68 15.21-34.52L479.36 81.96c17.97-16.38 45.04-16.4 63.01-0.05l343.79 313.26a46.85 46.85 0 0 1 15.27 34.56v477.98c0 25.75-20.98 46.73-46.75 46.73z m-678.32-55.13H846.3v-465.9L510.9 127.8 176.36 433.38v465.93z" fill="#000000" /><path d="M509.87 836.42c-15.22 0-27.56-12.35-27.56-27.56V590.49c0-15.22 12.34-27.56 27.56-27.56 15.22 0 27.56 12.35 27.56 27.56v218.37c0 15.22-12.34 27.56-27.56 27.56z" fill="#000000" /></svg>