<svg xmlns="http://www.w3.org/2000/svg" viewBox="0 0 1024 1024" width="200" height="200"><path d="M759.296 153.9072c91.136 15.7696 116.992 78.08 115.0976 143.36l0.4096-0.9728-40.96 537.6L300.544 870.4h0.512c-44.288-1.8432-142.9504-5.9392-147.456-143.872l49.4592-90.112 84.6848 197.888 15.104 35.2256 84.3264-274.7904-0.9216 0.2048 0.512-0.8704 278.0672 88.832-41.9328-163.2256-29.7472-117.248 265.0624-17.0496-18.4832-15.36-190.3104-155.136L759.3984 153.6l-0.1024 0.3072zM153.6 724.992v0.768-0.8704 0.1024z m154.112-421.1712c107.0592-106.1888 245.1968-168.96 298.1888-115.4048 52.992 53.4016-3.1232 183.4496-110.336 289.536-107.1104 106.1376-243.5072 172.3392-296.448 118.9376-53.0432-53.4016 1.3824-186.8288 108.544-293.0176l0.1024-0.0512z" fill="#AE1822" /></svg>